<svg width="50" height="53" viewBox="0 0 50 53" fill="none" xmlns="http://www.w3.org/2000/svg">
<path d="M30.1268 0.326344C29.4037 0.720812 29.3708 2.23294 30.0282 3.12049C30.2912 3.44921 30.5213 4.17241 30.5213 4.66549C30.5213 5.42155 30.2912 5.68453 29.305 6.11187C28.6147 6.37485 27.9573 6.76932 27.8587 6.93368C27.4642 7.52538 27.9244 8.38006 28.9106 8.97177C30.1268 9.69496 30.1597 9.26762 28.9763 8.28145C28.0888 7.55826 28.0559 7.52538 28.6805 7.0323C29.0421 6.76932 29.5351 6.53921 29.7653 6.53921C30.0282 6.53921 30.5871 6.30911 31.0144 6.01326C31.8362 5.45443 32.1321 4.13953 31.5075 3.74507C31.3102 3.61358 30.8829 2.989 30.5213 2.29868C29.9625 1.14815 29.9296 1.01666 30.4556 0.523578C31.0473 -0.100997 30.9487 -0.166741 30.1268 0.326344Z" fill="currentColor"/>
<path d="M31.3433 1.04948C31.3433 1.90416 31.6063 2.43012 32.3953 3.15331C33.6773 4.36958 33.5787 5.0599 31.7707 6.70352C30.7516 7.65682 30.5215 8.08416 30.653 8.67586C30.8174 9.33331 30.6859 9.46479 29.8641 9.62916C29.3053 9.72777 28.4506 9.92501 27.9246 10.0236C26.4782 10.2866 26.1166 10.9112 26.3468 12.752L26.544 14.3628L24.8346 14.4943C23.8813 14.56 20.3311 14.6586 16.8795 14.6915C8.85867 14.7901 8.03686 14.9216 7.05069 16.105C5.40708 18.0445 1.824 26.5584 0.60772 31.4893C-0.148344 34.4478 -0.181216 35.171 0.410486 37.0775C0.706337 38.1295 0.739209 38.9184 0.541975 39.7731C0.278997 40.6935 0.344741 41.2195 0.706337 41.9426C1.1008 42.6987 1.13368 43.1589 0.837826 44.2108C0.574847 45.2956 0.60772 45.8216 1.00219 46.8406C1.33091 47.6953 1.4624 48.7801 1.36378 50.095C1.23229 51.64 1.29804 52.1988 1.69251 52.5275C2.08697 52.8234 6.62336 52.9549 22.3692 52.9878C40.5147 53.0535 42.7829 52.9878 45.3141 52.4618C48.8643 51.7386 49.5875 51.2455 49.5875 49.7334C49.5875 49.1088 49.3574 48.1555 49.0944 47.6296C48.7328 46.9392 48.6999 46.4462 48.93 45.8216C49.3902 44.6382 49.3574 43.1589 48.8643 42.37C48.5356 41.8769 48.5684 41.4167 49.0615 40.0689C49.5217 38.754 49.5875 38.2281 49.2916 37.4063C48.7657 35.8613 48.8314 34.1519 49.4231 34.1519C49.6861 34.1519 49.9162 33.9875 49.9162 33.7903C49.9162 33.2972 43.1774 20.5099 40.9421 16.8282C39.0026 13.5738 39.4628 13.7711 34.6306 14.1327L32.6582 14.2642L32.4939 11.9631C32.3953 10.4838 32.2309 9.82639 32.0337 10.0894C31.9022 10.3523 31.8693 11.4043 31.9679 12.489L32.198 14.4285H29.7655C27.0371 14.4285 26.9056 14.3299 26.9056 11.7001V10.4838H29.1738C30.5873 10.4838 31.5734 10.3195 31.7049 10.0894C31.8364 9.89214 31.7707 9.62916 31.5734 9.56341C31.0475 9.39905 31.5734 8.41288 33.0198 6.76926C33.6773 6.07895 34.1375 5.19139 34.1375 4.73118C34.1375 3.90937 33.1184 2.59448 32.4939 2.59448C32.2966 2.59448 32.1651 2.06852 32.2309 1.3782C32.2966 0.49065 32.198 0.129055 31.8364 0.0633087C31.4748 -0.035305 31.3433 0.260544 31.3433 1.04948ZM34.9264 18.6033C33.8745 20.5756 32.0337 24.0601 30.8174 26.4269C29.5354 28.9252 28.2533 30.9633 27.7603 31.3578C26.9713 31.9495 26.3139 32.0152 22.2048 32.081C19.6408 32.1138 14.1182 32.1796 9.91059 32.2453C5.7358 32.3111 2.18559 32.2124 2.0541 32.081C1.92261 31.9495 2.34995 30.8318 3.0074 29.5827C3.66485 28.3664 4.58527 26.3283 5.04548 25.0791C5.53857 23.83 6.49187 21.6604 7.21506 20.2798C8.59569 17.5843 8.8258 16.6967 8.03686 17.3542C7.77389 17.5843 7.08357 18.8334 6.49187 20.1812C5.90016 21.5289 5.37421 22.5809 5.27559 22.5151C4.97974 22.1864 8.13548 16.105 8.8258 15.7434C9.31888 15.4804 11.4227 15.4147 16.3207 15.579C20.0681 15.7105 23.1581 15.842 23.2239 15.9078C23.2896 15.9735 22.928 16.6638 22.4349 17.4528C21.909 18.2088 20.7585 20.2798 19.8052 21.9891C18.8847 23.6985 17.5041 26.2297 16.7809 27.5774C15.3345 30.2072 14.8743 31.9823 16.0248 30.5031C16.6823 29.6155 21.2515 21.3974 23.0595 17.8472C24.21 15.579 24.2429 15.5462 25.3277 15.6777L26.4782 15.8092L23.3554 21.9234C21.646 25.3093 19.9695 28.6294 19.6408 29.2868C18.6218 31.2591 18.9176 31.4893 20.1996 29.7141C21.7446 27.5446 26.9056 17.1569 26.9056 16.2036C26.9056 15.3818 26.1495 15.4804 34.8936 15.1517L36.833 15.086L34.9264 18.6033ZM39.7258 16.3022C40.3832 18.5047 41.1393 20.1483 42.3884 21.9891C43.0459 22.9753 43.8348 24.3888 44.1635 25.112C44.4923 25.8352 45.6428 27.8404 46.6947 29.5827C47.7466 31.3249 48.6013 32.9028 48.6013 33.1C48.6013 33.5931 46.8591 32.9685 46.1688 32.2124C45.8729 31.8837 45.5113 30.9304 45.347 30.0757C45.1826 29.1224 44.7224 28.1691 44.1964 27.6103C43.7033 27.0844 43.3417 26.3283 43.3417 25.8023C43.3417 24.5203 42.8487 23.7971 41.6981 23.304C41.0407 23.0411 40.6462 22.5809 40.5147 22.022C40.2517 20.6085 39.2656 18.8663 38.7396 18.8663C38.4438 18.8663 38.115 19.3594 37.9507 20.1154C37.7863 20.7729 36.9974 22.0878 36.2084 23.0082C35.2551 24.1259 34.7949 24.9805 34.7949 25.6051C34.7949 26.1968 34.4005 27.0186 33.7759 27.7089C33.2171 28.3664 32.6254 29.4183 32.461 30.0429C32.198 30.9633 31.8364 31.3578 30.9489 31.7194C30.3243 32.0152 29.7326 32.1467 29.634 32.081C29.5682 31.9823 30.1271 30.8975 30.8831 29.6813C31.6392 28.4321 32.6911 26.4598 33.2499 25.2764C34.9922 21.4303 38.5424 15.086 38.9368 15.086C39.167 15.086 39.5285 15.6448 39.7258 16.3022ZM39.4957 21.2002C39.6272 22.4165 39.8573 22.9096 40.6791 23.5341C41.5338 24.2245 41.6981 24.5532 41.6981 25.7366C41.6981 26.8871 41.8954 27.3145 42.8487 28.2349C43.6376 28.991 43.9992 29.6484 43.9992 30.3058C43.9992 31.7194 44.5251 32.4425 46.3003 33.3301C47.7466 34.0533 47.9439 34.2834 47.9439 35.2038C47.9439 35.7627 48.1082 36.716 48.3383 37.3405C48.6671 38.2281 48.6342 38.7212 48.1411 40.2333C47.7138 41.6468 47.648 42.1728 47.9767 42.7316C48.2068 43.2247 48.2726 44.178 48.1411 45.5257C47.9767 47.2351 48.0425 47.7611 48.5684 48.6486C48.93 49.2074 49.1273 49.8978 49.0287 50.1607C48.7328 50.8839 47.0892 51.5742 45.6099 51.5742H44.2622L44.4594 50.5223C44.5909 49.7663 44.4923 49.1088 44.0978 48.3856C43.6047 47.4652 43.5718 47.1365 43.9006 46.2818C44.2293 45.3942 44.2293 45.0655 43.7691 44.3423C43.276 43.4876 43.276 43.3233 43.802 42.0413C44.295 40.7921 44.295 40.562 43.8348 39.8717C43.2431 38.9841 43.2103 38.0308 43.7033 37.5378C44.295 36.9461 43.7362 35.7955 42.8158 35.7955C42.3556 35.7955 41.4351 35.4668 40.7448 35.0723L39.4957 34.3491L38.5095 35.0723C37.9836 35.4339 36.8988 35.7955 36.077 35.8613L34.6306 35.9599V37.6035C34.6306 38.4911 34.4991 39.7402 34.3676 40.299C34.2032 40.9894 34.2361 41.7783 34.4991 42.4686C34.8278 43.3562 34.7949 43.7178 34.3347 44.5724C33.9074 45.4271 33.8745 45.7887 34.1704 46.5448C34.4005 47.0379 34.5648 48.55 34.5977 49.8649L34.6306 52.2646L31.6721 52.1659C28.9108 52.0673 28.7136 52.0345 28.845 51.4099C28.9108 51.0483 28.9437 50.095 28.9108 49.2732C28.9108 48.4514 28.9108 47.2022 28.9108 46.479C28.9437 45.7558 28.9437 44.6382 28.9108 44.0136C28.7464 38.754 28.8779 33.7574 29.2066 33.1986C29.4039 32.8041 29.8641 32.5083 30.2257 32.5083C31.6721 32.5083 33.4472 30.9304 33.48 29.6484C33.48 29.2539 34.006 28.3993 34.6306 27.7747C35.4853 26.92 35.7811 26.3283 35.7811 25.5065C35.7811 24.6518 36.1098 24.1259 37.2604 22.9753C38.4438 21.8248 38.7396 21.2988 38.7396 20.4113C38.7396 18.8334 39.2656 19.3922 39.4957 21.2002ZM4.68389 24.5861C4.38804 25.3421 4.09219 25.901 4.02644 25.8352C3.9607 25.7695 4.15793 25.112 4.45378 24.356C4.74963 23.5999 5.04548 23.0411 5.11123 23.1068C5.17697 23.1726 4.97974 23.83 4.68389 24.5861ZM23.191 33.1L25.9194 33.1657L25.5907 33.9875C25.4263 34.4478 25.3606 35.2367 25.4592 35.7627C25.6564 36.6502 25.5907 36.6831 24.1114 36.9132C23.2568 37.0118 21.8104 37.1104 20.9228 37.1104C19.8709 37.1104 19.3778 37.2419 19.5093 37.472C19.6737 37.7021 20.6927 37.735 22.5993 37.6035L25.4592 37.3734V39.28C25.4263 40.3648 25.4921 41.4496 25.5907 41.7125C25.7222 42.0741 25.4592 42.2385 24.6045 42.2714C21.1529 42.5344 19.8709 42.7645 20.3969 43.0603C20.7256 43.2575 21.909 43.2575 23.2568 43.0932L25.5249 42.8302L25.6564 44.4738C25.755 45.3942 25.9194 46.3804 26.0509 46.6763C26.2481 47.1693 25.8865 47.2351 22.8952 47.3666C21.0214 47.4323 19.4107 47.3995 19.3121 47.2351C19.2135 47.0707 19.1148 45.0326 19.082 42.6987C19.0491 40.3648 18.8519 38.0637 18.6875 37.5706L18.3259 36.6831L15.3674 36.8803C10.9296 37.209 11.1269 36.9461 11.1269 42.37C11.1269 45.6572 11.2255 47.005 11.5542 47.2022C11.9815 47.4981 17.0768 47.4323 18.0629 47.1365C18.3916 47.005 18.6875 47.0707 18.6875 47.2351C18.6875 47.3995 17.1096 47.6953 15.1702 47.8597C11.7186 48.2213 11.5871 48.1884 11.0611 47.4981L10.4694 46.8078V47.5638C10.4694 48.3199 10.3708 48.3528 8.26697 48.287C7.01782 48.2541 5.60431 48.2541 5.04548 48.287C4.05931 48.3199 4.05931 48.3199 4.84825 48.6486C5.37421 48.8458 7.8725 48.8458 12.0802 48.5829C15.6304 48.3856 20.1668 48.1884 22.1391 48.1884C25.5907 48.1226 25.755 48.1555 25.6893 48.7801C25.6564 49.1417 25.755 49.832 25.8865 50.3251L26.1824 51.1798L22.6979 51.377C20.7585 51.4756 17.0439 51.7057 14.4141 51.903C8.26697 52.3303 3.33612 52.3303 3.07314 51.903C2.94165 51.7057 3.04027 50.8182 3.27038 49.9635C3.63197 48.4842 3.63197 48.287 2.97453 47.4652C2.15272 46.4462 2.0541 45.5257 2.67868 44.2437C3.07314 43.3562 3.10602 43.3562 6.62335 43.3562C8.72718 43.3562 10.1407 43.2247 10.1407 43.0274C10.1407 42.6658 8.79293 42.5672 5.47282 42.6987L3.27038 42.7645L2.54719 41.2523C1.88974 39.9046 1.85687 39.6745 2.25134 38.9184L2.71155 38.0637L5.86729 38.2938C7.60952 38.3924 9.4175 38.3924 9.84484 38.2281C10.6338 37.9651 10.6338 37.9651 9.64761 37.735C9.12165 37.6035 7.31367 37.5049 5.70293 37.472C2.77729 37.4391 2.71155 37.4063 2.15272 36.4858C1.4624 35.3353 1.42953 34.2177 2.0541 33.5273C2.48144 33.0671 3.73059 33.0014 11.5213 33.0343C16.4522 33.0343 21.7118 33.0671 23.191 33.1ZM28.2205 34.2505C28.2205 35.4668 27.1686 36.9789 26.6097 36.6502C26.018 36.2557 26.1824 34.3491 26.9385 33.5602C27.7603 32.6398 28.2205 32.9028 28.2205 34.2505ZM41.4023 37.5049C41.4351 37.5706 41.5666 40.4963 41.731 44.0136C41.8625 47.5309 42.0268 50.7196 42.0926 51.0812C42.1912 51.6729 41.9282 51.7715 39.6272 52.0345C38.1479 52.1988 36.9316 52.1988 36.8001 52.0345C36.6687 51.8701 36.6029 48.5171 36.7015 44.5724L36.833 37.4391H39.1012C40.3504 37.4391 41.4023 37.472 41.4023 37.5049ZM18.1615 40.299C18.2602 41.6797 18.3588 43.652 18.3588 44.7368V46.6434H15.6632C14.1511 46.6434 12.639 46.742 12.2774 46.8406C11.6199 47.005 11.5871 46.9064 11.7186 42.7973C11.7843 40.4963 11.8829 38.3924 11.9487 38.1623C12.0473 37.8994 12.9677 37.7679 15.0058 37.7679H17.9314L18.1615 40.299ZM27.4973 38.754C27.563 39.1814 27.4644 40.1347 27.2343 40.8579C26.9056 41.9426 26.7741 42.0741 26.5111 41.6139C26.018 40.6606 25.9194 39.8059 26.3139 38.7212C26.7083 37.6035 27.3329 37.6035 27.4973 38.754ZM27.826 44.2108C27.9246 45.7558 27.1357 47.1365 26.5769 46.3147C26.1166 45.6244 26.1824 43.5534 26.6426 43.0932C27.3 42.4357 27.7274 42.8302 27.826 44.2108ZM27.8917 48.2541C28.0561 48.6157 28.2205 49.4375 28.2205 50.095C28.2205 51.1469 28.1219 51.2784 27.4973 51.1798C26.5111 51.0483 25.9852 49.6019 26.5111 48.4514C26.9713 47.4652 27.4315 47.3995 27.8917 48.2541Z" fill="currentColor"/>
<path d="M11.1597 17.0584C10.1406 18.7021 4.68383 29.5499 4.38798 30.5361L4.125 31.3579L4.88106 30.7005C5.76862 29.9115 12.2445 16.8941 12.0144 16.3353C11.9486 16.0723 11.587 16.401 11.1597 17.0584Z" fill="currentColor"/>
<path d="M14.8414 17.8143C14.2826 18.7676 13.4608 20.1811 13.0334 21.0029C12.6061 21.8247 11.4227 23.8957 10.4037 25.6051C8.43132 28.8923 7.34653 31.1934 7.741 31.1934C8.76004 31.1276 16.6165 16.861 15.992 16.2365C15.9262 16.1378 15.4003 16.861 14.8414 17.8143Z" fill="currentColor"/>
<path d="M28.615 18.2746C27.2015 20.7072 22.7637 29.4512 22.2706 30.8318L21.9419 31.6865L22.6322 30.9962C23.454 30.1744 30.5873 16.0722 30.1928 16.0722C30.0285 16.0722 29.3053 17.0583 28.615 18.2746Z" fill="currentColor"/>
<path d="M33.0853 16.6311C31.9676 17.9788 24.8015 31.5222 25.2288 31.5222C25.6233 31.5222 27.0697 29.0897 30.3569 22.9754C31.7704 20.3456 33.1839 17.7158 33.5126 17.1241C34.1701 16.0065 33.9071 15.7106 33.0853 16.6311Z" fill="currentColor"/>
<path d="M18.3918 17.3542C17.9973 17.8802 16.6495 20.4442 15.4004 23.0411C14.1512 25.638 12.6391 28.5308 12.0803 29.4841C11.5214 30.4374 11.127 31.2921 11.2256 31.4236C11.5872 31.7523 14.3485 27.0844 16.9125 21.8577C19.3451 16.9926 19.9039 15.2175 18.3918 17.3542Z" fill="currentColor"/>
</svg>
