<svg width="39" height="32" viewBox="0 0 39 32" fill="none" xmlns="http://www.w3.org/2000/svg">
<path d="M22.6117 0.0345211C22.5753 0.0709839 21.8277 0.143913 20.9708 0.216841C20.0957 0.271536 18.8742 0.453856 18.2361 0.617943C17.5979 0.78203 16.8504 0.946117 16.5587 1.00081C16.2852 1.05551 16.0118 1.1649 15.9571 1.25606C15.9024 1.34722 15.6836 1.42015 15.483 1.42015C14.7538 1.42015 9.94053 3.93615 8.91954 4.84775C8.39081 5.32178 7.35159 6.17868 6.64055 6.7621C5.05437 8.02011 2.81184 10.2079 2.19196 11.0831C1.29859 12.3411 0.0952878 15.1488 0.314071 15.477C0.350535 15.5681 0.314071 15.8051 0.186447 16.0239C-0.0323357 16.4615 -0.0687995 19.9256 0.131752 21.0924C0.295839 21.9858 0.769869 23.0432 2.5566 26.562C2.79361 27.0178 3.63228 28.0388 4.45272 28.8045C5.65603 29.9531 6.16652 30.3177 7.33336 30.7918C8.11734 31.1017 8.81015 31.357 8.84661 31.357C8.90131 31.357 9.35711 31.4664 9.8676 31.594C11.6361 32.068 15.2825 31.7398 17.1604 30.9559C17.8167 30.6824 18.6372 30.3907 18.9836 30.3177C19.33 30.2448 20.2963 29.862 21.1167 29.4608L22.6117 28.7498L23.6509 29.4791C25.2371 30.6095 26.4587 30.4089 26.4587 29.0051C26.4587 28.5128 25.5288 26.5802 24.9636 25.8874C24.6902 25.5774 24.7995 25.5045 25.8388 25.3587C27.2609 25.1763 28.5553 24.5018 31.5636 22.3686C35.3376 19.7068 36.8326 18.0112 37.4525 15.7322C38.1089 13.2891 38.4188 10.6273 38.1089 9.98915C38.0359 9.8433 37.7989 9.25988 37.5801 8.71292C37.1608 7.619 36.6503 6.90796 35.3923 5.66819C34.5354 4.82952 32.1652 3.06102 31.8918 3.06102C31.8188 3.06102 30.9802 2.69638 30.0686 2.24058C29.1387 1.78479 28.2454 1.42015 28.0813 1.42015C27.899 1.42015 27.6984 1.32899 27.6437 1.23783C27.589 1.12844 27.3703 1.05551 27.1879 1.05551C26.9874 1.05551 26.4769 0.946117 26.0576 0.818493C25.62 0.672638 24.8178 0.453856 24.2708 0.344463C23.7239 0.216841 23.1404 0.0709839 22.9764 0.0345211C22.8305 -0.00194359 22.6664 -0.020174 22.6117 0.0345211ZM25.146 2.71461C30.5061 4.10024 34.2984 6.67094 35.9393 10.0256C36.3404 10.8461 36.3586 10.9554 36.1398 12.5781C35.7022 16.0239 35.3194 16.9355 33.5509 18.704C31.9829 20.272 30.8708 21.2018 29.3393 22.1863C28.6465 22.6239 28.0995 23.0432 28.0995 23.1344C28.0995 23.2255 27.9719 23.2985 27.826 23.2985C27.6802 23.2985 27.5526 23.3714 27.5526 23.4443C27.5526 23.6449 25.4559 24.3377 24.4167 24.4835C23.4868 24.6112 22.9946 25.0487 22.9946 25.778C22.9946 26.1244 23.7968 27.4006 24.3984 28.0023C24.6355 28.2393 24.7084 28.4034 24.5625 28.4034C24.5261 28.4034 24.1979 28.1482 23.815 27.8564C23.1587 27.3277 22.2106 27.1272 22.0101 27.4736C21.9554 27.5465 21.6637 27.6741 21.3537 27.7288C21.062 27.8017 20.4604 28.0023 20.041 28.2028C19.6034 28.3852 18.8924 28.6404 18.4366 28.768C17.9808 28.8774 17.0874 29.1874 16.4311 29.4426C15.4101 29.862 14.9178 29.9349 12.8759 29.9713C10.8886 30.026 10.3234 29.9713 9.4118 29.6796C6.47646 28.7133 5.01791 27.3642 3.44996 24.2101C2.13726 21.5117 1.79086 20.1261 1.90025 18.0477C2.13726 13.6173 3.52289 11.3201 8.04441 7.83779C8.90131 7.18144 9.68528 6.56155 9.77644 6.45216C10.0682 6.10575 11.8184 4.88421 11.9825 4.88421C12.0737 4.88421 12.6389 4.6472 13.2405 4.33726C14.8449 3.55328 15.9571 3.15218 17.7073 2.71461C20.7338 1.96711 22.32 1.96711 25.146 2.71461Z" fill="#C21807"/>
<path d="M20.3506 12.9063C20.0407 13.2527 20.0407 13.2892 20.3506 13.745C20.6241 14.1643 20.7517 14.219 21.3716 14.1279C21.7727 14.0732 22.2103 13.9273 22.3561 13.8179C22.7572 13.4897 22.7025 12.9063 22.2832 12.9063C22.0827 12.9063 21.8639 12.8152 21.8092 12.724C21.6086 12.4141 20.697 12.5235 20.3506 12.9063Z" fill="#C21807"/>
<path d="M16.923 14.3103C16.8501 14.365 16.7954 14.6567 16.7954 14.9302C16.7954 15.3495 16.9048 15.4772 17.2877 15.5683C18.181 15.8053 19.275 14.7843 18.5821 14.3468C18.2904 14.1645 17.0871 14.128 16.923 14.3103Z" fill="#C21807"/>
<path d="M11.7636 16.6441C11.1619 17.2822 11.1073 17.738 11.5813 18.0479C11.9459 18.3032 12.2194 18.1938 12.8757 17.6286C13.605 16.9905 13.6597 16.7352 13.1857 16.3159C12.6934 15.8601 12.4382 15.933 11.7636 16.6441Z" fill="#C21807"/>
</svg>
