<svg width="84" height="202" viewBox="0 0 84 202" fill="none" xmlns="http://www.w3.org/2000/svg">
<path d="M13.9985 70.4532C13.5374 70.5252 13.3311 70.8038 13.3796 71.2886C13.433 71.8741 13.7169 72.1021 14.2313 71.9727C15.974 71.5359 15.8964 71.0293 13.9985 70.4532ZM14.6902 71.3101C14.6126 71.8046 14.4402 71.7686 14.1732 71.202C14.3383 71.1493 14.5031 71.1686 14.6682 71.2595C14.6877 71.2788 14.695 71.2959 14.6902 71.3101ZM10.4307 54.5615C12.4842 54.1534 12.5496 53.5174 10.6274 52.6533C10.0063 52.8406 9.71729 53.2726 9.76104 53.9494C9.78978 54.444 10.0133 54.648 10.4307 54.5615ZM10.5252 53.8632C10.5157 53.6664 10.6076 53.5224 10.8018 53.4311L10.8165 53.4166C11.5398 53.9687 11.4475 54.1462 10.5399 53.9494C10.53 53.9207 10.5252 53.8919 10.5252 53.8632ZM0.12776 42.8101C0.258695 43.1847 0.484476 43.3261 0.804787 43.2349C2.79978 42.6683 2.79244 41.8907 0.783073 40.9019C0.050158 41.3005 -0.16828 41.9365 0.12776 42.8101ZM0.659485 42.5151C0.625634 42.2416 0.666831 41.9823 0.783394 41.7376C0.792975 41.7281 0.802876 41.723 0.812456 41.723C1.38538 41.7616 1.64724 42.0351 1.5987 42.5439C1.37068 42.9134 1.05995 42.9326 0.666824 42.6013C0.666824 42.5726 0.664276 42.5439 0.659485 42.5151ZM14.4134 28.5748C14.3115 28.5893 14.224 28.6443 14.1512 28.7403C12.9571 30.387 13.3841 31.1573 15.4327 31.0518C15.4522 31.023 15.4691 30.9918 15.4838 30.9583C16.0421 29.6284 15.685 28.8338 14.4134 28.5748ZM14.2824 30.3532C14.1173 29.9837 14.1901 29.6404 14.5009 29.3236C15.2242 29.8371 15.1658 30.2022 14.3262 30.4182C14.3067 30.399 14.292 30.3772 14.2824 30.3532ZM27.6796 81.283C27.9028 81.4223 28.136 81.4485 28.3787 81.3623C30.4369 80.6615 30.4174 79.992 28.3205 79.3534C28.0389 79.4206 27.8498 79.6054 27.7527 79.9077C27.602 80.359 27.5777 80.8172 27.6796 81.283ZM28.8593 80.0731C29.0873 80.1546 29.2186 80.2797 29.2524 80.4477C29.0388 80.8892 28.728 80.947 28.3205 80.6205C28.3205 80.5917 28.3231 80.563 28.3279 80.5339C28.3716 80.3034 28.4857 80.1404 28.6702 80.0444C28.7379 80.0444 28.8008 80.0542 28.8593 80.0731ZM44.9575 76.0771C44.2879 77.3972 44.6056 78.2107 45.9114 78.518C47.1445 78.8061 47.6443 78.3526 47.4115 77.1572C47.232 76.2163 46.5498 75.741 45.3654 75.7316C45.1859 75.7698 45.0498 75.885 44.9575 76.0771ZM45.4819 77.0059C45.6956 76.9386 45.9092 76.8786 46.1225 76.8259C46.637 76.5666 46.9477 76.6146 47.0544 76.9699C47.1515 77.1139 47.1611 77.2674 47.0835 77.4307C47.0107 77.5892 46.9331 77.7522 46.8503 77.9202C46.3892 78.213 45.9328 78.2035 45.4816 77.8914C45.365 77.762 45.319 77.5987 45.3433 77.4019C45.358 77.2867 45.365 77.1714 45.365 77.0564C45.4043 77.0372 45.4433 77.0201 45.4819 77.0059ZM62.0611 77.0779C61.7408 77.1739 61.5661 77.4114 61.5367 77.7907C61.4978 78.3573 61.5757 78.8781 61.7699 79.3534C62.1435 79.6174 62.5318 79.5909 62.9349 79.2741C64.3911 78.1362 64.0999 77.4041 62.0611 77.0779ZM62.2939 78.518C62.2939 78.3115 62.2939 78.11 62.2939 77.9132C62.7988 77.7645 63.1096 77.8987 63.2258 78.3165C63.0412 78.8639 62.7308 78.9599 62.2939 78.6046C62.2939 78.5755 62.2939 78.5468 62.2939 78.518ZM67.6239 65.456C69.7403 64.88 69.8447 64.1817 67.9369 63.3605C67.3301 63.6391 67.0146 64.1359 66.9903 64.8512C66.9756 65.3793 67.187 65.5808 67.6239 65.456ZM67.8203 65.06C67.8203 65.0312 67.8178 65.0025 67.813 64.9734C67.7644 64.6279 67.8638 64.3399 68.1116 64.1094C68.8301 64.4985 68.733 64.8152 67.8203 65.06ZM83.1691 52.4736C84.5282 51.4033 84.2201 50.8102 82.2442 50.6949C81.7684 51.1174 81.7514 51.6502 82.1931 52.2932C82.4799 52.7013 82.805 52.7613 83.1691 52.4736ZM83.3875 51.8182C82.9359 52.1543 82.6715 52.0295 82.5939 51.4437C83.0308 51.2662 83.3026 51.3717 83.4092 51.7605C83.4092 51.7892 83.4022 51.8085 83.3875 51.8182ZM74.6573 42.7166C76.7009 42.6351 76.8708 42.114 75.167 41.1539C74.8177 41.3605 74.5456 41.6485 74.3514 42.018C74.0895 42.4981 74.1914 42.7311 74.6573 42.7166ZM75.6113 42.198C75.1597 42.6396 74.9633 42.5315 75.0214 41.874C75.3708 41.7395 75.5749 41.826 75.633 42.1333C75.633 42.162 75.6256 42.1838 75.6113 42.198ZM71.1259 25.5145C73.2085 25.428 73.3199 24.7729 71.461 23.5488C70.9126 23.7503 70.5824 24.1296 70.4706 24.6864C70.3544 25.2625 70.5728 25.5385 71.1259 25.5145ZM71.1259 24.8232C71.2083 24.6217 71.3492 24.4464 71.5481 24.2976C71.5676 24.2882 71.5798 24.2856 71.5845 24.2904C71.8467 24.5497 71.9994 24.821 72.0431 25.1039C71.6452 25.4065 71.3345 25.3392 71.1113 24.9024C71.1116 24.8737 71.1164 24.8472 71.1259 24.8232ZM40.1887 20.0565C40.0673 20.0517 39.9412 20.0492 39.8102 20.0492C39.4219 20.102 39.0262 20.1958 38.6235 20.33C37.9778 20.5413 37.5652 20.9468 37.3857 21.5468C37.3857 21.5516 37.3857 21.5563 37.3857 21.5614C36.4391 21.4461 35.4003 21.6046 34.2694 22.0367C24.7409 25.6898 19.3844 32.4224 18.1999 42.2344C17.8263 45.3401 17.9499 48.439 18.5713 51.5302C19.6102 56.7289 22.5249 60.5981 27.3159 63.1376C34.1066 66.7474 41.4242 67.6908 49.2685 65.9673C53.1614 65.1178 56.3093 63.2118 58.7121 60.25C58.9062 60.01 59.0978 59.7675 59.2872 59.5227C59.6465 59.1961 59.8844 58.8601 60.0007 58.5146C62.0733 55.471 63.3938 52.094 63.9616 48.3834C64.8401 42.6326 63.9156 37.2513 61.1874 32.2396C57.2945 25.0821 51.2558 21.3258 43.0721 20.9708C43.014 20.9803 42.9654 20.9875 42.9265 20.9923C42.6109 20.4547 41.8221 20.1474 40.5601 20.0707C40.8366 18.4771 41.0771 16.8449 41.2808 15.1742C41.9895 9.41364 41.81 3.85741 40.7421 -1.49512C40.9653 3.87636 40.7204 9.4787 40.0066 15.311C39.7834 17.1064 39.8441 18.6883 40.1887 20.0565ZM49.006 24.9312C48.2002 25.5647 47.239 26.0135 46.1225 26.2775C45.0888 25.0247 43.9771 23.8151 42.7879 22.6484C42.8945 22.4277 42.9724 22.2211 43.021 22.0291C45.1035 22.6149 47.0985 23.5823 49.006 24.9312ZM45.6713 26.3713C45.3606 26.4288 45.0377 26.4721 44.703 26.5008C43.9069 26.5775 43.111 26.6473 42.3149 26.7096C42.0917 25.8262 41.8633 24.9454 41.6305 24.0668C41.917 23.9133 42.1549 23.6947 42.344 23.4114C42.5043 23.1762 42.6378 22.9529 42.7444 22.7419C43.7782 23.9085 44.7538 25.1185 45.6713 26.3713ZM46.7635 27.0769C46.8995 27.0336 47.0378 26.9903 47.1783 26.9474C48.3286 26.5873 49.2024 26.1098 49.7996 25.5145C51.2073 26.6041 52.4936 27.754 53.6586 28.9636C53.0276 29.3669 52.3506 29.7219 51.6272 30.0292C50.8991 30.3412 50.171 30.6197 49.4429 30.8645C48.6224 29.5589 47.7295 28.2962 46.7635 27.0769ZM50.7752 23.1597C51.9207 23.7071 53.0324 24.3621 54.1099 25.1254C54.8428 25.6437 55.5319 26.2077 56.1777 26.8176C55.7018 27.3456 55.1851 27.8304 54.6269 28.2719C53.3501 26.9758 51.9255 25.8189 50.353 24.8014C50.6347 24.3118 50.7755 23.7645 50.7752 23.1597ZM50.6152 23.0808C50.3287 23.5514 50.0036 23.9761 49.6396 24.3551C47.7027 23.179 45.5525 22.2044 43.1886 21.4316V21.4461C43.1449 21.4461 43.1063 21.4508 43.0721 21.4606C43.0574 21.3119 43.0188 21.1751 42.9555 21.0501C45.664 21.2756 48.2172 21.9524 50.6152 23.0808ZM49.9743 31.7358C51.1102 31.3231 52.2509 30.8263 53.3964 30.2452C53.741 30.0724 54.054 29.8899 54.3357 29.6979C55.3356 30.8114 56.2361 31.9781 57.0371 33.1975C55.508 34.335 53.9135 35.3024 52.2535 36.0992C51.5739 34.5969 50.8142 33.1422 49.9743 31.7358ZM43.7708 33.176C45.5765 32.9985 47.3968 32.6047 49.2318 31.9951C50.018 33.4448 50.7413 34.9449 51.4014 36.4956C49.2803 37.4269 47.057 38.0892 44.7321 38.483C44.4408 36.6968 44.1205 34.9278 43.7708 33.176ZM48.7221 31.0878C47.0183 31.6064 45.2951 31.9424 43.5524 32.0959C43.2516 30.6605 42.9309 29.2349 42.5911 27.8187C43.7804 27.7467 45.0061 27.5452 46.2682 27.2139C47.1419 28.4617 47.9601 29.7531 48.7221 31.0878ZM43.8727 39.2748C43.8823 39.3515 43.8922 39.4261 43.9018 39.4981C44.1687 41.399 44.4067 43.2977 44.6152 45.1936C42.1201 45.4816 39.601 45.5344 37.0574 45.3521C37.0769 43.8545 37.1085 42.3518 37.1522 40.8444C37.1669 40.3739 37.1839 39.9061 37.203 39.4403C39.4848 39.6036 41.7078 39.5483 43.8727 39.2748ZM51.7 37.2153C51.9766 37.8969 52.2413 38.586 52.4936 39.2821C52.95 40.5397 53.3552 41.7976 53.7097 43.0552C51.0498 44.0055 48.3628 44.6728 45.6496 45.0568C45.4168 43.0694 45.1472 41.0964 44.8413 39.138C47.1956 38.7635 49.4818 38.1227 51.7 37.2153ZM54.6269 42.7166C54.0687 40.6859 53.3865 38.7275 52.5808 36.8408C54.2893 36.0774 55.957 35.1533 57.5828 34.0685C58.6993 35.9167 59.5925 37.8751 60.2622 39.9443C59.0196 40.7364 57.7064 41.43 56.323 42.0253C55.7606 42.27 55.195 42.5006 54.6269 42.7166ZM58.0855 32.3766C58.0417 32.4152 57.998 32.4512 57.9546 32.4847C57.1536 31.2125 56.2556 30.0342 55.2605 28.949C55.8526 28.349 56.2045 27.6842 56.3163 26.9543C57.5832 28.1737 58.668 29.5633 59.5708 31.1235C59.5804 31.138 59.5903 31.1522 59.5999 31.1667C59.1049 31.5558 58.6 31.9588 58.0855 32.3766ZM58.515 33.4207C59.2626 32.8352 59.7286 32.2712 59.9132 31.7286C61.1072 33.8935 62.0004 36.0752 62.5925 38.274C62.0975 38.6675 61.5901 39.0446 61.0708 39.4043C60.4059 37.2346 59.5539 35.2399 58.515 33.4207ZM61.3694 40.4196C62.1122 39.8676 62.5587 39.2941 62.7091 38.6987C63.2577 40.8924 63.5075 43.1007 63.4589 45.3234C63.1239 45.5682 62.7867 45.806 62.4469 46.0362C62.2332 44.1542 61.8743 42.282 61.3694 40.4196ZM39.7808 20.798C40.3729 20.7886 40.9168 20.8893 41.4118 21.1006C42.8048 21.6909 42.868 22.368 41.6011 23.131C40.7322 23.6543 39.8415 23.6663 38.9288 23.167C37.0746 22.1542 37.3585 21.3646 39.7808 20.798ZM34.9972 26.1986C35.3952 25.8291 35.8055 25.4665 36.2277 25.1112C36.8249 24.6166 37.2567 24.1558 37.5237 23.7285C37.7858 24.0646 38.2106 24.2781 38.7979 24.3693C38.4871 25.2094 38.2106 26.0662 37.9679 26.9398C36.7882 26.8826 35.7982 26.6353 34.9972 26.1986ZM34.1235 25.5792C33.5314 25.0272 33.0993 24.3169 32.8276 23.4478C34.2449 22.7612 35.7449 22.2022 37.3273 21.7701C37.2059 22.2502 37.172 22.6655 37.2254 23.0157C36.07 23.6638 35.0359 24.5184 34.1235 25.5792ZM34.0069 25.716C33.8955 25.8455 33.7863 25.98 33.6793 26.1193C32.6842 27.4056 31.7814 28.7258 30.9708 30.0797C29.4661 29.3309 28.2139 28.3613 27.2137 27.1707C28.7379 25.8265 30.4005 24.6889 32.2013 23.7576C32.0461 24.1321 32.2984 24.5544 32.9585 25.025C33.3031 25.2697 33.6525 25.5 34.0069 25.716ZM40.8583 24.3119C41.0911 24.2784 41.3048 24.2184 41.499 24.1318C41.6446 24.9959 41.7928 25.8647 41.9432 26.7386C41.0451 26.8106 40.1446 26.8731 39.2418 26.9259C39.1252 26.9306 39.0112 26.9354 38.8994 26.9404C39.1032 25.9469 39.169 25.1017 39.0958 24.406C39.5867 24.4486 40.174 24.4177 40.8583 24.3119ZM38.7615 27.5736C39.8489 27.7849 40.9701 27.8737 42.1252 27.8402C42.3583 29.2658 42.5889 30.7037 42.8169 32.1534C41.2055 32.2494 39.5816 32.1919 37.9458 31.9806C38.1694 30.5019 38.4412 29.0331 38.7615 27.5736ZM34.9535 26.2418C35.8905 26.7219 36.8562 27.0939 37.8513 27.3579C37.4678 28.8076 37.1765 30.303 36.9776 31.8439C35.7979 31.6471 34.6112 31.3733 33.4171 31.023C32.7279 30.8215 32.0749 30.5837 31.4585 30.3102C32.4683 28.8458 33.6333 27.4896 34.9535 26.2418ZM28.7063 29.5036C29.3568 29.8971 30.0096 30.2597 30.6649 30.591C29.5727 32.4679 28.6552 34.4026 27.9127 36.3945C25.942 35.3577 24.2114 33.9968 22.7213 32.3119C23.3572 31.3565 24.0706 30.4302 24.8619 29.5324C25.5367 28.7643 26.2454 28.0467 26.9882 27.3794C27.1821 28.2242 27.755 28.9323 28.7063 29.5036ZM28.0437 37.4241C29.1649 37.9427 30.381 38.3434 31.6916 38.6264C33.3468 38.9865 34.973 39.2385 36.5701 39.3825C36.5119 41.3554 36.4656 43.3284 36.4318 45.3013C33.6502 45.0613 30.8399 44.5379 28.0002 43.7317C27.5634 43.6069 27.1338 43.4771 26.7116 43.3429C26.9879 41.3652 27.4321 39.3923 28.0437 37.4241ZM27.6215 37.2153C26.9566 39.1355 26.4539 41.111 26.1145 43.1414C23.6388 42.282 21.389 41.1757 19.3649 39.8218C19.9813 37.3496 20.9863 35.0213 22.3793 32.8371C23.7915 34.7143 25.539 36.1738 27.6215 37.2153ZM28.3132 36.6033C29.0218 34.5198 29.9588 32.5901 31.1238 30.814C33.0217 31.7308 34.9366 32.3934 36.8687 32.8014C36.7716 33.7088 36.7083 34.6329 36.6793 35.5737C36.6454 36.644 36.6138 37.7146 36.5848 38.7853C33.4778 38.526 30.7208 37.7986 28.3132 36.6033ZM37.8002 32.9814C39.5139 33.2647 41.2419 33.351 42.9843 33.2407C43.256 35.0216 43.5208 36.8171 43.7778 38.6267C41.681 38.91 39.5014 38.9795 37.2394 38.8355C37.3464 36.8673 37.5336 34.9158 37.8002 32.9814ZM34.6696 46.2664C35.2521 46.3337 35.832 46.3912 36.4097 46.4392C36.3708 48.4121 36.3417 50.3828 36.3226 52.351C32.9879 52.1878 29.6966 51.667 26.4495 50.7884C26.2942 48.6281 26.3402 46.4727 26.5877 44.3222C29.1406 45.2823 31.8347 45.9304 34.6696 46.2664ZM37.0504 52.3798C37.0309 50.4214 37.0309 48.4579 37.0504 46.4897C39.6812 46.6672 42.2443 46.617 44.7391 46.3384C44.9333 48.2059 45.1009 50.0708 45.2414 51.9332C42.4845 52.3172 39.754 52.4663 37.0504 52.3798ZM37.0651 53.2871C38.4194 53.3017 39.8003 53.2486 41.208 53.1286C42.5819 53.0133 43.9433 52.8551 45.2929 52.6533C45.4289 54.5975 45.5356 56.5369 45.6132 58.4713C42.7735 59.0136 39.9702 59.2587 37.2033 59.2059C37.1353 57.2377 37.0893 55.2648 37.0651 53.2871ZM25.6044 51.4004C25.6191 51.8132 25.6409 52.2285 25.6699 52.646C25.7817 54.3357 26.0413 55.9366 26.4491 57.4487C24.3666 56.7959 22.3036 55.9605 20.2601 54.943C19.4349 53.0566 18.9226 50.9204 18.7237 48.5343C18.7141 48.4238 18.7067 48.3136 18.702 48.203C20.9058 49.5282 23.2067 50.5941 25.6044 51.4004ZM27.4101 56.9522C26.9831 55.2001 26.6867 53.4479 26.5219 51.6957C29.6235 52.6463 32.8857 53.1719 36.3079 53.2726C36.2884 55.2408 36.2763 57.209 36.2715 59.1772C33.3494 59.0477 30.4685 58.5869 27.6288 57.7948C27.5509 57.5163 27.4781 57.2355 27.4101 56.9522ZM25.9685 44.0848C25.6677 46.1824 25.539 48.3379 25.5827 50.5509C23.2575 49.8741 20.9569 49.0147 18.6802 47.9731C18.5103 45.3136 18.6924 42.7886 19.2263 40.3982C19.2749 40.4367 19.3282 40.4774 19.3866 40.5207C21.464 41.97 23.658 43.1581 25.9685 44.0848ZM29.7401 63.6271C29.0362 62.1102 28.4441 60.5548 27.9635 58.9612C30.3858 59.6332 32.985 59.962 35.7615 59.9478C35.9314 59.9478 36.1013 59.9478 36.2712 59.9478C36.2712 60.9511 36.2712 61.9567 36.2712 62.9648C36.2759 63.8624 36.4216 64.5825 36.708 65.125C36.2274 65.1396 35.7493 65.1516 35.2735 65.161C34.2832 64.9738 33.2932 64.7435 32.3029 64.4697C31.4004 64.2246 30.5458 63.9439 29.7401 63.6271ZM26.7985 58.6084C27.3615 60.3078 28.1261 61.892 29.0921 63.3609C25.0488 61.6327 22.1775 58.9852 20.4785 55.4186C22.425 56.7962 24.5317 57.8596 26.7985 58.6084ZM37.4799 65.5065C37.4799 65.468 37.4773 65.4298 37.4726 65.3913C40.2781 65.4585 43.0379 65.24 45.7511 64.7359C45.7511 64.9952 45.7511 65.2567 45.7511 65.5208C43.0136 65.8568 40.2564 65.8521 37.4799 65.5065ZM36.861 65.3767C36.8706 65.3913 36.8827 65.408 36.8974 65.4273C36.7323 65.4033 36.5672 65.3793 36.4024 65.3553C36.5528 65.36 36.7058 65.3673 36.861 65.3767ZM37.4582 65.0887C37.3659 63.3703 37.2883 61.6491 37.2254 59.926C40.0746 59.8395 42.8779 59.5565 45.6349 59.0764C45.693 60.6893 45.7294 62.3022 45.7441 63.9151C43.0548 64.5439 40.2928 64.9352 37.4582 65.0887ZM61.6606 47.5986C61.6897 48.1266 61.7092 48.6594 61.7188 49.1969C61.7383 50.3538 61.8376 51.3979 62.0174 52.3292C60.1971 53.3228 58.3161 54.2374 56.3744 55.0728C56.3501 53.3639 56.2361 51.6572 56.0321 49.953C57.9447 49.2715 59.8209 48.4867 61.6606 47.5986ZM62.5488 47.1233C62.8838 46.9167 63.1702 46.7057 63.4078 46.4897C63.3008 48.0499 63.0438 49.6195 62.636 51.1989C62.6848 49.8355 62.6558 48.4772 62.5488 47.1233ZM55.9522 49.298C55.8213 48.3139 55.661 47.3323 55.4716 46.353C55.3017 45.4794 55.1123 44.6201 54.9038 43.7752C56.8359 42.9926 58.7216 42.0496 60.5611 40.9455C61.066 42.7457 61.4058 44.6273 61.5805 46.5908C59.8282 47.6753 57.952 48.5779 55.9522 49.298ZM56.3817 56.1169C57.7409 55.5936 59.0879 55.0175 60.4228 54.3887C61.0587 54.0912 61.5709 53.7792 61.9592 53.4526C61.5757 54.5615 61.1197 55.6728 60.5905 56.7864C60.411 57.161 60.2216 57.5258 60.0227 57.8811C58.7702 58.6731 57.4963 59.4005 56.2 60.0627C56.3115 58.7426 56.3722 57.4275 56.3817 56.1169ZM53.9936 44.128C54.4596 45.9522 54.8163 47.7764 55.0641 49.6006C52.1078 50.5847 49.181 51.3095 46.2832 51.775C46.2442 51.1989 46.2008 50.6207 46.1522 50.0395C46.0453 48.7529 45.9217 47.476 45.7808 46.209C48.6055 45.8104 51.3433 45.1169 53.9936 44.128ZM46.3266 52.4878C49.3458 51.9743 52.2851 51.2324 55.1439 50.2628C55.3528 51.991 55.4642 53.7214 55.4789 55.4546C55.081 55.6131 54.6828 55.7714 54.2849 55.9299C51.6298 56.9715 49.0037 57.7661 46.4068 58.3134C46.4553 56.3882 46.4285 54.4465 46.3266 52.4878ZM54.9182 62.907C54.0297 63.3965 53.0662 63.8071 52.0277 64.1384C49.9794 64.7865 47.9211 65.2425 45.8533 65.5065C45.8872 65.2378 45.9214 64.969 45.9552 64.6999C49.052 64.1046 52.0909 63.1423 55.0711 61.8124C55.0226 62.1775 54.9718 62.5423 54.9182 62.907ZM46.0497 63.8431C46.2196 62.2207 46.3336 60.5861 46.3921 58.9397C49.4793 58.3589 52.5058 57.5308 55.4716 56.4554C55.4473 57.8188 55.3649 59.1844 55.2241 60.5526C52.2678 61.9782 49.2097 63.075 46.0497 63.8431ZM58.355 60.1853C57.5931 61.0348 56.7241 61.7767 55.7485 62.4102C55.9136 62.1222 56.0228 61.7694 56.0761 61.3516C56.7461 61.0348 57.4136 60.6963 58.0785 60.3362C58.1752 60.2835 58.2675 60.2333 58.355 60.1853ZM51.8821 17.7235C53.9694 17.474 54.0616 16.982 52.1586 16.2474C51.7265 16.3289 51.4621 16.5809 51.365 17.0034C51.2437 17.5362 51.4161 17.7763 51.8821 17.7235ZM52.7268 17.2195C52.1104 17.522 51.921 17.4475 52.159 16.9962C52.6734 16.8282 52.8676 16.8856 52.7415 17.1689C52.7411 17.1977 52.7363 17.2144 52.7268 17.2195ZM24.4321 14.1304C24.1603 14.193 23.971 14.3799 23.8643 14.6919C23.7091 15.1385 23.6848 15.5946 23.7915 16.0601C24.2574 16.3576 24.7333 16.3026 25.2187 15.8946C26.4322 14.8862 26.17 14.2981 24.4321 14.1304ZM25.3496 15.2465C24.4321 15.64 24.2041 15.4986 24.6652 14.8218C25.0098 14.8312 25.2429 14.9563 25.3643 15.1963C25.3643 15.2247 25.3595 15.2415 25.3496 15.2465Z" fill="#C21807"/>
<path d="M44.2171 129.584C43.2462 130.726 42.7322 135.581 43.5318 135.581C43.8744 135.581 44.0458 135.238 43.8744 134.838C43.7031 134.381 43.9887 132.896 44.4456 131.526C45.4165 128.784 45.3022 128.27 44.2171 129.584Z" fill="#C21807"/>
<path d="M39.6475 130.497C39.6475 131.354 41.5893 131.582 42.3317 130.84C43.0171 130.155 42.8457 130.04 41.3608 130.04C40.447 130.04 39.6475 130.269 39.6475 130.497Z" fill="#C21807"/>
<path d="M47.758 131.353C48.5575 132.153 48.9573 132.21 49.4713 131.696C49.9282 131.239 49.9853 131.011 49.5284 131.011C49.1857 131.011 48.3862 130.839 47.8151 130.668C46.8442 130.268 46.8442 130.325 47.758 131.353Z" fill="#C21807"/>
<path d="M44.3314 140.834C44.7312 141.977 46.9014 142.434 48.0437 141.52C49.0146 140.777 48.9575 140.72 47.5868 141.063C46.7301 141.234 45.8734 141.12 45.7021 140.777C45.1881 139.921 44.0458 139.978 44.3314 140.834Z" fill="#C21807"/>
<path d="M44.1024 119.303C43.9882 119.474 42.846 119.703 41.6466 119.874C40.4473 119.988 39.1908 120.388 38.8482 120.731C38.4484 121.13 38.2199 124.557 38.2199 129.926C38.2199 134.609 38.1057 138.435 38.0486 138.435C37.9344 138.435 36.3924 137.35 34.6219 135.979C25.9409 129.412 23.9991 128.041 24.7987 129.012C25.2556 129.526 28.4538 132.21 31.9376 134.894C38.3342 139.863 44.1596 145.289 43.1315 145.289C42.0464 145.289 41.304 147.459 42.1035 148.258C42.7318 148.83 42.6746 149.286 41.5895 150.886C40.3331 152.713 40.276 152.884 41.1897 154.598C41.9322 156.026 42.0464 157.568 41.7609 162.422C41.4182 169.961 42.1035 167.791 43.4742 157.282C43.9882 153.056 44.6736 149.458 44.902 149.401C45.1305 149.286 45.2447 149.001 45.0733 148.715C44.902 148.487 45.1876 147.973 45.6445 147.573C46.3298 147.002 46.5011 147.002 46.5011 147.573C46.5011 147.973 46.8438 148.144 47.3007 147.973C47.7576 147.802 48.2716 148.03 48.4429 148.487C48.9569 149.8 48.8427 149.972 48.1003 149.515C47.5291 149.172 47.5291 149.229 48.0432 149.972C48.4429 150.429 48.6714 150.943 48.5 151.114C48.3287 151.228 47.8147 154.712 47.3578 158.767C46.7296 164.307 46.2727 166.306 45.5302 166.82C44.6164 167.505 44.6164 167.562 45.5302 167.562C46.2727 167.562 46.5011 168.076 46.5011 169.447C46.5011 173.33 49.4709 173.787 53.6972 170.589C57.0097 168.076 57.4666 167.562 57.0097 166.42C56.8384 165.963 56.6099 163.165 56.4957 160.195C56.3244 156.026 56.0959 154.598 55.2963 153.913C54.7823 153.398 54.4968 153.341 54.7252 153.741C54.9537 154.141 55.2392 156.083 55.2963 158.025C55.4106 159.966 55.639 162.993 55.9246 164.764L56.3244 168.019L53.2974 170.075C51.5841 171.217 49.5852 172.131 48.8427 172.131H47.472L47.7576 165.278C48.0432 158.71 48.1574 158.253 49.8136 155.969C50.7274 154.598 51.5841 153.17 51.6412 152.713C51.8696 151.057 51.6412 149.858 51.013 149.858C50.6703 149.858 50.5561 150.314 50.7845 151C51.1272 152.028 49.5852 155.969 49.0141 155.455C48.8998 155.283 48.9569 154.027 49.1283 152.599C49.4138 150.657 49.8136 149.8 50.8416 149.229C52.2694 148.487 52.6692 146.774 51.527 146.088C51.1272 145.803 51.013 146.088 51.1843 146.888C51.4127 147.63 51.1843 148.201 50.7274 148.373C50.2705 148.544 49.9278 148.43 49.9278 148.087C49.9278 147.744 49.5852 147.687 49.2425 147.916C48.8427 148.144 49.0141 147.802 49.5852 147.116C50.2134 146.431 50.499 145.688 50.2705 145.46C50.0992 145.232 50.6132 144.318 51.4699 143.347C52.3836 142.376 52.555 142.033 51.9268 142.547C51.2985 143.061 50.0421 143.804 49.1283 144.146C45.3589 145.574 40.79 141.976 39.7048 136.608C38.8482 132.61 39.0766 124.614 40.0475 125.414C40.5044 125.756 40.6186 125.585 40.3902 124.786C40.1046 123.586 40.7328 123.358 43.5313 123.415C43.874 123.472 44.2167 123.129 44.2167 122.729C44.2167 122.33 43.874 121.816 43.5313 121.701C43.0744 121.53 43.1887 121.359 43.8169 121.359C44.388 121.302 44.9591 121.701 45.1305 122.158C45.416 122.844 45.7016 122.729 46.6154 121.587C47.2436 120.788 47.986 120.159 48.3858 120.159C48.7285 120.159 48.3858 120.731 47.7005 121.416C46.3869 122.615 46.3869 122.672 47.4149 123.415C48.0432 123.872 49.1283 124.386 49.9278 124.5C51.013 124.728 51.6412 125.528 52.4408 127.356C53.0119 128.726 53.6972 129.868 53.9828 129.868C54.8966 129.868 55.5819 132.381 54.8966 133.181C54.5539 133.581 54.5539 133.866 54.8394 133.809C56.3815 133.524 57.3524 133.98 57.3524 135.009C57.3524 135.637 57.0668 136.151 56.667 136.151C56.3244 136.151 56.2101 136.322 56.3815 136.493C57.0668 137.179 58.4375 135.523 58.4375 133.98C58.4375 133.124 58.4375 131.924 58.4946 131.296C58.5517 126.156 58.4375 125.414 57.2381 123.586C54.8966 120.102 49.0712 117.818 47.2436 119.645C46.7867 120.102 46.2727 120.102 45.4731 119.645C44.902 119.303 44.2738 119.189 44.1024 119.303ZM52.041 120.502C51.8696 120.673 51.3556 120.731 50.9559 120.559C50.499 120.388 50.6703 120.217 51.2985 120.217C51.9268 120.159 52.2694 120.331 52.041 120.502ZM54.4968 123.586C54.8394 124.214 55.0108 124.728 54.8966 124.728C54.7823 124.728 54.2112 124.214 53.6401 123.586C53.069 122.958 52.8976 122.444 53.2403 122.444C53.583 122.444 54.1541 122.958 54.4968 123.586ZM57.3524 125.471C57.3524 126.385 56.3244 125.3 56.0388 124.043C55.6961 122.787 55.7532 122.787 56.4957 123.815C56.9526 124.443 57.3524 125.185 57.3524 125.471ZM55.0679 129.469C55.0679 129.754 54.6681 129.697 54.2112 129.297C53.7543 128.898 53.3545 128.155 53.3545 127.641C53.4117 126.899 53.5259 126.899 54.2112 127.812C54.6681 128.441 55.0679 129.183 55.0679 129.469ZM57.9235 131.81C57.9235 131.982 57.695 132.267 57.3524 132.438C57.0668 132.61 56.7812 132.496 56.7812 132.21C56.7812 131.867 57.0668 131.582 57.3524 131.582C57.695 131.582 57.9235 131.696 57.9235 131.81ZM48.6143 146.088C48.7856 146.26 48.5 146.602 47.986 146.774C47.4149 147.002 46.6154 146.774 46.1014 146.317C45.3589 145.517 45.416 145.46 46.7867 145.574C47.6434 145.688 48.4429 145.917 48.6143 146.088ZM43.2458 147.288C43.0744 147.802 42.7889 148.087 42.6746 147.916C42.5033 147.744 42.5604 147.402 42.7889 147.059C43.3029 146.145 43.6455 146.317 43.2458 147.288ZM42.332 153.97C42.1606 154.369 42.0464 154.084 42.0464 153.284C42.0464 152.485 42.1606 152.199 42.332 152.542C42.4462 152.942 42.4462 153.627 42.332 153.97Z" fill="#C21807"/>
<path d="M15.6616 121.873C15.6616 122.787 18.0032 123.701 19.4881 123.301C20.6303 123.015 20.8017 122.844 20.2306 122.159C19.431 121.188 15.6616 120.959 15.6616 121.873Z" fill="#C21807"/>
<path d="M14.0054 124.329C13.9483 125.414 14.5194 126.499 15.6045 127.584C16.6325 128.612 17.0323 129.469 16.7467 129.926C16.5183 130.383 16.5754 131.011 16.861 131.354C17.2036 131.754 17.375 132.382 17.3179 132.839C17.2607 133.238 17.2607 134.095 17.3179 134.723C17.375 135.523 17.5463 135.637 18.0603 135.123C18.5172 134.666 19.0312 134.666 19.8308 135.123C20.7446 135.58 20.8017 135.808 20.1734 136.208C18.0603 137.522 14.4052 136.094 15.4332 134.324C15.7758 133.695 15.6616 133.695 15.0334 134.324C13.2058 135.98 17.2607 138.264 20.1734 137.179C21.8297 136.608 21.5441 135.009 19.6594 134.038C18.1745 133.296 17.9461 131.354 19.2025 130.154C19.6023 129.755 19.7165 129.983 19.4881 130.954C19.2025 132.21 19.3168 132.153 21.1443 130.383C23.3717 128.213 23.4288 128.041 22.1152 128.27C21.3728 128.384 21.1443 128.098 21.2586 127.299C21.3728 126.671 21.6012 125.357 21.7155 124.443C22.001 122.844 21.9439 122.901 20.8017 125.014C20.1734 126.271 19.7737 126.728 19.8879 126.099C20.0592 125.014 19.7737 124.786 17.7747 124.5C16.5183 124.272 15.3761 124.272 15.2047 124.386C15.0905 124.557 15.3761 125.414 15.9472 126.271C16.861 127.642 16.861 127.756 16.0614 127.07C15.4903 126.671 14.862 125.471 14.5765 124.5L14.0625 122.73L14.0054 124.329ZM20.5161 128.727C20.6874 129.012 20.6303 129.298 20.2877 129.298C20.0021 129.298 19.5452 129.012 19.3739 128.727C19.2025 128.384 19.2597 128.156 19.6023 128.156C19.8879 128.156 20.3448 128.384 20.5161 128.727Z" fill="#C21807"/>
<path d="M53.3542 144.547C56.9522 146.945 61.1214 152.085 63.6343 157.168C65.005 160.024 66.2043 162.308 66.3186 162.194C66.7183 161.851 63.0632 153.742 61.4641 151.457C59.1225 148.088 55.6958 144.889 53.6397 144.204L51.9264 143.576L53.3542 144.547Z" fill="#C21807"/>
<path d="M56.7814 156.311C56.7814 156.54 57.5238 158.196 58.4376 160.024C59.3514 161.794 60.3794 164.364 60.7792 165.678C61.4645 167.905 61.6359 168.077 63.0066 167.734C63.8061 167.563 64.9484 167.163 65.4624 166.934C65.9764 166.649 66.7759 166.42 67.2328 166.42C68.0895 166.42 70.3169 170.761 69.7457 171.332C69.5744 171.503 69.2888 171.103 69.0604 170.475C68.6035 168.933 67.6326 168.933 67.2328 170.418C66.9473 171.503 66.8902 171.56 66.0906 170.589C65.3481 169.619 65.291 169.676 65.6337 171.103C65.805 172.017 65.6908 172.703 65.4052 172.703C65.1197 172.703 64.7199 171.96 64.4915 171.046C64.2059 169.733 63.9203 169.447 63.1779 169.676C62.3212 170.018 62.2641 169.961 63.0637 168.99C63.8632 168.019 63.8632 168.019 62.6068 168.762C61.1219 169.733 61.2361 170.647 62.9494 170.875C63.749 170.989 64.2059 171.503 64.2059 172.131C64.2059 172.703 64.4343 173.331 64.7199 173.502C65.4624 173.959 70.374 172.189 70.6595 171.275C71.0593 170.361 68.8891 165.849 67.8611 165.449C67.4613 165.335 65.9764 165.678 64.6057 166.306L62.0357 167.448L61.693 165.678C61.1219 162.708 56.8956 154.598 56.7814 156.311Z" fill="#C21807"/>
<path d="M38.8485 171.275C38.4487 173.331 36.7925 190.979 36.7925 193.777C36.7925 197.889 37.3065 194.805 38.5058 183.097C39.6481 171.96 39.8194 166.992 38.8485 171.275Z" fill="#C21807"/>
<path d="M53.9829 174.131C54.04 176.015 54.3827 181.669 54.7825 186.695L55.582 195.833L55.2394 184.125C55.068 177.671 54.7254 172.017 54.4398 171.561C54.1542 170.989 53.9829 171.903 53.9829 174.131Z" fill="#C21807"/>
<path d="M46.2732 174.873C45.8734 175.559 44.9025 184.468 44.5599 190.693L44.3314 195.833L45.0739 191.55C45.5308 189.208 45.8734 185.896 45.8734 184.183C45.9305 179.043 46.3874 181.099 47.1299 189.951L47.8152 198.289L51.1277 198.518C53.0124 198.632 54.4973 198.518 54.4973 198.289C54.4973 197.661 51.2991 197.204 49.6999 197.604L48.215 197.947V194.349C48.215 192.35 47.8152 187.552 47.4155 183.669C46.9586 179.785 46.7301 176.13 46.9014 175.559C47.187 174.417 46.8443 174.017 46.2732 174.873Z" fill="#C21807"/>
<path d="M37.9344 197.261C38.3913 197.546 39.4765 197.832 40.3331 197.832C42.7889 197.832 43.817 198.403 43.0174 199.317C42.5605 199.888 41.0185 200.116 37.8773 200.116C33.0228 200.116 32.109 199.431 35.2502 198.117C36.2211 197.66 36.7351 197.318 36.3353 197.261C35.2502 197.261 32.2233 198.917 32.2233 199.602C32.2233 201.201 39.8191 201.887 42.5034 200.516C44.9021 199.317 44.6165 198.06 41.7038 197.318C40.276 196.975 38.6769 196.69 38.1058 196.69C37.2491 196.69 37.192 196.804 37.9344 197.261Z" fill="#C21807"/>
<path d="M56.7243 199.545C57.8666 200.516 57.9237 200.744 57.067 201.03C55.7534 201.544 51.2416 200.859 49.2427 199.831C47.7007 199.088 47.5864 199.088 48.2147 199.831C49.9851 201.944 57.5239 202.8 58.609 201.087C59.0659 200.345 57.1241 198.403 55.9819 198.403C55.6392 198.46 55.9819 198.917 56.7243 199.545Z" fill="#C21807"/>
</svg>
