<svg width="45" height="36" viewBox="0 0 45 36" fill="none" xmlns="http://www.w3.org/2000/svg">
<path d="M17.214 0.0753098C17.724 0.110481 18.9638 0.145649 19.9837 0.154442C21.8125 0.172028 23.0699 0.242367 24.8636 0.427013C25.3735 0.479767 26.9298 0.541317 28.3366 0.558899C31.7921 0.611656 33.4891 0.83147 35.5641 1.49091C36.6368 1.83382 37.1732 2.0976 37.5512 2.47568C37.9821 2.91531 38.1403 3.31977 38.3338 4.50676C38.5096 5.60583 38.5184 7.3028 38.3514 12.9564L38.3074 14.7149L39.257 14.7237C40.0571 14.7413 40.3297 14.7853 40.9979 15.0051C42.4399 15.4799 43.284 16.1217 43.7324 17.0801C43.9874 17.6253 43.9962 18.1792 43.8027 19.8146C43.7236 20.4389 43.6357 21.6874 43.6005 22.5843C43.5566 23.7537 43.495 24.2988 43.3983 24.5274C43.2664 24.8264 43.2752 24.8791 43.4686 25.4507C43.6621 26.0485 43.6709 26.0573 44.0226 26.1101C44.7875 26.2156 44.9985 26.6552 44.9985 28.1676C44.9985 29.5568 44.9106 29.8118 44.3303 30.0667C44.1017 30.1723 43.8379 30.225 43.7236 30.1986C43.5566 30.1547 43.5214 30.1898 43.4686 30.4185C43.3983 30.8053 42.8268 31.3417 42.3784 31.4648C42.1322 31.5263 41.6398 31.5439 40.9188 31.4999L39.8373 31.4384L39.8725 31.9132C39.9252 32.5726 39.7758 32.8716 38.8877 33.8739C37.8238 35.0609 37.2171 35.3335 35.6081 35.3335C34.298 35.3335 33.5506 35.0521 32.7153 34.252C32.0383 33.6014 31.8537 33.1266 31.8537 32.0099C31.8537 31.2889 31.8273 31.1043 31.7218 31.0779C31.6514 31.0515 31.0975 30.99 30.4908 30.9372C29.8138 30.8669 29.2774 30.7702 29.084 30.6734C28.8026 30.5328 28.4685 30.524 25.3911 30.5503C23.5271 30.5679 21.4696 30.6207 20.819 30.6734C20.1683 30.7174 19.1484 30.7614 18.5505 30.7614C17.9526 30.7614 17.1964 30.8053 16.8535 30.8581C16.2556 30.9636 16.2468 30.9636 16.2468 31.245C16.2468 32.2385 15.4116 33.276 13.9256 34.1113C13.442 34.3839 13.3365 34.4015 12.4133 34.4367C11.2878 34.4806 10.857 34.3751 10.1624 33.9091C9.67881 33.575 9.51175 33.3024 9.11608 32.1418C8.81713 31.2713 8.74679 31.1834 8.32475 31.0779L8.08735 31.0251L8.13131 31.7549C8.17528 32.388 8.15769 32.5023 7.99942 32.6957L7.82357 32.9155L5.76611 32.9243C3.26902 32.9419 1.00933 32.8188 0.631256 32.643C0.261967 32.4671 0.0509453 31.9923 0.00698471 31.245C-0.0457726 30.3305 0.191628 30.0228 1.0533 29.9085C1.32587 29.8645 1.38742 29.8294 1.33466 29.715C1.29949 29.6359 1.23794 28.5808 1.20277 27.3762C1.13243 25.4419 1.06209 24.5098 0.763145 22.2326C0.727974 21.916 0.648842 20.0608 0.587292 18.1001C0.499367 15.0227 0.499367 14.0555 0.631256 11.0221C0.798313 6.95989 0.938995 5.44757 1.26432 4.03196C1.67757 2.23828 2.22271 1.33265 3.17231 0.875435C3.69107 0.620449 5.25615 0.303917 6.80363 0.128063C7.77961 0.0137634 8.90506 -0.0126152 12.1671 0.00497055C14.4356 0.0137634 16.7041 0.0489311 17.214 0.0753098ZM8.64128 1.04249C5.92438 1.18317 3.80537 1.60522 3.25144 2.12398C3.01404 2.34379 2.58321 3.14391 2.49528 3.54837C2.46011 3.68905 2.41615 3.88249 2.38977 3.96162C2.34581 4.09351 2.39856 4.11989 2.73268 4.11989C3.17231 4.11989 3.44488 4.3397 3.59435 4.83209C3.6559 5.02552 3.68227 6.30924 3.67348 8.43704C3.66469 11.7518 3.60314 13.0092 3.42729 13.3169C3.32178 13.5016 2.29305 13.9676 1.83584 14.0291L1.53689 14.0819L1.59844 15.6294C1.78308 20.6763 1.91497 22.8129 2.05565 23.0415C2.08203 23.0855 2.26667 23.1118 2.4689 23.1118C2.87336 23.1118 3.33937 23.3492 3.48884 23.6218C3.60314 23.8328 3.84933 25.31 3.84933 25.7584C3.84933 25.9342 3.72624 26.3123 3.57676 26.6201C3.36574 27.0421 3.22506 27.2004 3.00525 27.2971C2.84698 27.3674 2.65355 27.3938 2.58321 27.3674C2.39856 27.2971 2.36339 27.5169 2.33701 28.8534C2.31063 29.9173 2.31943 29.9788 2.48649 30.014C2.58321 30.0316 3.86692 30.0667 5.34407 30.0931C6.82122 30.1195 8.16648 30.1811 8.35113 30.225L8.66766 30.2954L8.72921 29.9173C8.80834 29.3897 9.42382 28.1851 9.74915 27.9126C9.89862 27.7895 10.3558 27.5785 10.7779 27.4466C11.4197 27.2355 11.6923 27.2004 12.51 27.2004C13.3277 27.2004 13.5563 27.2355 13.9784 27.4114C14.6642 27.6928 15.3236 28.405 15.7281 29.3018L16.027 29.9788L16.3787 29.9349C17.1789 29.8381 21.7774 29.7063 25.057 29.6799L28.5564 29.6623L28.5389 28.2994C28.5213 27.2268 28.5476 26.8135 28.6707 26.3651C29.128 24.6945 30.1303 23.4635 31.6338 22.7338C32.7593 22.1798 33.5506 21.9952 35.0278 21.9248C36.7863 21.8369 37.6655 21.96 39.3889 22.5315C40.9364 23.0415 41.6925 23.3492 42.1058 23.6482C42.2553 23.7537 42.3959 23.8064 42.4311 23.7801C42.4575 23.7449 42.5102 23.0591 42.5454 22.2502C42.5806 21.4412 42.6333 20.6587 42.6597 20.518C42.6949 20.3686 42.7476 19.7707 42.8004 19.1728C42.8971 17.8627 42.8004 17.423 42.2992 16.9394C41.7717 16.4295 40.5495 15.9019 39.5911 15.7788C39.3449 15.7437 38.9141 15.6557 38.6239 15.5766C38.3338 15.5063 38.0172 15.4271 37.9293 15.4095C37.6216 15.348 37.5688 15.1985 37.5424 14.3281L37.5073 13.4576L36.9709 13.4048C36.672 13.3697 36.1093 13.3521 35.7224 13.3609C35.3091 13.3697 34.931 13.3345 34.8167 13.2729C34.4914 13.1059 34.2628 12.508 34.0342 11.2507C33.8408 10.2131 33.8232 9.92298 33.8759 9.04373C33.9111 8.48979 33.9639 7.29401 33.999 6.39716C34.0606 4.61227 34.0782 4.54193 34.5969 4.32212C34.931 4.19023 36.7775 4.16385 37.1204 4.29574C37.2435 4.3397 37.349 4.3485 37.349 4.31333C37.349 4.05834 37.0501 3.32856 36.883 3.17029C36.5753 2.88014 35.4762 2.40534 34.4035 2.10639C33.0319 1.71952 31.6602 1.57884 28.2487 1.48212C26.6045 1.43816 24.5031 1.33265 23.5886 1.26231C22.6654 1.19197 20.9333 1.11283 19.7375 1.09525C18.5329 1.07766 17.5306 1.0337 17.5042 1.00732C17.4163 0.919395 10.3822 0.954567 8.64128 1.04249ZM2.17875 4.77054C2.04686 5.12224 1.82705 7.4171 1.82705 8.46342C1.82705 8.99976 1.7655 10.3099 1.69516 11.3738C1.63361 12.4377 1.58085 13.3081 1.58965 13.3257C1.65998 13.3873 2.80302 12.9388 2.84698 12.8245C2.89095 12.7278 3.058 8.11171 3.08438 6.31803C3.08438 6.19493 3.058 5.82565 3.02283 5.50032C2.96128 4.94639 2.93491 4.88484 2.67992 4.72658C2.31943 4.51555 2.27547 4.51555 2.17875 4.77054ZM34.8519 4.96398C34.7288 5.00794 34.7112 5.21017 34.7112 6.30924C34.7112 7.01264 34.6673 8.07654 34.6057 8.67444C34.509 9.63283 34.5178 9.87023 34.6497 10.6791C34.8431 11.8046 35.0102 12.4552 35.1421 12.5871C35.1948 12.6399 35.5729 12.6838 36.0037 12.6926C36.4346 12.7014 36.9182 12.7366 37.094 12.7718L37.4106 12.8421L37.4633 11.1803C37.5424 9.09648 37.5424 6.06305 37.4721 5.46515C37.4193 5.09587 37.3754 4.99915 37.2259 4.97277C36.927 4.91122 35.0014 4.90243 34.8519 4.96398ZM33.5067 22.936C32.8472 23.0767 31.4052 23.7273 31.0184 24.0614C30.5172 24.4835 29.8841 25.4067 29.6291 26.0925C29.4269 26.6025 29.4005 26.8399 29.3654 28.1324C29.3478 29.0644 29.3654 29.6623 29.4269 29.7678C29.506 29.9261 29.6467 29.9524 30.6842 30.0052C31.3261 30.0316 32.0559 30.0843 32.3021 30.1107C32.7417 30.1635 32.7505 30.1635 32.8032 29.9173C32.9439 29.2139 34.0254 28.3258 34.9662 28.1236C35.7136 27.9653 36.9445 28.1148 37.4721 28.4225C37.9997 28.7303 38.9053 29.7238 39.0196 30.1195L39.1251 30.4536L40.5407 30.4448C41.3232 30.4448 42.053 30.4097 42.1585 30.3745C42.2992 30.3305 42.3696 30.2162 42.4047 29.9876C42.4399 29.8118 42.5454 29.3809 42.6509 29.0468C42.8004 28.5456 42.8356 28.2027 42.8444 27.2443C42.8444 26.1189 42.8356 26.031 42.5982 25.5562C42.3168 24.9846 41.6837 24.3692 41.0771 24.0878C40.3297 23.7273 37.771 22.9272 37.138 22.8481C36.3906 22.7513 34.0958 22.8129 33.5067 22.936ZM2.12599 23.7449C2.22271 24.2988 2.3546 25.7496 2.3546 26.1804C2.3546 26.4178 2.38977 26.6464 2.44252 26.6728C2.60958 26.7783 2.87336 26.5321 3.058 26.1189C3.21627 25.7672 3.24265 25.5737 3.21627 24.8616C3.1811 23.9383 3.11076 23.7801 2.66234 23.5866C2.20512 23.3844 2.07323 23.4196 2.12599 23.7449ZM43.4774 28.9237C43.5478 29.4161 43.6269 29.4952 43.917 29.3897L44.1632 29.3106L44.1896 28.1851C44.216 27.0685 44.216 27.0685 43.9698 26.8223L43.7324 26.5849L43.5741 27.596C43.495 28.15 43.451 28.7479 43.4774 28.9237ZM11.1647 28.2027C11.0768 28.2555 11.1032 28.3082 11.2703 28.4225C11.4989 28.5632 11.4989 28.5632 11.4989 28.3434C11.4989 28.1236 11.3758 28.062 11.1647 28.2027ZM13.5212 28.2731C13.5299 28.5193 13.6443 28.7215 13.7498 28.6775C13.8992 28.6248 13.908 28.3258 13.7586 28.2731C13.5915 28.2027 13.5212 28.2027 13.5212 28.2731ZM10.0129 29.038C10.0305 29.0556 10.1536 29.0908 10.2855 29.1259L10.5229 29.1787L10.3734 28.9237C10.2327 28.6775 10.2239 28.6687 10.1096 28.8446C10.0393 28.9325 10.0041 29.0292 10.0129 29.038ZM12.2023 29.082C12.2023 29.249 12.4221 29.3897 12.5628 29.3106C12.6331 29.2578 12.3957 28.9325 12.2638 28.9237C12.2286 28.9149 12.2023 28.9941 12.2023 29.082ZM35.8543 29.0468C35.8543 29.0644 35.8982 29.1787 35.951 29.3018C36.0741 29.5656 36.206 29.5216 36.206 29.2139C36.206 29.0644 36.162 29.0028 36.0301 29.0028C35.9334 29.0028 35.8543 29.0204 35.8543 29.0468ZM36.839 29.5744C36.839 29.7942 36.8654 29.97 36.9006 29.97C36.9358 29.97 37.0588 29.8645 37.1819 29.7414L37.393 29.5216L37.1732 29.3546C36.8654 29.1172 36.839 29.1347 36.839 29.5744ZM34.5706 29.3106C34.4035 29.4337 34.4035 29.4337 34.5706 29.4425C34.6673 29.4425 34.8167 29.504 34.9047 29.592C35.0717 29.7414 35.0981 29.6975 35.0102 29.3721C34.9486 29.1435 34.8167 29.1259 34.5706 29.3106ZM33.9727 29.9876C34.0694 30.1371 34.1837 30.0404 34.1837 29.8206C34.1837 29.592 34.1749 29.592 34.0606 29.7502C33.9902 29.8469 33.9551 29.9524 33.9727 29.9876ZM12.2814 29.7942C12.1935 29.8469 12.1143 29.9788 12.1143 30.0843C12.1143 30.3393 11.9561 30.4976 11.7011 30.4976C11.4109 30.4976 11.4285 30.9284 11.7275 31.2801C11.9033 31.4999 12.0264 31.5527 12.2902 31.5527C12.7122 31.5527 13.2222 31.3417 13.3453 31.1219C13.5827 30.6646 13.3189 30.0667 12.7826 29.8294C12.4485 29.6887 12.4836 29.6887 12.2814 29.7942ZM9.58208 30.0931C9.59967 30.1811 9.65243 30.2074 9.72277 30.1547C9.78432 30.1195 9.81069 30.0228 9.77552 29.9349C9.70518 29.7502 9.52933 29.8821 9.58208 30.0931ZM13.9256 30.5679C13.9608 30.7702 14.0135 30.9372 14.0487 30.9372C14.1454 30.9372 14.2158 30.4888 14.163 30.2074C14.119 29.9964 14.0927 29.9788 13.9872 30.0843C13.8992 30.1635 13.8817 30.3041 13.9256 30.5679ZM37.393 30.3217C37.3666 30.3657 37.4018 30.4097 37.4809 30.4097C37.56 30.4097 37.5952 30.3657 37.5688 30.3217C37.5424 30.269 37.4985 30.2338 37.4809 30.2338C37.4633 30.2338 37.4193 30.269 37.393 30.3217ZM0.938995 30.6734C0.763145 30.7702 0.719181 31.1043 0.824692 31.6318C0.895031 31.9747 1.11485 32.0363 2.66234 32.1682C3.7702 32.2561 7.13775 32.2561 7.21688 32.1682C7.23447 32.1418 7.27843 31.878 7.30481 31.5791C7.35757 31.0867 7.34877 31.0339 7.18172 30.9812C7.085 30.946 5.87162 30.9196 4.47361 30.9284C2.15237 30.9284 1.92376 30.9108 1.68636 30.7614C1.38742 30.5767 1.18519 30.5503 0.938995 30.6734ZM33.9023 30.8669C33.9639 30.9284 34.0078 31.0515 34.0078 31.1482C34.0166 31.3329 34.0166 31.3329 34.1397 31.1658C34.3068 30.9372 34.3068 30.8669 34.1133 30.8229C33.8408 30.7526 33.7968 30.7614 33.9023 30.8669ZM10.4525 30.7877C10.4701 30.7965 10.5581 30.8669 10.6372 30.9284C10.7691 31.0339 10.7955 31.0251 10.7955 30.902C10.7955 30.8141 10.7251 30.7614 10.602 30.7614C10.4965 30.7614 10.435 30.7702 10.4525 30.7877ZM37.8766 31.0251C38.2722 31.2362 38.3074 31.2362 38.2546 31.0251C38.2195 30.8933 38.1315 30.8493 37.8854 30.8493L37.5688 30.8581L37.8766 31.0251ZM9.60846 31.1922C9.67001 31.4911 9.77552 31.5439 9.86345 31.3241C9.89862 31.2362 9.85466 31.1043 9.77552 31.0076C9.58208 30.8053 9.52933 30.8581 9.60846 31.1922ZM34.9838 31.3593C34.5706 31.6934 34.509 32.1506 34.8343 32.4671C35.1772 32.8188 35.441 32.8364 35.9598 32.5463C36.6104 32.177 36.7863 31.9132 36.6808 31.4911C36.6104 31.1922 36.5665 31.1482 36.2499 31.0955C35.696 31.0076 35.3179 31.0867 34.9838 31.3593ZM32.601 31.8956C32.601 32.1154 32.6362 32.2561 32.6714 32.1946C32.7065 32.1418 32.8472 32.0451 32.9791 32.0011L33.2253 31.9044L33.0494 31.6758C32.9439 31.5439 32.8648 31.3768 32.8648 31.2977C32.856 31.1834 32.8384 31.1834 32.7329 31.3241C32.6626 31.4208 32.601 31.6758 32.601 31.8956ZM39.0987 31.878C39.046 32.1418 39.1339 32.4319 39.2306 32.3352C39.257 32.3176 39.301 32.1242 39.3361 31.9132C39.3889 31.6054 39.3713 31.5351 39.2746 31.5703C39.213 31.5879 39.1339 31.7285 39.0987 31.878ZM37.3578 31.8516C37.3754 31.8692 37.4897 31.9132 37.6128 31.9396L37.8326 32.0011L37.6128 31.8253C37.4897 31.7285 37.3754 31.6934 37.3578 31.7373C37.349 31.7901 37.349 31.8428 37.3578 31.8516ZM13.4684 31.7373C13.3805 31.8956 12.7122 32.1682 12.4221 32.1682H12.1671L12.3517 32.3528L12.5364 32.5463L12.9233 32.3176C13.3365 32.0627 13.697 31.7725 13.697 31.6934C13.697 31.6054 13.5387 31.6318 13.4684 31.7373ZM10.5581 31.6934C10.5844 31.7198 10.6636 31.7285 10.7251 31.7022C10.7955 31.6758 10.7691 31.6494 10.6724 31.6494C10.5756 31.6406 10.5229 31.667 10.5581 31.6934ZM10.136 32.4935C10.2152 32.6693 10.3207 32.8716 10.3822 32.9419C10.5141 33.109 11.2351 33.575 11.3582 33.575C11.4901 33.575 11.0592 33.1441 10.6987 32.9155C10.5229 32.8012 10.3295 32.5902 10.2679 32.4407C10.2064 32.2913 10.1272 32.1682 10.0833 32.1682C10.0393 32.1682 10.0657 32.3176 10.136 32.4935ZM14.5763 32.4319C14.5763 32.4759 14.6202 32.5199 14.673 32.5199C14.7169 32.5199 14.7345 32.4759 14.7082 32.4319C14.6818 32.3792 14.6378 32.344 14.6114 32.344C14.5938 32.344 14.5763 32.3792 14.5763 32.4319ZM38.1931 33.065C38.281 33.1793 38.3689 33.2848 38.3777 33.3024C38.3865 33.32 38.4657 33.2848 38.536 33.2233C38.6591 33.1178 38.6503 33.0914 38.4305 32.9947C38.0612 32.8364 38.0084 32.854 38.1931 33.065ZM34.6233 33.2672C34.6849 33.3464 34.7552 33.3815 34.7728 33.364C34.8343 33.3024 34.7112 33.1354 34.6057 33.1354C34.553 33.1354 34.553 33.1881 34.6233 33.2672ZM12.809 33.3288C12.7122 33.5134 12.7122 33.5222 12.8441 33.4079C12.9321 33.3464 12.9936 33.2585 12.9936 33.2145C12.9936 33.0826 12.9145 33.1266 12.809 33.3288ZM35.5905 33.4783C35.5905 33.6189 35.7136 33.6541 35.8279 33.5662C35.9949 33.4167 35.9686 33.32 35.7663 33.3728C35.6696 33.3991 35.5905 33.4519 35.5905 33.4783ZM37.4633 33.8739C37.4809 34.1641 37.5249 34.1817 37.771 33.9882C37.8678 33.9091 37.8502 33.8651 37.6831 33.7332C37.5688 33.6541 37.4721 33.575 37.4633 33.575C37.4545 33.575 37.4545 33.7069 37.4633 33.8739ZM34.298 34.3136C34.3419 34.4279 34.7992 34.5685 34.7992 34.4718C34.7992 34.4454 34.6937 34.3048 34.553 34.1641C34.3595 33.9619 34.3068 33.9443 34.2892 34.0586C34.2716 34.1377 34.2804 34.252 34.298 34.3136Z" fill="#C21807"/>
<path d="M11.411 3.50415C11.9209 3.54811 12.5716 3.61845 12.8529 3.67121C13.1431 3.72396 13.5739 3.76793 13.8025 3.76793C14.3741 3.76793 14.6115 4.00533 14.7521 4.69994C14.884 5.333 14.7521 7.61028 14.4796 9.26328C14.3213 10.292 14.1103 12.3319 14.1191 12.8682C14.1279 13.2903 13.9696 13.7651 13.8025 13.8442C13.53 13.9673 6.7509 14.0904 6.34645 13.9761C5.77493 13.8178 5.70459 13.642 5.66062 12.2352C5.64304 11.5669 5.59908 10.0282 5.56391 8.82365C5.46719 5.75505 5.63425 4.14601 6.08267 3.77672C6.42558 3.49536 9.23041 3.35468 11.411 3.50415ZM7.23449 4.28669C6.68056 4.33065 6.61022 4.36582 6.5135 4.56805C6.36403 4.87579 6.23214 8.56867 6.32886 9.61498C6.37282 10.0458 6.43437 11.0218 6.46954 11.7692L6.53109 13.132L7.36638 13.2375C8.00824 13.3254 8.60613 13.3254 9.96019 13.2551C12.132 13.1408 11.9209 13.1408 12.2902 13.1672C13.1255 13.2287 13.2398 13.2023 13.3541 12.8419C13.4245 12.6396 13.4508 12.1209 13.442 11.4702C13.4245 10.7756 13.4772 9.98427 13.6003 9.14018C13.7937 7.76854 14.0048 5.18353 13.952 4.82303C13.9168 4.62081 13.8641 4.60322 13.0816 4.49771C11.1648 4.23393 8.74682 4.14601 7.23449 4.28669Z" fill="#C21807"/>
<path d="M10.7078 7.10903C11.9123 8.92909 12.3344 9.66767 12.2641 9.8699C12.2289 9.97541 12.141 9.85231 10.8397 7.88278C10.3385 7.12662 9.80213 6.25615 9.65266 5.966C9.08114 4.84055 9.49439 5.28018 10.7078 7.10903Z" fill="#C21807"/>
<path d="M8.94893 6.65219C8.94893 6.7489 9.24788 7.25008 9.61716 7.76884C10.7338 9.34271 11.3493 10.3714 11.235 10.4857C11.1559 10.5561 11.0416 10.4857 10.7954 10.2132C10.3294 9.68562 8.56206 6.93355 8.56206 6.71373C8.55326 6.59943 8.61481 6.52909 8.7467 6.5115C8.89617 6.48513 8.94893 6.52909 8.94893 6.65219Z" fill="#C21807"/>
<path d="M26.9741 3.59232C27.3346 3.62749 28.0468 3.733 28.5568 3.83851C29.0667 3.93523 29.7525 4.05832 30.0955 4.11987C31.2297 4.30452 31.7573 4.69139 31.9771 5.48272C32.109 5.96631 32.0914 7.10055 31.9419 7.94464C31.8716 8.33151 31.81 8.88544 31.81 9.1756C31.81 10.2219 31.3176 12.6223 31.0011 13.1586C30.9044 13.3081 30.7461 13.4576 30.6406 13.484C30.5351 13.5015 29.6734 13.5631 28.7326 13.6158C27.7918 13.6598 26.64 13.7301 26.1828 13.7565C25.4794 13.8005 25.3035 13.7829 25.0485 13.6422C24.4594 13.3345 24.3891 13.141 24.3363 11.6991C24.3099 10.9869 24.3187 10.1867 24.3539 9.92297C24.4155 9.46575 24.433 7.79516 24.3979 5.48272C24.3803 4.26935 24.477 3.92644 24.8991 3.70662C25.2156 3.53956 26.0421 3.4956 26.9741 3.59232ZM26.1828 4.33969C25.6112 4.37486 25.409 4.41882 25.3123 4.53312C25.2244 4.65622 25.2068 4.99034 25.2508 6.14216C25.2859 7.07417 25.2508 8.41944 25.1628 9.89659C25.0837 11.1627 25.0485 12.3409 25.0749 12.5168C25.1804 13.0443 25.409 13.1235 26.5169 13.0179C27.0356 12.9564 28.0995 12.8949 28.8909 12.8597C30.2273 12.8069 30.3329 12.7893 30.4472 12.6135C30.6406 12.297 31.0363 10.3362 31.1506 9.08767C31.1857 8.74476 31.2649 8.13807 31.3352 7.73362C31.5726 6.31801 31.4759 5.44755 31.0187 5.04309C30.7725 4.82328 27.9149 4.21659 27.3258 4.26055C27.106 4.27814 26.596 4.31331 26.1828 4.33969Z" fill="#C21807"/>
<path d="M26.0946 5.0253C26.0946 5.09564 26.5079 5.95731 27.0003 6.95087C27.5014 7.93564 28.0202 9.0435 28.1521 9.404C28.3543 9.95793 28.6181 10.635 28.7939 11.0394C28.8555 11.1977 28.5126 11.1889 28.3895 11.0306C28.3367 10.9691 28.1785 10.5822 28.0378 10.1777C27.6245 8.97316 27.1146 7.75979 26.4991 6.50245C25.9539 5.39459 25.8045 4.911 26.0067 4.911C26.0507 4.911 26.0946 4.96375 26.0946 5.0253Z" fill="#C21807"/>
<path d="M27.7037 5.14008C27.7389 5.17525 27.7653 5.26318 27.7653 5.33352C27.7653 5.40386 28.1434 6.23915 28.6094 7.18875C29.3919 8.7802 29.8755 9.88806 29.8755 10.0991C29.8755 10.1518 29.8139 10.187 29.7348 10.187C29.6557 10.187 29.5238 10.0112 29.4271 9.76497C29.3303 9.53636 28.9347 8.71865 28.5566 7.94491C27.6861 6.16881 27.5191 5.79073 27.4839 5.43023C27.4575 5.16646 27.5718 5.00819 27.7037 5.14008Z" fill="#C21807"/>
<path d="M21.2585 3.77713C23.5534 3.87385 23.6325 3.9354 23.4654 5.52685C23.4127 5.98407 23.3336 7.17106 23.2808 8.16462C23.228 9.15818 23.1489 10.6705 23.0962 11.5234C23.0258 12.6928 23.0346 13.1324 23.105 13.2731C23.1841 13.4138 23.1841 13.5105 23.105 13.66C22.9731 13.9062 22.7181 13.9853 22.2081 13.9238C22.0059 13.8974 21.3376 13.9062 20.731 13.9413C19.6934 14.0117 17.425 13.9501 16.8007 13.8358C16.6424 13.8095 16.3962 13.6864 16.2555 13.5633C15.9654 13.3259 15.9918 13.4665 15.8071 10.9782C15.7368 10.0462 15.7368 9.32524 15.8071 8.29651C15.8687 7.52277 15.939 6.29181 15.9742 5.57082C16.0357 4.18159 16.1237 3.88265 16.449 3.8211C16.871 3.73317 19.6319 3.70679 21.2585 3.77713ZM17.1964 4.55967H16.7831L16.7479 5.72029C16.7303 6.36215 16.66 7.55794 16.5985 8.38444C16.5017 9.57143 16.5017 10.0814 16.5809 10.9343C16.6424 11.5146 16.6864 12.1564 16.6864 12.3587C16.6864 13.0269 16.7743 13.0621 18.6735 13.1324C19.5791 13.1676 20.643 13.1676 21.0299 13.1236C21.4256 13.0885 21.8828 13.0621 22.0498 13.0621L22.3576 13.0709L22.34 11.3387C22.34 10.3891 22.384 8.88561 22.4455 7.98877C22.5159 7.09193 22.595 5.97528 22.6302 5.50048L22.6829 4.6476L22.2609 4.63881C22.0235 4.63001 21.3728 4.59484 20.8189 4.55967C20.265 4.51571 19.3154 4.50692 18.7087 4.5245C18.102 4.54209 17.425 4.55967 17.1964 4.55967Z" fill="#C21807"/>
<path d="M19.0961 5.30678C19.1665 5.67606 20.0018 7.31148 20.9865 8.99965C21.3734 9.67668 21.6987 10.3097 21.6987 10.424C21.6987 10.7494 21.5317 10.7406 21.391 10.3977C21.3119 10.213 21.1184 9.86132 20.9602 9.62392C20.0897 8.29625 18.6653 5.38591 18.7708 5.12213C18.8587 4.89353 19.0434 4.99904 19.0961 5.30678Z" fill="#C21807"/>
<path d="M17.8653 6.16011C17.9356 6.27441 18.0763 6.54698 18.1818 6.77559C18.2785 6.9954 18.8588 8.00654 19.4655 9.0089C20.1337 10.1168 20.5294 10.8553 20.4678 10.8729C20.248 10.9521 19.8436 10.363 18.9907 8.78029C17.7422 6.45026 17.5575 6.07218 17.6542 6.01063C17.6982 5.98425 17.7949 6.05459 17.8653 6.16011Z" fill="#C21807"/>
<path d="M36.7776 17.977C37.5601 18.021 38.9405 18.1792 39.4769 18.2935C39.7934 18.3551 39.8989 18.4166 39.8989 18.5397C39.8989 18.6277 39.8286 18.7244 39.7407 18.7508C39.2043 18.9178 38.2811 18.9706 36.9095 18.9266C36.0302 18.8914 34.7904 18.909 34.0079 18.9706C32.7857 19.0585 25.8748 19.2871 24.424 19.2871C24.1075 19.2871 20.863 19.2344 17.2141 19.164C13.5652 19.1025 9.18649 19.0409 7.48074 19.0321C4.13077 19.0145 4.11319 19.0145 4.11319 18.5309C4.11319 17.9243 4.63195 17.8803 10.7076 18.0122C19.7288 18.2056 21.2411 18.232 25.567 18.2056C27.9586 18.1968 30.5085 18.1529 31.2382 18.1001C32.7857 18.0034 35.8983 17.9331 36.7776 17.977Z" fill="#C21807"/>
<path d="M26.1387 25.6621C26.2354 25.7061 26.4552 25.7412 26.6311 25.7412C26.974 25.75 27.2026 25.9347 27.1235 26.1369C27.0092 26.4359 26.5959 26.515 24.8638 26.5765C23.923 26.6117 22.2788 26.6733 21.2149 26.7084C18.9464 26.7963 12.4135 26.7436 11.587 26.6293C11.2705 26.5853 9.6878 26.5853 8.06997 26.6293C5.36186 26.6908 5.10688 26.682 4.90465 26.5414C4.78155 26.4622 4.67604 26.304 4.65845 26.2072C4.59691 25.794 4.64087 25.794 12.2376 25.8204C16.7394 25.838 19.6762 25.8204 20.2389 25.7588C21.4347 25.6357 25.9189 25.5566 26.1387 25.6621Z" fill="#C21807"/>
<path d="M20.063 27.8777C20.2476 28.5195 20.2828 28.7393 20.2388 28.8624C20.1861 29.0119 19.8959 29.1262 19.7728 29.0559C19.6761 28.9943 19.5706 28.0887 19.6409 27.9128C19.7025 27.7458 20.019 27.7282 20.063 27.8777Z" fill="#C21807"/>
<path d="M18.8936 27.9215C18.9024 27.9655 18.92 28.071 18.9288 28.1677C18.9376 28.2732 18.9991 28.4403 19.0519 28.5546C19.2014 28.8184 19.1046 29.1965 18.9024 29.1613C18.8233 29.1437 18.6386 28.9151 18.4892 28.6425C18.2693 28.2205 18.2518 28.1238 18.3485 28.0007C18.4716 27.86 18.876 27.8072 18.8936 27.9215Z" fill="#C21807"/>
<path d="M21.2411 28.5718C21.2499 29.0554 21.2235 29.1961 21.1092 29.24C20.8015 29.3631 20.6168 28.6949 20.8191 28.1761C20.8718 28.0443 20.9685 27.9475 21.0741 27.9475C21.2147 27.9475 21.2411 28.0179 21.2411 28.5718Z" fill="#C21807"/>
<path d="M41.4373 26.9981C41.6044 27.2531 41.7627 27.596 41.7978 27.7455C41.8418 27.9917 41.833 28.0356 41.6923 28.0356C41.578 28.0269 41.4286 27.8334 41.1999 27.3674C40.8834 26.7431 40.8482 26.5409 41.0417 26.5409C41.0944 26.5409 41.2615 26.7519 41.4373 26.9981Z" fill="#C21807"/>
<path d="M40.8486 27.8946C41.3234 28.3958 41.4641 28.8267 41.1475 28.8267C40.9277 28.8179 40.2067 27.7452 40.3122 27.5517C40.3826 27.4374 40.4617 27.4902 40.8486 27.8946Z" fill="#C21807"/>
<path d="M40.418 28.7916C40.6114 29.4334 40.2861 29.5741 40.0223 28.9498C39.8816 28.6157 39.9344 28.3871 40.1542 28.3871C40.2509 28.3871 40.3388 28.519 40.418 28.7916Z" fill="#C21807"/>
</svg>
