<svg width="22" height="9" viewBox="0 0 22 9" fill="none" xmlns="http://www.w3.org/2000/svg">
<path d="M12.3707 0.0121136C9.07491 0.20641 8.5352 0.256783 8.28333 0.415099C8.03866 0.566218 7.28306 1.47293 6.50588 2.53797L6.0885 3.11366L4.82198 3.15683C2.45444 3.24319 0.900072 3.57421 0.425126 4.11392C0.216437 4.35859 0.209241 4.38738 0.209241 5.06382C0.209241 5.53876 0.17326 5.82661 0.101299 5.97053C-0.0426244 6.23679 -0.0354282 6.33754 0.13728 6.90603C0.331576 7.5249 0.468303 7.61845 1.08717 7.55369L1.54773 7.51051L1.74922 6.92043C2.03707 6.07847 2.28173 5.59633 2.48323 5.45961C2.80705 5.25092 4.85796 5.36606 5.07384 5.60353C5.11702 5.64671 5.41926 6.08567 5.74309 6.56781L6.33317 7.43855L9.52827 7.40257L12.7162 7.35939L12.7665 7.51051C12.8313 7.7192 13.1983 7.7264 13.3206 7.5249C13.371 7.44574 13.4358 7.38098 13.4574 7.38098C13.4862 7.38098 13.5221 7.44574 13.5437 7.5249C13.5941 7.712 13.9107 7.7192 14.0403 7.5321C14.0906 7.46014 14.2418 7.37378 14.3713 7.345C14.5584 7.30902 14.6375 7.22986 14.7743 6.95641C14.9758 6.57501 15.7242 5.54596 15.9616 5.33007C16.1056 5.20774 16.2495 5.18615 16.9331 5.16456C17.3721 5.15017 17.8614 5.17176 18.0125 5.20054C18.286 5.25811 18.3148 5.29409 18.6386 5.94175C18.9193 6.49585 18.9768 6.66856 18.9408 6.87005L18.8977 7.11472L19.5021 7.07874C20.193 7.04276 20.6679 6.84846 20.7471 6.57501C20.8478 6.19361 20.7903 5.81222 20.6032 5.58914L20.4161 5.36606H20.8118C21.6106 5.36606 21.7186 5.05662 21.5818 3.20001C21.4811 1.81115 21.4451 1.73919 20.7903 1.71041C20.4592 1.69601 20.3081 1.7176 20.2146 1.80396C20.0994 1.9119 20.085 1.89031 20.0419 1.5449C19.9555 0.911633 19.79 0.371922 19.6461 0.249587C19.5381 0.163233 19.2359 0.127252 18.2212 0.0912714C16.5229 0.0265059 12.9608 -0.0238671 12.3707 0.0121136ZM18.4875 0.465472L19.4518 0.508648L19.5453 0.818083C19.6461 1.1707 19.8044 2.52357 19.9627 4.3442C20.0562 5.49559 20.0778 5.61072 20.2505 5.81222C20.5672 6.19361 20.4592 6.52464 19.9627 6.65417C19.459 6.79089 19.4662 6.79089 19.0272 5.88418C18.8041 5.41643 18.5522 4.99185 18.4659 4.93429C18.2212 4.78317 16.3718 4.73999 16.0264 4.88391C15.7098 5.01344 15.0693 5.76904 14.6519 6.49585L14.3497 7.01398L11.6871 7.02117C10.2263 7.02117 8.47043 7.04276 7.80119 7.07154L6.57065 7.11472L6.00935 6.27997C5.69271 5.81941 5.36889 5.37325 5.28253 5.29409C5.07384 5.0998 4.4118 4.99185 3.41153 4.98466C2.31772 4.97746 2.1666 5.04942 1.84277 5.74026C1.70604 6.0281 1.53333 6.44548 1.46137 6.66136C1.38941 6.87725 1.31025 7.07874 1.28866 7.10033C1.26708 7.12911 1.11596 7.16509 0.950445 7.19388L0.655403 7.23706L0.504284 6.7837C0.36036 6.36632 0.36036 6.30875 0.461107 6.11446C0.533068 5.97053 0.569049 5.68988 0.569049 5.22213C0.569049 4.73279 0.597834 4.48812 0.676991 4.38018C0.97923 3.94841 2.77827 3.58141 4.99469 3.50225L6.29 3.45907L7.04559 2.45161C7.46297 1.89751 7.98109 1.26425 8.19698 1.03397L8.59277 0.630983L9.20444 0.58061C12.1621 0.350333 15.2132 0.314353 18.4875 0.465472ZM21.0781 2.1062C21.1573 2.18535 21.2868 4.25785 21.2436 4.63205C21.2004 4.97027 21.0493 5.05662 20.6247 4.97746L20.3873 4.93429L20.2937 3.91243C20.2433 3.35833 20.1858 2.80422 20.1642 2.69628C20.1426 2.54516 20.1642 2.48759 20.2433 2.48759C20.3081 2.48759 20.3801 2.40124 20.4017 2.2861C20.4304 2.17816 20.4664 2.06302 20.488 2.02704C20.524 1.96227 21.0061 2.01984 21.0781 2.1062Z" fill="#C21807"/>
<path d="M12.3714 0.832799C11.9324 0.940741 11.8676 1.09906 11.8676 2.02736C11.8676 3.18594 11.7957 3.13557 13.4796 3.13557C15.221 3.13557 15.1419 3.19314 15.1419 1.9554C15.1419 0.746445 15.2067 0.804014 13.753 0.782426C13.1342 0.77523 12.5081 0.796818 12.3714 0.832799ZM14.6957 1.19261C14.7173 1.2142 14.7461 1.56681 14.7605 1.98418L14.7821 2.73978H13.5228H12.2634L12.2418 2.06334C12.2202 1.32214 12.2634 1.22139 12.6088 1.17102C12.9111 1.12784 14.6525 1.14943 14.6957 1.19261Z" fill="#C21807"/>
<path d="M16.8471 0.84006C16.2929 0.876041 15.8396 0.93361 15.782 0.983984C15.6741 1.07034 15.6813 1.26463 15.8396 2.30808C15.9691 3.17881 15.8756 3.13563 17.5739 3.13563C19.4161 3.13563 19.3873 3.14283 19.3801 2.41602C19.3729 1.83313 19.157 1.1423 18.9123 0.897629C18.7612 0.74651 18.531 0.739314 16.8471 0.84006ZM18.7468 1.35099C18.898 1.63883 19.0635 2.24331 19.0635 2.49518C19.0635 2.66069 19.0275 2.68947 18.7972 2.73265C18.6461 2.75424 18.02 2.77583 17.394 2.77583H16.2714L16.1922 2.25051C16.1418 1.96986 16.0915 1.63164 16.0699 1.5093L16.0339 1.27903L16.883 1.23585C17.3508 1.20706 17.8113 1.17828 17.9121 1.16389C18.5238 1.09193 18.6245 1.11351 18.7468 1.35099Z" fill="#C21807"/>
<path d="M8.72974 0.97667C8.38432 1.1134 7.26172 2.72534 7.26172 3.07795C7.26172 3.13552 7.34088 3.22907 7.44162 3.27944C7.59274 3.3586 7.88778 3.36579 9.1687 3.28664C10.025 3.24346 10.7662 3.18589 10.8166 3.1643C11.0037 3.09234 11.0757 2.76132 11.0757 1.99852C11.0757 0.88312 11.1045 0.904708 9.86673 0.911904C9.32702 0.911904 8.81609 0.940689 8.72974 0.97667ZM10.7015 2.01292C10.7087 2.40871 10.6871 2.76132 10.6511 2.7973C10.5791 2.86926 10.5144 2.87646 8.75132 2.95561L7.6791 3.01318L7.80143 2.76851C8.0389 2.30796 8.39871 1.78264 8.66497 1.52358L8.92403 1.25732L9.80196 1.27891L10.6799 1.3005L10.7015 2.01292Z" fill="#C21807"/>
<path d="M13.4862 4.28672C12.0829 4.3227 11.975 4.3299 11.9534 4.45943C11.9246 4.58896 11.9822 4.59615 13.5006 4.56017C14.3713 4.53858 15.1197 4.5026 15.1701 4.47382C15.2349 4.43064 15.2349 4.39466 15.1701 4.3155C15.1269 4.25793 15.0694 4.22195 15.0406 4.22915C15.019 4.23635 14.321 4.26513 13.4862 4.28672Z" fill="#C21807"/>
<path d="M15.8033 4.26515C15.7745 4.28674 15.7529 4.3515 15.7529 4.40907C15.7529 4.48823 16.0768 4.50262 17.5304 4.48823C19.1639 4.46664 19.315 4.45944 19.3366 4.33711C19.3582 4.22197 19.2359 4.21477 17.6023 4.21477C16.6381 4.21477 15.8249 4.23636 15.8033 4.26515Z" fill="#C21807"/>
<path d="M7.1683 4.38762C7.14671 4.44519 7.1755 4.50996 7.23307 4.53155C7.44895 4.6179 10.9895 4.58192 11.047 4.49556C11.1478 4.32286 10.8311 4.28688 9.05369 4.28688C7.52091 4.28688 7.19709 4.30127 7.1683 4.38762Z" fill="#C21807"/>
<path d="M6.19651 4.48113C6.2253 4.62505 6.52034 4.68262 6.67866 4.58187C6.83697 4.48113 6.70024 4.35879 6.42679 4.35879C6.2253 4.35879 6.17492 4.38758 6.19651 4.48113Z" fill="#C21807"/>
<path d="M1.9723 4.49543C1.66286 4.52421 1.54053 4.56739 1.54053 4.63935C1.54053 4.7329 1.85716 4.7401 3.69937 4.72571C4.88674 4.71851 5.87261 4.69692 5.88701 4.68253C5.9014 4.66814 5.8942 4.60337 5.87261 4.53861C5.82944 4.44506 5.59916 4.43066 4.11675 4.44506C3.17406 4.45225 2.20977 4.47384 1.9723 4.49543Z" fill="#C21807"/>
<path d="M16.6958 5.37338C15.861 5.5317 15.2709 6.28729 15.199 7.26597C15.1702 7.72652 15.1846 7.82007 15.3717 8.16549C15.4796 8.38137 15.6955 8.66202 15.8466 8.77716C16.1129 8.98585 16.1633 9.00024 16.7462 9.00024C18.0846 8.99305 18.7683 8.34539 18.6891 7.16522C18.6243 6.25851 18.1134 5.5317 17.4586 5.40216C17.329 5.37338 17.1779 5.3446 17.1204 5.3302C17.0628 5.32301 16.8685 5.3374 16.6958 5.37338ZM17.6097 5.86992C17.8616 5.98505 17.9479 6.0786 18.099 6.40243C18.4157 7.09326 18.4013 7.82727 18.063 8.12951C17.9479 8.23745 17.9191 8.22306 17.7032 7.99998C17.4874 7.7769 17.4154 7.46746 17.5953 7.50344C17.6313 7.50344 17.7896 7.52503 17.9479 7.53942C18.1926 7.55382 18.2358 7.53942 18.2358 7.41709C18.2358 7.30915 18.1638 7.25877 17.9479 7.2084C17.4226 7.09326 17.4226 7.10046 17.7176 6.84859C18.1998 6.42402 17.9911 6.18655 17.4802 6.58953C17.3362 6.70467 17.1923 6.78383 17.1635 6.75504C17.1419 6.73345 17.1204 6.56075 17.1204 6.37365C17.1204 6.01384 16.9836 5.74038 16.8397 5.82674C16.7821 5.86272 16.7605 6.03543 16.7677 6.32327C16.7821 6.58953 16.7533 6.76943 16.7102 6.78383C16.667 6.79822 16.5231 6.74785 16.3935 6.66869C16.2568 6.58233 16.0913 6.51757 16.0265 6.51757C15.7963 6.51757 15.8898 6.76943 16.1849 6.94934C16.3432 7.05009 16.4727 7.16522 16.4727 7.2084C16.4727 7.25158 16.3288 7.34513 16.1561 7.40989C15.8107 7.53942 15.6811 7.71933 15.8754 7.79129C15.9402 7.81288 16.1273 7.78409 16.3 7.71933C16.4727 7.65456 16.6166 7.62578 16.6166 7.65456C16.6166 7.68335 16.5375 7.83447 16.4367 7.99278C16.2208 8.34539 16.2064 8.53249 16.3935 8.53249C16.4799 8.53249 16.6022 8.41016 16.7174 8.21586C16.8253 8.03596 16.9333 7.87764 16.9692 7.85605C17.0052 7.83447 17.1851 7.9568 17.365 8.12231L17.696 8.43894L17.4946 8.5253C17.1707 8.68361 16.5375 8.7052 16.2424 8.58287C15.8466 8.41736 15.5372 7.89923 15.5372 7.41709C15.5372 7.2084 15.5732 6.93495 15.6164 6.79822C15.7099 6.52477 16.1129 6.06421 16.4367 5.86272C16.7174 5.68282 17.2139 5.69001 17.6097 5.86992ZM17.1779 7.29475C17.1995 7.43868 17.1779 7.46027 17.034 7.43868C16.9261 7.42429 16.8613 7.35952 16.8469 7.25158C16.8253 7.10765 16.8469 7.08607 16.9908 7.10765C17.0988 7.12205 17.1635 7.18681 17.1779 7.29475Z" fill="#C21807"/>
<path d="M3.23193 5.55326C2.9153 5.6684 2.51951 5.88429 2.41876 5.99942C2.1669 6.28007 1.99419 6.81259 1.98699 7.34511C1.9798 7.80566 2.00138 7.90641 2.19568 8.21584C2.50511 8.72677 3.06641 9.00022 3.76444 8.99303C4.13864 8.99303 4.35453 8.94985 4.57041 8.83471C4.959 8.63322 5.36919 8.15108 5.46993 7.78407C5.67862 7.02128 5.20367 6.08578 4.3977 5.6612C4.2178 5.56765 3.39744 5.4885 3.23193 5.55326ZM4.31855 6.05699C4.64237 6.2225 5.00938 6.71904 5.10293 7.09324C5.42675 8.45331 3.49818 9.21611 2.56268 8.1007C2.20288 7.67613 2.24605 6.7838 2.64904 6.29447C2.98726 5.89868 3.78603 5.77634 4.31855 6.05699Z" fill="#C21807"/>
<path d="M3.77892 6.19396C3.75733 6.25873 3.73574 6.40265 3.73574 6.51779C3.73574 6.63293 3.68537 6.77685 3.6206 6.84162C3.51266 6.94236 3.48387 6.92797 3.26079 6.62573C3.00173 6.28751 2.84341 6.22275 2.77145 6.41704C2.74267 6.4962 2.82183 6.63293 3.01612 6.82003C3.17444 6.97834 3.28238 7.13666 3.26079 7.17264C3.2392 7.20862 3.09528 7.23741 2.94416 7.23741C2.57716 7.23741 2.44043 7.29498 2.44043 7.46049C2.44043 7.57563 2.498 7.59721 2.83622 7.59721C3.28958 7.59721 3.31836 7.65478 3.04491 8.0074C2.94416 8.13693 2.88659 8.28085 2.90818 8.31683C2.99453 8.46075 3.21761 8.3816 3.37593 8.14412C3.59901 7.82749 3.77892 7.87067 3.83648 8.25206C3.87247 8.47515 3.91564 8.53271 4.03798 8.53271C4.1747 8.53271 4.1819 8.50393 4.14592 8.1801C4.12433 7.98581 4.11713 7.8131 4.13872 7.79871C4.15312 7.77712 4.31863 7.79871 4.49853 7.83469C4.76479 7.89945 4.83675 7.89226 4.88712 7.8131C4.96628 7.68357 4.84395 7.52525 4.67124 7.52525C4.25386 7.52525 4.20349 7.31656 4.5633 7.10068C4.82236 6.94956 4.88712 6.77685 4.71442 6.71209C4.66404 6.6905 4.48414 6.75526 4.31863 6.84881L4.01639 7.02152L4.03798 6.57536C4.05237 6.20836 4.03798 6.122 3.94443 6.10041C3.87966 6.09322 3.8077 6.1292 3.77892 6.19396ZM3.93003 7.4317C3.96602 7.53965 3.67097 7.6332 3.57742 7.53965C3.53425 7.49647 3.52705 7.4317 3.55583 7.38133C3.6206 7.28058 3.89405 7.31656 3.93003 7.4317Z" fill="#C21807"/>
</svg>
