<svg width="53" height="22" viewBox="0 0 53 22" fill="none" xmlns="http://www.w3.org/2000/svg">
<path d="M22.3869 0.0291538C30.3539 0.498825 31.6586 0.620592 32.2674 1.00329C32.8588 1.36859 34.6853 3.56038 36.564 6.13487L37.5729 7.52649L40.6345 7.63086C46.3575 7.8396 50.1149 8.63978 51.263 9.94442C51.7674 10.5359 51.7848 10.6054 51.7848 12.2406C51.7848 13.3887 51.8718 14.0845 52.0458 14.4324C52.3937 15.076 52.3763 15.3195 51.9588 16.6938C51.4891 18.1897 51.1586 18.4159 49.6626 18.2593L48.5493 18.155L48.0623 16.7286C47.3664 14.6933 46.775 13.5278 46.2879 13.1973C45.5052 12.6929 40.5475 12.9712 40.0257 13.5452C39.9213 13.6496 39.1907 14.7107 38.4079 15.8762L36.9815 17.981L29.258 17.894L21.552 17.7897L21.4302 18.155C21.2736 18.6594 20.3865 18.6768 20.0908 18.1897C19.969 17.9984 19.8124 17.8418 19.7603 17.8418C19.6907 17.8418 19.6037 17.9984 19.5515 18.1897C19.4297 18.642 18.6644 18.6594 18.3512 18.2071C18.2295 18.0332 17.8642 17.8244 17.5511 17.7549C17.0988 17.6679 16.9074 17.4765 16.5769 16.8155C16.0899 15.8936 14.2808 13.4061 13.7067 12.8842C13.3588 12.5885 13.0109 12.5363 11.3584 12.4841C10.2973 12.4493 9.11439 12.5015 8.74909 12.5711C8.08807 12.7103 8.01849 12.7972 7.23571 14.3628C6.55729 15.7022 6.41813 16.1197 6.50511 16.6068L6.60948 17.1982L5.14828 17.1112C3.47834 17.0243 2.33026 16.5546 2.13891 15.8936C1.89538 14.9716 2.03454 14.0497 2.48682 13.5104L2.93909 12.9712H1.98235C0.051487 12.9712 -0.209442 12.2232 0.121067 7.73523C0.364601 4.37796 0.451576 4.204 2.03454 4.13442C2.83472 4.09963 3.20002 4.15182 3.42616 4.36056C3.70448 4.62149 3.73927 4.5693 3.84364 3.73433C4.05238 2.20356 4.45247 0.898914 4.80038 0.603197C5.06131 0.394453 5.7919 0.307478 8.24463 0.220501C12.3499 0.0639458 20.9605 -0.0578213 22.3869 0.0291538ZM7.60101 1.12505L5.27005 1.22942L5.04391 1.97742C4.80038 2.82978 4.41768 6.10008 4.03499 10.5011C3.80885 13.2843 3.75666 13.5626 3.33918 14.0497C2.57379 14.9716 2.83472 15.7718 4.03499 16.0849C5.25265 16.4154 5.23526 16.4154 6.29636 14.2236C6.83562 13.093 7.44445 12.0666 7.65319 11.9275C8.24463 11.5622 12.7152 11.4578 13.5502 11.8057C14.3156 12.1188 15.8637 13.9453 16.8727 15.7022L17.6033 16.9547L24.0395 16.9721C27.5707 16.9721 31.8151 17.0243 33.4329 17.0939L36.4075 17.1982L37.7643 15.1804C38.5297 14.0671 39.3125 12.9886 39.5212 12.7972C40.0257 12.3276 41.626 12.0666 44.044 12.0492C46.688 12.0318 47.0533 12.2058 47.8361 13.8757C48.1666 14.5715 48.5841 15.5805 48.7581 16.1023C48.932 16.6242 49.1234 17.1112 49.1755 17.1634C49.2277 17.233 49.593 17.32 49.9931 17.3896L50.7063 17.4939L51.0716 16.398C51.4195 15.3891 51.4195 15.25 51.176 14.7803C51.002 14.4324 50.9151 13.754 50.9151 12.6233C50.9151 11.4404 50.8455 10.849 50.6541 10.588C49.9235 9.54433 45.5747 8.65718 40.217 8.46583L37.0859 8.36146L35.2594 5.92613C34.2505 4.5867 32.998 3.05592 32.4762 2.49927L31.5194 1.52514L30.0408 1.40338C22.8914 0.846729 15.5158 0.759752 7.60101 1.12505ZM1.33873 5.09116C1.14738 5.28251 0.83427 10.2923 0.938641 11.1969C1.04301 12.0145 1.40831 12.2232 2.43463 12.0318L3.00867 11.9275L3.23481 9.45736C3.35658 8.11793 3.49574 6.77849 3.54792 6.51757C3.60011 6.15227 3.54792 6.01311 3.35658 6.01311C3.20002 6.01311 3.02607 5.80436 2.97388 5.52604C2.9043 5.26511 2.81732 4.98679 2.76514 4.89981C2.67816 4.74326 1.51268 4.88242 1.33873 5.09116Z" fill="#C21807"/>
<path d="M22.3873 2.01212C23.4484 2.27304 23.605 2.65574 23.605 4.89972C23.605 7.70035 23.7789 7.57858 19.7085 7.57858C15.4988 7.57858 15.6902 7.71774 15.6902 4.72577C15.6902 1.80337 15.5336 1.94254 19.0474 1.89035C20.5434 1.87295 22.0568 1.92514 22.3873 2.01212ZM16.7687 2.88188C16.7165 2.93406 16.6469 3.78643 16.6121 4.79535L16.5599 6.62185H19.6041H22.6482L22.7004 4.9867C22.7526 3.19499 22.6482 2.95146 21.8133 2.82969C21.0827 2.72532 16.873 2.77751 16.7687 2.88188Z" fill="#C21807"/>
<path d="M11.5676 2.02967C12.9071 2.11665 14.003 2.25581 14.1421 2.37757C14.403 2.58632 14.3856 3.05599 14.003 5.57829C13.6898 7.68311 13.916 7.57874 9.81071 7.57874C5.35754 7.57874 5.42712 7.59614 5.44451 5.83922C5.46191 4.43021 5.98376 2.76027 6.5752 2.16883C6.9405 1.80353 7.49715 1.78614 11.5676 2.02967ZM6.97529 3.26473C6.60999 3.96054 6.2099 5.42173 6.2099 6.03057C6.2099 6.43066 6.29688 6.50024 6.85352 6.60461C7.21882 6.65679 8.73221 6.70898 10.2456 6.70898H12.9592L13.1506 5.43913C13.2724 4.76072 13.3941 3.94314 13.4463 3.64742L13.5333 3.09078L11.4806 2.98641C10.35 2.91682 9.23667 2.84724 8.99313 2.81245C7.51454 2.6385 7.27101 2.69069 6.97529 3.26473Z" fill="#C21807"/>
<path d="M31.1888 2.36013C32.0238 2.69064 34.7374 6.58717 34.7374 7.43953C34.7374 7.57869 34.5461 7.80483 34.3025 7.9266C33.9372 8.11794 33.224 8.13534 30.1277 7.94399C28.0576 7.83962 26.2659 7.70046 26.1442 7.64827C25.6919 7.47432 25.5179 6.67414 25.5179 4.83025C25.5179 2.13399 25.4484 2.18618 28.4403 2.20357C29.745 2.20357 30.98 2.27316 31.1888 2.36013ZM26.4225 4.86504C26.4051 5.82178 26.4573 6.67414 26.5443 6.76112C26.7182 6.93507 26.8748 6.95247 31.1366 7.14381L33.7285 7.28297L33.4328 6.69154C32.8587 5.57824 31.989 4.30839 31.3453 3.68217L30.7191 3.03854L28.5969 3.09073L26.4747 3.14292L26.4225 4.86504Z" fill="#C21807"/>
<path d="M19.6908 10.3622C23.0829 10.4492 23.3438 10.4665 23.396 10.7797C23.4656 11.0928 23.3264 11.1102 19.656 11.0232C17.5512 10.971 15.7421 10.884 15.6203 10.8145C15.4638 10.7101 15.4638 10.6231 15.6203 10.4318C15.7247 10.2926 15.8639 10.2056 15.9335 10.223C15.9856 10.2404 17.673 10.31 19.6908 10.3622Z" fill="#C21807"/>
<path d="M14.0893 10.3097C14.1589 10.3618 14.211 10.5184 14.211 10.6576C14.211 10.8489 13.4283 10.8837 9.91442 10.8489C5.96571 10.7967 5.60041 10.7793 5.54822 10.4836C5.49604 10.2053 5.79176 10.1879 9.74047 10.1879C12.0714 10.1879 14.0371 10.2401 14.0893 10.3097Z" fill="#C21807"/>
<path d="M34.9637 10.6057C35.0159 10.7448 34.9463 10.9014 34.8072 10.9536C34.2853 11.1623 25.7269 11.0753 25.5877 10.8666C25.3442 10.4491 26.1096 10.3621 30.4062 10.3621C34.1114 10.3621 34.8941 10.3969 34.9637 10.6057Z" fill="#C21807"/>
<path d="M37.3122 10.8317C37.2426 11.1796 36.5294 11.3187 36.1467 11.0752C35.764 10.8317 36.0945 10.536 36.7555 10.536C37.2426 10.536 37.3644 10.6055 37.3122 10.8317Z" fill="#C21807"/>
<path d="M47.5233 10.8665C48.2713 10.9361 48.567 11.0404 48.567 11.2144C48.567 11.4405 47.8016 11.4579 43.3484 11.4231C40.4782 11.4057 38.0951 11.3536 38.0603 11.3188C38.0255 11.284 38.0429 11.1274 38.0951 10.9709C38.1995 10.7447 38.7561 10.7099 42.3395 10.7447C44.6183 10.7621 46.9492 10.8143 47.5233 10.8665Z" fill="#C21807"/>
<path d="M11.9328 12.9887C13.9506 13.3714 15.377 15.1979 15.551 17.5636C15.6206 18.6769 15.5858 18.903 15.1335 19.738C14.8726 20.2599 14.3507 20.9383 13.9854 21.2166C13.3418 21.7211 13.22 21.7559 11.811 21.7559C8.57549 21.7385 6.92295 20.1729 7.1143 17.3201C7.27085 15.1283 8.50591 13.3714 10.0889 13.0583C10.402 12.9887 10.7673 12.9191 10.9064 12.8843C11.0456 12.8669 11.5153 12.9017 11.9328 12.9887ZM9.72358 14.1889C9.11474 14.4673 8.906 14.6934 8.5407 15.4762C7.77531 17.1461 7.8101 18.9204 8.62768 19.651C8.906 19.912 8.97558 19.8772 9.49744 19.3379C10.0193 18.7987 10.1932 18.0507 9.75837 18.1377C9.67139 18.1377 9.2887 18.1898 8.906 18.2246C8.31456 18.2594 8.21019 18.2246 8.21019 17.9289C8.21019 17.668 8.38415 17.5462 8.906 17.4245C10.1759 17.1461 10.1759 17.1635 9.46265 16.5547C8.29717 15.5284 8.80163 14.9543 10.0367 15.9285C10.3846 16.2068 10.7325 16.3981 10.8021 16.3286C10.8543 16.2764 10.9064 15.8589 10.9064 15.4066C10.9064 14.5368 11.237 13.8758 11.5849 14.0846C11.724 14.1715 11.7762 14.589 11.7588 15.2848C11.724 15.9285 11.7936 16.3633 11.898 16.3981C12.0023 16.4329 12.3503 16.3112 12.6634 16.1198C12.9939 15.9111 13.394 15.7545 13.5505 15.7545C14.1072 15.7545 13.881 16.3633 13.1678 16.7982C12.7851 17.0418 12.472 17.3201 12.472 17.4245C12.472 17.5288 12.8199 17.755 13.2374 17.9115C14.0724 18.2246 14.3855 18.6595 13.9158 18.8335C13.7593 18.8857 13.307 18.8161 12.8895 18.6595C12.472 18.503 12.1241 18.4334 12.1241 18.503C12.1241 18.5725 12.3155 18.9378 12.559 19.3205C13.0809 20.1729 13.1156 20.6252 12.6634 20.6252C12.4546 20.6252 12.1589 20.3295 11.8806 19.8598C11.6197 19.4249 11.3587 19.0422 11.2717 18.99C11.1848 18.9378 10.7499 19.2336 10.315 19.6336L9.51483 20.399L10.0019 20.6078C10.7847 20.9905 12.3155 21.0427 13.0287 20.7469C13.9854 20.3468 14.7334 19.0944 14.7334 17.9289C14.7334 17.4245 14.6464 16.7634 14.542 16.4329C14.3159 15.7719 13.3418 14.6586 12.559 14.1715C11.8806 13.7367 10.6803 13.7541 9.72358 14.1889ZM10.7673 17.6332C10.7151 17.9811 10.7673 18.0333 11.1152 17.9811C11.3761 17.9463 11.5327 17.7898 11.5675 17.5288C11.6197 17.1809 11.5675 17.1287 11.2196 17.1809C10.9586 17.2157 10.8021 17.3723 10.7673 17.6332Z" fill="#C21807"/>
<path d="M44.4792 13.4235C45.2445 13.7018 46.2013 14.2237 46.4448 14.502C47.0536 15.1804 47.4711 16.4677 47.4885 17.7549C47.5059 18.8682 47.4537 19.1118 46.9841 19.8598C46.2361 21.0948 44.8792 21.7558 43.1919 21.7384C42.2874 21.7384 41.7655 21.6341 41.2436 21.3557C40.3043 20.8687 39.3128 19.7032 39.0692 18.816C38.5648 16.9721 39.7129 14.7108 41.6611 13.6845C42.096 13.4583 44.0791 13.267 44.4792 13.4235ZM41.8525 14.6412C41.0697 15.0413 40.1825 16.2415 39.9564 17.1461C39.1736 20.4338 43.8355 22.2777 46.0969 19.5814C46.9667 18.5551 46.8623 16.3981 45.8882 15.2152C45.0706 14.2585 43.1397 13.9628 41.8525 14.6412Z" fill="#C21807"/>
<path d="M43.1567 14.9716C43.2089 15.1281 43.2611 15.476 43.2611 15.7543C43.2611 16.0327 43.3828 16.3806 43.5394 16.5371C43.8003 16.7807 43.8699 16.7459 44.4091 16.0153C45.0354 15.1977 45.4181 15.0411 45.592 15.5108C45.6616 15.7022 45.4702 16.0327 45.0006 16.4849C44.6179 16.8676 44.357 17.2503 44.4091 17.3373C44.4613 17.4243 44.8092 17.4939 45.1745 17.4939C46.0617 17.4939 46.3922 17.633 46.3922 18.0331C46.3922 18.3114 46.253 18.3636 45.4355 18.3636C44.3396 18.3636 44.27 18.5028 44.931 19.3551C45.1745 19.6683 45.3137 20.0162 45.2615 20.1031C45.0528 20.451 44.5135 20.2597 44.1308 19.6857C43.5916 18.9203 43.1567 19.0246 43.0175 19.9466C42.9305 20.4858 42.8262 20.625 42.5305 20.625C42.1999 20.625 42.1825 20.5554 42.2695 19.7726C42.3217 19.303 42.3391 18.8855 42.2869 18.8507C42.2521 18.7985 41.852 18.8507 41.4172 18.9377C40.7735 19.0942 40.5996 19.0768 40.4778 18.8855C40.2865 18.5724 40.5822 18.1897 40.9997 18.1897C42.0086 18.1897 42.1304 17.6852 41.2606 17.1634C40.6344 16.7981 40.4778 16.3806 40.8953 16.224C41.0171 16.1718 41.452 16.3284 41.852 16.5545L42.5826 16.972L42.5305 15.8935C42.4957 15.0063 42.5305 14.7976 42.7566 14.7454C42.9131 14.728 43.0871 14.815 43.1567 14.9716ZM42.7914 17.9635C42.7044 18.2245 43.4176 18.4506 43.6437 18.2245C43.7481 18.1201 43.7655 17.9635 43.6959 17.8418C43.5394 17.5982 42.8784 17.6852 42.7914 17.9635Z" fill="#C21807"/>
</svg>
