<svg width="84" height="30" viewBox="0 0 84 30" fill="none" xmlns="http://www.w3.org/2000/svg">
<path d="M45.4125 20.9886C45.1983 21.0097 45.0007 21.0944 44.7828 21.1066C44.4894 21.123 44.1883 21.1012 43.8937 21.1054C43.2437 21.1145 42.6068 21.0494 41.9594 21.0025C40.7741 20.9165 39.5806 20.8858 38.3926 20.7986C37.2683 20.7161 36.1489 20.6797 35.0229 20.739C34.4015 20.7718 33.785 20.8319 33.1627 20.7894C32.6733 20.7559 31.879 20.7473 31.4581 20.4331C31.3741 20.3703 31.271 20.5046 31.356 20.5693C31.6752 20.8126 32.0855 20.8267 32.4577 20.8942C33.0232 20.9968 33.5926 21.0266 34.1642 20.9992C35.509 20.9348 36.8326 20.9247 38.1766 21.0303C39.3696 21.1239 40.5731 21.3048 41.77 21.268C42.42 21.2479 43.0787 21.3904 43.7329 21.3883C44.0372 21.3873 44.3412 21.3817 44.6454 21.3834C44.9241 21.3852 45.1653 21.2962 45.4349 21.2791C45.6025 21.2685 45.5797 20.972 45.4125 20.9886Z" fill="#C21807"/>
<path d="M27.0905 15.0832C27.3917 15.4539 27.5134 16.1093 27.592 16.583C27.7784 17.7066 27.7834 18.8632 27.9564 19.9894C27.9913 20.2166 28.2717 20.1877 28.2728 19.9583C28.2756 19.2938 28.179 18.6265 28.1393 17.9634C28.1038 17.3707 28.1103 16.7773 28.0439 16.1869C27.9896 15.7049 27.8587 15.2455 27.6555 14.818C27.4182 14.319 26.9224 14.1268 26.4837 13.9359C25.3624 13.4481 24.3106 12.7862 23.1855 12.3039C22.7845 12.132 22.384 11.9614 21.9794 11.8022C22.1059 11.7807 22.2323 11.757 22.3585 11.7401C22.5276 11.7176 22.6972 11.6992 22.867 11.6818C22.8558 11.6846 22.846 11.6874 22.8342 11.6902C22.6496 11.7315 22.673 12.0613 22.8598 12.02C23.0483 11.9785 23.1785 11.9089 23.3369 11.7875C23.4817 11.6766 23.5439 11.4446 23.6737 11.3152C23.7171 11.3279 23.7593 11.2911 23.7714 11.2444C24.1015 11.0884 24.0951 10.8068 24.305 10.5101C24.6786 9.98212 24.4735 9.37621 23.8083 9.56475C23.2262 9.72957 22.6272 9.63312 22.0331 9.58498C21.4326 9.53632 20.8336 9.49255 20.2312 9.50475C19.5771 9.51801 18.9238 9.64952 18.2757 9.74091C17.9791 9.78277 17.6815 9.81416 17.3835 9.83893C17.0297 9.86841 16.5986 9.98474 16.3129 9.67812C16.2821 9.64516 16.2482 9.64952 16.2231 9.67062C16.1531 9.64411 16.0784 9.62562 16.0008 9.61743C15.9591 9.61307 15.9258 9.62998 15.9026 9.65684C15.5788 9.6312 15.34 9.46655 14.9926 9.57504C14.7244 9.65876 14.4037 9.74353 14.1828 9.94376C13.7867 10.3027 14.3346 10.7715 14.6295 10.8364C15.045 10.928 15.5081 10.8223 15.9219 10.7705C16.0857 10.7499 16.5106 10.8038 16.6053 10.5661C16.6515 10.4501 16.6696 10.3421 16.6655 10.2431C17.1237 10.2832 17.5676 10.3845 18.0366 10.3732C18.6714 10.358 19.2946 10.3997 19.928 10.441C20.5162 10.4796 21.1045 10.5268 21.6928 10.5598C22.2688 10.5921 22.8259 10.7459 23.3976 10.7776C23.491 10.7829 23.5231 10.6282 23.4247 10.6123C22.9006 10.5273 22.4006 10.4065 21.8698 10.3807C21.1722 10.3468 20.4748 10.3044 19.7772 10.2673C19.247 10.239 18.7283 10.1988 18.1974 10.2225C17.6688 10.2462 17.1643 10.1485 16.6467 10.1156C16.6427 10.0997 16.6383 10.084 16.633 10.0688C16.697 10.0817 16.764 10.088 16.8355 10.0868C17.3233 10.0786 17.8105 10.0559 18.297 10.014C19.364 9.92195 20.3749 9.79114 21.4487 9.88585C21.9178 9.92736 22.3857 9.98195 22.8552 10.0179C23.2661 10.0495 23.6021 9.99765 24.0023 9.92719C24.3231 9.87068 23.9675 10.3906 23.939 10.4367C23.8709 10.5467 23.8391 10.6477 23.8164 10.7776C23.8014 10.864 23.6342 10.9512 23.5195 11.0211C23.294 10.9575 23.0246 11.0112 22.8057 10.9843C22.2316 10.9142 21.6493 10.9404 21.0731 10.9233C20.4314 10.9043 19.7912 10.8376 19.149 10.8209C18.8071 10.812 18.4616 10.8136 18.1208 10.8441C17.9531 10.8591 17.7912 10.894 17.6283 10.9208C17.2807 10.91 16.929 10.9093 16.5702 10.9126C15.1893 10.9255 13.8413 10.8662 12.4632 11.0311C11.8168 11.1083 11.1735 11.2152 10.5274 11.2937C9.87822 11.3724 9.22931 11.3263 8.58103 11.4399C7.50778 11.6279 6.42674 11.9562 5.69272 12.9008C5.64821 12.8786 5.6034 12.8849 5.5564 12.9128C5.39799 13.0068 5.25218 13.1274 5.11804 13.2678C5.08801 13.2406 5.04164 13.2336 5.00771 13.2742C4.73648 13.5979 4.54181 13.9689 4.35663 14.3591C4.16896 14.7545 3.94597 15.1344 3.77573 15.539C3.61701 15.9159 3.65933 16.3574 3.95219 16.5776C3.9676 16.5947 3.98659 16.6073 4.00713 16.6144C4.04416 16.6366 4.08369 16.6566 4.12757 16.672C4.14718 16.679 4.16709 16.6818 4.18701 16.6856C4.07762 16.7569 3.96511 16.8271 3.84996 16.9177C3.6847 17.0475 3.66665 17.2959 3.70041 17.4949C3.73807 17.7164 3.7944 17.9006 3.79207 18.1348C3.79005 18.338 3.78787 18.5327 3.83331 18.7315C3.92232 19.1208 3.90971 19.4815 4.07731 19.8396C4.13691 19.9669 4.2144 20.1139 4.29065 20.2651C4.22918 20.2482 4.16523 20.2388 4.10065 20.236C3.67349 20.2172 3.28913 20.3253 2.88501 20.4425C2.82401 20.4601 2.84828 20.5697 2.90897 20.562C3.32912 20.5083 4.20475 20.2909 4.38916 20.8663C4.50851 21.2389 4.44284 21.7075 4.45031 22.0965C4.45389 22.2817 4.73088 22.2986 4.74286 22.112C4.75982 21.845 4.80293 21.5544 4.80308 21.2722C4.80557 21.2792 4.80697 21.2861 4.81133 21.293C4.83794 21.3348 4.89069 21.3446 4.92819 21.3153C5.02 21.2434 5.06529 21.1459 5.05175 21.0202C5.04148 20.9237 4.91092 20.9117 4.89676 21.012C4.88945 21.0646 4.86735 21.1255 4.83125 21.1621C4.8174 21.1761 4.80806 21.1934 4.80215 21.2113C4.79639 20.9586 4.75204 20.7142 4.61775 20.5015C4.61137 20.4913 4.60405 20.483 4.59721 20.4735C4.53325 20.2186 4.44082 19.9609 4.3711 19.7171C4.29625 19.455 4.35367 19.2099 4.33033 18.9478C4.30543 18.6673 4.25408 18.4507 4.27634 18.1608C4.2891 17.9951 4.31259 17.8123 4.27758 17.6492C4.23276 17.4403 4.14313 17.3079 4.34496 17.1769C4.51162 17.0688 4.65121 16.9235 4.77741 16.7637C4.76387 16.8284 4.74986 16.8928 4.73819 16.9598C4.5762 17.8901 4.80526 18.7392 4.84681 19.6604C4.84868 19.7016 4.9103 19.7059 4.91232 19.6639C4.94905 18.885 4.76573 18.1324 4.85303 17.3442C4.89085 17.0022 4.95901 16.6694 5.06918 16.3497C5.18324 16.1765 5.29046 16.007 5.38958 15.8369C5.45463 15.7542 5.51734 15.6695 5.57772 15.5829C5.47222 15.8376 5.35893 16.0884 5.24969 16.3413C5.2223 16.4046 5.24035 16.4761 5.28501 16.522C5.39876 16.639 5.48933 16.6664 5.64432 16.6478C5.82079 16.6265 5.79744 16.3218 5.62036 16.3401C5.59764 16.3329 5.57476 16.326 5.55189 16.3188C5.74174 15.8231 5.93827 15.3375 6.07661 14.8192C6.10991 14.7679 6.14275 14.7165 6.17698 14.6659C6.21869 14.6041 6.1927 14.5361 6.14788 14.5049C6.24218 13.9541 6.16889 13.475 6.1818 12.9011C6.18274 12.861 6.16391 12.838 6.13948 12.8286C6.99441 12.2514 7.96854 12.0807 8.96804 11.9459C9.55936 11.8662 10.1594 11.9241 10.7524 11.8613C11.3987 11.7931 12.042 11.6849 12.6878 11.6092C13.9444 11.462 15.1767 11.5205 16.4356 11.5224C17.0796 11.5234 17.7268 11.4901 18.37 11.5374C19.0399 11.5867 19.6995 11.772 20.3592 11.901C20.5131 11.931 20.6041 11.8243 20.621 11.6987C20.9183 11.8217 21.2136 11.9858 21.4878 12.1079C21.9869 12.3301 22.4819 12.5652 22.9775 12.7972C23.932 13.2439 24.8341 13.7941 25.7639 14.2987C26.1917 14.5323 26.761 14.6776 27.0905 15.0832ZM16.3598 10.4466C16.2155 10.4759 16.0459 10.4555 15.8982 10.4703C15.4862 10.5116 15.0895 10.595 14.6732 10.569C14.3818 10.5509 14.2226 10.1476 14.5256 10.0045C14.6529 9.94445 14.7839 9.8923 14.9126 9.83632C15.2675 9.68179 15.5504 9.80754 15.8855 9.82916C15.9006 9.85219 15.9242 9.86963 15.9584 9.87521C15.9939 9.88114 16.0294 9.8869 16.0649 9.89265C16.3136 9.91254 16.4117 10.0971 16.3598 10.4466ZM5.6216 13.2341C5.95975 13.6813 5.50878 14.9034 5.3387 15.2742C5.18573 15.6075 4.94718 15.9047 4.72777 16.1903C4.68248 16.2302 4.6372 16.2705 4.58943 16.3073C4.46089 16.406 4.30357 16.4782 4.15449 16.4374C4.24615 15.2861 4.72761 13.8876 5.6216 13.2341ZM4.10143 15.2632C4.11963 15.2263 4.13722 15.1886 4.15527 15.1513C4.04868 15.5355 3.97663 15.9217 3.93695 16.275C3.7429 15.9876 3.96698 15.5362 4.10143 15.2632ZM6.0584 13.6155C6.07754 13.9776 5.97857 14.3465 5.88863 14.6894C5.88443 14.7051 5.87945 14.7205 5.87525 14.7362C5.86793 14.7465 5.86062 14.7571 5.85331 14.7676C5.89439 14.6191 5.92987 14.4656 5.95399 14.3008C6.0083 13.9316 6.05592 13.379 5.83915 13.0513C5.9003 13.0009 5.96239 12.9533 6.02511 12.9078C6.02464 12.9111 6.02324 12.9137 6.02308 12.9172C6.01343 13.1549 6.0458 13.3792 6.0584 13.6155ZM21.4965 11.6192C21.1003 11.4758 20.6254 11.2458 20.197 11.3063C19.6195 11.1282 19.05 11.0283 18.4753 10.9735C18.5279 10.9707 18.5804 10.9686 18.633 10.9688C19.2711 10.9697 19.9094 11.0087 20.5459 11.0565C21.0683 11.0958 21.5899 11.1019 22.1132 11.1155C22.4209 11.1235 22.7224 11.1664 23.0285 11.1868C23.1315 11.1936 23.242 11.1765 23.3483 11.1804C23.2868 11.2754 23.2803 11.3656 23.2436 11.4469C22.6845 11.4704 22.1243 11.6331 21.5695 11.6469C21.5452 11.6377 21.521 11.6279 21.4965 11.6192Z" fill="#C21807"/>
<path d="M83.0942 22.184C83.0715 21.6308 83.1285 21.0866 83.0362 20.5381C82.9864 20.2419 83.0591 19.6848 82.7791 19.5026C82.6262 19.403 82.5334 19.3974 82.3574 19.4337C82.121 19.4825 81.8602 19.3328 81.6276 19.2994C81.4704 19.2767 81.3066 19.2861 81.15 19.326C81.1531 19.2711 81.1497 19.2218 81.136 19.1818C81.0889 19.044 81.0629 19.021 80.9511 18.9443C80.6128 18.7119 80.6762 18.6786 80.5263 18.3758C80.3972 18.1151 80.2143 18.0652 79.9985 18.0636C79.9901 18.0193 79.9814 17.9745 79.9716 17.9285C79.9177 17.6766 79.8166 17.4425 79.7537 17.1919C79.5072 16.2098 78.8893 15.4528 78.2527 14.756C77.5364 13.972 76.8189 13.2128 76.0066 12.5559C75.6087 12.2342 75.2556 11.8555 74.834 11.5702C74.4523 11.3118 74.0835 10.944 73.6596 10.7769C72.6833 10.3923 71.8307 9.71159 70.8392 9.34531C69.7799 8.95393 68.7745 8.39946 67.7302 7.95871C65.7612 7.1278 63.7717 6.47775 61.7326 5.92276C61.8053 5.31929 61.6437 4.64186 61.2889 4.30384C60.4125 3.46857 58.8742 3.84757 57.8902 4.15262C56.4633 4.59494 54.9032 4.66174 53.4352 4.81976C51.9037 4.98458 50.3687 5.03063 48.835 5.15255C48.3534 5.19074 47.8741 5.25161 47.3971 5.33481C47.1248 5.38225 46.8586 5.37615 46.594 5.47295C46.418 5.53731 46.2431 5.71608 46.191 5.91788C46.1765 5.97387 46.1698 6.0241 46.1681 6.07084C46.0713 6.13782 46.0194 6.28555 46.0973 6.40136C45.8591 6.16852 45.5586 5.99079 45.2662 6.0166C44.6543 6.07067 44.2855 6.78089 43.6352 6.69229C43.3732 6.65653 43.1276 6.71199 42.867 6.73502C42.4941 6.76798 42.104 6.73432 41.7304 6.72472C40.9036 6.70327 40.0943 6.60072 39.2652 6.64135C38.4854 6.67955 37.7097 6.76781 36.9283 6.76501C36.0806 6.76205 35.2357 6.66682 34.3873 6.67606C34.1457 6.67868 33.9074 6.66752 33.6703 6.65426C33.6196 6.50636 33.5296 6.39246 33.4269 6.26671C33.1585 5.93829 32.9996 5.49632 32.8294 5.09865C32.6885 4.76953 32.6734 4.07222 32.2626 4.01937C31.8229 3.96269 31.6386 4.53442 31.793 4.89842C31.9198 5.19737 32.1472 5.42324 32.2782 5.7241C32.4035 6.01171 32.525 6.3656 32.7039 6.61537C32.489 6.61572 32.2732 6.62548 32.0547 6.65479C31.4158 6.74042 30.7135 6.33909 30.172 5.90846C30.1852 5.52859 30.3761 5.24254 30.5987 4.92842C30.8408 4.58674 31.0632 4.22937 31.2762 3.86414C31.6858 3.16177 32.0051 2.40899 32.3603 1.67244C32.4466 1.49366 32.9629 0.872572 32.8736 0.632402C32.7803 0.381942 32.5668 0.324559 32.3625 0.384733C32.3491 0.360489 32.3306 0.34043 32.3057 0.330837C31.8453 0.154678 31.2119 -0.209849 30.7479 0.159214C30.5901 0.284618 30.554 0.561763 30.4477 0.730771C30.2638 1.02327 30.0728 1.28995 29.9118 1.6011C29.5646 2.27191 29.2554 2.9652 28.858 3.60217C28.5892 4.0328 28.178 4.63471 27.7105 4.99749C27.6819 4.98703 27.6515 4.97918 27.6181 4.97778C26.9257 4.94726 26.2295 5.06412 25.5425 4.99924C24.8217 4.93104 24.0858 4.93017 23.3625 4.91883C22.6578 4.90784 21.9553 5.00203 21.2489 4.99331C20.4859 4.98389 19.7296 4.99017 18.9674 5.03796C17.4588 5.13266 15.9422 5.16667 14.4317 5.21603C12.8906 5.26626 11.3543 5.44696 9.82476 5.65591C9.79115 5.66044 9.75785 5.6648 9.72439 5.66934C9.6483 5.56574 9.55026 5.47975 9.43884 5.40161C9.25351 5.27167 9.01589 5.22859 8.77049 5.22528C8.538 5.09935 8.26771 5.04284 8.01811 5.0458C7.57165 5.05104 7.13687 5.15307 6.69509 5.21377C6.22405 5.27865 5.7513 5.30743 5.28385 5.40388C4.95737 5.47138 4.34037 5.57934 4.23191 6.01294C4.19316 6.16799 4.22272 6.30125 4.28481 6.42578C4.28746 6.47392 4.30037 6.52118 4.32979 6.56287C4.40168 6.66455 4.49162 6.74112 4.5839 6.80845C4.62919 6.85065 4.67494 6.89216 4.71742 6.93472C4.86416 7.08228 4.9734 7.27693 5.06801 7.4768C5.06179 7.53558 5.04669 7.60169 5.02351 7.67477C4.57954 8.28278 4.28388 9.01724 4.05996 9.80263C3.22634 12.7272 2.99961 15.6987 3.07602 18.7426C2.82191 18.3404 2.14842 18.251 1.85836 18.5893C1.78071 18.6798 1.75783 18.84 1.7306 18.9566C1.70819 19.052 1.24182 18.811 1.16075 18.7862C0.817778 18.6816 0.461892 18.8516 0.260374 19.1625C0.0302238 19.5177 0.0618133 20.0476 0.0568337 20.4629C0.0499868 21.046 -0.0724784 21.6152 0.0647715 22.1872C0.249327 22.9558 1.39027 23.0756 1.86956 22.653C1.87796 22.6457 1.88341 22.6371 1.88994 22.629C2.05785 22.8897 2.38572 23.0284 2.68154 22.9223C3.17437 22.7458 3.23599 22.2104 3.31597 21.711C3.41914 21.8118 3.5164 21.9648 3.64634 22.0035C3.69396 22.0176 3.73831 22.025 3.78094 22.0277C3.85704 22.2376 3.88909 22.4863 3.94247 22.6663C4.10306 23.207 4.69361 23.3067 5.12668 23.3503C5.162 23.3538 5.19328 23.3474 5.22113 23.335C5.38095 23.651 5.43946 23.9803 5.84498 24.0527C6.35337 24.1434 6.70878 23.9726 7.18667 23.8431C7.21017 23.8366 7.22931 23.8209 7.24627 23.8024C7.27957 23.9451 7.32159 24.0865 7.37216 24.2273C7.36687 24.2986 7.36329 24.37 7.36376 24.4418C7.36453 24.551 7.44623 24.6035 7.52652 24.5979C7.56994 24.6893 7.6174 24.7809 7.66907 24.8726C7.92474 25.3266 8.03678 25.8483 8.31081 26.2957C8.46191 26.5423 8.64569 26.7649 8.843 26.9707C8.84363 26.9717 8.84425 26.9729 8.84487 26.974C8.99846 27.2246 9.1964 27.4184 9.43993 27.5223C10.1414 28.1082 10.8919 28.5118 11.7386 28.7944C13.6519 29.4331 15.8751 29.0357 17.5329 27.8073C17.9379 27.5072 18.2821 27.1255 18.6024 26.7197C18.926 26.3095 19.2903 25.9169 19.5452 25.447C19.6195 25.3101 19.6884 25.1711 19.7525 25.0301C19.9948 25.0387 20.2347 25.0512 20.4756 25.0094C20.5671 24.9935 20.6608 24.9494 20.7425 24.8876C20.8741 24.8857 21.0066 24.8936 21.1521 24.9211C21.3782 24.9639 21.4288 24.6026 21.2153 24.5357C21.156 24.517 21.0919 24.4905 21.026 24.4612C21.3802 24.5391 21.7593 24.5228 22.1153 24.5472C22.5261 24.5754 22.9304 24.6169 23.3428 24.6208C24.3172 24.6297 25.2805 24.6162 26.2538 24.7003C27.2041 24.7825 28.1643 24.7863 29.1115 24.8941C30.048 25.0007 30.985 25.0075 31.9256 25.0106C32.1649 25.0115 32.4165 24.9879 32.6521 25.0443C32.8052 25.0809 32.9515 25.1353 33.1085 25.0905C33.5184 24.9736 33.8082 24.6665 34.2487 24.6234C35.0966 24.5404 35.9615 24.6269 36.8094 24.6173C37.0435 24.6147 37.2693 24.5351 37.5013 24.513C37.7164 24.4924 37.9241 24.4997 38.1387 24.4589C38.4053 24.4082 38.6069 24.3435 38.7828 24.1038C38.7988 24.082 38.8088 24.0583 38.8144 24.034C40.4005 24.0782 41.9882 24.1043 43.5745 24.0991C44.4008 24.0963 45.2251 24.0128 46.0503 23.9751C46.2132 23.9676 46.3762 23.9639 46.5393 23.9597C48.0845 23.9915 49.6415 24.0344 51.1765 24.1832C52.0504 24.2678 52.8906 24.3119 53.7682 24.2519C53.915 24.2418 54.0622 24.2301 54.2097 24.2177C54.5617 24.236 54.9078 24.3101 55.2588 24.322C55.6703 24.3358 55.9984 24.2006 56.3816 24.0501C56.45 24.0232 56.4838 23.9671 56.4911 23.9062C56.6973 24.1001 56.9418 24.2632 57.1352 24.3806C57.2553 24.4535 57.3891 24.5043 57.5308 24.5405C57.846 25.0959 57.9411 25.8269 58.2811 26.3775C58.4752 26.6916 58.7674 26.9288 58.9963 27.2082C59.2302 27.4936 59.4191 27.8187 59.66 28.0988C60.1651 28.6862 60.7613 28.9142 61.457 29.0562C62.2323 29.2142 62.9515 29.3619 63.7451 29.3628C65.2096 29.3645 66.6797 29.2093 67.8306 28.0826C68.3284 27.5952 68.7968 27.1447 69.1137 26.4851C69.2558 26.1895 69.347 25.8556 69.376 25.5225C69.4047 25.192 69.4544 24.8585 69.4676 24.5271C70.2577 24.5165 71.0573 24.4589 71.8452 24.4014C72.2196 24.374 72.5825 24.3274 72.9585 24.3344C73.3422 24.3414 73.6581 24.1539 74.02 24.0471C74.1249 24.0161 74.1764 23.9345 74.1879 23.8424C74.3823 23.7895 74.577 23.7558 74.7917 23.7497C75.4734 23.7304 76.1717 23.8056 76.8528 23.8406C77.5319 23.8755 78.2049 23.9713 78.8849 23.9826C79.3963 23.9911 79.7976 23.9869 80.2017 23.5997C80.2496 23.5539 80.2778 23.4944 80.291 23.4314C80.5441 23.4466 80.8824 23.5207 81.0987 23.355C81.19 23.2849 81.3794 22.9375 81.4511 22.9221C81.6635 22.8766 81.8764 22.9712 82.0655 23.0657C82.7471 23.4067 83.1238 22.9054 83.0942 22.184ZM81.0977 22.7275C81.07 22.7861 81.0408 22.8342 81.0103 22.8754C80.8198 23.0203 80.5811 23.0775 80.3464 23.027C80.5034 22.6942 80.4758 22.3542 80.432 21.8593C80.4059 21.5636 80.3942 21.2664 80.3836 20.9692C80.5091 20.9741 80.6345 20.9795 80.7604 20.9772C80.9163 20.9746 81.0633 20.8974 81.2179 20.8886C81.2832 21.3327 81.4419 21.7574 81.3791 22.2142C81.3624 22.3352 81.3276 22.4442 81.2804 22.5417C81.2042 22.5827 81.1368 22.6448 81.0977 22.7275ZM81.1032 19.5763C81.2569 19.5578 81.4124 19.5868 81.5663 19.6356C81.504 19.6894 81.477 19.802 81.5515 19.8824C81.5602 19.8919 81.568 19.902 81.5756 19.9121C81.3795 19.9791 81.0867 20.154 81.1916 20.4006C81.205 20.432 81.2207 20.4594 81.2378 20.484C80.9985 20.5684 80.7579 20.6439 80.5097 20.6715C80.4641 20.6727 80.4185 20.6727 80.3727 20.6729C80.3724 20.6657 80.3723 20.6586 80.372 20.6516C80.629 20.6235 80.7686 20.4205 80.8789 20.1655C80.9329 20.0406 81.0406 19.7999 81.1032 19.5763ZM81.6447 20.1156C81.6421 20.1599 81.6284 20.2046 81.5996 20.2477C81.5389 20.3382 81.4782 20.3364 81.4265 20.2785C81.4683 20.2206 81.5583 20.1545 81.6447 20.1156ZM80.3331 18.4906C80.3718 18.5806 80.3849 18.6959 80.4095 18.7918C80.4417 18.9176 80.5321 19.0806 80.6413 19.1375C80.8327 19.2373 80.8419 19.3465 80.8019 19.4808C80.7518 19.5142 80.7034 19.5507 80.6592 19.5933C80.6002 19.6501 80.6468 19.748 80.7107 19.7358C80.7098 19.7387 80.7089 19.7413 80.7079 19.7443C80.6461 19.9426 80.5697 20.2546 80.3684 20.3309C80.3782 20.1643 80.406 20.0021 80.4154 19.8395C80.5097 19.8444 80.6051 19.775 80.587 19.641C80.5363 19.2645 80.393 18.9744 80.1971 18.6683C80.118 18.5447 80.0758 18.4191 80.0447 18.2883C80.1622 18.3015 80.2721 18.3486 80.3331 18.4906ZM67.378 8.32498C68.3684 8.75335 69.316 9.3127 70.313 9.71438C71.2537 10.0934 72.0982 10.5828 72.9855 11.0926C73.174 11.2009 73.3724 11.2665 73.5711 11.3452C73.7983 11.4352 73.9925 11.6577 74.1851 11.8149C74.5546 12.1164 74.9493 12.3426 75.3052 12.6751C75.6647 13.011 76.0595 13.2951 76.4255 13.6218C76.5683 13.7493 76.704 13.8881 76.8366 14.0312C76.6359 14.1569 76.4319 14.2902 76.2171 14.3838C76.2226 14.3327 76.2023 14.2818 76.1445 14.2584C75.1457 13.8555 74.1262 13.5236 73.1237 13.1331C72.081 12.7267 71.0811 12.1972 70.0432 11.7744C69.5694 11.5813 69.1041 11.3943 68.65 11.147C68.2054 10.9051 67.5002 10.7794 67.1852 10.3517C66.8301 9.86943 66.4858 9.43444 66.2282 8.87352C66.1042 8.60335 65.997 8.32272 65.8825 8.04749C65.8155 7.88668 65.7214 7.74837 65.656 7.5914C66.2338 7.82651 66.8071 8.07801 67.378 8.32498ZM46.6219 5.8912C46.8217 5.77608 47.1114 5.80783 47.3296 5.79317C48.0271 5.74643 48.7175 5.64806 49.4179 5.62417C50.9001 5.57341 52.3752 5.51481 53.8536 5.37684C55.2087 5.25039 56.6103 5.17766 57.9369 4.8236C58.9134 4.56302 61.3915 3.72304 61.2552 5.70893C61.2521 5.75411 61.2482 5.79893 61.2435 5.84358C61.2054 5.8837 61.1951 5.95573 61.2195 6.01206C61.1845 6.19904 61.1182 6.37119 60.9752 6.50287C60.7451 6.71444 60.4214 6.87821 60.1609 7.0317C59.5701 7.37966 58.9314 7.56506 58.2975 7.78238C58.0177 7.87831 57.7576 8.05028 57.4835 8.16505C57.1618 8.2997 56.7311 8.17848 56.3973 8.14115C55.6981 8.06301 55.0077 7.90744 54.3124 7.79773C53.5813 7.68227 52.8428 7.62837 52.1077 7.55686C51.4911 7.49686 50.822 7.30309 50.2047 7.38611C49.8401 7.43512 49.4783 7.35227 49.1156 7.31896C48.7715 7.28722 48.4766 7.28146 48.15 7.14367C47.5661 6.8974 46.9555 6.55066 46.4551 6.12892C46.4683 6.03648 46.514 5.95329 46.6219 5.8912ZM46.3133 6.60054C46.3127 6.61589 46.3119 6.63107 46.3113 6.64641C46.268 6.58851 46.2199 6.53095 46.1686 6.47549C46.2164 6.51822 46.2643 6.5606 46.3133 6.60054ZM32.4581 5.34894C32.4075 5.22999 32.3342 5.12272 32.267 5.01528C32.2254 4.9504 32.1861 4.88395 32.1487 4.81592C31.997 4.54994 32.299 4.36035 32.3796 4.58291C32.5125 4.9497 32.6375 5.30097 32.8018 5.65539C32.9005 5.86817 33.0091 6.07398 33.1216 6.27787C33.1904 6.40241 33.308 6.50897 33.3801 6.63874C33.2273 6.63002 33.0746 6.62199 32.9216 6.61798C32.9311 6.58711 32.9288 6.55066 32.9061 6.51351C32.8325 6.39246 32.8146 6.19694 32.7573 6.06578C32.654 5.8284 32.5594 5.58719 32.4581 5.34894ZM9.33692 5.72149C9.31015 5.72498 9.2837 5.72864 9.25693 5.7323C9.24402 5.7051 9.23017 5.67876 9.21554 5.65312C9.25864 5.67091 9.29848 5.69463 9.33692 5.72149ZM4.5825 6.00195C4.65953 5.93567 4.76426 5.89137 4.81981 5.86608C4.99549 5.78602 5.18674 5.74713 5.37239 5.70876C5.59912 5.66184 5.82771 5.62835 6.05661 5.5987C6.03249 5.60306 6.00822 5.6069 5.9841 5.61126C5.55586 5.688 4.98818 5.75201 4.5825 6.00195ZM5.27778 7.24396C5.25381 7.0296 5.15733 6.83356 4.96702 6.69525C4.92703 6.66612 4.87038 6.63699 4.81327 6.60682C4.80814 6.60176 4.80363 6.59653 4.79849 6.59147C4.72489 6.53025 4.65859 6.46031 4.59635 6.38531C4.60864 6.35479 4.64085 6.32252 4.70201 6.28799C4.87287 6.19119 5.06863 6.14183 5.25334 6.09125C5.84731 5.92887 6.45949 5.85213 7.06482 5.76596C7.4814 5.70666 7.89595 5.63289 8.31439 5.59033C8.51108 5.57027 8.70856 5.56696 8.90447 5.58736C8.96034 5.63603 9.01044 5.69341 9.05448 5.75951C8.00005 5.90515 6.99495 6.09369 6.03218 6.71269C5.76157 6.88676 5.52458 7.09065 5.31512 7.31844C5.30252 7.29384 5.29069 7.2682 5.27778 7.24396ZM7.34057 22.7833C7.33792 22.7397 7.3373 22.6959 7.33746 22.6518C7.34228 22.5355 7.35146 22.4191 7.3636 22.3033C7.36516 22.2923 7.36718 22.2815 7.36889 22.2705C7.58752 22.0532 7.61056 21.812 7.73178 21.4998C7.75201 21.4478 7.77177 21.3958 7.79184 21.3437C7.67467 21.767 7.55313 22.1875 7.41729 22.604C7.39348 22.6769 7.36874 22.7465 7.3443 22.8151C7.34306 22.8046 7.34119 22.7938 7.34057 22.7833ZM8.16111 23.0353C8.17947 23.1236 8.19939 23.2117 8.22118 23.2992C8.21246 23.3819 8.19706 23.4639 8.172 23.5457C8.16562 23.5418 8.15924 23.5377 8.15271 23.5349C8.16111 23.3685 8.16578 23.2019 8.16111 23.0353ZM8.20702 23.9331C8.21091 23.9341 8.21371 23.9351 8.21775 23.9362C8.27782 23.9526 8.355 23.9099 8.37741 23.8445L8.37757 23.8439C8.53116 24.3164 8.7238 24.7769 8.92641 25.2265C8.78947 25.0397 8.65456 24.8514 8.52213 24.6609C8.44542 24.4837 8.34691 24.31 8.21791 24.2095C8.20593 24.1912 8.19301 24.1734 8.18118 24.1549C8.18741 24.0808 8.19535 24.0067 8.20702 23.9331ZM8.39733 19.7262C8.39204 19.7012 8.38146 19.6824 8.36901 19.6662C8.37586 19.6517 8.38239 19.637 8.38939 19.6227C8.53458 19.4152 8.68179 19.2163 8.8069 19.0301C8.93886 18.8337 9.06677 18.6136 9.20278 18.3987C9.22954 18.3908 9.25615 18.3826 9.28292 18.3746C9.22892 18.4838 9.17648 18.5939 9.12809 18.7064C9.06117 18.8619 8.99722 19.0193 8.93264 19.1761C8.73657 19.4944 8.5601 19.8284 8.40869 20.1755C8.4269 20.0199 8.42721 19.8676 8.39733 19.7262ZM7.78702 24.1467C7.79247 24.1565 7.7976 24.1668 7.80305 24.1767C7.79869 24.2627 7.79558 24.3489 7.79387 24.435C7.77348 24.398 7.75325 24.3609 7.7338 24.3243C7.75372 24.2657 7.7713 24.2064 7.78702 24.1467ZM9.39838 26.9442C9.37582 26.9246 9.35481 26.9033 9.33256 26.8835C9.35061 26.8508 9.35699 26.8093 9.34158 26.7631C9.26627 26.535 9.17524 26.314 9.07611 26.0967C9.25678 26.3485 9.43806 26.6004 9.61562 26.8556C9.69451 26.9689 9.77372 27.0806 9.85417 27.1901C9.79099 27.1897 9.7317 27.1833 9.67506 27.1714C9.58263 27.0987 9.49035 27.0233 9.39838 26.9442ZM10.9259 27.6748C10.9995 27.7058 11.0756 27.7344 11.1551 27.7594C11.1296 27.8009 11.1051 27.8384 11.0751 27.8734C11.0281 27.8047 10.9783 27.7386 10.9259 27.6748ZM13.2208 28.1769C12.6944 28.2059 12.1806 28.3187 11.6582 28.1883C11.4685 28.1408 11.2945 28.0587 11.1324 27.9523C11.1579 27.8984 11.1851 27.8457 11.2099 27.7913C11.2122 27.7862 11.2128 27.7814 11.2127 27.7765C12.3066 28.1059 13.4911 28.1497 14.6232 28.0083C14.1705 28.145 13.685 28.1515 13.2208 28.1769ZM13.8447 27.6907C13.1426 27.7371 12.4615 27.6073 11.768 27.5105C11.5055 27.4739 11.2537 27.4027 11.0138 27.2979C11.0038 27.2684 10.9842 27.2429 10.9529 27.2285C10.8751 27.1925 10.7998 27.1676 10.7253 27.1505C10.5827 27.0682 10.4446 26.9743 10.3121 26.8658C9.83939 26.4785 9.59694 25.9053 9.32882 25.3434C8.99908 24.6525 8.66825 23.9287 8.47016 23.1723C8.46813 23.0148 8.45491 22.856 8.43872 22.6975C8.40667 22.3823 8.45024 22.0187 8.4104 21.6913C8.51622 21.2101 8.60725 20.7236 8.76131 20.2571C8.93093 19.7429 9.16792 19.2622 9.40087 18.781C9.52521 18.5822 9.66137 18.3821 9.80842 18.1967C10.7626 17.8407 11.6793 17.352 12.6633 17.1124C13.7907 16.8378 15.1534 17.0988 16.1586 17.7279C16.254 17.7877 16.3514 17.8575 16.449 17.9316C16.4963 18.0071 16.5645 18.0694 16.6634 18.1123C16.6684 18.1144 16.6737 18.1156 16.6787 18.1174C16.7651 18.1917 16.8499 18.2696 16.9328 18.3505C16.9792 18.5933 17.0683 18.7747 17.2451 18.7948C17.2596 18.7964 17.2738 18.7958 17.2876 18.7944C17.3123 19.2671 17.393 19.718 17.6598 20.0324C17.719 20.102 17.8512 20.0886 17.8988 20.0091C17.9043 20 17.9087 19.9909 17.9138 19.982C17.913 20.2227 17.9181 20.4631 17.9518 20.7011C17.9631 20.7812 18.0093 20.8367 18.0655 20.8581C18.138 21.4251 18.2085 22.0138 18.1746 22.585C18.1682 22.6909 18.1567 22.7973 18.1424 22.9038C18.1156 22.9209 18.0931 22.9467 18.0794 22.9832C17.9251 23.3957 17.8273 23.8232 17.7317 24.2568C17.6422 24.6633 17.5243 25.0596 17.3996 25.4534C17.2498 25.7454 17.0632 26.0294 16.8522 26.291C16.6121 26.461 16.3815 26.7054 16.1887 26.9705C15.9626 27.159 15.7268 27.3162 15.492 27.4299C15.002 27.6666 14.3703 27.6559 13.8447 27.6907ZM12.6418 16.227C12.5321 16.4051 12.4336 16.5879 12.3981 16.8105C12.1848 16.8731 11.9731 16.9472 11.7634 17.0294C11.7936 16.9962 11.8244 16.9613 11.8555 16.9247C12.0268 16.7648 12.2083 16.6256 12.3878 16.4656C12.4439 16.4158 12.5383 16.3183 12.6418 16.227ZM11.8611 16.3727C11.8071 16.4538 11.7421 16.5385 11.6764 16.6179C11.5631 16.7267 11.4542 16.8419 11.3529 16.9692C11.2958 17.041 11.3109 17.1338 11.3572 17.1968C11.3222 17.2118 11.2874 17.2268 11.2523 17.242C11.2519 17.1987 11.2251 17.152 11.1753 17.15C11.0449 17.1452 10.9195 17.1617 10.7987 17.1957C11.1493 16.9155 11.4974 16.6313 11.8611 16.3727ZM11.0732 17.3215C10.8314 17.4295 10.5915 17.5402 10.3528 17.6461C10.3478 17.6484 10.3428 17.6504 10.338 17.6525C10.567 17.4713 10.8131 17.3487 11.0732 17.3215ZM15.1384 16.6312C15.2422 16.5656 15.3269 16.482 15.4059 16.3919C15.3947 16.6605 15.4171 16.9313 15.6238 17.0212C15.7315 17.0679 15.8294 17.007 15.8603 16.8853C15.8675 16.857 15.8737 16.8272 15.8799 16.797C15.9003 16.9149 15.9087 17.0365 15.9181 17.1584C15.3949 16.8942 14.7945 16.7621 14.2308 16.6702C14.4631 16.5755 14.6887 16.2433 14.9301 16.1798C14.9147 16.2696 14.8898 16.3622 14.8736 16.4416C14.8373 16.6196 15.0189 16.7067 15.1384 16.6312ZM14.1088 16.0962C14.0671 16.2052 14.0222 16.3129 13.984 16.4234C13.9536 16.511 13.976 16.591 14.025 16.6406C13.789 16.6125 13.5559 16.6108 13.3253 16.6301C13.3626 16.6034 13.4003 16.5776 13.4373 16.5494C13.6254 16.4053 13.864 16.1629 14.1088 16.0962ZM19.2013 25.0429C19.1596 24.9755 19.0898 24.937 19.009 24.9837C18.7096 25.1566 18.4805 25.4165 18.2571 25.6899C18.2014 25.6121 18.091 25.5827 18.003 25.6409C18.0654 25.5253 18.1288 25.4107 18.1928 25.2968C18.2672 25.3906 18.4066 25.4015 18.4679 25.261C18.5456 25.0826 18.6133 24.9004 18.6764 24.7164C18.7158 24.723 18.7558 24.7355 18.7961 24.7523C18.8103 24.7927 18.8258 24.8302 18.844 24.8613C18.8965 24.9504 19.0054 24.9618 19.081 24.9066C19.0846 24.904 19.0876 24.9011 19.0911 24.8984C19.0991 24.9019 19.1072 24.9059 19.115 24.9091C19.1492 24.923 19.185 24.9342 19.2206 24.9457C19.2181 24.9701 19.2163 24.9947 19.2144 25.0193C19.21 25.0272 19.2057 25.035 19.2013 25.0429ZM18.4547 21.8589C18.4779 22.0026 18.505 22.146 18.5378 22.2887C18.5512 22.3471 18.5907 22.3827 18.6375 22.398C18.648 22.6624 18.6698 22.9258 18.7125 23.1873C18.7177 23.2186 18.7297 23.2457 18.7457 23.2687C18.7339 23.3134 18.7219 23.3578 18.7099 23.4025C18.669 23.3617 18.6209 23.3264 18.5632 23.2987C18.5104 23.2734 18.4477 23.2767 18.3998 23.3109C18.3993 23.2228 18.3982 23.1346 18.396 23.0465C18.3957 23.0339 18.3942 23.0223 18.3917 23.0111C18.4502 22.6344 18.4777 22.2557 18.4547 21.8589ZM18.5775 23.8363C18.5325 23.8483 18.4894 23.8795 18.4595 23.9338C18.4394 23.97 18.4198 24.0063 18.3999 24.0426C18.3996 24.0089 18.3996 23.9753 18.3995 23.9414C18.4391 23.8722 18.4801 23.8035 18.5232 23.7363C18.5434 23.7654 18.5616 23.7989 18.5775 23.8363ZM19.1967 24.0755C19.1974 24.0783 19.199 24.0799 19.1999 24.0827C19.1526 24.2071 19.1036 24.329 19.0356 24.4319C19.0353 24.4317 19.035 24.4315 19.0347 24.4314C18.9849 24.2632 18.9628 24.0735 18.927 23.8945C18.9713 23.7333 19.0147 23.5717 19.0583 23.41C19.0925 23.6332 19.1366 23.8553 19.1967 24.0755ZM19.696 23.654C19.6713 23.6062 19.6321 23.5704 19.5876 23.5568C19.6089 23.2779 19.5969 22.9978 19.5824 22.7174C19.5862 22.6071 19.5886 22.4969 19.5918 22.3867C19.6358 22.7191 19.6719 23.0502 19.7021 23.3704C19.7057 23.4091 19.7175 23.4429 19.734 23.4722C19.7222 23.5336 19.7092 23.5942 19.696 23.654ZM19.2785 21.3972C19.2671 21.4654 19.2591 21.5338 19.2524 21.6022C19.2447 21.2462 19.2382 20.8897 19.2163 20.5347C19.2863 20.7686 19.3473 21.01 19.4 21.2572C19.3422 21.2739 19.2913 21.3205 19.2785 21.3972ZM18.9024 19.7504C18.8789 19.6887 18.8499 19.6325 18.8128 19.5859C18.7448 19.5012 18.6553 19.4949 18.5912 19.5416C18.5695 19.2231 18.5401 18.9055 18.4897 18.5909C18.4864 18.5705 18.4802 18.5518 18.4729 18.5344C18.6589 18.9148 18.814 19.3238 18.9528 19.7269C18.9354 19.7314 18.9181 19.7384 18.9024 19.7504ZM18.2697 18.4348C18.2221 18.4522 18.1832 18.4779 18.15 18.5093C18.1452 18.4885 18.141 18.4676 18.1355 18.4468C18.0904 18.2726 17.8248 18.2928 17.812 18.4786C17.8035 18.6038 17.8041 18.7351 17.8038 18.8675C17.7569 18.7899 17.7073 18.7135 17.6522 18.6397C17.6259 18.2032 17.6366 17.7689 17.582 17.3337C17.5772 17.2953 17.564 17.2632 17.5455 17.2376C17.6969 17.3824 17.8414 17.5421 17.9781 17.7185C18.1606 17.9541 18.3187 18.2218 18.4594 18.5061C18.4194 18.4393 18.3486 18.4058 18.2697 18.4348ZM17.2481 17.3161C17.2355 17.39 17.2258 17.4643 17.2171 17.5388C17.2009 17.2789 17.1837 17.0332 17.1617 16.9128C17.2762 16.9983 17.3875 17.0911 17.4955 17.1912C17.4045 17.135 17.2728 17.1706 17.2481 17.3161ZM16.8415 16.848C16.7593 17.0716 16.7286 17.3079 16.6778 17.5386C16.6289 17.2809 16.658 16.8731 16.6308 16.5774C16.7335 16.6319 16.8345 16.6905 16.9333 16.7543C16.8941 16.7689 16.8595 16.7986 16.8415 16.848ZM16.2053 16.7456C16.1837 16.6059 16.151 16.4698 16.0916 16.3378C16.147 16.358 16.2022 16.3791 16.257 16.4016C16.234 16.4998 16.2215 16.6212 16.2053 16.7456ZM14.4819 16.0606C14.4849 16.0516 14.4875 16.0423 14.4905 16.0334C14.4976 16.0338 14.5048 16.0338 14.512 16.0341C14.502 16.043 14.492 16.0518 14.4819 16.0606ZM12.8695 16.4834C12.9459 16.3481 13.0372 16.2192 13.1163 16.0859C13.2325 16.0772 13.347 16.069 13.4594 16.0608C13.2611 16.2017 13.0711 16.3507 12.8695 16.4834ZM10.384 16.9802C10.2308 17.1042 10.0646 17.2195 9.93042 17.3674C9.90428 17.332 9.86351 17.3121 9.81994 17.3203C10.1193 17.0682 10.4383 16.8478 10.7488 16.6639C10.6291 16.7723 10.5085 16.8794 10.384 16.9802ZM9.10319 18.0685C9.08358 18.0858 9.06428 18.1031 9.04483 18.1203C9.10334 18.0441 9.16403 17.9691 9.22799 17.896C9.18551 17.9524 9.1438 18.0099 9.10319 18.0685ZM8.99379 18.1875C8.99581 18.1964 9.00095 18.2046 9.00811 18.2086C8.97808 18.2536 8.94851 18.2989 8.91894 18.3443C8.92034 18.3265 8.92003 18.3087 8.9205 18.2907C8.94446 18.256 8.96874 18.2215 8.99379 18.1875ZM14.066 28.5521C14.3316 28.5191 14.595 28.4703 14.8568 28.3895C15.2099 28.2805 15.5567 28.1129 15.8837 27.9006C15.9293 27.9289 15.9858 27.939 16.0415 27.9216C16.242 27.8584 16.3648 27.7334 16.5232 27.6104C16.5108 27.6406 16.4979 27.6704 16.4862 27.7011C16.4649 27.7575 16.4692 27.8216 16.491 27.8761C15.8678 28.2088 15.1924 28.3986 14.5063 28.5017C14.361 28.5233 14.214 28.5399 14.066 28.5521ZM20.0777 24.1097C20.0928 24.0496 20.1071 23.989 20.1201 23.9278C20.1292 23.8844 20.1384 23.8403 20.1476 23.796C20.1618 23.8832 20.1877 23.9692 20.2447 24.0511C20.2019 24.0675 20.1599 24.0871 20.1205 24.1127C20.106 24.111 20.0919 24.1108 20.0777 24.1097ZM37.468 24.0937C37.0243 24.1007 36.6176 24.2039 36.1633 24.1624C35.8302 24.1319 35.5026 24.1844 35.1696 24.1846C34.7938 24.1847 34.4222 24.1286 34.0473 24.1134C33.742 24.101 33.472 24.2301 33.2101 24.3878C32.9283 24.5573 32.4019 24.4186 32.0633 24.4259C31.1072 24.4469 30.1496 24.4716 29.1957 24.3787C28.3589 24.2971 27.5171 24.336 26.6789 24.2716C25.9029 24.2119 25.1259 24.1755 24.3479 24.1928C23.5527 24.2104 22.7722 24.2104 21.9774 24.173C21.5571 24.1533 21.1275 24.1928 20.7216 24.0408C20.4834 23.9515 20.3214 23.7701 20.3202 23.4811C20.3197 23.3632 20.2925 23.3114 20.2403 23.2406C20.2752 22.9218 20.2668 22.6017 20.1493 22.308C20.1243 22.2452 20.0855 22.2039 20.0413 22.1791C20.0189 22.0427 19.997 21.9062 19.9795 21.7686C19.901 21.1482 19.766 20.5693 19.5686 19.9832C19.2293 18.9762 18.8036 17.9358 18.1441 17.1417C16.7707 15.4882 14.7217 15.3776 12.8536 15.5915C11.7881 15.7134 10.8436 15.9192 9.94598 16.5972C9.11439 17.2254 8.48992 17.9593 7.99492 18.9361C7.48747 19.9372 7.13065 21.0903 6.94189 22.2212C6.91201 22.4003 7.03386 23.4543 6.92446 23.4864C6.60639 23.5797 6.37873 23.7044 6.03312 23.6843C5.60814 23.6596 5.57577 23.3367 5.35589 23.0573C5.35107 23.0512 5.34578 23.0462 5.34049 23.0411C5.32135 22.9797 5.27482 22.9312 5.19608 22.9234C4.81903 22.8853 4.38565 22.8553 4.22895 22.4041C4.17449 22.2472 4.13434 22.1019 4.08112 21.9616C4.12158 21.9419 4.16266 21.9191 4.20592 21.8927C4.35453 21.8022 4.21635 21.5839 4.07816 21.6219C4.01903 21.6383 3.96721 21.6446 3.92053 21.644C3.91679 21.6383 3.91368 21.6327 3.90963 21.6269C3.76336 21.4161 3.5606 21.3362 3.34305 21.3107C3.30882 21.2964 3.27162 21.2853 3.23007 21.2795C3.19366 21.2744 3.15772 21.2826 3.12706 21.3008C2.98312 21.3023 2.83871 21.3161 2.70504 21.3222C2.59705 21.3273 2.58102 21.456 2.63408 21.5289C2.29283 21.6423 1.95655 21.7673 1.80887 21.685C1.71488 21.6327 1.65077 21.7916 1.74009 21.8481C2.00665 22.0169 2.44766 21.8293 2.71982 21.7652C2.81475 21.7429 2.91434 21.7161 3.01455 21.6981C2.99775 21.8561 2.98265 22.0141 2.95682 22.1709C2.9285 22.3422 2.86968 22.4852 2.74892 22.6021C2.71531 22.6347 2.67579 22.6589 2.63299 22.6766C2.82222 22.5721 2.88804 22.2948 2.90267 21.9967C2.9092 21.8638 2.73959 21.8198 2.71609 21.9583C2.63704 22.4258 2.27617 22.4397 1.95701 22.2557C1.95655 22.2395 1.9553 22.2236 1.95655 22.2065C1.96433 22.0954 1.83377 22.0518 1.79238 22.1306C1.67831 21.9878 1.66773 21.7321 1.65481 21.561C1.62914 21.2218 1.65077 20.5136 1.96682 20.3078C2.0384 20.3045 2.10765 20.2785 2.17534 20.244C2.17643 20.2435 2.17736 20.243 2.17829 20.2424C2.27571 20.1925 2.37016 20.1259 2.46431 20.0855C2.64902 20.0057 2.64871 20.2855 2.66552 20.4188C2.69275 20.6352 2.78954 20.8461 2.86828 21.0433C2.88788 21.0925 2.95355 21.066 2.93861 21.014C2.86003 20.7404 2.79436 20.4854 2.80883 20.1964C2.81568 20.0596 2.75919 19.8852 2.63875 19.8247C2.36083 19.6852 2.13037 20.0544 1.86022 20.0769C1.7737 20.0841 1.75612 20.1807 1.79331 20.2438C1.41922 20.5738 1.3923 21.483 1.45236 21.9151C1.48006 22.1151 1.55413 22.2618 1.65793 22.3734C1.37611 22.6035 1.07329 22.5461 0.759579 22.4181C0.342072 22.2475 0.350631 21.8013 0.411164 21.3848C0.464072 21.021 0.492704 20.6706 0.509665 20.3021C0.525382 19.9599 0.516202 19.4127 0.895117 19.329C1.27248 19.2455 1.67116 19.8455 1.9858 19.4309C2.08119 19.3051 2.07979 19.0714 2.0966 18.9188C2.14437 18.4841 2.93441 18.7589 3.04303 18.9586C3.05314 18.9772 3.06762 18.9852 3.08256 18.9866C3.08536 19.0766 3.08738 19.1665 3.09049 19.2566C3.09298 19.3229 3.09532 19.3894 3.09781 19.4556C3.10263 19.5863 3.26898 19.5617 3.27349 19.4384C3.39129 16.271 3.52527 13.1448 4.49972 10.1356C4.69096 9.5452 4.91582 8.96457 5.23498 8.44586C5.62074 7.81883 6.15745 7.41768 6.75422 7.07687C7.609 6.58868 8.59838 6.42787 9.57391 6.31624C9.63554 6.32898 9.70572 6.32287 9.76361 6.29479C10.1114 6.25677 10.4562 6.22258 10.7913 6.17968C13.6457 5.81463 16.5069 5.83782 19.3714 5.6805C20.0737 5.64195 20.773 5.65905 21.4756 5.67178C22.1841 5.68469 22.8876 5.59504 23.5956 5.61004C24.311 5.62521 25.0282 5.66166 25.7414 5.71783C26.3682 5.76719 27.0414 5.68573 27.6707 5.658C27.8944 5.64823 27.9699 5.44365 27.9276 5.26156C28.513 4.86389 29.0265 4.13257 29.3528 3.62572C29.6788 3.11939 29.944 2.56789 30.2454 2.04377C30.4073 1.76226 30.5775 1.49994 30.7799 1.2535C30.8613 1.15443 31.0479 0.749434 31.1312 0.705656C31.3999 0.56438 31.786 0.601878 32.0711 0.626994C32.2173 0.639901 31.7391 1.38483 31.6951 1.45826C31.6199 1.58331 31.5378 1.70279 31.453 1.81982C31.3022 2.00017 31.1551 2.18417 31.0127 2.38318C30.8115 2.62928 30.6094 2.87468 30.4295 3.1384C30.0522 3.69164 29.7086 4.27297 29.3312 4.82674C29.1424 5.10371 29.1003 5.22615 29.1432 5.48707C29.0965 5.58736 29.0525 5.68853 29.0148 5.7916C28.9674 5.92137 28.9341 6.13991 28.9879 6.2777C28.989 6.28049 28.9906 6.28276 28.9917 6.28555C28.6026 6.36648 28.4925 7.28966 28.6619 7.60988C28.8641 7.99168 29.2676 7.88284 29.5055 7.60936C29.7479 7.33082 29.7255 6.98199 29.5509 6.72351C29.5598 6.69002 29.5559 6.65025 29.5323 6.60892C29.4633 6.48857 29.3948 6.43415 29.2867 6.35427C29.1082 6.22224 29.1409 5.99009 29.2241 5.77312C29.3208 5.88125 29.5368 5.76283 29.4882 5.57167C29.4608 5.46353 29.4468 5.38958 29.4492 5.32347C29.6043 5.03726 29.7588 4.75122 29.9163 4.46709C29.9583 4.39803 30 4.32861 30.0427 4.25989C30.3615 3.74676 30.6825 3.23677 31.0521 2.76759C31.4036 2.32127 31.7455 1.88871 32.0538 1.40297C32.2323 1.12164 32.4234 0.884257 32.3958 0.533857C32.5118 0.517113 32.6081 0.587054 32.6842 0.746992C32.6429 0.858269 32.5555 0.966059 32.4898 1.06146C32.3751 1.22786 32.2774 1.39669 32.18 1.57791C31.8339 2.2215 31.53 2.87974 31.147 3.49944C30.8129 4.03995 30.4217 4.52081 30.0542 5.03063C29.9154 5.22301 29.8285 5.42132 29.7917 5.63132C29.7226 5.64736 29.6759 5.75358 29.7437 5.82527C29.7532 5.83538 29.763 5.8448 29.7725 5.85474C29.772 5.97718 29.7857 6.10363 29.8178 6.23602C29.8656 6.43276 30.122 6.3977 30.1762 6.23758C30.4851 6.50095 30.8192 6.71653 31.1961 6.85257C31.9021 7.10739 32.5949 6.97396 33.3233 7.04774C34.0942 7.12571 34.8659 7.12292 35.638 7.17838C36.4435 7.23611 37.2402 7.28285 38.0473 7.24169C38.8624 7.20018 39.6738 7.12257 40.4901 7.17594C41.246 7.2253 41.9949 7.28809 42.7526 7.30274C43.3069 7.31355 43.8621 7.29576 44.3747 7.06344C44.6349 6.94553 44.8179 6.73153 45.0412 6.54944C45.435 6.22834 45.9006 6.78246 46.1608 7.04582C46.202 7.08751 46.2483 7.0985 46.291 7.08995C46.2683 7.59471 46.2427 8.09964 46.2178 8.60422C46.2094 8.77637 46.1964 8.9473 46.1817 9.11788C46.0856 9.11264 45.9895 9.10846 45.8932 9.10602C45.5553 9.09729 45.2133 9.15625 44.8772 9.18851C44.4832 9.22636 44.0845 9.18328 43.6903 9.16584C42.9543 9.13322 42.2296 9.05788 41.4979 8.96614C40.7698 8.87492 40.0465 8.90928 39.3167 8.94992C37.8145 9.03346 36.3238 8.8205 34.8252 8.75021C34.0814 8.71533 33.3398 8.72474 32.5966 8.66632C31.8616 8.60841 31.1238 8.6937 30.3917 8.62324C29.6665 8.55347 28.9174 8.65934 28.1876 8.67033C27.3543 8.68289 26.5213 8.74341 25.6902 8.80916C23.9546 8.9466 22.2336 8.91782 20.4959 8.81317C18.8756 8.71568 17.2734 8.81404 15.6557 8.96404C14.8383 9.03974 14.0338 9.22566 13.2151 9.28985C12.4099 9.35299 11.605 9.23509 10.7995 9.2541C10.7281 9.25584 10.7214 9.39188 10.7936 9.39607C11.4333 9.43304 12.0682 9.54205 12.709 9.55705C13.4633 9.57484 14.2121 9.43793 14.9568 9.32491C15.6748 9.21607 16.4028 9.18991 17.1259 9.15747C17.9452 9.12084 18.7599 9.03032 19.5804 9.08299C21.0251 9.17578 22.4717 9.31933 23.9198 9.33032C25.4146 9.34148 26.9046 9.12276 28.403 9.14073C28.5936 9.14299 28.7844 9.14386 28.9753 9.14421C28.773 11.6945 28.9803 14.2898 28.9663 16.8434C28.9627 17.4991 28.9596 18.1547 28.963 18.8103C28.9655 19.3016 28.8896 19.8667 29.1264 20.3106C29.3824 20.7906 29.8035 21.0693 30.2557 21.2696C29.5738 21.3175 28.7053 21.3678 28.2324 20.8933C28.2309 20.8761 28.224 20.8599 28.2116 20.8461C28.1901 20.8224 28.1686 20.7986 28.1472 20.7747C28.1387 20.7655 28.1299 20.7617 28.121 20.7604C28.0805 20.7032 28.044 20.6406 28.0132 20.5712C27.9607 20.4529 27.8039 20.5135 27.8395 20.6436C27.8661 20.7406 27.9003 20.8279 27.9402 20.9083C27.7478 20.9823 27.4114 21.1026 27.3839 21.1136C27.0078 21.2633 26.6452 21.46 26.282 21.6449C25.9378 21.8202 25.5802 21.9574 25.2377 22.1359C24.9937 22.263 24.7338 22.4242 24.6533 22.7289C24.5433 23.1449 25.2058 23.4056 25.4294 23.4784C26.0694 23.6866 26.7804 23.7473 27.4449 23.706C28.205 23.6587 28.9426 23.68 29.7031 23.7197C30.4023 23.7564 31.0994 23.732 31.7959 23.657C32.5066 23.5804 33.2187 23.629 33.9308 23.6208C34.4658 23.7428 34.9888 23.891 35.5499 23.9285C36.4189 23.9866 37.2926 23.9908 38.1628 24.0176C38.1818 24.0182 38.2009 24.0187 38.2199 24.0192C37.9803 24.0961 37.7083 24.0899 37.468 24.0937ZM29.1219 6.64572C29.1333 6.64886 29.1443 6.65025 29.1549 6.6506C29.1603 6.6595 29.1656 6.66856 29.174 6.67606C29.4028 6.87996 29.536 7.16949 29.2422 7.38628C29.1135 7.48134 28.9731 7.48901 28.9373 7.30361C28.9163 7.1946 28.9443 6.59618 29.1219 6.64572ZM54.2487 23.8233C54.2344 23.8169 54.2187 23.8118 54.2 23.8106C51.9147 23.6535 49.6282 23.5846 47.3408 23.5888C46.8208 23.5834 46.3016 23.5849 45.7861 23.594C45.7673 23.5943 45.7511 23.5984 45.7361 23.6039C45.1219 23.6142 44.5079 23.6278 43.8937 23.6482C42.1009 23.7077 40.2978 23.6336 38.5044 23.6161C37.5793 23.6072 36.6535 23.6046 35.7284 23.605C35.3006 23.6052 34.8763 23.5834 34.4532 23.5111C34.4742 23.4222 34.4202 23.3039 34.3111 23.2985C33.6434 23.2663 32.9778 23.1968 32.3093 23.1832C31.6747 23.1705 31.0411 23.2418 30.4052 23.2279C29.7882 23.2143 29.1747 23.1402 28.558 23.1281C27.9153 23.1157 27.2788 23.2483 26.6372 23.1867C26.3643 23.1606 26.0938 23.1335 25.8235 23.0833C25.6787 23.0564 24.9075 22.8799 25.1239 22.6808C25.2182 22.5941 25.3268 22.5243 25.4411 22.4634C25.4533 22.4739 25.4681 22.4816 25.4871 22.4816C26.5062 22.4793 27.5154 22.4563 28.5345 22.5069C29.5962 22.5597 30.6497 22.4706 31.7108 22.4678C32.2015 22.4664 32.6807 22.567 33.1633 22.6527C33.6648 22.7416 34.1712 22.7524 34.6773 22.7793C35.7012 22.8337 36.6948 22.7882 37.7176 22.7109C37.8345 22.702 37.8177 22.5044 37.7019 22.5091C36.6366 22.5519 35.6122 22.616 34.5459 22.533C33.5909 22.4587 32.6451 22.2053 31.6893 22.1931C30.6886 22.1804 29.6919 22.2916 28.6902 22.2639C27.7155 22.2369 26.7557 22.2646 25.7845 22.304C25.8447 22.2784 25.9043 22.2533 25.9619 22.2278C26.4292 22.0211 26.8753 21.7433 27.3339 21.5125C27.5334 21.4121 27.8758 21.3161 28.0821 21.1321C28.3328 21.4466 28.7092 21.5927 29.1189 21.6465C30.1451 21.7813 31.2049 21.6768 32.2359 21.6894C34.3989 21.7155 36.5423 22.1254 38.7006 22.2369C39.7224 22.2895 40.7444 22.2215 41.7665 22.2343C42.8278 22.2473 43.8839 22.3701 44.9436 22.4151C45.4416 22.4362 45.9381 22.3893 46.4353 22.3703C46.9382 22.3509 47.4434 22.4573 47.9472 22.462C48.4783 22.4671 49.0076 22.3719 49.5371 22.3401C49.9086 22.3178 50.2809 22.3255 50.653 22.3239C50.4135 22.3705 50.1775 22.431 49.9333 22.4319C49.8603 22.432 49.8541 22.5719 49.9272 22.5763C50.1308 22.5883 50.3152 22.5555 50.5165 22.5177C50.8204 22.4608 51.1345 22.5107 51.4398 22.5288C52.0325 22.5639 52.6301 22.4797 53.2197 22.4217C53.6926 22.3754 54.1658 22.3628 54.6395 22.3445C54.7106 22.4446 54.7993 22.5271 54.9088 22.6016C55.284 22.8569 55.6082 23.1832 55.9701 23.4595C56.0316 23.5064 56.0974 23.4911 56.1397 23.4489C56.1752 23.5265 56.2227 23.6017 56.2778 23.674C55.6066 23.6938 54.9236 23.7675 54.2487 23.8233ZM58.7238 25.8956C58.684 25.7895 58.647 25.6823 58.6109 25.5748C58.6085 25.5633 58.6062 25.552 58.6039 25.5405C58.6546 25.6917 58.7143 25.8394 58.7789 25.985C58.7799 26.0016 58.7803 26.0178 58.7806 26.0341C58.7623 25.9917 58.7431 25.9468 58.7238 25.8956ZM58.6432 24.6346C58.5514 24.6016 58.4344 24.6686 58.4454 24.8032C58.4524 24.8881 58.4637 24.9717 58.4781 25.054C58.43 24.9185 58.3684 24.7915 58.2807 24.6808C58.2554 24.649 58.2058 24.6253 58.1723 24.66C58.1415 24.6919 58.1107 24.7237 58.0799 24.7556C58.0108 24.8269 58.0914 24.9638 58.1666 24.8927C58.1907 24.8698 58.2159 24.9004 58.2407 24.96C58.2105 24.9881 58.1881 25.0282 58.1874 25.0777C58.1865 25.1466 58.1876 25.2178 58.1909 25.29C58.1019 25.0594 58.0198 24.824 57.9175 24.6056C58.1611 24.6276 58.4142 24.623 58.6565 24.6155C58.6519 24.6218 58.6468 24.6276 58.6432 24.6346ZM58.9675 26.5161C58.9787 26.494 58.9898 26.4718 58.999 26.4486C59.036 26.5233 59.073 26.5978 59.1099 26.6722C59.0621 26.6204 59.0147 26.5685 58.9675 26.5161ZM59.1932 26.7626C59.1964 26.7636 59.1997 26.7654 59.2031 26.7661C59.2042 26.7703 59.2062 26.7741 59.2075 26.7781C59.2028 26.7731 59.198 26.7678 59.1932 26.7626ZM62.173 28.5828C62.175 28.5322 62.1602 28.4801 62.1243 28.4424L62.1241 28.4422C62.6073 28.5102 63.0844 28.6177 63.5635 28.7148C63.5822 28.7187 63.6007 28.7213 63.6194 28.7249C63.5858 28.7246 63.552 28.7239 63.5186 28.7237C63.0523 28.7206 62.6154 28.6634 62.173 28.5828ZM68.8767 25.1709C68.8725 25.5694 68.8003 25.8804 68.6425 26.2364C68.5447 26.4574 68.4118 26.6571 68.2604 26.8425C68.4857 26.3381 68.7067 25.7942 68.7239 25.2497C68.7249 25.218 68.716 25.1902 68.702 25.1662C68.7339 25.0844 68.7649 25.0022 68.7937 24.9187C68.8582 24.731 68.6237 24.5273 68.5123 24.7165C68.5042 24.7301 68.4972 24.7437 68.4894 24.7575L68.489 24.7572C68.4886 24.7582 68.4882 24.7591 68.4879 24.7601C68.3788 24.9537 68.3016 25.1477 68.2487 25.3608C68.0445 25.8178 67.8055 26.2543 67.5794 26.6986C67.4092 26.8878 67.2367 27.0567 67.0922 27.1939C66.5021 27.7547 65.837 28.0063 65.0689 28.0039C64.8735 28.0034 64.857 28.3798 65.0526 28.3904C65.8471 28.434 66.5318 28.1461 67.153 27.624C67.133 27.6746 67.113 27.7252 67.0942 27.7765C67.0726 27.8354 67.0816 27.8945 67.1068 27.943C66.8519 28.137 66.5468 28.2906 66.2355 28.4091C66.1311 28.4215 66.0318 28.4321 65.9442 28.445C65.1035 28.5681 64.2776 28.4874 63.4463 28.325C62.7092 28.1809 61.8493 28.172 61.1533 27.8569C61.0569 27.8161 60.9751 27.8794 60.944 27.9615C60.9136 27.9462 60.8831 27.931 60.8526 27.9155C60.8483 27.9132 60.8437 27.9111 60.8394 27.9088C60.6218 27.6148 60.366 27.3441 60.1049 27.3001C60.0165 26.8965 59.8497 26.4157 59.6275 26.3302C59.5324 26.0466 59.4078 25.7721 59.2879 25.4977C59.2651 25.4456 59.2321 25.413 59.1958 25.3962C59.1337 25.1222 59.0648 24.8545 58.9062 24.6201C58.9031 24.6155 58.8992 24.6124 58.8958 24.6084C59.0095 24.6049 59.1194 24.6026 59.2221 24.6042C59.8752 24.6145 60.5283 24.6171 61.1814 24.6182C61.511 25.1234 61.6612 25.6751 62.1772 26.0035C62.4344 26.1673 62.7808 26.146 63.064 26.1677C63.4141 26.1943 63.7593 26.262 64.1108 26.2744C64.1388 26.2755 64.1656 26.273 64.1931 26.2727C63.9166 26.3545 63.629 26.3946 63.3516 26.4002C62.862 26.4101 62.391 26.1588 61.9701 25.9057C61.5469 25.6512 61.2595 25.3057 60.9091 24.9579C60.8213 24.8707 60.7084 25.0244 60.7929 25.1131C61.1178 25.4541 61.3576 25.7691 61.7439 26.0369C62.1473 26.3164 62.588 26.524 63.0542 26.6222C63.463 26.7083 63.8939 26.6185 64.2898 26.5032C64.5319 26.4328 64.7608 26.3164 64.9813 26.1861C65.2057 26.0536 65.4047 25.7592 65.6599 25.7069C65.8193 25.6742 65.7976 25.455 65.6707 25.4259C65.9067 25.1906 66.1647 24.9162 66.2233 24.61C67.1401 24.5868 68.0567 24.5512 68.9742 24.5364C68.9511 24.7502 68.8791 24.9529 68.8767 25.1709ZM65.3241 25.2926C64.9328 25.703 64.6349 25.9146 64.0841 25.9284C63.7635 25.9364 63.4375 25.8675 63.1189 25.8342C62.8373 25.8049 62.5737 25.818 62.304 25.7035C61.8781 25.523 61.6882 25.0141 61.4293 24.6183C62.4008 24.6194 63.3721 24.6176 64.3435 24.6283C64.8845 24.6342 65.4253 24.6274 65.9657 24.6154C65.8464 24.8899 65.5076 25.1001 65.3241 25.2926ZM79.6492 23.0503C79.5852 23.1213 79.5657 23.1982 79.5755 23.2692C79.5231 23.2938 79.4699 23.3146 79.4154 23.3271C79.1292 23.3932 78.7998 23.3524 78.5087 23.3571C77.885 23.3673 77.2621 23.2837 76.637 23.2956C76.0139 23.3073 75.3824 23.312 74.7617 23.3735C74.5276 23.3967 74.3023 23.4602 74.0796 23.5406C74.0326 23.4972 73.973 23.4705 73.9041 23.4743C73.6103 23.4906 73.343 23.6071 73.0531 23.6446C72.7521 23.6835 72.4445 23.6447 72.1406 23.6838C71.3857 23.781 70.6219 23.7717 69.8644 23.8307C69.0837 23.8915 68.3013 23.8328 67.52 23.8619C66.7416 23.891 65.9701 23.9821 65.19 23.9908C63.6178 24.0084 62.0468 23.9763 60.4746 24.0192C59.6734 24.041 58.8721 24.0572 58.0707 24.0485C57.712 24.0447 57.4075 24.0475 57.0824 23.8593C56.8501 23.7248 56.4798 23.5159 56.3501 23.2621C56.3039 23.1717 56.2039 23.1873 56.1478 23.2481C56.1444 23.2441 56.1416 23.2399 56.1376 23.2361C56.0702 23.1695 56.0044 23.1009 55.9393 23.0315C56.0338 22.7793 55.7524 22.5519 55.5784 22.405C55.4308 22.2805 55.3623 22.1163 55.2003 22.0098C55.1418 21.9712 55.0668 21.9573 54.9871 21.9557C54.9759 21.8118 55.0589 21.6707 55.1206 21.5164C55.4311 20.7421 55.7713 19.9974 56.0335 19.1991C56.2642 18.4964 56.4773 17.7884 56.7524 17.1052C57.0591 16.3435 57.5258 15.63 57.9427 14.9376C58.295 14.3524 58.7935 13.8445 59.2861 13.4108C59.8318 12.9301 60.5118 12.6742 61.1562 12.4077C61.4981 12.2662 61.8717 12.2533 62.2307 12.213C62.5801 12.1738 62.9257 12.0948 63.2738 12.0437C64.0257 11.9335 64.8108 11.8565 65.5686 11.8213C65.5988 11.8199 65.6232 11.8112 65.6433 11.7981C65.9072 11.8049 66.2122 11.7814 66.2975 11.5088C66.3141 11.4556 66.304 11.3872 66.2511 11.3635C66.0412 11.2696 65.8308 11.1838 65.6132 11.1158C65.3286 11.0267 65.0695 10.9761 64.8375 10.7532C64.7831 10.7009 64.7157 10.7933 64.7666 10.8479C65.1074 11.2126 65.6148 11.3024 66.0468 11.5013C65.9553 11.5567 65.8073 11.5541 65.6688 11.5386C65.6403 11.4981 65.5972 11.469 65.5407 11.4669C64.7224 11.4366 63.8757 11.506 63.0576 11.5567C62.2472 11.607 61.4232 11.5991 60.6545 11.9179C59.9396 12.2144 59.2963 12.5178 58.7084 13.0733C58.1527 13.5983 57.6714 14.196 57.2816 14.8823C56.8565 15.6309 56.4152 16.3551 56.1061 17.1753C55.7814 18.0373 55.5503 18.9401 55.2363 19.8071C55.0797 20.2393 54.8989 20.6602 54.7282 21.0854C54.6264 21.3392 54.4328 21.704 54.4892 22.0084C53.7653 22.0839 53.0384 22.1354 52.3137 22.2172C51.9286 22.2606 51.5462 22.2772 51.1597 22.2712C51.2062 22.1992 51.1639 22.0644 51.0578 22.0595C50.1225 22.0169 49.2131 22.0724 48.2802 22.1348C47.777 22.1685 47.2825 22.0989 46.7823 22.053C46.3798 22.0161 45.9756 22.0555 45.5727 22.0659C44.6033 22.0909 43.6355 21.9318 42.672 21.8329C41.6964 21.733 40.7211 21.6742 39.7415 21.6691C37.672 21.6583 35.6161 21.3791 33.5508 21.2573C32.7183 21.2083 31.8885 21.2144 31.0563 21.2328C31.0429 21.2141 31.0257 21.1982 31.0026 21.1874C30.3561 20.8869 29.4457 20.6005 29.3401 19.6942C29.276 19.1448 29.3446 18.5414 29.3396 17.9864C29.3345 17.3954 29.3321 16.8044 29.329 16.2134C29.3228 15.0408 29.2389 13.8801 29.1927 12.7098C29.146 11.5278 29.2097 10.3236 29.1317 9.14229C30.3136 9.14195 31.4989 9.12224 32.6783 9.23212C33.3858 9.29805 34.0928 9.28601 34.8014 9.32473C35.5859 9.36747 36.3681 9.45362 37.1516 9.51415C38.6267 9.62804 40.11 9.41578 41.5771 9.60572C42.1241 9.67653 42.6656 9.72903 43.206 9.76077C43.1553 9.81065 43.1135 9.87467 43.078 9.95804C42.8699 10.4466 43.2723 10.7869 43.6309 10.9103C44.0541 11.0562 44.4996 11.0977 44.9044 10.8828C45.2274 10.7113 45.4229 10.3756 45.1311 10.0557C45.011 9.92402 44.8446 10.1483 44.9638 10.2791C45.1868 10.5235 44.5736 10.7194 44.4528 10.7415C44.2681 10.7753 44.0313 10.6996 43.8501 10.6613C43.559 10.5997 43.1057 10.3915 43.3673 9.96571C43.4486 9.83316 43.9629 9.90798 44.0947 9.91704C44.2891 9.9303 44.483 9.93571 44.6777 9.93484C44.7525 9.93449 44.7601 9.83821 44.7172 9.79199C45.0673 9.78502 45.4187 9.76757 45.7727 9.73914C45.8886 9.72972 46.0052 9.72711 46.1221 9.72693C46.0962 9.9692 46.0699 10.2109 46.0474 10.453C45.94 11.6082 45.9006 12.7871 45.9187 13.9495C45.9392 15.2693 46.0242 16.5872 46.0696 17.9061C46.0909 18.523 46.0926 19.1393 46.0975 19.7563C46.1001 20.1043 46.1228 20.4447 46.0923 20.7927C46.0709 21.0393 45.973 21.2783 45.9454 21.5268C45.9269 21.6936 46.1505 21.7949 46.2076 21.6215C46.3455 21.2033 46.4616 20.9085 46.4719 20.4545C46.4867 19.8078 46.4428 19.1462 46.4219 18.4995C46.3771 17.1091 46.2693 15.7228 46.236 14.3317C46.2188 13.6146 46.1963 12.8839 46.2579 12.1693C46.284 11.8663 46.3258 11.5677 46.3391 11.2634C46.3503 11.0112 46.3206 10.7565 46.3573 10.5088C46.3603 10.5088 46.3633 10.5087 46.3662 10.5087C46.3938 10.508 46.3899 10.4656 46.3654 10.4609C46.3707 10.4321 46.3763 10.4033 46.3838 10.3747C46.4356 10.1783 46.4565 9.9603 46.4628 9.73618C47.0003 9.76356 47.5433 9.841 48.0775 9.83071C48.9094 9.81466 49.7411 9.79513 50.573 9.77507C52.1853 9.73635 53.7892 9.95943 55.4007 10.0016C56.2246 10.0233 57.0438 10.096 57.8652 10.167C58.715 10.2404 59.5624 10.1963 60.4116 10.2441C61.1998 10.2884 61.9974 10.3592 62.7836 10.4382C63.5427 10.5146 64.2289 11.0659 64.9356 11.3516C65.0881 11.4134 65.1987 11.1659 65.045 11.0924C64.4606 10.8134 63.9244 10.4183 63.3324 10.1602C62.7406 9.90205 62.0136 9.94112 61.3899 9.85007C59.8923 9.63153 58.3745 9.60851 56.8669 9.51502C55.3842 9.4231 53.9036 9.45816 52.4212 9.33171C50.9646 9.20735 49.4915 9.26177 48.0316 9.23945C47.5037 9.23142 46.981 9.17212 46.4566 9.1341C46.451 8.9541 46.4451 8.77829 46.4473 8.61521C46.4546 8.06232 46.444 7.51134 46.4272 6.95949C46.4423 6.91519 46.4431 6.86478 46.4227 6.81664C46.4222 6.80374 46.4219 6.79065 46.4215 6.77775C46.4534 6.79187 46.4924 6.78315 46.5187 6.75804C46.8864 7.02646 47.2803 7.23576 47.6884 7.43739C48.3165 7.74767 48.8873 7.71488 49.5561 7.80593C49.8371 7.84412 50.1084 7.83174 50.3894 7.7925C50.7321 7.74453 51.1463 7.87465 51.4885 7.91354C52.2849 8.00406 53.0845 8.0536 53.8807 8.14848C54.5863 8.23255 55.2842 8.38272 55.9876 8.48545C56.559 8.56882 57.1906 8.69806 57.7495 8.4919C58.0312 8.38812 58.2889 8.22557 58.5757 8.13313C58.8967 8.0297 59.2185 7.93935 59.5358 7.82058C60.1262 7.59942 60.7213 7.30989 61.2418 6.92356C61.4601 6.76153 61.6048 6.50095 61.6826 6.20183C62.5435 6.47357 63.4011 6.78821 64.2582 7.07059C64.6872 7.21187 65.1123 7.37233 65.535 7.54204C65.5661 7.65139 65.61 7.74628 65.6657 7.85372C65.8163 8.14464 65.9072 8.45841 66.0147 8.77131C66.199 9.30712 66.445 9.76862 66.7502 10.2284C66.9954 10.5978 67.1708 10.9156 67.5844 11.0427C68.1752 11.2245 68.695 11.5806 69.2661 11.8206C70.3491 12.2758 71.4247 12.7574 72.5092 13.2065C73.6393 13.6745 74.8048 14.0264 75.9408 14.4754C75.9252 14.4789 75.9098 14.4839 75.8941 14.4869C75.7708 14.5096 75.7842 14.722 75.9112 14.706C75.9562 14.7004 76.0002 14.6915 76.0441 14.6817C75.9227 14.7581 75.8009 14.8333 75.6768 14.9046C75.5558 14.9742 75.6244 15.199 75.7522 15.1317C76.2142 14.8881 76.6363 14.5631 77.0977 14.3191C77.2182 14.4538 77.3383 14.5882 77.4614 14.7171C78.164 15.453 78.8985 16.2028 79.2214 17.246C79.3465 17.6501 79.4254 18.094 79.6134 18.4669C79.8027 18.8426 80.086 19.0676 80.2051 19.4691C80.1989 19.4738 80.1927 19.4787 80.1865 19.4834C80.1252 19.5301 80.1641 19.6365 80.2279 19.637C80.217 19.9177 80.1127 20.2171 80.0906 20.4913C80.0849 20.5628 80.081 20.6349 80.0782 20.7071C80.0295 20.7543 80.0307 20.8452 80.0724 20.905C80.0696 21.0413 80.068 21.1776 80.0632 21.3126C80.0503 21.6683 80.0242 22.0267 80.0021 22.382C79.9821 22.6987 79.8351 22.8438 79.6492 23.0503ZM82.6377 22.2288C82.6444 22.7343 82.3775 22.6389 82.0448 22.4974C81.8998 22.4359 81.7438 22.4387 81.5912 22.4606C81.7678 21.9107 81.5412 21.2983 81.5031 20.7111C81.502 20.6931 81.4977 20.6764 81.4916 20.6605C81.5187 20.6476 81.5459 20.635 81.5728 20.6216C81.6584 20.6038 81.7429 20.555 81.8123 20.4798C81.8691 20.4184 81.9055 20.3485 81.9251 20.2749C81.9611 20.2757 81.9967 20.2543 82.0053 20.2018C82.0283 20.0605 81.9824 19.9693 81.9046 19.921C81.8792 19.8486 81.8419 19.7808 81.7964 19.7208C81.84 19.7387 81.8833 19.7572 81.9262 19.7759C81.9961 19.8062 82.5406 19.8938 82.5487 19.9414C82.6777 20.6942 82.6276 21.4665 82.6377 22.2288Z" fill="#C21807"/>
<path d="M16.1636 23.3676C16.3259 22.9831 16.3924 22.5554 16.3938 22.1317C16.3949 21.7486 16.2658 21.4147 16.1093 21.0917C16.0253 20.6942 15.8854 20.3178 15.6823 19.9622C15.1496 19.0298 14.1959 18.5294 13.2317 18.4784C12.3124 18.4299 11.4178 18.7887 10.8552 19.6212C10.3205 20.4124 10.1738 21.5005 10.2865 22.4633C10.3089 22.655 10.3499 22.8409 10.4058 23.0206C10.5401 23.6942 10.8277 24.3381 11.2527 24.8108C11.9254 25.559 13.1605 26.1051 14.1097 25.8494C15.0933 25.5845 15.8253 24.6297 16.1176 23.57C16.1354 23.5037 16.1504 23.436 16.1636 23.3676ZM13.7624 25.5529C12.9412 25.6291 12.1661 25.2817 11.5832 24.6904C12.3243 25.263 13.2675 25.522 14.1131 25.282C14.5289 25.164 14.9151 24.9332 15.2505 24.6297C14.87 25.1364 14.3703 25.4964 13.7624 25.5529ZM15.7847 23.5738C15.5349 23.9915 15.1811 24.3339 14.8059 24.5988C13.491 25.5271 11.8323 24.8678 10.9484 23.5443C10.7575 23.2585 10.6375 22.9239 10.5732 22.5692C10.518 22.1429 10.5292 21.7079 10.5981 21.279C10.6425 21.0036 10.7444 20.5573 10.9002 20.137C10.921 20.0914 10.9416 20.0456 10.9637 20.002C11.5807 18.7872 13.0388 18.5608 14.1329 18.9825C14.8448 19.257 15.3104 19.8009 15.59 20.4699C15.585 20.491 15.5868 20.5154 15.5987 20.5421C15.6286 20.6089 15.66 20.6747 15.6918 20.7403C15.8541 21.2314 15.9288 21.7752 15.9341 22.3232C15.9383 22.7764 15.8983 23.1847 15.7847 23.5738Z" fill="#C21807"/>
<path d="M13.4251 19.8368C13.4189 19.8061 13.399 19.7805 13.3612 19.7765C12.604 19.6964 11.9202 20.4396 11.6039 21.1399C11.5399 21.2815 11.4915 21.4245 11.4556 21.5679C11.435 21.6289 11.4159 21.6896 11.3989 21.7496C11.1154 22.7513 11.4817 23.7235 12.2767 24.2424C13.1615 24.8198 13.9601 24.2666 14.5939 23.5658C14.6212 23.5358 14.6346 23.5037 14.6377 23.4723C15.0048 22.9454 15.0119 22.2036 14.8597 21.5347C14.6623 20.6665 14.2239 19.9355 13.4251 19.8368ZM14.4041 23.3061C14.3873 23.3145 14.371 23.3256 14.3557 23.3417C14.2303 23.4749 14.1052 23.5984 13.9777 23.7064C13.4181 24.0536 12.7518 23.9176 12.2282 23.507C11.8651 23.2222 11.6722 22.8397 11.6154 22.4197C11.6138 22.2654 11.6266 22.1089 11.6533 21.9542C11.7895 21.1664 12.2954 20.4366 12.9759 20.1769C13.8299 19.8509 14.3727 20.7125 14.5821 21.4976C14.7531 22.1379 14.7651 22.8013 14.4041 23.3061Z" fill="#C21807"/>
<path d="M10.9985 8.85188C12.7392 8.91327 14.4903 8.87106 16.2324 8.78228C17.0426 8.74112 17.8641 8.5224 18.6759 8.5824C18.9294 8.60124 19.2642 8.62287 19.274 8.26096C19.2777 8.12509 19.0768 8.13904 19.0829 8.27962C19.0896 8.43345 17.6934 8.42682 17.6151 8.43502C16.9074 8.50862 16.2101 8.592 15.4987 8.60595C14.7695 8.62025 14.041 8.64694 13.3126 8.68827C12.9485 8.70903 12.5848 8.74129 12.2207 8.76135C11.81 8.78385 11.4011 8.71112 10.9901 8.74322C10.9262 8.74845 10.9378 8.84961 10.9985 8.85188Z" fill="#C21807"/>
<path d="M36.2131 10.0585C36.3149 10.0623 36.3227 9.86699 36.2215 9.85792C35.0522 9.7517 33.8964 9.63816 32.7221 9.65787C32.0595 9.66903 31.3985 9.67932 30.7381 9.6045C30.2423 9.54833 29.7398 9.37165 29.2411 9.39345C29.1981 9.39537 29.2048 9.46758 29.2468 9.46723C29.7893 9.46479 30.3492 9.67897 30.8868 9.76112C31.4358 9.84502 31.9979 9.83508 32.5506 9.83647C33.7795 9.83944 34.9883 10.0121 36.2131 10.0585Z" fill="#C21807"/>
<path d="M39.1378 10.3603C39.6913 10.3156 40.3027 10.2989 40.8368 10.1299C40.916 10.1048 40.8712 9.97029 40.7921 9.99558C40.3583 10.1339 39.8727 10.137 39.4241 10.1782C39.2256 10.1963 39.0284 10.1958 38.8303 10.2232C38.7013 10.241 38.3429 10.3657 38.2373 10.2288C38.1797 10.1541 38.0672 10.2392 38.124 10.3188C38.3432 10.6261 38.8406 10.3844 39.1378 10.3603Z" fill="#C21807"/>
<path d="M53.1278 10.4658C52.2361 10.4294 51.3557 10.6176 50.4679 10.6786C49.5233 10.7435 48.5224 10.7646 47.592 10.5611C47.5579 10.5536 47.5503 10.6092 47.5825 10.6195C49.4127 11.1994 51.2894 10.7442 53.1472 10.7147C53.2932 10.7121 53.2674 10.4716 53.1278 10.4658Z" fill="#C21807"/>
<path d="M52.5903 8.40704C52.5676 8.39797 52.5449 8.3889 52.5222 8.37983C52.4386 8.34634 52.3834 8.41419 52.3837 8.48343C52.109 8.60988 51.7326 8.4932 51.4539 8.48325C50.8458 8.46145 50.2464 8.44 49.6421 8.35175C48.6895 8.21256 47.5974 7.96245 46.7919 7.35915C46.708 7.29636 46.6052 7.42979 46.6898 7.49537C47.5706 8.17698 48.7417 8.44593 49.7893 8.59471C50.3971 8.68104 51.0017 8.6575 51.6103 8.70372C51.9318 8.72813 52.3218 8.81395 52.605 8.59802C52.6625 8.55424 52.6615 8.43547 52.5903 8.40704Z" fill="#C21807"/>
<path d="M40.4893 8.35226C40.7935 8.14418 41.2048 8.1372 41.5512 8.0929C41.9581 8.04092 42.3647 8.00709 42.7698 7.9368C43.4203 7.82413 44.0513 7.66785 44.6258 7.29373C44.721 7.23181 44.6219 7.07972 44.5276 7.1385C43.7855 7.60088 42.8982 7.71878 42.0652 7.8161C41.5629 7.87488 40.8074 7.8161 40.386 8.18883C40.2953 8.26906 40.3911 8.41941 40.4893 8.35226Z" fill="#C21807"/>
<path d="M41.5798 22.7433C41.3593 22.7154 41.1411 22.6693 40.9208 22.6414C40.835 22.6306 40.8101 22.7778 40.8965 22.7897C41.1165 22.82 41.3342 22.8685 41.5544 22.8987C41.6445 22.9113 41.67 22.7548 41.5798 22.7433Z" fill="#C21807"/>
<path d="M48.1439 22.8217C47.0124 22.8922 45.8897 22.8264 44.7579 22.8291C44.6453 22.8294 44.6619 23.0228 44.7732 23.0235C45.9074 23.0303 47.0261 23.1071 48.1602 23.0309C48.2811 23.0228 48.2643 22.8142 48.1439 22.8217Z" fill="#C21807"/>
<path d="M20.9551 22.0211C21.018 22.2037 21.0394 22.3816 21.0415 22.5738C20.9962 22.3457 21.0156 22.0882 20.8663 21.9069C20.7593 21.7769 20.5995 21.9414 20.7071 22.0713C20.7757 22.1544 20.7849 22.2906 20.7982 22.3966C20.8137 22.5187 20.8263 22.6413 20.8641 22.7578C20.9084 22.8946 21.0869 22.8307 21.0727 22.7024C21.1328 22.7631 21.2638 22.7222 21.2645 22.5993C21.2657 22.3671 21.2388 22.1512 21.1638 21.9341C21.1123 21.7841 20.9033 21.8706 20.9551 22.0211Z" fill="#C21807"/>
<path d="M21.8034 22.1757C21.7424 22.1816 21.7068 22.2395 21.7073 22.3042C21.7077 22.3825 21.6978 22.4677 21.728 22.54C21.7599 22.6168 21.8593 22.6325 21.8945 22.5481C21.9284 22.4666 21.9177 22.3717 21.9181 22.2835C21.9184 22.2188 21.8568 22.1704 21.8034 22.1757Z" fill="#C21807"/>
<path d="M22.7488 22.6702C22.6962 22.6702 22.7037 22.7605 22.756 22.7605C22.8086 22.7605 22.8011 22.6702 22.7488 22.6702Z" fill="#C21807"/>
<path d="M30.9474 19.8954C30.9062 19.9505 30.9195 20.0198 30.9608 20.0677C31.0081 20.1227 31.0246 20.1935 31.0165 20.268C30.9994 20.4258 31.2174 20.4706 31.2334 20.3126C31.2505 20.1438 31.207 20.0014 31.101 19.8802C31.0594 19.8326 30.9827 19.8481 30.9474 19.8954Z" fill="#C21807"/>
<path d="M31.5765 19.8797C31.5823 19.9544 31.6377 19.9942 31.6995 19.9954C31.7893 19.9973 31.8568 20.1047 31.8641 20.1954C31.8749 20.3275 32.0708 20.3463 32.0781 20.2068C32.0848 20.0787 32.0504 19.972 31.971 19.879C31.8932 19.7878 31.7911 19.7435 31.6797 19.742C31.6178 19.7411 31.5716 19.8159 31.5765 19.8797Z" fill="#C21807"/>
<path d="M64.7012 16.721C63.9849 16.8173 63.2629 16.7739 62.5578 16.9673C61.9518 17.1335 61.3773 17.4412 60.8489 17.8076C60.3206 18.1739 59.8856 18.6816 59.512 19.2326C59.2694 19.5903 58.8489 20.138 58.8963 20.6138C58.9068 20.7196 59.0523 20.7059 59.0435 20.5993C58.9974 20.0527 59.6444 19.3346 59.9389 18.952C60.3027 18.4793 60.7379 18.1107 61.2184 17.802C61.7419 17.4658 62.3311 17.2299 62.9205 17.0923C63.5086 16.9551 64.1222 17.0081 64.7152 16.9007C64.8165 16.8825 64.8052 16.7071 64.7012 16.721Z" fill="#C21807"/>
<path d="M67.5635 17.5753C67.4772 17.5209 67.3939 17.486 67.3002 17.4522C67.1535 17.3993 67.05 17.3172 66.9179 17.2364C66.8261 17.1803 66.7528 17.1372 66.6503 17.1201C66.4848 17.0925 66.3372 17.1783 66.1828 17.0423C66.0824 16.9539 65.9558 17.1218 66.0552 17.2127C66.2113 17.3554 66.3689 17.3529 66.5631 17.3477C66.7506 17.3426 66.9145 17.5003 67.0793 17.5748C67.2175 17.6372 67.3625 17.6548 67.4966 17.734C67.5867 17.7872 67.6507 17.6301 67.5635 17.5753Z" fill="#C21807"/>
<path d="M59.7257 22.2532C59.6795 22.1128 59.4857 22.1932 59.5313 22.3343C59.6368 22.6603 59.5089 23.0621 59.7521 23.3288C59.8334 23.4178 59.972 23.2753 59.8986 23.1778C59.717 22.9364 59.8198 22.5389 59.7257 22.2532Z" fill="#C21807"/>
<path d="M60.3943 22.3886C60.3655 22.2385 60.1509 22.2564 60.1791 22.4097C60.2309 22.6918 60.148 22.9701 60.1758 23.2536C60.1915 23.4135 60.4147 23.3917 60.3977 23.2318C60.3677 22.9487 60.4486 22.6712 60.3943 22.3886Z" fill="#C21807"/>
<path d="M60.7636 22.5273C60.72 22.5854 60.7347 22.6578 60.7778 22.7083C60.8223 22.7607 60.8428 22.8327 60.8371 22.9039C60.8318 22.9708 60.8624 23.0348 60.9256 23.0477C60.983 23.0596 61.0453 23.0151 61.054 22.9485C61.0762 22.7779 61.033 22.6333 60.9251 22.5114C60.8809 22.4615 60.801 22.4772 60.7636 22.5273Z" fill="#C21807"/>
<path d="M61.8094 22.9249C61.7159 22.9135 61.632 22.8815 61.552 22.8258C61.506 22.7937 61.4411 22.8288 61.4199 22.8788C61.3945 22.9388 61.4216 22.9945 61.4672 23.0269C61.5604 23.0935 61.6637 23.1328 61.7742 23.1387C61.827 23.1415 61.8768 23.1155 61.8872 23.0513C61.8962 22.9964 61.862 22.9313 61.8094 22.9249Z" fill="#C21807"/>
<path d="M62.3996 22.9291C62.3638 22.9101 62.3271 22.9174 62.2992 22.9402C62.2619 22.9226 62.2202 22.9265 62.1912 22.9652C62.1586 23.0088 62.1643 23.0745 62.2026 23.1113L62.2753 23.1813C62.3202 23.2245 62.4047 23.2109 62.4268 23.1441L62.4478 23.0805C62.4671 23.0224 62.4527 22.9573 62.3996 22.9291Z" fill="#C21807"/>
<path d="M52.9677 6.00748C53.5269 5.85399 54.0902 5.74202 54.6602 5.65376C55.0869 5.58766 55.5317 5.45423 55.9632 5.47656C55.9943 5.47813 56.0082 5.44307 56.0041 5.4129C56.2318 5.37714 56.4594 5.34086 56.6873 5.30546C56.996 5.25749 57.3046 5.20866 57.6133 5.16087C57.7761 5.13575 58.5608 5.13401 58.6431 4.9786C58.6111 5.03913 58.6988 5.0843 58.7309 5.02517C58.7423 5.00407 58.7538 4.98279 58.7651 4.96169C58.7844 4.92593 58.7511 4.87901 58.7167 4.8839C57.4178 5.06407 56.1213 5.26133 54.8247 5.46138C54.791 5.46662 54.7749 5.49557 54.7729 5.5254C54.7325 5.5322 54.692 5.53918 54.6515 5.54511C54.0727 5.62865 53.498 5.74498 52.9297 5.89428C52.8626 5.91173 52.9006 6.02597 52.9677 6.00748Z" fill="#C21807"/>
<path d="M50.4755 6.07053C51.1075 6.42302 51.9317 6.3986 52.6239 6.4068C53.4805 6.41692 54.3366 6.32099 55.1906 6.25942C55.9688 6.20326 56.7479 6.12652 57.4977 5.87431C57.7742 5.78135 58.279 5.69623 58.3731 5.33101C58.3954 5.24432 58.2694 5.21729 58.2496 5.30554C58.1628 5.6931 57.1085 5.88635 56.8455 5.94861C56.1929 6.10332 55.5177 6.12722 54.8537 6.16803C54.1657 6.21024 53.4788 6.26727 52.7898 6.28175C52.3867 6.29029 51.9842 6.27442 51.5824 6.23727C51.4182 6.2221 51.255 6.19611 51.0919 6.17117C51.1112 6.17413 50.4442 5.9957 50.7021 5.87675C50.7376 5.86036 50.7177 5.80019 50.6814 5.81414C50.5648 5.85931 50.5199 5.89925 50.4579 6.01454C50.4469 6.03443 50.4586 6.06111 50.4755 6.07053Z" fill="#C21807"/>
<path d="M65.0903 8.70237C65.0878 8.69278 65.0791 8.68562 65.0706 8.68388C65.045 8.67865 65.0194 8.67341 64.9938 8.66801C64.9653 8.66208 64.9591 8.70795 64.9858 8.71667C65.0051 8.72295 65.0243 8.72905 65.0434 8.73533C65.047 8.75713 65.0506 8.77894 65.0542 8.80074C65.0619 8.84853 65.1237 8.83283 65.1117 8.78626L65.0903 8.70237Z" fill="#C21807"/>
<path d="M64.1726 9.25569C63.9854 9.14512 63.7988 9.03488 63.6381 8.87965C63.6873 8.78878 63.7621 8.75216 63.8653 8.74414C63.926 8.73943 63.9155 8.64175 63.8572 8.64071C63.7008 8.63792 63.5737 8.70646 63.5049 8.86832C63.4921 8.89849 63.5015 8.92832 63.5211 8.95082C63.6907 9.14442 63.9034 9.26703 64.1144 9.39435C64.1919 9.44127 64.2504 9.30174 64.1726 9.25569Z" fill="#C21807"/>
<path d="M60.1487 14.8047C60.6655 14.9622 61.1136 14.7576 61.6111 14.6019C62.2537 14.401 62.9068 14.2541 63.5687 14.1639C64.206 14.0771 64.8395 14.1327 65.4786 14.1411C65.8799 14.1463 66.3564 14.1672 66.7053 13.9135C66.7415 13.8871 66.7418 13.8362 66.7228 13.7982C66.5285 13.411 66.2362 13.2817 65.8508 13.2474C65.7537 13.2387 65.7258 13.407 65.8232 13.4152C66.1086 13.4391 66.3391 13.4961 66.5363 13.7633C66.6236 13.8816 66.003 13.9595 65.9278 13.9642C65.4835 13.9927 65.0416 13.9724 64.5972 13.959C63.6833 13.9314 62.7757 14.1181 61.892 14.3633C61.3842 14.5042 60.8687 14.778 60.3376 14.7064C59.9918 14.6598 60.8267 13.8887 60.935 13.802C61.7618 13.1385 62.908 13.2776 63.8658 13.28C63.9285 13.2802 63.9192 13.1722 63.8574 13.1717C62.9693 13.163 61.9432 13.0358 61.1264 13.5228C60.7957 13.7199 60.0054 14.2068 60.0938 14.7371C60.0998 14.7728 60.1173 14.7951 60.1487 14.8047Z" fill="#C21807"/>
<path d="M68.6859 13.6235C68.7749 13.5762 68.7224 13.4137 68.632 13.4613C68.578 13.4897 68.5153 13.5054 68.4955 13.5741C68.4822 13.6205 68.4759 13.6666 68.4795 13.7152C68.4859 13.8003 68.539 13.8626 68.6023 13.9018C68.7314 13.9819 68.9018 13.9517 69.0414 13.9374C69.1331 13.928 69.1191 13.7787 69.0291 13.7799C68.9428 13.7812 68.8561 13.7843 68.77 13.7737C68.6801 13.7627 68.6291 13.7341 68.6392 13.6482L68.6859 13.6235Z" fill="#C21807"/>
<path d="M70.5272 13.5031C70.3421 13.5777 70.1584 13.6426 70.0353 13.8263C70 13.8789 70.0727 13.945 70.1046 13.8913C70.2106 13.7134 70.3834 13.6546 70.5534 13.5819C70.5983 13.5624 70.5727 13.4846 70.5272 13.5031Z" fill="#C21807"/>
<path d="M77.4923 22.538C77.1345 22.5616 76.7843 22.6233 76.4246 22.6343C75.7911 22.6539 75.0193 22.6021 74.4546 22.2063C74.4628 22.143 74.4397 22.0741 74.3698 22.0296C73.9479 21.761 73.6565 21.4303 73.3588 21.0053C73.0437 20.5555 72.675 20.1561 72.3462 19.719C72.0493 19.3243 71.814 18.8745 71.4924 18.5022C71.1304 18.0835 70.6942 17.7776 70.271 17.4435C69.5094 16.8423 68.6591 16.2596 67.8006 15.8522C66.8243 15.3888 65.6188 15.2471 64.5701 15.1728C63.6104 15.1048 62.648 15.1796 61.7198 15.4672C61.3177 15.592 60.9033 15.7714 60.536 15.9952C60.1188 16.2495 59.8141 16.6097 59.4729 16.9725C58.7807 17.7081 58.2449 18.4325 57.8772 19.428C57.7148 19.8676 57.6035 20.331 57.5008 20.7916C57.4361 21.0813 57.3752 21.3724 57.313 21.6628C57.2588 21.915 57.3103 22.2412 57.2243 22.4768C57.2002 22.5428 57.2777 22.6041 57.32 22.5455C57.5094 22.2837 57.4533 22.0261 57.5378 21.709C57.6846 21.1581 57.8175 20.6033 57.9921 20.062C58.336 18.9967 58.8531 18.1637 59.6013 17.4071C59.9066 17.0984 60.1927 16.7605 60.5402 16.5113C60.9324 16.2301 61.4316 16.0732 61.8752 15.9352C62.8781 15.6234 64.0009 15.6615 65.0247 15.7866C66.0195 15.9082 67.0959 16.1166 67.9945 16.6233C68.8487 17.1048 69.6477 17.7069 70.4361 18.3085C71.2049 18.8952 71.7115 19.75 72.3664 20.4747C72.9388 21.1078 73.4386 22.0478 74.2358 22.3467C74.2974 22.3697 74.3516 22.356 74.3911 22.3235C74.6885 22.5461 75.0416 22.6615 75.3988 22.7494C75.7379 22.8328 76.0944 22.8332 76.44 22.8333C76.5653 22.8333 77.5572 22.6589 77.5984 22.7533C77.6614 22.8979 77.8491 22.7784 77.7685 22.6525C77.6748 22.5058 77.6646 22.5267 77.4923 22.538Z" fill="#C21807"/>
<path d="M66.8494 11.5872C66.1963 10.2976 65.2972 9.19269 65.2584 7.62993C65.2555 7.51324 65.0961 7.53016 65.0982 7.64563C65.1242 9.17176 65.9587 10.4905 66.7056 11.7015C66.7713 11.8084 66.9045 11.6961 66.8494 11.5872Z" fill="#C21807"/>
<path d="M68.7248 12.3802C69.433 12.6732 70.13 12.9989 70.8441 13.2739C71.5412 13.5425 72.2675 13.7106 72.9836 13.9018C73.5197 14.0448 74.1308 14.4043 74.6899 14.3042C74.8379 14.2777 74.8189 14.0445 74.6697 14.0457C74.1056 14.0504 73.5693 13.7876 73.0255 13.6463C72.3752 13.4774 71.723 13.3247 71.0819 13.1141C70.4191 12.8965 69.7753 12.5973 69.1272 12.3317C68.8006 12.1979 68.4721 12.0708 68.1413 11.9508C67.8524 11.846 67.544 11.7895 67.2963 11.58C67.2194 11.5151 67.1234 11.6417 67.2 11.7087C67.6181 12.075 68.2348 12.1774 68.7248 12.3802Z" fill="#C21807"/>
<path d="M48.3547 20.5154C48.2489 20.498 48.2212 20.671 48.3248 20.6977C48.4791 20.7374 48.5407 21.0707 48.518 21.2178C48.4945 21.369 48.7076 21.4117 48.7262 21.2607C48.7582 20.9976 48.6233 20.5597 48.3547 20.5154Z" fill="#C21807"/>
<path d="M49.0015 20.5392C49.0717 20.7394 49.0932 20.9295 49.0856 21.1437C49.0804 21.2892 49.2845 21.2695 49.2876 21.1238C49.2927 20.891 49.2625 20.6791 49.1835 20.4632C49.1362 20.3343 48.9556 20.4082 49.0015 20.5392Z" fill="#C21807"/>
<path d="M49.8855 20.5577C49.8416 20.514 49.7845 20.531 49.7461 20.5713C49.7234 20.5952 49.7005 20.6191 49.6778 20.643C49.5983 20.7264 49.7231 20.8769 49.8066 20.7998L49.813 20.7939C49.8265 20.8131 49.8392 20.833 49.8494 20.8549C49.8734 20.9069 49.9193 20.9404 49.9728 20.9182C50.0187 20.8992 50.0516 20.833 50.0293 20.7799C49.9938 20.6955 49.9481 20.6202 49.8855 20.5577Z" fill="#C21807"/>
<path d="M50.5612 21.1628C50.5268 21.1242 50.4646 21.1361 50.4355 21.1752C50.4022 21.2196 50.4122 21.2775 50.4465 21.3161L50.5407 21.4216C50.5751 21.4602 50.6373 21.4483 50.6664 21.4092C50.6997 21.3647 50.6898 21.3068 50.6554 21.2683C50.6239 21.2331 50.5925 21.1978 50.5612 21.1628Z" fill="#C21807"/>
<path d="M72.8921 22.5131V22.8295C72.8921 22.9538 73.0802 22.936 73.0802 22.8127V22.4963C73.0802 22.372 72.8921 22.3898 72.8921 22.5131Z" fill="#C21807"/>
<path d="M73.7351 22.762C73.6668 22.762 73.6766 22.88 73.7443 22.88C73.8126 22.88 73.8028 22.762 73.7351 22.762Z" fill="#C21807"/>
<path d="M77.7548 17.9881C77.0916 18.2002 76.3959 17.6518 75.8531 17.2794C75.5412 17.0654 75.244 16.8242 74.9364 16.6025C74.8416 16.5341 74.7451 16.4708 74.648 16.4068C74.6385 16.4005 74.0307 16.0672 74.2549 16.0221C74.8074 15.911 75.5492 16.1616 76.0541 16.3698C76.7208 16.6449 77.2396 17.1681 77.7351 17.7198C77.8049 17.7974 77.9016 17.6664 77.8328 17.5892C77.2298 16.9112 76.6288 16.385 75.8072 16.0894C75.2985 15.9064 74.4126 15.6549 73.9145 15.9931C73.8774 16.0182 73.8753 16.0882 73.91 16.1166C74.2448 16.3909 74.6303 16.5666 74.9785 16.8219C75.2954 17.0542 75.6024 17.3021 75.9239 17.5267C76.4785 17.9141 77.138 18.3737 77.813 18.1642C77.9171 18.132 77.8583 17.9549 77.7548 17.9881Z" fill="#C21807"/>
<path d="M74.2585 15.6051C74.2897 15.6405 74.3208 15.6761 74.3519 15.7115C74.4156 15.7839 74.5074 15.6618 74.4426 15.5902C74.411 15.5554 74.3795 15.5207 74.3479 15.4858C74.2836 15.415 74.1966 15.5344 74.2585 15.6051Z" fill="#C21807"/>
<path d="M21.1709 20.5072V21.2453C21.1709 21.3314 21.3265 21.3191 21.3265 21.2336V20.4955C21.3265 20.4095 21.1709 20.4219 21.1709 20.5072Z" fill="#C21807"/>
<path d="M21.8875 20.833C21.8984 20.6497 21.895 20.466 21.895 20.2824C21.895 20.1627 21.7302 20.18 21.7302 20.2986C21.7302 20.474 21.7263 20.6499 21.7367 20.8251C21.7425 20.919 21.8818 20.9303 21.8875 20.833Z" fill="#C21807"/>
<path d="M22.348 20.6095C22.3365 20.5116 22.3111 20.4199 22.2509 20.3457C22.1854 20.265 22.0592 20.3604 22.1248 20.4457C22.1885 20.5282 22.1873 20.6265 22.1989 20.7295C22.2109 20.8357 22.2481 20.9258 22.3222 20.9947C22.4054 21.0722 22.5148 20.9258 22.4298 20.8508C22.3608 20.79 22.3589 20.7008 22.348 20.6095Z" fill="#C21807"/>
<path d="M22.9441 20.2993C22.9677 20.5095 22.845 20.6992 22.7653 20.8797C22.713 20.9983 22.872 21.0786 22.9288 20.9664C23.037 20.7522 23.1624 20.5396 23.1265 20.2815C23.1083 20.1519 22.9291 20.1673 22.9441 20.2993Z" fill="#C21807"/>
<path d="M15.9982 14.7975C14.8887 14.7249 13.7305 14.9845 12.6261 15.1034C12.0329 15.1673 11.4475 15.2695 10.8586 15.3689C10.3694 15.4514 9.88373 15.4156 9.41783 15.6139C8.67058 15.9317 8.17822 16.8833 7.81627 17.6304C7.30991 18.6756 6.98375 19.8135 6.32597 20.7629C6.26591 20.8494 6.38059 20.9582 6.44253 20.8724C6.96912 20.1435 7.31535 19.2967 7.67762 18.4578C8.07116 17.5468 8.58282 16.4243 9.39931 15.9146C9.67335 15.7435 9.87424 15.6514 10.1811 15.6509C10.4719 15.6504 10.7625 15.6066 11.0499 15.5618C11.5816 15.4788 12.1101 15.3987 12.6451 15.3455C13.7585 15.2348 14.872 15.093 15.9884 15.03C16.1046 15.0234 16.1172 14.8054 15.9982 14.7975Z" fill="#C21807"/>
<path d="M17.6837 15.0605C17.5502 15.0274 17.4348 14.9325 17.293 14.9653C17.2348 14.9787 17.2393 15.0799 17.3013 15.0712C17.4348 15.0523 17.534 15.1714 17.6631 15.1868C17.736 15.1957 17.7564 15.0787 17.6837 15.0605Z" fill="#C21807"/>
<path d="M20.1222 18.1368C19.959 17.7638 19.6909 17.4556 19.4409 17.1545C19.1159 16.7628 18.798 16.3634 18.4748 15.9694C18.3395 15.8046 18.2678 15.5426 18.0544 15.5128C18.0166 15.5075 18.0056 15.5714 18.0437 15.5783C18.2222 15.6115 18.2146 15.7754 18.2857 15.8907C18.4145 16.0993 18.5588 16.2913 18.704 16.4858C18.9379 16.7992 19.1615 17.1212 19.3983 17.4324C19.6644 17.7819 19.8858 18.1319 20.0357 18.5636C20.1593 18.9196 20.2473 19.2819 20.4112 19.6187C20.4674 19.7341 20.6342 19.631 20.5909 19.5121C20.4255 19.0569 20.3155 18.5786 20.1222 18.1368Z" fill="#C21807"/>
</svg>
