<svg width="81" height="59" viewBox="0 0 81 59" fill="none" xmlns="http://www.w3.org/2000/svg">
<path d="M24.407 9.21267C23.9792 9.03633 23.5561 8.61966 23.1926 8.30564C21.6955 7.01213 20.3055 5.54995 19.252 3.77817C18.9592 3.57326 18.4628 3.94846 18.0886 3.98832C17.6152 4.03904 17.1328 3.93679 16.6446 4.02052C15.663 4.18921 14.7557 5.21178 13.8919 5.74842C12.2314 6.78065 10.1531 7.69251 8.83672 9.29681C8.49011 9.71952 6.55806 13.9334 6.73729 14.1633C9.33598 14.6391 11.7835 15.8404 14.3182 16.6009C19.4168 18.1299 25.5327 19.8462 30.7408 20.6107C31.7699 20.7616 32.8226 20.7721 33.8531 20.9025C33.9085 20.6638 33.7648 20.6276 33.6703 20.4899C32.5069 18.787 31.1453 16.8578 29.924 15.1995C28.9 13.809 27.723 12.5147 26.6149 11.2071C26.7374 10.9832 26.8861 11.253 26.9834 11.3444C28.0354 12.3327 28.9302 13.7216 29.8666 14.8517C29.8849 13.9273 30.7785 13.5916 31.4962 13.5034C31.7602 13.4708 32.0411 13.6488 32.1819 13.6045C32.55 13.4897 32.2932 12.5545 32.749 12.6532C32.6912 12.8271 32.4724 13.7035 32.5037 13.7478C32.5191 13.7699 32.8194 13.7957 32.9599 13.9298C33.6639 14.6013 33.0867 17.3779 31.9786 17.0329C31.7056 16.9479 31.563 16.3026 31.4014 16.9797L34.3298 20.7194C34.4314 21.1558 34.0687 21.0849 34.0033 21.2053C33.9379 21.3261 33.9501 23.6405 33.9756 23.9984C33.9871 24.1582 34.0133 24.6148 34.2206 24.616C34.3057 22.9754 35.7144 21.6554 37.1666 22.0024C35.9813 21.095 35.7367 19.9911 36.0086 18.4246C35.8592 18.1895 35.3312 18.3348 35.0474 18.2588C32.6998 17.6295 33.0561 15.2591 34.1717 13.4893C34.926 12.2928 35.5841 12.03 36.7974 12.7888C36.9601 12.067 36.9256 11.3287 36.9227 10.5887C37.5344 11.1737 37.1609 12.2631 37.1605 12.9913C37.1602 13.4116 37.2503 13.7373 37.2654 14.0948C37.2755 14.336 37.1052 14.6339 37.1591 14.8944C37.1893 15.0401 37.4274 15.0389 37.4784 15.123C37.7187 15.5208 36.2985 17.1637 36.4317 17.3272C36.8434 17.0132 37.362 16.404 37.8157 16.1979C38.08 16.078 38.9155 15.9954 38.9845 15.927C39.0541 15.8581 39.1741 14.8638 39.2359 14.6202C39.2948 14.3887 39.1443 14.2357 39.497 14.3021C39.5394 14.5892 39.1964 16.1508 39.2556 16.2213C39.298 16.2716 40.0968 16.5043 40.173 17.0514L40.4776 16.6396C40.6784 18.0446 40.3767 19.4359 40.0839 20.8039C40.0462 20.9806 39.8461 21.0664 40.1701 21.0382C40.5214 20.8426 41.1083 20.0273 41.3421 19.8723C41.5009 19.7668 41.7907 19.8321 41.8231 19.7966C41.8547 19.762 41.8166 19.2684 41.8565 19.078C41.9129 18.8083 42.2929 18.177 42.1927 18.0204C42.1697 17.9842 41.6618 17.8155 41.4689 17.6609C40.6755 17.0256 41.0641 16.5075 40.9679 15.6102C40.9179 15.1452 40.7588 14.6782 40.7197 14.2245C40.6999 13.9958 40.8368 13.5264 40.7955 13.4684C40.7114 13.3512 40.4316 13.3291 40.294 13.2019C40.1105 13.0316 39.9169 12.6862 39.7369 12.5892C39.3163 12.3633 38.5398 12.5336 38.2708 11.9647L40.3562 12.2389C40.0645 11.1765 41.2861 10.323 42.067 10.0996C43.3414 9.73563 44.3891 10.2779 44.6211 11.7896C44.9961 14.2293 42.2968 14.9708 40.8486 13.6141L41.5537 16.8795C41.6047 17.0361 41.8094 17.3014 41.9495 17.1891C42.0016 17.1472 42.4305 16.2901 42.6851 16.018C43.4811 15.1681 46.5833 13.251 47.2604 14.8843C48.0725 16.8437 45.3039 18.5377 43.9153 18.8417C43.8489 18.9379 44.4954 19.516 44.6509 19.3888L44.7106 18.9786C45.9458 20.7572 45.7314 19.692 46.4246 18.8336C47.8168 17.1094 50.9758 17.1275 51.8145 19.5434C52.6952 22.0805 50.5602 22.3985 48.8836 22.5543C48.7525 22.5664 48.4719 22.473 48.5783 22.7572C48.8268 23.4211 49.8778 23.6751 50.3559 24.0665C52.4348 25.7674 53.1313 30.0074 50.0793 30.9084C49.9317 30.9519 49.5775 30.9229 49.5585 30.9426C49.5111 30.9921 49.7837 31.6012 49.3667 32.3086C48.2525 34.2003 46.0521 34.6186 44.6534 32.7957C43.5023 31.2953 44.2914 30.6922 45.1901 29.6902C45.2705 29.6004 45.2745 29.3536 45.3883 29.2248C45.5435 29.0493 45.8707 29.1245 45.8768 28.8814C43.9247 28.8777 42.9919 25.0182 44.277 23.7162C44.8988 23.0866 45.6732 23.7698 45.8373 23.2037C46.101 22.2943 45.2619 19.8341 44.341 19.5301C44.0184 19.4238 44.3007 20.3808 44.2846 20.692C44.2188 21.9774 43.7393 22.227 43.2738 23.1425C43.0116 23.6578 43.0903 24.1031 42.5526 24.6719C42.3324 24.905 41.2944 25.4212 41.7186 25.9787C41.7627 26.0367 42.693 26.3479 42.9735 26.5645C44.4825 27.7288 43.9157 29.6153 42.6251 30.6668C40.9628 32.0211 37.0987 30.6101 38.126 28.0991C38.3469 27.5597 39.2416 26.3636 39.7351 26.1905C40.3863 25.9618 41.5896 26.4953 41.336 25.3044C40.2391 25.6679 39.3023 24.3442 39.2452 23.1767C39.2104 22.4609 39.4683 21.8571 39.3738 21.1795C39.0599 21.1916 38.9388 21.5173 38.6396 21.6618C38.2909 21.8309 37.8968 21.8881 37.5344 22.0052C37.7212 22.2689 37.9913 22.3998 38.2093 22.69C39.4647 24.3632 39.0768 26.3568 37.5919 27.6386C37.376 27.825 37.0876 28.069 36.8171 28.1197C36.7604 28.1301 35.9651 28.133 35.9213 28.1221C35.5528 28.0307 34.6092 26.9095 34.4401 26.5025C34.3366 26.2533 34.2526 25.4811 34.2195 25.4417C34.0482 25.238 33.9968 25.4554 33.9749 25.6454C33.9146 26.1651 34.2831 27.2743 33.6441 27.3354C32.5895 27.2078 31.54 27.0774 30.4736 27.0867C28.1626 27.1068 25.7992 27.5911 23.4796 27.5106C20.1029 27.3934 17.122 26.391 13.9127 25.9936C12.1401 25.7742 10.4211 25.99 8.7013 25.2331C7.95887 24.9062 7.38381 24.1788 6.61372 24.2029L6.85797 23.9984C6.64606 23.7641 6.09901 23.4747 6.02251 23.1429C5.997 23.0318 5.86447 21.3003 5.86626 21.1107C5.87416 20.3381 6.25131 19.3779 6.25419 18.6336C6.26496 15.8602 5.2226 15.9499 6.46825 12.8339C8.45418 7.86642 10.1901 7.39057 14.2223 5.15904C15.121 4.66184 15.843 3.88767 16.8918 3.6127C17.3192 3.50038 18.6758 3.29346 19.0526 3.33895C19.5048 3.3933 20.1919 4.79228 20.5382 5.22708C21.7091 6.69611 23.0942 7.91836 24.407 9.21267ZM32.3812 15.6778C32.5306 15.3392 32.1384 14.2522 31.7688 14.5791C31.7236 14.619 32.2113 15.6351 32.3812 15.6778ZM33.2422 21.1799C30.8741 21.0511 28.5897 20.4086 26.2704 19.9846C20.8916 19.0011 15.5028 18.2092 10.3248 16.2656C8.96602 15.7555 7.69379 14.935 6.24843 14.716C6.70567 16.4516 6.35296 18.2664 6.49412 20.0088C6.57242 20.9742 7.35616 22.5169 6.37271 23.0354C8.65676 25.6712 11.6258 25.0556 14.5147 25.4594C19.0656 26.0951 21.6366 27.1024 26.4367 26.5448C26.7902 26.5037 27.4766 26.7356 28.0258 26.6784C28.7075 26.6072 29.3964 26.2066 30.1148 26.1321C31.0375 26.0367 32.0626 26.1969 32.9969 26.1305L33.2422 21.1799ZM42.6887 17.3288C42.5698 17.1851 42.1284 17.5872 42.5073 17.7394C42.7659 17.8433 42.7304 17.3791 42.6887 17.3288ZM48.9475 21.1779C49.6368 21.1775 50.7951 21.4098 50.7937 20.2846C50.7919 18.8421 47.6178 18.0961 46.8617 19.3228C47.1767 19.3788 47.4249 19.2193 47.7676 19.2616C48.6393 19.3691 49.2524 20.2266 48.9475 21.1779ZM43.0562 20.9037L42.9965 19.942C42.5899 20.2363 42.6499 20.6425 43.0562 20.9037ZM38.7628 20.0796L37.5366 20.7644C38.0143 20.8019 38.6289 20.6642 38.7628 20.0796ZM48.4533 23.099C48.4752 23.0632 48.4439 22.9714 48.4551 22.8998C47.9116 22.3015 47.222 22.2355 46.6106 21.6654C46.351 21.4235 46.3431 20.9202 45.8801 21.0418C46.0571 21.4585 46.0812 22.7794 46.2342 23.0213C46.301 23.1272 47.2719 23.2617 47.5909 23.5922C47.7097 23.7154 48.2891 24.9638 48.3089 25.1277C48.4252 26.0931 47.6368 28.009 46.9274 28.6116C46.7608 28.7534 46.4792 28.6487 46.4936 28.879C46.9986 28.8403 47.5007 28.9265 47.964 29.1555C47.9364 28.4357 47.7083 27.7984 48.0355 27.1027C48.0851 26.9977 49.0394 25.6611 49.1289 25.5774C49.3904 25.3326 49.8415 25.1313 50.1734 25.0278C49.8465 24.4026 47.8078 24.2782 48.0962 23.3233C48.158 23.1204 48.4371 23.1252 48.4533 23.099ZM42.0745 22.6916C41.5778 23.314 40.6101 23.149 40.3282 22.3812C40.2251 22.1006 40.3246 21.6566 40.1137 21.5922C39.9234 22.5221 39.8479 23.8929 40.919 24.0592C41.8019 24.1961 41.9122 23.5093 42.0745 22.6916ZM45.3887 23.6554C44.9257 23.6361 44.3643 24.0467 44.4085 24.6168C44.9473 24.3599 45.2206 24.3563 45.3887 23.6554ZM45.2659 25.7158C44.9749 25.3922 45.0511 25.0214 44.9598 24.6176C44.6017 24.9095 44.8022 25.7078 45.2659 25.7158ZM46.9838 26.4059C46.1879 26.7243 45.472 27.1986 44.8359 26.2678C44.6215 26.5947 45.3934 27.6189 45.671 27.6156C46.1577 27.61 46.8269 26.926 46.9838 26.4059ZM42.5655 27.5049C42.3532 27.2586 42.3583 27.6011 42.3108 27.7014C42.1614 28.0174 42.1093 28.2731 41.8809 28.5927C41.6126 28.9679 41.1866 29.1282 41.095 29.5674C41.7509 29.5086 42.6916 29.2828 42.7013 28.4015C42.7024 28.2888 42.5935 27.5375 42.5655 27.5049ZM45.022 31.218C44.9875 33.6134 49.6422 32.9088 48.1479 30.5312C47.8164 30.4821 48.1203 30.73 48.0018 31.0372C47.4763 32.4016 45.763 32.4551 45.022 31.218Z" fill="#C21807"/>
<path d="M6.2481 24.4807C5.27435 25.7026 4.18818 26.8004 3.23994 28.0529C2.84843 28.5698 0.556115 31.7232 0.872556 32.1637C0.921405 32.2317 1.14661 32.0872 1.09417 32.3174C0.77019 32.1568 0.574797 32.6403 0.599222 32.9253C0.609638 33.0449 0.852445 33.0365 0.910274 33.1399C1.03491 33.3629 0.889076 33.6387 1.05035 33.846C1.27879 34.1387 3.37535 35.4934 3.83439 35.7805C14.9429 42.7259 28.6299 47.005 40.6989 51.5353C44.48 52.9544 47.8585 54.9298 51.9553 55.1468C53.8568 55.2475 54.2193 55.1336 55.4473 53.5627C57.7015 50.6781 59.5682 46.9772 61.8911 44.0069C62.052 43.8012 63.0344 42.6212 63.1206 42.6373C63.1963 42.6514 63.3109 42.8338 63.2937 42.9622C63.2696 43.1417 62.1242 44.5323 61.9058 44.8483C59.9669 47.6531 58.078 51.0735 56.0612 53.7004C54.1711 56.1622 53.021 55.9021 50.2381 55.5595C47.2367 55.1899 44.9469 53.9435 42.1715 52.9109C32.0885 49.1592 21.661 45.5017 11.9322 40.7327C9.18695 39.3868 6.04445 37.8586 3.46659 36.1935C2.58156 35.6219 1.77447 34.8775 0.850293 34.3827C1.02055 35.3984 0.578383 36.1794 0.610709 37.1259C1.34129 37.2165 2.08983 37.6102 2.77335 37.9335C7.71536 40.2705 12.1024 43.4022 17.1055 45.5243C20.1715 46.8246 23.3503 47.9353 26.4023 49.2695C28.0545 49.9917 29.5175 51.1866 31.1866 51.7462C32.8194 52.2937 34.615 52.4483 36.2895 52.9032C38.0854 53.3908 39.848 54.2764 41.6823 54.5603C42.1924 54.6392 44.8697 54.6843 45.026 54.8006C45.3463 55.0398 45.0475 55.4665 44.7088 55.5526C41.1816 56.4492 38.4622 54.3622 35.3007 53.3235C33.7738 52.8219 32.1708 52.6275 30.6643 52.0566C29.5027 51.6162 28.5103 50.8484 27.3868 50.3669C25.9989 49.7723 24.4968 49.5163 23.0859 48.999C18.2348 47.2199 13.736 44.4763 9.15498 42.0592C6.20393 40.502 3.08836 39.3325 0.168558 37.6912C-0.156144 37.3353 0.0819991 35.5027 0.116481 34.865C0.154195 34.1697 0.16425 33.7366 0.175026 33.0803C0.210585 30.9011 3.78195 26.6917 5.26645 25.2344C5.52147 24.9815 5.92268 24.5898 6.2481 24.4807Z" fill="#C21807"/>
<path d="M63.5495 41.8068L64.1623 40.7085C63.3437 40.7117 62.6293 40.9573 62.6886 39.7443C62.0805 40.0281 61.1778 41.1373 60.5396 41.1308C59.9857 41.1252 59.3913 39.9359 59.0145 39.5318C58.0368 38.4818 56.8834 37.7769 55.8824 36.8533C55.2333 36.2547 53.9166 34.4153 53.1375 34.3179C51.8426 34.156 49.4835 35.71 48.2131 36.1021C46.9743 36.4846 45.5329 36.4757 44.2843 36.9947C44.0613 37.2692 45.5124 38.6698 45.697 38.917C47.2419 40.9887 47.4667 44.0089 49.6387 45.3487L57.7778 42.279C57.8026 42.1465 57.4402 41.4456 57.3421 41.2677C56.3849 39.5301 53.358 37.204 53.0208 35.3791C52.9346 34.9121 53.0452 34.4914 53.5305 34.6709C53.6766 34.7249 54.3548 36.2813 54.594 36.6456C55.3558 37.8051 56.5023 38.7701 57.2696 39.973C57.8277 40.8478 58.9645 42.7009 58.1413 43.6542C58.003 43.8145 56.2732 44.8696 56.0063 44.9747C54.8436 45.4324 53.5599 45.5681 52.3746 45.8552C51.8419 45.9844 50.666 46.823 50.1581 46.6889C49.8614 46.6108 49.7781 46.2018 49.5564 46.0053C47.355 44.0548 47.3575 42.6659 45.98 40.2496C45.5634 39.5189 43.6051 37.6573 43.8059 36.9476C43.9701 36.367 47.7318 35.6798 48.3877 35.4725C49.9228 34.9878 51.4044 34.0196 53.1185 34.1037C50.0007 31.2912 55.3192 31.2763 56.6866 30.0283C56.8385 29.2062 54.8318 26.6386 55.5214 26.1124C55.6931 25.9815 56.9459 25.7428 57.2308 25.7178C57.8963 25.6595 58.6377 25.8571 59.1919 25.8257C60.8808 25.7299 62.861 25.1707 64.4744 25.1607C64.7323 25.1591 65.5742 25.2573 65.793 25.331C66.1382 25.4473 66.5272 27.1245 66.7164 27.5963C67.6683 29.9687 68.6586 32.3686 69.4965 34.7949C69.7462 35.5176 70.4121 37.1658 69.7275 37.6617L64.7341 40.4541C64.4672 40.4827 63.7654 42.0531 63.5495 41.8068ZM65.6177 25.736C65.3203 25.6977 65.0373 25.5846 64.7327 25.589C63.1587 25.612 61.1789 26.2287 59.5594 26.403C58.4215 26.5258 57.2214 26.3068 56.0634 26.6808L57.0472 29.8431C57.5943 29.5166 58.3011 29.445 58.8496 29.1833C59.179 29.0263 59.7224 28.4381 59.9925 28.5194L67.0422 35.2088C67.1392 35.433 67.1464 35.6983 67.0825 35.9338C66.9029 36.5945 63.4227 38.9428 62.8128 39.6767C63.1742 39.6348 63.2518 40.105 63.3714 40.1397C63.8749 40.2858 66.1996 38.7113 66.8174 38.3888C67.2261 38.1754 69.6506 37.2084 69.6883 37.0389C70.013 35.5767 67.4844 31.4664 66.84 29.9357C66.2811 28.6088 65.7862 27.1986 65.6177 25.736ZM60.3787 40.4118C60.7856 40.6743 61.6412 39.411 61.9641 39.1372C63.3466 37.9653 65.0265 37.0526 66.4345 35.8972C66.6489 35.7241 66.6848 35.4838 66.5009 35.2688L59.7896 29.0271C59.3866 29.3145 59.0005 29.6 58.5619 29.823C57.7584 30.232 56.6313 30.8758 55.8522 31.187C55.345 31.3895 53.3085 31.7526 53.1177 31.972C52.8555 32.2739 52.8875 32.997 53.1727 33.2909C55.1471 35.6162 57.9071 37.1621 59.8075 39.4681C59.9595 39.6521 60.3345 40.3836 60.3787 40.4118ZM53.6095 44.6969C52.584 44.9852 51.5643 45.3709 50.5665 45.7602C50.3675 45.8379 50.2385 45.6893 50.2985 46.0705C51.2978 45.7288 52.292 45.335 53.2747 44.9369C53.4029 44.8849 53.6386 44.8885 53.6095 44.6969Z" fill="#C21807"/>
<path d="M36.2209 3.94775C36.251 3.99163 36.5377 4.13817 36.5524 4.12569C36.7241 3.36602 36.9533 2.93364 37.6213 2.66552C38.2039 2.43202 38.5954 2.62526 39.0617 2.60513C39.497 2.58621 39.9366 2.01132 40.4154 2.61761C40.7581 3.0516 40.9319 5.09592 40.8213 5.67605C40.7721 5.93491 40.4524 6.33589 40.4908 6.51786C40.562 6.85522 41.6047 6.87817 41.5957 8.18375C41.591 8.88828 40.951 10.0103 40.3382 10.2228C39.3896 10.5522 38.2815 9.86978 37.2909 9.90239L37.5976 11.1387L35.574 8.11491C35.5567 8.56742 35.0823 9.09883 35.0255 9.47243C34.981 9.76511 35.1465 10.0787 35.0532 10.4869C34.7522 11.8026 32.7253 12.2056 31.7124 12.245C29.7193 12.3227 28.7904 10.5546 30.6779 9.29811C31.4394 8.79126 31.9958 8.7212 32.782 8.49334C33.1222 8.39511 33.6365 7.93576 33.9763 8.17812C34.0557 8.23489 34.6081 9.20391 34.8373 9.01268C35.6663 7.91402 35.774 6.45344 35.5707 5.08787C34.8958 5.91357 34.2608 6.48847 33.1739 6.33146C32.9638 6.30127 32.1603 5.80327 32.0752 5.6378C31.9272 5.35076 32.1416 4.81009 31.8133 4.69374C31.712 4.65791 30.6453 4.5303 30.4869 4.53311C29.0178 4.56129 26.1594 6.83509 25.0776 7.9736C24.9626 8.09438 24.7575 8.70269 24.6516 8.17893C24.5804 7.82747 27.7779 5.02346 28.2682 4.6712C29.4873 3.79557 29.7272 3.67963 31.2214 3.7058C31.499 3.71063 31.8101 3.90105 32.0479 3.8306C32.2979 3.75652 32.7102 3.02583 33.0051 2.82897C33.7238 2.34869 34.4627 2.41471 35.204 2.74885C35.2698 2.6788 34.9436 1.8527 34.8621 1.68965C34.7428 1.45172 33.634 0.0978282 33.7328 0C34.5514 0.183579 35.2557 1.15381 35.5963 1.96703C35.7963 2.4445 36.0039 3.63051 36.2209 3.94775ZM36.3092 4.74447C36.3369 5.42685 36.3092 6.12332 36.3092 6.80731C36.3092 7.06819 36.0467 7.25781 36.278 7.80653C36.7629 8.95712 37.5103 7.49694 37.9044 7.01585C36.9145 6.54362 36.3936 5.61284 36.4314 4.39985C35.9576 4.33947 36.3038 4.6092 36.3092 4.74447ZM30.9096 9.90239C30.6665 9.60246 29.989 11.0932 30.7289 11.274C31.0989 11.3646 30.8126 10.7369 30.8105 10.5196C30.8083 10.3183 30.9412 10.1162 30.9096 9.90239ZM34.2227 10.0397C34.0374 9.83194 33.6998 10.4487 34.0392 10.4487C34.1204 10.4491 34.2931 10.1186 34.2227 10.0397Z" fill="#C21807"/>
<path d="M75.0818 22.9667C75.1421 22.947 75.4323 22.9562 75.4453 22.9711C75.4341 23.2763 75.5498 23.5637 75.5713 23.8628C75.6252 24.6137 75.5225 26.4885 75.3659 27.2047C75.1594 28.1504 74.1784 29.0256 73.6806 29.8541C73.2683 30.5409 71.2619 34.223 71.185 34.758C71.1221 35.194 71.1264 35.7854 71.3463 36.1618C71.4526 36.3438 73.9302 37.8499 74.32 38.0552C76.683 39.3004 78.8015 39.4288 80.1606 42.3733C81.5719 45.4313 78.8694 48.5152 76.2161 48.9238C73.9363 49.2748 68.4473 47.0034 66.2426 45.8706C65.6449 45.5634 65.2674 44.8589 64.4618 45.3762C64.122 45.5944 62.1486 47.9217 61.7676 48.4072C61.4303 48.8368 59.7396 51.5611 59.5607 51.5696C59.3854 51.578 59.3722 51.2161 59.4307 51.0152C59.5126 50.7346 60.4454 49.305 60.6749 48.9705C61.8038 47.3255 63.2747 45.9611 64.3734 44.2888C65.8482 43.9571 66.3683 44.815 67.4728 45.4547C69.4239 46.5852 73.714 48.4258 75.8483 48.0985C78.0799 47.7563 80.8187 45.5107 79.4757 42.7288C78.1503 39.9828 76.0641 39.7416 73.853 38.4412C73.3656 38.1546 71.1261 36.7025 70.9271 36.3575C70.6491 35.8764 70.6196 35.1763 70.6958 34.6203C70.8276 33.6561 72.787 30.2124 73.3861 29.2474C73.9744 28.2997 74.8436 27.7329 74.9586 26.4716C75.0606 25.3399 74.9413 24.1656 75.0818 22.9667C74.8778 23.0327 73.2083 26.4213 72.8505 26.9982C71.8689 28.5807 70.6394 29.962 69.7213 31.5997L69.3151 31.7668L74.826 22.0524C74.8903 21.645 73.617 21.0335 73.3239 20.8797C67.2731 17.7089 60.9393 16.194 54.8037 13.4447C52.1838 12.2708 49.7999 10.2732 47.0173 9.86656C46.4595 9.78524 46.8474 9.25382 47.2964 9.2196C48.3589 9.13908 52.1949 11.7414 53.4428 12.3569C58.2623 14.7354 63.5513 15.8333 68.4164 17.9911C69.6735 18.5487 74.085 20.4493 74.8785 21.2001C75.6999 21.9775 75.1737 22.1828 75.0818 22.9667Z" fill="#C21807"/>
<path d="M35.5729 29.4318C35.2231 29.974 36.0215 31.212 36.4342 31.4221C36.8081 31.6126 37.6023 31.4483 38.0753 31.5083C39.163 31.6464 40.776 32.6665 41.4599 33.6283C44.7856 38.3056 37.9015 40.1764 36.0129 37.3957C35.2468 36.2677 34.6775 34.142 35.218 32.8147C35.3269 32.5478 35.9185 31.7784 35.9181 31.6983C35.9167 31.5542 34.3147 29.3992 35.5729 29.4318ZM37.0448 32.3187C37.0204 32.2917 36.7762 32.3328 36.6774 32.3195C36.7356 32.4294 36.9913 33.0011 37.0441 32.8674C37.028 32.7354 37.075 32.3521 37.0448 32.3187ZM39.8454 36.5575C39.7786 36.6062 38.9729 36.6739 38.8282 36.6465C37.6149 36.4182 37.0581 34.8735 36.3103 33.9685C36.0363 36.5463 37.9805 37.6151 40.0078 37.465C41.2365 37.374 41.7803 36.0338 41.155 34.9319C40.9165 35.5354 40.3799 35.5358 39.868 35.3445C39.9521 35.6175 40.0742 36.3909 39.8454 36.5575Z" fill="#C21807"/>
<path d="M20.2823 33.2308C19.0686 31.5222 20.1224 29.5894 21.6242 28.7182C22.3724 28.2842 24.1324 27.8929 24.9535 28.062C25.318 28.1369 26.0235 28.8913 26.2289 29.2444C26.9951 30.5608 26.1179 31.8467 25.2074 32.7344C23.8759 34.0335 21.6069 35.0951 20.2823 33.2308Z" fill="#C21807"/>
<path d="M34.9584 28.1934C35.2644 28.8556 34.017 30.1793 34.0184 30.4603C34.0188 30.528 34.2228 30.7916 34.2368 31.1463C34.3212 33.2909 32.8561 34.7016 31.3604 35.6428C30.465 36.2064 27.2036 37.7729 26.9773 35.8324C26.5836 32.4559 28.9618 29.8552 31.9423 30.2667C32.2519 30.3094 33.0105 30.5066 32.6873 30.9454C31.0479 30.3669 29.4453 31.3839 28.4589 32.803C27.5085 34.1706 26.8926 37.0321 29.3142 35.4137C29.1062 35.0039 28.4166 34.2217 28.4755 33.7933C28.5556 33.2104 30.7868 31.71 31.1571 31.0139C31.8849 30.6367 31.8759 31.5066 32.1776 31.4797C32.2713 31.4712 33.652 30.4837 33.7759 30.3734C34.3183 29.8907 34.3715 29.162 34.5931 28.5388C34.6692 28.3262 34.6911 28.1398 34.9584 28.1934Z" fill="#C21807"/>
<path d="M44.2523 48.03C44.8105 49.2841 42.7082 48.5441 42.1461 48.3992C40.408 47.9507 38.509 47.2752 36.7734 46.7196C34.8654 46.1089 30.5136 44.9925 29.2043 43.6511C29.0686 43.5118 28.8962 43.4486 28.9479 43.1837C29.4734 43.0722 29.811 43.5662 30.2323 43.7369C31.863 44.3971 33.7466 44.3923 35.4768 44.8725C38.4289 45.6918 41.2848 47.2285 44.2523 48.03Z" fill="#C21807"/>
<path d="M77.8079 44.5891C78.0956 44.4132 78.3344 44.4896 78.2522 44.8777C78.0539 45.8129 76.583 46.6423 75.7634 46.6254C74.8044 46.6052 72.0458 45.9993 71.0293 45.7316C68.635 45.1012 67.0614 43.5552 64.4753 43.8761C64.1456 43.9172 64.0073 44.2884 63.6251 43.9953C63.0185 43.5299 64.17 42.7368 64.7066 42.7742C65.1369 42.8044 65.4024 43.2746 65.6904 43.3938C67.9648 44.3342 70.5391 44.8161 72.9208 45.2618C74.0666 45.4764 75.9426 46.2731 76.9681 45.6398C77.3032 45.4333 77.7418 44.6298 77.8079 44.5891Z" fill="#C21807"/>
<path d="M77.0045 44.2364C76.1065 45.4027 73.154 44.7734 73.3893 42.8756C73.5272 41.7629 74.002 41.8341 74.7394 41.6292C74.8709 41.5926 74.9855 41.4352 75.15 41.4026C76.5763 41.12 78.0123 42.9268 77.0045 44.2364ZM76.4308 43.3205C76.1791 42.1619 74.9054 41.3575 74.1019 42.4284C74.0764 42.7871 74.1525 42.5685 74.3167 42.5318C75.5235 42.2629 75.5419 42.3692 76.4308 43.3205ZM75.5724 43.4606C75.446 43.2915 74.4187 42.7186 74.2244 42.9086C74.0954 43.7472 76.0124 44.0488 75.5724 43.4606Z" fill="#C21807"/>
<path d="M43.1668 44.1339C43.0106 44.2644 42.0139 43.8324 41.7664 43.7358C39.2058 42.7357 36.7058 41.5417 34.1829 40.4346L34.0996 40.0207C34.9408 39.9567 35.7062 40.5441 36.4907 40.8476C38.0808 41.4632 39.7941 41.8827 41.3375 42.5667C41.6475 42.7039 43.2405 43.4536 43.2872 43.6814C43.3001 43.7446 43.1866 44.1174 43.1668 44.1339Z" fill="#C21807"/>
<path d="M23.7873 41.5294C22.514 41.0741 20.9368 40.9102 19.7109 40.4014C19.0694 40.1349 18.7185 39.6634 18.1779 39.3692C17.3274 38.9062 16.1701 38.9223 15.5728 37.9585C16.0102 38.0141 16.3561 38.3188 16.7961 38.4424C18.1283 38.8164 18.7544 39.0785 19.9925 39.5358C20.662 39.783 23.6307 40.4549 23.8624 40.9855C23.9468 41.1788 23.8045 41.3475 23.7873 41.5294Z" fill="#C21807"/>
<path d="M57.9033 54.0482C58.0265 54.1995 57.7894 54.4781 57.7248 54.6029C57.441 55.15 55.5507 58.0185 55.1954 58.2306C55.0586 58.3123 54.7741 58.4041 54.6211 58.4146C53.9494 58.4593 52.1876 58.3667 51.517 58.2492C50.9021 58.1417 48.0006 57.1626 47.473 56.8679C47.1601 56.6932 46.9705 56.4584 46.7402 56.179C47.1393 55.6698 47.0603 56.1585 47.1914 56.2475C48.1615 56.9061 51.4567 57.4146 52.6872 57.6247C53.513 57.7656 54.727 58.3723 55.3254 57.6904C56.037 56.8796 56.7338 55.2644 57.4859 54.3356C57.5585 54.2466 57.7812 53.8984 57.9033 54.0482Z" fill="#C21807"/>
<path d="M4.77441 31.0818C4.64007 31.3093 4.18211 31.5037 4.41809 31.8938C4.4612 31.9647 5.59765 32.2123 5.88607 32.3793C6.29554 32.6161 6.41084 33.0331 6.58792 33.1406C7.12059 33.4639 8.01424 33.0947 8.61443 33.447C8.94129 33.639 8.96967 34.036 9.35041 34.2723C10.114 34.7469 11.6524 34.7981 12.4164 35.2369C12.7727 35.4414 12.7382 35.8476 12.2867 35.8073C11.7174 35.7566 9.04761 34.9845 8.65646 34.6382C8.40539 34.416 8.35618 34.0166 8.31559 33.9889C8.12056 33.8536 6.70071 33.9784 6.19713 33.5436C5.96941 33.3467 6.00389 33.021 5.75641 32.7996C5.35915 32.4445 4.32973 32.4562 4.09411 31.9015C3.94936 31.5617 4.42348 30.9542 4.77441 31.0818Z" fill="#C21807"/>
<path d="M51.1558 15.1289C52.2649 15.5565 53.2721 16.2231 54.3741 16.6777C56.3032 17.4736 58.5743 17.7461 60.3907 18.5984C60.9302 18.8516 62.1723 19.6298 60.9392 19.7784C57.7274 18.1092 54.1083 17.4506 51.1558 15.1289Z" fill="#C21807"/>
<path d="M7.47562 27.9184C7.57583 27.8101 7.90161 27.9929 8.03271 28.0493C8.435 28.2228 11.0197 29.3762 11.0312 29.6367C11.0427 29.9056 10.6889 29.7699 10.5707 29.745C10.2144 29.6689 7.82906 28.6769 7.65485 28.4728C7.54351 28.3419 7.36894 28.0336 7.47562 27.9184Z" fill="#C21807"/>
<path d="M46.4926 8.93782C45.5595 8.56744 43.9565 8.38427 43.1447 7.80938C42.9716 7.68659 42.8099 7.42934 42.9349 7.28964C43.0553 7.15477 45.7962 8.41205 46.1223 8.59804C46.2642 8.67856 46.4621 8.72526 46.4926 8.93782Z" fill="#C21807"/>
<path d="M29.0364 28.5714C28.8543 28.7776 27.7782 29.2655 27.4747 29.3621C27.3195 29.4116 26.4876 29.7309 26.4952 29.3617C26.4991 29.1636 27.1338 29.1326 27.3173 29.0481C27.7315 28.8581 28.5192 28.127 28.7868 28.0787C29.1761 28.0082 29.2652 28.3126 29.0364 28.5714Z" fill="#C21807"/>
<path d="M53.5667 38.5233C54.5128 38.4367 52.6508 40.2311 52.3814 40.0954C52.2467 40.0278 52.0955 39.808 52.1903 39.6046C52.2295 39.5213 53.483 38.5309 53.5667 38.5233Z" fill="#C21807"/>
<path d="M51.0953 39.4729C51.6294 39.4967 50.6998 40.7777 50.1413 40.6839C49.8241 40.6308 49.4571 40.1771 49.8051 39.9464C49.9635 39.8413 50.146 40.0337 50.3299 39.9931C50.4908 39.9572 50.9829 39.4681 51.0953 39.4729Z" fill="#C21807"/>
<path d="M31.0333 6.87468C30.6795 6.83805 30.3745 6.93628 30.0523 7.08282C29.5057 7.33162 29.2294 7.90973 28.7025 8.11304C28.464 7.83968 30.5487 5.79213 31.0333 6.87468Z" fill="#C21807"/>
<path d="M57.5378 19.5285C57.609 19.4287 59.4911 20.7005 59.4972 20.8349C59.2871 21.1461 59.2896 21.0221 59.0644 20.911C58.7713 20.7661 57.9811 20.2713 57.7372 20.0599C57.5889 19.9315 57.4218 19.6912 57.5378 19.5285Z" fill="#C21807"/>
<path d="M51.6459 36.8574C51.869 37.0643 50.5159 37.7383 50.4247 37.7612C50.2469 37.8059 50.1582 37.5865 50.0544 37.4693C49.9603 37.0124 51.3507 36.7479 51.6459 36.8574Z" fill="#C21807"/>
<path d="M46.8912 37.7118C46.9864 37.6353 47.7187 37.4332 47.898 37.3965C48.1034 37.3543 48.1494 37.1699 48.3333 37.4779C48.3577 37.8136 47.0036 38.2452 46.9249 38.2323C46.7249 38.2001 46.7622 37.8156 46.8912 37.7118Z" fill="#C21807"/>
<path d="M49.561 39.3331C49.8799 39.7095 48.9899 39.9112 48.7068 39.9611C47.9892 40.0879 48.2575 39.4583 48.5369 39.3544C48.8164 39.2501 49.2531 39.3741 49.561 39.3331Z" fill="#C21807"/>
<path d="M66.8623 22.0037C66.4877 21.6631 67.8389 21.4397 67.9632 21.9353L66.8623 22.0037Z" fill="#C21807"/>
<path d="M48.4569 37.545C48.9059 37.4299 48.8955 38.2286 48.6404 38.229C48.4752 38.2298 48.4145 37.7343 48.4569 37.545Z" fill="#C21807"/>
<path d="M39.9896 13.2029H39.5V13.4766H39.9896V13.2029Z" fill="#C21807"/>
<path d="M26.4926 11.0006C26.2713 11.0457 26.0903 10.8146 26.002 10.5907C26.2232 10.5452 26.4042 10.7763 26.4926 11.0006Z" fill="#C21807"/>
<path d="M18.3944 7.01505C21.5775 10.3183 25.2013 13.136 28.333 16.5016L21.5265 10.4483C20.0079 8.8911 18.3272 7.5364 16.9232 5.84272C16.8733 5.50294 17.1369 5.62734 17.296 5.70061C18.7493 6.36689 23.8641 10.9391 25.1445 12.307C25.4725 12.6573 25.7279 13.0003 25.0231 12.8562C23.2707 11.2913 21.4687 9.80014 19.802 8.11773L18.3944 7.01505Z" fill="#C21807"/>
<path d="M23.7939 16.7792C23.8284 17.0247 23.7821 17.3287 23.5123 17.3073C23.2358 17.2856 21.9517 16.7244 21.5871 16.569C18.5491 15.2747 15.3596 13.2739 12.5457 11.4377C11.9279 11.0343 11.1514 10.5753 10.665 10.0403C15.1642 11.9618 19.1888 15.1161 23.7939 16.7792Z" fill="#C21807"/>
<path d="M26.9835 16.7766L26.1258 16.0209L26.3068 15.9549L31.8102 19.6889L31.9539 20.0778L27.3495 16.9835C26.6401 17.2722 25.6236 16.6111 24.9376 16.2524C22.6119 15.0362 20.4273 13.2934 18.0617 12.1299L17.8437 12.2398C19.2962 13.1738 20.8224 14.0169 22.2419 15.0104C22.3665 15.0978 22.6194 15.2951 22.262 15.2637C21.7279 14.6992 17.1875 12.227 17.1699 11.8964C17.1476 11.4737 18.0068 11.8976 18.1088 11.9415C20.4198 12.9327 22.5946 14.6296 24.814 15.8406C25.4695 16.1968 26.2867 16.6659 26.9835 16.7766Z" fill="#C21807"/>
<path d="M17.4136 15.264C15.9161 14.8308 14.4607 14.1738 13.0358 13.5019C11.8441 12.9403 10.2881 12.2027 9.18968 11.4813C9.11533 11.4326 8.72885 11.3622 8.94867 11.1395C9.09055 10.9954 12.005 12.747 12.4227 12.9516C13.9388 13.6943 15.5311 14.2422 17.0177 14.9524C17.1693 15.0249 17.3798 15.0257 17.4136 15.264Z" fill="#C21807"/>
<path d="M24.1627 16.3637C23.6545 16.2176 23.0615 15.821 22.6904 15.4036C23.1983 15.5501 23.7913 15.9466 24.1627 16.3637Z" fill="#C21807"/>
<path d="M28.9472 17.0513C28.7259 17.0964 28.5449 16.8653 28.4565 16.6414C28.6778 16.5963 28.8588 16.8274 28.9472 17.0513Z" fill="#C21807"/>
<path d="M31.524 23.928C31.2927 24.2336 28.7895 23.4119 28.8276 22.897C28.8391 22.7396 29.0945 22.6872 29.2414 22.6957C29.3822 22.7037 31.3103 23.3712 31.3975 23.4517C31.524 23.5685 31.5919 23.8382 31.524 23.928Z" fill="#C21807"/>
<path d="M30.4194 22.2797C30.5814 22.4605 30.2053 23.0954 30.053 22.6215C29.9226 22.2157 30.3271 22.1763 30.4194 22.2797Z" fill="#C21807"/>
<path d="M28.2105 22.8298C28.3172 23.2731 27.8137 23.174 27.5981 22.8971L28.2105 22.8298Z" fill="#C21807"/>
<path d="M60.8493 35.3437L60.8472 34.5849C61.3683 34.6678 62.2871 33.9464 61.9639 35.0072C61.7677 35.1706 61.5027 34.9363 61.3324 35.0048C61.1891 35.0619 61.113 35.4319 60.8493 35.3437Z" fill="#C21807"/>
<path d="M60.2216 31.9189C60.6055 32.2454 59.9242 32.7813 59.7456 32.2482C59.6056 31.8304 60.0721 31.7917 60.2216 31.9189Z" fill="#C21807"/>
<path d="M59.2523 33.5566C59.3417 33.6283 59.4049 34.1899 59.0716 34.1058C58.7257 34.018 58.8661 33.2482 59.2523 33.5566Z" fill="#C21807"/>
<path d="M63.9172 27.5057C63.9491 27.5424 63.9495 27.8427 63.8435 27.9297C63.7573 28.0005 61.9043 28.8298 61.8314 28.7421C61.2836 28.0818 63.706 27.2642 63.9172 27.5057Z" fill="#C21807"/>
<path d="M64.7157 29.2961C65.3902 29.8288 63.7847 30.8767 63.7901 30.047C63.7922 29.6565 64.4815 29.5514 64.7157 29.2961Z" fill="#C21807"/>
<path d="M63.793 28.7441C64.1525 29.2941 62.1842 29.3194 62.8842 28.7317C63.0556 28.5875 63.7053 28.6105 63.793 28.7441Z" fill="#C21807"/>
</svg>
