<svg width="306" height="178" viewBox="0 0 306 178" fill="none" xmlns="http://www.w3.org/2000/svg">
<path d="M184.028 0.425369C183.762 0.796539 183.55 2.81154 183.603 4.87955C183.709 8.4323 183.656 8.75046 182.49 9.28072C181.323 9.75795 181.27 10.0761 181.535 12.0911C182.172 16.2802 182.172 20.3102 181.535 20.045C180.899 19.8329 176.551 24.2871 176.551 25.1886C176.551 25.4537 176.18 25.7188 175.756 25.7188C174.589 25.7188 173.794 27.6808 173.741 30.5972C173.687 32.8773 173.581 33.1425 172.521 33.1425C170.612 33.1425 169.658 33.7258 169.658 34.7863C169.658 35.6347 170.082 35.7938 172.468 35.7938C174.059 35.7938 175.437 35.9529 175.596 36.1119C175.756 36.271 175.543 37.1194 175.119 37.9678C174.695 38.8693 174.218 41.4676 174.059 43.8007C173.847 46.7171 173.528 48.1488 173.051 48.3609C172.044 48.7321 172.097 49.5806 173.104 49.5806C174.165 49.5806 174.112 50.482 173.051 51.0653C172.468 51.3834 172.309 51.8076 172.627 52.2849C173.051 53.0272 173.051 55.5725 172.521 58.0647C172.309 59.2843 172.097 59.3904 169.658 59.2313C168.067 59.0722 167.006 59.2313 167.006 59.5495C167.006 60.3448 167.589 60.61 170.188 60.9281C171.46 61.0872 172.68 61.5114 172.892 61.8826C173.369 62.678 173.847 65.5944 174.059 69.2002C174.165 71.4803 174.271 71.5864 175.915 71.7455C176.816 71.8515 177.611 72.1697 177.611 72.4878C177.611 72.806 176.922 72.912 176.021 72.806C175.172 72.6469 174.43 72.7529 174.43 72.965C174.43 73.6014 175.649 74.2377 176.71 74.0786C177.717 73.8665 177.771 74.6089 177.771 88.1305C177.771 93.3271 177.93 95.183 178.407 95.183C178.831 95.183 179.149 93.3271 179.361 88.9259C179.785 81.078 180.104 79.6463 181.27 80.0705C182.013 80.3887 182.013 80.2826 181.217 79.4873C180.051 78.3207 179.202 78.957 179.149 81.025C179.096 82.6688 179.096 82.6688 178.619 80.6008C178.301 79.4342 178.142 77.5253 178.248 76.3587L178.407 74.2377L181.27 74.2907C183.338 74.3968 184.293 74.6619 184.611 75.2982C184.929 75.7754 185.618 76.3587 186.255 76.5708C187.315 76.995 187.368 77.3132 187.315 84.3657V91.7363L187.633 84.8429C187.792 81.025 188.164 77.6313 188.376 77.2602C188.694 76.7829 191.186 76.6238 197.814 76.6238H206.776V85.108V93.6452L197.443 98.0994C192.3 100.592 188.058 102.607 188.005 102.607C188.005 102.607 188.005 100.751 188.005 98.5236L188.111 94.3876L187.739 98.1524C187.58 100.22 187.103 102.342 186.679 102.819C186.255 103.296 183.391 104.993 180.316 106.531C177.24 108.068 171.036 111.409 166.582 113.901C159.848 117.719 154.121 120.636 153.485 120.636C153.378 120.636 153.432 120.158 153.591 119.575C153.962 118.09 153.325 115.863 152.477 115.863C151.735 115.863 150.886 119.469 151.364 120.742C151.788 121.802 148.977 123.075 148.341 122.12C148.129 121.749 147.97 121.06 147.97 120.636C148.023 120.211 148.023 118.833 147.97 117.56C147.917 115.386 147.811 115.28 146.485 115.333C145.637 115.386 143.887 115.439 142.508 115.386C140.334 115.333 139.963 115.174 139.963 114.272C139.963 113.689 139.592 113.212 139.167 113.212C138.743 113.212 138.372 113.689 138.372 114.219C138.372 115.068 137.948 115.333 136.145 115.492L133.865 115.704L136.145 115.757C138.796 115.863 139.433 116.924 139.433 121.166C139.433 125.779 142.455 137.074 143.675 137.074C144.364 137.074 144.735 134.846 144.205 133.945C143.781 133.256 143.728 133.256 143.675 133.892C143.675 134.316 143.197 133.733 142.614 132.566C141.236 129.809 140.175 123.87 140.387 119.681L140.546 116.393H142.826C144.205 116.393 145.372 116.712 145.796 117.189C146.114 117.613 146.644 119.575 146.856 121.643C147.44 126.203 149.614 135.43 149.932 134.528C150.038 134.157 150.462 133.892 150.833 133.892C151.417 133.892 151.47 133.521 151.045 132.195C150.78 131.241 150.515 129.279 150.515 127.794C150.462 126.362 150.303 125.673 150.197 126.309C149.879 127.953 149.189 127.847 149.242 126.203C149.295 125.461 149.826 124.453 150.462 124.029C151.629 123.234 151.629 123.234 151.629 126.574C151.682 130.18 152.424 136.968 152.848 137.445C153.007 137.604 153.644 137.551 154.227 137.339C155.128 137.074 155.34 136.596 155.34 134.528L155.287 132.036L154.545 133.627L153.75 135.218L154.015 133.627C154.174 132.725 154.068 130.18 153.856 127.9C153.378 123.234 153.644 122.385 155.181 123.234C156.136 123.711 156.295 124.506 156.507 130.286C156.666 133.892 156.984 137.233 157.196 137.71C157.515 138.558 157.196 138.664 153.644 138.664C151.47 138.664 146.75 138.505 143.251 138.293L136.781 137.975V136.596L136.728 135.218L136.039 136.49C135.191 138.028 134.978 137.763 133.653 132.832C132.804 129.756 132.539 127.37 132.592 122.226C132.592 118.037 132.804 115.969 133.069 116.659C133.494 117.666 133.547 117.666 133.547 116.499C133.6 115.863 133.123 114.856 132.486 114.219C131.426 113.159 131.373 113.159 130.683 114.06C130.153 114.856 130.153 115.227 130.736 116.128C131.161 116.765 131.585 119.575 131.744 123.022C132.062 128.483 133.069 135.059 133.865 137.18C134.183 138.028 133.865 138.134 131.001 138.134C128.032 138.134 126.971 137.604 128.297 136.808C128.615 136.649 128.827 135.483 128.774 134.263L128.721 132.036L128.297 133.786C128.085 134.74 127.767 135.695 127.555 135.854C127.237 136.172 127.131 135.96 125.911 131.771C124.903 128.271 124.108 115.545 124.957 116.022C125.858 116.606 128.721 115.333 130.471 113.636C131.32 112.735 131.903 111.886 131.744 111.674C131.532 111.515 130.789 112.045 130.1 112.841C129.358 113.742 128.085 114.484 127.025 114.644C124.479 115.015 123.843 113.636 124.214 108.864C124.585 104.834 123.949 102.288 122.464 101.811C121.722 101.599 120.502 102.448 117.851 105.152C115.889 107.167 113.556 109.235 112.761 109.765C110.852 110.985 110.586 110.561 109.738 106C109.155 102.448 109.526 99.7962 111.117 95.9784C112.654 92.2665 113.874 92.0014 119.018 94.3876C120.502 95.0769 123.26 96.3496 125.169 97.198C127.131 98.0994 129.623 99.372 130.736 100.061C133.6 101.811 140.97 104.94 141.395 104.569C142.031 103.879 140.97 102.607 139.751 102.607C139.008 102.607 134.395 100.592 129.517 98.1524C124.585 95.7132 118.752 93.0619 116.472 92.2665L112.336 90.7818L113.98 89.085C115.359 87.6533 115.518 87.2821 114.882 86.7518C114.457 86.4337 113.768 86.2746 113.291 86.4337C112.654 86.6988 112.389 85.8504 111.806 82.0855C110.958 76.6769 111.011 60.557 111.859 60.2918C112.814 59.9737 112.389 59.1252 111.276 59.1252C110.692 59.1252 110.374 58.8601 110.533 58.595C110.692 58.2768 111.912 58.0647 113.238 58.0647C114.51 58.0647 115.571 57.7996 115.571 57.5345C115.571 56.9512 115.094 56.8451 112.283 57.0042C110.586 57.0572 110.268 56.8981 110.056 55.8376C109.526 53.2393 108.678 34.3621 108.996 32.7182C109.367 30.9154 109.367 30.9154 111.912 31.1805C113.927 31.3926 114.51 31.2865 114.51 30.7033C114.51 30.173 113.821 29.9609 111.806 29.9609C110.374 29.9609 109.261 29.7488 109.42 29.4837C109.632 29.2185 109.632 28.6352 109.473 28.2641C109.208 27.6277 107.458 27.4687 100.777 27.3626C93.6181 27.3096 92.2924 27.4156 91.7092 28.105C91.0728 28.8474 91.1259 29.0594 91.7622 29.4837C92.1864 29.7488 92.8227 29.9609 93.1939 29.9609C93.512 29.9609 93.8302 30.3321 93.8302 30.7563C93.8302 31.2335 93.353 31.5517 92.5576 31.5517C90.8607 31.5517 89.5881 32.0819 89.5881 32.7182C89.5881 33.0894 90.4896 33.1425 92.0273 32.8773L94.5195 32.5061L94.1484 35.6347C93.9362 37.3846 93.2999 40.7782 92.7697 43.2174C92.1864 45.6566 91.444 49.9517 91.0728 52.8151C90.5426 57.9056 90.4896 57.9587 89.0048 58.2768C87.255 58.595 86.9368 59.6555 88.5276 59.6555C89.1109 59.6555 89.5881 60.0267 89.5881 60.4509C89.5881 61.0872 89.8532 61.1402 90.9668 60.663L92.3985 60.1327L92.0803 63.7385C91.8682 65.7005 91.7092 70.1016 91.7092 73.4953V79.6463L89.27 80.0175C87.8382 80.1766 86.5126 80.1236 86.1414 79.8054C85.7702 79.4873 85.1339 79.3812 84.6567 79.5933C83.9673 79.8584 75.165 79.3282 65.037 78.4267C62.5978 78.2146 61.9615 78.3207 61.6964 79.01C61.2722 80.0705 62.3857 81.3962 63.7114 81.3962C64.6658 81.3962 64.7189 81.6613 64.4007 84.0475C63.9765 87.07 64.5068 90.0395 65.3552 89.7213C65.7264 89.6152 65.9915 88.3956 66.0445 86.9109C66.0976 81.2901 66.0445 81.3962 68.2716 81.3962H70.2336V85.3201C70.2336 87.4942 70.3927 89.4031 70.6048 89.6152C71.5062 90.5697 72.0895 88.9789 72.0895 85.4262C72.0895 81.7144 72.1425 81.5023 73.3621 81.2901C74.5287 81.078 74.6348 81.2371 74.8999 84.1005C75.218 87.6003 75.5362 88.3426 76.5437 87.9714C77.127 87.7593 77.233 86.9109 77.0209 84.5247L76.7028 81.3962H78.5057H80.3085V84.4187C80.3085 87.123 80.4146 87.4942 81.316 87.4942C82.2705 87.4942 82.3766 87.176 82.2175 84.4187C82.1114 81.6613 82.1645 81.3962 83.172 81.3962C84.1264 81.3962 84.2855 81.7144 84.2855 83.9415C84.2855 86.7518 84.5506 87.2821 85.6642 86.8579C86.1414 86.6988 86.4065 85.7443 86.4065 83.9945C86.4065 82.5628 86.6717 81.3962 86.9368 81.3962C87.255 81.3962 87.4671 82.1916 87.4671 83.1991C87.4671 85.4262 88.4746 88.3956 89.1109 87.9714C89.376 87.8124 89.5881 86.3807 89.5881 84.7899C89.5881 82.2976 89.6942 81.9265 90.6486 81.9265C91.4971 81.9265 91.7092 82.2976 91.7092 83.7293C91.7092 84.7368 91.4971 85.7443 91.1789 85.9034C90.8607 86.1155 90.9668 86.6988 91.4971 87.4942C91.9743 88.1835 92.1864 89.032 91.9743 89.3501C91.8152 89.6152 92.0273 89.8804 92.4515 89.8804C92.9288 89.8804 93.2999 89.4562 93.2999 88.9259C93.2999 88.0245 93.9893 87.9184 100.989 87.6003C108.306 87.2821 111.965 87.4942 111.806 88.2366C111.753 88.3956 109.473 90.6758 106.769 93.274C102.473 97.4101 101.678 97.9403 101.148 97.198C100.511 96.5086 99.7691 96.5086 94.0953 97.1449C86.5656 97.9934 85.346 98.2055 85.346 98.8948C85.346 99.5841 87.8382 99.5841 93.0878 98.8418C95.421 98.5236 98.2314 98.3645 99.2919 98.4706L101.201 98.6297L97.0648 102.978C93.8832 106.265 92.5576 108.121 91.6561 110.508C90.2775 114.007 88.3155 117.189 88.8457 115.015C89.1639 113.795 88.3155 112.841 87.7322 113.742C87.414 114.272 88.3155 121.696 89.1109 124.878C89.429 126.203 89.4821 125.514 89.27 122.597C88.9518 118.514 88.9518 118.514 90.2775 118.514C91.4971 118.514 91.6031 118.727 91.9213 122.067C92.5045 128.059 93.8832 134.846 94.7316 135.854C95.474 136.755 95.474 136.755 95.1558 135.748C94.6256 134.21 92.9288 123.605 92.5045 119.204C92.1334 115.439 92.1334 115.386 93.2999 115.704C94.4135 116.022 94.4665 115.863 94.1484 114.644C93.9893 113.848 93.9893 113.212 94.2014 113.212C94.4665 113.212 95.2619 117.772 96.0573 123.34C96.9587 129.809 97.8602 134.157 98.4965 135.536L99.504 137.604H96.4285H93.2999L93.2469 135.854C93.2469 134.422 93.1409 134.316 92.7697 135.218C92.5045 135.801 92.2924 136.013 92.2394 135.748C92.0803 134.157 89.6411 126.893 89.6411 127.9C89.5881 128.536 90.1714 130.923 90.9138 133.203C91.6031 135.43 92.1334 137.339 92.0803 137.392C92.0273 137.445 90.7547 137.339 89.2169 137.233C86.6717 136.968 86.4065 136.808 85.9293 135.271C84.9748 132.248 84.3385 127.582 83.9673 121.166C83.5962 114.378 82.6947 112.416 82.6947 118.355C82.6947 122.438 83.8613 130.233 85.0809 134.157C85.5051 135.589 85.8763 136.861 85.8763 136.915C85.8763 137.021 85.1869 137.074 84.3385 137.074C82.9598 137.074 82.6947 136.808 82.0054 134.528C80.5206 130.021 79.9374 126.309 79.6722 119.681C79.5132 116.128 79.142 113.212 78.9299 113.212C77.8163 113.212 79.3541 130.392 80.7858 134.369C81.8463 137.286 81.8463 137.18 80.4676 136.968C78.5587 136.702 76.8618 129.173 76.7028 120.529C76.6497 116.287 76.3846 113.795 76.0665 113.954C74.7408 114.378 76.3846 131.718 78.1875 136.225C78.5057 136.968 78.3996 137.127 77.6042 136.968C76.2786 136.755 75.112 131.241 74.2105 120.954C73.7863 116.022 73.3621 113.371 72.9909 113.583C71.9834 114.166 73.9984 131.665 75.5362 135.589C75.8013 136.331 75.6423 136.543 74.8469 136.543C73.9984 136.543 73.6803 136.013 73.203 133.998C72.1956 129.756 70.5517 118.408 70.3927 115.068L70.2336 111.886L77.3921 111.992L84.5506 112.098L74.7408 111.356C69.3321 110.985 63.6053 110.295 62.0145 109.818C59.6284 109.129 59.3102 109.129 60.1056 109.765C61.1661 110.561 65.4612 111.621 67.7944 111.621H69.2791L69.5973 116.765C69.7564 119.628 70.3927 124.347 70.9229 127.264C72.7258 136.49 72.7258 136.543 71.9304 136.543C71.4002 136.543 70.8699 135.112 70.2336 131.877C69.12 126.097 67.9535 121.643 67.9004 122.916C67.8474 123.87 69.7033 133.68 70.2866 135.589C70.4987 136.384 70.2336 136.543 68.4837 136.543H66.4157L66.0445 133.203C65.8324 131.4 65.4612 129.067 65.1961 128.059C64.6128 125.567 64.0295 117.719 64.6128 119.84C64.878 120.689 65.8324 124.135 66.7339 127.476C67.6883 130.817 68.6428 133.892 68.961 134.369C69.3852 135.059 69.4382 135.059 69.2261 134.157C69.067 133.574 67.9535 129.491 66.7869 125.037C65.6203 120.582 64.6658 116.606 64.6658 116.181C64.6658 114.697 63.5523 112.523 63.0751 113C62.5978 113.477 63.1811 126.574 63.9765 132.566L64.3477 135.748L64.7189 133.097L65.037 130.445L65.0901 133.15C65.1961 136.119 64.7719 136.596 62.4388 136.172C61.3782 135.96 61.007 135.536 60.7419 133.998C60.2117 130.551 60.4238 122.65 61.2192 117.242C62.1206 111.144 62.1736 110.508 61.4843 111.674C60.5828 113.265 59.8935 119.84 59.8405 128.059L59.7874 136.119L58.3027 135.907C57.4543 135.801 56.871 135.854 57.0301 136.119C57.1892 136.331 57.7725 136.543 58.3027 136.543C58.833 136.543 59.4693 136.808 59.6284 137.074C59.8405 137.392 60.2647 137.445 60.5828 137.233C61.4843 136.702 64.3477 137.074 64.7719 137.763C65.037 138.24 65.3022 138.24 65.8324 137.71C68.1125 135.43 68.3777 138.93 67.052 153.247C66.2566 161.996 65.9915 169.844 66.5748 169.26C66.7869 169.101 66.999 166.503 67.052 163.481C67.1581 160.458 67.4762 155.527 67.7944 152.451C68.1125 149.376 68.5368 144.709 68.7489 142.058C69.014 137.763 69.1731 137.233 70.0215 137.445C70.5517 137.604 71.1881 138.399 71.5062 139.248C72.1956 141.21 72.6728 141.263 72.3016 139.301C72.0365 137.869 72.0895 137.816 73.9984 137.763C75.218 137.71 76.2786 138.028 76.8088 138.611C77.2861 139.089 77.4982 139.248 77.2861 138.983C76.2255 137.604 78.1345 136.968 79.4601 138.24C80.0434 138.77 80.1495 138.77 79.8313 138.24C79.5662 137.816 79.8843 137.604 80.7858 137.604C81.5281 137.604 82.1645 137.816 82.1645 138.081C82.1645 138.346 82.5356 138.664 82.9068 138.823C83.4371 139.036 83.5962 138.876 83.3841 138.346C83.172 137.816 83.5431 137.604 84.7627 137.604C85.6642 137.604 86.4065 137.869 86.4065 138.187C86.4065 138.505 86.6717 138.558 87.0959 138.293C87.414 138.081 90.4365 137.975 93.7772 138.081C100.671 138.24 100.777 138.24 100.618 134.157C100.565 131.877 100.511 131.771 100.352 133.468C100.246 134.581 99.9812 135.483 99.7691 135.483C98.8146 135.483 96.0573 119.257 95.9512 113.318C95.9512 113 95.6331 112.682 95.2089 112.682C93.8302 112.682 93.1409 111.303 93.9362 109.871C96.1103 105.841 110.321 91.3121 111.594 91.7893C112.018 92.0014 112.389 92.1605 112.389 92.2135C112.389 92.2135 110.48 94.2285 108.2 96.6147C103.958 100.963 102.367 103.137 103.322 103.137C103.587 103.137 104.276 102.342 104.86 101.387C105.496 100.486 106.609 99.0539 107.458 98.2585L108.943 96.8268V102.235C108.996 109.341 109.367 111.833 110.48 112.045C111.011 112.151 113.132 110.508 115.889 107.803C118.381 105.417 120.714 103.243 121.139 102.978C122.411 102.288 123.154 104.516 122.729 108.121C122.57 109.924 122.623 112.469 122.942 113.742C123.207 115.068 123.737 119.416 124.055 123.393C124.373 127.582 125.063 132.089 125.646 133.998C126.229 135.854 126.706 137.498 126.706 137.71C126.706 137.975 125.699 138.134 124.532 138.134C120.29 138.134 119.177 134.793 119.018 121.431C118.859 111.515 118.912 111.992 118.169 112.416C117.056 113.159 118.54 134.581 119.919 137.18C120.29 137.975 120.131 138.134 118.752 138.134C117.48 138.134 117.162 137.922 117.109 136.915C117.109 135.801 117.056 135.801 116.631 136.808C116.26 137.763 116.154 137.71 115.412 136.013C114.404 133.68 112.92 123.923 112.867 119.151C112.814 114.962 112.389 113.106 111.382 112.788C110.799 112.576 110.746 112.894 111.011 114.06C111.17 114.909 111.7 118.674 112.124 122.491C113.026 130.339 113.821 135.006 114.51 136.861C114.988 138.081 114.935 138.134 112.973 138.134C111.276 138.134 110.958 137.975 111.117 137.18C111.276 136.702 111.117 134.846 110.852 133.097L110.374 129.915L110.321 133.309C110.321 135.218 110.056 136.543 109.844 136.225C108.412 134.581 106.556 124.347 106.556 118.302C106.556 115.969 106.291 114.75 105.761 114.272C104.807 113.477 104.807 113 105.761 121.431C106.45 127.9 106.344 134.422 105.496 134.422C104.807 134.422 102.739 125.673 102.102 120.158C101.731 116.712 101.254 114.538 100.83 114.378C100.034 114.113 99.9282 117.56 100.671 118.939C100.989 119.416 101.466 121.749 101.784 124.082C102.473 129.438 104.807 136.543 105.814 136.543C106.344 136.543 106.556 135.695 106.609 133.203C106.663 130.18 106.663 130.074 107.14 131.771C107.405 132.778 108.041 134.528 108.518 135.642C109.208 137.233 109.261 137.869 108.784 138.983C107.299 142.164 108.518 146.088 110.958 146.088C112.018 146.088 112.283 145.664 112.707 143.013C112.973 141.21 112.867 140.732 112.177 140.467C111.064 140.043 110.321 140.679 111.276 141.263C111.806 141.581 111.912 142.27 111.647 143.649C111.223 145.876 111.117 145.929 109.632 144.497C108.624 143.543 108.571 143.225 109.102 141.528C109.42 140.414 109.579 139.354 109.42 139.089C108.996 138.399 115.306 138.611 115.995 139.301C116.472 139.778 116.631 139.778 116.631 139.248C116.631 138.717 119.919 138.664 133.229 138.93C142.296 139.142 151.682 139.46 154.015 139.619L158.257 139.99L158.151 142.376C158.045 145.558 158.628 159.451 158.84 159.185C158.946 159.079 159.105 154.731 159.264 149.482C159.37 144.285 159.583 139.513 159.742 138.93C159.848 138.346 160.166 135.695 160.325 133.097C160.537 130.445 160.855 127.582 160.961 126.68C161.279 125.037 161.279 124.984 163.188 125.514C164.302 125.832 165.309 126.256 165.468 126.521C165.628 126.787 165.468 128.536 165.044 130.339C164.302 133.998 164.143 138.24 164.779 140.255C165.044 141.21 165.256 140.361 165.468 137.339L165.734 133.097L165.84 138.24C165.946 142.429 166.105 143.437 166.741 143.437C167.696 143.437 167.961 142.429 168.544 135.483C169.074 129.809 168.756 128.218 167.165 128.802C166.37 129.12 166.264 128.642 167.006 127.529C167.377 126.893 168.438 127.211 173.21 129.491C176.339 130.976 179.308 132.301 179.785 132.46C180.528 132.725 180.634 133.521 180.475 137.975L180.316 143.172L180.793 138.505C181.058 135.907 181.376 133.68 181.535 133.521C182.066 132.991 189.913 136.543 194.845 139.566C197.496 141.157 201.526 143.967 203.859 145.876C211.389 151.921 210.488 151.497 212.609 149.694C213.616 148.792 215.26 147.732 216.267 147.308C217.805 146.671 221.358 144.338 227.138 140.255C227.721 139.831 228.357 139.301 228.41 139.036C228.516 138.823 234.721 134.634 242.197 129.65C260.809 117.401 270.142 110.932 280.429 103.19C290.08 95.9784 293.155 93.9104 293.579 94.3346C294.004 94.7057 291.511 98.2585 289.656 100.008C288.807 100.751 286.792 102.288 285.148 103.402C281.755 105.629 281.33 106.106 283.558 105.099C288.065 103.137 293.632 98.5236 294.905 95.7132C295.594 94.1225 296.549 93.7513 297.875 94.5467C298.405 94.9179 298.299 95.3421 297.45 96.4026C296.337 97.8343 296.655 98.4176 297.875 97.198C298.352 96.7207 298.511 96.7738 298.511 97.4101C298.511 97.8873 297.238 99.1599 295.754 100.273C292.042 102.925 291.405 103.561 294.004 102.023C298.829 99.1599 299.784 97.8343 299.094 94.6527C298.67 92.4256 298.617 92.3726 286.58 91.259C281.33 90.7818 272.74 89.7743 267.491 89.032C262.241 88.3426 254.393 87.3881 249.992 86.9639C236.948 85.6913 233.289 84.8429 233.289 83.2521C233.289 82.6158 232.971 82.5097 231.857 82.7749C231.009 82.987 229.895 83.4642 229.312 83.8354C227.244 85.055 225.971 85.2141 225.706 84.2066C225.494 83.4112 225.441 83.4642 225.388 84.3657C225.335 85.7974 223.267 86.5397 223.161 85.2141C223.108 84.6838 222.949 84.8429 222.737 85.5853C222.418 86.6988 218.76 88.8198 218.176 88.1835C218.017 88.0775 218.176 87.07 218.495 86.0095C218.76 84.8959 218.972 82.8809 218.866 81.5023C218.76 79.4342 218.495 78.957 217.593 78.8509C214.942 78.4798 211.548 84.6838 211.548 89.7743C211.548 91.206 211.283 91.5772 209.639 92.2665C208.579 92.6908 207.624 93.0619 207.518 93.0619C207.147 93.0619 207.306 77.9495 207.73 77.3132C207.942 76.995 208.844 76.6238 209.692 76.4648L211.283 76.2527L209.586 76.1466C208.048 76.0936 207.836 75.9345 207.836 74.6089C207.836 73.8135 208.048 72.912 208.26 72.5939C208.473 72.2227 211.76 71.8515 216.48 71.6394L224.38 71.2682L224.009 73.0181C223.797 73.9725 223.532 74.821 223.479 74.927C223.373 75.0331 221.04 75.2452 218.229 75.4043C215.419 75.5633 213.139 75.9345 213.139 76.1996C213.139 76.4117 215.578 76.4648 218.548 76.2527C223.426 75.9345 223.903 75.9875 223.585 76.7829C223.373 77.3132 223.479 77.6844 223.744 77.6844C224.062 77.6844 224.274 77.2071 224.274 76.6238C224.274 76.0406 224.646 75.5633 225.07 75.5633C225.494 75.5633 225.865 75.9345 225.865 76.3587C225.865 77.4723 226.82 77.3662 227.138 76.1996C227.244 75.7224 227.562 73.6544 227.774 71.6394C228.092 68.1397 228.092 68.0336 226.979 68.4048C225.971 68.723 225.865 68.5639 225.865 66.5489C225.865 64.9581 226.077 64.3748 226.555 64.5869C226.873 64.746 227.562 65.0111 227.986 65.1702C228.676 65.4353 228.782 64.799 228.835 61.2463C228.888 58.9131 228.994 56.8451 229.153 56.7391C229.524 56.3679 252.431 56.1558 274.49 56.3679C284.777 56.4739 293.42 56.4209 293.739 56.2088C294.004 56.0497 294.269 55.7316 294.269 55.4664C294.269 54.9892 292.042 55.0422 291.193 55.5725C290.822 55.8376 283.292 55.8907 274.49 55.6786L258.476 55.2543L256.249 53.2393C254.976 52.0728 253.492 51.1713 252.908 51.1713C251.954 51.1713 251.848 51.3834 252.166 53.0272L252.484 54.8832H249.038C245.856 54.8832 245.591 54.7771 245.273 53.6105C244.955 52.2319 243.258 51.3834 242.25 51.9667C241.932 52.1788 241.826 52.8682 241.985 53.5575C242.25 54.6711 242.091 54.7771 240.235 54.9892C237.372 55.2543 237.001 55.0422 237.001 53.2924C237.001 52.444 236.629 51.5425 236.152 51.2774C235.463 50.9062 235.675 50.7471 237.054 50.535C239.122 50.1638 254.393 49.9517 280.588 49.8987C290.663 49.8457 299.147 49.6866 299.359 49.4215C299.996 48.8382 299.2 48.3609 297.609 48.414C276.611 48.7852 226.448 48.8912 225.918 48.5731C224.062 47.4065 246.598 46.1869 270.407 46.1869C289.815 46.1339 291.564 46.0278 291.617 44.6491C291.617 44.2249 246.386 44.5431 240.978 45.0203C238.379 45.2854 238.114 45.2324 239.652 44.8082C241.72 44.2249 254.075 42.8993 264.044 42.1039C267.703 41.8387 278.202 41.6266 287.375 41.6266C296.549 41.6797 304.344 41.6266 304.609 41.5736C304.927 41.5206 305.298 41.5206 305.563 41.5736C305.775 41.5736 305.935 41.3615 305.935 41.0434C305.935 40.6722 305.139 40.5131 303.813 40.6722C302.647 40.7782 301.692 40.7252 301.692 40.5131C301.692 40.354 299.412 40.0359 296.655 39.8237C293.898 39.6647 290.928 39.3465 290.027 39.1874C288.489 38.8693 288.436 38.7632 289.231 37.8618C290.027 37.0134 290.027 36.9073 289.125 36.4301C287.004 35.2635 275.604 33.7258 268.445 33.6197L264.839 33.5136L267.226 33.0364C268.551 32.7713 275.338 32.5061 282.285 32.4001C290.504 32.294 295.064 32.0819 295.17 31.7108C295.488 30.8093 293.314 30.4911 285.785 30.4911C276.134 30.4911 254.34 31.5517 253.757 32.0819C253.545 32.3471 254.234 33.0894 255.348 33.8318C257.257 35.0514 258.105 35.1575 265.37 35.4756C269.771 35.6877 276.399 36.324 280.164 36.8543C283.929 37.4376 287.11 37.9148 287.269 37.9148C287.375 37.9148 287.375 38.286 287.163 38.7102C286.951 39.2935 287.269 39.5056 288.595 39.5056C289.549 39.5056 290.61 39.7177 290.928 39.9298C291.299 40.1949 286.315 40.407 279.793 40.4601C263.567 40.6191 259.006 40.9373 236.895 43.2174C231.433 43.8007 225.335 44.2779 223.32 44.2779C218.282 44.2779 216.32 44.7021 216.32 45.8687C216.32 47.3004 217.593 48.0428 220.616 48.3079C222.153 48.467 223.638 48.8912 223.956 49.2624C224.274 49.6866 225.282 50.1638 226.13 50.3759C227.032 50.588 227.403 50.9062 227.085 51.0123C226.289 51.2774 226.183 53.1863 226.873 54.2999C227.138 54.6711 227.562 54.8832 227.88 54.6711C228.198 54.512 228.623 54.618 228.835 54.9362C229.1 55.4134 228.304 55.4664 225.547 55.2013C222.259 54.8832 221.782 54.7241 220.563 53.1333C219.82 52.2319 217.805 49.8987 216.055 47.9898C213.351 45.1264 212.609 43.9068 211.601 40.6191C210.541 37.2785 210.435 36.3771 210.965 34.9984C211.283 34.0969 211.548 33.1955 211.548 33.0364C211.548 32.8773 210.116 31.2335 208.367 29.3776C205.556 26.3551 205.185 25.7188 205.185 23.8099C205.185 22.4842 205.503 21.3176 205.98 20.9465C207.73 19.5148 206.617 17.977 204.39 18.8254C203.276 19.2496 203.117 19.5148 203.541 20.3632C203.965 21.1055 203.912 21.5298 203.329 22.007C202.905 22.3782 202.534 23.4387 202.534 24.3401C202.534 25.6658 201.95 26.5672 199.988 28.5292C198.61 29.8548 197.019 31.8698 196.436 32.9304L195.428 34.8393L196.595 35.7938C197.602 36.6422 197.708 36.9603 197.178 38.286C196.86 39.0814 196.595 41.2024 196.542 42.9523L196.436 46.1339L193.095 48.414C190.391 50.2699 189.595 50.588 188.959 50.1108C188.482 49.6866 187.368 49.5806 185.724 49.8457C183.709 50.1108 183.285 50.0578 183.815 49.5275C184.611 48.7321 187.739 48.467 188.641 49.1563C189.118 49.5806 189.277 49.4215 189.277 48.5731C189.277 47.9898 189.065 47.4595 188.747 47.4595C188.482 47.4595 188.217 46.505 188.217 45.3385C188.217 44.1719 188.482 43.2174 188.747 43.2174C189.065 43.2174 189.277 43.6947 189.277 44.2249C189.277 45.3385 190.179 46.1869 190.762 45.6566C190.921 45.4445 191.027 43.1114 190.921 40.407L190.815 35.5286L192.406 34.309C194.792 32.5592 194.474 32.0289 191.239 32.4001L188.429 32.7182L187.845 30.2791C187.474 28.6352 187.474 27.8399 187.845 27.8399C188.164 27.8399 188.8 27.4687 189.33 27.0445C190.762 25.7188 189.807 22.6963 187.209 20.3632L185.035 18.4012V14.1591C185.035 11.7729 185.247 9.70493 185.565 9.54585C186.414 9.01559 186.149 0.37233 185.3 0.054184C184.876 -0.104904 184.346 0.107208 184.028 0.425369ZM184.452 23.7568C185.883 23.2266 186.149 23.2796 186.626 24.128C186.944 24.6583 186.997 25.2416 186.785 25.3476C185.99 25.8249 178.142 26.3551 178.142 25.9309C178.142 25.7188 178.778 24.7113 179.52 23.7038L180.952 21.8479L181.907 23.1205C182.755 24.2871 183.02 24.3401 184.452 23.7568ZM184.187 29.0064C184.611 29.6958 185.141 30.8623 185.3 31.7108L185.671 33.1425L180.846 33.0894L176.021 33.0364V31.6047C176.021 29.3776 177.081 28.4231 179.732 28.211C181.058 28.105 182.437 27.9989 182.755 27.9459C183.126 27.8929 183.762 28.3701 184.187 29.0064ZM107.087 29.9079C105.92 30.5442 95.421 31.1275 95.421 30.5442C95.421 30.2791 95.7391 29.9079 96.1103 29.8018C97.2239 29.3246 107.935 29.4306 107.087 29.9079ZM205.768 30.5972C206.139 31.2865 206.67 31.9759 206.988 32.188C207.836 32.7713 207.306 32.9834 203.965 33.3546C201.42 33.6197 200.837 33.5667 200.572 32.8243C200.148 31.7638 202.587 29.4306 204.124 29.4306C204.708 29.4306 205.45 29.9609 205.768 30.5972ZM107.299 37.4906C107.458 40.7782 107.882 46.452 108.147 50.1108C108.412 53.7166 108.571 56.7391 108.518 56.7921C108.465 56.8451 104.701 57.0042 100.14 57.1633L91.9213 57.5345L92.2924 54.0878C92.5576 52.1788 93.459 47.0353 94.3605 42.6341C95.2089 38.1799 95.9512 34.15 95.9512 33.6197C95.9512 32.4531 98.0193 32.0289 105.284 31.6577L106.928 31.5517L107.299 37.4906ZM189.542 35.6877C188.8 37.4376 188.323 40.1949 188.588 40.8843C188.747 41.3085 188.641 41.6266 188.323 41.6266C188.058 41.6266 187.633 40.5131 187.421 39.1874C187.156 37.3315 186.891 36.8543 186.202 36.9603C185.512 37.1194 185.3 37.7557 185.3 40.0359C185.3 41.6266 185.459 43.9598 185.671 45.1794C185.937 47.1944 185.883 47.4595 184.982 47.4595C184.134 47.4595 183.975 46.9292 183.868 43.3765C183.709 39.9298 183.55 39.2405 182.808 39.0814C181.96 38.9223 181.854 39.3995 181.854 43.1644V47.4595H180.422H178.937V42.8462C178.937 39.0284 178.778 38.1799 178.142 38.1799C177.505 38.1799 177.24 39.2405 176.975 42.8993C176.763 45.4975 176.445 47.7246 176.286 47.8837C175.543 48.6791 175.437 47.0883 176.074 42.8462C176.445 40.301 176.71 37.6497 176.71 37.0134C176.657 36.0059 177.028 35.8468 181.535 35.4226C189.489 34.6802 189.913 34.7332 189.542 35.6877ZM208.579 37.7557C208.738 39.1874 209.109 41.4145 209.374 42.8462C209.745 45.2324 209.745 45.3385 208.685 45.0203C206.776 44.437 206.511 43.9068 207.147 41.5206C207.836 38.9223 207.253 36.6952 205.874 36.9603C205.238 37.0664 204.973 37.8618 204.867 40.1949C204.655 43.8537 204.443 44.2779 202.746 44.2779C201.367 44.2779 201.367 43.7477 202.587 39.8237C202.852 38.9753 203.064 37.7557 203.064 37.0664C203.064 36.1649 203.435 35.7938 204.549 35.6347C208.207 35.1044 208.207 35.1044 208.579 37.7557ZM200.148 40.248C199.352 44.0128 199.087 44.7021 198.504 44.1189C198.133 43.8007 198.928 40.1419 199.882 37.5966C200.837 35.1575 200.943 36.4301 200.148 40.248ZM208.154 47.4595C208.95 47.7777 210.275 48.6261 211.124 49.3154C211.972 50.0578 213.245 50.6411 213.934 50.6411C215.896 50.6411 219.979 56.1028 219.29 57.8526C219.131 58.2768 219.343 58.7541 219.714 58.9131C220.403 59.1783 220.722 60.0797 222.153 65.8596C222.525 67.2382 223.055 68.1397 223.479 68.1397C223.903 68.1397 224.274 68.3518 224.274 68.6169C224.274 69.4123 215.79 69.8895 199.352 69.9426C184.134 69.9956 178.672 69.6774 178.672 68.6169C178.672 68.3518 178.99 68.1397 179.361 68.1397C179.732 68.1397 180.369 67.2913 180.74 66.2838C181.694 63.6325 186.202 57.0042 187.05 57.0042C187.421 57.0042 187.633 56.7921 187.474 56.527C187.315 56.3149 188.694 54.618 190.603 52.8151C193.996 49.5806 196.86 47.8837 198.133 48.3609C198.504 48.52 199.193 48.2549 199.617 47.7777C200.625 46.7702 205.874 46.6111 208.154 47.4595ZM176.816 50.535C176.392 50.9592 175.49 50.0048 175.809 49.4745C176.021 49.1563 176.286 49.2094 176.604 49.6336C176.816 50.0048 176.922 50.429 176.816 50.535ZM182.119 49.5806C182.331 49.8987 181.694 50.1108 180.581 50.1108C179.52 50.1108 178.672 49.8457 178.672 49.5806C178.672 49.2624 179.361 49.0503 180.21 49.0503C181.111 49.0503 181.96 49.2624 182.119 49.5806ZM233.925 52.7621L234.084 55.4134H231.91H229.789V53.1333C229.842 51.2244 230.001 50.8532 231.168 50.588C233.607 49.9517 233.713 50.0578 233.925 52.7621ZM185.99 51.4895C187.527 51.9137 187.209 52.9742 185.512 53.1333C184.823 53.1863 183.603 53.3984 182.808 53.6105C180.687 54.0878 175.384 53.3454 175.649 52.603C175.968 51.5425 183.338 50.8001 185.99 51.4895ZM190.338 51.3304C190.338 51.4365 189.701 52.0728 188.906 52.8151L187.421 54.0878L188.694 52.603C189.913 51.2774 190.338 50.9062 190.338 51.3304ZM177.611 55.5195C177.611 55.7846 177.028 55.9437 176.286 55.9437C174.854 55.9437 174.801 55.8907 175.278 54.6711C175.543 54.0347 175.756 53.9817 176.604 54.512C177.134 54.8301 177.611 55.3074 177.611 55.5195ZM256.408 54.9362C256.726 55.4664 255.825 55.5195 254.128 55.0953C253.439 54.8832 253.015 54.565 253.174 54.3529C253.492 53.8757 255.984 54.2999 256.408 54.9362ZM184.77 55.4134C184.611 55.6786 183.815 55.9437 183.02 55.9437C181.907 55.9437 181.747 55.8376 182.384 55.4134C183.444 54.7241 185.194 54.7241 184.77 55.4134ZM183.444 56.9512C183.444 57.2693 182.914 58.3299 182.331 59.3904C181.482 60.8221 181.058 61.1402 180.74 60.61C180.422 60.1858 180.263 60.1327 180.263 60.5039C180.263 60.9281 179.467 60.8751 177.505 60.3448C174.112 59.3373 174.218 59.4434 174.907 58.1178C175.331 57.3754 176.127 57.0042 177.771 56.8981C178.99 56.7921 180.793 56.686 181.747 56.633C182.649 56.527 183.444 56.686 183.444 56.9512ZM226.448 57.0042C227.032 57.0042 227.456 57.2163 227.456 57.5345C227.456 57.7996 227.138 58.0117 226.82 57.9056C226.342 57.8526 225.971 58.9662 225.653 61.0872C225.388 62.9431 225.017 64.4278 224.805 64.4278C224.593 64.4278 224.062 63.0492 223.585 61.3523C223.108 59.7085 222.578 57.8526 222.365 57.3224C221.994 56.4209 222.153 56.3679 223.744 56.633C224.699 56.8451 225.918 57.0042 226.448 57.0042ZM109.208 58.701C109.208 58.9662 107.511 59.1252 105.443 59.1252C103.269 59.1252 101.837 58.9131 102.049 58.648C102.367 58.0647 109.208 58.1178 109.208 58.701ZM109.261 61.2993C109.632 62.0417 109.738 64.1627 109.473 67.8215C109.155 72.7529 109.897 80.7069 111.117 84.9489L111.435 86.1685H104.011C99.9282 86.1685 95.8452 86.0095 94.9437 85.8504L93.2999 85.4792V76.4117C93.2999 71.4273 93.459 65.7535 93.6711 63.7385L93.9893 60.1858H101.307C108.2 60.1858 108.678 60.2388 109.261 61.2993ZM179.892 62.9961C179.679 63.3673 178.884 64.64 178.089 65.9126L176.657 68.1927L176.445 65.2232C176.286 62.3598 176.339 62.2538 177.505 62.4659C178.142 62.5719 178.831 62.4659 178.99 62.2008C179.149 61.9886 179.52 61.8826 179.785 62.0947C180.051 62.2538 180.104 62.678 179.892 62.9961ZM226.395 72.965C226.395 73.8135 226.289 74.5028 226.183 74.5028C226.077 74.5028 225.547 74.6619 225.07 74.874C224.274 75.1391 224.221 74.927 224.54 73.3893C224.752 72.3818 225.017 71.4273 225.176 71.1622C225.653 70.3668 226.395 71.4273 226.395 72.965ZM187.952 72.806C188.906 73.3893 185.406 73.7604 182.172 73.4953C180.21 73.2832 178.937 72.912 178.778 72.4348C178.566 71.8515 179.361 71.7985 182.967 72.1166C185.406 72.3287 187.633 72.6469 187.952 72.806ZM207.2 73.8665C207.412 75.8815 208.154 75.7224 197.125 75.8285C188.906 75.8285 188.747 75.8285 188.747 74.7149C188.747 73.9725 189.171 73.4423 189.966 73.1772C190.974 72.806 205.132 71.9045 206.511 72.1166C206.829 72.1697 207.094 72.965 207.2 73.8665ZM187.686 75.2982C187.686 76.1996 187.58 76.2527 186.414 75.7754C185.194 75.2982 185.353 74.5028 186.626 74.5028C187.209 74.5028 187.686 74.874 187.686 75.2982ZM218.335 81.8734C218.442 83.093 218.123 85.2671 217.646 86.6458C216.957 88.7138 216.48 89.2971 214.783 90.0395C213.669 90.5167 212.662 90.9409 212.503 90.9409C211.972 90.9409 213.192 85.002 214.093 83.1461C215.048 81.078 216.32 80.2296 216.32 81.6083C216.32 82.0325 216.533 82.5097 216.798 82.7218C217.116 82.8809 217.169 82.2446 217.01 81.078C216.745 79.5403 216.851 79.1691 217.434 79.3812C217.858 79.5403 218.229 80.5478 218.335 81.8734ZM232.122 85.8504C235.198 87.3881 244.902 88.6608 261.128 89.6152C263.461 89.7213 266.112 89.9864 266.96 90.1455C267.862 90.2516 269.983 90.5167 271.733 90.6758C294.216 92.6377 294.905 92.7968 290.875 94.5997C289.496 95.236 287.481 96.6677 286.368 97.7813C285.254 98.8948 282.815 100.857 281.012 102.129C279.209 103.402 277.194 104.834 276.558 105.258C275.975 105.682 273.164 107.75 270.407 109.765C267.65 111.833 263.249 114.909 260.597 116.606C241.402 129.014 234.667 133.415 232.812 134.74C231.592 135.589 226.926 138.664 222.418 141.581C217.911 144.497 214.252 147.202 214.252 147.573C214.199 147.944 213.934 148.103 213.669 147.944C213.351 147.732 212.503 147.997 211.76 148.474C210.275 149.429 210.063 149.323 203.594 144.232C198.928 140.573 194.951 138.028 191.133 136.278C189.383 135.483 183.444 132.619 177.877 129.915C168.279 125.249 165.309 124.082 160.272 122.757C157.143 121.961 157.249 120.689 160.537 118.833C161.916 118.037 164.567 116.446 166.476 115.227C171.619 111.992 184.77 105.258 185.99 105.258C186.626 105.258 187.262 104.993 187.421 104.728C187.633 104.41 192.035 102.023 197.231 99.4251L206.723 94.7057L206.935 96.1375C207.147 97.5692 207.147 97.5692 207.253 95.9784C207.306 94.8118 207.677 94.2285 208.685 93.7513C209.957 93.168 210.222 93.221 211.124 94.3876C212.344 95.9784 212.927 96.0314 213.298 94.7057C213.457 93.9634 214.093 93.5922 215.313 93.4861C216.904 93.3271 217.116 93.115 217.275 91.6833C217.434 90.2516 217.805 89.8273 219.926 88.9259L222.418 87.8124L222.684 91.3651C222.896 93.8573 223.108 94.6527 223.426 93.9634C223.691 93.4331 223.744 91.8423 223.638 90.4106C223.426 88.3426 223.532 87.7593 224.221 87.4942C224.699 87.2821 225.07 87.2291 225.07 87.2821C225.07 87.3351 225.918 86.8579 226.926 86.2216C229.1 84.8959 230.16 84.8429 232.122 85.8504ZM216.851 91.0469C216.851 91.4181 216.639 92.0014 216.427 92.2665C215.949 92.9559 212.609 93.274 212.609 92.6377C212.609 92.2135 215.578 90.5167 216.48 90.4637C216.692 90.4106 216.851 90.7288 216.851 91.0469ZM159.264 126.362C159.105 135.96 158.999 138.134 158.575 137.922C158.045 137.551 157.302 126.468 157.78 125.196C158.31 123.764 159.317 124.506 159.264 126.362Z" fill="#C21807"/>
<path d="M101.36 36.9604C100.564 38.021 98.1782 45.5507 98.4433 46.24C98.6024 46.6112 99.1857 46.9293 99.7159 46.9293C100.511 46.9293 100.723 46.5582 100.723 45.1795C100.723 44.278 100.936 42.8994 101.148 42.157C101.413 41.2025 101.572 41.7858 101.784 44.5432C101.996 47.6187 102.208 48.255 103.057 48.4141C103.905 48.5731 103.958 48.361 103.799 46.5582C103.64 45.3916 103.693 43.1645 103.905 41.5737C104.117 40.0359 104.117 38.18 103.852 37.4907C103.375 36.2181 102.208 35.9529 101.36 36.9604Z" fill="#C21807"/>
<path d="M101.413 50.7474C99.875 52.3912 99.4508 54.4062 100.352 55.6788C101.042 56.5272 101.413 56.6333 103.11 56.2091C106.768 55.2546 108.306 51.2246 105.337 50.3762C104.7 50.1641 103.799 49.899 103.322 49.7929C102.897 49.6868 101.996 50.1111 101.413 50.7474ZM105.39 52.3912C105.655 53.7699 104.541 54.8834 102.791 54.8834C101.095 54.8834 100.936 54.5122 101.89 52.4972C102.367 51.4367 102.844 51.1716 103.852 51.2776C104.647 51.3837 105.284 51.8079 105.39 52.3912Z" fill="#C21807"/>
<path d="M99.2921 68.5109C98.7089 69.4124 98.3377 71.0562 98.2846 73.1242C98.2846 74.9271 98.0725 77.5254 97.8074 78.9041C97.3832 81.4493 97.4362 81.5023 98.6558 81.2902C99.5042 81.1842 99.9285 80.813 99.8754 80.1767C99.7694 79.0101 99.9815 79.0101 101.89 80.3888C103.163 81.3433 103.693 81.4493 104.754 80.9191C106.292 80.2297 106.398 79.0101 104.966 78.2147C104.064 77.7375 103.905 77.1012 103.905 73.9196C103.905 67.9277 101.519 65.0642 99.2921 68.5109ZM101.148 77.7375C100.777 78.0026 100.3 78.2147 100.088 78.2147C99.6103 78.2147 100.194 74.6089 100.936 72.9121C101.466 71.6925 101.519 71.8516 101.678 74.4499C101.784 76.4118 101.625 77.4724 101.148 77.7375Z" fill="#C21807"/>
<path d="M225.388 88.6079C225.388 89.1912 225.547 89.3503 225.706 88.9261C225.865 88.5549 225.812 88.0777 225.653 87.9186C225.494 87.7065 225.335 88.0247 225.388 88.6079Z" fill="#C21807"/>
<path d="M226.449 91.4184C226.024 91.6835 225.971 92.0017 226.289 92.2138C226.555 92.3729 226.926 92.1608 227.138 91.7366C227.456 90.8351 227.456 90.7821 226.449 91.4184Z" fill="#C21807"/>
<path d="M207.2 100.592C206.405 101.811 205.397 105.735 206.034 105.099C206.405 104.728 208.314 99.4251 208.102 99.4251C207.996 99.4251 207.624 99.9554 207.2 100.592Z" fill="#C21807"/>
<path d="M101.943 1.59201C101.784 2.06924 101.837 3.34187 102.102 4.40239C102.632 6.89462 102.685 13.3638 102.208 15.1667C101.89 16.1742 101.148 16.8635 99.6629 17.4468C97.966 18.0831 97.5418 18.5604 97.5418 19.6209C97.5418 20.9996 98.2312 20.9996 100.617 19.4618C101.254 19.0376 101.784 18.9315 101.784 19.2497C101.784 19.5148 101.413 19.886 100.989 20.0981C100.564 20.2572 99.875 20.9996 99.5568 21.795C98.9735 23.0146 98.7084 23.1206 96.9055 22.8555C95.1026 22.5373 94.8905 22.6434 94.5724 23.8099C94.4133 24.5523 94.3603 25.4007 94.4663 25.7189C94.5724 26.0901 97.1706 26.3552 101.678 26.4082C108.73 26.5143 109.685 26.3022 108.624 24.6053C108.359 24.1811 108.147 23.1206 108.147 22.1661C108.147 21.2647 107.935 20.3102 107.617 20.1511C107.352 19.9921 107.087 19.3558 107.087 18.8255C107.087 18.2422 106.503 17.3938 105.761 16.9166C104.382 16.0151 104.382 15.9621 104.488 9.01566C104.541 5.19778 104.435 1.75109 104.223 1.43293C103.693 0.531488 102.314 0.637541 101.943 1.59201ZM104.011 22.6964C103.375 23.0146 102.685 23.0676 102.473 22.8555C101.89 22.3252 103.428 21.5298 104.329 21.901C105.018 22.1131 104.912 22.3252 104.011 22.6964Z" fill="#C21807"/>
<path d="M36.8272 27.3096C36.6681 27.5747 36.7741 29.2185 37.0393 30.9684C37.4635 33.5136 37.4105 34.5211 36.7741 35.6347C36.403 36.4831 36.0318 37.7557 36.0318 38.4981C36.0318 39.2935 35.6606 40.1949 35.2364 40.5661C34.7592 40.9373 34.6001 41.4145 34.8652 41.5736C35.2894 41.8918 36.562 46.1869 36.562 47.4065C36.562 47.6716 35.4485 47.9898 34.0698 48.0958C32.1609 48.2019 31.4715 48.467 31.3655 49.1563C31.2594 49.8457 31.4185 50.0047 32.0018 49.7926C33.6986 49.1563 32.7972 50.588 30.305 52.4439C26.1159 55.6785 22.9874 60.3979 21.6087 65.5944C20.9724 68.1397 20.9193 68.1927 19.3286 67.9276C15.5107 67.2913 1.67087 66.3898 0.769431 66.761C-0.238065 67.1322 -0.238065 67.1852 0.663379 67.8745C1.24667 68.2988 2.09508 68.4578 2.62534 68.2457C3.68587 67.8215 15.3516 68.3518 18.3741 68.9351C19.9649 69.2002 20.177 69.4123 19.9118 70.4198C19.6997 71.0561 19.3816 72.806 19.1695 74.2377C18.9044 75.7224 18.5862 77.1541 18.3741 77.4723C18.215 77.7904 18.5332 78.5328 19.1165 79.063C20.3361 80.1766 18.9574 80.1236 45.8416 79.7524L59.6284 79.5403L59.4693 78.2146C59.3633 77.4723 58.886 76.5178 58.4618 75.9875C57.9315 75.4042 57.5604 73.1241 57.2952 68.4578C56.9241 62.0947 56.818 61.7235 55.3333 59.8146C54.3788 58.648 51.1972 56.3149 47.9627 54.2999C44.7811 52.3909 42.1298 50.6411 42.0237 50.3229C41.9177 50.0578 43.0312 49.9517 44.516 50.0047C47.0082 50.2169 47.9627 49.6336 46.637 48.7851C46.3719 48.6261 46.1067 47.8307 46.1067 47.0353C46.1067 46.2399 45.7356 44.5431 45.2583 43.2704C44.675 41.5206 44.622 40.8312 45.0992 40.5661C46.1067 39.9298 45.0462 38.8693 43.7206 39.1344C42.7661 39.2935 42.3949 39.0814 42.1298 38.0739C41.9707 37.3315 41.2283 36.218 40.4329 35.4756C39.4254 34.5211 38.9482 33.3546 38.524 30.4911C37.9407 26.9384 37.5165 26.143 36.8272 27.3096ZM40.2739 37.8618C41.0162 39.2935 40.9632 39.5056 39.8497 39.5056C38.577 39.5056 37.6226 38.4981 37.9937 37.5966C38.3649 36.5361 39.6376 36.6952 40.2739 37.8618ZM41.4935 41.6266C41.8647 41.6266 41.8647 41.7857 41.5995 42.1039C41.2814 42.369 40.2208 42.422 39.2133 42.2629C37.6756 42.0508 37.5165 41.9448 38.418 41.5736C39.0012 41.3615 39.7966 41.2554 40.1678 41.4145C40.592 41.5206 41.1753 41.6266 41.4935 41.6266ZM39.8497 46.1338C40.0087 47.3534 39.8497 47.9898 39.4254 47.9898C38.577 47.9898 38.2589 47.0353 38.577 45.4975C38.8952 43.6946 39.5845 44.0128 39.8497 46.1338ZM43.5615 46.7702C43.6145 47.4065 43.5085 47.9898 43.1903 48.0958C42.9252 48.2019 42.607 47.4065 42.501 46.399C42.2889 44.384 43.2433 44.7021 43.5615 46.7702ZM40.8041 51.6486C41.8116 52.4439 43.9857 53.9287 45.6825 55.0422C48.2278 56.7921 50.3488 59.4434 50.3488 60.9812C50.3488 61.1933 51.1972 63.0492 52.2047 65.1702C53.2122 67.2913 54.0606 69.4123 54.0606 69.8895C54.0606 71.2152 54.6439 72.3818 55.3863 72.3818C55.9696 72.3818 56.9241 76.5708 56.4468 77.1011C55.9696 77.5253 49.0762 77.3662 40.8041 76.6769C32.9032 76.0406 26.6992 76.1466 21.8208 76.995L20.0709 77.2602L20.4421 74.98C21.0254 70.844 23.3585 63.1552 24.7902 60.4509C27.6006 55.2013 35.1834 49.1033 37.8877 49.9517C38.471 50.1108 39.7966 50.9062 40.8041 51.6486ZM53.3183 59.7616C55.2803 61.8826 55.7575 63.3673 55.9696 67.8215L56.1817 72.1166L55.3863 69.2532C54.9091 67.6624 54.1137 65.6474 53.5834 64.746C53.0001 63.8446 52.0987 61.8296 51.5154 60.3448C50.5609 57.9056 50.5609 57.5875 51.3563 58.0117C51.8336 58.2768 52.735 59.0722 53.3183 59.7616ZM39.2133 78.1086C40.8041 78.5328 29.8808 79.1691 27.0173 78.7449C25.3205 78.5328 25.4266 78.4798 28.0779 78.1616C32.479 77.6844 37.7286 77.6313 39.2133 78.1086Z" fill="#C21807"/>
<path d="M140.281 36.5894C140.069 37.3318 140.069 38.2332 140.281 38.5514C140.493 38.8165 140.334 39.2407 140.016 39.4528C139.698 39.6649 139.38 41.4678 139.38 43.801C139.274 49.3687 138.902 50.1641 135.456 51.5958C133.812 52.2321 132.274 52.7624 132.009 52.7624C131.691 52.7624 131.479 51.5428 131.479 50.1111C131.479 48.2021 131.267 47.3537 130.683 47.0886C129.411 46.6113 129.199 47.1946 129.305 50.9065C129.358 53.0275 129.199 54.3531 128.88 54.3531C128.562 54.3531 128.297 53.2926 128.297 51.967C128.297 49.952 128.138 49.5808 127.237 49.5808C126.282 49.5808 126.176 49.952 126.176 52.5503V55.4667L123.896 56.4742C121.51 57.5347 119.018 59.7618 119.654 60.3451C119.813 60.5572 120.661 60.7163 121.457 60.7163H122.888L123.26 66.284C123.472 69.3595 123.525 73.1774 123.419 74.7682C123.26 76.8362 123.366 77.6846 123.79 77.6846C124.479 77.6846 125.116 74.9273 125.116 71.6927V69.7307H127.767C129.252 69.7307 130.418 69.9958 130.418 70.261C130.418 70.6322 130.736 70.6322 131.373 70.367C132.221 69.9428 134.766 69.6777 139.433 69.5186C141.342 69.4656 142.296 70.367 140.705 70.7382C138.107 71.2685 117.162 85.0022 117.162 86.1688C117.162 86.487 117.798 86.6991 118.646 86.6991C119.442 86.6991 122.411 87.4945 125.222 88.5019C128.085 89.5094 130.524 90.1458 130.683 89.8806C130.842 89.6155 130.1 89.1383 129.039 88.8201C126.229 87.8656 127.078 87.7596 131.214 88.608C137.842 89.8806 137.63 89.4564 130.524 87.4414C128.562 86.9112 126.971 86.1158 126.653 85.5325C126.176 84.631 124.585 84.1538 124.585 84.9492C124.532 86.2749 123.684 86.7521 122.305 86.1158C121.51 85.7446 120.873 85.2674 120.873 85.0553C120.873 84.578 141.395 70.7912 141.978 70.8973C142.19 70.9503 142.72 70.7912 143.144 70.6322C144.311 70.1549 149.614 69.7837 155.871 69.7307C163.082 69.6247 161.438 68.9353 152.424 68.1399C148.765 67.8218 145.159 67.3445 144.47 67.0794C143.091 66.5491 141.554 66.8673 141.554 67.6627C141.554 67.9278 139.751 68.1399 137.577 68.1399C135.297 68.1399 133.6 67.9278 133.6 67.6097C133.6 67.2915 133.812 67.0794 134.024 67.0794C134.289 67.0794 134.342 66.0719 134.183 64.8523C133.971 63.3146 133.6 62.5192 132.963 62.4131C131.903 62.201 131.532 63.9509 132.062 66.1249C132.433 67.5036 132.327 67.6097 130.948 67.6097C129.146 67.6097 128.827 66.9734 129.199 63.7918L129.464 61.4056L132.751 61.0875C134.501 60.9284 138.213 60.9284 140.97 61.0875C143.675 61.2465 145.796 61.1405 145.637 60.9284C145.159 60.08 155.977 60.7693 158.098 61.6707C160.007 62.5192 160.749 63.3676 159.582 63.3676C159.317 63.3676 159.052 63.7388 159.052 64.163C159.052 65.3295 158.098 65.1174 156.295 63.6327C154.439 62.095 153.538 62.148 153.325 63.7918C153.219 64.5872 153.431 64.9584 154.015 64.9584C154.492 64.9584 155.553 65.3295 156.348 65.8068C157.674 66.6022 157.992 66.6022 159.37 65.9128C160.696 65.2765 160.908 64.9053 160.749 63.3676C160.696 62.4131 160.908 61.4056 161.226 61.2465C162.287 60.5572 161.173 58.6483 159.423 58.171C157.833 57.7468 157.78 57.6938 158.946 57.3226C160.59 56.7923 160.431 55.5197 158.575 54.4592C157.249 53.7168 156.984 53.2926 157.09 51.5428C157.143 50.2701 156.878 49.3157 156.401 49.0505C155.287 48.3612 154.969 48.8384 155.234 50.7474C155.553 53.1866 154.439 52.02 153.909 49.3687C153.325 46.6113 152.159 46.1871 152.159 48.7324C152.159 49.7929 151.947 50.6413 151.682 50.6413C150.621 50.6413 145.478 48.8384 144.788 48.2021C144.364 47.8309 143.993 46.0281 143.834 43.6419C143.728 41.5208 143.41 39.2937 143.144 38.7105C142.879 38.1272 142.614 37.1727 142.508 36.5894C142.243 34.9986 140.705 34.9456 140.281 36.5894ZM146.538 52.02C150.992 53.0805 156.136 55.7318 156.136 57.0045C156.136 57.6408 154.068 57.7998 142.243 57.8529C133.388 57.9059 128.403 57.7468 128.615 57.4287C128.774 57.1635 129.252 57.0575 129.676 57.2166C130.047 57.3756 130.524 57.2696 130.683 57.0045C130.895 56.6863 131.797 56.4742 132.698 56.4212C134.077 56.4212 134.183 56.3151 133.335 55.997C132.38 55.6258 132.539 55.4667 134.395 54.6183C135.562 54.088 138.213 53.5047 140.228 53.2926C143.569 52.9745 143.675 52.9214 141.342 52.8154C138.743 52.7624 138.743 52.7624 139.698 51.7018C140.228 51.1186 141.023 50.7474 141.501 50.8534C141.978 50.9595 144.258 51.5428 146.538 52.02ZM153.113 60.0269C152.265 60.133 150.992 60.133 150.197 60.0269C149.348 59.9209 150.038 59.8148 151.629 59.8148C153.219 59.8148 153.909 59.9209 153.113 60.0269ZM127.555 62.4131C127.343 63.1025 127.024 64.5342 126.865 65.5947C126.441 68.246 125.328 68.6172 124.85 66.178C124.691 65.1705 124.691 63.6327 124.85 62.7843C125.116 61.5647 125.487 61.2465 126.547 61.2465C127.714 61.2465 127.82 61.4056 127.555 62.4131ZM126.176 87.2293C126.6 87.4945 126.759 87.7596 126.441 87.7596C126.176 87.7596 125.54 87.4945 125.116 87.2293C124.691 86.9642 124.585 86.6991 124.85 86.6991C125.169 86.6991 125.752 86.9642 126.176 87.2293Z" fill="#C21807"/>
<path d="M252.378 37.1724C252.378 37.4906 253.015 37.6497 253.863 37.4906C255.242 37.3315 275.286 38.1799 282.868 38.8162C284.936 38.9753 286.474 38.9753 286.315 38.8162C285.361 37.8087 252.378 36.218 252.378 37.1724Z" fill="#C21807"/>
<path d="M263.673 51.2245C263.355 51.5427 263.248 52.3381 263.408 53.0804C263.567 54.0879 263.885 54.3 264.627 54.0879C265.263 53.8758 265.635 54.0349 265.635 54.4591C265.688 54.8833 265.953 54.7773 266.43 54.1409C267.066 53.2925 267.65 53.1865 270.248 53.3986C273.164 53.7167 273.217 53.6637 271.733 52.9744C270.884 52.6032 269.612 52.285 268.922 52.232C268.286 52.232 266.907 51.9138 265.953 51.4896C264.786 51.0124 263.991 50.9063 263.673 51.2245Z" fill="#C21807"/>
<path d="M287.163 52.1259C286.156 53.8227 289.178 55.5196 290.345 53.9288C290.716 53.4515 290.875 52.8682 290.663 52.6561C289.974 51.9668 287.481 51.5956 287.163 52.1259Z" fill="#C21807"/>
<path d="M233.925 58.436C233.342 59.6556 233.13 64.534 233.66 65.2233C233.925 65.5415 234.668 66.0187 235.41 66.3369L236.736 66.9202L236.63 63.1553C236.577 61.0873 236.524 59.2314 236.524 59.0193C236.471 58.8072 235.993 58.383 235.41 58.0648C234.615 57.6406 234.297 57.6936 233.925 58.436Z" fill="#C21807"/>
<path d="M240.394 58.33C240.182 58.7542 240.182 60.7162 240.288 62.6782C240.501 65.7537 240.66 66.2839 242.091 67.3975C244.106 69.0413 244.53 68.9883 243.841 67.2914C243.576 66.496 243.417 64.2689 243.47 62.2539C243.629 58.383 243.629 58.383 241.879 57.8528C241.031 57.5876 240.607 57.6937 240.394 58.33Z" fill="#C21807"/>
<path d="M248.508 58.4361C248.083 58.8604 248.03 65.8598 248.455 67.3976C248.614 68.0339 249.303 68.7762 249.939 69.0944C251.159 69.6247 251.159 69.6247 251.265 64.4281C251.371 59.7088 251.265 59.1255 250.31 58.6483C249.091 57.9589 248.932 57.9589 248.508 58.4361Z" fill="#C21807"/>
<path d="M264.786 59.3374C264.362 61.1933 266.059 66.8141 267.544 68.1928L268.816 69.4124L268.498 64.3749C268.127 58.1708 268.074 58.0648 266.483 58.0648C265.476 58.0648 265.052 58.436 264.786 59.3374Z" fill="#C21807"/>
<path d="M256.832 59.7618C255.241 62.307 255.825 68.1929 257.681 69.2004C258.688 69.7307 258.741 69.5716 258.741 66.4431C258.741 64.322 259.059 62.6782 259.537 61.9358C260.226 60.9283 260.226 60.7162 259.484 59.9739C258.529 58.9664 257.363 58.8603 256.832 59.7618Z" fill="#C21807"/>
<path d="M273.43 62.148C273.324 62.4131 273.058 64.057 272.846 65.8068C272.528 68.8823 272.581 69.2005 273.854 70.5792C274.702 71.4806 275.179 71.7457 274.967 71.2155C274.861 70.7382 274.967 68.7763 275.285 66.8673C275.71 64.163 275.71 63.2085 275.179 62.5722C274.437 61.7238 273.801 61.5647 273.43 62.148Z" fill="#C21807"/>
<path d="M136.781 63.2084C136.781 65.2234 137.471 66.5491 138.425 66.5491C139.167 66.5491 139.433 66.1779 139.433 65.0643C139.433 63.4736 138.584 62.307 137.471 62.307C137.099 62.307 136.781 62.7312 136.781 63.2084Z" fill="#C21807"/>
<path d="M143.462 62.7843C142.932 63.6327 143.728 64.9583 145.318 65.7537C146.379 66.337 146.909 66.39 147.174 65.9658C147.333 65.6477 147.28 65.2235 147.015 65.0114C146.697 64.8523 146.22 64.1629 145.849 63.4736C145.212 62.307 143.993 61.9358 143.462 62.7843Z" fill="#C21807"/>
<path d="M62.5448 66.9731C62.5448 67.9276 63.0221 68.0336 67.9005 68.4048C70.8169 68.6169 73.097 68.882 73.044 68.9881C72.8319 69.1472 65.8325 69.6244 61.6434 69.6774C59.7345 69.7305 59.3633 69.8895 59.3633 70.791C59.3633 71.7985 59.7345 71.8515 64.2947 71.8515C67.0521 71.8515 74.1045 72.4348 80.0435 73.1772C85.9294 73.9195 90.9138 74.3968 91.0199 74.2907C91.391 73.9726 89.1639 73.6014 79.8844 72.4348C75.5362 71.8515 71.8774 71.2682 71.7184 71.1091C71.5063 70.9501 73.8924 70.791 76.9679 70.791C83.3841 70.791 85.8763 70.4198 85.8763 69.4653C85.8763 68.4578 83.0129 67.6094 79.8314 67.6094C78.2936 67.6094 76.8619 67.3973 76.5968 67.1322C76.2786 66.8671 73.044 66.4959 69.3322 66.2838C62.757 65.9126 62.5448 65.9126 62.5448 66.9731Z" fill="#C21807"/>
<path d="M5.17056 71.2153C3.95096 71.4805 3.95096 72.1698 5.17056 72.488C7.39766 73.0713 13.4426 72.3819 12.6472 71.6396C12.3291 71.3744 6.23108 71.0032 5.17056 71.2153Z" fill="#C21807"/>
<path d="M235.781 71.1092C235.145 71.7455 235.41 77.8965 236.099 78.798C237.319 80.3887 237.796 79.2752 237.743 75.1922C237.743 71.9576 237.531 71.0031 236.948 70.8971C236.523 70.844 235.993 70.8971 235.781 71.1092Z" fill="#C21807"/>
<path d="M241.402 72.4879C240.819 73.1772 241.19 77.4193 241.985 78.6389C242.569 79.5934 243.788 79.4343 244.053 78.3207C244.159 77.8435 244.265 76.1997 244.212 74.768C244.159 72.4879 244 72.1167 243.046 71.9576C242.463 71.8516 241.72 72.1167 241.402 72.4879Z" fill="#C21807"/>
<path d="M248.931 73.1241C248.189 73.6544 248.083 74.2377 248.348 75.8815C248.878 78.5328 249.568 79.8054 250.522 79.8054C251.159 79.8054 251.318 79.0631 251.318 76.4118C251.318 72.7529 250.628 71.8515 248.931 73.1241Z" fill="#C21807"/>
<path d="M256.726 73.5484C256.355 73.9196 256.09 75.7225 256.09 78.0556C256.09 81.5553 256.196 81.9265 257.15 81.9265C258.37 81.9265 258.847 80.3888 258.953 76.1467C259.006 73.0712 258.158 72.1167 256.726 73.5484Z" fill="#C21807"/>
<path d="M268.711 74.5559C267.332 75.2982 267.438 78.7979 268.817 80.0706C269.4 80.6008 269.983 80.919 270.089 80.8129C270.195 80.7069 270.407 79.1691 270.513 77.4723C270.673 74.2377 270.301 73.6014 268.711 74.5559Z" fill="#C21807"/>
<path d="M275.338 74.3439C274.331 74.7151 274.437 80.5479 275.445 81.3963C276.558 82.2978 276.876 81.8736 277.353 78.692C277.937 75.0862 277.194 73.5485 275.338 74.3439Z" fill="#C21807"/>
<path d="M223.373 80.8661C223.373 82.4569 223.479 83.1463 223.585 82.2979C223.691 81.5025 223.691 80.2298 223.585 79.3814C223.479 78.586 223.373 79.2754 223.373 80.8661Z" fill="#C21807"/>
<path d="M225.971 80.3358C225.971 81.0782 226.077 81.3433 226.236 80.9721C226.342 80.6539 226.342 80.0176 226.236 79.6464C226.077 79.3283 225.971 79.5934 225.971 80.3358Z" fill="#C21807"/>
<path d="M194.686 80.2827C193.413 81.0781 191.928 85.7444 191.928 89.0851C191.928 90.941 191.663 92.6378 191.398 92.7969C190.285 93.4862 192.035 94.6528 194.103 94.6528C195.587 94.6528 196.277 94.9179 196.701 95.7133C197.443 97.092 198.079 97.039 198.451 95.6603C198.716 94.7058 199.034 94.5998 200.254 94.8649C201.208 95.13 201.579 95.077 201.208 94.7588C200.943 94.4407 200.201 94.1225 199.617 94.0165C198.663 93.8574 198.557 93.4332 198.663 89.3502C198.769 86.858 198.557 84.1006 198.239 83.1461C197.655 81.3432 195.64 79.6994 194.686 80.2827ZM195.905 81.8205C197.443 82.881 198.133 85.6914 197.655 88.7139C197.39 90.3577 197.284 92.1606 197.443 92.6378C197.761 93.9104 195.322 93.9635 193.943 92.6908C192.724 91.5773 192.671 86.858 193.837 83.6764C194.739 81.3432 194.951 81.1311 195.905 81.8205Z" fill="#C21807"/>
<path d="M237.743 81.6614C238.326 82.0856 239.387 82.4568 240.129 82.4568C240.871 82.5098 243.894 82.7219 246.81 82.9871C249.727 83.2522 259.271 83.7294 268.021 84.0476C288.86 84.7369 295.382 85.3732 299.836 86.964C300.738 87.2822 300.738 87.2291 299.677 86.4337C297.768 85.002 290.716 84.1536 275.657 83.5703C261.923 82.9871 252.007 82.2977 243.629 81.3432C241.296 81.0781 238.803 80.866 238.061 80.866C236.788 80.919 236.788 80.919 237.743 81.6614Z" fill="#C21807"/>
<path d="M20.0179 81.7145C19.8058 81.8735 19.8058 83.3052 19.9649 84.843C20.124 86.3807 20.0709 89.6684 19.8588 92.2136C19.5407 96.1906 19.3816 96.7739 18.4802 96.7739C17.7908 96.7739 17.4727 97.145 17.4727 97.8874C17.4727 98.6828 17.7378 98.8949 18.268 98.6828C18.7453 98.5237 19.2225 98.7358 19.4346 99.2661C19.7528 100.008 19.8058 100.008 20.4421 99.2131C21.0254 98.3646 22.5632 98.3116 39.4255 98.4707C49.5004 98.5768 57.7725 98.4707 57.7725 98.3116C57.7725 97.6753 51.9926 97.3571 39.9027 97.3041C33.1684 97.2511 27.4946 97.092 27.3355 96.9329C27.1764 96.7208 27.2295 96.3497 27.4946 96.0315C28.29 95.024 28.7142 88.2367 28.0248 87.4413C27.1764 86.3807 25.5856 86.5398 25.3205 87.6003C24.6842 89.9335 24.8433 95.8724 25.5326 96.2966C25.9568 96.5618 25.1084 96.7739 23.4646 96.7739H20.7072L21.0254 89.9865C21.2905 83.7825 20.9194 80.76 20.0179 81.7145ZM27.0174 92.0015C27.0174 92.2666 26.9113 92.5318 26.8052 92.5318C26.6462 92.5318 26.381 92.2666 26.222 92.0015C26.0629 91.6834 26.1689 91.4713 26.4341 91.4713C26.7522 91.4713 27.0174 91.6834 27.0174 92.0015Z" fill="#C21807"/>
<path d="M180.528 82.4568C180.369 82.7219 180.475 82.9871 180.74 82.9871C181.058 82.9871 181.323 82.7219 181.323 82.4568C181.323 82.1386 181.217 81.9265 181.111 81.9265C180.952 81.9265 180.687 82.1386 180.528 82.4568Z" fill="#C21807"/>
<path d="M224.38 84.0477C224.38 84.7901 224.486 85.0552 224.646 84.684C224.752 84.3659 224.752 83.7295 224.646 83.3584C224.486 83.0402 224.38 83.3053 224.38 84.0477Z" fill="#C21807"/>
<path d="M53.5305 87.3881C51.7276 88.0244 51.6745 88.1305 51.5155 90.9409C51.4624 92.5317 51.3564 94.4406 51.2503 95.183C51.1973 96.1905 51.4094 96.5086 52.2048 96.5086C53.1063 96.5086 53.2653 96.1374 53.3184 94.2285C53.4774 90.8878 54.0607 90.7818 54.0607 94.0694C54.0607 96.6677 54.1668 96.8268 55.2803 96.6677C56.3408 96.5086 56.4469 96.2435 56.2878 93.8043C56.2348 92.2665 56.3939 90.4106 56.712 89.6152C57.0832 88.5547 57.0832 87.9714 56.659 87.4412C55.9697 86.5927 55.9166 86.5927 53.5305 87.3881Z" fill="#C21807"/>
<path d="M36.721 89.1911C36.2438 90.6228 36.5619 94.3347 37.2513 94.971C37.7815 95.5543 39.7965 94.0695 40.3268 92.6378C40.751 91.5773 40.645 90.888 39.9026 89.5093C38.789 87.3882 37.3573 87.2292 36.721 89.1911Z" fill="#C21807"/>
<path d="M134.66 91.2591C134.66 91.5773 139.326 93.5923 140.069 93.5923C140.387 93.5923 140.546 93.4862 140.44 93.3802C140.016 92.956 134.66 90.941 134.66 91.2591Z" fill="#C21807"/>
<path d="M142.402 91.5243C142.667 92.0016 142.349 92.0546 141.023 91.7895C138.054 91.2062 139.698 92.0546 142.985 92.85C147.227 93.8045 147.705 93.2742 143.993 91.7364C142.667 91.1531 142.137 91.1001 142.402 91.5243Z" fill="#C21807"/>
<path d="M145.477 95.6602C148.712 97.357 149.507 97.6222 149.507 96.8798C149.507 96.6677 148.235 96.0314 146.75 95.4481C142.296 93.9104 142.137 93.9104 145.477 95.6602Z" fill="#C21807"/>
<path d="M177.771 101.44C176.869 106.425 176.869 106.584 177.877 105.788C178.407 105.364 178.513 104.94 178.195 104.781C177.824 104.569 177.824 103.667 178.195 102.077C178.46 100.804 178.672 99.2662 178.566 98.6829C178.46 98.0466 178.089 99.3192 177.771 101.44Z" fill="#C21807"/>
<path d="M17.3666 101.122C16.5181 101.387 15.8818 101.864 15.8818 102.183C15.8818 102.501 16.253 102.554 16.8363 102.342C18.8513 101.44 20.8663 101.493 32.5851 102.819C39.3194 103.508 46.69 104.251 49.0231 104.463C51.3563 104.675 56.924 105.417 61.4313 106.106C71.2941 107.697 73.097 107.538 64.0826 105.841C60.4768 105.205 56.871 104.516 56.0756 104.41C55.2272 104.251 54.5909 103.826 54.5909 103.508C54.5909 103.084 54.4318 103.137 54.1137 103.561C53.7425 104.145 51.9396 104.092 43.6675 103.137C38.1528 102.554 31.6306 101.705 29.1914 101.281C24.1539 100.38 19.4876 100.327 17.3666 101.122Z" fill="#C21807"/>
<path d="M280.27 106.584C279.687 107.008 279.475 107.379 279.793 107.379C280.111 107.379 280.641 107.008 281.012 106.584C281.861 105.576 281.596 105.576 280.27 106.584Z" fill="#C21807"/>
<path d="M84.6039 115.704C84.2857 119.31 85.2402 127.635 86.4068 130.976C86.937 132.567 86.937 132.567 86.6189 130.711C86.4598 129.703 86.1417 127.529 85.8235 125.938C84.763 119.628 85.3993 113.371 87.1492 112.682C88.1036 112.258 88.0506 112.205 86.6189 112.205L84.9751 112.152L84.6039 115.704Z" fill="#C21807"/>
<path d="M67.4233 119.84C67.4233 120.689 67.5294 121.007 67.6885 120.477C67.7945 119.999 67.7945 119.257 67.6885 118.886C67.5294 118.568 67.4233 118.939 67.4233 119.84Z" fill="#C21807"/>
<path d="M86.9897 133.362C86.9897 134.104 88.4745 137.18 88.5275 136.49C88.5275 136.278 88.1563 135.324 87.7321 134.369C87.3079 133.362 86.9897 132.938 86.9897 133.362Z" fill="#C21807"/>
<path d="M105.655 138.505C106.132 138.611 106.875 138.611 107.246 138.505C107.564 138.346 107.193 138.24 106.292 138.24C105.443 138.24 105.125 138.346 105.655 138.505Z" fill="#C21807"/>
<path d="M231.804 139.248C230.85 139.884 230.161 140.467 230.267 140.626C230.426 140.732 231.433 140.255 232.494 139.46C234.88 137.869 234.297 137.657 231.804 139.248Z" fill="#C21807"/>
<path d="M78.4526 139.725C78.0284 139.99 77.4982 140.043 77.233 139.884C75.8013 138.983 75.218 144.55 76.6497 145.929C77.2861 146.619 77.7103 146.619 78.7708 146.141C80.1495 145.505 81.8993 142.217 81.4221 140.998C80.9979 139.937 79.3011 139.195 78.4526 139.725ZM80.5737 141.846C80.5737 143.543 79.4071 145.558 78.3466 145.558C77.233 145.558 77.18 144.975 78.0284 142.535C78.7178 140.574 80.5737 140.043 80.5737 141.846Z" fill="#C21807"/>
<path d="M221.358 145.611C218.176 147.944 214.677 150.277 213.669 150.701C212.662 151.179 212.078 151.656 212.449 151.762C213.298 152.08 216.002 150.595 219.502 147.997C221.093 146.777 223.797 144.921 225.494 143.808C227.138 142.747 228.516 141.74 228.516 141.581C228.516 140.732 226.501 141.846 221.358 145.611Z" fill="#C21807"/>
<path d="M189.808 144.497C189.808 145.823 189.596 146.088 188.482 146.088H187.156V156.11C187.156 161.625 186.997 166.503 186.838 166.98C186.679 167.458 186.785 167.829 187.103 167.829C187.422 167.829 187.687 166.874 187.687 165.549C187.687 164.329 188.164 160.087 188.8 156.163C189.383 152.239 189.967 147.997 190.179 146.724C190.444 144.709 190.603 144.497 191.929 144.497C194.315 144.497 194.58 145.293 194.05 151.073C193.785 153.883 193.573 157.966 193.679 160.087C193.732 163.003 193.573 164.223 192.83 165.337C191.929 166.715 191.929 166.768 192.989 166.768C193.573 166.768 194.209 166.45 194.368 166.079C194.474 165.708 194.686 162.049 194.792 158.019C194.898 153.936 195.163 149.323 195.375 147.785C195.906 144.232 194.898 142.907 191.823 142.907C189.914 142.907 189.808 143.013 189.808 144.497ZM188.747 152.027C188.747 152.398 188.482 153.088 188.217 153.512C187.793 154.148 187.687 153.989 187.687 152.822C187.687 152.027 187.952 151.391 188.217 151.391C188.535 151.391 188.747 151.709 188.747 152.027Z" fill="#C21807"/>
<path d="M137.577 159.875C137.577 163.322 137.736 166.291 137.895 166.45C138.266 166.874 143.887 166.238 144.576 165.761C144.788 165.602 144.894 163.428 144.735 160.935L144.47 156.481L142.402 156.057C141.288 155.792 139.751 155.156 138.955 154.625L137.577 153.618V159.875ZM143.357 158.337C143.622 158.602 143.94 160.087 144.099 161.625L144.311 164.488L142.296 164.859C141.129 165.071 139.804 165.337 139.327 165.496C138.478 165.761 138.372 165.39 138.372 162.685C138.372 157.807 138.637 157.277 140.917 157.595C142.031 157.754 143.091 158.072 143.357 158.337Z" fill="#C21807"/>
<path d="M75.8012 155.633C75.1119 157.277 74.8468 166.556 75.4831 167.14C75.6422 167.352 76.1194 167.193 76.4376 166.874C76.8087 166.503 77.9753 166.238 79.0358 166.238C82.7477 166.238 83.0128 164.011 80.0964 157.595C78.2935 153.565 76.9148 152.929 75.8012 155.633ZM78.9828 158.019C78.9828 158.814 76.5436 161.519 76.1724 161.148C75.9073 160.882 76.4906 158.231 77.1799 156.163C77.445 155.527 77.6041 155.527 78.2404 156.375C78.6646 156.958 78.9828 157.701 78.9828 158.019ZM80.8387 161.731C82.0053 164.223 81.2099 165.284 78.5056 165.071C76.0133 164.859 75.7482 163.322 77.6572 160.988C79.301 159.08 79.5661 159.186 80.8387 161.731Z" fill="#C21807"/>
<path d="M106.557 154.572C106.557 154.837 107.776 155.103 109.208 155.103C112.231 155.103 112.177 155.05 112.602 159.716L112.92 163.003L111.17 162.897C110.269 162.844 108.943 163.003 108.307 163.216C107.246 163.587 107.087 163.481 107.087 162.42C107.087 161.731 107.564 160.458 108.147 159.61C108.731 158.708 109.208 157.542 109.208 156.958C109.208 156.269 108.625 156.905 107.564 158.708C106.61 160.405 106.026 162.102 106.133 162.95C106.292 164.329 106.451 164.382 108.89 164.223C111.7 164.117 112.92 164.753 112.92 166.291C112.92 166.874 113.132 167.299 113.344 167.299C114.033 167.299 113.397 154.89 112.708 154.466C111.806 153.883 106.557 153.989 106.557 154.572Z" fill="#C21807"/>
<path d="M179.998 170.268C179.786 171.435 179.415 173.184 179.149 174.192C178.566 176.525 178.566 177.374 179.096 177.374C179.574 177.374 180.952 168.889 180.581 168.465C180.422 168.359 180.157 169.154 179.998 170.268Z" fill="#C21807"/>
</svg>
