<svg width="132" height="203" viewBox="0 0 132 203" fill="none" xmlns="http://www.w3.org/2000/svg">
<path d="M37.9394 70.4532C37.4783 70.5252 37.272 70.8038 37.3205 71.2886C37.3739 71.8741 37.6578 72.1021 38.1723 71.9727C39.915 71.5359 39.8374 71.0293 37.9394 70.4532ZM38.6312 71.3101C38.5536 71.8046 38.3811 71.7686 38.1141 71.202C38.2792 71.1493 38.444 71.1686 38.6091 71.2595C38.6286 71.2788 38.636 71.2959 38.6312 71.3101ZM34.3716 54.5615C36.4251 54.1534 36.4905 53.5174 34.5684 52.6533C33.9472 52.8406 33.6582 53.2726 33.702 53.9494C33.7307 54.444 33.9542 54.648 34.3716 54.5615ZM34.4662 53.8632C34.4566 53.6664 34.5486 53.5224 34.7427 53.4311L34.7574 53.4166C35.4808 53.9687 35.3885 54.1462 34.4809 53.9494C34.471 53.9207 34.4662 53.8919 34.4662 53.8632ZM24.0687 42.8101C24.1996 43.1847 24.4254 43.3261 24.7457 43.2349C26.7407 42.6683 26.7334 41.8907 24.724 40.9019C23.9911 41.3005 23.7726 41.9365 24.0687 42.8101ZM24.6004 42.5151C24.5666 42.2416 24.6077 41.9823 24.7243 41.7376C24.7339 41.7281 24.7438 41.723 24.7534 41.723C25.3263 41.7616 25.5882 42.0351 25.5396 42.5439C25.3116 42.9134 25.0009 42.9326 24.6077 42.6013C24.6077 42.5726 24.6052 42.5439 24.6004 42.5151ZM38.3543 28.5748C38.2524 28.5893 38.1649 28.6443 38.0921 28.7403C36.898 30.387 37.325 31.1573 39.3737 31.0518C39.3931 31.023 39.4101 30.9918 39.4248 30.9583C39.983 29.6284 39.6259 28.8338 38.3543 28.5748ZM38.2234 30.3532C38.0582 29.9837 38.1311 29.6404 38.4418 29.3236C39.1651 29.8371 39.1067 30.2022 38.2671 30.4182C38.2476 30.399 38.2329 30.3772 38.2234 30.3532ZM51.6205 81.283C51.8437 81.4223 52.0769 81.4485 52.3196 81.3623C54.3778 80.6615 54.3583 79.992 52.2615 79.3534C51.9798 79.4206 51.7907 79.6054 51.6936 79.9077C51.5429 80.359 51.5186 80.8172 51.6205 81.283ZM52.8002 80.0731C53.0282 80.1546 53.1595 80.2797 53.1933 80.4477C52.9797 80.8892 52.669 80.947 52.2615 80.6205C52.2615 80.5917 52.264 80.563 52.2688 80.5339C52.3126 80.3034 52.4266 80.1404 52.6112 80.0444C52.6789 80.0444 52.7418 80.0542 52.8002 80.0731ZM68.8985 76.0771C68.2288 77.3972 68.5465 78.2107 69.8524 78.518C71.0854 78.8061 71.5852 78.3526 71.3524 77.1572C71.1729 76.2163 70.4908 75.741 69.3063 75.7316C69.1268 75.7698 68.9907 75.885 68.8985 76.0771ZM69.4228 77.0059C69.6365 76.9386 69.8501 76.8786 70.0635 76.8259C70.5779 76.5666 70.8887 76.6146 70.9953 76.9699C71.0924 77.1139 71.102 77.2674 71.0244 77.4307C70.9516 77.5892 70.874 77.7522 70.7913 77.9202C70.3301 78.213 69.8738 78.2035 69.4225 77.8914C69.306 77.762 69.26 77.5987 69.2842 77.4019C69.2989 77.2867 69.306 77.1714 69.306 77.0564C69.3452 77.0372 69.3842 77.0201 69.4228 77.0059ZM86.002 77.0779C85.6817 77.1739 85.507 77.4114 85.4777 77.7907C85.4387 78.3573 85.5166 78.8781 85.7108 79.3534C86.0844 79.6174 86.4728 79.5909 86.8758 79.2741C88.332 78.1362 88.0408 77.4041 86.002 77.0779ZM86.2348 78.518C86.2348 78.3115 86.2348 78.11 86.2348 77.9132C86.7397 77.7645 87.0505 77.8987 87.1667 78.3165C86.9821 78.8639 86.6717 78.9599 86.2348 78.6046C86.2348 78.5755 86.2348 78.5468 86.2348 78.518ZM91.5648 65.456C93.6812 64.88 93.7856 64.1817 91.8778 63.3605C91.271 63.6391 90.9555 64.1359 90.9312 64.8512C90.9166 65.3793 91.128 65.5808 91.5648 65.456ZM91.7612 65.06C91.7612 65.0312 91.7587 65.0025 91.7539 64.9734C91.7054 64.6279 91.8047 64.3399 92.0525 64.1094C92.771 64.4985 92.674 64.8152 91.7612 65.06ZM107.11 52.4736C108.469 51.4033 108.161 50.8102 106.185 50.6949C105.709 51.1174 105.692 51.6502 106.134 52.2932C106.421 52.7013 106.746 52.7613 107.11 52.4736ZM107.328 51.8182C106.877 52.1543 106.612 52.0295 106.535 51.4437C106.972 51.2662 107.243 51.3717 107.35 51.7605C107.35 51.7892 107.343 51.8085 107.328 51.8182ZM98.5983 42.7166C100.642 42.6351 100.812 42.114 99.108 41.1539C98.7586 41.3605 98.4865 41.6485 98.2923 42.018C98.0305 42.4981 98.1323 42.7311 98.5983 42.7166ZM99.5522 42.198C99.1006 42.6396 98.9042 42.5315 98.9623 41.874C99.3117 41.7395 99.5158 41.826 99.5739 42.1333C99.5739 42.162 99.5665 42.1838 99.5522 42.198ZM95.0669 25.5145C97.1494 25.428 97.2608 24.7729 95.4019 23.5488C94.8535 23.7503 94.5233 24.1296 94.4116 24.6864C94.2953 25.2625 94.5137 25.5385 95.0669 25.5145ZM95.0669 24.8232C95.1493 24.6217 95.2901 24.4464 95.489 24.2976C95.5085 24.2882 95.5207 24.2856 95.5255 24.2904C95.7876 24.5497 95.9403 24.821 95.984 25.1039C95.5861 25.4065 95.2754 25.3392 95.0522 24.9024C95.0525 24.8737 95.0573 24.8472 95.0669 24.8232ZM64.1296 20.0565C64.0082 20.0517 63.8821 20.0492 63.7511 20.0492C63.3628 20.102 62.9671 20.1958 62.5644 20.33C61.9187 20.5413 61.5061 20.9468 61.3266 21.5468C61.3266 21.5516 61.3266 21.5563 61.3266 21.5614C60.38 21.4461 59.3412 21.6046 58.2104 22.0367C48.6818 25.6898 43.3253 32.4224 42.1409 42.2344C41.7672 45.3401 41.8908 48.439 42.5123 51.5302C43.5511 56.7289 46.4659 60.5981 51.2568 63.1376C58.0475 66.7474 65.3651 67.6908 73.2094 65.9673C77.1023 65.1178 80.2502 63.2118 82.653 60.25C82.8471 60.01 83.0388 59.7675 83.2281 59.5227C83.5874 59.1961 83.8253 58.8601 83.9416 58.5146C86.0142 55.471 87.3347 52.094 87.9025 48.3834C88.7811 42.6326 87.8565 37.2513 85.1283 32.2396C81.2354 25.0821 75.1967 21.3258 67.013 20.9708C66.9549 20.9803 66.9063 20.9875 66.8674 20.9923C66.5519 20.4547 65.7631 20.1474 64.501 20.0707C64.7775 18.4771 65.018 16.8449 65.2217 15.1742C65.9304 9.41364 65.7509 3.85741 64.683 -1.49512C64.9062 3.87636 64.6613 9.4787 63.9475 15.311C63.7243 17.1064 63.785 18.6883 64.1296 20.0565ZM72.9469 24.9312C72.1412 25.5647 71.1799 26.0135 70.0635 26.2775C69.0297 25.0247 67.918 23.8151 66.7288 22.6484C66.8354 22.4277 66.9134 22.2211 66.9619 22.0291C69.0444 22.6149 71.0394 23.5823 72.9469 24.9312ZM69.6122 26.3713C69.3015 26.4288 68.9786 26.4721 68.6439 26.5008C67.8478 26.5775 67.052 26.6473 66.2558 26.7096C66.0326 25.8262 65.8042 24.9454 65.5714 24.0668C65.8579 23.9133 66.0958 23.6947 66.2849 23.4114C66.4452 23.1762 66.5787 22.9529 66.6853 22.7419C67.7191 23.9085 68.6947 25.1185 69.6122 26.3713ZM70.7044 27.0769C70.8404 27.0336 70.9787 26.9903 71.1192 26.9474C72.2695 26.5873 73.1433 26.1098 73.7405 25.5145C75.1482 26.6041 76.4345 27.754 77.5995 28.9636C76.9685 29.3669 76.2915 29.7219 75.5681 30.0292C74.84 30.3412 74.1119 30.6197 73.3838 30.8645C72.5634 29.5589 71.6704 28.2962 70.7044 27.0769ZM74.7161 23.1597C75.8616 23.7071 76.9733 24.3621 78.0508 25.1254C78.7837 25.6437 79.4729 26.2077 80.1186 26.8176C79.6428 27.3456 79.1261 27.8304 78.5678 28.2719C77.291 26.9758 75.8664 25.8189 74.2939 24.8014C74.5756 24.3118 74.7164 23.7645 74.7161 23.1597ZM74.5561 23.0808C74.2697 23.5514 73.9446 23.9761 73.5805 24.3551C71.6436 23.179 69.4934 22.2044 67.1296 21.4316V21.4461C67.0858 21.4461 67.0472 21.4508 67.013 21.4606C66.9983 21.3119 66.9597 21.1751 66.8964 21.0501C69.6049 21.2756 72.1581 21.9524 74.5561 23.0808ZM73.9152 31.7358C75.0511 31.3231 76.1918 30.8263 77.3374 30.2452C77.6819 30.0724 77.9949 29.8899 78.2766 29.6979C79.2765 30.8114 80.177 31.9781 80.978 33.1975C79.4489 34.335 77.8544 35.3024 76.1944 36.0992C75.5148 34.5969 74.7551 33.1422 73.9152 31.7358ZM67.7118 33.176C69.5174 32.9985 71.3377 32.6047 73.1727 31.9951C73.9589 33.4448 74.6823 34.9449 75.3424 36.4956C73.2212 37.4269 70.9979 38.0892 68.673 38.483C68.3817 36.6968 68.0614 34.9278 67.7118 33.176ZM72.663 31.0878C70.9592 31.6064 69.236 31.9424 67.4933 32.0959C67.1925 30.6605 66.8719 29.2349 66.5321 27.8187C67.7213 27.7467 68.947 27.5452 70.2091 27.2139C71.0828 28.4617 71.901 29.7531 72.663 31.0878ZM67.8136 39.2748C67.8232 39.3515 67.8331 39.4261 67.8427 39.4981C68.1097 41.399 68.3476 43.2977 68.5561 45.1936C66.061 45.4816 63.542 45.5344 60.9983 45.3521C61.0178 43.8545 61.0494 42.3518 61.0932 40.8444C61.1079 40.3739 61.1248 39.9061 61.1439 39.4403C63.4257 39.6036 65.6487 39.5483 67.8136 39.2748ZM75.641 37.2153C75.9175 37.8969 76.1823 38.586 76.4346 39.2821C76.8909 40.5397 77.2962 41.7976 77.6506 43.0552C74.9907 44.0055 72.3037 44.6728 69.5905 45.0568C69.3577 43.0694 69.0882 41.0964 68.7822 39.138C71.1365 38.7635 73.4227 38.1227 75.641 37.2153ZM78.5678 42.7166C78.0096 40.6859 77.3275 38.7275 76.5217 36.8408C78.2303 36.0774 79.8979 35.1533 81.5238 34.0685C82.6402 35.9167 83.5334 37.8751 84.2031 39.9443C82.9605 40.7364 81.6473 41.43 80.2639 42.0253C79.7015 42.27 79.136 42.5006 78.5678 42.7166ZM82.0264 32.3766C81.9827 32.4152 81.9389 32.4512 81.8955 32.4847C81.0945 31.2125 80.1965 30.0342 79.2014 28.949C79.7935 28.349 80.1454 27.6842 80.2572 26.9543C81.5241 28.1737 82.6089 29.5633 83.5117 31.1235C83.5213 31.138 83.5312 31.1522 83.5408 31.1667C83.0458 31.5558 82.5409 31.9588 82.0264 32.3766ZM82.4559 33.4207C83.2035 32.8352 83.6695 32.2712 83.8541 31.7286C85.0481 33.8935 85.9414 36.0752 86.5334 38.274C86.0384 38.6675 85.531 39.0446 85.0117 39.4043C84.3468 37.2346 83.4948 35.2399 82.4559 33.4207ZM85.3103 40.4196C86.0531 39.8676 86.4996 39.2941 86.65 38.6987C87.1986 40.8924 87.4484 43.1007 87.3998 45.3234C87.0648 45.5682 86.7276 45.806 86.3878 46.0362C86.1742 44.1542 85.8152 42.282 85.3103 40.4196ZM63.7218 20.798C64.3138 20.7886 64.8577 20.8893 65.3527 21.1006C66.7457 21.6909 66.8089 22.368 65.5421 23.131C64.6731 23.6543 63.7824 23.6663 62.8697 23.167C61.0156 22.1542 61.2995 21.3646 63.7218 20.798ZM58.9382 26.1986C59.3361 25.8291 59.7464 25.4665 60.1686 25.1112C60.7658 24.6166 61.1976 24.1558 61.4646 23.7285C61.7268 24.0646 62.1515 24.2781 62.7388 24.3693C62.4281 25.2094 62.1515 26.0662 61.9088 26.9398C60.7291 26.8826 59.7391 26.6353 58.9382 26.1986ZM58.0644 25.5792C57.4723 25.0272 57.0403 24.3169 56.7685 23.4478C58.1858 22.7612 59.6858 22.2022 61.2682 21.7701C61.1468 22.2502 61.113 22.6655 61.1663 23.0157C60.0109 23.6638 58.9768 24.5184 58.0644 25.5792ZM57.9479 25.716C57.8364 25.8455 57.7272 25.98 57.6202 26.1193C56.6251 27.4056 55.7223 28.7258 54.9118 30.0797C53.407 29.3309 52.1548 28.3613 51.1546 27.1707C52.6789 25.8265 54.3414 24.6889 56.1422 23.7576C55.987 24.1321 56.2393 24.5544 56.8994 25.025C57.244 25.2697 57.5934 25.5 57.9479 25.716ZM64.7992 24.3119C65.0321 24.2784 65.2457 24.2184 65.4399 24.1318C65.5855 24.9959 65.7337 25.8647 65.8841 26.7386C64.9861 26.8106 64.0855 26.8731 63.1827 26.9259C63.0661 26.9306 62.9521 26.9354 62.8403 26.9404C63.0441 25.9469 63.1099 25.1017 63.0367 24.406C63.5276 24.4486 64.1149 24.4177 64.7992 24.3119ZM62.7024 27.5736C63.7898 27.7849 64.911 27.8737 66.0661 27.8402C66.2992 29.2658 66.5298 30.7037 66.7578 32.1534C65.1464 32.2494 63.5225 32.1919 61.8867 31.9806C62.1103 30.5019 62.3821 29.0331 62.7024 27.5736ZM58.8944 26.2418C59.8314 26.7219 60.7971 27.0939 61.7922 27.3579C61.4087 28.8076 61.1174 30.303 60.9185 31.8439C59.7388 31.6471 58.5521 31.3733 57.358 31.023C56.6688 30.8215 56.0158 30.5837 55.3994 30.3102C56.4092 28.8458 57.5742 27.4896 58.8944 26.2418ZM52.6472 29.5036C53.2978 29.8971 53.9505 30.2597 54.6058 30.591C53.5136 32.4679 52.5961 34.4026 51.8536 36.3945C49.8829 35.3577 48.1523 33.9968 46.6622 32.3119C47.2981 31.3565 48.0115 30.4302 48.8029 29.5324C49.4777 28.7643 50.1863 28.0467 50.9291 27.3794C51.123 28.2242 51.6959 28.9323 52.6472 29.5036ZM51.9846 37.4241C53.1058 37.9427 54.3219 38.3434 55.6326 38.6264C57.2878 38.9865 58.9139 39.2385 60.511 39.3825C60.4529 41.3554 60.4066 43.3284 60.3727 45.3013C57.5911 45.0613 54.7808 44.5379 51.9411 43.7317C51.5043 43.6069 51.0748 43.4771 50.6526 43.3429C50.9288 41.3652 51.373 39.3923 51.9846 37.4241ZM51.5624 37.2153C50.8975 39.1355 50.3948 41.111 50.0554 43.1414C47.5797 42.282 45.3299 41.1757 43.3059 39.8218C43.9222 37.3496 44.9272 35.0213 46.3202 32.8371C47.7324 34.7143 49.4799 36.1738 51.5624 37.2153ZM52.2541 36.6033C52.9628 34.5198 53.8997 32.5901 55.0647 30.814C56.9627 31.7308 58.8775 32.3934 60.8096 32.8014C60.7125 33.7088 60.6493 34.6329 60.6202 35.5737C60.5863 36.644 60.5547 37.7146 60.5257 38.7853C57.4187 38.526 54.6617 37.7986 52.2541 36.6033ZM61.7411 32.9814C63.4548 33.2647 65.1828 33.351 66.9252 33.2407C67.1969 35.0216 67.4617 36.8171 67.7188 38.6267C65.6219 38.91 63.4423 38.9795 61.1803 38.8355C61.2873 36.8673 61.4745 34.9158 61.7411 32.9814ZM58.6105 46.2664C59.193 46.3337 59.773 46.3912 60.3507 46.4392C60.3117 48.4121 60.2826 50.3828 60.2635 52.351C56.9288 52.1878 53.6376 51.667 50.3904 50.7884C50.2352 48.6281 50.2812 46.4727 50.5287 44.3222C53.0816 45.2823 55.7756 45.9304 58.6105 46.2664ZM60.9913 52.3798C60.9718 50.4214 60.9718 48.4579 60.9913 46.4897C63.6221 46.6672 66.1852 46.617 68.68 46.3384C68.8742 48.2059 69.0418 50.0708 69.1824 51.9332C66.4254 52.3172 63.6949 52.4663 60.9913 52.3798ZM61.006 53.2871C62.3604 53.3017 63.7412 53.2486 65.1489 53.1286C66.5228 53.0133 67.8842 52.8551 69.2338 52.6533C69.3698 54.5975 69.4765 56.5369 69.5541 58.4713C66.7144 59.0136 63.9111 59.2587 61.1443 59.2059C61.0762 57.2377 61.0302 55.2648 61.006 53.2871ZM49.5454 51.4004C49.5601 51.8132 49.5818 52.2285 49.6108 52.646C49.7226 54.3357 49.9822 55.9366 50.3901 57.4487C48.3076 56.7959 46.2445 55.9605 44.201 54.943C43.3758 53.0566 42.8636 50.9204 42.6646 48.5343C42.655 48.4238 42.6477 48.3136 42.6429 48.203C44.8467 49.5282 47.1477 50.5941 49.5454 51.4004ZM51.351 56.9522C50.924 55.2001 50.6276 53.4479 50.4629 51.6957C53.5644 52.6463 56.8266 53.1719 60.2488 53.2726C60.2293 55.2408 60.2172 57.209 60.2124 59.1772C57.2903 59.0477 54.4094 58.5869 51.5697 57.7948C51.4918 57.5163 51.419 57.2355 51.351 56.9522ZM49.9094 44.0848C49.6086 46.1824 49.4799 48.3379 49.5237 50.5509C47.1984 49.8741 44.8978 49.0147 42.6212 47.9731C42.4513 45.3136 42.6333 42.7886 43.1672 40.3982C43.2158 40.4367 43.2691 40.4774 43.3276 40.5207C45.405 41.97 47.5989 43.1581 49.9094 44.0848ZM53.681 63.6271C52.9771 62.1102 52.385 60.5548 51.9044 58.9612C54.3267 59.6332 56.9259 59.962 59.7024 59.9478C59.8723 59.9478 60.0422 59.9478 60.2121 59.9478C60.2121 60.9511 60.2121 61.9567 60.2121 62.9648C60.2169 63.8624 60.3625 64.5825 60.6489 65.125C60.1683 65.1396 59.6903 65.1516 59.2144 65.161C58.2241 64.9738 57.2341 64.7435 56.2438 64.4697C55.3413 64.2246 54.4867 63.9439 53.681 63.6271ZM50.7394 58.6084C51.3024 60.3078 52.067 61.892 53.033 63.3609C48.9897 61.6327 46.1184 58.9852 44.4194 55.4186C46.3659 56.7962 48.4727 57.8596 50.7394 58.6084ZM61.4208 65.5065C61.4208 65.468 61.4183 65.4298 61.4135 65.3913C64.219 65.4585 66.9788 65.24 69.6921 64.7359C69.6921 64.9952 69.6921 65.2567 69.6921 65.5208C66.9546 65.8568 64.1973 65.8521 61.4208 65.5065ZM60.8019 65.3767C60.8115 65.3913 60.8236 65.408 60.8383 65.4273C60.6732 65.4033 60.5081 65.3793 60.3433 65.3553C60.4937 65.36 60.6467 65.3673 60.8019 65.3767ZM61.3991 65.0887C61.3068 63.3703 61.2292 61.6491 61.1663 59.926C64.0156 59.8395 66.8188 59.5565 69.5758 59.0764C69.6339 60.6893 69.6703 62.3022 69.685 63.9151C66.9958 64.5439 64.2337 64.9352 61.3991 65.0887ZM85.6016 47.5986C85.6306 48.1266 85.6501 48.6594 85.6597 49.1969C85.6792 50.3538 85.7785 51.3979 85.9583 52.3292C84.138 53.3228 82.257 54.2374 80.3153 55.0728C80.291 53.3639 80.177 51.6572 79.973 49.953C81.8856 49.2715 83.7618 48.4867 85.6016 47.5986ZM86.4897 47.1233C86.8247 46.9167 87.1111 46.7057 87.3487 46.4897C87.2418 48.0499 86.9847 49.6195 86.5769 51.1989C86.6257 49.8355 86.5967 48.4772 86.4897 47.1233ZM79.8931 49.298C79.7622 48.3139 79.6019 47.3323 79.4125 46.353C79.2426 45.4794 79.0532 44.6201 78.8447 43.7752C80.7768 42.9926 82.6626 42.0496 84.502 40.9455C85.0069 42.7457 85.3467 44.6273 85.5214 46.5908C83.7691 47.6753 81.8929 48.5779 79.8931 49.298ZM80.3227 56.1169C81.6818 55.5936 83.0289 55.0175 84.3638 54.3887C84.9996 54.0912 85.5118 53.7792 85.9002 53.4526C85.5166 54.5615 85.0606 55.6728 84.5314 56.7864C84.3519 57.161 84.1626 57.5258 83.9636 57.8811C82.7111 58.6731 81.4372 59.4005 80.141 60.0627C80.2524 58.7426 80.3131 57.4275 80.3227 56.1169ZM77.9345 44.128C78.4005 45.9522 78.7572 47.7764 79.005 49.6006C76.0488 50.5847 73.1219 51.3095 70.2241 51.775C70.1851 51.1989 70.1417 50.6207 70.0932 50.0395C69.9862 48.7529 69.8626 47.476 69.7217 46.209C72.5464 45.8104 75.2842 45.1169 77.9345 44.128ZM70.2675 52.4878C73.2867 51.9743 76.226 51.2324 79.0849 50.2628C79.2937 51.991 79.4052 53.7214 79.4199 55.4546C79.0219 55.6131 78.6237 55.7714 78.2258 55.9299C75.5707 56.9715 72.9447 57.7661 70.3477 58.3134C70.3962 56.3882 70.3694 54.4465 70.2675 52.4878ZM78.8591 62.907C77.9706 63.3965 77.0071 63.8071 75.9686 64.1384C73.9203 64.7865 71.8621 65.2425 69.7942 65.5065C69.8281 65.2378 69.8623 64.969 69.8961 64.6999C72.9929 64.1046 76.0318 63.1423 79.012 61.8124C78.9635 62.1775 78.9127 62.5423 78.8591 62.907ZM69.9906 63.8431C70.1605 62.2207 70.2745 60.5861 70.333 58.9397C73.4202 58.3589 76.4467 57.5308 79.4125 56.4554C79.3882 57.8188 79.3058 59.1844 79.165 60.5526C76.2088 61.9782 73.1506 63.075 69.9906 63.8431ZM82.296 60.1853C81.534 61.0348 80.665 61.7767 79.6894 62.4102C79.8545 62.1222 79.9637 61.7694 80.017 61.3516C80.687 61.0348 81.3545 60.6963 82.0194 60.3362C82.1161 60.2835 82.2085 60.2333 82.296 60.1853ZM75.823 17.7235C77.9103 17.474 78.0026 16.982 76.0995 16.2474C75.6675 16.3289 75.403 16.5809 75.306 17.0034C75.1846 17.5362 75.3571 17.7763 75.823 17.7235ZM76.6677 17.2195C76.0513 17.522 75.8619 17.4475 76.0999 16.9962C76.6143 16.8282 76.8085 16.8856 76.6824 17.1689C76.682 17.1977 76.6773 17.2144 76.6677 17.2195ZM48.373 14.1304C48.1013 14.193 47.9119 14.3799 47.8052 14.6919C47.65 15.1385 47.6257 15.5946 47.7324 16.0601C48.1983 16.3576 48.6742 16.3026 49.1596 15.8946C50.3731 14.8862 50.1109 14.2981 48.373 14.1304ZM49.2905 15.2465C48.373 15.64 48.145 15.4986 48.6061 14.8218C48.9507 14.8312 49.1839 14.9563 49.3052 15.1963C49.3052 15.2247 49.3004 15.2415 49.2905 15.2465Z" fill="#C21807"/>
<path d="M27.8436 120.837C25.3835 122.157 23.4034 124.077 22.4433 125.877C21.4233 127.917 20.8232 131.457 21.5433 130.977C21.9033 130.797 22.1433 130.977 22.1433 131.397C22.2033 131.817 22.7433 131.097 23.4634 129.777C24.9034 126.897 26.2235 125.397 27.8436 124.497C28.9837 123.957 28.9837 123.957 28.1436 124.977C27.3036 125.997 27.3636 126.057 28.4436 125.697C29.4037 125.337 29.3437 125.517 28.1436 126.417C27.3636 127.077 26.4635 127.437 26.2235 127.317C26.0435 127.197 25.6235 127.377 25.3835 127.737C25.1435 128.157 25.2035 128.277 25.6235 128.037C25.9235 127.857 26.3435 127.977 26.4635 128.337C26.6435 128.877 27.0636 128.877 28.1436 128.337L29.6437 127.617L28.1436 128.817C27.3036 129.477 26.2235 130.137 25.7435 130.257C25.2635 130.437 25.8035 130.437 26.9435 130.377L29.0437 130.197L27.2436 130.977C26.0435 131.517 25.8035 131.817 26.5235 131.877C27.9636 131.877 31.0238 130.317 33.3039 128.337C34.2639 127.497 33.9039 127.917 32.4638 129.297C30.8437 130.917 28.8036 132.177 27.0636 132.657L24.3034 133.498L28.4436 133.438C31.5038 133.378 32.6438 133.138 32.8239 132.477C33.1239 131.697 33.0039 131.697 32.1038 132.417C31.5638 132.897 30.9638 133.078 30.7237 132.837C30.4837 132.657 30.9638 131.997 31.8038 131.457C34.4439 129.537 38.9442 124.077 36.604 125.517C36.304 125.697 35.944 125.517 35.764 125.037C35.584 124.557 35.824 124.017 36.304 123.837C37.6841 123.297 37.7441 123.357 37.7441 124.617C37.7441 125.217 38.7642 126.777 40.0842 128.037C41.8243 129.837 42.2443 130.677 41.9443 131.577C41.7043 132.237 41.5843 132.958 41.7643 133.198C42.1243 133.858 40.6843 139.138 39.4842 141.478C37.9841 144.598 35.644 146.458 32.7638 146.938L30.2437 147.298L32.6438 147.418C38.2241 147.598 42.0043 142.498 43.4444 132.777C44.4645 125.877 44.4645 125.457 43.5044 123.597C42.1843 121.017 41.2243 120.657 35.044 120.237C30.6637 119.937 29.2837 120.057 27.8436 120.837ZM32.1638 120.837C31.9838 121.017 31.4438 121.077 31.0238 120.897C30.5437 120.717 30.7237 120.537 31.3838 120.537C32.0438 120.477 32.4038 120.657 32.1638 120.837ZM37.7441 122.277C37.7441 122.577 37.6241 122.877 37.5041 122.877C37.3241 122.877 37.0241 122.577 36.8441 122.277C36.664 121.917 36.7841 121.677 37.0841 121.677C37.4441 121.677 37.7441 121.917 37.7441 122.277ZM23.8834 125.997C23.5234 126.717 22.9833 127.977 22.6833 128.817C22.3833 129.837 22.2033 130.017 22.2033 129.297C22.1433 128.217 23.7034 124.677 24.3034 124.677C24.4234 124.677 24.2434 125.277 23.8834 125.997ZM42.5444 128.097C42.5444 128.517 42.1843 128.697 41.5843 128.457C40.9243 128.217 40.8643 127.977 41.3443 127.677C41.8843 127.377 41.8843 127.137 41.4043 126.837C41.0443 126.597 40.7443 126.057 40.7443 125.697C40.8043 124.737 42.5444 127.077 42.5444 128.097Z" fill="#C21807"/>
<path d="M19.8028 127.677C19.0828 128.697 17.3427 130.317 16.0226 131.278C14.6426 132.298 13.8625 133.078 14.2225 133.078C15.1226 133.078 21.9029 126.657 21.4829 126.237C21.3029 126.057 20.5829 126.717 19.8028 127.677Z" fill="#C21807"/>
<path d="M52.9843 130.317C51.7843 131.517 51.6643 133.077 52.8043 133.077C53.0443 133.077 53.1043 132.657 52.9243 132.057C52.6843 131.397 52.7443 131.217 53.2243 131.517C53.6444 131.757 53.9444 131.637 53.9444 131.157C53.9444 130.617 54.1244 130.617 54.5444 131.277C54.9644 131.937 55.1444 131.937 55.1444 131.397C55.1444 130.797 55.4445 130.797 56.4045 131.277C57.1846 131.757 57.4846 132.357 57.3046 132.957C57.0045 133.737 57.1846 133.677 57.8446 132.837C58.9246 131.397 58.9846 130.977 57.9646 130.197C56.4645 128.937 54.2444 128.937 52.9843 130.317Z" fill="#C21807"/>
<path d="M37.0234 130.377C36.4234 131.337 37.2034 138.658 37.8635 137.998C38.1635 137.698 38.1635 135.837 37.9235 133.617C37.6235 131.517 37.2634 130.077 37.0234 130.377Z" fill="#C21807"/>
<path d="M38.9437 132.417C38.9437 133.137 40.5038 134.337 40.9238 133.917C41.1038 133.677 40.9238 133.137 40.4438 132.717C39.4838 131.757 38.9437 131.637 38.9437 132.417Z" fill="#C21807"/>
<path d="M21.6026 133.437C21.6026 134.097 21.7826 134.277 21.9626 133.797C22.1426 133.377 22.0826 132.837 21.9026 132.657C21.7226 132.417 21.5426 132.777 21.6026 133.437Z" fill="#C21807"/>
<path d="M9.00189 135.057C8.64187 135.417 8.40186 136.557 8.40186 137.517C8.46186 138.838 8.58186 139.018 8.76187 138.117C9.00189 136.797 10.442 136.077 11.822 136.497C12.2421 136.677 12.5421 137.817 12.5421 139.258C12.5421 143.878 16.8023 148.138 21.7225 148.438C23.4626 148.558 24.1827 148.438 23.3426 148.258L21.8425 147.958L23.6426 147.118C24.6627 146.638 24.9027 146.398 24.2427 146.638C20.4025 147.778 19.3824 147.598 17.1023 145.678C14.6422 143.518 13.0821 140.938 13.2621 139.258C13.4421 136.617 13.0821 135.717 11.402 135.057C10.1419 134.577 9.48191 134.577 9.00189 135.057Z" fill="#C21807"/>
<path d="M21.1825 135.777C19.4424 137.517 19.3824 138.117 20.9425 139.678C22.6226 141.358 24.1227 140.638 23.6426 138.417C23.3426 137.097 23.4626 136.677 24.1827 136.677C25.7427 136.677 25.6827 135.777 24.1227 135.057C22.8026 134.397 22.4426 134.517 21.1825 135.777ZM22.0226 136.677C21.6025 137.277 21.1825 137.697 21.0025 137.577C20.7625 137.337 22.0826 135.477 22.5026 135.477C22.6226 135.477 22.4426 136.017 22.0226 136.677Z" fill="#C21807"/>
<path d="M51.7247 138.658C50.2246 144.238 43.9843 148.678 37.5639 148.678C35.7038 148.678 35.2838 148.858 35.9438 149.278C38.1039 150.659 43.2642 149.698 47.4644 147.118C50.0446 145.498 52.9247 140.098 52.6247 137.518C52.4447 136.018 52.3247 136.138 51.7247 138.658Z" fill="#C21807"/>
<path d="M55.1448 138.358C55.1448 140.278 52.4447 145.858 50.2846 148.258C48.4245 150.418 47.1044 151.258 43.9843 152.279C39.664 153.719 39.184 154.439 43.0242 153.539C46.9244 152.699 50.7646 150.118 52.3847 147.298C54.1248 144.298 56.0449 138.598 55.5048 138.058C55.3248 137.818 55.1448 137.998 55.1448 138.358Z" fill="#C21807"/>
<path d="M1.32158 141.598C-1.67858 143.038 0.661543 144.118 6.00182 143.698C9.18198 143.518 9.18198 143.518 5.22178 143.398C1.02156 143.278 0.181518 142.738 2.52164 141.598C3.24168 141.238 3.60169 140.938 3.24168 140.938C2.94166 140.938 2.04161 141.238 1.32158 141.598Z" fill="#C21807"/>
<path d="M9.30212 142.378C9.90215 145.078 12.5423 149.818 14.4624 151.438C16.8625 153.418 20.5227 154.438 22.2628 153.598C23.5229 152.998 23.4629 152.938 21.3627 152.938C16.6225 152.818 13.3823 150.118 10.4422 143.698C9.42213 141.598 9.06211 141.178 9.30212 142.378Z" fill="#C21807"/>
<path d="M31.7433 142.618C31.7433 142.978 32.4033 143.638 33.2434 143.998C34.5034 144.538 34.9835 144.538 35.7035 143.758C36.5435 142.918 36.4835 142.858 35.1035 143.098C34.2634 143.278 33.1234 143.098 32.6433 142.678C31.9833 142.138 31.7433 142.138 31.7433 142.618Z" fill="#C21807"/>
<path d="M27.2425 152.578C25.9225 153.358 25.2624 154.078 25.8025 154.078C26.2825 154.078 27.2425 153.658 27.9026 153.178C29.4026 152.038 30.4827 152.038 31.8028 153.238C32.7628 154.078 33.0028 154.078 34.6229 153.238C35.643 152.698 36.963 152.458 37.5631 152.638C38.5231 152.938 38.5231 152.878 37.5031 152.218C36.603 151.678 36.063 151.678 35.2829 152.218C33.7829 153.118 32.6428 153.058 31.7428 151.978C30.7227 150.778 30.0627 150.838 27.2425 152.578Z" fill="#C21807"/>
<path d="M37.8031 158.819C36.303 162.299 36.183 165.899 37.4431 167.699C37.9231 168.419 39.6632 169.979 41.2833 171.179C45.7835 174.42 46.0235 176.22 43.0834 183C40.9233 187.86 40.2632 193.141 41.4033 195.961C42.1833 197.821 42.2433 197.641 42.2433 192.361C42.3033 187.08 42.4233 186.54 44.5234 182.52C47.7636 176.28 47.4636 174.18 42.6033 170.459C40.9833 169.199 39.1832 167.339 38.6431 166.379C37.7431 164.699 37.6831 164.279 38.5831 160.439C39.1232 158.159 39.4832 156.179 39.3632 156.059C39.1832 155.939 38.5231 157.199 37.8031 158.819Z" fill="#C21807"/>
<path d="M21.6627 160.259C18.5425 166.379 18.1225 170.519 20.2226 173.76C21.4827 175.74 23.2228 176.46 26.7629 176.58C30.6632 176.76 31.7432 177.6 31.7432 180.54C31.7432 182.46 31.3232 183.24 28.8631 185.7C22.6227 191.94 16.7424 199.621 16.7424 201.421C16.7424 202.441 18.4825 202.201 20.1626 200.881C22.0227 199.441 22.9228 199.381 25.0229 200.701L26.6429 201.721L25.5029 200.401C24.0628 198.721 21.6027 198.721 19.5026 200.341C18.5425 201.121 17.9425 201.301 17.9425 200.821C17.9425 199.561 22.5027 193.921 27.303 189.36C33.9633 182.94 34.9234 180.42 31.9832 176.94C30.6031 175.26 30.1231 175.08 26.943 175.08C23.7628 175.08 23.2828 174.9 21.9027 173.219C19.8026 170.759 19.8626 167.999 22.1427 161.819C23.1628 159.119 23.8828 156.839 23.7628 156.719C23.6428 156.599 22.7427 158.219 21.6627 160.259Z" fill="#C21807"/>
<path d="M98.1026 119.64C97.3126 119.866 95.9019 120.035 94.9426 120.091C91.3311 120.204 89.7511 123.872 90.7668 129.741C91.1054 131.434 91.444 133.973 91.6133 135.384C92.2904 140.745 92.5726 141.93 93.8704 143.961C94.7169 145.202 95.9583 146.218 97.1433 146.613C99.1748 147.29 100.19 149.153 99.1748 150.394C98.6669 151.015 99.0619 151.579 100.924 152.595C101.432 152.877 101.376 152.595 100.698 151.805C99.7955 150.845 99.7955 150.676 100.473 150.902C101.093 151.128 101.883 150.62 102.899 149.265C104.648 146.952 105.608 146.67 105.326 148.475C105.213 149.265 104.818 149.717 104.31 149.604C103.633 149.435 103.633 149.548 104.141 150.112C104.705 150.676 104.987 150.62 105.721 150.055C106.906 149.04 107.357 149.66 106.567 151.184C106.003 152.2 105.777 152.313 105.382 151.692C104.761 150.676 104.761 152.538 105.438 159.987C105.721 163.091 106.285 166.702 106.736 168C107.696 170.765 107.301 171.273 104.592 170.37L102.617 169.749L102.73 166.251C102.843 164.332 102.786 160.551 102.673 157.843C102.504 153.272 102.391 152.933 101.432 153.498C99.7391 154.4 99.4569 156.658 100.868 158.52C101.827 159.874 102.053 160.946 102.053 164.614C102.053 167.097 101.883 169.918 101.714 170.934C101.263 172.909 101.771 172.853 95.8454 171.781C93.9269 171.442 93.8704 171.442 95.2812 172.232C96.0712 172.683 97.764 173.248 99.0055 173.473C100.924 173.756 101.488 173.643 102.109 172.796C103.181 171.386 107.413 171.442 109.558 172.853C110.404 173.417 111.589 173.756 112.21 173.586C113.113 173.361 113.338 173.586 113.338 174.659C113.338 175.449 113.733 176.803 114.185 177.649C115.652 180.471 118.079 180.696 120.844 178.27L122.762 176.634L124.342 178.27C125.245 179.173 126.938 180.64 128.123 181.43C129.872 182.671 130.38 182.784 131.114 182.22C132.468 181.091 132.129 180.301 129.308 177.141C126.938 174.489 126.486 174.207 124.794 174.489C123.665 174.715 122.311 175.561 121.182 176.803C118.417 180.019 115.539 179.173 114.693 174.941C114.354 173.361 114.524 172.909 116.16 171.555L118.022 170.031L115.991 165.517C111.025 154.4 111.138 149.491 116.329 149.491C118.248 149.491 120.561 151.466 121.182 153.61L121.69 155.416L121.746 153.836C121.803 151.918 119.32 149.153 117.063 148.588C114.806 148.024 112.21 149.378 111.307 151.579C110.573 153.215 110.63 153.893 111.363 156.883C112.548 161.398 114.129 165.348 115.821 168.056L117.232 170.257L114.862 171.16C111.081 172.571 110.178 172.401 108.937 169.636C108.26 168.338 107.47 165.686 107.075 163.768C106.454 160.72 106.454 159.818 107.244 157.391C108.034 154.908 108.034 154.457 107.357 153.723C106.68 153.046 106.68 152.708 107.244 151.748C107.639 151.128 108.203 150.62 108.429 150.62C108.711 150.62 108.147 149.717 107.131 148.588L105.382 146.557L106.793 145.033C108.091 143.679 108.091 143.51 107.188 143.51C106.623 143.51 106.228 143.792 106.341 144.13C106.511 144.469 105.721 145.146 104.705 145.597C102.956 146.387 102.673 146.387 102.109 145.597C101.771 145.09 101.601 144.977 101.771 145.315C102.222 146.387 100.416 146.726 98.4976 145.88C94.999 144.412 93.024 140.801 93.024 135.779C93.024 133.917 93.1933 133.691 94.3783 133.691C95.1683 133.691 95.9583 133.409 96.184 133.07C96.4097 132.675 96.184 132.562 95.394 132.788C93.9269 133.296 92.3468 131.716 92.4597 129.797C92.6854 126.919 92.4597 126.242 91.6697 126.524C91.1054 126.75 90.9361 126.581 91.1054 126.073C91.2747 125.678 91.7825 125.17 92.1775 125.001C92.6854 124.832 92.8547 125.001 92.629 125.565C92.234 126.637 93.024 126.581 93.8704 125.396C94.4911 124.549 94.8297 124.549 96.0712 125.114C97.6512 125.791 97.9898 125.339 96.8612 124.154C96.2404 123.59 96.3533 123.534 97.2562 123.872C97.8769 124.098 98.6669 124.437 98.949 124.606C99.2876 124.775 99.1183 124.549 98.554 124.042C97.5947 123.139 97.6512 123.082 98.8362 122.744C99.6262 122.518 100.36 122.744 100.924 123.421C101.432 123.929 102.166 124.437 102.617 124.549C103.294 124.719 103.351 124.606 102.786 124.042C101.771 123.026 101.883 122.123 102.899 122.969C103.576 123.534 103.746 123.534 103.746 122.913C103.746 122.518 104.197 122.8 104.705 123.534C105.777 125.001 106.003 125.734 106.285 128.161C106.341 128.951 106.68 129.967 106.906 130.418C107.188 130.813 107.301 131.716 107.244 132.393C107.131 133.014 107.357 133.747 107.639 133.973C107.978 134.142 108.26 133.917 108.26 133.409C108.26 132.844 108.655 132.562 109.276 132.675C110.743 132.957 110.461 134.424 108.824 134.819C107.526 135.158 107.583 135.214 109.388 135.497C111.758 135.892 112.379 135.384 112.379 133.183C112.379 132.224 112.605 131.603 112.887 131.772C113.733 132.28 113.282 128.33 112.266 126.637C111.194 124.775 107.921 122.913 106.623 123.421C106.116 123.647 105.946 123.477 106.228 123.026C106.511 122.631 107.018 122.461 107.47 122.631C108.768 123.139 108.373 121.446 107.018 120.486C106.341 119.979 104.874 119.584 103.802 119.584C101.94 119.584 101.883 119.64 102.956 120.486C103.971 121.333 103.915 121.333 102.617 120.599C100.473 119.358 99.6262 119.189 98.1026 119.64ZM94.1526 121.276C93.7011 121.559 93.0804 121.841 92.7418 121.841C92.4597 121.841 92.5726 121.559 93.024 121.276C93.4754 120.994 94.1526 120.712 94.4347 120.712C94.7733 120.712 94.604 120.994 94.1526 121.276ZM105.495 122.01C104.931 122.518 104.874 122.461 105.213 121.671C105.382 121.107 105.721 120.825 105.89 120.994C106.059 121.164 105.89 121.615 105.495 122.01ZM112.21 129.064C112.379 129.233 111.928 129.12 111.251 128.951C110.235 128.612 110.066 128.725 110.348 129.797C110.573 130.644 110.517 130.926 110.009 130.644C109.671 130.418 109.501 129.967 109.671 129.684C109.896 129.402 109.727 129.177 109.332 129.177C108.993 129.177 108.824 129.628 108.993 130.305C109.163 130.926 109.106 131.547 108.824 131.716C108.598 131.885 108.26 131.547 108.147 130.982C107.808 129.854 108.993 127.822 109.558 128.443C109.783 128.612 109.953 128.499 109.953 128.048C109.953 127.371 110.291 127.54 112.21 129.064ZM112.492 130.305C112.661 130.644 112.436 130.7 111.984 130.531C110.968 130.136 110.799 129.741 111.589 129.741C111.928 129.741 112.323 129.967 112.492 130.305ZM103.181 147.516C103.181 147.967 101.263 150.055 100.811 150.055C100.529 150.055 100.36 149.548 100.36 148.927C100.36 148.193 100.642 147.911 101.206 148.137C101.658 148.362 102.053 148.193 102.053 147.855C102.053 147.516 102.335 147.234 102.617 147.234C102.956 147.234 103.181 147.347 103.181 147.516ZM102.053 156.375C102.053 158.52 101.996 158.633 101.263 157.673C100.698 156.883 100.642 156.263 101.093 155.303C101.883 153.498 102.053 153.667 102.053 156.375ZM106.849 154.57C107.018 154.852 106.962 155.529 106.68 156.037C106.228 156.827 106.116 156.714 105.89 155.473C105.608 154.005 106.172 153.498 106.849 154.57ZM128.462 178.214C131.057 181.317 131.227 181.656 129.985 181.656C129.082 181.656 124.06 176.746 124.06 175.9C124.06 174.546 126.43 175.787 128.462 178.214Z" fill="#C21807"/>
<path d="M76.3208 126.581C75.4744 127.54 75.4744 127.71 76.3772 128.556C76.8851 129.064 77.2237 129.177 77.1673 128.895C77.1108 128.556 77.1108 127.822 77.1673 127.258C77.2237 126.13 77.2237 126.13 78.0701 127.258C78.8037 128.217 78.8601 128.217 78.9166 127.315C78.9166 125.904 79.9323 126.13 80.2144 127.597C80.4401 128.725 80.4401 128.669 80.553 127.315C80.6094 125.396 81.738 125.283 81.738 127.258C81.738 128.048 81.9637 128.556 82.3023 128.33C82.6409 128.161 82.8666 128.387 82.8666 128.838C82.8666 129.685 80.553 130.08 78.0137 129.797C77.2237 129.685 77.5058 135.271 78.4087 138.149C79.5937 141.817 82.3023 145.936 85.3495 148.814C88.2274 151.523 92.8546 154.401 93.4189 153.78C93.5882 153.667 92.6289 152.99 91.331 152.313C86.4216 149.83 81.0044 142.325 79.1423 135.61C78.6344 133.635 78.2958 131.885 78.4087 131.772C78.5216 131.66 79.5373 131.434 80.6094 131.208L82.6409 130.87L83.2616 133.917C85.0109 142.325 92.4596 150.451 97.1996 149.266C99.2875 148.758 99.0054 148.081 96.6353 147.968C90.7667 147.686 82.6973 136.343 83.6002 129.572C83.8259 128.048 83.6566 127.484 83.1487 127.484C82.6973 127.484 82.3023 127.032 82.1895 126.525C81.9073 125.114 77.5623 125.114 76.3208 126.581Z" fill="#C21807"/>
<path d="M97.3133 132.675C96.6926 135.045 96.9747 137.472 97.934 138.262C98.7804 138.939 98.8369 138.939 98.3854 138.205C98.0469 137.754 97.934 136.005 98.0469 134.368C98.2161 131.321 97.934 130.531 97.3133 132.675Z" fill="#C21807"/>
<path d="M102.391 133.183C102.786 133.804 105.269 133.86 105.664 133.239C105.834 133.014 105.044 132.732 103.971 132.732C102.956 132.675 102.222 132.901 102.391 133.183Z" fill="#C21807"/>
<path d="M98.1033 141.027C97.3697 141.478 97.4261 141.591 98.2726 141.591C98.7804 141.591 99.2319 141.309 99.2319 141.027C99.2319 140.35 99.1754 140.35 98.1033 141.027Z" fill="#C21807"/>
<path d="M100.36 141.027C100.36 141.309 101.037 141.591 101.94 141.591C103.125 141.591 103.295 141.478 102.617 141.027C101.489 140.293 100.36 140.293 100.36 141.027Z" fill="#C21807"/>
<path d="M98.8367 143.002C99.1188 143.848 101.207 143.961 101.94 143.171C102.392 142.607 102.11 142.437 100.586 142.437C99.5138 142.437 98.7238 142.663 98.8367 143.002Z" fill="#C21807"/>
<path d="M114.749 142.494C110.687 143.397 108.768 144.074 108.204 144.751C107.414 145.71 107.301 145.71 111.082 144.695C115.427 143.51 119.151 143.622 121.859 144.977C124.117 146.162 124.681 147.065 126.148 151.748L126.882 154.288L126.6 151.579C126.261 148.137 124.455 144.638 122.48 143.622C120.731 142.72 116.499 142.099 114.749 142.494Z" fill="#C21807"/>
<path d="M95.1684 159.423C94.7734 163.034 93.9269 166.476 92.6855 169.523C92.2905 170.483 92.3469 170.539 93.1369 169.919C94.4348 168.903 95.9584 162.131 95.7327 158.463L95.5634 155.416L95.1684 159.423Z" fill="#C21807"/>
<path d="M121.013 157.222C120.844 157.843 120.505 158.802 120.336 159.31C120.166 159.818 120.223 160.213 120.561 160.213C120.844 160.213 121.239 159.423 121.464 158.52C121.69 157.166 122.085 156.827 123.326 156.771C124.229 156.771 125.414 156.545 126.035 156.263C126.825 155.924 126.317 155.811 124.229 155.868C121.746 155.981 121.239 156.15 121.013 157.222Z" fill="#C21807"/>
<path d="M127.164 157.504C127.559 159.028 126.938 160.213 125.922 159.818C125.358 159.592 125.132 159.705 125.301 160.213C125.64 161.341 126.486 161.454 127.559 160.664C128.405 159.987 128.405 159.761 127.671 158.238C127.22 157.278 126.994 156.996 127.164 157.504Z" fill="#C21807"/>
<path d="M122.311 160.608C122.65 161.736 123.045 162.131 123.835 162.019C125.358 161.736 125.415 161.511 124.455 160.495C123.665 159.761 123.552 159.761 123.327 160.664C123.101 161.398 123.045 161.285 122.988 160.326C122.988 159.649 122.706 159.084 122.424 159.084C122.142 159.084 122.085 159.761 122.311 160.608Z" fill="#C21807"/>
<path d="M94.4918 174.885C92.6297 177.142 91.3318 181.543 91.3318 185.663C91.3318 189.161 93.0247 195.425 94.4354 197.174C95.5075 198.472 95.5075 198.472 93.7018 193.788C93.1375 192.378 92.7989 189.556 92.7989 186.453C92.7425 181.825 92.9118 181.035 94.6047 177.48C95.6204 175.336 96.354 173.474 96.1847 173.361C96.0718 173.248 95.3383 173.925 94.4918 174.885Z" fill="#C21807"/>
<path d="M104.592 176.295C101.093 177.819 98.6669 181.543 98.6669 185.493C98.6669 187.919 100.811 192.772 102.561 194.296L103.802 195.424L101.658 196.271C95.6762 198.754 92.2904 202.027 95.1683 202.704C96.5226 202.986 103.294 200.447 104.141 199.318C105.1 198.077 104.536 196.215 102.335 192.942C98.7234 187.581 99.2312 181.994 103.633 178.383L106.003 176.408V178.496C106.003 182.107 108.26 185.549 111.815 187.355C115.991 189.499 121.126 188.54 124.286 185.042C125.414 183.8 126.317 182.615 126.317 182.333C126.261 182.107 125.697 182.615 125.019 183.405C121.746 187.355 116.724 188.371 112.21 186.001C109.501 184.59 107.131 180.979 107.131 178.326C107.131 175.9 106.511 175.449 104.592 176.295ZM103.576 198.19C103.407 198.585 102.053 199.375 100.529 199.939C99.0619 200.447 97.3691 201.18 96.7484 201.462C95.4505 202.196 94.3219 201.293 95.3941 200.39C96.2969 199.657 103.351 196.948 103.689 197.23C103.802 197.343 103.746 197.738 103.576 198.19Z" fill="#C21807"/>
</svg>
