<svg width="77" height="50" viewBox="0 0 77 50" fill="none" xmlns="http://www.w3.org/2000/svg">
<path d="M23.4445 0.119087C23.3188 0.16098 23.1198 0.181923 23.0256 0.150505C22.9208 0.129562 22.8056 0.150505 22.7742 0.213341C22.7428 0.265705 22.6486 0.286652 22.5648 0.255234C22.481 0.223816 22.4182 0.234287 22.4182 0.276176C22.4182 0.318069 22.3134 0.401848 22.1878 0.454212C22.0621 0.517048 21.9155 0.653191 21.8526 0.757915C21.7898 0.873116 21.6537 1.06162 21.5489 1.17682C21.4337 1.31296 21.3814 1.48052 21.4233 1.63761C21.4547 1.76328 21.4233 1.97274 21.35 2.10888C21.2766 2.23455 21.2348 2.40211 21.2452 2.46495C21.2662 2.53825 21.2243 2.60109 21.1615 2.60109C21.1091 2.60109 21.0567 2.69534 21.0567 2.81054C21.0567 3.05141 20.952 3.08283 20.7635 2.89432C20.6692 2.80007 20.6064 2.80007 20.554 2.87337C20.5122 2.92574 20.2818 2.9781 20.0409 2.96763C19.7895 2.96763 19.5906 2.99905 19.5906 3.04094C19.5906 3.08283 19.5068 3.11425 19.4125 3.11425C18.9517 3.13519 18.6376 3.19802 18.5328 3.30275C18.3653 3.47031 18.5433 3.75307 18.8051 3.75307C18.9413 3.75307 19.0669 3.79496 19.0879 3.84732C19.1088 3.89969 19.1926 3.96252 19.2764 3.98347C19.3602 4.00441 19.4649 4.05678 19.5068 4.11961C19.5591 4.18245 19.5906 4.17197 19.5906 4.0882C19.5906 4.00441 19.7581 3.96252 20.0618 3.96252C20.3236 3.96252 20.5331 4.00441 20.5331 4.05678C20.5331 4.09867 20.6483 4.11961 20.774 4.09867C21.0253 4.04631 21.0253 4.05678 21.0148 5.08309L21.0044 6.13035L21.4023 6.49689C21.7165 6.79012 21.7898 6.93674 21.7689 7.19855C21.7584 7.37658 21.7165 7.5232 21.6746 7.5232C21.6327 7.5232 21.5594 7.61745 21.528 7.73265C21.4966 7.84785 21.4023 7.9421 21.329 7.9421C21.2557 7.9421 20.9939 8.07825 20.7635 8.25628C20.5226 8.42384 20.2608 8.57046 20.1875 8.57046C20.1142 8.57046 19.9466 8.65424 19.8105 8.74849C19.6325 8.86369 19.3811 8.91605 19.025 8.89511C18.7213 8.88464 18.3234 8.94747 18.093 9.04172C17.8731 9.13597 17.6427 9.19881 17.5694 9.18834C17.2866 9.13597 16.4802 9.54441 16.0404 9.94236C15.8623 10.0995 15.7157 10.2042 15.7157 10.1728C15.7157 10.1413 15.6215 10.2356 15.5063 10.3822C15.3701 10.5498 15.1397 10.6859 14.8989 10.7278C14.6894 10.7697 14.4695 10.8221 14.4066 10.864C14.3543 10.8954 14.2496 10.9268 14.1762 10.9373C13.9773 10.9687 13.5269 11.3352 13.5165 11.4609C13.5165 11.6599 13.2337 11.8274 12.8253 11.8798C12.4064 11.9322 12.1236 12.0997 12.2074 12.2359C12.2388 12.2882 12.1655 12.2987 12.0503 12.2673C11.9246 12.2359 11.8409 12.2673 11.8409 12.3406C11.8409 12.4139 11.7676 12.4453 11.6733 12.4034C11.579 12.3615 11.422 12.4034 11.3277 12.4872C11.2334 12.5605 10.8564 12.7385 10.4794 12.8642C10.1024 13.0004 9.74635 13.1679 9.68351 13.2517C9.62067 13.325 9.45311 13.3878 9.3065 13.3878C9.15988 13.3878 9.01326 13.4193 8.97137 13.4612C8.92948 13.5135 8.85618 13.5449 8.82476 13.5554C8.66767 13.5659 8.17546 13.8486 8.17546 13.9115C8.17546 13.9534 8.01837 14.0476 7.84034 14.1209C7.65183 14.1942 7.40049 14.2885 7.28529 14.3304C6.95017 14.456 5.84007 14.6446 5.42117 14.6446C5.21172 14.6446 5.03369 14.6969 5.03369 14.7493C5.03369 14.8121 4.91849 14.8331 4.77187 14.7912C4.60431 14.7493 4.51006 14.7702 4.51006 14.854C4.51006 14.9378 4.44722 14.9483 4.33202 14.8959C4.12257 14.8016 0.530479 14.7702 0.530479 14.8645C0.530479 14.8959 0.41528 14.9797 0.268664 15.0425C0.0173226 15.1577 -0.0978758 15.4824 0.101103 15.4824C0.153466 15.4824 0.226774 15.5661 0.258192 15.6604C0.300082 15.7651 0.572369 15.9641 0.876074 16.1002C1.16931 16.2364 1.50443 16.383 1.59868 16.4354C1.70341 16.4877 1.83955 16.5087 1.91286 16.4773C1.98617 16.4458 2.34223 16.4877 2.6983 16.561C3.05437 16.6448 3.32666 16.6658 3.29524 16.6134C3.26382 16.5715 3.31618 16.5296 3.39996 16.5296C3.48374 16.5296 3.578 16.5715 3.61989 16.6239C3.68272 16.7391 4.31108 16.5506 4.42628 16.383C4.54147 16.205 4.6462 16.4144 4.70904 16.959C4.72998 17.1056 5.55732 17.5873 5.67251 17.514C5.73535 17.4721 6.02858 17.4303 6.30087 17.4093C6.58363 17.3988 6.85591 17.3465 6.91875 17.3151C7.1282 17.1789 8.11262 17.1684 8.1964 17.2941C8.24877 17.3779 8.28018 17.3569 8.28018 17.2208C8.28018 17.0637 8.3116 17.0532 8.4268 17.1475C8.53153 17.2417 8.59436 17.2417 8.64672 17.158C8.70956 17.0428 9.00279 17.0637 9.51595 17.2208C9.66256 17.2627 9.81965 17.2313 9.93485 17.1266C10.1024 16.9799 10.5842 16.8647 11.2649 16.8019C11.7361 16.76 12.2912 16.6239 12.4378 16.5087C12.5111 16.4563 12.9091 16.383 13.328 16.3621C13.7364 16.3411 14.1134 16.2678 14.1553 16.205C14.1972 16.1317 14.281 16.1212 14.3438 16.1526C14.4066 16.1945 14.459 16.1526 14.459 16.0688C14.459 15.8698 14.5742 15.8489 14.7418 16.0165C14.8255 16.1002 14.9198 16.1002 15.0559 16.0269C15.3596 15.8594 15.4539 15.9955 15.4853 16.6239C15.4958 16.938 15.5482 17.2417 15.611 17.3151C15.6633 17.3779 15.7157 17.7968 15.7262 18.2471C15.7367 18.7707 15.789 19.1059 15.8833 19.2001C15.9775 19.2839 15.988 19.3677 15.9252 19.4096C15.8728 19.441 15.9985 19.818 16.2289 20.2788C16.4488 20.7186 16.6792 21.2842 16.7525 21.5146C16.8153 21.7554 16.941 22.0068 17.0248 22.0801C17.1086 22.1534 17.1819 22.2581 17.1819 22.3105C17.1819 22.5304 17.6008 23.3054 17.8521 23.5358C18.072 23.7347 18.1244 23.8814 18.1035 24.227C18.1035 24.4574 18.1663 24.8134 18.2501 25.0124C18.669 25.9759 18.7632 26.2482 18.7423 26.3843C18.7213 26.4681 18.7842 26.7404 18.8784 27.0022C19.0879 27.5677 19.2136 28.0704 19.1821 28.1961C19.1612 28.3008 19.4125 29.1177 19.7162 29.8612C19.8314 30.144 19.8943 30.4372 19.8629 30.521C19.8105 30.6466 20.1247 31.8929 20.3236 32.3956C20.376 32.5108 20.4388 32.8878 20.4703 33.2334C20.554 34.0817 20.554 34.0921 20.8787 34.7728C21.0358 35.0975 21.1615 35.4117 21.1615 35.464C21.1615 35.6211 21.4861 36.2076 21.6222 36.2914C21.6851 36.3437 21.905 36.6265 22.0935 36.9302C22.282 37.2339 22.5857 37.6423 22.7742 37.8308C23.0989 38.1974 23.5178 38.6896 23.6539 38.8886C23.6958 38.9514 23.8529 39.0561 24.01 39.1399C24.1671 39.2237 24.2613 39.3389 24.2299 39.4227C24.1985 39.5064 24.2299 39.5693 24.3032 39.5693C24.3765 39.5693 24.4079 39.6426 24.3661 39.7368C24.3346 39.8206 24.3451 39.873 24.387 39.8416C24.4289 39.8206 24.7954 40.2395 25.1934 40.7736C25.6018 41.3182 25.9893 41.758 26.0626 41.7685C26.1359 41.7685 26.1778 41.7999 26.1569 41.8418C26.1255 41.8942 26.2616 42.0408 26.4606 42.1874C26.6491 42.334 26.8166 42.4911 26.8166 42.533C26.8166 42.5854 26.9109 42.7425 27.0261 42.8891C27.1413 43.0357 27.2355 43.2452 27.2355 43.3499C27.2355 43.4651 27.2774 43.5489 27.3298 43.5489C27.445 43.5489 27.9582 44.6171 28.0419 45.0255C28.0943 45.3292 27.822 45.8424 27.5916 45.8528C27.5183 45.8528 27.445 45.9261 27.4031 46.0099C27.3717 46.0937 27.2774 46.167 27.1832 46.167C27.0994 46.167 27.0261 46.2089 27.0261 46.2717C27.0261 46.3241 26.9528 46.3765 26.8585 46.3765C26.5967 46.3765 25.7799 46.921 25.7065 47.1514C25.6018 47.4865 25.9893 47.7693 26.5758 47.7588C27.1308 47.7588 27.623 47.696 27.8639 47.6017C27.9477 47.5703 28.2409 47.5284 28.5027 47.497C28.775 47.4761 29.1206 47.3504 29.3091 47.2143C29.529 47.0467 29.6861 47.0048 29.8223 47.0572C30.0946 47.1828 30.681 47.2038 30.7543 47.0991C30.7857 47.0467 30.88 47.0048 30.9638 47.0048C31.1523 47.0048 31.5712 46.6278 31.5817 46.4498C31.5921 46.3765 31.655 46.1775 31.7283 46.0099C31.9587 45.4653 31.8016 44.659 31.257 43.6326C31.1732 43.486 31.1104 43.2766 31.1209 43.1614C31.1209 43.0566 31.1523 43.0252 31.1837 43.0985C31.2047 43.1718 31.3198 43.2347 31.4246 43.2347C31.5293 43.2347 31.6445 43.2975 31.6654 43.3604C31.7073 43.4546 31.7492 43.4546 31.8121 43.3918C32.0215 43.13 32.2624 43.2661 32.3776 43.6955C32.4404 43.9259 32.587 44.4495 32.7127 44.837C32.8907 45.413 32.9117 45.591 32.807 45.7586C32.6603 45.9994 32.5556 46.1984 32.3043 46.743C32.1891 46.9734 32.0739 47.1828 32.032 47.2143C31.8854 47.3295 31.7388 47.8636 31.7388 48.272C31.7388 48.6281 31.7806 48.7014 32.032 48.7956C32.1891 48.8585 32.3985 48.9527 32.4928 49.0051C32.608 49.0574 32.7022 49.0574 32.7441 48.9841C32.7755 48.9213 32.9012 48.9003 33.0164 48.9213C33.1525 48.9632 33.2468 48.9003 33.3306 48.7223C33.3934 48.5862 33.4877 48.471 33.5296 48.471C33.6133 48.471 33.7809 48.0521 33.7495 47.9159C33.739 47.874 33.8333 47.8007 33.9589 47.7484C34.2626 47.6332 34.713 47.1514 34.6397 47.0362C34.6082 46.9839 34.6711 46.8687 34.7863 46.7954C34.891 46.7116 34.9853 46.565 34.9853 46.4602C34.9853 46.2194 35.1319 46.1461 35.4251 46.2613C35.645 46.345 35.7393 46.3031 36.0639 45.9471C36.2734 45.7272 36.4514 45.4549 36.4514 45.3606C36.4514 45.0569 36.043 44.4704 35.8964 44.5542C35.8335 44.5961 35.8021 44.5961 35.8335 44.5542C35.9278 44.4495 35.6555 43.6012 35.5403 43.6222C35.4879 43.6326 35.467 43.507 35.4879 43.3289C35.5194 43.1404 35.4879 43.0252 35.4146 43.0252C35.3413 43.0252 35.2052 42.8158 35.09 42.554C34.9748 42.2922 34.8177 42.0513 34.7234 42.0199C34.5978 41.9675 34.5768 41.8628 34.6292 41.6114C34.6815 41.3077 34.6501 41.2449 34.3883 41.0878C34.2208 40.9936 34.0113 40.7317 33.917 40.5223C33.8228 40.3128 33.6029 39.9777 33.4248 39.7997C33.2573 39.6112 33.0792 39.3598 33.0478 39.2446C33.0059 39.1294 32.8488 38.899 32.6918 38.7524C32.5242 38.5953 32.4195 38.4173 32.4404 38.3545C32.4614 38.2916 32.3985 38.2393 32.2938 38.2393C32.1995 38.2393 32.0425 38.1345 31.9587 38.0089C31.8644 37.8727 31.6654 37.6319 31.5084 37.4643C31.3408 37.3072 31.2151 37.1187 31.2151 37.0559C31.2151 37.0035 31.1732 36.9511 31.1104 36.9511C31.058 36.9511 31.0161 36.9197 31.0161 36.8674C31.0476 36.6684 30.9952 36.5218 30.9114 36.5741C30.8172 36.637 30.6287 36.061 30.7124 35.9667C30.7334 35.9458 30.6601 35.841 30.5658 35.7363C30.4716 35.6211 30.3773 35.4221 30.3564 35.2755C30.3354 35.1289 30.2098 34.8566 30.0736 34.6681C29.8956 34.4063 29.8537 34.2597 29.9165 34.0398C30.0527 33.579 30.0631 33.2543 29.9479 33.1182C29.8956 33.0449 29.8432 32.7726 29.8327 32.5108C29.8327 32.249 29.7909 32.029 29.7594 32.029C29.7175 32.029 29.6861 31.8615 29.6757 31.652C29.6652 31.4426 29.6128 31.2331 29.55 31.1912C29.4767 31.1493 29.4348 30.9608 29.4453 30.7618C29.4662 30.5524 29.4034 30.2906 29.2986 30.144C29.2044 29.9973 29.1206 29.7565 29.1206 29.5889C29.1206 29.3585 29.0787 29.2957 28.9635 29.348C28.8797 29.3795 28.8064 29.3585 28.8064 29.3062C28.8064 29.2433 28.8483 29.2014 28.9112 29.2014C28.974 29.2014 28.974 29.0967 28.9007 28.9187C28.8274 28.7092 28.8378 28.6254 28.9321 28.5521C29.0368 28.4893 29.0368 28.4474 28.9426 28.3846C28.8693 28.3427 28.775 28.0913 28.7122 27.84C28.6598 27.5887 28.5446 27.3268 28.4713 27.264C28.3352 27.1593 28.3037 27.0022 28.2514 26.3215C28.2409 26.1434 28.1781 25.9549 28.1152 25.9026C27.9582 25.7664 27.822 25.18 27.9582 25.2637C28.0734 25.337 28.0524 25.1276 27.9163 24.9077C27.7801 24.6877 27.7592 24.1641 27.8848 23.8918C27.9896 23.6824 27.9477 23.0959 27.7068 20.9386C27.6859 20.7396 27.623 20.5511 27.5602 20.5197C27.5078 20.4778 27.4241 20.2474 27.3822 20.0065C27.3403 19.7656 27.267 19.5667 27.2146 19.5667C27.1622 19.5667 27.1518 19.5143 27.1937 19.4515C27.2251 19.3886 27.2041 19.2944 27.1308 19.2525C27.0156 19.1792 27.0261 19.1268 27.1622 18.9907C27.267 18.8964 27.3403 18.7393 27.3403 18.6451C27.3507 18.5508 27.4241 18.2785 27.5078 18.0481C27.6021 17.8177 27.6649 17.5559 27.6754 17.4721C27.6754 17.3884 27.7173 17.1894 27.7801 17.0218C27.8744 16.781 27.9163 16.76 28.0524 16.8647C28.1362 16.938 28.3142 17.1684 28.4399 17.3674C28.7855 17.9015 29.351 18.4461 29.4348 18.3204C29.4662 18.2576 29.5814 18.4147 29.6966 18.6765C29.927 19.242 30.0317 19.3467 30.4716 19.3886C30.6496 19.4096 30.7962 19.4619 30.7962 19.5038C30.7753 19.7237 31.0999 19.8599 31.4665 19.7761C31.7597 19.7133 31.8435 19.7237 31.8435 19.8389C31.8435 19.9227 31.8958 19.9856 31.9482 19.9856C32.011 19.9856 32.0529 19.9437 32.0529 19.8913C32.0529 19.8389 32.1681 19.7971 32.3147 19.7971C32.6185 19.7971 32.8907 19.6086 32.8907 19.3886C32.8907 19.2525 32.9117 19.2525 33.0688 19.3677C33.2049 19.4829 33.2468 19.4829 33.2782 19.3782C33.3096 19.3153 33.4458 19.2525 33.5819 19.2525C33.9275 19.2525 35.2156 18.9383 35.3518 18.8231C35.4042 18.7707 35.5717 18.7289 35.7393 18.7289C35.8964 18.7289 36.1896 18.6346 36.399 18.5194C36.598 18.4042 36.7656 18.3518 36.7656 18.3937C36.7656 18.4356 36.8075 18.4147 36.8494 18.3623C36.8913 18.2995 37.1007 18.1633 37.3206 18.0481C37.5406 17.9329 37.771 17.7549 37.8338 17.6502C37.8862 17.5455 38.0851 17.3151 38.2632 17.158C38.5564 16.8962 38.6192 16.8752 38.7659 17.0114C38.8496 17.0951 38.9858 17.158 39.0486 17.158C39.1114 17.158 39.2895 17.2732 39.457 17.4093C39.7293 17.6397 40.431 17.7863 41.3212 17.7968C41.6982 17.8073 42.2951 17.6188 42.4417 17.4407C42.5779 17.2836 42.6931 17.2522 42.913 17.3046C43.0806 17.3465 43.29 17.3779 43.3947 17.3779C43.4995 17.3779 43.6147 17.4512 43.6461 17.535C43.6775 17.6188 43.7508 17.6816 43.8136 17.6816C43.866 17.6816 44.2325 17.8282 44.6096 18.0062C44.9866 18.1843 45.3531 18.3414 45.4055 18.3623C46.5574 18.6032 49.029 18.7812 49.1337 18.6137C49.1756 18.5299 49.2594 18.5299 49.3955 18.6032C49.9715 18.9174 51.0816 18.9278 51.2701 18.6241C51.3015 18.5718 51.4272 18.5613 51.5633 18.6137C51.6995 18.666 52.0137 18.666 52.2755 18.6241C52.5268 18.5718 52.9981 18.4775 53.3123 18.4147C53.6264 18.3518 54.0244 18.2366 54.192 18.1529C54.349 18.0691 54.569 17.9958 54.6632 17.9958C54.7575 17.9958 54.9669 17.9225 55.124 17.8387C55.2811 17.7549 55.4801 17.713 55.5534 17.7444C55.6372 17.7759 55.7628 17.734 55.8362 17.6502C55.9513 17.5245 55.9932 17.5455 56.1189 17.7759C56.2027 17.9225 56.2865 18.1424 56.3074 18.2576C56.475 19.0954 56.475 19.1268 56.276 19.263C56.0247 19.4515 55.8571 19.8285 55.7733 20.3835C55.7314 20.6453 55.6162 20.8862 55.501 20.97C55.3858 21.0433 55.302 21.148 55.3125 21.2004C55.3649 21.4308 54.7051 22.7817 54.37 23.1273C54.2129 23.2949 53.9511 23.6929 53.7835 24.007C53.616 24.3317 53.4484 24.5935 53.417 24.5935C53.3856 24.5935 53.2704 24.8239 53.1656 25.1171C53.0609 25.3999 52.9352 25.6408 52.8934 25.6408C52.8515 25.6408 52.7782 25.756 52.7467 25.9026C52.7048 26.0492 52.6315 26.1644 52.5792 26.1644C52.5163 26.1644 52.4745 26.2482 52.4745 26.3424C52.4745 26.4471 52.3278 26.688 52.1603 26.887C51.9822 27.0755 51.8461 27.3059 51.8461 27.3792C51.8461 27.4525 51.7937 27.641 51.7309 27.8086C51.6576 27.9657 51.5948 28.2065 51.5738 28.3427C51.5633 28.4788 51.5005 28.6464 51.4377 28.7092C51.3225 28.8558 51.113 29.945 51.1759 30.0602C51.1968 30.0916 51.1759 30.2382 51.1235 30.3848C51.0711 30.5314 50.9873 30.8561 50.9559 31.097C50.914 31.3483 50.8407 31.6101 50.7779 31.6834C50.7255 31.7567 50.7046 31.8615 50.736 31.9138C50.7779 31.9662 50.757 32.0395 50.6941 32.0814C50.6418 32.1128 50.6208 32.2594 50.6522 32.3956C50.6836 32.5212 50.6627 32.6679 50.5999 32.6993C50.4323 32.804 50.4637 32.9716 50.6418 32.9716C50.757 32.9716 50.7674 33.0239 50.6941 33.2229C50.6418 33.359 50.6313 33.5057 50.6732 33.558C50.7151 33.5999 50.6941 33.5999 50.6208 33.558C50.4637 33.4742 50.338 33.6627 50.4951 33.7675C50.5789 33.8198 50.5789 33.8513 50.4847 33.9141C50.4114 33.956 50.5056 34.0502 50.736 34.1654C50.9455 34.2597 51.113 34.4063 51.113 34.4796C51.113 34.6262 51.5633 34.7728 52.1603 34.8043C52.3593 34.8252 52.7153 34.8671 52.9457 34.909C53.2494 34.9613 53.5322 34.9195 53.993 34.7624C54.3281 34.6367 54.6318 34.5424 54.6423 34.5424C54.6632 34.5424 54.6527 34.6891 54.6213 34.8671C54.5585 35.2022 54.349 35.485 54.1605 35.485C54.0977 35.485 54.0453 35.5269 54.0453 35.5688C54.0453 35.6106 53.8673 35.7154 53.6579 35.7887C53.4379 35.862 53.1342 36.04 52.9876 36.1866C52.841 36.3228 52.6734 36.4275 52.6211 36.417C52.4745 36.3856 52.1289 36.5427 51.8147 36.8045C51.6576 36.9407 51.3434 37.1292 51.134 37.213C50.9245 37.3072 50.6103 37.4538 50.4532 37.5376C50.2857 37.6214 50.0343 37.6842 49.8877 37.6842C49.7202 37.6842 49.605 37.7575 49.5736 37.8937C49.5107 38.1241 49.3746 38.166 49.3117 37.9774C49.2803 37.8937 49.1965 37.9041 49.0185 38.0298C48.8719 38.1241 48.6834 38.2078 48.5787 38.2078C48.4739 38.2078 48.3901 38.2602 48.3901 38.323C48.3901 38.3964 48.2854 38.4173 48.1074 38.3649C47.9398 38.323 47.8456 38.3335 47.8875 38.3754C47.9294 38.4173 47.6466 38.6058 47.2591 38.8048C46.8716 39.0038 46.3585 39.276 46.1176 39.4122C45.8663 39.5483 45.6673 39.6321 45.6673 39.5902C45.6673 39.5483 45.6254 39.5798 45.573 39.6635C45.374 39.9777 45.9081 41.025 46.3271 41.1716C46.4108 41.1925 46.3794 41.3077 46.2433 41.5172C46.0233 41.8628 45.9396 42.9624 46.1281 43.2661C46.2119 43.4022 46.2119 43.4756 46.0862 43.5489C45.9605 43.6222 45.9605 43.6745 46.0652 43.7793C46.1281 43.8421 46.1909 44.0411 46.1909 44.1982C46.1909 44.3552 46.2433 44.4914 46.2956 44.4914C46.3585 44.4914 46.4004 44.5438 46.4004 44.6066C46.4004 44.6694 46.5051 44.8579 46.6203 45.036C46.8193 45.2978 46.8926 45.3397 47.1649 45.2873C47.4895 45.2245 47.8665 44.9522 47.8665 44.7846C47.8665 44.7323 47.9608 44.4914 48.076 44.261C48.1912 44.0201 48.2854 43.7583 48.2854 43.685C48.2854 43.6117 48.3273 43.5489 48.3797 43.5489C48.4216 43.5489 48.5472 43.2766 48.652 42.9415C48.9661 41.9675 49.4479 41.2554 49.8249 41.2449C49.8877 41.2449 50.0239 41.1716 50.1181 41.0773C50.2019 40.9831 50.3485 40.9412 50.4428 40.9726C50.537 41.004 50.5684 40.9936 50.5266 40.9202C50.4847 40.8574 50.537 40.826 50.6522 40.8365C50.7674 40.8574 50.9769 40.7841 51.1235 40.6898C51.2806 40.5851 51.4481 40.5118 51.49 40.5328C51.6366 40.5642 52.5792 40.1139 52.9562 39.8311C53.3646 39.5169 53.5636 39.4855 53.4275 39.7473C53.1971 40.1976 53.0609 40.5851 53.0295 40.8679C53.0086 41.0459 52.9667 41.203 52.9143 41.2344C52.7677 41.3496 52.5687 41.779 52.6315 41.8732C52.663 41.9256 52.6211 42.1141 52.5268 42.2817C52.443 42.4597 52.3697 42.6901 52.3697 42.8053C52.3697 42.91 52.3174 43.0252 52.2441 43.0462C52.1812 43.0671 52.0765 43.308 52.0032 43.5803C51.9404 43.8421 51.9194 44.0411 51.9718 44.0097C52.0137 43.9782 52.0555 43.9992 52.0555 44.062C52.0555 44.1144 51.9927 44.2086 51.9194 44.2505C51.8566 44.2924 51.7204 44.4704 51.6366 44.6485C51.5529 44.816 51.3539 45.1616 51.1968 45.4025C50.8826 45.8738 50.8303 46.0099 51.0292 45.8947C51.1025 45.8528 51.113 45.8633 51.0711 45.9366C51.0292 46.0099 50.9245 46.0623 50.8303 46.0623C50.7151 46.0623 50.6836 46.1251 50.736 46.3136C50.8093 46.5964 50.7151 46.9315 50.5894 46.8477C50.5161 46.8058 50.4218 47.2457 50.3276 47.9683C50.3066 48.1358 50.338 48.2615 50.3904 48.2615C50.4428 48.2615 50.4847 48.3244 50.4847 48.3977C50.4847 48.4814 50.5684 48.6385 50.6732 48.7433C50.8093 48.9108 50.935 48.9422 51.2387 48.8899C51.7309 48.8061 51.9508 48.6176 51.9508 48.3034C51.9508 48.1673 52.0137 48.0521 52.087 48.0416C52.1498 48.0416 52.3488 48.0206 52.5059 48.0102C52.7258 47.9997 52.8724 48.073 53.0609 48.2929C53.1971 48.45 53.3541 48.5652 53.4065 48.5233C53.4589 48.4919 53.5427 48.5233 53.5845 48.5862C53.6997 48.7851 54.2967 48.9841 54.4224 48.8794C54.4957 48.8166 54.747 48.827 55.0821 48.9003C55.3858 48.9632 55.6581 48.9841 55.6895 48.9527C55.721 48.9213 55.8362 48.9422 55.9409 49.0051C56.077 49.0679 56.2027 49.0679 56.3493 48.9946C56.4959 48.9213 56.6216 48.9108 56.7577 48.9946C56.9148 49.0784 57.0196 49.0365 57.2918 48.7851C57.4803 48.6071 57.5851 48.4291 57.5432 48.3558C57.5118 48.2929 57.5432 48.1882 57.6165 48.1358C57.7317 48.0521 57.7317 48.0416 57.5955 48.0835C57.5013 48.1149 57.3023 48.0206 57.1557 47.8845C57.0091 47.7484 56.8415 47.6332 56.7892 47.6332C56.7368 47.6332 56.6321 47.5599 56.5588 47.4761C56.4855 47.3923 56.3388 47.319 56.2341 47.319C56.1189 47.319 56.0351 47.2771 56.0351 47.2143C56.0351 47.0362 55.5953 46.5964 55.4591 46.6487C55.2811 46.722 55.124 46.4917 55.0612 46.0728C55.0298 45.8738 54.9565 45.6853 54.8936 45.6538C54.8203 45.6015 54.8308 45.4968 54.925 45.3187C54.9983 45.1616 55.0298 44.9522 54.9774 44.7742C54.9355 44.6171 54.946 44.4914 54.9983 44.4914C55.0507 44.4914 55.1345 44.4076 55.1659 44.3029C55.2078 44.2086 55.3963 43.9154 55.6058 43.6641C55.8047 43.4127 55.9828 43.1404 56.0037 43.0462C56.0142 42.9519 56.077 42.8577 56.1294 42.8367C56.1922 42.8158 56.2446 42.732 56.2446 42.6482C56.2446 42.5644 56.3179 42.3759 56.4121 42.2398C56.5064 42.0932 56.6216 41.779 56.6844 41.5381C56.7368 41.2973 56.831 41.0564 56.8939 41.025C56.9567 40.9831 57.0091 40.7527 57.0091 40.5013C57.0091 40.1348 57.0929 39.9149 57.407 39.4436C57.6374 39.119 57.8155 38.7838 57.8155 38.7001C57.8155 38.6163 57.8783 38.4906 57.9621 38.4278C58.0459 38.3545 58.1506 38.166 58.182 37.9984C58.2239 37.8308 58.36 37.5271 58.5067 37.3177C58.6428 37.1082 58.9046 36.6474 59.0931 36.2914C59.2712 35.9353 59.5539 35.4431 59.7215 35.2022C60.0461 34.7205 60.0775 34.5843 59.889 34.511C59.7948 34.4691 59.8157 34.4482 59.9205 34.4482C60.1299 34.4377 60.6012 33.579 60.6954 33.0449C60.7373 32.8249 60.8316 32.6155 60.9049 32.5945C60.9677 32.5631 61.0934 32.3851 61.1667 32.1861C61.2505 31.9871 61.3552 31.8196 61.3971 31.8196C61.4495 31.8196 61.4599 31.8615 61.4285 31.9243C61.3971 31.9767 61.418 32.029 61.4704 32.029C61.5332 32.029 61.5856 31.9767 61.5856 31.9243C61.5856 31.8615 61.6903 31.8196 61.8265 31.8196C61.9521 31.8196 62.1616 31.7463 62.2873 31.6625C62.4129 31.5682 62.5595 31.5159 62.6014 31.5263C62.6852 31.5473 63.167 31.3169 63.2612 31.2017C63.4078 31.0237 64.298 30.6466 64.7064 30.5943C65.1567 30.5314 65.1672 30.521 65.1044 30.2068C65.073 30.0288 65.0311 29.7984 65.0101 29.6936C64.9997 29.5889 64.9368 29.4737 64.8635 29.4318C64.7274 29.348 64.8007 28.7825 64.9578 28.7825C65.0206 28.7825 65.0415 28.7092 65.0101 28.6254C64.9682 28.5417 64.9892 28.4474 65.052 28.416C65.1044 28.3741 65.0834 28.2798 64.9892 28.1856C64.8845 28.0809 64.8635 27.9866 64.9263 27.9028C65.0415 27.7562 65.1567 26.5833 65.0415 26.5833C64.9997 26.5833 64.9787 26.3529 64.9997 26.0701C65.0311 25.7874 64.9997 25.5256 64.9473 25.4941C64.8845 25.4522 64.8845 25.3056 64.9368 25.1171C65.0101 24.8553 64.9997 24.8029 64.853 24.7925C64.7378 24.7925 64.7169 24.7715 64.8111 24.7296C64.9159 24.6877 64.9159 24.6459 64.8216 24.5307C64.7588 24.4469 64.6959 24.1746 64.6855 23.9233C64.6855 23.6405 64.6331 23.4834 64.5703 23.5253C64.5074 23.5672 64.5074 23.5358 64.5807 23.431C64.6959 23.274 64.6855 23.0436 64.5284 22.2372C64.4656 21.9439 64.3504 21.3261 64.277 20.8548C64.1933 20.3835 64.0676 19.9123 63.9838 19.818C63.8163 19.619 63.7639 19.064 63.9 18.9802C63.9524 18.9488 63.9943 18.8022 63.9943 18.6451L64.0048 18.3623L64.2037 18.6241C64.5389 19.0535 64.7483 19.2525 64.8321 19.2001C64.874 19.1792 65.073 19.3467 65.2824 19.5771C65.4919 19.8075 65.6699 19.9646 65.6699 19.9332C65.6699 19.9018 65.7746 19.9856 65.9108 20.1217C66.1831 20.4149 67.2408 20.771 67.555 20.6663C67.6911 20.6244 67.8796 20.6663 68.0472 20.7815C68.3195 20.949 68.3299 20.949 68.508 20.7291C68.6127 20.593 68.7488 20.5197 68.8012 20.5616C68.864 20.593 68.9897 20.572 69.0944 20.5197C69.6181 20.2474 70.1522 20.0589 70.414 20.0589C70.5815 20.0589 70.6967 19.996 70.6967 19.9123C70.6967 19.8389 70.77 19.7761 70.8643 19.7761C70.9585 19.7761 71.1471 19.6819 71.2937 19.5667C71.4403 19.4515 71.5974 19.3886 71.6393 19.4096C71.6916 19.441 71.7545 19.42 71.7964 19.3572C71.8382 19.2944 71.922 19.3153 72.0267 19.4096C72.142 19.5352 72.2781 19.5562 72.519 19.5038C72.697 19.4619 72.9169 19.42 73.0007 19.4096C73.0845 19.3991 73.2939 19.3363 73.451 19.2734C73.7547 19.1478 74.2574 19.2001 74.2574 19.3677C74.2574 19.42 74.3412 19.4619 74.4354 19.4619C74.5297 19.4619 74.6868 19.5352 74.781 19.619C74.98 19.7971 75.7236 19.9332 75.8178 19.8075C75.8492 19.7656 75.9749 19.6714 76.0901 19.6086C76.4252 19.42 76.5195 19.0116 76.31 18.5822C76.2158 18.3728 76.1006 18.2052 76.0482 18.2052C76.0063 18.2052 75.9016 18.0796 75.8283 17.912C75.7445 17.7549 75.4722 17.4303 75.2104 17.1789C74.7601 16.7391 74.7287 16.7286 74.1213 16.7495C73.4406 16.781 72.5609 16.9485 72.4771 17.0637C72.3828 17.1894 72.0058 17.2627 71.8697 17.1684C71.7964 17.1266 71.4927 17.1266 71.1889 17.1684C70.8852 17.2208 70.4349 17.2836 70.1731 17.3151C69.5762 17.3884 69.2725 17.4407 68.7803 17.5664C68.4451 17.6502 68.2566 17.6188 67.733 17.4198C67.157 17.2103 67.0523 17.1266 66.8009 16.6762C66.6543 16.3935 66.4763 16.1107 66.4135 16.0374C66.3506 15.9641 66.2983 15.8175 66.2983 15.6918C66.2983 15.5766 66.2564 15.3881 66.1935 15.2729C66.1412 15.1577 66.0469 14.9797 65.9945 14.8749C65.9422 14.7598 65.9422 14.6131 65.9945 14.5189C66.0574 14.4142 66.026 14.2152 65.9317 13.9743C65.8375 13.7649 65.7956 13.5449 65.827 13.4926C65.8689 13.4297 65.8375 13.3878 65.7851 13.3878C65.7223 13.3878 65.6699 13.1993 65.6699 12.9689C65.6699 12.6862 65.6175 12.5186 65.5128 12.4872C65.4186 12.4453 65.3557 12.2882 65.3557 12.0788C65.3557 11.8903 65.2824 11.6808 65.1986 11.6075C65.1149 11.5342 65.0415 11.4085 65.0415 11.3352C65.0415 11.2514 64.9682 11.1886 64.8845 11.1886C64.8007 11.1886 64.7274 11.1153 64.7274 11.0315C64.7274 10.9477 64.675 10.8744 64.6122 10.8744C64.5598 10.8744 64.5389 10.8221 64.5807 10.7592C64.6226 10.6754 64.675 10.6754 64.7588 10.7592C64.8216 10.8221 64.9787 10.8744 65.1044 10.8744C65.23 10.8744 65.3662 10.9373 65.3976 11.0001C65.45 11.1048 65.4709 11.1048 65.5233 11.0001C65.5547 10.9373 65.649 10.8744 65.7327 10.8744C65.8165 10.8744 65.8793 10.8221 65.8793 10.7697C65.8793 10.7069 65.9527 10.665 66.0469 10.665C66.1307 10.665 66.1726 10.7069 66.1412 10.7697C66.1097 10.8221 66.1726 10.8744 66.2773 10.8744C66.3925 10.8744 66.5182 10.8011 66.5496 10.7069C66.602 10.5707 66.6438 10.5602 66.7695 10.665C66.8952 10.7697 66.9266 10.7697 66.9266 10.644C66.9266 10.5288 66.9999 10.4974 67.1884 10.5393C67.335 10.5602 67.5235 10.5288 67.6073 10.4555C67.6911 10.3927 67.7958 10.3613 67.8482 10.3927C67.9843 10.4765 68.3928 9.97378 68.3928 9.72244C68.3928 9.60724 68.4347 9.51299 68.487 9.51299C68.6022 9.51299 68.7069 9.17787 68.7803 8.63329C68.8117 8.32959 68.7803 8.18297 68.6336 8.0573C68.2566 7.70123 67.8901 7.51273 67.4921 7.46037C67.2617 7.43942 67.0732 7.36611 67.0523 7.31375C67.0313 7.25091 66.8847 7.20902 66.7276 7.20902C66.5705 7.20902 66.403 7.1776 66.3611 7.13572C66.2983 7.0624 65.7642 6.9891 65.3557 6.9891C65.1149 6.9891 64.1828 6.79012 63.9419 6.68539C63.8267 6.64351 63.5021 6.53878 63.2298 6.46547C62.8109 6.36074 62.6957 6.27696 62.5177 5.94184C62.4025 5.71144 62.2663 5.53341 62.2035 5.53341C62.1406 5.53341 62.1302 5.49152 62.1616 5.42868C62.2035 5.36585 62.1511 5.35538 62.0464 5.39727C61.9207 5.43916 61.8893 5.42868 61.9417 5.34491C61.9836 5.2716 61.9731 5.21923 61.9102 5.21923C61.8579 5.21923 61.795 5.11451 61.7741 4.97836C61.7532 4.85269 61.6798 4.75844 61.6065 4.76891C61.5437 4.78986 61.4704 4.7375 61.4704 4.66419C61.4599 4.60135 61.4495 4.47568 61.439 4.3919C61.439 4.30812 61.3343 4.23481 61.2191 4.21387C61.1039 4.19292 60.9572 4.09867 60.8735 3.99394C60.7583 3.82638 60.7268 3.82638 60.6431 3.96252C60.5698 4.07772 60.5383 4.07772 60.5383 3.98347C60.5383 3.91016 60.4964 3.86827 60.4441 3.89969C60.3917 3.94158 60.3289 3.91016 60.3079 3.84732C60.2765 3.76355 59.9938 3.72166 59.5225 3.72166C58.957 3.71118 58.7056 3.76355 58.4752 3.92064C58.3181 4.02536 58.0144 4.19292 57.8155 4.28717C57.4699 4.44426 57.0719 4.80033 57.2395 4.80033C57.2814 4.80033 57.1976 4.926 57.0405 5.08309C56.8834 5.22971 56.7787 5.41821 56.8101 5.49152C56.8415 5.56483 56.831 5.64861 56.7996 5.68003C56.7682 5.71144 56.7368 5.96279 56.7158 6.23507C56.6949 6.84248 56.6111 7.18808 56.4331 7.408C56.2865 7.58604 56.2655 8.39242 56.3912 8.95794C56.475 9.31401 57.0719 9.92142 57.3756 9.94236C57.4699 9.95284 57.627 9.97378 57.7107 9.98426C57.7945 9.99473 58.0249 10.0157 58.2134 10.0261C58.58 10.0366 58.6637 10.2356 58.3915 10.4555C58.2972 10.5393 58.2344 10.5393 58.2344 10.4765C58.2344 10.2984 57.4908 10.466 57.0824 10.7383C56.8834 10.864 56.6635 10.9791 56.5902 10.9791C56.5169 10.9791 56.454 11.021 56.454 11.0839C56.454 11.1362 56.3179 11.1886 56.1608 11.1886C55.9618 11.1886 55.7943 11.2829 55.6476 11.4923C55.522 11.6494 55.1869 11.9007 54.8936 12.0369C54.6004 12.173 54.3281 12.372 54.2967 12.4767C54.2653 12.5919 54.171 12.6443 54.0872 12.6129C54.0034 12.5815 53.9511 12.6129 53.972 12.6862C53.9825 12.7595 53.9301 12.8014 53.8673 12.7804C53.794 12.77 53.7312 12.8537 53.7312 12.9689C53.7312 13.0841 53.6579 13.1784 53.5741 13.1784C53.4903 13.1784 53.417 13.2203 53.417 13.2831C53.417 13.3355 53.3646 13.3878 53.3018 13.3878C53.239 13.3878 52.9457 13.6182 52.663 13.9115C52.3802 14.1942 52.0765 14.4351 51.9927 14.4351C51.8985 14.4351 51.867 14.477 51.8985 14.5398C51.9299 14.5922 51.8356 14.6655 51.689 14.7074C51.5424 14.7388 51.4272 14.8121 51.4272 14.8645C51.4272 14.9168 51.3644 14.9587 51.2806 14.9587C51.2073 14.9587 51.0816 15.0216 51.0083 15.1053C50.8303 15.3357 49.6783 15.6813 48.9557 15.7232C48.6101 15.7442 48.275 15.7965 48.2016 15.8384C48.1388 15.8803 47.8351 15.8384 47.5314 15.7442C47.2382 15.6604 46.8926 15.5871 46.7564 15.5871C46.6308 15.5871 46.3271 15.4928 46.0757 15.3881C45.7511 15.2415 45.4369 15.1891 44.9866 15.2101C44.641 15.231 44.3058 15.1996 44.2325 15.1472C44.1592 15.0844 44.0336 15.0844 43.9184 15.1472C43.8136 15.1996 43.5518 15.2729 43.3424 15.3148C43.1224 15.3567 42.9444 15.43 42.9444 15.4824C42.9444 15.6185 42.3265 15.5347 42.1799 15.3881C42.1171 15.3253 41.9914 15.2729 41.9076 15.2729C41.8134 15.2729 41.583 15.1368 41.384 14.9692C41.185 14.8016 40.9546 14.6864 40.8604 14.7179C40.7242 14.7598 40.7137 14.7493 40.8394 14.6655C41.0593 14.5084 40.8499 14.2885 40.3053 14.1209C40.054 14.0371 39.7503 13.9115 39.6246 13.8277C39.3418 13.6497 38.7344 13.7544 38.4831 14.0267C38.3888 14.1314 38.2632 14.2256 38.2213 14.2256C38.127 14.2256 37.4673 14.655 37.0483 14.9901C36.7342 15.2415 36.3572 15.3462 35.268 15.4719C34.8805 15.5242 34.5349 15.5871 34.493 15.6185C34.4616 15.6604 34.3464 15.6394 34.2417 15.5766C34.1056 15.5138 33.9799 15.5138 33.8437 15.608C33.6867 15.7023 33.6029 15.7023 33.4877 15.5976C33.3829 15.5138 33.3096 15.5033 33.2573 15.5871C33.1211 15.807 32.8279 15.6813 32.5766 15.2938C32.4404 15.0844 32.3147 14.8749 32.3147 14.8331C32.3147 14.7912 32.1786 14.6027 32.0215 14.4142C31.5293 13.8277 30.7543 12.7595 30.5344 12.3406C30.4192 12.1207 30.2202 11.8274 30.0841 11.6913C29.9584 11.5447 29.8537 11.3876 29.8537 11.3352C29.8537 11.2829 29.7594 11.1781 29.6442 11.1048C29.529 11.0315 29.4348 10.9268 29.4348 10.8744C29.4348 10.6336 28.1467 9.72244 27.8115 9.72244C27.7382 9.72244 27.6335 9.67008 27.6021 9.61771C27.4974 9.43968 26.6386 9.07314 26.4292 9.11503C26.2407 9.14645 25.8008 8.79038 25.8532 8.64376C25.8636 8.5914 25.7799 8.52857 25.6647 8.49715C25.5495 8.46573 25.4552 8.361 25.4552 8.26675C25.4552 8.16203 25.3086 8.01541 25.1201 7.93163C24.764 7.77454 24.565 7.31375 24.8583 7.31375C25.361 7.31375 25.9788 6.70634 25.9788 6.2246C25.9788 6.07798 26.0312 5.93137 26.0836 5.89995C26.1464 5.86853 26.1883 5.41821 26.1883 4.91553C26.1883 4.2767 26.2302 3.95205 26.3244 3.86827C26.4082 3.80544 26.8376 3.7426 27.2984 3.72166C28.1781 3.69024 28.7541 3.47031 28.8693 3.10377C28.974 2.76865 28.8169 2.71629 27.7173 2.76865C26.3244 2.82101 26.3454 2.84196 26.4396 1.58525C26.4815 1.11398 26.4501 1.00926 26.2721 0.883587C26.1359 0.789333 26.0836 0.663662 26.1255 0.558937C26.2302 0.265705 25.34 -0.0379982 24.4394 0.00389099C24.0309 0.0143623 23.5806 0.0667267 23.4445 0.119087ZM24.7012 0.915005C25.2458 1.01973 25.361 1.12445 25.3924 1.52242C25.4133 1.70045 25.4552 1.88895 25.4971 1.95179C25.5285 2.01463 25.5495 2.25549 25.539 2.48589C25.5076 2.85243 25.4762 2.91527 25.2772 2.91527C24.9421 2.91527 24.9002 2.92574 24.7012 3.03046C24.5755 3.0933 24.5127 3.0933 24.5127 3.03046C24.5127 2.96763 24.3346 2.94669 24.0728 2.9781C23.8215 3.00952 23.3083 3.06188 22.9208 3.0933C22.2401 3.14566 22.2192 3.13519 22.1563 2.88385C22.083 2.60109 22.2715 1.76328 22.4077 1.76328C22.4601 1.76328 22.5229 1.62714 22.5543 1.4491C22.6171 1.1454 22.9313 0.97784 23.3921 1.00926C23.4864 1.00926 23.5701 0.97784 23.5701 0.915005C23.5701 0.799805 24.0938 0.799805 24.7012 0.915005ZM25.5599 4.26623C25.5599 4.44426 25.518 4.61182 25.4552 4.64324C25.4028 4.67466 25.3505 4.96789 25.3505 5.28207C25.3505 5.59624 25.3086 5.84759 25.2562 5.84759C25.2039 5.84759 25.1306 6.01515 25.0991 6.21413C25.0468 6.48642 24.9735 6.58067 24.8269 6.58067C24.7117 6.58067 24.6174 6.62256 24.6174 6.67492C24.6174 6.72728 24.4813 6.82154 24.3032 6.88437C24.0519 6.96815 23.989 7.05193 23.989 7.28233C23.989 7.9421 24.1252 8.38195 24.3451 8.46573C24.565 8.55999 24.565 8.55999 24.3346 8.63329C24.1985 8.66471 24.0938 8.72755 24.0938 8.76944C24.0938 8.80085 23.9262 9.02078 23.7272 9.25117C23.5283 9.48157 23.3607 9.73291 23.3607 9.79575C23.3607 9.94236 23.0675 9.97378 22.7952 9.86906C22.7009 9.83764 22.6276 9.74339 22.6276 9.65961C22.6276 9.57582 22.5752 9.51299 22.5124 9.51299C22.4601 9.51299 22.4391 9.46062 22.4705 9.40826C22.5019 9.34543 22.4601 9.23023 22.3763 9.13597C22.1354 8.90558 22.0516 8.46573 22.1982 8.24581C22.3449 7.99446 22.3553 6.55972 22.1982 6.40263C22.1145 6.31886 22.1354 6.24554 22.303 6.14082C22.4182 6.06751 22.5229 5.96279 22.5229 5.92089C22.5229 5.79522 22.7323 5.60672 23.0675 5.43916C23.2245 5.35538 23.3293 5.25065 23.2979 5.19829C23.2664 5.1564 23.3188 5.08309 23.4026 5.05167C23.4968 5.02026 23.5701 4.926 23.5701 4.84222C23.5701 4.76891 23.6225 4.59088 23.6853 4.44426C23.811 4.17197 24.3556 4.00441 25.1724 3.973C25.539 3.96252 25.5599 3.98347 25.5599 4.26623ZM23.0151 4.1615C23.057 4.17197 22.7323 4.58041 22.3449 4.98884L21.9993 5.35538V4.76891C21.9993 4.40237 22.0411 4.17197 22.1354 4.14056C22.2401 4.10914 22.9208 4.11961 23.0151 4.1615ZM60.2556 4.74797C60.2975 4.83175 60.3812 4.90506 60.4546 4.90506C60.6745 4.90506 60.9572 5.30301 61.1457 5.82664C61.3028 6.30838 61.8893 6.99957 62.1197 6.99957C62.193 6.99957 62.3291 7.0624 62.4129 7.13572C62.6433 7.32422 63.345 7.55462 63.4602 7.48131C63.5125 7.43942 63.9419 7.53367 64.4027 7.68029C64.874 7.8269 65.3138 7.9421 65.3871 7.92116C65.628 7.87927 66.7172 8.0573 66.7695 8.16203C66.8114 8.21439 66.9161 8.25628 67.0209 8.25628C67.1256 8.25628 67.2931 8.35053 67.3874 8.45526C67.5445 8.63329 67.555 8.71707 67.4502 9.03125C67.3455 9.34543 67.2617 9.41874 66.7905 9.56535C66.4868 9.65961 66.1412 9.78527 66.0155 9.84811C65.8375 9.93189 65.7118 9.93189 65.5442 9.84811C65.0939 9.63866 64.1933 9.49204 63.7325 9.56535C63.3764 9.61771 63.2612 9.59677 63.2612 9.49204C63.2612 9.38732 63.2403 9.38732 63.167 9.50252C63.1146 9.57582 63.0203 9.60724 62.9575 9.56535C62.8842 9.53394 62.6643 9.59677 62.4653 9.71197C62.1092 9.93189 62.0988 9.93189 62.1616 9.73291C62.2139 9.55488 62.1616 9.51299 61.8579 9.45015C61.5123 9.38732 61.2819 9.18834 60.7478 8.49715C60.4755 8.15155 60.2242 7.65934 60.2242 7.48131C60.2242 7.38705 60.1823 7.31375 60.1299 7.31375C60.0775 7.31375 60.0147 7.22997 59.9728 7.12524C59.9205 6.94721 59.8471 6.83201 59.4597 6.24554C59.3549 6.08846 59.0512 5.84759 58.7894 5.71144C58.5171 5.58577 58.2867 5.42868 58.2658 5.36585C58.2448 5.30301 58.4438 5.14592 58.7056 5.00978C58.9674 4.87364 59.1769 4.7375 59.1769 4.69561C59.1769 4.66419 59.4073 4.6223 59.6901 4.60135C60.0671 4.59088 60.2137 4.6223 60.2556 4.74797ZM58.4857 6.54925C58.6323 6.65398 58.7999 6.8739 58.8732 7.05193C58.936 7.21949 59.0826 7.53367 59.1874 7.74312C59.2921 7.95258 59.3864 8.20392 59.3864 8.29817C59.3864 8.39242 59.4387 8.46573 59.4911 8.46573C59.5539 8.46573 59.6272 8.53904 59.6691 8.63329C59.7005 8.72755 59.8367 8.92653 59.9728 9.07314C60.109 9.23023 60.3079 9.46062 60.4127 9.57582C60.6221 9.81669 60.6116 10.445 60.4022 10.5812C60.3394 10.6126 60.2765 10.7383 60.2556 10.843C60.2451 10.9477 60.2032 11.1991 60.1718 11.3981C60.1404 11.597 60.088 11.9636 60.0566 12.2044C60.0252 12.4558 59.9623 12.6548 59.9205 12.6548C59.8681 12.6548 59.5958 12.4348 59.313 12.1521C59.0303 11.8798 58.6952 11.5761 58.5695 11.4818C58.2658 11.241 58.2763 11.1048 58.6114 11.1048C59.1245 11.1048 59.5749 10.4241 59.4178 9.84811C59.3759 9.67008 59.2502 9.61771 58.7685 9.56535C58.0878 9.48157 57.5537 9.27212 57.4594 9.03125C57.3442 8.72755 57.3966 7.65934 57.5432 7.2928C57.627 7.09382 57.7212 6.79012 57.7526 6.62256C57.7736 6.455 57.805 6.30838 57.805 6.29791C57.8364 6.2246 58.2763 6.39216 58.4857 6.54925ZM21.8736 9.29306C21.9888 9.36637 21.9783 9.39779 21.8422 9.45015C21.6851 9.50252 21.6956 9.55488 21.905 9.90047C22.0411 10.1204 22.3239 10.4869 22.5438 10.7173C22.7638 10.9373 22.9418 11.1572 22.9418 11.1886C22.9418 11.3352 23.3502 11.2095 23.811 10.9163C24.1461 10.7173 24.3242 10.5079 24.387 10.2984C24.4394 10.1204 24.5127 9.98426 24.5755 9.97378C24.8373 9.95284 25.0154 9.79575 24.963 9.63866C24.9211 9.54441 24.9316 9.49204 24.9839 9.53394C25.0258 9.57582 25.1306 9.56535 25.2143 9.50252C25.3191 9.40826 25.3505 9.41874 25.3505 9.55488C25.3505 9.64913 25.4133 9.72244 25.4971 9.72244C25.5704 9.72244 25.6961 9.79575 25.7694 9.87953C25.9369 10.089 26.8166 10.5079 27.0051 10.4765C27.068 10.4555 27.1308 10.4974 27.1308 10.5602C27.1308 10.6126 27.047 10.665 26.9528 10.665C26.7643 10.6754 26.293 11.0106 26.293 11.1362C26.293 11.1677 26.2092 11.2933 26.094 11.4085C25.9893 11.5237 25.8741 11.7646 25.8322 11.9322C25.8008 12.1102 25.7275 12.2254 25.6647 12.1835C25.6123 12.1521 25.5599 12.2044 25.5599 12.3092C25.5599 12.4244 25.5285 12.4558 25.4762 12.3825C25.3505 12.1835 24.7954 12.0578 24.3765 12.1311C24.1566 12.173 23.9576 12.1626 23.9262 12.1102C23.8948 12.0578 23.8005 12.0683 23.7168 12.1416C23.6435 12.2044 23.5073 12.2359 23.4235 12.2044C23.3397 12.173 23.2455 12.2149 23.2141 12.2987C23.1617 12.4244 23.1198 12.4244 22.9418 12.3196C22.7638 12.2044 22.7114 12.2044 22.6381 12.3196C22.5752 12.4244 22.4391 12.4244 21.9364 12.2882C21.5489 12.1835 20.9311 12.1207 20.2818 12.1311C19.2869 12.1416 19.245 12.1311 19.0041 11.8484C18.868 11.6913 18.7528 11.5028 18.7528 11.4295C18.7528 11.3562 18.6585 11.1258 18.5433 10.9058C18.2501 10.3403 18.4491 9.85859 18.9203 9.94236C19.2031 9.99473 19.2973 9.92142 19.245 9.69102C19.1926 9.49204 19.2031 9.48157 19.3078 9.63866C19.4649 9.83764 20.0095 9.81669 20.4807 9.59677C21.329 9.17787 21.6118 9.1255 21.8736 9.29306ZM17.3809 10.267C17.3494 10.4241 17.4751 10.9373 17.6008 11.241C17.6531 11.3562 17.716 11.6284 17.7579 11.8379C17.7893 12.0578 17.8626 12.2359 17.915 12.2359C17.9778 12.2359 18.0197 12.3301 18.0197 12.4453C18.0197 12.7385 18.8994 13.0946 19.622 13.0841C19.7791 13.0841 19.9047 13.1156 19.9047 13.1574C19.9047 13.2098 20.1561 13.2412 20.4598 13.2517C21.1929 13.2517 22.4182 13.3774 22.5543 13.4612C22.6171 13.4926 22.6276 13.4716 22.5857 13.3983C22.5229 13.3145 22.5752 13.2831 22.7533 13.3041C22.879 13.3145 23.2245 13.2831 23.5073 13.2412C23.9995 13.1574 24.8478 13.2726 25.4552 13.5135C25.6332 13.5868 25.7275 13.5763 25.7484 13.503C25.7694 13.4402 25.9055 13.3878 26.0417 13.3878C26.1883 13.3878 26.2825 13.346 26.2407 13.2936C26.2092 13.2308 26.2511 13.1574 26.3244 13.1051C26.3977 13.0632 26.492 12.9375 26.5339 12.8328C26.5758 12.7385 26.6596 12.6652 26.7224 12.6757C26.7957 12.6967 26.9004 12.5396 26.9633 12.3406C27.0156 12.1416 27.1099 11.9426 27.1622 11.9112C27.2146 11.8693 27.2041 11.7541 27.1413 11.618C27.068 11.4923 27.0575 11.3981 27.1203 11.3981C27.1727 11.3981 27.2355 11.4504 27.2565 11.5133C27.2774 11.5866 27.3926 11.6075 27.5288 11.5656C27.8325 11.4714 27.8325 11.1258 27.5288 10.864C27.3926 10.7592 27.3403 10.6754 27.4136 10.665C27.4764 10.665 27.5707 10.7069 27.6021 10.7697C27.6335 10.8221 27.7382 10.8744 27.822 10.8744C27.9896 10.8744 27.9896 10.8744 28.7331 11.5237C29.4348 12.1207 29.4976 12.2882 29.2044 12.5919C29.0682 12.7176 28.6808 13.147 28.3456 13.524C27.8953 14.0267 27.6754 14.1942 27.5602 14.1419C27.4659 14.1 27.2565 14.0686 27.0785 14.0686C26.7957 14.0686 26.7643 14.1 26.7643 14.3827C26.7643 14.5503 26.8271 14.8226 26.9004 14.9797C26.9737 15.1368 27.0261 15.3043 27.0156 15.3357C27.0156 15.3776 27.0575 15.4405 27.1203 15.4824C27.1937 15.5138 27.2146 15.6185 27.1832 15.7128C27.1203 15.8803 26.6177 15.8803 26.3663 15.7232C26.293 15.6813 26.1988 15.6394 26.1359 15.6394C26.0207 15.629 25.5285 15.4195 25.1934 15.2415C25.0782 15.1787 24.5231 15.1158 23.9472 15.1053C23.2245 15.0949 22.8894 15.0425 22.8161 14.9378C22.7323 14.8331 22.7009 14.8331 22.659 14.9378C22.6276 15.032 22.5648 15.0425 22.4705 14.9587C22.4077 14.9064 22.1459 14.8435 21.905 14.8331C21.6746 14.8226 21.4756 14.7807 21.4756 14.7388C21.4756 14.5922 20.8054 14.456 20.7216 14.5817C20.6797 14.6446 20.6064 14.6446 20.5122 14.5712C20.3865 14.477 20.0828 14.477 18.7842 14.5712C18.4805 14.6027 18.2291 14.5817 18.2291 14.5294C18.2291 14.4875 18.0825 14.4979 17.9045 14.5608C17.6531 14.6446 17.517 14.6446 17.3704 14.5503C17.2133 14.456 17.1295 14.456 17.0143 14.5503C16.8258 14.7074 16.7944 14.6131 16.7106 13.5449C16.6059 12.3406 16.5954 12.2044 16.5326 12.0264C16.5012 11.9426 16.4278 11.618 16.3755 11.3038C16.2708 10.7383 16.2708 10.7383 16.564 10.6231C16.7316 10.5602 16.8677 10.4765 16.8677 10.4346C16.8677 10.3927 16.941 10.3508 17.0248 10.3508C17.1086 10.3508 17.1819 10.2984 17.1819 10.2461C17.1819 10.1832 17.2342 10.1413 17.2866 10.1413C17.3494 10.1413 17.3913 10.2042 17.3809 10.267ZM62.193 10.7488C62.3396 10.8221 62.5072 10.8744 62.5491 10.8744C62.6014 10.8744 62.8109 10.9896 63.0308 11.1362C63.2403 11.2724 63.5125 11.4085 63.6277 11.419C63.7429 11.4399 63.9 11.4923 63.9733 11.5447C64.1618 11.6599 64.6226 12.4139 64.6226 12.6024C64.6226 12.6967 64.675 12.7385 64.7378 12.6967C64.8111 12.6548 64.8321 12.6967 64.7902 12.8328C64.7483 12.948 64.8111 13.3355 64.9263 13.702C65.0415 14.0686 65.1044 14.4979 65.073 14.655C65.0415 14.8435 65.1149 15.1368 65.2929 15.5242C65.4395 15.8384 65.5652 16.1526 65.5652 16.2154C65.5652 16.3621 66.026 17.2208 66.3611 17.6816C66.5391 17.9225 66.6962 18.0377 66.8324 18.0167C67.0523 17.9748 67.1151 18.1633 66.9057 18.2262C66.8324 18.2576 66.9894 18.3728 67.2513 18.4985C67.7644 18.7498 68.686 18.8126 68.885 18.6137C68.9583 18.5403 69.1887 18.4775 69.4086 18.4566C69.6285 18.4461 69.8275 18.4251 69.8589 18.4147C69.8903 18.4042 69.9427 18.3937 69.9846 18.4042C70.0265 18.4042 70.1836 18.3414 70.3407 18.2576C70.6234 18.111 70.6444 18.1214 70.77 18.4356C70.8434 18.6137 70.8957 18.7707 70.8852 18.7812C70.8643 18.7917 70.6863 18.8545 70.4873 18.9278C70.2883 19.0116 69.8275 19.2106 69.461 19.3782C69.0107 19.5981 68.6336 19.7028 68.2566 19.7028C67.2303 19.7237 66.8114 19.5981 66.1726 19.064C65.8479 18.7917 65.45 18.467 65.2824 18.3414C64.5179 17.7549 64.4027 17.6083 64.5179 17.3046C64.5807 17.1475 64.7064 16.959 64.8007 16.8962C64.9682 16.7705 64.9263 16.5087 64.5703 15.6394C64.497 15.4614 64.2875 14.9168 64.099 14.4142C63.7953 13.6078 63.722 13.503 63.4602 13.4716C63.1355 13.4193 62.9994 13.6078 63.146 13.8905C63.1879 13.9848 63.2612 14.2571 63.2926 14.4875C63.3345 14.7179 63.4707 15.1472 63.6068 15.43C63.9 16.0374 63.9419 16.582 63.722 16.8857C63.6382 17.0009 63.5754 17.1894 63.5754 17.2941C63.5754 17.3988 63.4707 17.6292 63.3555 17.8073C63.2193 17.9958 63.0936 18.3833 63.0413 18.7707C62.9994 19.1163 62.9261 19.5352 62.8947 19.6923C62.8423 19.8913 62.8632 19.9856 62.947 19.9856C63.0518 19.9856 63.0518 20.017 62.9575 20.1322C62.8842 20.216 62.8737 20.2997 62.9156 20.3207C63.0099 20.3521 63.3659 21.4308 63.3659 21.6507C63.3659 21.724 63.3136 21.745 63.2403 21.7031C63.1355 21.6402 63.1355 21.6612 63.2193 21.7764C63.2926 21.8602 63.3659 22.0906 63.3974 22.2895C63.4288 22.4885 63.5021 22.8655 63.5754 23.1273C63.6487 23.3892 63.7115 23.6614 63.722 23.7347C63.7325 23.8081 63.8267 23.9651 63.921 24.0699C64.0571 24.227 64.0676 24.2793 63.9524 24.2793C63.8372 24.2793 63.8163 24.6459 63.8581 26.3424C63.9105 28.9082 63.9105 28.8977 63.7953 29.0339C63.7534 29.0967 63.6801 29.2747 63.6487 29.4214C63.5963 29.6413 63.4811 29.7251 63.0936 29.8298C62.8318 29.9031 62.4758 30.0811 62.3187 30.2173C61.9626 30.5105 61.3657 30.7304 60.6745 30.8247C60.0671 30.9085 59.5853 31.0446 58.9884 31.3169C58.7475 31.4216 58.4962 31.4845 58.4438 31.453C58.3915 31.4216 58.2134 31.5054 58.0563 31.652C57.8992 31.8091 57.7212 31.9243 57.6688 31.9243C57.6165 31.9243 57.5013 32.0081 57.407 32.1128C57.3128 32.2071 57.051 32.3851 56.8206 32.4898C56.5902 32.5945 56.276 32.7412 56.1084 32.8249C55.9513 32.8983 55.7524 32.9401 55.6686 32.9087C55.5743 32.8668 55.5115 32.9087 55.5115 33.003C55.5115 33.1601 54.747 33.3486 54.5585 33.2334C54.5061 33.1915 54.4642 33.2438 54.4642 33.3276C54.4642 33.4219 54.37 33.4952 54.2548 33.4952C54.1396 33.4952 54.0453 33.5371 54.0453 33.5999C54.0453 33.6523 53.9301 33.7046 53.794 33.7046C53.6474 33.7046 53.5008 33.757 53.4693 33.8094C53.4275 33.8722 53.3646 33.8931 53.3123 33.8617C53.2599 33.8303 53.1971 33.8513 53.1552 33.9036C53.0923 34.0293 52.8096 33.9979 52.1393 33.8198C51.71 33.7046 51.6471 33.6418 51.689 33.4533C51.71 33.3381 51.7833 32.9716 51.8461 32.6574C51.9089 32.3432 52.0032 31.9138 52.0555 31.7148C52.1393 31.4007 52.2022 30.8352 52.2964 29.5051C52.3174 29.2957 52.3593 29.2433 52.5268 29.2747C52.642 29.2957 52.6839 29.2852 52.6106 29.2433C52.5163 29.2014 52.5268 29.0548 52.6734 28.6464C52.7886 28.3427 52.8934 27.9238 52.9248 27.7143C52.9562 27.4944 53.0819 27.2221 53.1971 27.086C53.3227 26.9603 53.417 26.8032 53.417 26.7508C53.417 26.688 53.5112 26.5205 53.6264 26.3738C53.7416 26.2272 53.8359 26.0178 53.8359 25.9026C53.8359 25.6512 54.2024 25.0333 54.4852 24.782C54.6109 24.6668 54.6423 24.583 54.569 24.5411C54.4957 24.4888 54.5166 24.4155 54.6527 24.3003C54.7575 24.1955 54.9041 23.9547 54.9774 23.7557C55.0402 23.5567 55.2916 23.075 55.5115 22.6875C55.7419 22.3105 55.9304 21.9544 55.9304 21.902C55.9304 21.8497 56.0665 21.6716 56.2341 21.5146C56.454 21.2946 56.5588 21.0747 56.6111 20.7082C56.653 20.4254 56.7263 20.195 56.7787 20.195C56.831 20.195 56.8729 20.0798 56.8729 19.9437C56.8729 19.7971 56.9986 19.5876 57.1662 19.441C57.5955 19.0849 57.627 18.9907 57.4908 18.5089C57.3861 18.1633 57.3861 18.0691 57.5013 17.9958C57.606 17.9329 57.6165 17.8701 57.5327 17.7654C57.4699 17.6921 57.3966 17.4826 57.3756 17.3151C57.3337 16.9485 57.2081 16.8228 56.9358 16.9066C56.831 16.9485 56.7682 16.9276 56.7996 16.8752C56.8415 16.8124 56.7577 16.7076 56.6216 16.6343C56.4121 16.5296 56.2027 16.5401 55.3335 16.7391C54.7679 16.8647 54.2338 17.0114 54.1501 17.0637C53.1971 17.6188 52.4221 17.8177 51.2177 17.8073C49.4584 17.8073 47.5209 17.6921 47.4267 17.5978C47.3534 17.5245 47.2277 17.5245 47.0706 17.5769C46.9135 17.6397 46.7355 17.6188 46.526 17.514C46.3585 17.4303 45.8663 17.2732 45.4264 17.158C44.9866 17.0532 44.5048 16.8752 44.3477 16.7705C44.1906 16.6762 43.9917 16.582 43.8974 16.582C43.8032 16.5715 43.5728 16.561 43.3947 16.5506C43.1015 16.5296 43.0491 16.4877 43.0491 16.2783C43.0491 16.0479 43.1015 16.0165 43.6042 15.9536C44.3582 15.8594 45.6359 16.0374 46.2433 16.3202C46.6098 16.4877 47.479 16.6134 48.0236 16.5715C48.3168 16.5506 48.8195 16.5191 49.1442 16.4982C49.4688 16.4773 49.8039 16.4144 49.8773 16.3621C49.9506 16.2992 50.181 16.2469 50.3799 16.2364C50.7779 16.2154 51.5319 15.9013 51.5319 15.7546C51.5319 15.629 51.867 15.3881 52.0555 15.3776C52.2441 15.3776 52.8934 14.8226 52.8934 14.655C52.8934 14.5922 53.0086 14.5398 53.1552 14.5398C53.3018 14.5398 53.417 14.4979 53.417 14.456C53.417 14.4037 53.5845 14.278 53.7835 14.1628C53.9825 14.0581 54.1501 13.9324 54.1501 13.8905C54.1501 13.8382 54.2024 13.8067 54.2548 13.8067C54.3176 13.8067 54.4747 13.702 54.6109 13.5659C55.2497 12.948 55.7733 12.4977 55.8466 12.5186C55.8885 12.5396 56.0037 12.4034 56.0875 12.2359C56.2132 11.995 56.3179 11.9217 56.5588 11.9217C56.7263 11.9217 56.9253 11.8484 57.0196 11.7646C57.1033 11.6808 57.2395 11.6075 57.3337 11.6075C57.4175 11.6075 57.5222 11.5551 57.5537 11.5028C57.606 11.419 57.6688 11.4295 57.7736 11.5133C57.8469 11.5761 57.8992 11.6703 57.8678 11.7122C57.805 11.817 58.3286 12.4767 58.8732 12.9899C59.0931 13.2098 59.2816 13.4297 59.2816 13.4926C59.2816 13.5449 59.334 13.5973 59.3864 13.5973C59.4492 13.5973 59.6272 13.7125 59.7738 13.8591C60.0775 14.1419 60.6116 14.3932 60.7059 14.299C60.7373 14.2675 60.8106 13.9219 60.8735 13.524C61.0515 12.2568 61.0829 12.1311 61.1772 12.1311C61.2295 12.1311 61.2714 11.9636 61.2714 11.7646C61.2714 11.5551 61.3552 11.241 61.4495 11.0525C61.5437 10.864 61.617 10.6545 61.5961 10.5707C61.5856 10.4974 61.6065 10.3613 61.6484 10.2565C61.7113 10.1204 61.7427 10.1309 61.8265 10.3508C61.8788 10.4974 62.0464 10.6754 62.193 10.7488ZM64.3189 10.7383C64.2352 10.8954 64.2142 10.8954 64.2037 10.7592C64.2037 10.5812 64.3085 10.4241 64.3922 10.4974C64.4132 10.5288 64.3818 10.6336 64.3189 10.7383ZM15.5063 12.1207C15.5063 12.4139 15.5482 12.6652 15.6005 12.6967C15.6529 12.7385 15.7262 13.0004 15.7681 13.2831C15.81 13.5763 15.8833 13.8067 15.9356 13.8067C15.988 13.8067 16.0299 13.9848 16.0299 14.2152C16.0299 14.5922 16.0089 14.6236 15.6633 14.6864C15.4539 14.7283 15.3178 14.8016 15.3492 14.8645C15.3911 14.9168 15.2654 14.9587 15.0978 14.9587C14.9198 14.9587 14.7732 14.9064 14.7732 14.8435C14.7732 14.7912 14.7208 14.7702 14.6685 14.8016C14.6056 14.8435 14.5847 14.9168 14.6161 14.9692C14.658 15.0216 14.6056 15.0635 14.5218 15.0635C14.4276 15.0635 14.3543 14.9692 14.3543 14.854C14.3543 14.7388 14.3124 14.6446 14.2705 14.6446C14.2181 14.6446 14.1239 14.477 14.0401 14.278C13.9563 14.079 13.8621 13.9115 13.8097 13.9115C13.7678 13.9115 13.7259 13.8591 13.7259 13.7963C13.7259 13.7334 13.6317 13.5659 13.5165 13.4193C13.4013 13.2726 13.307 13.0632 13.307 12.9585C13.307 12.8642 13.2442 12.749 13.1813 12.7281C13.108 12.6967 13.2023 12.6443 13.3803 12.6024C13.5688 12.5605 13.7783 12.4558 13.8411 12.3825C13.904 12.2987 14.0192 12.2359 14.082 12.2359C14.2391 12.2254 14.6685 11.8588 14.6685 11.7227C14.6685 11.6599 14.857 11.6075 15.0874 11.6075H15.5063V12.1207ZM12.4692 13.3041C12.4692 13.4402 12.5844 13.7334 12.731 13.9638C13.307 14.8959 13.4117 15.3148 13.0871 15.3253C12.731 15.3357 12.0503 15.5138 11.9875 15.608C11.9456 15.6709 11.8827 15.6604 11.8199 15.5766C11.7466 15.4614 11.7047 15.4614 11.6628 15.5557C11.5267 15.9117 11.1078 15.4195 11.1078 14.8959C11.1078 14.7598 11.0345 14.5922 10.9507 14.4979C10.8669 14.4142 10.7936 14.299 10.7936 14.2361C10.7936 14.1733 10.7517 14.1209 10.6889 14.1209C10.6365 14.1209 10.5842 14.0581 10.5842 13.9743C10.5842 13.723 11.7361 13.1156 12.2912 13.0841C12.4064 13.0737 12.4692 13.147 12.4692 13.3041ZM30.0946 13.2098C30.1679 13.2831 30.2307 13.4088 30.2516 13.4926C30.2831 13.6497 30.681 14.2466 30.8172 14.3304C30.8591 14.3618 30.7857 14.5084 30.6601 14.6446C30.5239 14.7912 30.2621 15.1368 30.0631 15.43C29.8642 15.7128 29.6442 16.0165 29.5709 16.0898C29.4976 16.1631 29.4348 16.3202 29.4348 16.4354C29.4348 16.5401 29.3929 16.6343 29.3301 16.6343C29.2777 16.6343 29.2568 16.5715 29.2882 16.4982C29.3091 16.4249 29.2149 16.2259 29.0682 16.0688C28.9216 15.9117 28.8064 15.7442 28.8064 15.7023C28.8064 15.6499 28.6912 15.5242 28.5446 15.4195C28.1676 15.1368 28.0419 14.7074 28.2723 14.4979C28.3771 14.4037 28.5341 14.3304 28.6284 14.3304C28.7227 14.3304 28.8064 14.278 28.8064 14.2256C28.8064 14.1628 28.8797 14.1209 28.9635 14.1209C29.0473 14.1209 29.1206 14.0686 29.1206 14.0057C29.1206 13.9429 29.1834 13.8277 29.2672 13.7439C29.351 13.6601 29.4662 13.5973 29.529 13.5973C29.5919 13.5973 29.6442 13.5345 29.6442 13.4612C29.6442 13.3355 29.8432 13.0737 29.9375 13.0737C29.9584 13.0737 30.0317 13.1365 30.0946 13.2098ZM9.80918 14.7702C9.90343 14.9587 10.1234 15.2415 10.2804 15.3881C10.448 15.5347 10.5842 15.7128 10.5842 15.7651C10.5842 15.9013 10.3433 16.006 10.05 16.006C9.94532 16.006 9.85107 16.0479 9.85107 16.0898C9.85107 16.1421 9.6102 16.1735 9.31697 16.1526C8.85618 16.1317 8.75145 16.0898 8.56294 15.807C8.43727 15.629 8.26971 15.4824 8.20688 15.4824C8.13357 15.4824 8.07073 15.43 8.07073 15.3776C8.07073 15.3148 8.1231 15.2729 8.1964 15.2729C8.29066 15.2729 8.29066 15.2415 8.1964 15.1472C8.0079 14.9587 8.04979 14.854 8.32207 14.854C8.45822 14.854 8.59436 14.8016 8.61531 14.7493C8.63625 14.6864 8.85618 14.6027 9.11799 14.5503C9.3798 14.4979 9.59973 14.456 9.6102 14.4456C9.62067 14.4351 9.71493 14.5922 9.80918 14.7702ZM39.7817 14.7493C40.253 14.9587 40.3158 15.0635 40.0644 15.2729C39.9388 15.3776 39.855 15.3672 39.6351 15.2205C39.3209 15.0216 38.6716 15.0635 38.5355 15.2938C38.4831 15.3672 38.3993 15.4405 38.3365 15.4405C38.2841 15.4509 38.2108 15.4614 38.1899 15.4719C38.1584 15.4719 38.1794 15.629 38.2318 15.7965C38.3155 16.0793 38.2841 16.1526 37.9909 16.4249L37.6558 16.7391L37.4673 16.4982C37.0379 15.9641 37.0588 15.8803 37.7291 15.4509C38.0747 15.231 38.326 15.0216 38.2946 14.9797C38.2213 14.9168 39.0172 14.5503 39.2266 14.5503C39.2895 14.5503 39.5303 14.6341 39.7817 14.7493ZM31.6654 15.608C31.8225 15.8489 31.9482 16.1002 31.9482 16.1735C31.9482 16.3306 32.3566 16.4354 32.6918 16.3725C33.1211 16.2887 33.917 16.4354 33.9904 16.6134C34.0218 16.7076 33.9799 16.8124 33.8856 16.8647C33.6971 16.9799 33.6762 17.336 33.8647 17.3988C33.9589 17.4303 33.938 17.4931 33.8123 17.6502C33.7076 17.7654 33.6238 17.9539 33.6238 18.0796C33.6238 18.2052 33.5819 18.31 33.5191 18.31C33.4667 18.31 33.4144 18.2576 33.4144 18.1948C33.4144 18.111 33.3725 18.111 33.2887 18.1738C33.2154 18.2366 33.0792 18.2785 32.9955 18.289C32.9117 18.289 32.5661 18.3623 32.231 18.4566C31.8958 18.5508 31.5398 18.6241 31.4455 18.6241C31.1104 18.6241 30.6915 18.3728 30.6915 18.1738C30.6915 18.0691 30.5344 17.8282 30.3354 17.6397L29.9898 17.2941L30.1783 16.8962C30.2831 16.6762 30.4506 16.4144 30.5344 16.3202C30.6182 16.2259 30.6915 16.0898 30.6915 16.0269C30.6915 15.9641 30.7753 15.8489 30.8905 15.7756C30.9952 15.7023 31.1104 15.5347 31.1523 15.3986C31.257 15.0739 31.3408 15.1053 31.6654 15.608ZM7.15962 15.4928C7.22245 15.5976 7.33765 15.6918 7.41096 15.6918C7.48427 15.6918 7.52616 15.807 7.51569 15.9641C7.49474 16.2154 7.44238 16.2469 7.07584 16.2887C6.84544 16.3097 6.52079 16.3725 6.3637 16.4249C5.85055 16.5924 5.66204 16.3935 5.74582 15.7651C5.77724 15.5557 5.87149 15.4614 6.12283 15.3986C6.68835 15.2415 7.02348 15.2729 7.15962 15.4928ZM4.59384 15.6813C4.56242 15.828 4.40533 15.8489 3.4628 15.828C2.85539 15.8175 2.19562 15.7756 1.99664 15.7337L1.6301 15.6499L2.049 15.5871C2.2794 15.5452 2.94964 15.5138 3.54658 15.5138C4.49958 15.5033 4.62526 15.5242 4.59384 15.6813ZM18.2082 15.8489C18.847 15.8594 19.3811 15.8175 19.3811 15.7756C19.3811 15.7232 19.423 15.7023 19.4649 15.7337C19.5173 15.7651 19.8838 15.7965 20.2818 15.807C20.6797 15.8175 21.0777 15.8908 21.1615 15.9641C21.2452 16.0269 21.5594 16.1107 21.8422 16.1421C22.5019 16.2154 23.1617 16.3202 23.3607 16.3935C23.4445 16.4249 23.6644 16.4668 23.832 16.4877C24.01 16.5087 24.2928 16.5506 24.4603 16.5924C24.6383 16.6239 24.8792 16.6553 25.0049 16.6553C25.141 16.6553 25.2143 16.6972 25.1829 16.7495C25.1515 16.8019 25.2248 16.8438 25.34 16.8438C25.4657 16.8438 25.5599 16.8857 25.5599 16.9485C25.5599 17.0009 25.7694 17.0532 26.0312 17.0532C26.4501 17.0532 26.492 17.0742 26.4082 17.2313C26.3454 17.336 26.2721 17.5559 26.2407 17.734C26.1988 17.9015 26.1673 18.0691 26.1569 18.1005C26.1569 18.1319 26.2825 18.1843 26.4606 18.2157L26.7643 18.289L26.4292 18.2995C26.1359 18.31 26.0836 18.3518 26.0836 18.5718C26.0836 18.8336 25.9265 18.9383 25.8532 18.7184C25.8113 18.5927 24.8269 18.8231 24.8269 18.9697C24.8269 19.0116 24.764 19.0221 24.7012 18.9802C24.5546 18.8859 24.5755 18.8859 23.5178 18.7917C23.1198 18.7498 22.6067 18.6765 22.3658 18.6346C22.1354 18.5927 21.8003 18.5718 21.6327 18.5927C21.4547 18.6137 21.1615 18.6451 20.9729 18.666C20.7844 18.687 20.6064 18.666 20.575 18.6137C20.4703 18.4461 20.1142 18.5089 20.1037 18.6974C20.1037 18.8126 20.0723 18.8336 20.0409 18.7498C19.9885 18.6137 19.6743 18.5822 19.5487 18.6974C19.4125 18.8336 18.6166 18.8336 18.4595 18.6974C18.3339 18.6032 18.292 18.6032 18.2605 18.6974C18.2396 18.7707 18.1453 18.7917 18.0616 18.7603C17.9778 18.7289 17.915 18.7603 17.915 18.8336C17.915 18.9593 17.7264 18.9383 17.1609 18.7707C17.0353 18.7289 16.9724 18.7707 16.9619 18.9069C16.941 19.2839 16.6687 17.8177 16.6059 16.9485C16.564 16.4563 16.5116 15.9746 16.4802 15.8594C16.4278 15.6918 16.4593 15.6709 16.7211 15.7442C16.8886 15.7861 17.5589 15.8384 18.2082 15.8489ZM41.6353 16.0269C41.8029 16.1002 41.8867 16.205 41.8448 16.2992C41.8134 16.3725 41.7924 16.4982 41.7924 16.5715C41.7924 16.781 40.9441 17.137 40.5357 17.0951C40.0435 17.0532 39.5827 16.8752 39.3628 16.6343C39.2685 16.5296 39.1219 16.4249 39.0486 16.3935C38.7973 16.3097 39.0591 16.1945 39.4989 16.1945C39.7398 16.205 39.9807 16.2573 40.0226 16.3306C40.0854 16.4354 40.2006 16.4249 40.5252 16.2573C40.7661 16.1526 40.9546 16.0269 40.9546 15.9746C40.9546 15.8594 41.3316 15.8908 41.6353 16.0269ZM36.6609 16.2154C36.6609 16.4249 36.7028 16.5191 36.9541 17.0218C37.1112 17.3255 37.1112 17.5036 36.9646 17.4093C36.9017 17.3779 36.818 17.3779 36.7761 17.4303C36.6609 17.5978 36.0535 17.891 35.8231 17.891C35.6974 17.891 35.5089 17.9434 35.3832 18.0062C35.268 18.0691 35.069 18.09 34.9538 18.0586C34.7444 18.0062 34.7234 17.9329 34.7234 17.2208V16.4249L35.1947 16.3621C35.4565 16.3202 35.8335 16.2259 36.0325 16.1526C36.5457 15.9641 36.6609 15.9746 36.6609 16.2154ZM26.6805 16.9066C26.6491 16.938 26.5548 16.9485 26.4815 16.9171C26.3977 16.8857 26.4292 16.8543 26.5444 16.8543C26.6596 16.8438 26.7224 16.8752 26.6805 16.9066ZM74.6135 17.9958C75.1371 18.5613 75.1685 18.6241 74.9381 18.6241C74.8543 18.6241 74.7915 18.5613 74.8125 18.488C74.8439 18.31 73.8909 18.2576 73.3672 18.4251C73.1368 18.4985 72.7703 18.5613 72.5504 18.5822C72.1105 18.6032 71.8487 18.7707 71.8487 19.0221C71.8487 19.1582 71.8278 19.1687 71.723 19.0535C71.6183 18.9383 71.6183 18.9069 71.723 18.865C71.7859 18.8336 71.8487 18.6974 71.8487 18.5613C71.8487 18.4251 71.7859 18.31 71.723 18.2995C71.6393 18.2995 71.6497 18.2681 71.744 18.2366C71.8278 18.1948 71.9534 18.111 72.0058 18.0272C72.1629 17.8177 73.095 17.5036 73.6395 17.4931C74.1003 17.4826 74.1632 17.514 74.6135 17.9958ZM26.6177 19.9856C26.8062 20.1322 26.9528 22.3943 26.8062 22.7922C26.7119 23.0226 26.67 23.0436 26.2616 22.9807C26.0207 22.9388 25.8113 22.8655 25.7903 22.8132C25.7694 22.7608 25.6961 22.7399 25.6332 22.7608C25.5599 22.7922 25.1829 22.8236 24.7745 22.855C24.3765 22.876 23.9681 22.9179 23.8843 22.9493C23.8005 22.9912 23.3397 23.0331 22.858 23.0645C22.3867 23.0959 21.9469 23.1483 21.8945 23.1797C21.8317 23.2111 21.7898 23.2006 21.7898 23.1483C21.7898 23.0959 21.5699 23.075 21.2976 23.0959C20.4284 23.1797 19.1298 23.1378 18.8575 23.0226C18.5957 22.9074 18.1244 22.3209 18.1244 22.101C18.1244 22.0277 18.0825 21.9754 18.0406 21.9754C17.9987 21.9754 17.8312 21.7031 17.6636 21.3679C17.496 21.0433 17.3285 20.6872 17.2761 20.593C17.1714 20.373 17.3285 20.3102 17.7893 20.3835C17.9673 20.4045 18.1244 20.3835 18.1244 20.3312C18.1244 20.2788 18.271 20.2264 18.4595 20.216C18.6376 20.195 18.8575 20.1322 18.9308 20.0693C19.0355 19.9856 19.1717 19.9856 19.4649 20.0798C19.9466 20.2369 20.9415 20.2997 21.0148 20.1741C21.0463 20.1322 21.1196 20.1112 21.1719 20.1531C21.2348 20.1845 21.3604 20.1741 21.4547 20.1322C21.7689 20.0065 21.9364 19.996 22.0726 20.1112C22.1668 20.1845 22.2506 20.1845 22.3658 20.0903C22.4601 20.017 22.5543 19.9856 22.5962 20.0275C22.6276 20.0589 22.6067 20.0903 22.5438 20.0903C22.4705 20.0903 22.4182 20.1636 22.4182 20.2579C22.4182 20.4149 22.5019 20.4254 23.0465 20.373C23.4235 20.3312 23.6958 20.3416 23.7272 20.4149C23.7691 20.4673 24.0309 20.4987 24.3242 20.4778C24.7326 20.4464 24.9421 20.3626 25.2143 20.1217C25.4028 19.9437 25.5914 19.8389 25.6228 19.8913C25.717 20.0484 25.8532 19.996 26.1045 19.7342L26.3454 19.4934L26.4501 19.7133C26.5025 19.8285 26.5758 19.9541 26.6177 19.9856ZM26.5339 23.9651C26.9318 23.9651 27.0261 24.1118 27.0261 24.8134C27.0261 25.0229 27.0994 25.4208 27.1832 25.7036C27.267 25.9863 27.3403 26.3843 27.3403 26.5938C27.3403 26.8032 27.4555 27.3373 27.6021 27.7772C27.7487 28.217 27.8639 28.6673 27.8639 28.7825C27.8639 28.8873 27.9163 29.0129 27.9686 29.0443C28.0315 29.0862 28.0524 29.1595 28.0105 29.2119C27.9267 29.3585 28.1781 30.2487 28.3037 30.2487C28.3666 30.2487 28.3771 30.322 28.3456 30.4163C28.2723 30.6152 28.4608 31.4007 28.5865 31.4007C28.6284 31.4007 28.6703 31.5787 28.6703 31.7882C28.6808 32.4689 28.9216 34.2702 29.0264 34.3958C29.0787 34.4587 29.0892 34.5424 29.0473 34.5739C29.0159 34.6158 29.0368 34.71 29.0997 34.7833C29.1625 34.8566 29.2253 35.087 29.2463 35.286C29.2568 35.485 29.3301 35.7573 29.4034 35.9039C29.4767 36.0505 29.5395 36.2181 29.5395 36.2914C29.5395 36.3542 29.6338 36.438 29.7385 36.4799C29.9165 36.5322 30.0317 36.7626 30.126 37.2653C30.1469 37.3491 30.2412 37.4748 30.3354 37.5481C30.4402 37.6214 30.4611 37.6842 30.3983 37.6842C30.325 37.6842 30.2726 37.7261 30.2726 37.7889C30.2726 37.8413 30.3459 37.8937 30.4402 37.8937C30.5239 37.8937 30.5763 37.9356 30.5344 37.9984C30.482 38.0926 30.6182 38.2916 31.1837 38.899C31.3094 39.0352 31.5084 39.1504 31.634 39.1504C31.7806 39.1504 31.8435 39.2237 31.8435 39.3703C31.8435 39.5588 31.8644 39.5693 32.0006 39.4646C32.1367 39.3598 32.1577 39.3703 32.1577 39.5798C32.1577 39.7159 32.3252 40.1034 32.5242 40.4385C32.7232 40.7736 32.8907 41.0773 32.8907 41.1087C32.8907 41.1402 33.0059 41.2554 33.1421 41.3601C33.3934 41.5591 33.3934 41.58 33.2363 41.8523C33.1421 42.0199 32.9222 42.2503 32.7336 42.3655C32.4614 42.5435 32.3776 42.554 32.231 42.4492C32.1367 42.3759 32.0529 42.2712 32.0529 42.2188C32.0529 42.1665 31.9273 42.0513 31.7702 41.9675C31.3827 41.779 30.9743 41.4543 30.2621 40.7632C29.9375 40.449 29.6233 40.1976 29.5814 40.1976C29.529 40.1976 29.3301 39.9777 29.1416 39.695C28.953 39.4227 28.597 39.0038 28.3456 38.7524C28.0943 38.5011 27.8325 38.1764 27.7487 38.0193C27.6754 37.8623 27.4869 37.5481 27.3403 37.3177C27.1832 37.0873 27.0051 36.7417 26.9318 36.5532C26.8481 36.3751 26.7538 36.2181 26.7119 36.2181C26.6596 36.2181 26.4606 35.8829 26.2511 35.464C25.9684 34.8985 25.9055 34.6786 25.9893 34.5739C26.0836 34.4691 26.0626 34.4377 25.9265 34.4377C25.7799 34.4377 25.7694 34.4063 25.8636 34.2911C25.9579 34.1759 25.9579 34.0921 25.8532 33.9246C25.7799 33.7989 25.6961 33.7046 25.6647 33.7046C25.6332 33.7046 25.6123 33.3381 25.6018 32.8878C25.5914 31.9034 25.4762 30.9818 25.34 30.8142C25.2876 30.7514 25.2353 30.5105 25.2143 30.2801C25.2039 30.0497 25.1306 29.7879 25.0677 29.7146C25.0049 29.6308 24.9106 29.4214 24.8687 29.2538C24.8269 29.0758 24.7535 28.8768 24.7012 28.8139C24.6383 28.7406 24.6174 28.6045 24.6593 28.5207C24.6907 28.4265 24.6593 28.3636 24.565 28.3636C24.4813 28.3636 24.4079 28.2798 24.3975 28.1751C24.3975 28.0285 24.3765 28.0285 24.3032 28.2065C24.2194 28.395 24.209 28.3846 24.209 28.1228C24.1985 27.8191 24.1461 27.7981 23.4654 27.84C22.9837 27.8609 22.879 27.9866 23.1198 28.2484C23.2245 28.3636 23.3712 28.6673 23.434 28.9187C23.5073 29.1805 23.6435 29.4632 23.7377 29.568C23.832 29.6622 23.9262 29.9136 23.9367 30.123C23.9472 30.3325 23.9681 30.5105 23.9786 30.5105C23.989 30.5105 24.0309 30.7723 24.0519 31.0865C24.1147 31.7148 24.1357 31.8929 24.2194 32.1338C24.2509 32.2175 24.3242 32.4479 24.387 32.6469C24.4498 32.8459 24.4813 33.0449 24.4498 33.0868C24.4184 33.1391 24.4394 33.181 24.4813 33.181C24.5336 33.181 24.5546 33.3695 24.5336 33.5894C24.5127 33.8408 24.565 34.1445 24.6593 34.3435C24.7535 34.532 24.8269 34.7833 24.8269 34.8985C24.8269 35.3698 25.1934 36.1029 25.6961 36.6474C25.7903 36.7522 25.8741 36.9511 25.8741 37.0663C25.8741 37.192 25.9579 37.37 26.0626 37.4643C26.1673 37.5585 26.3663 37.8518 26.492 38.1241C26.6281 38.4068 26.7643 38.6267 26.7957 38.6267C26.8376 38.6267 26.9318 38.7629 27.0051 38.9409C27.0889 39.1085 27.3717 39.4855 27.6544 39.7787C27.9267 40.0615 28.1781 40.3757 28.22 40.4594C28.2514 40.5537 28.3247 40.5956 28.3875 40.5642C28.4399 40.5328 28.4923 40.5642 28.4923 40.648C28.4923 40.7213 28.6075 40.8469 28.7436 40.9307C28.8797 41.004 29.0264 41.1506 29.0473 41.2658C29.0787 41.3706 29.152 41.4439 29.2149 41.4334C29.3405 41.402 30.482 42.2817 30.482 42.4073C30.482 42.4597 30.3668 42.5016 30.2307 42.5016C30.0841 42.5016 29.9061 42.5749 29.8223 42.6587C29.7385 42.7425 29.4767 42.8367 29.2358 42.8786C28.974 42.9205 28.8064 43.0043 28.8064 43.0881C28.8064 43.2975 28.3875 43.2661 28.3142 43.0462C28.2828 42.9519 28.1571 42.7634 28.0419 42.6377C27.9267 42.5121 27.8325 42.2607 27.822 42.0827C27.8115 41.9151 27.7592 41.7685 27.7068 41.7685C27.6021 41.7685 26.7119 40.9726 26.7119 40.8784C26.7119 40.805 26.3977 40.4176 25.8741 39.8835C25.361 39.3389 25.162 39.0875 25.0782 38.8153C25.0363 38.7105 24.9316 38.6058 24.8164 38.5744C24.7117 38.543 24.4917 38.3021 24.3346 38.0612C24.1776 37.8099 23.9157 37.5167 23.7586 37.4119C23.5911 37.2967 23.4654 37.1501 23.4654 37.0873C23.4654 37.014 23.3712 36.8988 23.256 36.8255C23.1408 36.7522 23.0465 36.637 23.0465 36.5741C23.0465 36.5113 22.879 36.2809 22.68 36.0505C22.481 35.8306 22.3134 35.5688 22.3134 35.4745C22.3134 35.3803 22.282 35.2755 22.2401 35.2336C22.1878 35.1917 22.1459 35.108 22.1459 35.0556C22.1354 35.0032 22.1249 34.9195 22.1145 34.8671C22.1145 34.8252 21.9888 34.6576 21.8422 34.5215C21.6641 34.3435 21.6013 34.1864 21.6432 34.0712C21.6851 33.9769 21.6641 33.8617 21.6013 33.8198C21.528 33.7779 21.4652 33.4324 21.4547 33.0449C21.4337 32.5736 21.3814 32.3327 21.2766 32.2908C21.2033 32.2594 21.1615 32.1756 21.1929 32.1023C21.2243 32.029 21.1719 31.8824 21.0986 31.7672C20.9939 31.6311 20.9729 31.4216 21.0148 31.0655C21.0672 30.7095 21.0463 30.5629 20.9625 30.5629C20.8892 30.5629 20.8473 30.5 20.8577 30.4267C20.8892 30.144 20.8368 29.945 20.6797 29.7879C20.5959 29.6936 20.554 29.6203 20.5959 29.6203C20.6273 29.6203 20.6064 29.5575 20.5331 29.4737C20.4703 29.3899 20.3865 29.0234 20.3655 28.6569C20.2713 27.4211 20.2084 27.086 20.0514 27.1488C19.9676 27.1802 19.9152 27.1698 19.9257 27.1279C19.9362 27.086 19.8629 26.8765 19.7581 26.6566C19.6534 26.4471 19.5906 26.1749 19.622 26.0597C19.6534 25.9235 19.622 25.8502 19.5277 25.8502C19.4439 25.8502 19.3811 25.7978 19.3811 25.735C19.3811 25.6826 19.423 25.6512 19.4754 25.6826C19.5173 25.7141 19.5068 25.5256 19.4544 25.2742C19.3916 25.0124 19.3078 24.8029 19.2554 24.8029C19.2136 24.8029 19.1717 24.6877 19.1717 24.5411C19.1717 24.3631 19.245 24.2688 19.4125 24.227C19.6848 24.1536 20.6902 24.2374 20.8473 24.3317C20.9101 24.3631 21.0044 24.3631 21.0672 24.3212C21.13 24.2898 21.6432 24.2374 22.1982 24.227C22.7533 24.206 23.3397 24.1432 23.4968 24.0803C23.6644 24.0175 24.1042 23.9547 24.4917 23.9547C24.8792 23.9442 25.34 23.9023 25.5076 23.8709C25.6856 23.829 25.9055 23.829 25.9998 23.8814C26.094 23.9233 26.3349 23.9651 26.5339 23.9651ZM59.9728 32.5736C59.8786 32.6993 59.8053 32.8773 59.8053 32.9611C59.8053 33.0449 59.7319 33.181 59.6482 33.2753C59.4073 33.5266 58.9779 34.155 58.9046 34.3539C58.8627 34.4587 58.7999 34.5424 58.7475 34.5424C58.6952 34.5424 58.6533 34.6367 58.6533 34.7519C58.6533 34.8671 58.6114 34.9613 58.5695 34.9613C58.5171 34.9613 58.3915 35.2336 58.2763 35.5583C58.1715 35.8934 57.9935 36.2495 57.8992 36.3437C57.7945 36.4485 57.7107 36.5846 57.7107 36.637C57.7107 36.7836 57.1871 37.59 56.9567 37.7994C56.852 37.8937 56.7682 38.0926 56.7682 38.2497C56.7682 38.3964 56.7158 38.522 56.653 38.522C56.6006 38.522 56.5797 38.5744 56.6111 38.6372C56.653 38.6896 56.6111 38.8257 56.5273 38.92C56.276 39.2237 55.8047 40.2814 55.878 40.3966C55.9095 40.4594 55.8885 40.5118 55.8362 40.5118C55.7733 40.5118 55.721 40.627 55.721 40.7632C55.721 40.9098 55.6791 41.0459 55.6267 41.0878C55.5639 41.1192 55.4172 41.3601 55.2916 41.6114C55.1659 41.8732 55.0088 42.0827 54.9565 42.0827C54.9041 42.0827 54.8831 42.156 54.925 42.2398C54.9565 42.3236 54.9355 42.3969 54.8727 42.3969C54.8098 42.3969 54.7889 42.4388 54.8203 42.4911C54.9146 42.6377 54.7784 42.9205 54.6109 42.9205C54.5271 42.9205 54.4642 42.9833 54.4642 43.0566C54.4642 43.1823 54.0244 43.4546 53.6055 43.5908C53.4484 43.6326 53.417 43.5803 53.417 43.2975C53.417 43.109 53.4484 42.9205 53.4903 42.8786C53.5322 42.8472 53.5741 42.7111 53.595 42.5959C53.616 42.4807 53.6997 42.2503 53.7835 42.0827C53.8673 41.9151 53.9406 41.6114 53.9406 41.402C53.9406 41.203 53.9825 40.9517 54.0349 40.8469C54.0768 40.7527 54.2024 40.5223 54.2967 40.3338C54.3909 40.1557 54.4642 39.9044 54.4642 39.7892C54.4642 39.6635 54.5166 39.5693 54.569 39.5693C54.6318 39.5693 54.6737 39.5064 54.6737 39.4331C54.6737 39.3703 54.7889 39.0771 54.9355 38.7943C55.0717 38.5116 55.1659 38.2393 55.1345 38.1869C55.0717 38.0822 55.3754 36.5532 55.522 36.3018C55.5743 36.1971 55.6162 35.8934 55.6267 35.6211C55.6267 35.3384 55.6686 35.0242 55.7105 34.909C55.7628 34.7938 55.7628 34.6472 55.721 34.5948C55.6686 34.532 55.7 34.3958 55.7838 34.2911C55.8676 34.1759 55.9304 34.1131 55.9304 34.155C55.9304 34.1968 56.1294 34.1235 56.3703 33.9979C56.6111 33.8722 56.9462 33.757 57.1033 33.7465C57.4385 33.7151 57.9097 33.4009 57.9202 33.1915C57.9202 33.1077 57.9516 33.0763 57.9935 33.1077C58.0249 33.1496 58.1611 33.0763 58.2763 32.9401C58.4962 32.7097 58.6533 32.6574 59.1769 32.626C59.3235 32.6155 59.4597 32.5841 59.4911 32.5527C59.5749 32.4584 60.0671 32.2594 60.109 32.3013C60.1194 32.3118 60.0671 32.4375 59.9728 32.5736ZM54.4642 36.616C54.4642 36.7312 54.37 36.8988 54.2653 36.993C54.1605 37.0873 54.0453 37.2967 54.0034 37.4538C53.972 37.6109 53.9197 37.8832 53.8778 38.0717C53.8254 38.323 53.7312 38.4382 53.4275 38.5534C53.218 38.6477 52.82 38.8153 52.5268 38.9514C52.2441 39.0771 51.9089 39.2027 51.7937 39.2132C51.6785 39.2237 51.4796 39.2656 51.3539 39.3075C51.1444 39.3808 51.113 39.3494 51.113 39.0666C51.113 38.8886 51.0607 38.7105 51.0083 38.6791C50.8931 38.6058 51.1759 38.3545 51.6681 38.1136C51.8356 38.0193 51.9508 37.8727 51.9508 37.7471C51.9508 37.5795 51.9718 37.5585 52.0451 37.6737C52.1289 37.7994 52.1917 37.7889 52.443 37.6214C52.6001 37.5167 52.9038 37.3491 53.1028 37.2548C53.3018 37.1501 53.6369 36.9302 53.8359 36.7522C54.2548 36.3856 54.4642 36.3437 54.4642 36.616ZM49.8039 39.2865C49.8563 39.4122 49.8877 39.5588 49.8982 39.6216C49.9087 39.674 49.9506 39.7787 49.9925 39.852C50.0867 40.0091 49.9296 40.1139 49.7202 40.0301C49.6364 39.9987 49.5317 40.0301 49.4898 40.0824C49.4584 40.1453 49.3746 40.1767 49.3222 40.1453C49.2698 40.1034 49.228 40.1348 49.228 40.1872C49.228 40.25 49.1546 40.3024 49.0709 40.3024C48.9871 40.3024 48.9138 40.3443 48.9138 40.4071C48.9138 40.4594 48.8195 40.5118 48.7043 40.5118C48.5577 40.5118 48.4216 40.6584 48.254 41.004C48.1283 41.2868 47.9922 41.5172 47.9503 41.5381C47.8979 41.5591 47.8665 41.6638 47.8665 41.779C47.8665 41.8837 47.8246 41.978 47.7827 41.978C47.7408 41.978 47.699 42.0618 47.6885 42.156C47.6571 42.4807 47.479 43.2766 47.3953 43.4651C47.2591 43.8002 47.1544 43.5593 47.1963 43.0043C47.2696 41.8523 47.3638 41.3182 47.5733 40.9726C47.7723 40.6375 47.7723 40.2814 47.5838 40.3128C47.2905 40.3652 46.7145 40.2814 46.7145 40.1976C46.7145 40.1348 46.7878 40.0929 46.8716 40.0929C46.9554 40.0929 47.0287 40.0615 47.0287 40.0091C47.0287 39.9358 47.2486 39.8206 48.0236 39.5169C48.254 39.4227 48.5368 39.3075 48.652 39.2551C48.8405 39.1713 49.0394 39.1294 49.5631 39.0771C49.6573 39.0666 49.7621 39.1609 49.8039 39.2865ZM34.1056 42.8367C34.1998 43.0252 34.315 43.2033 34.3674 43.2347C34.514 43.3394 35.2994 44.9312 35.2994 45.1302C35.2994 45.3187 35.1109 45.3816 34.6501 45.3501C34.5454 45.3397 34.4616 45.3816 34.4616 45.4339C34.4616 45.4968 34.3778 45.6329 34.2836 45.7376C33.8856 46.1775 33.7809 46.3241 33.6343 46.6383C33.5505 46.8372 33.4772 46.9001 33.4458 46.8058C33.4144 46.7325 33.4458 46.6278 33.5191 46.5859C33.5924 46.544 33.6238 46.4288 33.5924 46.345C33.561 46.2508 33.5715 46.167 33.6238 46.1461C33.8333 46.0832 33.7076 45.1407 33.3725 44.2296C33.1735 43.6955 33.1525 43.1404 33.3306 43.3185C33.4039 43.3918 33.5086 43.4441 33.5715 43.4441C33.6238 43.4441 33.6029 43.3918 33.5191 43.3394C33.3829 43.2556 33.3829 43.2347 33.54 43.2347C33.6971 43.2347 33.8647 42.9624 33.8228 42.7529C33.76 42.3969 33.8961 42.4388 34.1056 42.8367ZM30.4192 44.24C30.5239 44.5647 30.5763 44.8475 30.5449 44.8789C30.5239 44.9103 30.5344 45.0464 30.5868 45.1826C30.6391 45.3187 30.6391 45.4549 30.5972 45.4758C30.5449 45.5072 30.5135 45.6538 30.5135 45.8005C30.5135 46.1879 30.4087 46.2403 30.0527 46.0309C29.749 45.8633 29.728 45.8633 29.5186 46.0623C29.3929 46.1775 29.2568 46.2403 29.2149 46.2089C29.173 46.1879 29.1101 46.2089 29.0682 46.2717C29.0368 46.3241 28.9216 46.3765 28.8274 46.3765C28.7331 46.3765 28.5446 46.4812 28.398 46.6173C28.1152 46.8791 27.4869 47.1095 27.2565 47.0258C27.0785 46.9734 27.0994 46.7954 27.2879 46.7954C27.4869 46.7954 28.4818 46.167 28.6912 45.9157C28.775 45.8214 28.8378 45.6015 28.8378 45.4235C28.8378 45.2245 28.8902 45.1197 28.9949 45.1197C29.1101 45.1197 29.1206 45.0883 29.0264 44.9731C28.9321 44.8579 28.9321 44.816 29.0264 44.7846C29.1101 44.7532 29.0997 44.6485 28.974 44.4181C28.7541 43.9887 28.7645 43.9678 29.0473 43.9678C29.1834 43.9678 29.3301 43.9259 29.3929 43.8735C29.4871 43.7793 29.7804 43.685 30.0736 43.6641C30.1783 43.6536 30.2935 43.8421 30.4192 44.24ZM53.794 45.1721C53.8254 46.0309 53.8568 46.1461 54.1396 46.7011C54.4119 47.2352 55.3544 47.9473 55.7838 47.9473C55.9199 47.9473 56.0351 47.9997 56.0351 48.0521C56.0351 48.1673 54.349 48.073 54.2548 47.9578C54.2234 47.9264 54.1082 47.895 53.993 47.895C53.8568 47.895 53.7731 47.8112 53.7521 47.6541C53.7312 47.4865 53.6683 47.4237 53.5636 47.4656C53.4798 47.497 53.417 47.4761 53.417 47.4237C53.417 47.3609 53.3332 47.319 53.2285 47.319C53.1238 47.319 52.9562 47.2562 52.841 47.1828C52.5059 46.9524 51.7937 47.0781 51.6262 47.3818C51.5529 47.518 51.4586 47.6332 51.4167 47.6332C51.3329 47.6332 51.4586 47.1828 51.689 46.6383C51.9508 46.0413 51.9822 45.8319 51.8356 45.7376C51.7204 45.6748 51.7204 45.6224 51.8252 45.5177C51.8985 45.4444 51.9508 45.4339 51.9508 45.4968C51.9508 45.5596 52.0346 45.6015 52.1393 45.591C52.5163 45.5596 52.7782 45.3187 52.8934 44.8998C53.0086 44.5019 53.0295 44.4809 53.3856 44.5123L53.7626 44.5438L53.794 45.1721Z" fill="#C21807"/>
<path d="M60.6953 16.2887C60.4649 16.54 59.7842 17.4616 59.5852 17.7863C59.292 18.247 59.7004 18.7497 60.1612 18.4774C61.0933 17.9224 61.7321 16.5191 61.1771 16.2154C60.9048 16.0792 60.8838 16.0792 60.6953 16.2887Z" fill="#C21807"/>
<path d="M30.0103 34.4379C30.0417 34.4903 30.1255 34.5427 30.1779 34.5427C30.2407 34.5427 30.2512 34.4903 30.2198 34.4379C30.1884 34.3751 30.1046 34.3332 30.0522 34.3332C29.9894 34.3332 29.9789 34.3751 30.0103 34.4379Z" fill="#C21807"/>
</svg>
