<svg width="22" height="28" viewBox="0 0 22 28" fill="none" xmlns="http://www.w3.org/2000/svg">
<path d="M14.9774 0.0283307C14.9585 0.0377742 12.2577 0.0661047 8.96189 0.0849917C5.6661 0.113322 2.45531 0.132209 1.8226 0.132209C0.906577 0.141653 0.642158 0.169983 0.547723 0.283305C0.481619 0.368297 0.330523 0.528837 0.217201 0.651602L0.018887 0.878246L0.00944351 9.26408C0 13.882 0 17.7444 0 17.8482C0 26.083 0.00944351 26.9707 0.18887 27.0745C0.283305 27.1312 0.339966 27.2351 0.311636 27.3012C0.254975 27.4428 0.462732 27.7545 0.632715 27.7828C0.689376 27.8017 3.54131 27.83 6.95986 27.8583C10.3784 27.8867 14.968 27.9339 17.1589 27.9528L21.1535 28L21.484 27.6789L21.8145 27.3578V25.6675C21.8239 23.4482 21.9184 8.82024 21.9278 8.64081C21.9278 8.56526 21.9278 8.34806 21.9278 8.16863C21.9278 7.98921 21.9278 7.64924 21.9278 7.41315C21.9373 7.17707 21.9278 6.60101 21.9089 6.13828C21.8995 5.6661 21.9089 4.27791 21.9373 3.04081C21.975 1.19933 21.9562 0.774368 21.8523 0.661046C21.7767 0.594941 21.7201 0.472176 21.7201 0.396627C21.7201 0.0188872 21.5312 1.74157e-07 18.2071 1.74157e-07C16.4411 1.74157e-07 14.9868 0.00944368 14.9774 0.0283307ZM17.1872 0.755481C17.1872 0.755481 17.0644 1.06712 16.9039 1.44486C16.7528 1.8226 16.4789 2.38921 16.29 2.70084C16.1106 3.01248 15.9595 3.28634 15.9595 3.31467C15.9595 3.343 15.8745 3.54132 15.7801 3.75852C15.6762 3.97572 15.5157 4.40067 15.4118 4.70287C15.3079 5.00506 15.1852 5.29781 15.1191 5.36391C15.0624 5.42057 15.0152 5.50557 15.0152 5.55278C15.0152 5.6 14.8735 5.84553 14.6941 6.09106C14.3164 6.6199 13.6081 8.06476 13.2776 8.99022C13.032 9.69848 12.8904 10.0384 12.7487 10.2462C12.7015 10.3218 12.5315 10.6806 12.371 11.03C12.1255 11.5966 12.0594 11.6627 11.8894 11.6155C11.7855 11.5777 11.4927 11.5211 11.2567 11.4833C10.775 11.4172 10.775 11.4172 10.9073 10.6712C10.9828 10.2462 10.9922 5.65666 10.9167 4.20236C10.8884 3.50354 10.8411 2.45531 10.8223 1.87926L10.7939 0.831029L11.7949 0.840472C12.3427 0.840472 13.1359 0.831029 13.5514 0.802698C13.9669 0.774368 14.9585 0.755481 15.7423 0.755481C16.5356 0.755481 17.1872 0.755481 17.1872 0.755481ZM21.1629 1.05767C21.1629 1.25599 21.1629 1.87926 21.1535 2.45531C21.1251 4.28735 21.1251 4.84452 21.1912 5.27892C21.229 5.51501 21.229 5.76998 21.1818 5.82664C21.144 5.89275 21.1251 6.21383 21.144 6.53491C21.1629 7.06374 21.1535 7.12985 20.9929 7.12985C20.889 7.12985 20.7474 7.26206 20.6435 7.45093C20.5491 7.62091 20.3696 7.81922 20.2469 7.88533C20.1241 7.96088 20.0202 8.04587 20.0202 8.08364C20.0202 8.12142 19.8503 8.33862 19.6425 8.55582C19.4347 8.78246 19.2648 8.99966 19.2648 9.03744C19.2648 9.07521 19.1986 9.11298 19.1137 9.11298C19.0287 9.11298 18.8115 9.24519 18.632 9.39629C18.4526 9.55683 18.1126 9.77403 17.8766 9.88735C17.6499 9.99123 17.3099 10.2179 17.14 10.3784C16.97 10.5484 16.6111 10.8223 16.3467 11.0017C16.0823 11.1811 15.8651 11.3605 15.8651 11.3983C15.8651 11.4361 15.7518 11.5305 15.6101 11.6061C15.459 11.6816 15.1757 11.8988 14.968 12.0971C14.0992 12.8904 14.2408 12.8337 13.8253 12.5882C13.6175 12.4749 13.3059 12.2671 13.117 12.1349L12.7771 11.8894L13.1359 11.1433C13.3437 10.7278 13.5042 10.3218 13.5042 10.2368C13.5042 10.1518 13.5325 10.0668 13.5609 10.029C13.6175 9.98179 14.2975 8.3575 14.5808 7.63035C14.6469 7.46037 14.7602 7.25261 14.8452 7.15818C14.9302 7.06374 15.0624 6.8371 15.1568 6.65767C15.2513 6.47825 15.4118 6.19494 15.5251 6.04384C15.714 5.76998 16.0634 5.02395 16.2617 4.43845C16.4223 3.98516 16.6489 3.51298 16.8567 3.21079C16.97 3.05025 17.1777 2.60641 17.3288 2.21922C17.6499 1.35042 17.9143 0.906577 18.141 0.821585C18.2354 0.783811 18.9531 0.746037 19.7369 0.72715L21.1535 0.69882L21.1629 1.05767ZM10.0479 0.906577C10.1046 0.953794 10.1234 1.44486 10.2556 4.86341C10.3218 6.42159 10.3123 9.29241 10.2368 10.1518C10.2179 10.4351 10.1423 10.8695 10.0762 11.115C9.9629 11.5872 9.85902 11.6627 9.10354 11.7949L8.81079 11.8422L8.68803 11.1622C8.62192 10.7845 8.48971 10.3784 8.39528 10.2556C8.2914 10.1329 8.21585 9.98179 8.21585 9.91568C8.21585 9.85902 8.04587 9.47184 7.82867 9.07521C7.62091 8.66914 7.46981 8.31973 7.49814 8.28196C7.52647 8.25363 7.49814 8.1403 7.4226 8.02698C7.34705 7.91366 7.26206 7.65868 7.23373 7.45093C7.11096 6.67656 6.95042 6.04384 6.80877 5.80776C6.60101 5.46779 6.11939 4.01349 6.04384 3.4941C5.9683 2.94637 5.63777 1.89815 5.47723 1.69983C5.43946 1.64317 5.3828 1.44486 5.35447 1.25599L5.29781 0.897133L7.01653 0.878246C9.49072 0.840472 9.99123 0.840472 10.0479 0.906577ZM4.63676 1.53929C4.7973 1.8887 4.99561 2.29477 5.07116 2.45531C5.15615 2.60641 5.25059 3.05025 5.29781 3.43744C5.34502 3.85295 5.47723 4.34401 5.61889 4.62732C5.74165 4.89174 5.8833 5.26003 5.91164 5.43946C5.94941 5.61889 6.0344 5.85497 6.10051 5.9683C6.16661 6.08162 6.27049 6.33659 6.31771 6.53491C6.52546 7.40371 6.81821 8.41417 6.88432 8.49916C6.92209 8.54637 7.00708 8.78246 7.07319 9.01855C7.14873 9.25464 7.34705 9.73626 7.51703 10.1046C7.86644 10.8223 8.12142 11.5872 8.12142 11.9177C8.12142 12.0594 8.02698 12.1821 7.82867 12.2766C7.56425 12.4182 7.50759 12.4182 7.22428 12.286C7.0543 12.201 6.86543 12.0782 6.79932 11.9933C6.73322 11.9177 6.62934 11.8516 6.55379 11.8516C6.48769 11.8516 6.39325 11.7949 6.35548 11.7288C6.31771 11.6627 6.07217 11.4833 5.80776 11.3322C5.55278 11.1811 5.28836 11.0206 5.22226 10.9639C5.1656 10.9073 4.95784 10.7562 4.76897 10.6239C4.24958 10.2651 3.343 9.5285 2.45531 8.73524C2.01147 8.34806 1.47319 7.90422 1.25599 7.75312C0.783811 7.44148 0.831029 7.89477 0.831029 3.75852C0.831029 2.29477 0.859359 1.05767 0.88769 1.00101C0.925464 0.944351 1.62428 0.91602 2.64418 0.91602H4.33457L4.63676 1.53929ZM21.1723 8.47083C21.1723 8.69747 21.1723 8.943 21.1723 9.01855C21.1629 9.0941 21.144 9.76459 21.144 10.5012C21.1251 11.8422 21.1251 11.8516 20.9079 11.8516C20.7946 11.8516 20.6718 11.8894 20.6435 11.9272C20.6152 11.9744 20.2847 12.1632 19.9069 12.3616C19.5292 12.5599 19.1325 12.796 19.0287 12.8809C18.8209 13.0509 18.7548 13.0887 17.6877 13.6648C16.6961 14.1936 15.9218 14.5902 15.8556 14.5902C15.7234 14.5902 15.289 14.1369 15.0246 13.7309L14.7508 13.287L15.1379 12.9282C16.2145 11.9272 17.5555 10.8884 18.4998 10.3312C18.9342 10.0762 19.5386 9.57572 20.1052 9.00911C20.6057 8.5086 21.0401 8.09309 21.0874 8.08364C21.1251 8.0742 21.1629 8.25363 21.1723 8.47083ZM1.33153 8.73524C1.53929 8.943 1.73761 9.11298 1.78482 9.11298C1.8226 9.11298 2.01147 9.27352 2.20978 9.46239C2.92749 10.199 3.22024 10.4256 4.98617 11.625C5.56223 12.0216 6.04384 12.371 6.04384 12.4088C6.04384 12.4465 6.1855 12.5315 6.36492 12.5882C6.95042 12.8054 6.95986 12.9093 6.42158 13.6175C6.14772 13.9669 5.91164 14.2786 5.89275 14.2975C5.87386 14.3164 5.53389 14.118 5.12782 13.8536C4.72175 13.5892 4.05126 13.2115 3.63575 13.0037C2.57808 12.4843 1.74705 11.9933 1.49207 11.7572C1.36931 11.6438 1.17099 11.5116 1.03879 11.4644L0.793255 11.3794L0.812142 9.98179C0.831029 8.39528 0.831029 8.3575 0.906577 8.3575C0.934907 8.3575 1.12378 8.52749 1.33153 8.73524ZM11.7005 12.286C12.3804 12.4277 13.6742 13.2776 14.2503 13.9669C14.3825 14.1086 14.5336 14.288 14.5997 14.3447C14.6563 14.4108 14.7791 14.5902 14.8641 14.7508C14.9491 14.9207 15.1002 15.1096 15.204 15.1852C15.4685 15.374 15.5818 15.8084 15.5723 16.6583C15.5723 17.2344 15.5157 17.4799 15.3174 17.8954C15.0907 18.3676 15.0341 18.4148 14.7319 18.4432C14.5524 18.4526 14.3352 18.4904 14.2597 18.5187C14.0897 18.5848 10.8034 18.5754 9.86846 18.5093C9.50961 18.4809 8.6597 18.4432 7.97976 18.4243C7.30927 18.396 6.66712 18.3771 6.56324 18.3771C6.38381 18.3676 6.13828 17.9993 6.13828 17.7444C6.13828 17.6877 6.07217 17.4233 5.98718 17.1683C5.84553 16.715 5.84553 16.6583 6.07217 15.7707C6.2516 15.053 6.37437 14.7602 6.6199 14.4675C6.79932 14.2597 7.10152 13.8914 7.30927 13.6553C7.80034 13.0698 9.11298 12.4371 10.3406 12.201C10.5484 12.1538 11.3322 12.2105 11.7005 12.286ZM0.991568 12.3143C1.086 12.4843 2.42698 13.2492 2.71973 13.3153C2.88027 13.3437 3.1258 13.4664 3.26745 13.5703C3.40911 13.6836 3.65464 13.8442 3.81518 13.9292C3.97572 14.0236 4.32513 14.2125 4.5801 14.3541C4.84452 14.4958 5.1656 14.6752 5.31669 14.7508C5.61889 14.9113 5.62833 14.9868 5.35447 15.5346C5.15615 15.9406 5.12782 15.9595 4.76897 15.9312C4.56121 15.9218 4.18347 15.8273 3.91906 15.7234C3.52243 15.5723 3.23912 15.544 2.14368 15.5629C1.05767 15.5818 0.840472 15.5629 0.812142 15.4401C0.746037 15.204 0.793255 12.2293 0.868803 12.2293C0.906577 12.2293 0.953794 12.2671 0.991568 12.3143ZM21.0779 13.6648C21.0874 14.6752 21.059 15.6573 21.0118 15.7046C20.9646 15.7612 20.483 15.8179 19.312 15.9123C18.2071 15.9973 17.3761 16.1201 17.0927 16.2239C17.0172 16.2523 16.8189 16.2995 16.6583 16.3278C16.375 16.375 16.3562 16.3562 16.3089 16.0256C16.2806 15.8368 16.2239 15.5912 16.1956 15.4779C16.139 15.3174 16.2712 15.2135 17.2061 14.7413C17.7916 14.4391 18.3393 14.1275 18.4243 14.0614C18.4998 13.9858 18.6132 13.9292 18.6698 13.9292C18.7265 13.9292 18.9909 13.7781 19.2742 13.5892C19.8314 13.202 20.7568 12.711 20.9457 12.7015C21.0307 12.7015 21.059 12.9659 21.0779 13.6648ZM3.58853 16.375C3.97572 16.4317 4.48567 16.545 4.71231 16.6111L5.13727 16.7339L5.34502 17.5272C5.45835 17.9616 5.53389 18.3393 5.51501 18.3582C5.49612 18.3771 5.09005 18.3865 4.60843 18.3771C2.81416 18.3487 1.92648 18.3487 1.40708 18.396L0.878246 18.4526L0.812142 17.6594C0.774368 17.2155 0.774368 16.7245 0.802698 16.5545L0.859359 16.2428L1.86981 16.2523C2.42698 16.2523 3.20135 16.3089 3.58853 16.375ZM21.0685 16.7622C21.0685 16.8944 21.0779 17.2627 21.0968 17.5838C21.1062 17.9143 21.0968 18.2165 21.0685 18.2543C21.0401 18.2921 20.7191 18.3298 20.3508 18.3393C19.3875 18.3487 16.715 18.4526 16.3845 18.4904C15.9784 18.547 15.8273 18.4715 15.9784 18.3015C16.0351 18.226 16.139 17.9238 16.1956 17.631L16.2995 17.0927L17.1022 16.9228C17.5366 16.8283 18.1315 16.7339 18.4148 16.7056C18.6981 16.6772 19.2364 16.6206 19.5953 16.5828C19.9636 16.545 20.4357 16.5167 20.6529 16.5167C21.0212 16.5261 21.059 16.545 21.0685 16.7622ZM8.78246 19.1892C10.539 19.2648 13.5703 19.2648 15.7707 19.1892C18.5282 19.0853 20.9363 19.0664 21.0118 19.142C21.0496 19.1703 21.0685 20.1902 21.059 21.4084C21.0496 22.6172 21.0496 24.4209 21.0496 25.4219L21.059 27.2351L19.3875 27.1973C18.4621 27.1784 16.6867 27.1595 15.4401 27.1595C14.1936 27.1595 13.1076 27.1595 13.032 27.1595C8.58415 27.0934 6.8371 27.0745 4.10793 27.0651L0.802698 27.0556V23.1366V19.227L1.18044 19.1703C1.3882 19.1514 1.66206 19.1137 1.79427 19.0948C2.09646 19.0476 7.11096 19.1231 8.78246 19.1892Z" fill="#C21807"/>
<path d="M4.74059 20.8513C4.23064 21.2763 3.44683 21.4368 2.67246 21.2763C2.33249 21.2007 2.22861 21.2101 2.16251 21.3046C2.04919 21.484 2.05863 21.6068 2.20028 21.8051C2.30416 21.9467 2.49303 21.994 3.23907 22.0223C4.22119 22.0695 4.36285 22.0223 5.12777 21.4557L5.47718 21.1818L6.50652 21.5123C7.80028 21.9373 8.14025 22.0034 8.39523 21.8712C8.78241 21.6634 8.57465 21.2007 8.10248 21.2007C7.81917 21.2007 6.78039 20.8891 6.47819 20.7191C6.37431 20.653 6.03435 20.5869 5.71327 20.568C5.16555 20.5208 5.12777 20.5302 4.74059 20.8513Z" fill="#C21807"/>
<path d="M17.7541 20.7286C17.6219 20.7664 17.3386 20.8892 17.1214 20.9931C16.5737 21.2764 15.771 21.2764 15.2327 20.9931C14.8267 20.7759 14.5622 20.8042 14.4678 21.0875C14.3639 21.418 15.4594 21.9091 16.3943 21.9374C16.8853 21.9563 17.0175 21.9185 17.3764 21.6824L17.7825 21.4086L18.1791 21.588C18.9157 21.9185 19.7939 22.0696 20.2378 21.9469C20.7194 21.8241 20.8705 21.7108 20.8705 21.4747C20.8705 21.3236 20.795 21.2953 20.3322 21.2858C19.0857 21.2575 18.774 21.2103 18.4718 20.9836C18.0469 20.6625 18.0186 20.6531 17.7541 20.7286Z" fill="#C21807"/>
<path d="M10.2936 23.6186C10.1141 23.6941 9.79305 23.8547 9.58529 23.968C9.26421 24.138 9.07534 24.1663 8.29153 24.1569C7.77214 24.138 7.34718 24.1757 7.31885 24.223C7.13942 24.5063 7.54549 24.8557 7.98934 24.799C8.09322 24.7896 8.30097 24.8273 8.44263 24.884C8.77315 25.0068 9.35865 24.8651 10.2463 24.4591C10.7846 24.2041 10.9452 24.1663 11.1624 24.2419C11.304 24.2985 11.4268 24.3646 11.4268 24.4118C11.4268 24.4496 11.644 24.5535 11.9178 24.6479C12.5506 24.8557 13.7688 24.8651 14.2409 24.6668C14.4298 24.5913 14.8359 24.4213 15.1381 24.308C15.6952 24.0908 15.818 23.8924 15.5347 23.6564C15.3553 23.5053 14.8831 23.5808 14.3637 23.8263C13.561 24.2135 12.7016 24.1757 11.6817 23.6941C11.1151 23.4297 10.7563 23.4108 10.2936 23.6186Z" fill="#C21807"/>
</svg>
