<svg width="539" height="444" viewBox="0 0 539 444" fill="none" xmlns="http://www.w3.org/2000/svg">
<path d="M461.868 1.93303C460.469 3.53257 460.269 4.23237 461.169 5.13211C462.768 6.73165 471.665 6.13183 472.665 4.33234C473.865 2.13297 478.064 2.63283 478.663 4.93217C479.463 7.93131 483.362 7.6314 483.362 4.53228C483.362 0.633399 480.963 -0.566257 476.264 0.933313C473.065 2.033 471.765 2.033 470.266 1.13326C467.467 -0.666229 463.868 -0.266343 461.868 1.93303Z" fill="#C21807"/>
<path d="M453.07 9.83055C450.471 11.3301 450.371 11.63 450.971 17.0285C451.371 20.7274 451.171 22.9268 450.471 23.3267C448.871 24.3264 449.071 27.5255 450.971 29.325C452.77 31.2244 454.37 30.6246 454.37 27.9254C454.37 25.4261 457.069 24.6263 457.669 27.0256C458.269 29.4249 461.368 29.5249 461.368 27.1256C461.368 26.2259 460.668 24.1265 459.868 22.5269C457.869 18.728 457.969 16.7286 460.168 17.0285C463.467 17.3284 464.367 16.9285 464.367 15.0291C464.367 12.6298 466.466 11.83 470.365 12.6298C473.864 13.2296 474.464 11.5301 471.265 9.93053C468.266 8.33098 463.467 9.63061 462.767 12.3298C462.467 13.5295 461.268 14.9291 460.068 15.429C458.868 16.0288 457.469 17.4284 456.869 18.628C455.569 21.7271 453.57 21.5272 453.17 18.1282C452.97 16.2287 453.57 14.8291 455.269 13.3296C456.969 11.83 457.369 10.8303 456.769 9.83055C455.969 8.43096 455.569 8.43096 453.07 9.83055Z" fill="#C21807"/>
<path d="M477.963 11.5301C477.063 12.3299 474.863 13.6295 472.864 14.4293C468.765 16.2288 468.265 18.6281 471.864 19.5278C475.563 20.4276 477.363 19.3279 478.063 15.8289C478.562 13.0297 478.762 12.9297 479.762 14.5292C480.362 15.6289 480.862 16.6286 480.962 16.9286C481.262 18.2282 482.661 21.7272 484.161 24.8263C485.061 26.6258 485.66 30.1248 485.56 32.5241C485.46 34.9234 485.76 36.9228 486.16 36.9228C488.26 36.9228 491.359 33.5238 491.359 31.3244C491.359 29.9248 492.059 28.0254 492.958 27.2256C494.058 26.1259 494.358 24.6263 493.958 22.7269C493.558 20.8274 493.958 18.928 495.058 17.3284C498.357 12.3299 492.558 7.53124 487.36 10.9303C486.06 11.83 486.16 12.2299 487.86 13.7295C489.459 15.0291 489.959 16.7286 489.959 21.1273C490.059 25.5261 489.759 26.9257 488.66 26.9257C487.66 26.9257 487.36 25.726 487.46 22.6269C487.76 17.5284 486.96 15.9288 484.261 15.9288C482.961 15.9288 482.361 15.229 482.361 13.5295C482.361 10.6304 479.962 9.53067 477.963 11.5301Z" fill="#C21807"/>
<path d="M494.858 19.8272C494.558 20.427 495.258 21.3268 496.458 21.9266C498.057 22.8263 498.457 23.8261 498.157 26.0254C497.658 29.1245 498.257 29.6244 500.157 27.7249C502.056 25.8255 501.556 22.2265 499.157 20.527C496.558 18.7275 495.658 18.5276 494.858 19.8272Z" fill="#C21807"/>
<path d="M469.665 23.6264C466.366 24.926 469.965 31.924 473.864 31.924C476.763 31.924 477.963 30.3244 475.963 29.2248C475.163 28.8249 474.364 27.3253 474.164 25.9257C473.864 23.5264 472.064 22.5267 469.665 23.6264Z" fill="#C21807"/>
<path d="M494.858 31.9242C494.458 32.5241 494.358 33.9237 494.458 35.2233C494.658 36.4229 494.458 38.0225 494.058 38.6223C493.458 39.5221 493.858 39.9219 495.258 39.9219C498.157 39.9219 499.656 36.6229 498.157 33.5238C496.957 30.7246 495.857 30.2247 494.858 31.9242Z" fill="#C21807"/>
<path d="M454.669 33.0235C453.47 33.4233 452.17 34.9229 451.77 36.3225C451.47 37.6221 449.471 39.9215 447.371 41.3211C445.272 42.7207 440.873 46.9195 437.674 50.6184C434.375 54.3174 430.476 58.8161 429.077 60.4156L426.277 63.5147L412.581 61.2154C374.992 55.0172 352.399 52.9178 313.91 52.118C277.32 51.4182 278.82 51.3182 271.922 53.7175C268.623 54.8172 263.724 56.2168 260.925 56.8166C258.226 57.5164 255.226 58.6161 254.427 59.4159C252.727 60.9155 250.228 68.1134 248.028 77.4107C244.23 94.106 244.13 95.0057 245.129 96.0054C246.729 97.605 248.828 93.0063 252.027 81.3096C253.527 75.8112 254.926 70.5127 255.326 69.413C255.626 68.3133 256.126 72.1123 256.426 77.9106C256.826 87.3079 256.726 88.5076 255.026 89.8072C254.027 90.507 252.627 92.7064 251.827 94.5058C250.828 97.0051 249.728 97.9049 248.028 97.9049C246.829 97.9049 243.13 98.8046 239.931 99.8043C235.632 101.204 233.533 101.504 232.133 100.704C231.133 100.204 229.134 100.004 227.834 100.304C224.735 101.104 220.236 100.004 220.736 98.5047C220.936 97.8049 223.635 97.405 227.634 97.405C231.633 97.405 234.832 96.8052 235.832 96.0054C239.031 93.3062 237.431 92.2065 228.134 90.9069C218.937 89.5073 214.438 92.0066 214.438 98.4047C214.438 101.204 216.138 102.204 223.336 103.603L227.734 104.403L219.837 107.602C211.339 111.101 196.543 119.199 193.744 121.898C192.244 123.298 189.945 123.498 177.948 123.098C170.251 122.998 161.953 123.198 159.454 123.697L154.955 124.597L157.954 125.797C159.654 126.497 165.952 127.496 171.95 127.996C178.048 128.496 195.344 129.996 210.439 131.395C225.535 132.695 247.828 134.294 259.925 134.894C286.417 136.194 302.213 137.394 316.909 139.493C330.205 141.392 372.793 149.99 383.89 153.089C396.086 156.488 409.182 156.188 420.379 152.189C436.175 146.591 444.372 143.092 449.271 139.893C459.168 133.595 458.768 131.095 448.671 135.894C444.972 137.693 435.575 141.392 427.877 144.092C409.382 150.69 401.484 151.39 386.289 147.491C375.292 144.791 342.102 137.993 326.906 135.494C314.01 133.395 290.816 131.195 261.924 129.296C237.431 127.796 200.642 124.497 199.942 123.797C199.242 122.998 243.53 102.903 248.328 101.804C251.228 101.204 255.126 101.004 257.026 101.404C261.525 102.204 280.419 112.101 287.217 117.099C294.015 122.198 300.114 124.797 306.512 125.597C310.611 126.097 311.61 125.897 311.21 124.897C310.81 123.498 310.011 123.198 300.014 120.398C295.215 119.099 292.916 117.599 286.817 111.801C278.82 104.203 268.423 98.5047 260.625 97.305L256.026 96.6052L258.825 94.3059C263.624 90.1071 274.821 91.6067 287.417 97.9049C290.416 99.4044 295.415 101.404 298.414 102.204C305.912 104.403 314.11 111.501 315.009 116.699C316.009 122.098 316.609 122.698 318.008 119.499C320.508 113.2 317.309 108.002 307.211 101.704C303.213 99.3045 302.413 97.9049 304.912 97.9049C305.812 97.9049 309.411 96.5053 313.11 94.9057C322.007 90.9069 324.507 91.1068 330.205 96.2054C332.004 97.9049 332.404 98.0048 332.404 96.6052C332.404 94.4059 327.906 91.1068 323.007 89.8072C315.609 87.8078 303.912 90.407 299.214 95.1057C296.714 97.605 295.115 97.305 281.019 91.4067C275.82 89.2074 269.722 87.5079 266.323 87.2079L260.425 86.6081V74.4116V62.1151L262.924 61.7152C265.823 61.1154 265.923 61.6153 263.924 64.3145C260.825 68.4133 263.524 77.3108 269.422 82.2094C272.921 85.2085 274.821 85.1085 272.222 82.2094C268.822 78.4105 267.523 74.4116 268.323 70.7127C268.822 68.7132 269.522 66.6138 269.822 66.014C271.322 63.7147 278.22 61.0154 284.518 60.4156C288.017 60.1157 291.916 59.6158 293.016 59.4159C295.015 59.016 295.115 59.3159 294.915 63.2148C294.415 69.3131 293.215 71.9123 287.517 78.1105C284.118 81.8095 282.419 84.5087 282.419 86.3082C282.419 89.7072 283.918 89.6073 285.318 86.1083C285.918 84.6087 288.017 81.6095 289.916 79.4102C291.816 77.2108 294.115 73.9117 295.115 71.9123C296.615 68.8132 296.814 68.6133 297.814 70.3128C298.414 71.3125 299.914 73.7118 301.213 75.6113C302.913 78.3105 303.213 79.4102 302.313 81.0097C301.113 83.409 301.513 88.6075 302.913 87.9077C303.513 87.6078 303.912 86.4082 303.912 85.2085C303.812 83.8089 304.612 82.7092 305.612 82.3093C308.111 81.5096 307.811 79.7101 304.912 76.9109C303.513 75.6113 302.413 74.0117 302.413 73.4119C302.413 72.7121 301.613 71.1125 300.613 69.8129C299.514 68.5133 298.414 65.5142 298.014 63.1148L297.414 58.916H313.61C331.505 58.8161 377.391 61.9152 377.391 63.1148C377.391 63.6147 376.692 63.9146 375.892 63.9146C372.993 63.9146 368.194 68.4133 366.195 72.912C363.595 78.7104 361.396 86.6081 361.396 90.2071C361.396 95.1057 358.697 98.9046 355.398 98.9046C352.499 98.9046 349.399 101.904 349.399 104.703C349.399 105.603 350.199 105.403 351.999 104.003C355.798 101.004 356.297 101.404 354.998 105.903C353.598 110.801 353.398 110.901 345.401 115.4C336.303 120.598 329.405 125.997 329.405 128.096C329.405 131.695 331.804 130.795 352.898 119.399C361.596 114.6 362.196 114.4 371.393 114.1C379.691 113.7 382.49 114.1 392.887 116.899C407.083 120.698 406.983 120.598 415.281 127.696C425.078 135.994 433.875 139.193 440.773 136.894C446.672 134.994 445.572 133.995 432.975 130.196C428.877 128.996 425.178 126.797 420.379 122.698C416.58 119.599 411.682 116.1 409.382 114.9L405.183 112.701L407.983 109.801C411.282 106.402 412.781 106.302 425.078 108.902C436.674 111.301 441.573 113.8 447.771 120.298L452.67 125.397L451.97 121.898C451.67 119.999 450.57 117.299 449.571 115.9C446.971 112.401 430.076 104.103 422.878 102.704C413.681 101.004 413.981 101.304 416.58 97.7049C417.78 95.9054 420.479 92.8063 422.379 90.9069C424.278 88.9075 426.477 85.6084 427.277 83.409C428.077 81.2097 429.776 77.7107 431.076 75.6113C433.775 71.4125 434.375 71.3125 442.373 75.3113C444.972 76.611 447.671 78.9103 448.771 80.8098C451.27 85.1085 454.069 99.9043 455.369 115.3C456.269 127.396 457.368 130.695 459.168 127.196C461.267 123.298 461.467 117.799 459.868 105.003C458.868 97.7049 458.368 91.5067 458.668 91.2068C458.968 90.9069 460.568 92.9063 462.267 95.5056C467.566 104.203 470.365 107.902 471.464 107.902C473.664 107.902 471.464 101.804 465.666 92.2065C459.668 82.1094 450.67 73.112 442.273 68.8132L438.174 66.8138L442.073 63.1148C446.772 58.7161 454.369 48.719 454.369 47.0195C454.369 44.8201 451.77 47.2194 445.072 55.417C441.573 59.9158 436.375 65.5142 433.675 67.9135C430.976 70.4128 427.477 74.8115 425.878 77.8106C424.278 80.7098 422.379 83.409 421.579 83.609C420.879 83.9089 419.079 86.5081 417.68 89.3073C416.28 92.1065 413.881 95.9054 412.281 97.605C410.782 99.4044 409.182 102.404 408.882 104.303C408.482 106.202 407.083 108.702 405.783 110.001L403.484 112.201L391.487 109.502C379.091 106.802 368.394 106.202 362.496 107.902C360.596 108.402 358.797 108.702 358.597 108.402C357.797 107.602 360.196 102.903 363.495 98.8046C365.095 96.7052 366.794 93.0063 367.394 90.2071C369.494 79.4102 374.092 69.413 377.491 68.4133C387.089 65.3142 396.386 77.4107 396.386 93.0063C396.386 98.2048 398.585 103.403 401.185 104.403C402.284 104.803 402.484 104.403 401.984 102.903C401.684 101.804 401.085 100.004 400.785 98.9046C400.385 97.605 400.585 96.9052 401.385 96.9052C403.784 96.9052 412.881 89.0074 415.381 84.8086C416.78 82.5093 419.979 78.3105 422.478 75.5113C424.978 72.7121 428.077 68.8132 429.376 66.9137C430.776 65.0143 434.775 60.2157 438.374 56.4168C441.973 52.5179 446.272 47.6193 447.871 45.5199C450.87 41.621 450.97 41.621 453.47 43.2205C455.169 44.4202 457.069 44.7201 459.068 44.3202C461.567 43.8204 462.167 44.1203 462.667 45.8198C463.367 48.719 466.366 49.7187 467.965 47.5193C469.365 45.5199 468.065 40.0215 466.066 39.8215C465.366 39.7215 464.167 39.5216 463.367 39.4216C460.168 39.1217 458.268 37.6221 458.868 35.9226C459.668 33.5233 457.368 31.9238 454.669 33.0235ZM407.683 67.0137C415.181 68.2134 421.379 69.513 421.379 69.8129C421.379 71.7124 401.684 94.9057 400.185 94.9057C399.685 94.9057 399.485 94.106 399.685 93.1063C401.085 88.0077 401.285 85.7084 400.385 80.7098C399.285 73.6118 396.086 68.7132 390.888 66.014L386.889 63.9146L390.388 64.3145C392.287 64.6144 400.085 65.8141 407.683 67.0137Z" fill="#C21807"/>
<path d="M473.364 36.0226C473.364 36.8224 472.165 37.0223 469.865 36.6225C466.666 36.1226 466.466 36.2226 467.366 37.8221C469.965 42.7207 479.663 41.4211 477.763 36.5225C477.063 34.723 473.364 34.3231 473.364 36.0226Z" fill="#C21807"/>
<path d="M482.062 37.6228C479.763 39.9222 483.462 43.2212 487.161 42.2215C490.16 41.5217 489.96 39.5223 486.861 38.1227C483.862 36.7231 482.962 36.6231 482.062 37.6228Z" fill="#C21807"/>
<path d="M489.759 45.5204C486.66 48.8194 486.06 49.0194 485.261 47.6198C484.561 46.5201 482.961 46.0202 480.062 46.0202C477.763 46.0202 474.964 45.9202 473.864 45.7203C470.665 45.2204 471.165 50.0191 474.664 51.9185C477.163 53.3181 477.663 53.2182 480.262 51.8186C482.262 50.6189 483.461 50.419 484.161 51.1188C485.861 52.8183 492.059 51.1188 494.158 48.4195C496.557 45.4204 497.557 46.2202 496.757 50.6189C495.758 55.9174 500.056 54.8177 501.756 49.3193C502.556 46.62 499.857 43.221 496.058 42.3213C493.758 41.8214 492.759 42.3213 489.759 45.5204Z" fill="#C21807"/>
<path d="M468.865 55.2171C468.366 57.1165 469.365 58.7161 473.764 63.2148C476.763 66.4139 479.662 68.9132 480.062 68.9132C481.062 68.9132 483.361 64.0146 483.361 61.7152C483.361 59.4159 479.562 57.3165 478.063 58.816C477.363 59.5158 477.463 60.4156 478.463 61.6152C479.762 63.3148 479.762 63.3148 477.763 61.6152C476.563 60.6155 474.764 58.3162 473.764 56.4167C471.565 52.3179 469.665 51.918 468.865 55.2171Z" fill="#C21807"/>
<path d="M467.866 62.8155C467.066 65.5148 468.266 67.9141 470.465 67.9141C472.065 67.9141 472.265 67.4142 471.765 65.1149C470.565 60.4162 468.965 59.4165 467.866 62.8155Z" fill="#C21807"/>
<path d="M375.592 75.8108C373.693 79.1099 373.293 81.4092 373.293 88.6071C373.293 94.6054 372.793 98.1044 371.793 99.604C370.993 100.904 370.594 101.903 370.894 101.903C371.093 101.903 373.393 98.9042 375.892 95.2052C379.291 90.1067 380.391 87.5075 380.391 84.6083C380.391 82.4089 381.091 79.5097 381.99 77.9102C384.09 74.5112 383.19 71.9119 380.091 71.9119C378.391 71.9119 377.092 73.0116 375.592 75.8108Z" fill="#C21807"/>
<path d="M383.39 88.5077C382.191 91.5068 382.99 95.0058 385.69 99.7045L387.689 103.104L389.089 99.8045C390.588 96.3055 390.088 89.5074 388.189 87.1081C386.489 85.1087 384.39 85.7085 383.39 88.5077Z" fill="#C21807"/>
<path d="M296.415 90.7069C295.015 90.9069 293.516 91.5067 293.016 92.0065C291.716 93.2062 297.415 93.2062 299.314 92.0065C301.014 90.9069 299.614 90.2071 296.415 90.7069Z" fill="#C21807"/>
<path d="M323.007 98.9049C325.007 102.204 330.005 104.703 331.505 103.204C332.105 102.604 330.705 101.104 327.506 99.1049C321.508 95.106 320.808 95.106 323.007 98.9049Z" fill="#C21807"/>
<path d="M470.865 112.101C464.067 116.1 463.567 122.998 469.765 126.897C473.864 129.396 473.564 131.595 469.066 132.095C464.967 132.495 464.567 134.294 468.266 135.794C473.064 137.793 476.663 136.894 478.563 132.995C479.463 131.195 481.562 128.796 483.262 127.796C486.561 125.797 489.36 121.198 489.36 117.799C489.36 115.9 489.76 115.7 492.659 116.3C495.058 116.899 510.054 118.099 522.65 118.899C524.35 118.999 523.15 120.698 520.851 121.298C516.652 122.398 497.957 130.596 478.963 139.793C448.472 154.489 407.883 180.081 386.089 198.376C369.394 212.372 361.696 221.869 367.195 221.869C368.994 221.869 371.494 219.87 391.388 202.875C396.586 198.376 408.583 189.679 417.88 183.48C435.875 171.484 458.069 157.888 459.468 157.888C460.868 157.888 463.267 164.586 465.367 174.183C467.066 181.681 467.166 184.48 466.366 192.678C465.167 204.974 465.167 208.873 466.266 208.873C468.266 208.873 472.765 181.581 472.065 173.883C471.765 170.884 470.565 165.685 469.366 162.386C468.166 159.087 467.166 155.688 467.066 154.889C466.766 152.189 521.151 126.897 527.349 126.897C531.448 126.897 532.747 130.296 531.848 139.393C530.548 153.989 530.448 153.289 534.147 154.389C537.646 155.388 538.446 156.888 535.447 156.888C530.548 156.888 525.949 164.786 529.948 166.285C532.547 167.285 535.447 164.986 537.446 160.387C539.046 156.788 539.146 155.588 538.246 153.489C537.346 151.49 537.346 149.99 538.146 147.091C539.645 142.292 538.146 127.696 535.846 124.197C534.947 122.898 533.147 121.298 531.748 120.698C530.448 120.099 529.348 118.999 529.348 118.299C529.348 113.3 512.853 110.401 487.86 111.001C486.761 111.001 483.362 110.801 480.362 110.401C475.664 109.901 474.264 110.201 470.865 112.101ZM483.861 119.399C483.861 120.898 483.062 121.498 480.962 121.698C476.963 122.198 473.364 121.098 473.364 119.499C473.364 117.599 475.064 116.999 479.863 117.199C483.162 117.399 483.861 117.799 483.861 119.399Z" fill="#C21807"/>
<path d="M141.059 123.897C138.36 124.997 132.262 126.797 127.563 127.896C95.5724 135.694 68.5801 145.791 47.6861 157.988C37.3891 163.986 29.0914 169.784 29.7912 170.584C30.2911 171.084 46.1865 164.586 53.1845 161.087C58.9829 158.088 61.1823 157.188 80.9766 148.99C91.2736 144.691 107.669 139.793 124.464 135.894C135.861 133.195 147.258 129.296 149.657 127.197C150.957 125.997 151.157 125.197 150.357 123.797C149.157 121.398 147.258 121.498 141.059 123.897Z" fill="#C21807"/>
<path d="M151.457 134.395C153.656 136.494 169.651 139.494 194.244 142.393C206.141 143.792 224.236 146.292 234.433 147.891C244.63 149.491 267.323 152.69 284.918 154.889C302.513 157.088 323.007 159.788 330.405 160.787C337.803 161.887 347.9 163.287 352.699 163.887C360.097 164.786 366.695 166.386 376.292 169.585C378.991 170.485 370.494 164.786 366.795 163.287C362.696 161.587 338.703 156.289 325.907 154.389C321.008 153.589 303.613 151.39 287.418 149.391C271.222 147.491 251.628 144.992 243.93 143.892C236.232 142.793 221.636 140.793 211.439 139.394C201.242 138.094 186.846 136.094 179.448 134.995C172.051 133.895 162.353 132.895 157.955 132.895C150.957 132.895 150.157 133.095 151.457 134.395Z" fill="#C21807"/>
<path d="M519.95 151.989C515.752 156.888 514.552 159.987 511.453 173.083C508.054 187.379 499.856 206.674 495.058 211.672C489.059 217.97 446.771 249.561 441.873 251.461C441.173 251.761 440.373 250.961 439.973 249.461C439.474 247.362 438.774 246.862 436.174 246.862C432.675 246.862 430.276 249.162 416.88 264.757C412.481 269.856 407.183 275.954 405.183 278.253C402.484 281.352 398.385 283.952 389.888 288.15C383.49 291.249 377.091 294.149 375.692 294.449C371.093 295.648 356.897 301.746 356.597 302.646C356.197 303.846 362.895 305.145 365.395 304.346C367.094 303.846 367.194 304.246 366.694 309.844C366.194 315.243 366.394 316.142 368.494 318.542C372.093 322.341 379.491 325.44 389.988 327.439C397.785 328.939 400.085 329.039 404.683 327.939C414.881 325.64 420.279 320.641 425.078 308.844C429.676 297.448 431.676 280.652 429.476 272.855C428.777 270.555 428.677 270.555 428.177 272.355C427.777 273.455 427.277 277.953 426.877 282.352C425.278 302.746 421.379 313.243 413.481 318.542C409.382 321.341 408.882 321.341 406.483 318.942C404.484 316.942 403.284 312.044 401.584 298.847C400.685 291.849 400.785 291.249 402.784 289.65C404.883 287.95 404.883 288.05 406.583 295.348C408.982 305.745 412.881 311.044 416.38 308.844C417.48 308.145 417.38 307.645 415.58 306.145C414.081 304.946 412.581 301.347 410.882 295.048L408.382 285.751L417.28 274.054C422.278 267.656 427.877 260.558 429.776 258.359L433.275 254.36L433.375 257.559C433.375 260.958 435.675 262.958 438.374 262.058C440.473 261.358 466.966 243.063 468.365 241.364C469.365 240.164 469.965 240.164 472.564 241.464C475.063 242.763 478.262 242.963 488.26 242.663C500.456 242.363 501.056 242.263 507.254 238.864C519.051 232.466 525.049 221.669 526.049 205.074C526.549 198.276 526.149 193.577 524.849 187.379C523.849 182.681 522.75 178.882 522.35 178.882C521.95 178.882 521.55 185.38 521.55 193.377C521.35 212.772 519.651 219.57 513.552 226.068C510.553 229.267 508.654 229.567 505.755 227.068C503.055 224.868 499.156 217.97 499.856 216.771C500.856 215.271 501.956 215.771 503.155 218.37C504.055 220.37 505.055 220.87 507.854 220.87C510.753 220.87 511.753 220.27 513.352 217.571C514.452 215.871 515.352 213.472 515.352 212.372C515.352 210.772 514.952 211.072 513.352 213.572C510.853 217.77 509.154 217.77 507.154 213.472C505.555 210.273 505.655 209.773 509.853 197.276C512.153 190.178 514.852 180.781 515.852 176.382C516.751 171.984 518.451 166.385 519.451 163.986L521.35 159.687L523.25 161.986C525.849 165.186 526.649 164.086 527.148 156.788C527.448 152.289 527.248 150.39 526.249 149.79C523.949 148.29 522.65 148.79 519.95 151.989Z" fill="#C21807"/>
<path d="M139.86 167.784C136.461 170.084 132.162 173.983 130.363 176.382C128.463 178.881 126.164 182.08 125.164 183.38L123.465 185.779L119.066 183.78C113.867 181.481 101.071 179.681 67.3807 176.282C53.3847 174.982 37.6892 173.183 32.4907 172.383C20.5941 170.484 10.7969 171.184 6.19823 174.283C0.899742 177.882 0 180.781 0 195.377C0 218.17 4.59868 224.968 25.9926 233.566C41.788 239.964 54.1845 241.863 85.9754 242.763L108.969 243.363L109.469 247.662C110.168 253.56 114.167 258.259 120.665 260.658C123.565 261.758 132.262 263.357 139.96 264.257C155.256 266.156 172.951 268.956 186.946 271.855C201.442 274.854 217.138 276.353 219.937 275.054C223.036 273.654 223.136 271.055 220.237 269.955C218.937 269.555 213.039 268.556 206.941 267.956C200.942 267.256 191.845 265.856 186.747 264.857C181.648 263.757 167.252 261.758 154.756 260.358C127.563 257.359 123.765 256.559 118.466 252.76C114.867 250.161 114.467 249.361 114.467 245.662C114.467 243.263 115.167 238.064 115.967 233.866C116.767 229.767 117.866 222.969 118.566 218.87C120.066 209.772 126.864 193.277 132.562 184.78C134.861 181.481 138.96 176.882 141.659 174.782C146.158 171.283 147.258 170.884 152.256 170.884C158.155 170.884 173.15 172.083 189.446 173.983C200.743 175.282 227.535 181.181 234.833 183.98C237.832 185.08 244.53 186.379 250.928 186.879C257.026 187.479 263.325 188.279 264.924 188.679L267.923 189.478L267.623 197.476C267.423 201.775 266.624 208.073 265.724 211.372C263.425 220.669 255.827 239.964 248.429 255.459L241.731 269.555L234.933 270.155C227.935 270.855 225.735 271.855 226.835 273.754C227.835 275.354 242.031 275.154 245.33 273.454C246.829 272.654 248.929 270.355 250.028 268.356L251.928 264.657L264.924 265.157C277.92 265.656 286.118 267.056 308.912 272.654C315.51 274.254 326.706 276.453 333.704 277.353C354.099 280.252 361.996 277.853 366.395 267.656C368.295 263.157 368.594 261.258 368.095 254.86C367.095 242.063 363.396 234.365 363.396 245.062C363.396 252.26 361.596 262.557 359.797 266.056C357.998 269.555 352.999 271.855 347.201 271.855C341.602 271.855 319.109 268.356 311.111 266.256C298.715 263.057 283.619 260.858 270.423 260.258C263.025 259.958 256.327 259.558 255.727 259.358C254.727 259.058 254.827 258.059 256.127 255.259L257.926 251.66L263.425 252.36C266.424 252.66 274.321 253.86 280.92 254.96C287.518 256.059 298.914 257.359 306.412 257.859C313.81 258.359 324.007 259.358 329.006 259.958C343.402 261.858 348.4 259.858 348.4 252.16C348.4 248.261 347.001 247.962 343.802 251.361C342.402 252.86 340.403 253.86 338.703 253.86C334.004 253.86 265.224 247.062 262.325 246.262C260.925 245.862 261.225 244.263 265.024 234.665C267.423 228.567 269.623 223.369 269.823 223.169C270.323 222.569 315.11 227.767 323.807 229.367C332.905 231.066 338.203 231.266 341.802 229.867C348 227.567 344.102 226.068 322.908 222.469C315.21 221.169 301.014 219.27 291.417 218.37C281.819 217.47 273.322 216.471 272.722 216.271C271.822 216.071 271.722 215.271 272.322 213.671C272.722 212.372 273.422 209.273 273.822 206.573L274.521 201.875L278.72 202.475C282.419 202.974 304.613 207.173 326.906 211.472C331.305 212.272 339.403 214.371 344.801 215.971C354.599 218.87 358.397 218.97 358.397 216.471C358.397 212.172 347.001 208.473 313.41 201.975C299.414 199.275 286.118 196.776 283.919 196.476C274.022 194.877 274.421 195.177 274.621 190.278C274.921 182.48 271.822 180.881 252.428 178.881C246.13 178.182 233.733 175.882 224.836 173.783C199.443 167.685 185.747 165.785 156.455 164.186L145.958 163.686L139.86 167.784ZM37.3893 178.881C44.8871 179.981 60.6826 181.78 72.4793 182.88C99.8714 185.479 111.568 187.379 116.567 189.878C118.666 190.978 120.466 192.178 120.466 192.477C120.466 192.977 117.466 199.076 116.967 199.675C116.767 199.875 115.567 199.375 114.267 198.576C112.768 197.576 106.869 196.676 96.9722 195.876C75.0785 194.277 66.6809 193.177 50.4855 189.878C42.5878 188.179 31.7909 186.579 26.4924 186.279L16.8952 185.579L14.3959 188.579C11.5967 191.878 8.79748 205.574 9.89717 210.572C10.497 213.172 14.7958 218.87 16.0954 218.87C16.3953 218.87 21.5938 219.97 27.5921 221.369C38.389 223.868 68.0805 226.868 98.1719 228.467L111.368 229.167L110.868 232.266C109.969 237.465 109.569 238.064 107.669 237.465C106.669 237.165 95.7726 236.465 83.4761 235.965C56.2839 234.865 42.9877 232.866 30.9911 228.167C14.2959 221.669 10.7969 218.87 8.09768 209.872C6.2982 203.874 4.99857 188.279 5.89831 183.48C7.19794 176.482 13.996 175.482 37.3893 178.881ZM47.4864 196.276C58.3833 198.876 72.1793 200.775 90.5741 202.275C107.969 203.674 112.768 203.574 115.167 201.575C116.567 200.575 116.567 200.575 114.367 212.872C112.468 223.169 114.167 222.269 97.5721 221.469C83.5761 220.869 72.1793 219.97 49.4858 217.87C43.6875 217.27 34.2902 215.771 28.4918 214.471C16.0954 211.772 15.6955 211.172 17.295 201.275C17.8949 197.676 18.7946 194.177 19.3944 193.477C20.5941 192.078 36.5895 193.677 47.4864 196.276Z" fill="#C21807"/>
<path d="M167.652 179.382C165.852 180.182 161.554 181.281 158.155 181.981C154.756 182.581 150.957 183.281 149.657 183.481C146.558 184.08 147.158 186.98 150.457 187.879C151.856 188.279 155.355 188.279 158.255 187.879C161.054 187.579 163.453 187.479 163.453 187.779C163.453 188.579 155.255 197.077 146.658 205.174C142.659 208.973 139.46 212.272 139.46 212.472C139.46 213.572 144.359 212.672 148.157 210.773C156.955 206.474 176.949 185.18 176.249 180.681C175.85 177.882 172.351 177.282 167.652 179.382Z" fill="#C21807"/>
<path d="M493.858 194.177C492.159 195.377 487.76 199.176 483.861 202.675C477.163 208.873 460.868 220.07 436.875 235.166C420.979 245.063 409.882 251.161 392.387 259.359C377.591 266.357 370.394 270.455 370.394 271.955C370.394 273.355 377.691 273.055 381.99 271.455C391.987 267.956 426.078 250.261 437.374 242.663C452.67 232.466 481.362 209.573 490.759 199.976C497.957 192.778 499.157 190.378 493.858 194.177Z" fill="#C21807"/>
<path d="M220.437 199.376C219.137 200.776 217.038 201.875 215.838 201.875C214.539 201.875 212.339 202.375 210.74 202.975L207.94 203.975L210.34 205.774L212.739 207.674L208.44 210.773C203.442 214.372 202.442 214.572 203.142 211.873C203.842 209.073 202.742 205.174 201.042 204.575C200.143 204.175 197.543 205.774 194.744 208.174C192.145 210.573 188.646 213.272 187.146 214.272C184.847 215.671 184.547 216.271 185.447 217.471C186.147 218.171 187.046 218.571 187.546 218.271C188.046 217.971 190.046 218.271 191.945 218.871C196.744 220.47 200.043 219.47 206.241 214.872L211.439 210.873V213.672C211.439 215.172 212.139 217.471 213.039 218.671C214.639 220.97 218.837 221.67 219.937 219.87C220.237 219.27 220.137 218.871 219.537 218.871C217.238 218.871 216.338 214.972 217.938 211.573L219.437 208.274L226.435 208.673C233.333 209.073 234.933 208.374 232.133 205.974C231.334 205.374 229.334 204.575 227.535 204.275C224.136 203.575 222.836 202.375 224.436 201.376C225.935 200.476 225.635 196.877 224.136 196.877C223.336 196.877 221.736 197.977 220.437 199.376ZM197.443 212.372C197.443 213.172 197.044 213.872 196.444 213.872C195.944 213.872 195.744 213.172 196.044 212.372C196.444 211.573 196.844 210.873 197.044 210.873C197.243 210.873 197.443 211.573 197.443 212.372Z" fill="#C21807"/>
<path d="M165.552 204.375C160.254 210.473 162.353 216.172 168.951 213.472C171.651 212.373 172.05 212.473 172.95 214.172C173.45 215.272 174.45 216.372 175.15 216.572C176.549 217.071 182.747 204.175 181.848 202.776C180.948 201.276 177.649 201.776 176.249 203.675C175.549 204.675 173.65 206.374 172.05 207.474L169.051 209.374L169.751 207.074C170.151 205.875 170.751 203.975 171.051 202.875C172.05 199.576 169.051 200.476 165.552 204.375Z" fill="#C21807"/>
<path d="M147.458 221.87C144.458 224.269 142.859 224.369 142.059 222.37C140.959 219.271 135.961 220.67 130.362 225.569C123.764 231.267 118.466 237.565 118.466 239.465C118.466 242.064 121.465 242.164 124.064 239.865L126.464 237.565V240.065C126.464 241.564 127.163 242.964 128.263 243.364C129.563 243.863 131.662 242.164 136.961 236.366C140.859 232.267 144.358 228.868 144.858 228.868C145.458 228.868 144.658 230.067 143.259 231.567C136.861 238.465 134.561 245.763 138.36 247.762C140.36 248.862 141.459 248.262 141.459 246.163C141.459 243.863 147.957 235.966 152.656 232.667C156.555 229.767 156.755 229.767 155.155 231.967C151.556 236.965 148.157 244.663 148.857 246.363C149.757 248.862 151.056 247.462 158.854 236.066C163.353 229.468 165.352 225.769 164.853 224.569C164.053 222.47 160.554 222.37 157.855 224.369C155.155 226.368 154.855 226.268 154.955 223.069C154.955 220.87 154.456 220.37 152.456 220.07C151.056 219.97 148.857 220.77 147.458 221.87Z" fill="#C21807"/>
<path d="M10.1969 231.567C8.59739 233.067 9.69707 237.965 13.396 245.463C17.5948 254.16 19.9941 257.06 24.6928 259.459C27.7919 261.059 62.8818 267.357 86.1752 270.356C99.2714 272.155 99.2714 272.155 99.8713 274.955C100.671 278.853 106.369 284.952 112.668 288.451C117.766 291.25 118.366 291.35 130.462 291.25C138.76 291.15 144.359 290.55 147.258 289.55C149.557 288.751 151.456 288.351 151.456 288.551C151.456 288.851 149.857 292.649 147.858 297.048C145.858 301.447 144.059 306.945 143.759 309.245C142.959 316.943 142.359 317.942 133.961 326.94C129.263 331.938 125.464 336.637 125.464 337.337C125.464 338.036 122.465 341.735 118.866 345.434C115.167 349.233 110.568 354.832 108.569 357.931C106.569 361.03 101.071 367.228 96.3723 371.727C88.4745 379.125 87.4748 379.725 85.1755 378.925C82.7761 378.025 81.9764 378.525 76.278 384.423C69.28 391.621 65.1812 397.819 66.2809 399.319C67.8804 401.718 72.879 404.817 75.1783 404.817C76.7779 404.817 79.877 402.418 84.9755 397.419C90.8738 391.621 92.4734 389.522 92.4734 387.222C92.4734 385.623 92.0735 383.623 91.5736 382.924C90.8738 381.824 92.9732 379.125 100.271 371.927C105.57 366.728 112.068 359.53 114.667 355.931C122.165 345.634 129.563 336.937 132.662 334.737C136.261 332.138 136.261 333.938 132.562 338.636C129.363 342.635 126.164 350.133 125.064 356.131C124.364 360.13 119.166 369.028 114.367 374.526C112.868 376.326 109.768 381.624 107.469 386.423C105.17 391.221 101.571 397.719 99.4714 400.819C97.372 404.018 95.2726 407.717 94.8727 409.216C94.4728 411.116 93.5731 411.815 91.8735 411.815C88.7744 411.815 88.8744 412.515 92.1735 416.114L94.9727 418.913L90.174 427.811C84.9755 437.608 84.3757 439.407 87.4748 437.808C89.3743 436.808 96.8721 424.912 98.8715 419.613C99.6713 417.414 99.5713 416.514 98.1717 415.014C96.4722 413.115 96.5722 412.715 101.771 404.218C104.67 399.319 108.869 391.921 111.068 387.822C113.167 383.723 116.666 378.125 118.766 375.426C122.365 370.727 134.461 346.934 134.461 344.635C134.461 344.035 135.961 340.736 137.86 337.437C139.66 334.038 141.959 329.039 142.959 326.34C144.658 321.741 145.458 320.841 154.656 314.843C160.154 311.244 168.452 304.746 172.95 300.347C189.546 284.552 190.845 283.752 199.143 285.452L202.042 286.051L198.943 292.25C195.944 298.448 193.245 302.147 184.247 312.444C178.749 318.642 177.549 320.941 174.55 330.039C173.35 333.638 171.151 338.236 169.651 340.236C168.152 342.235 164.653 346.934 161.854 350.633C154.556 360.23 147.258 371.427 143.559 378.325C141.859 381.624 138.56 386.723 136.361 389.722C134.061 392.721 130.462 398.519 128.163 402.718C122.665 413.115 120.665 415.814 118.366 415.814C115.367 415.814 116.167 418.813 119.466 420.113C121.165 420.713 122.465 421.613 122.465 422.112C122.465 424.012 114.067 439.008 112.668 439.507C111.868 439.807 109.868 439.307 108.269 438.308C105.97 437.008 104.97 436.908 104.17 437.708C102.67 439.208 106.569 442.407 110.968 443.306C113.467 443.806 114.367 443.406 116.766 440.607C121.065 435.409 126.664 425.611 127.163 422.012C127.663 419.213 127.363 418.613 125.564 418.114C124.464 417.814 123.464 417.414 123.464 417.214C123.464 416.914 125.264 414.415 127.563 411.615C129.763 408.716 132.862 403.918 134.361 400.819C140.46 388.222 152.356 369.128 158.854 361.43C162.653 357.031 166.952 350.633 168.452 347.334C169.951 344.035 171.951 340.636 172.95 339.836C173.95 339.036 176.649 334.338 178.949 329.339C181.348 324.44 184.647 319.042 186.346 317.442C188.146 315.843 190.845 311.744 192.445 308.245C195.144 302.147 207.84 286.351 209.94 286.351C213.839 286.451 226.235 288.151 227.335 288.751C228.235 289.35 227.535 290.85 224.536 294.249C221.936 297.248 220.437 299.947 220.437 301.647C220.437 303.146 218.937 306.645 217.038 309.345C210.64 318.542 205.441 327.44 205.441 329.039C205.441 329.939 202.742 333.838 199.543 337.737C196.244 341.635 193.245 345.834 192.945 346.934C192.545 348.034 189.346 353.332 185.747 358.631C182.048 363.929 177.849 371.127 176.349 374.526C173.65 380.424 173.35 380.724 170.651 380.224C168.352 379.725 167.152 380.224 164.553 382.824C160.754 386.723 157.455 392.821 157.455 396.22C157.455 401.518 166.052 403.618 171.551 399.719C173.15 398.619 175.35 395.92 176.449 393.821C178.649 389.522 179.149 382.224 177.249 381.624C175.75 381.124 179.648 374.326 185.647 367.128C188.046 364.229 190.645 360.13 191.345 358.131C192.145 356.031 194.244 352.332 195.944 349.733C197.743 347.234 200.143 343.335 201.342 341.136C202.442 338.836 205.141 335.637 207.34 333.938C211.839 330.339 219.437 318.642 223.136 309.645C224.536 306.146 227.835 300.847 230.534 297.748C233.233 294.649 235.432 291.55 235.432 290.85C235.432 289.45 238.831 289.85 260.425 293.549C268.423 294.849 282.319 297.048 291.416 298.348C300.514 299.647 312.31 301.647 317.709 302.747C330.505 305.446 347.3 305.746 350.899 303.446C355.798 300.247 354.698 299.947 332.905 297.948C327.406 297.448 319.708 296.348 315.809 295.449C311.911 294.649 302.013 292.949 293.816 291.85C285.618 290.65 274.021 288.851 267.923 287.851C252.628 285.152 222.236 281.153 207.94 279.853C187.146 278.054 154.756 273.855 133.462 270.356C122.165 268.456 104.17 265.757 93.4731 264.358C60.3826 260.059 30.2912 254.76 26.8921 252.761C24.9927 251.561 22.4934 248.462 20.494 244.663C13.8959 232.167 11.9964 229.767 10.1969 231.567ZM146.458 279.853C146.458 280.353 146.258 280.853 146.058 280.853C145.858 280.853 144.958 281.153 144.159 281.453C143.359 281.753 142.459 281.253 142.159 280.453C141.659 279.253 142.159 278.853 143.959 278.853C145.358 278.853 146.458 279.253 146.458 279.853ZM175.25 282.952C179.249 283.452 183.047 283.852 183.647 283.852C184.247 283.852 182.148 285.552 178.849 287.751C175.65 289.85 167.152 297.248 160.054 304.246C153.056 311.244 147.058 316.743 146.758 316.543C146.258 316.043 149.657 307.345 152.856 301.047C154.256 298.348 155.755 293.349 156.455 289.75C157.055 286.251 157.755 282.752 157.955 282.152C158.355 280.853 159.054 280.853 175.25 282.952ZM85.8753 384.123C89.5742 387.122 89.0743 388.622 81.6765 396.72L75.8781 403.118L72.5791 400.219L69.38 397.32L71.8793 394.32C73.3788 392.621 76.178 389.222 78.2774 386.623C80.2769 384.023 82.1763 381.924 82.4762 381.824C82.7761 381.824 84.2757 382.824 85.8753 384.123ZM173.95 388.222C173.55 389.922 172.45 393.221 171.451 395.52L169.651 399.619L165.552 398.619C163.253 398.019 161.554 397.22 161.654 396.82C161.854 396.42 163.253 393.421 164.853 390.222C167.552 384.423 167.752 384.223 171.151 384.623C174.35 385.023 174.55 385.223 173.95 388.222Z" fill="#C21807"/>
<path d="M206.64 235.566C207.04 237.765 210.939 238.065 210.939 235.866C210.939 235.066 209.84 234.266 208.64 234.067C206.74 233.767 206.341 234.067 206.64 235.566Z" fill="#C21807"/>
<path d="M234.033 241.365C230.834 244.364 227.735 246.563 227.035 246.263C224.536 245.363 218.637 248.562 216.938 251.762C215.838 253.961 214.638 254.861 212.939 254.861C209.94 254.861 208.74 253.061 211.139 252.161C215.838 250.562 218.137 245.763 214.938 244.464C212.839 243.664 210.44 244.664 207.241 247.663C201.442 252.961 205.041 259.659 212.739 257.96C214.738 257.46 216.438 257.46 216.438 257.86C216.438 259.859 220.637 259.959 223.636 258.06L226.735 256.06L229.134 258.96C231.534 261.759 234.433 262.558 237.832 261.259C239.131 260.759 238.832 260.159 236.432 257.86C233.733 255.361 233.533 254.761 234.533 252.161C235.133 250.662 237.332 247.063 239.531 244.264C246.929 234.666 243.13 232.567 234.033 241.365Z" fill="#C21807"/>
<path d="M163.754 238.465C160.055 240.264 157.455 245.263 159.355 247.162C160.854 248.662 171.551 248.962 173.151 247.662C174.051 246.962 174.95 247.262 176.35 248.962C178.349 251.461 177.95 251.461 184.648 248.062C184.948 247.862 185.047 248.562 184.848 249.662C184.048 252.661 187.047 254.46 190.546 253.161C193.045 252.161 193.645 252.261 194.445 253.96C195.644 256.16 199.943 256.66 199.143 254.46C198.844 253.66 199.843 251.361 201.443 249.162C207.441 241.264 203.942 239.165 196.644 246.362C190.746 252.261 188.447 252.561 192.245 247.062C195.045 243.063 195.445 241.164 194.045 239.964C193.045 239.065 191.646 239.964 188.247 243.363C185.747 245.863 183.048 247.862 182.148 247.862C180.749 247.862 180.749 247.562 182.148 244.863C185.247 238.665 181.349 236.265 175.55 240.764C171.651 243.863 169.852 244.663 170.952 242.863C171.651 241.764 168.952 236.865 167.652 236.865C167.253 236.865 165.553 237.565 163.754 238.465Z" fill="#C21807"/>
<path d="M83.6765 416.014C81.1772 419.213 76.4785 428.11 76.4785 429.81C76.4785 431.509 81.677 436.808 83.4765 436.808C85.6759 436.808 85.4759 434.408 82.9767 431.809L80.2774 429.01L82.8767 424.911C85.7759 420.312 87.3754 414.814 85.6759 414.814C85.176 414.814 84.2763 415.414 83.6765 416.014Z" fill="#C21807"/>
<path d="M110.868 423.312C109.269 427.211 109.069 428.811 110.268 428.811C111.368 428.811 114.467 423.312 114.467 421.413C114.467 418.613 112.368 419.713 110.868 423.312Z" fill="#C21807"/>
</svg>
