<svg width="137" height="149" viewBox="0 0 137 149" fill="none" xmlns="http://www.w3.org/2000/svg">
<path d="M5.46607 14.1712C-0.966126 27.0356 -1.28774 29.9301 2.24997 43.7593C4.50124 52.4427 6.10929 70.7745 5.46607 84.9253C4.50124 117.408 9.32538 125.448 34.0893 134.775C44.0592 138.313 52.7427 140.885 53.3859 139.921C54.3507 138.956 48.8834 129.307 41.4864 118.051C28.622 98.7545 28.3004 97.4681 30.23 79.458C32.1597 63.0559 31.1948 58.5533 22.1898 38.6135C14.7927 22.8547 12.2199 13.528 13.8279 8.06061C17.044 -4.80377 13.1847 -1.90929 5.46607 14.1712ZM21.5466 80.1012C21.2249 97.4681 22.5114 110.332 25.0843 115.157C27.6571 119.659 27.9787 121.91 25.7275 120.624C16.0792 114.513 11.8983 98.4329 13.8279 76.5635C15.7576 59.8398 14.7927 52.4427 10.9334 44.0809L5.78768 33.4678L14.1495 43.1161C21.5466 52.1211 22.1898 55.0156 21.5466 80.1012Z" fill="#C21807"/>
<path d="M122.854 56.6243C117.387 70.4535 111.276 87.1772 109.668 93.931C107.738 100.363 102.593 110.333 98.0901 115.8C90.3715 124.806 87.1554 140.564 91.6579 145.389C94.874 148.605 125.105 121.911 128.965 112.584C133.789 101.006 138.613 41.8302 135.397 36.0412C133.467 32.8251 129.929 38.6141 122.854 56.6243ZM128.321 83.9611C123.819 108.082 119.316 117.087 106.13 129.63C91.9795 143.137 92.9444 132.846 107.417 115.479C114.814 106.795 118.673 98.7551 118.673 92.6446C118.673 81.7098 127.357 58.8755 130.251 61.77C131.538 63.0564 130.573 73.0264 128.321 83.9611Z" fill="#C21807"/>
<path d="M71.0749 52.4445C67.2155 57.5902 61.4266 60.8063 56.6024 60.8063C44.0596 60.8063 40.5219 67.8817 43.0948 87.1783C45.6677 107.118 49.2054 112.264 59.4969 112.264C66.5723 112.264 67.2155 113.55 67.2155 127.38C67.2155 136.063 68.8236 145.068 70.4316 147.641C72.6829 150.857 73.6477 145.39 73.6477 128.988V105.832L82.3312 107.761C92.6227 110.656 100.985 101.651 96.1604 92.9673C93.9091 88.7864 94.5524 86.2135 97.7685 83.319C104.522 77.53 103.879 71.0978 95.8388 68.8466C90.6931 67.2385 89.7282 64.344 90.3714 56.6254C91.0147 48.2635 90.0498 46.0123 84.5825 45.3691C80.0799 44.7258 75.2558 47.2987 71.0749 52.4445ZM86.1905 70.4546C87.7986 70.4546 88.7634 77.2084 88.4418 85.5703L88.1202 100.686H69.1452L49.8486 101.008V83.6406C49.527 66.5953 49.8486 66.2737 58.5321 65.9521C63.9994 65.6305 69.1452 62.736 71.0749 59.5199C74.291 53.7309 74.9342 54.0525 79.1151 61.7711C81.3664 66.5953 84.5825 70.4546 86.1905 70.4546Z" fill="#C21807"/>
<path d="M68.18 72.7056C65.9288 73.6704 63.9991 78.4945 63.9991 83.6402C63.9991 91.3588 65.2856 92.9668 71.7177 92.9668C78.4714 92.9668 83.2955 87.8211 83.2955 80.1026C83.2955 75.9217 72.6825 71.0976 68.18 72.7056ZM75.2553 86.5347C76.2202 88.1427 75.577 89.7507 73.9689 89.7507C72.0393 89.7507 70.4313 88.1427 70.4313 86.5347C70.4313 84.605 71.0745 83.3186 71.7177 83.3186C72.6825 83.3186 74.2905 84.605 75.2553 86.5347Z" fill="#C21807"/>
</svg>
