<svg width="96" height="72" viewBox="0 0 96 72" fill="none" xmlns="http://www.w3.org/2000/svg">
<path d="M60.847 0.248848C58.8902 0.530758 57.7294 0.779503 55.7062 1.32674C53.0695 2.03981 51.7263 2.25539 44.264 3.06795C40.4831 3.48252 37.3157 3.84735 37.2162 3.88052C36.9012 4.01318 37.7137 3.98001 39.0404 3.81418C39.77 3.73127 42.158 3.49911 44.3469 3.3167C50.7811 2.76946 52.4394 2.52071 56.0545 1.6584C58.8736 0.961916 59.8851 0.796085 61.8917 0.663422L64.3294 0.514175L65.6892 1.4594C66.9163 2.30514 71.7917 6.83228 71.7917 7.13078C71.7917 7.19711 71.2113 7.2966 70.5148 7.36294C68.8399 7.51218 63.9645 8.42425 63.7656 8.62324C63.351 9.02123 64.346 8.92173 66.2696 8.3745C67.9776 7.87701 68.757 7.74434 70.2992 7.6946L72.2063 7.61168L72.9359 8.65641C74.6108 11.0112 75.2907 11.8901 75.7716 12.2383C76.0369 12.4539 76.2691 12.6695 76.2691 12.7524C76.2691 12.968 73.8812 13.4323 66.8334 14.5599C64.6942 14.9082 64.1801 15.2564 65.8053 15.2564C67.0821 15.2564 72.3224 14.5434 75.1746 13.9961C76.7998 13.681 77.4133 13.6147 77.6289 13.7474C78.0269 13.9961 78.0932 13.9795 78.0932 13.6313C78.0932 13.4157 78.342 13.2333 78.9224 13.0343C79.3867 12.8685 79.8013 12.769 79.8676 12.8187C79.9173 12.8685 79.9837 14.1619 80.0334 15.7042C80.1163 18.1916 80.0832 18.6559 79.7515 19.9826C79.3038 21.873 79.0716 25.6208 79.4364 25.5047C79.6189 25.4384 79.7018 24.8745 79.7681 23.0338C79.8344 21.7238 79.9671 20.2313 80.05 19.7007C80.3153 18.3077 80.4977 11.9398 80.2988 11.9398C80.1993 11.9398 79.4033 12.1222 78.5078 12.3544L76.9158 12.769L76.4349 12.4042C75.7882 11.8901 72.9525 8.20867 72.9525 7.89359C72.9525 7.86042 73.1515 7.87701 73.3837 7.92676C74.0967 8.05942 73.7817 7.57851 73.0188 7.36294C72.5214 7.23027 71.9409 6.76595 70.548 5.37298C69.553 4.36142 67.762 2.73629 66.5681 1.77448L64.4289 0.000104904L63.3344 0.0166874C62.7374 0.0332699 61.6264 0.132769 60.847 0.248848Z" fill="#C21807"/>
<path d="M36.188 4.09622C36.3373 4.12939 36.5694 4.12939 36.6855 4.09622C36.785 4.04647 36.6689 4.0133 36.387 4.0133C36.1217 4.0133 36.0222 4.04647 36.188 4.09622Z" fill="#C21807"/>
<path d="M35.1102 4.26175C35.2097 4.29491 35.4087 4.29491 35.5248 4.26175C35.6243 4.212 35.5414 4.17883 35.3092 4.17883C35.077 4.17883 34.9941 4.212 35.1102 4.26175Z" fill="#C21807"/>
<path d="M32.9875 4.49393C32.49 4.57685 30.8483 4.82559 29.3392 5.05775C27.8302 5.3065 26.4538 5.55524 26.2714 5.62157C25.9397 5.77082 25.9397 5.77082 26.2548 5.90348C26.5367 6.00298 32.7719 4.87534 34.1483 4.46076C34.7287 4.29493 34.1649 4.31152 32.9875 4.49393Z" fill="#C21807"/>
<path d="M57.2815 4.59351C55.4574 4.72617 54.7444 4.95834 54.164 5.63824C52.8207 7.21362 52.97 7.6282 54.9102 7.6282C55.9715 7.6282 56.1539 7.67794 56.3529 7.97644C56.6514 8.47392 56.3695 8.62317 55.0926 8.62317C54.1308 8.62317 54.0479 8.59 53.8157 8.15885C53.5504 7.66136 53.0861 7.36287 52.2901 7.2302C52.0248 7.19704 51.378 6.88196 50.8805 6.53372C49.8026 5.80407 48.2273 5.05784 47.1825 4.79251C46.6021 4.64326 46.171 4.65984 45.3087 4.80909C43.4845 5.14075 43.1529 5.33974 42.9373 6.15231C42.7051 6.98146 42.8212 7.9101 43.1695 8.27493C43.385 8.49051 43.7167 8.47392 45.9554 8.22518C47.3484 8.05935 48.675 7.95985 48.9072 7.99302C49.3051 8.05935 49.3051 8.07594 48.7413 8.34126C48.4263 8.49051 48.2273 8.60659 48.3102 8.62317C48.6087 8.62317 49.7363 8.24176 49.7363 8.12568C49.7363 8.05935 49.9685 7.95985 50.2338 7.92669C50.8805 7.82719 50.8639 7.97644 50.1509 8.60659C49.4544 9.20358 46.5192 10.1986 45.5077 10.1488C44.5956 10.1156 42.6056 10.5634 41.1629 11.1106C39.6705 11.691 35.1433 14.0624 35.1433 14.278C35.1433 14.5267 35.3091 14.4604 36.8845 13.5151C38.8745 12.3378 40.4499 11.5749 41.7765 11.1438C43.1363 10.7126 44.3634 10.5302 44.4961 10.7458C44.5458 10.8287 44.6785 12.0558 44.7946 13.4488C45.0102 16.2016 45.1428 16.5664 46.0549 16.6162C46.3036 16.6162 45.8393 16.6825 45.0102 16.7488C43.7333 16.8317 43.2855 16.9644 41.8428 17.6111L40.1679 18.3574L39.6705 17.893C39.3885 17.6443 38.6423 17.1468 38.0122 16.782C37.3986 16.4172 36.3704 15.7207 35.7237 15.2564C35.0936 14.7754 34.3805 14.3111 34.1483 14.2116C33.9162 14.0955 33.3855 13.7473 32.9544 13.3991C32.5066 13.0674 31.7106 12.5202 31.1634 12.1885C29.8202 11.3759 27.3659 8.73925 26.0227 6.66638C25.7242 6.18548 25.3759 5.80407 25.2599 5.80407C24.895 5.80407 24.8121 7.76086 25.0277 11.6247C25.3594 17.9096 25.4754 18.5564 25.5252 14.3443C25.5418 12.3378 25.6081 9.96639 25.6744 9.07091L25.7739 7.44578L26.6528 8.65634C28.079 10.6463 29.8368 12.3709 30.2845 12.2051C30.6659 12.0558 31.976 12.8187 33.2363 13.9131C35.9227 16.2347 37.7302 17.4951 38.6091 17.6277C38.8081 17.6609 39.1398 17.8599 39.3554 18.0589C39.7368 18.4237 39.7534 18.49 39.5378 18.8051C39.3388 19.0704 39.289 19.7172 39.289 21.591V24.0287L38.2609 23.5478C37.6805 23.2659 37.0006 23.0503 36.7519 23.0503C36.4865 23.0503 36.1383 22.9674 35.9725 22.8845C35.79 22.785 35.1433 22.6855 34.5297 22.6524C33.0539 22.5694 26.2383 21.6574 26.1056 21.5247C26.0558 21.475 25.9066 20.6624 25.7739 19.7172L25.5418 17.9925L25.6247 19.7835L25.7242 21.591L24.9282 21.475C21.794 21.0604 19.7543 20.6458 17.9965 20.0654C16.8689 19.7006 15.7413 19.4021 15.4759 19.4021C14.5804 19.4187 13.7513 20.3971 12.8392 22.5529C12.5076 23.3323 11.7945 24.8413 11.2473 25.9026C10.7166 26.9639 10.2689 27.8926 10.2689 27.9755C10.2689 28.274 12.2257 24.6589 12.889 23.1333C14.1161 20.281 14.6634 19.5679 15.592 19.5679C15.8242 19.5679 16.8357 19.8664 17.8307 20.2478C19.1242 20.7121 20.5171 21.0604 22.7061 21.4584L25.7739 21.989L25.9895 23.6473C26.2714 25.7699 26.3212 26.0353 26.5202 26.0353C26.7523 26.0353 26.7192 25.3554 26.4207 23.6473C26.288 22.8513 26.1885 22.1549 26.2217 22.1383C26.2548 22.1051 27.2498 22.2212 28.4272 22.387C29.6212 22.5529 31.1634 22.7353 31.8765 22.8016L33.1534 22.9177L32.4569 23.3654C31.6443 23.8795 30.6991 24.974 30.1518 26.0353C29.8699 26.5659 29.7538 27.1795 29.6544 28.5393C29.5051 30.579 29.7041 34.2604 29.986 34.5423C30.2016 34.7579 30.2348 36.4162 30.0358 36.5489C29.9528 36.5986 29.4388 36.6981 28.875 36.7976C28.2945 36.8971 27.7141 37.0961 27.5151 37.2785C27.3327 37.4444 26.3046 37.8589 25.2267 38.1906C24.1654 38.5057 22.0262 39.1524 20.484 39.6333C16.8357 40.7278 13.4362 42.4192 12.6734 43.4805C12.292 44.0278 12.3583 44.8735 12.7895 45.172C13.5689 45.7192 18.0131 45.4373 19.4724 44.7409C19.8372 44.575 19.9865 44.4755 19.8041 44.5419C18.693 44.8735 17.0679 45.1223 15.4096 45.2052C13.2206 45.3047 12.7066 45.1554 12.6237 44.376C12.4744 43.0826 16.4709 40.9765 22.1257 39.3846C25.4754 38.4393 27.2996 37.8092 27.7473 37.4609C27.9629 37.2951 28.2116 37.1459 28.2945 37.1459C28.3609 37.1459 28.4272 37.5438 28.4272 38.0248C28.4272 38.6715 28.5433 39.1358 28.8584 39.7328C29.1071 40.1805 29.3559 40.8439 29.4222 41.2087C29.4885 41.5735 29.6046 41.9549 29.6875 42.0544C29.8036 42.1871 29.7207 42.2866 29.4554 42.3529C29.1403 42.4192 28.9247 42.7675 28.4272 43.9449C27.4488 46.3328 27.1835 47.3775 27.084 49.2514C26.9182 52.0539 27.1503 53.1152 28.4272 55.6856C29.0408 56.8962 29.5217 57.9077 29.4885 57.9409C29.4554 57.9575 29.0076 58.173 28.4935 58.4218C27.482 58.9027 26.7689 58.9856 26.3212 58.6374C25.8403 58.2725 25.2267 56.8464 24.9614 55.4534C24.8287 54.7072 24.58 53.7951 24.4307 53.4137C24.0493 52.4519 24.1986 50.5615 24.779 48.9198C25.2267 47.676 27.5815 42.7841 28.5267 41.1755C28.8086 40.678 28.9413 40.28 28.8584 40.2137C28.676 40.1142 28.2282 40.7775 27.3659 42.3861C27.0508 42.9831 26.2714 43.978 25.5086 44.7409C24.7955 45.4871 24.1986 46.1836 24.1986 46.3162C24.1986 46.4323 23.9664 46.7474 23.6845 47.0293C22.8222 47.8253 21.5287 49.4338 21.6282 49.5831C21.7609 49.7821 20.3347 52.7007 19.5222 53.8946C19.1076 54.4916 18.5769 55.3208 18.3282 55.7519L17.8805 56.5313L17.2669 56.3158C16.9352 56.1997 16.0232 56.0007 15.2438 55.9012C13.1543 55.5861 12.0267 55.3208 10.186 54.674C9.2739 54.3424 7.43319 53.8283 6.08997 53.4967C2.5578 52.6509 1.23117 51.9876 1.04876 50.9263C0.800012 49.467 0.700514 49.3343 0.717097 50.5283L0.73368 51.7057L1.81157 52.2861C3.20454 53.0323 4.29901 53.3972 7.36686 54.1102C8.74325 54.4419 10.385 54.9228 11.0151 55.2047C11.7945 55.5198 12.8061 55.7851 14.0166 55.9509C15.5588 56.1665 16.2222 56.3323 17.5156 56.7967C17.6649 56.8464 17.6317 57.0454 17.4161 57.5761C16.985 58.5379 16.8523 60.1962 17.0679 61.6057C17.1674 62.2359 17.2835 63.1645 17.3498 63.662C17.4493 64.5409 17.4493 64.5575 17.0513 64.4746C14.8955 64.0102 10.3684 62.7002 8.89249 62.1032C6.60404 61.1746 6.20605 61.1414 8.19601 62.0535C9.80455 62.7831 15.7247 64.7896 16.8191 64.9886C17.4659 65.0881 17.4825 65.1213 17.5654 65.8344C17.6151 66.2489 17.698 66.4977 17.7644 66.3982C18.0131 66.0168 17.9302 64.7233 17.5654 62.9489C17.0347 60.3786 17.1342 58.6705 17.9468 56.9791C18.2619 56.2992 18.892 55.2047 19.3398 54.5248C20.5503 52.7504 22.3579 49.6494 22.8719 48.5052C23.1207 47.9414 23.5187 47.361 23.7674 47.2117C23.9996 47.0459 24.3478 46.6313 24.5302 46.2831C24.8287 45.6695 26.0558 44.575 25.8071 45.1223C24.2317 48.7042 23.6016 51.7886 24.1156 53.4967C24.1986 53.7454 24.0991 53.9941 23.8006 54.3258C23.5684 54.5911 23.3694 54.7072 23.3694 54.5911C23.3694 54.2097 23.0709 54.3921 22.8553 54.9228C22.7393 55.2213 22.5403 55.6359 22.4076 55.8514C22.2749 56.067 22.1423 56.465 22.1257 56.7635C22.1091 57.062 21.9764 58.0072 21.8272 58.8695C21.5121 60.6439 21.4458 64.9721 21.7277 66.1494C21.8106 66.5474 21.8438 66.9123 21.794 66.962C21.6779 67.0781 18.892 66.6801 18.5106 66.4811C18.2287 66.3153 17.897 66.3982 18.096 66.5806C18.2121 66.7133 21.396 67.3434 22.2915 67.4098C23.386 67.4927 25.2101 68.1062 27.9961 69.3002C30.9312 70.5605 31.7106 70.7927 33.8167 70.9751C34.7785 71.058 36.0056 71.257 36.5529 71.3897C37.6805 71.6882 40.3338 71.9701 40.8147 71.8374C41.0137 71.7877 41.0966 71.6716 41.0303 71.5057C40.9805 71.3565 41.3122 70.2289 41.7599 69.0017C42.2242 67.758 43.2026 65.1047 43.9323 63.1148C44.6785 61.1082 45.6237 58.8032 46.0217 57.9906C46.5026 57.062 46.7514 56.3489 46.7182 56.0836C46.6685 55.6856 46.6187 55.7354 46.4363 56.3821C46.3202 56.7967 46.0217 57.4931 45.773 57.9575C45.2423 58.9027 44.0815 61.7881 43.0036 64.8228C41.9257 67.8409 40.7318 70.8093 40.5825 70.8093C40.5162 70.8093 40.4499 70.6268 40.4499 70.4278C40.4499 70.2123 40.3006 69.3168 40.1182 68.4213C39.9192 67.4595 39.77 66.166 39.77 65.1711C39.77 63.7283 39.8197 63.3967 40.2674 62.269C40.5494 61.5726 40.9308 60.4117 41.1132 59.6987C41.2956 58.969 41.6604 57.8248 41.9257 57.1615C42.1745 56.4816 42.4896 55.4203 42.6056 54.7901C42.7217 54.16 43.0202 53.0489 43.2855 52.3193C43.8659 50.6444 45.1926 47.6926 45.3916 47.6263C45.6237 47.56 47.7298 49.0358 48.6252 49.8981C49.073 50.3127 49.6202 50.976 49.8524 51.3575C50.3167 52.1534 50.383 52.1368 51.3946 51.2248L51.975 50.7107L52.0745 56.9791L52.1574 63.264L52.6052 64.4912C52.8539 65.1711 53.2519 66.0499 53.5006 66.4479C54.4127 67.9072 54.5454 68.2389 54.5454 69.1012C54.5454 69.8309 54.6117 69.9967 54.9102 70.1625C55.3745 70.4113 60.4489 70.262 63.5831 69.8972C64.777 69.7645 66.9328 69.6485 68.3921 69.6485C72.3057 69.6485 75.357 69.4163 81.7414 68.6369C83.2505 68.4545 86.3349 68.2223 88.6233 68.1062L92.7525 67.9072L92.8686 67.3268C92.9349 67.0118 93.0676 65.4032 93.1671 63.7615C93.2666 62.1198 93.4324 60.4781 93.5153 60.1133C93.7972 58.9193 93.6811 58.571 93.3495 59.6158C92.9681 60.7434 92.3545 65.0716 92.3545 66.4977V67.4429L88.5902 67.5424C85.6881 67.6253 84.2289 67.7414 82.3218 68.0731C78.1595 68.7696 73.8645 69.151 69.5529 69.2173C67.165 69.2505 64.6775 69.3831 63.3343 69.5655C61.56 69.7811 60.4655 69.8143 58.0775 69.7314L55.0429 69.6153V69.0515C55.0429 68.6535 55.1258 68.4876 55.2916 68.4876C55.6233 68.4876 55.6067 68.2886 55.2418 67.8907C55.0097 67.6419 54.877 66.9786 54.6614 64.8394C54.2966 61.4067 54.2966 58.4384 54.6449 55.5032C54.8439 53.8117 54.877 53.165 54.7278 53.0157C54.4293 52.7173 54.3629 52.9328 54.1805 54.7404C54.0147 56.4484 54.0976 63.6288 54.3132 65.8344C54.4293 66.9123 54.4293 66.9123 54.0976 66.6138C53.8986 66.4479 53.5338 65.851 53.2851 65.2871L52.8042 64.259L52.7544 57.0952C52.7212 52.17 52.7544 49.8152 52.8871 49.5831C53.0197 49.3343 53.0031 49.1519 52.8539 48.87C52.7212 48.6047 52.6549 47.3775 52.6715 44.6082L52.6881 40.6946L53.3846 39.0695C53.766 38.174 54.2137 36.8971 54.3961 36.2504L54.7112 35.073L54.6449 38.4725C54.5619 41.6067 54.3961 43.0826 53.7991 45.769C53.683 46.2831 53.8489 46.5152 54.3795 46.6645L54.7941 46.7806L54.4293 46.4986C54.1308 46.2831 54.0976 46.167 54.2137 45.9182C54.3132 45.7524 54.4956 44.8735 54.6283 43.9946C54.877 42.2534 55.5403 33.8293 55.5403 32.2539V31.3087L63.5997 31.3584L71.659 31.4247L71.8745 31.8393C72.2394 32.5855 72.9359 34.874 73.1846 36.184C73.3173 36.8805 73.7816 38.2569 74.2127 39.2519C74.6439 40.2303 75.1746 41.5569 75.3901 42.2037L75.7881 43.3645L75.7052 42.5022C75.6555 42.0378 75.4067 41.2253 75.1248 40.678C74.4947 39.4011 72.3057 32.4695 72.2062 31.4247C72.1896 31.2423 72.0901 30.9107 71.9906 30.6785C71.8911 30.4463 71.5595 29.4845 71.2444 28.5393C70.9459 27.5775 70.6142 26.7815 70.4982 26.7318C70.1831 26.6323 70.2494 27.0634 70.863 28.8875C71.1781 29.8328 71.46 30.6951 71.4931 30.8278C71.5263 31.0102 71.3605 31.0599 70.7137 31.0267C70.266 31.0102 66.6509 30.9272 62.6876 30.8443C56.2037 30.7117 55.4906 30.6619 55.2916 30.4132C55.1092 30.1479 55.076 30.1479 54.9102 30.4463C54.678 30.8775 54.5951 30.6122 54.4956 29.0202L54.4127 27.7599L58.4092 27.5609C60.7474 27.4448 63.5997 27.1795 65.2414 26.9473C67.4967 26.6157 68.9559 26.5162 72.5047 26.4333L76.9324 26.3504L77.0982 26.7649C77.5625 28.0086 77.1148 40.9931 76.4846 44.1439C76.3851 44.6248 76.3685 44.6414 76.1364 44.3429C75.9042 44.0444 75.9042 44.0444 76.0037 44.4424C76.0535 44.6745 76.1032 45.2549 76.1032 45.7192C76.1032 46.7142 76.3354 46.8635 76.667 46.0509C77.3303 44.4921 77.7117 39.8655 77.861 31.6403L77.9605 26.4498L78.5575 26.4001C79.254 26.3504 80.6635 26.1845 84.4776 25.7202C87.2469 25.372 91.8902 25.0071 92.0063 25.1232C92.1389 25.2725 92.9681 28.6885 92.8851 28.7715C92.8354 28.8212 92.5701 28.8544 92.2882 28.8544C92.0063 28.8544 91.26 28.9705 90.6133 29.1197C88.756 29.5343 87.2469 29.6669 82.753 29.8494C80.4314 29.9489 78.4911 30.0649 78.4414 30.0981C78.1761 30.38 79.0052 30.5293 81.4097 30.6122C84.8258 30.7448 87.5952 30.4961 89.154 29.9654C90.7625 29.4016 94.2118 29.1695 94.6761 29.6006C95.6048 30.4463 95.7872 33.5308 95.1736 38.7047C94.8585 41.4077 94.3279 45.1223 94.2449 45.2383C94.0957 45.4705 85.7876 46.3991 85.6052 46.2167C85.5886 46.1836 85.2238 45.4373 84.8092 44.5419C84.3947 43.663 83.9469 42.9001 83.7977 42.8338C83.4329 42.7011 82.3384 43.4971 80.6801 45.0891C79.4364 46.2996 79.1047 46.7308 78.5575 47.9248L77.8942 49.3177L78.2424 49.6162C78.4414 49.7655 79.0218 49.9811 79.5525 50.0806C81.0615 50.3791 82.4047 50.777 82.4047 50.9263C82.4047 50.9926 82.1228 51.0755 81.7912 51.1087C81.0615 51.175 80.8293 51.573 81.5258 51.573C81.7746 51.573 82.2389 51.5067 82.554 51.4072C83.6816 51.0921 84.6766 51.9379 87.363 55.5529L89.0379 57.7916V59.4831V61.1746L88.3414 60.8927C87.9766 60.7434 87.1972 60.1962 86.65 59.6821C86.0861 59.1846 85.1907 58.4384 84.6434 58.0404C82.7032 56.6308 79.7017 53.4137 77.7615 50.6941C77.463 50.263 77.1313 49.9147 77.0318 49.9147C76.7997 49.9147 76.269 50.7936 75.0419 53.2147C73.1846 56.8464 72.4218 57.8911 71.1615 58.5876C70.2494 59.0851 68.1434 59.6158 66.4353 59.7982L65.3243 59.8977L65.6228 59.1846C65.7886 58.7866 66.0705 57.9409 66.2363 57.3107C66.6675 55.6524 66.767 55.5529 72.7534 50.9263C74.3122 49.6992 75.6057 48.6378 75.6057 48.5715C75.6057 48.4057 75.3736 48.3891 73.6489 48.4223C72.6374 48.4389 72.3223 48.3725 71.7419 48.0409C70.8962 47.5434 67.9776 44.5916 67.9776 44.2434C67.9776 43.8785 69.9841 41.1092 70.1997 41.1589C70.4484 41.2253 73.8645 44.8403 75.0751 46.2996C75.5891 46.9298 76.07 47.4273 76.1364 47.4273C76.7002 47.4273 75.4067 45.7192 73.6158 44.0941C72.8695 43.4308 71.8745 42.3363 71.4268 41.673C70.8962 40.9102 70.4816 40.4624 70.2826 40.4624C69.9509 40.4624 68.7238 41.8554 67.8449 43.2318C67.1982 44.2434 67.2147 44.376 68.2429 45.769C68.6409 46.3162 68.9559 46.764 68.9228 46.764C68.8233 46.7806 64.0142 46.8966 61.9248 46.9464L59.6032 46.9961L62.0906 47.0956C63.467 47.162 65.6725 47.2283 66.9992 47.2449C69.3871 47.2615 69.4203 47.2615 69.8183 47.6926C70.4152 48.3559 71.4102 48.7373 72.5379 48.7705C74.4615 48.8037 74.4781 48.8866 72.9359 49.9811C70.8962 51.4569 67.5961 54.1268 67.0821 54.7238C66.4519 55.4866 66.1368 56.1333 65.8052 57.4268C65.6394 58.057 65.3243 58.8529 65.0921 59.2178C64.86 59.566 64.661 59.9308 64.661 60.0303C64.661 60.3952 65.6394 60.5942 67.6459 60.5942C69.4866 60.6107 69.8017 60.561 70.3987 60.2459C71.2941 59.765 72.1896 58.7203 73.7484 56.3821L75.0253 54.475L75.1414 55.9675C75.357 58.455 75.2243 58.9524 72.4384 65.8841C71.4268 68.4379 71.3605 68.6535 71.6258 68.6535C71.9575 68.6535 74.362 63.0816 75.0751 60.6107C75.4896 59.2344 75.8545 55.6856 75.7218 54.4253C75.6389 53.5961 75.6886 53.4137 76.3188 52.2198C76.7002 51.5067 77.065 50.9097 77.1148 50.9097C77.3635 50.9097 77.3801 51.5399 77.264 55.5529C77.1313 59.6987 77.2806 67.1278 77.5127 67.6917C77.5791 67.8575 77.6786 67.957 77.7449 67.9238C77.7947 67.8907 77.8776 64.3917 77.9107 60.163C77.9439 55.9509 78.0102 52.4519 78.0434 52.4022C78.0932 52.3524 78.1761 52.4188 78.2092 52.5183C78.3916 53.0157 80.7962 56.067 81.36 56.4982C81.7082 56.7801 82.7695 57.46 83.7314 58.0404C84.6766 58.6042 86.0032 59.566 86.65 60.1796C87.9766 61.4233 88.8555 61.954 89.2867 61.7881C89.5354 61.7052 89.5686 61.4731 89.5188 59.7318C89.4359 57.4434 89.3364 57.1947 87.4791 54.757C86.1856 53.0655 85.5886 52.4519 84.4444 51.6228L83.7479 51.1253L84.3283 50.86C84.7927 50.6278 85.0414 50.6112 85.6716 50.7439C86.7495 50.9926 91.4258 51.258 92.4706 51.1253L93.3495 51.0258L93.3661 51.5896C93.3661 51.9047 93.4656 53.4635 93.5816 55.0555L93.7972 57.9575L93.847 54.8896C93.8635 53.1982 93.9133 51.1419 93.9299 50.3293C93.9962 48.5881 94.4439 45.9182 94.7093 45.7524C94.8088 45.6861 94.8419 45.5203 94.7922 45.371C94.7259 45.2218 94.8254 44.1107 95.0078 42.9001C95.953 36.4825 96.152 32.4031 95.6213 30.6619C95.3063 29.6006 94.9912 29.2524 94.1786 29.1031C93.6148 29.0036 93.5982 28.9705 93.2002 27.5609C92.6862 25.6373 92.2882 24.7584 91.8902 24.6423C91.2269 24.4267 83.5987 25.1398 81.4927 25.6207C80.9454 25.7368 79.8841 25.9026 79.1545 25.9524L77.8112 26.0684L77.6952 25.6373C77.5625 25.1066 77.3303 25.0735 77.1977 25.6041L77.0982 26.0021L72.3389 26.085C68.3921 26.1514 67.165 26.2343 65.3243 26.5493C63.4172 26.8644 62.4554 26.9308 58.7408 26.9473L54.3961 26.9639L54.2966 26.2177C54.1308 25.0071 54.0479 24.7086 53.8655 24.7086C53.683 24.7086 53.766 25.8197 53.9981 26.5991C54.0645 26.8313 54.0147 26.8976 53.8157 26.8147C53.5006 26.6986 53.4675 26.9971 53.7162 27.8428C53.8986 28.5227 53.8986 28.5393 53.4343 28.4232C53.2353 28.3735 53.0363 28.1413 52.9866 27.9257C52.8705 27.4946 52.5554 27.3785 52.5554 27.7765C52.5554 27.9091 52.4891 28.0252 52.4227 28.0252C52.2901 28.0252 49.3549 26.8644 48.0117 26.3006C47.5474 26.085 47.3981 26.0684 47.4479 26.2343C47.5474 26.4996 48.8242 27.1463 50.8474 27.9589L52.3896 28.5559V30.3137C52.3896 31.8559 52.3232 32.2207 51.8755 33.481C51.577 34.2604 51.3283 34.9237 51.3117 34.9569C51.2785 34.9901 51.0132 35.0398 50.6981 35.0896C47.5805 35.5207 46.8343 35.7529 44.181 37.1293C43.1197 37.6931 42.0418 38.1408 41.7765 38.1408C41.1795 38.1408 40.9142 37.7097 41.0468 37.0132C41.0966 36.7313 40.9805 35.3051 40.7649 33.8458L40.4001 31.176L40.9308 30.4298C41.7267 29.3353 41.9257 28.7051 41.7931 27.9423C41.6107 27.0303 40.7318 25.3554 40.1348 24.775C39.6207 24.2941 39.6207 24.2941 39.6207 22.4368C39.6207 21.4086 39.7036 20.2147 39.7865 19.7835C39.9689 19.0041 40.0021 18.9709 41.3785 18.1915C43.0036 17.2795 43.8494 17.0805 46.0715 17.0805C47.9785 17.0805 51.8258 16.6659 52.9534 16.3177C53.4011 16.2016 54.1142 16.0855 54.5288 16.0855C55.2916 16.0855 55.2916 16.1021 56.1207 17.2795C58.4092 20.6126 58.6911 21.3091 58.8403 24.1946C58.9067 25.6207 59.0062 26.284 59.1554 26.3338C59.4373 26.4167 59.4207 24.4599 59.1057 22.6192C58.8072 20.9443 58.3263 19.8001 56.9665 17.6609L56.0212 16.1684L56.7011 16.0358C57.6298 15.8533 57.464 15.5217 56.4027 15.4222C55.5569 15.3393 55.5238 15.3227 54.9765 14.394C54.5454 13.6976 52.3896 9.50207 52.3896 9.38599C52.3896 9.3694 52.6881 9.38599 53.0529 9.41915C53.5006 9.4689 53.8323 9.40257 54.0147 9.23674C54.164 9.10408 54.7775 8.95483 55.3413 8.8885L56.4027 8.789L59.0725 10.0991C62.5383 11.7905 63.0027 12.1388 63.6328 13.4654C64.2796 14.8584 64.4951 15.9363 64.4951 17.8765C64.4951 19.4187 64.2796 23.2659 64.0806 25.2393C63.9976 26.0021 64.0308 26.2011 64.2132 26.2011C64.5946 26.2011 64.6775 25.2725 64.7605 20.3142C64.8268 15.7538 64.8102 15.6543 64.4288 14.4604C64.2132 13.7805 63.8318 12.9679 63.6162 12.6197C63.2348 12.0558 61.8087 10.9448 61.1122 10.6795C60.5484 10.4639 60.8966 10.3478 61.8087 10.4639C62.3228 10.5302 63.4836 10.5965 64.3625 10.5965C65.6062 10.6131 66.0208 10.5634 66.2198 10.3478C66.369 10.2151 66.4519 10.0327 66.4022 9.96639C66.369 9.88348 65.7223 9.7674 64.976 9.71765C64.1137 9.63473 62.6876 9.30307 60.963 8.77242C59.5037 8.32468 58.2268 7.97644 58.1273 8.0096C58.0278 8.04277 58.2102 8.15885 58.5253 8.25835C59.6032 8.57342 63.3675 9.93322 63.467 10.0161C63.666 10.2151 61.5268 10.0991 60.5981 9.86689C58.8569 9.40257 57.0328 8.35785 57.0328 7.81061C57.0328 7.71111 56.9499 7.6282 56.8338 7.6282C56.4192 7.6282 56.8836 7.44578 58.4589 6.99804C60.5484 6.38448 60.8137 6.23522 61.1122 5.52216C61.4936 4.62668 61.2615 4.47743 59.5368 4.5106C58.7574 4.52718 57.7459 4.56035 57.2815 4.59351ZM48.4594 5.8704C49.0564 6.26839 49.7861 6.73271 50.0845 6.89854L50.6484 7.21362L48.8242 7.31312C47.6634 7.37945 46.4031 7.59502 45.3418 7.87694L43.7001 8.32468L43.4016 7.95985C42.7217 7.11412 43.1529 5.60507 44.1313 5.40607C44.3468 5.35633 44.6619 5.28999 44.8443 5.25683C45.0267 5.20708 45.6735 5.17392 46.2871 5.15733C47.3318 5.14075 47.4479 5.17392 48.4594 5.8704ZM61.0127 5.40607C61.0127 5.75432 60.6147 5.93673 58.6413 6.53372C56.9831 7.0312 56.4358 7.13071 55.1092 7.13071H53.5172L53.882 6.50055C54.6946 5.15733 54.6614 5.15733 58.0278 5.1905C60.1338 5.20708 61.0127 5.27341 61.0127 5.40607ZM52.8042 7.6282C53.0363 7.71111 53.2685 7.92669 53.3182 8.07594C53.368 8.24176 53.4841 8.50709 53.567 8.67292C53.7328 8.97141 53.6665 8.97141 52.6217 8.87191C51.6268 8.75584 51.5273 8.77242 51.6102 9.02116C51.7428 9.33624 49.5041 13.8966 48.7579 14.8252C47.9122 15.8865 47.2654 16.2845 46.5855 16.1684C45.4247 15.9694 45.4745 16.0523 45.3584 14.1453C45.2921 13.1669 45.2092 12.0558 45.1428 11.6744C45.0599 10.9945 45.0765 10.9614 45.5242 10.8619C46.7016 10.6131 48.7911 9.90006 49.3549 9.58498C50.4494 8.95483 51.7263 7.92669 51.7263 7.69453C51.7263 7.4292 52.1906 7.39603 52.8042 7.6282ZM53.2851 12.6362C53.6996 13.482 54.2303 14.4935 54.4624 14.8749L54.8936 15.5714L54.3464 15.6543C50.7147 16.185 49.0232 16.4337 48.3268 16.5332L47.4976 16.6327L48.1609 15.9528C48.7413 15.3724 51.3117 11.2267 51.9087 9.90006L52.1243 9.43574L52.3232 10.2649C52.4559 10.7126 52.8705 11.7905 53.2851 12.6362ZM35.873 23.0503C36.1549 23.1333 36.6524 23.2493 36.9674 23.2991C37.2825 23.3488 37.9624 23.6307 38.4599 23.9127L39.372 24.4433L38.576 24.5594C37.5313 24.7252 36.9508 25.1066 36.1549 26.1845C34.6956 28.1247 34.0157 29.8494 33.2363 33.4147C32.9709 34.675 31.7604 37.4278 31.2297 37.975C31.0307 38.1906 30.9478 38.174 30.6659 37.8755C30.3674 37.577 30.3508 37.4775 30.5001 37.0464C30.7157 36.5157 30.583 34.476 30.3343 34.3268C30.1353 34.2107 29.8036 28.6554 29.9363 27.6272C30.0026 27.1629 30.185 26.5162 30.3508 26.1679C30.7488 25.4051 31.893 24.0619 32.573 23.5976C33.5182 22.9508 34.8614 22.7187 35.873 23.0503ZM39.687 28.1081C39.9855 31.1428 39.9855 31.2092 39.687 31.4911C39.5046 31.6569 38.5926 32.4529 37.6473 33.2654C35.989 34.675 34.9941 35.8856 34.48 37.1293C34.3639 37.4112 34.1649 37.6433 34.0488 37.6433C33.7338 37.6433 33.7503 37.9087 34.0654 38.0413C34.1981 38.0911 34.3142 38.2569 34.3142 38.4227C34.3307 38.7047 34.3307 38.7047 34.4966 38.4227C34.6956 38.0911 35.0106 38.2072 34.8614 38.5554C34.7951 38.7544 34.4468 38.8042 33.3192 38.8042C31.3624 38.8042 31.2629 38.6715 32.1418 37.2785C32.9709 35.9519 33.2031 35.2388 33.6674 32.6685C34.082 30.2971 34.9111 28.3071 36.188 26.5825C37.0338 25.4549 37.5313 25.0569 38.3438 24.8745C39.3222 24.6589 39.3554 24.7252 39.687 28.1081ZM41.0468 26.9971C41.1961 27.7433 41.0303 28.9705 40.682 29.8328C40.483 30.3303 40.3669 30.4795 40.2674 30.3303C40.1348 30.0649 39.6207 26.2343 39.6207 25.488L39.6373 24.9574L40.284 25.7036C40.6488 26.1182 40.9971 26.6986 41.0468 26.9971ZM41.5609 28.5559C41.5112 28.9207 41.3785 29.3187 41.2624 29.4182C41.1132 29.5509 41.0966 29.5343 41.1795 29.3021C41.2293 29.1363 41.279 28.6056 41.279 28.1413C41.2956 27.4448 41.3287 27.3287 41.4614 27.5941C41.5609 27.7599 41.6107 28.1911 41.5609 28.5559ZM53.6001 28.9539C53.7162 29.0865 53.2021 30.181 53.0197 30.181C52.9368 30.181 52.8871 29.8825 52.9202 29.5177C52.9368 29.0368 53.0197 28.8544 53.2187 28.8544C53.368 28.8544 53.5338 28.9041 53.6001 28.9539ZM54.3298 31.2092C54.5785 33.7961 54.3961 35.5705 53.6167 37.8258C53.2851 38.8207 52.9202 39.6333 52.8373 39.6333C52.5886 39.6333 52.8373 35.6202 53.1026 35.4378C53.2519 35.3217 53.2519 35.272 53.1026 35.2057C52.9534 35.1559 52.8871 34.675 52.8871 33.6303C52.8871 32.3368 52.97 31.9222 53.4177 30.7448C53.6996 29.982 53.9815 29.3519 54.0479 29.3519C54.0976 29.3519 54.2303 30.1976 54.3298 31.2092ZM40.3338 33.9619C40.4664 34.9901 40.4996 35.869 40.4167 35.9187C40.1845 36.068 40.2674 37.4941 40.5659 37.975C41.0966 38.9036 41.9589 38.771 44.4961 37.4112C46.7845 36.184 47.8293 35.8358 49.6368 35.7031C50.9303 35.6202 51.1127 35.6368 51.0298 35.8524C50.8474 36.3001 49.7529 39.8489 49.471 40.8439L49.2057 41.8057L48.6916 41.4574C47.2157 40.479 43.6835 39.4675 37.7137 38.2901C36.8016 38.1077 35.9559 37.9253 35.8232 37.8921C35.674 37.8258 35.873 37.5107 36.4865 36.8474C36.984 36.3167 37.581 35.5207 37.8463 35.0564C38.0951 34.6087 38.5428 33.9288 38.8413 33.5639C39.1232 33.1825 39.5046 32.6187 39.687 32.3202C39.8529 32.0051 40.0187 31.8227 40.0519 31.9222C40.085 32.0051 40.2177 32.9338 40.3338 33.9619ZM38.974 33.0499C38.7916 33.3484 38.4765 33.7463 38.2775 33.9288C38.0785 34.0946 37.78 34.5423 37.5976 34.9072C36.8679 36.3499 35.1433 38.0413 34.7785 37.6765C34.2976 37.1956 36.4534 34.2936 38.0785 33.282C38.4267 33.0664 38.8081 32.7514 38.9408 32.6021C39.3222 32.1378 39.3554 32.4529 38.974 33.0499ZM52.3896 34.4926C52.3896 34.7579 52.3232 34.9901 52.2237 34.9901C52.0413 34.9901 51.9916 34.277 52.174 34.1112C52.3564 33.9122 52.3896 33.9785 52.3896 34.4926ZM52.3896 38.2901C52.3896 39.7494 52.3232 41.1092 52.2569 41.3248C52.1906 41.5403 52.174 42.867 52.2403 44.2765C52.2901 45.6861 52.2901 46.9961 52.2072 47.1785C52.1408 47.361 52.0745 47.4605 52.0745 47.4107C52.0579 47.361 51.8755 46.8137 51.6599 46.1836C51.2951 45.1388 51.2785 45.0062 51.4941 44.1273C51.7926 42.867 51.7594 42.7011 51.4112 43.6961L51.1127 44.5253L50.781 43.7625C50.582 43.3313 50.267 42.8172 50.068 42.6182L49.6866 42.2368L50.5655 39.3182C51.6931 35.5705 51.6599 35.6534 52.0579 35.6534C52.373 35.6534 52.3896 35.7529 52.3896 38.2901ZM30.2348 37.0795C30.3011 37.2454 30.2513 37.3117 30.1353 37.2785C29.8865 37.1956 29.7538 36.8142 29.9694 36.8142C30.0523 36.8142 30.185 36.9303 30.2348 37.0795ZM29.4719 37.2122C30.0192 37.4941 30.5664 38.0745 30.384 38.1906C30.3177 38.2237 29.986 38.3232 29.6709 38.3896C29.3559 38.4559 28.991 38.6383 28.875 38.7876C28.676 39.0197 28.6594 38.9534 28.7423 38.3896C28.792 38.0248 28.8418 37.5604 28.8418 37.3449C28.8418 36.9137 28.875 36.9137 29.4719 37.2122ZM36.4699 38.3067C37.0669 38.4062 38.9242 38.7876 40.6157 39.1524C46.7016 40.5122 49.073 41.4408 49.073 42.5187C49.073 42.9665 49.3217 43.1157 49.4544 42.7343C49.5705 42.3861 50.1675 43.0494 50.5655 43.978C50.8142 44.5584 50.8971 45.0228 50.8474 45.3876C50.7645 45.8353 50.7976 45.9348 51.0132 45.9017C51.4444 45.8187 52.1077 47.7921 52.0745 49.0856C52.0579 50.1469 52.0413 50.1801 51.2785 50.86C50.8474 51.258 50.4494 51.573 50.383 51.573C50.3333 51.573 50.184 51.374 50.0514 51.1419C49.7031 50.4786 47.2323 48.2233 46.37 47.7589C45.9222 47.5268 45.5906 47.2283 45.5906 47.0625C45.5906 46.8801 45.4911 46.8137 45.2589 46.8801C45.0102 46.9464 44.5458 46.565 43.269 45.2881C41.4946 43.4971 40.1016 42.6348 38.0453 42.0378C37.0669 41.7559 35.0604 41.7559 32.7056 42.0544L31.8267 42.1705L31.9594 41.3579C32.0257 40.9102 32.0755 40.1805 32.0755 39.7328V38.9368L33.8498 39.0363C34.9111 39.0861 35.674 39.0529 35.7237 38.97C35.79 38.8705 35.674 38.8042 35.4916 38.8042C35.2594 38.8042 35.1433 38.7047 35.1433 38.4725C35.1433 38.0911 35.077 38.0911 36.4699 38.3067ZM30.9147 38.572C31.8599 38.9368 31.9096 41.9549 30.9644 41.9549C30.7654 41.9549 30.6659 41.8388 30.6659 41.5735C30.6659 41.3745 30.3343 40.8273 29.9197 40.3464C28.875 39.1524 28.9247 38.3232 30.0358 38.8705C30.3177 39.0197 30.5996 39.0861 30.6493 39.0363C30.6991 38.97 30.6493 38.8871 30.5498 38.8539C30.3011 38.771 30.2679 38.4725 30.4835 38.4725C30.5664 38.4725 30.7654 38.5222 30.9147 38.572ZM30.0855 40.9102C30.4835 41.3745 30.6493 42.1207 30.3508 42.1207C30.1353 42.1207 29.6709 41.6398 29.6709 41.4077C29.6709 41.2916 29.6212 41.0429 29.5714 40.8273C29.4388 40.3464 29.6046 40.3629 30.0855 40.9102ZM38.7252 42.5353C40.5659 43.2318 41.5443 43.8951 43.2855 45.6529L44.9438 47.3112L44.5293 48.2399C43.7333 50.0474 43.2524 51.5233 41.9257 56.1831C41.1795 58.77 40.3504 61.4233 40.0684 62.0866C39.4051 63.6288 39.289 65.4861 39.7036 67.5092C40.1679 69.6982 40.2509 70.3615 40.1679 70.9253L40.0684 71.4726H39.0237C38.4433 71.4726 37.3488 71.3233 36.6026 71.1575C35.8398 70.9917 34.5961 70.7927 33.8167 70.7263C32.0091 70.5937 31.2131 70.3615 27.7639 68.9851C26.2217 68.3716 24.3478 67.6419 23.6347 67.3932C22.4076 66.9454 22.3081 66.8791 22.0925 66.2489C21.9599 65.8841 21.8106 64.9057 21.7609 64.0932C21.6614 62.4183 21.9267 58.9193 22.1754 58.6705C22.3579 58.4881 27.084 60.0303 29.3061 61.0087C30.1684 61.3901 31.4287 61.8379 32.1252 62.0369C32.8383 62.2193 34.2644 62.7665 35.3091 63.264C37.4815 64.2756 38.576 64.6238 38.8413 64.3585C39.0403 64.1595 38.8413 64.0766 37.8297 63.9605C37.4318 63.9107 36.2378 63.463 35.1765 62.9489C34.1152 62.4514 32.7554 61.9208 32.1584 61.7715C31.5614 61.6223 30.0026 61.0585 28.676 60.5444C27.3493 60.0138 25.3925 59.2509 24.3312 58.8695C23.0378 58.3886 22.3744 58.057 22.3744 57.9077C22.3744 57.261 23.0212 55.7022 23.6513 54.8233L24.3478 53.8615L24.4971 54.4916C24.5965 54.8565 24.7126 55.4866 24.779 55.9178C24.8287 56.3489 25.1106 57.1449 25.3759 57.7087C25.9895 58.9193 26.5533 59.2841 27.5815 59.1349C28.3277 59.0188 30.0026 58.3057 30.0026 58.0901C30.0026 58.0072 29.6875 57.4268 29.3227 56.7967C28.9413 56.1499 28.3609 55.072 28.0458 54.3921C27.4488 53.1484 27.4488 53.1318 27.3825 50.5781C27.3162 47.6429 27.3825 47.3444 28.6262 44.4921L29.4222 42.6348L30.3177 42.6182C30.7986 42.6182 31.9262 42.5022 32.8051 42.3695C33.684 42.2368 34.6292 42.1042 34.8946 42.0544C35.8895 41.9052 37.6473 42.1373 38.7252 42.5353ZM84.1957 44.2434C84.4113 44.6745 84.9917 45.8187 85.4892 46.7971C85.9866 47.7755 86.3846 48.7871 86.3846 49.0524C86.3846 49.7821 85.7545 50.1469 84.7098 49.9976C83.9138 49.8816 83.7148 49.9976 84.0796 50.3625C84.1957 50.4786 84.1128 50.5781 83.7645 50.7107C83.35 50.8434 83.1178 50.8102 82.3881 50.462C81.8906 50.2298 81.0118 49.9811 80.4148 49.8816C79.8178 49.7821 79.1379 49.5997 78.8726 49.4836C78.3916 49.2182 78.3751 48.9529 78.8228 47.8916C79.3037 46.7308 82.8193 43.4308 83.549 43.4474C83.6982 43.464 83.9801 43.8122 84.1957 44.2434ZM93.8138 47.7921C93.6646 48.7373 93.5319 49.7489 93.5153 50.0474V50.5946L91.3264 50.4951C87.6283 50.3459 86.053 50.2132 86.053 50.0971C86.053 50.0474 86.2022 49.8981 86.3846 49.7821C86.8158 49.5167 86.7992 48.9695 86.3183 47.7755L85.9369 46.8137L88.4409 46.6976C89.8173 46.6313 91.5419 46.4821 92.2716 46.366C93.0012 46.2333 93.7143 46.1338 93.847 46.1172C94.0791 46.1007 94.0791 46.2831 93.8138 47.7921Z" fill="#C21807"/>
<path d="M51.8257 42.3695C51.6764 42.8006 51.7096 42.9001 51.9086 42.5685C52.0081 42.4026 52.0578 42.2202 52.0081 42.187C51.9749 42.1373 51.892 42.2202 51.8257 42.3695Z" fill="#C21807"/>
<path d="M68.0606 5.0577C66.1867 5.60494 62.6545 6.46725 61.2616 6.73258C59.4872 7.06424 59.1224 7.21348 59.5867 7.3959C60.0842 7.57831 63.5334 6.88182 65.8219 6.13559C66.9495 5.77077 68.2264 5.42252 68.6741 5.37278C69.155 5.30644 69.4535 5.19036 69.4204 5.07428C69.3375 4.80896 68.9892 4.79237 68.0606 5.0577Z" fill="#C21807"/>
<path d="M57.3314 7.82737C57.4143 7.91028 57.5967 7.96003 57.7128 7.92687C57.8454 7.87712 57.7625 7.81079 57.5469 7.74445C57.265 7.67812 57.1987 7.69471 57.3314 7.82737Z" fill="#C21807"/>
<path d="M47.2156 8.90526C47.3317 8.95501 47.4809 8.93843 47.5307 8.88868C47.597 8.83893 47.4975 8.78918 47.3151 8.80577C47.1327 8.80577 47.0829 8.85552 47.2156 8.90526Z" fill="#C21807"/>
<path d="M46.5525 9.07079C46.6686 9.12054 46.8178 9.10396 46.8676 9.05421C46.9339 9.00446 46.8344 8.95471 46.652 8.97129C46.4696 8.97129 46.4198 9.02104 46.5525 9.07079Z" fill="#C21807"/>
<path d="M45.8889 9.23681C46.005 9.28656 46.1542 9.26997 46.204 9.22022C46.2703 9.17048 46.1708 9.12073 45.9884 9.13731C45.806 9.13731 45.7563 9.18706 45.8889 9.23681Z" fill="#C21807"/>
<path d="M54.3794 9.26976C54.3794 9.43559 55.8055 10.7788 55.9714 10.7788C56.1206 10.7788 54.8437 9.35267 54.595 9.22001C54.4789 9.17026 54.3794 9.18685 54.3794 9.26976Z" fill="#C21807"/>
<path d="M45.2258 9.40258C45.3419 9.45233 45.4912 9.43574 45.5409 9.386C45.6072 9.33625 45.5077 9.2865 45.3253 9.30308C45.1429 9.30308 45.0932 9.35283 45.2258 9.40258Z" fill="#C21807"/>
<path d="M42.3568 9.8171C41.3452 9.99951 39.0899 10.6131 37.2824 11.2101C35.508 11.7905 33.7834 12.2714 33.4683 12.2714C32.9045 12.2714 32.3407 12.5035 32.5065 12.6694C32.6392 12.802 34.7784 12.3045 36.0387 11.8402C38.2276 11.0277 39.6703 10.6297 42.1744 10.099C43.5507 9.8171 44.7115 9.55177 44.7447 9.51861C44.8608 9.40253 44.2472 9.48544 42.3568 9.8171Z" fill="#C21807"/>
<path d="M59.1058 15.2067C59.9349 17.1303 60.3495 18.5233 60.5153 20.0489C60.7641 22.1218 60.648 24.6756 60.2831 25.6871C60.0178 26.4168 60.0676 26.8313 60.3495 26.367C60.9796 25.372 60.9962 19.7007 60.3826 17.8268C59.9847 16.5831 59.2384 14.9248 59.0892 14.9248C59.0394 14.9248 59.0394 15.0574 59.1058 15.2067Z" fill="#C21807"/>
<path d="M8.62706 31.7894C7.58233 34.3432 7.28384 35.1558 7.44967 35.1558C7.53258 35.1558 7.69841 34.9899 7.79791 34.7909C8.06324 34.31 9.29038 30.6286 9.20746 30.5623C9.1743 30.5291 8.90897 31.0929 8.62706 31.7894Z" fill="#C21807"/>
<path d="M5.54292 36.2337C5.17809 36.3664 4.8796 36.4825 4.86302 36.4825C4.79668 36.4825 4.41528 38.0081 4.31578 38.6714C4.16653 39.5172 4.29919 39.7825 4.63085 39.3845C4.89618 39.0528 6.40523 39.0528 7.63237 39.3679C8.12986 39.5006 9.17458 39.6664 9.97057 39.7327C11.8942 39.882 11.9937 39.9649 11.2143 40.7443C10.4017 41.5237 9.97057 42.3694 9.67207 43.7624C9.24092 45.8021 9.45649 46.681 10.551 47.4272C11.1148 47.8086 11.2972 47.8418 13.0716 47.8418C14.647 47.8252 15.36 47.7257 17.0681 47.3111C19.9038 46.5981 20.7163 46.2664 22.5239 45.089C24.7294 43.6795 28.5601 39.7825 28.245 39.285C28.1621 39.1357 26.2716 40.3629 25.2766 41.2252C24.7128 41.7227 24.945 41.6066 25.9897 40.9101C26.3877 40.6448 26.7359 40.4624 26.7857 40.4955C26.8852 40.6116 25.2766 42.6182 24.5636 43.2483C23.7013 44.0277 20.9319 45.8518 20.1359 46.1669C18.66 46.7473 15.2937 47.4604 13.6354 47.5433C11.5294 47.6594 10.9324 47.5433 10.2525 46.9132L9.72182 46.4157L9.82132 44.9729C9.87107 44.1106 10.0369 43.1654 10.2525 42.6182C10.6007 41.6729 11.6454 40.479 12.1595 40.3961C12.3253 40.3795 12.5078 40.28 12.5575 40.1971C12.7068 39.9815 13.3867 39.6996 15.0781 39.1026C16.2555 38.688 16.8525 38.5885 18.8093 38.489C20.9816 38.3729 21.2304 38.3232 22.7063 37.7262C24.149 37.1458 24.4143 37.0795 25.7741 37.096C27.051 37.096 27.1671 37.0795 26.6033 36.9468C25.3595 36.6483 23.9002 36.8639 22.4409 37.5272C21.1641 38.1076 20.9982 38.1408 19.3565 38.1408C17.3666 38.1408 15.5922 38.5222 13.5359 39.4011C12.5575 39.8156 12.1595 39.9317 11.9937 39.7991C11.8776 39.6996 11.0485 39.5503 10.153 39.4674C9.2575 39.4011 7.96403 39.2021 7.28413 39.0528C6.50473 38.887 5.75849 38.8207 5.27759 38.887L4.49819 39.0031L4.79668 37.9584C5.06201 36.9634 5.12834 36.8805 5.80824 36.5654C6.42181 36.2835 6.83639 36.2337 8.44493 36.2669C10.352 36.2835 10.352 36.2835 12.259 37.1292C14.3816 38.0744 14.249 38.0247 14.249 37.8091C14.249 37.494 11.5294 36.3001 10.4349 36.1508C8.82634 35.9187 6.30573 35.9684 5.54292 36.2337Z" fill="#C21807"/>
<path d="M4.91256 41.1588C4.59749 41.6397 4.24925 42.2201 4.13317 42.4357C4.03367 42.6513 3.56935 43.2648 3.13819 43.8121C2.17638 45.006 0.816575 47.6096 0.833158 48.2231C0.833158 48.5548 0.932656 48.4221 1.21457 47.6759C1.66231 46.4819 3.03869 44.2266 4.03367 43.0492C4.7799 42.1704 5.79146 40.6613 5.79146 40.4291C5.79146 40.0809 5.44322 40.3794 4.91256 41.1588Z" fill="#C21807"/>
<path d="M75.7879 43.7125C75.7879 43.8949 75.8377 43.9447 75.8874 43.812C75.9372 43.6959 75.9206 43.5467 75.8708 43.4969C75.8211 43.4306 75.7713 43.5301 75.7879 43.7125Z" fill="#C21807"/>
<path d="M0.0370803 50.8601C0.153161 53.1319 0.501403 54.5581 1.44663 56.548C1.81146 57.3274 2.20945 58.3224 2.32553 58.7867C2.72352 60.4616 2.87277 60.5943 4.38181 60.7601L5.21096 60.843L4.18282 60.5777C3.48633 60.3953 3.13809 60.2129 3.13809 60.0636C3.13809 59.7154 1.69538 56.15 1.13156 55.0887C0.882811 54.6078 0.634067 53.8118 0.567735 53.2646C0.501403 52.7505 0.435071 52.1701 0.401905 51.9877C0.368739 51.8053 0.335573 51.0425 0.335573 50.2797C0.31899 49.3842 0.252659 48.9199 0.136578 48.9199C-0.0126686 48.9199 -0.0292515 49.4505 0.0370803 50.8601Z" fill="#C21807"/>
<path d="M70.6306 50.3293C69.702 50.8599 67.7618 51.5896 65.5728 52.2197L63.2512 52.8996H59.2382C56.9663 52.8996 55.2085 52.9659 55.2085 53.0489C55.2085 53.2644 59.4371 53.4634 61.5929 53.3474C63.7653 53.2313 65.7718 52.7338 69.0553 51.5066C70.6472 50.9097 71.3935 50.5448 71.4266 50.3624C71.493 50.0142 71.1945 50.0142 70.6306 50.3293Z" fill="#C21807"/>
</svg>
