<svg width="84" height="203" viewBox="0 0 84 203" fill="none" xmlns="http://www.w3.org/2000/svg">
<path d="M13.9985 70.4532C13.5374 70.5252 13.3311 70.8038 13.3796 71.2886C13.433 71.8741 13.7169 72.1021 14.2313 71.9727C15.974 71.5359 15.8964 71.0293 13.9985 70.4532ZM14.6902 71.3101C14.6126 71.8046 14.4402 71.7686 14.1732 71.202C14.3383 71.1493 14.5031 71.1686 14.6682 71.2595C14.6877 71.2788 14.695 71.2959 14.6902 71.3101ZM10.4307 54.5615C12.4842 54.1534 12.5496 53.5174 10.6274 52.6533C10.0063 52.8406 9.71729 53.2726 9.76104 53.9494C9.78978 54.444 10.0133 54.648 10.4307 54.5615ZM10.5252 53.8632C10.5157 53.6664 10.6076 53.5224 10.8018 53.4311L10.8165 53.4166C11.5398 53.9687 11.4475 54.1462 10.5399 53.9494C10.53 53.9207 10.5252 53.8919 10.5252 53.8632ZM0.12776 42.8101C0.258695 43.1847 0.484476 43.3261 0.804787 43.2349C2.79978 42.6683 2.79244 41.8907 0.783073 40.9019C0.050158 41.3005 -0.16828 41.9365 0.12776 42.8101ZM0.659485 42.5151C0.625634 42.2416 0.666831 41.9823 0.783394 41.7376C0.792975 41.7281 0.802876 41.723 0.812456 41.723C1.38538 41.7616 1.64724 42.0351 1.5987 42.5439C1.37068 42.9134 1.05995 42.9326 0.666824 42.6013C0.666824 42.5726 0.664276 42.5439 0.659485 42.5151ZM14.4134 28.5748C14.3115 28.5893 14.224 28.6443 14.1512 28.7403C12.9571 30.387 13.3841 31.1573 15.4327 31.0518C15.4522 31.023 15.4691 30.9918 15.4838 30.9583C16.0421 29.6284 15.685 28.8338 14.4134 28.5748ZM14.2824 30.3532C14.1173 29.9837 14.1901 29.6404 14.5009 29.3236C15.2242 29.8371 15.1658 30.2022 14.3262 30.4182C14.3067 30.399 14.292 30.3772 14.2824 30.3532ZM27.6796 81.283C27.9028 81.4223 28.136 81.4485 28.3787 81.3623C30.4369 80.6615 30.4174 79.992 28.3205 79.3534C28.0389 79.4206 27.8498 79.6054 27.7527 79.9077C27.602 80.359 27.5777 80.8172 27.6796 81.283ZM28.8593 80.0731C29.0873 80.1546 29.2186 80.2797 29.2524 80.4477C29.0388 80.8892 28.728 80.947 28.3205 80.6205C28.3205 80.5917 28.3231 80.563 28.3279 80.5339C28.3716 80.3034 28.4857 80.1404 28.6702 80.0444C28.7379 80.0444 28.8008 80.0542 28.8593 80.0731ZM44.9575 76.0771C44.2879 77.3972 44.6056 78.2107 45.9114 78.518C47.1445 78.8061 47.6443 78.3526 47.4115 77.1572C47.232 76.2163 46.5498 75.741 45.3654 75.7316C45.1859 75.7698 45.0498 75.885 44.9575 76.0771ZM45.4819 77.0059C45.6956 76.9386 45.9092 76.8786 46.1225 76.8259C46.637 76.5666 46.9477 76.6146 47.0544 76.9699C47.1515 77.1139 47.1611 77.2674 47.0835 77.4307C47.0107 77.5892 46.9331 77.7522 46.8503 77.9202C46.3892 78.213 45.9328 78.2035 45.4816 77.8914C45.365 77.762 45.319 77.5987 45.3433 77.4019C45.358 77.2867 45.365 77.1714 45.365 77.0564C45.4043 77.0372 45.4433 77.0201 45.4819 77.0059ZM62.0611 77.0779C61.7408 77.1739 61.5661 77.4114 61.5367 77.7907C61.4978 78.3573 61.5757 78.8781 61.7699 79.3534C62.1435 79.6174 62.5318 79.5909 62.9349 79.2741C64.3911 78.1362 64.0999 77.4041 62.0611 77.0779ZM62.2939 78.518C62.2939 78.3115 62.2939 78.11 62.2939 77.9132C62.7988 77.7645 63.1096 77.8987 63.2258 78.3165C63.0412 78.8639 62.7308 78.9599 62.2939 78.6046C62.2939 78.5755 62.2939 78.5468 62.2939 78.518ZM67.6239 65.456C69.7403 64.88 69.8447 64.1817 67.9369 63.3605C67.3301 63.6391 67.0146 64.1359 66.9903 64.8512C66.9756 65.3793 67.187 65.5808 67.6239 65.456ZM67.8203 65.06C67.8203 65.0312 67.8178 65.0025 67.813 64.9734C67.7644 64.6279 67.8638 64.3399 68.1116 64.1094C68.8301 64.4985 68.733 64.8152 67.8203 65.06ZM83.1691 52.4736C84.5282 51.4033 84.2201 50.8102 82.2442 50.6949C81.7684 51.1174 81.7514 51.6502 82.1931 52.2932C82.4799 52.7013 82.805 52.7613 83.1691 52.4736ZM83.3875 51.8182C82.9359 52.1543 82.6715 52.0295 82.5939 51.4437C83.0308 51.2662 83.3026 51.3717 83.4092 51.7605C83.4092 51.7892 83.4022 51.8085 83.3875 51.8182ZM74.6573 42.7166C76.7009 42.6351 76.8708 42.114 75.167 41.1539C74.8177 41.3605 74.5456 41.6485 74.3514 42.018C74.0895 42.4981 74.1914 42.7311 74.6573 42.7166ZM75.6113 42.198C75.1597 42.6396 74.9633 42.5315 75.0214 41.874C75.3708 41.7395 75.5749 41.826 75.633 42.1333C75.633 42.162 75.6256 42.1838 75.6113 42.198ZM71.1259 25.5145C73.2085 25.428 73.3199 24.7729 71.461 23.5488C70.9126 23.7503 70.5824 24.1296 70.4706 24.6864C70.3544 25.2625 70.5728 25.5385 71.1259 25.5145ZM71.1259 24.8232C71.2083 24.6217 71.3492 24.4464 71.5481 24.2976C71.5676 24.2882 71.5798 24.2856 71.5845 24.2904C71.8467 24.5497 71.9994 24.821 72.0431 25.1039C71.6452 25.4065 71.3345 25.3392 71.1113 24.9024C71.1116 24.8737 71.1164 24.8472 71.1259 24.8232ZM40.1887 20.0565C40.0673 20.0517 39.9412 20.0492 39.8102 20.0492C39.4219 20.102 39.0262 20.1958 38.6235 20.33C37.9778 20.5413 37.5652 20.9468 37.3857 21.5468C37.3857 21.5516 37.3857 21.5563 37.3857 21.5614C36.4391 21.4461 35.4003 21.6046 34.2694 22.0367C24.7409 25.6898 19.3844 32.4224 18.1999 42.2344C17.8263 45.3401 17.9499 48.439 18.5713 51.5302C19.6102 56.7289 22.5249 60.5981 27.3159 63.1376C34.1066 66.7474 41.4242 67.6908 49.2685 65.9673C53.1614 65.1178 56.3093 63.2118 58.7121 60.25C58.9062 60.01 59.0978 59.7675 59.2872 59.5227C59.6465 59.1961 59.8844 58.8601 60.0007 58.5146C62.0733 55.471 63.3938 52.094 63.9616 48.3834C64.8401 42.6326 63.9156 37.2513 61.1874 32.2396C57.2945 25.0821 51.2558 21.3258 43.0721 20.9708C43.014 20.9803 42.9654 20.9875 42.9265 20.9923C42.6109 20.4547 41.8221 20.1474 40.5601 20.0707C40.8366 18.4771 41.0771 16.8449 41.2808 15.1742C41.9895 9.41364 41.81 3.85741 40.7421 -1.49512C40.9653 3.87636 40.7204 9.4787 40.0066 15.311C39.7834 17.1064 39.8441 18.6883 40.1887 20.0565ZM49.006 24.9312C48.2002 25.5647 47.239 26.0135 46.1225 26.2775C45.0888 25.0247 43.9771 23.8151 42.7879 22.6484C42.8945 22.4277 42.9724 22.2211 43.021 22.0291C45.1035 22.6149 47.0985 23.5823 49.006 24.9312ZM45.6713 26.3713C45.3606 26.4288 45.0377 26.4721 44.703 26.5008C43.9069 26.5775 43.111 26.6473 42.3149 26.7096C42.0917 25.8262 41.8633 24.9454 41.6305 24.0668C41.917 23.9133 42.1549 23.6947 42.344 23.4114C42.5043 23.1762 42.6378 22.9529 42.7444 22.7419C43.7782 23.9085 44.7538 25.1185 45.6713 26.3713ZM46.7635 27.0769C46.8995 27.0336 47.0378 26.9903 47.1783 26.9474C48.3286 26.5873 49.2024 26.1098 49.7996 25.5145C51.2073 26.6041 52.4936 27.754 53.6586 28.9636C53.0276 29.3669 52.3506 29.7219 51.6272 30.0292C50.8991 30.3412 50.171 30.6197 49.4429 30.8645C48.6224 29.5589 47.7295 28.2962 46.7635 27.0769ZM50.7752 23.1597C51.9207 23.7071 53.0324 24.3621 54.1099 25.1254C54.8428 25.6437 55.5319 26.2077 56.1777 26.8176C55.7018 27.3456 55.1851 27.8304 54.6269 28.2719C53.3501 26.9758 51.9255 25.8189 50.353 24.8014C50.6347 24.3118 50.7755 23.7645 50.7752 23.1597ZM50.6152 23.0808C50.3287 23.5514 50.0036 23.9761 49.6396 24.3551C47.7027 23.179 45.5525 22.2044 43.1886 21.4316V21.4461C43.1449 21.4461 43.1063 21.4508 43.0721 21.4606C43.0574 21.3119 43.0188 21.1751 42.9555 21.0501C45.664 21.2756 48.2172 21.9524 50.6152 23.0808ZM49.9743 31.7358C51.1102 31.3231 52.2509 30.8263 53.3964 30.2452C53.741 30.0724 54.054 29.8899 54.3357 29.6979C55.3356 30.8114 56.2361 31.9781 57.0371 33.1975C55.508 34.335 53.9135 35.3024 52.2535 36.0992C51.5739 34.5969 50.8142 33.1422 49.9743 31.7358ZM43.7708 33.176C45.5765 32.9985 47.3968 32.6047 49.2318 31.9951C50.018 33.4448 50.7413 34.9449 51.4014 36.4956C49.2803 37.4269 47.057 38.0892 44.7321 38.483C44.4408 36.6968 44.1205 34.9278 43.7708 33.176ZM48.7221 31.0878C47.0183 31.6064 45.2951 31.9424 43.5524 32.0959C43.2516 30.6605 42.9309 29.2349 42.5911 27.8187C43.7804 27.7467 45.0061 27.5452 46.2682 27.2139C47.1419 28.4617 47.9601 29.7531 48.7221 31.0878ZM43.8727 39.2748C43.8823 39.3515 43.8922 39.4261 43.9018 39.4981C44.1687 41.399 44.4067 43.2977 44.6152 45.1936C42.1201 45.4816 39.601 45.5344 37.0574 45.3521C37.0769 43.8545 37.1085 42.3518 37.1522 40.8444C37.1669 40.3739 37.1839 39.9061 37.203 39.4403C39.4848 39.6036 41.7078 39.5483 43.8727 39.2748ZM51.7 37.2153C51.9766 37.8969 52.2413 38.586 52.4936 39.2821C52.95 40.5397 53.3552 41.7976 53.7097 43.0552C51.0498 44.0055 48.3628 44.6728 45.6496 45.0568C45.4168 43.0694 45.1472 41.0964 44.8413 39.138C47.1956 38.7635 49.4818 38.1227 51.7 37.2153ZM54.6269 42.7166C54.0687 40.6859 53.3865 38.7275 52.5808 36.8408C54.2893 36.0774 55.957 35.1533 57.5828 34.0685C58.6993 35.9167 59.5925 37.8751 60.2622 39.9443C59.0196 40.7364 57.7064 41.43 56.323 42.0253C55.7606 42.27 55.195 42.5006 54.6269 42.7166ZM58.0855 32.3766C58.0417 32.4152 57.998 32.4512 57.9546 32.4847C57.1536 31.2125 56.2556 30.0342 55.2605 28.949C55.8526 28.349 56.2045 27.6842 56.3163 26.9543C57.5832 28.1737 58.668 29.5633 59.5708 31.1235C59.5804 31.138 59.5903 31.1522 59.5999 31.1667C59.1049 31.5558 58.6 31.9588 58.0855 32.3766ZM58.515 33.4207C59.2626 32.8352 59.7286 32.2712 59.9132 31.7286C61.1072 33.8935 62.0004 36.0752 62.5925 38.274C62.0975 38.6675 61.5901 39.0446 61.0708 39.4043C60.4059 37.2346 59.5539 35.2399 58.515 33.4207ZM61.3694 40.4196C62.1122 39.8676 62.5587 39.2941 62.7091 38.6987C63.2577 40.8924 63.5075 43.1007 63.4589 45.3234C63.1239 45.5682 62.7867 45.806 62.4469 46.0362C62.2332 44.1542 61.8743 42.282 61.3694 40.4196ZM39.7808 20.798C40.3729 20.7886 40.9168 20.8893 41.4118 21.1006C42.8048 21.6909 42.868 22.368 41.6011 23.131C40.7322 23.6543 39.8415 23.6663 38.9288 23.167C37.0746 22.1542 37.3585 21.3646 39.7808 20.798ZM34.9972 26.1986C35.3952 25.8291 35.8055 25.4665 36.2277 25.1112C36.8249 24.6166 37.2567 24.1558 37.5237 23.7285C37.7858 24.0646 38.2106 24.2781 38.7979 24.3693C38.4871 25.2094 38.2106 26.0662 37.9679 26.9398C36.7882 26.8826 35.7982 26.6353 34.9972 26.1986ZM34.1235 25.5792C33.5314 25.0272 33.0993 24.3169 32.8276 23.4478C34.2449 22.7612 35.7449 22.2022 37.3273 21.7701C37.2059 22.2502 37.172 22.6655 37.2254 23.0157C36.07 23.6638 35.0359 24.5184 34.1235 25.5792ZM34.0069 25.716C33.8955 25.8455 33.7863 25.98 33.6793 26.1193C32.6842 27.4056 31.7814 28.7258 30.9708 30.0797C29.4661 29.3309 28.2139 28.3613 27.2137 27.1707C28.7379 25.8265 30.4005 24.6889 32.2013 23.7576C32.0461 24.1321 32.2984 24.5544 32.9585 25.025C33.3031 25.2697 33.6525 25.5 34.0069 25.716ZM40.8583 24.3119C41.0911 24.2784 41.3048 24.2184 41.499 24.1318C41.6446 24.9959 41.7928 25.8647 41.9432 26.7386C41.0451 26.8106 40.1446 26.8731 39.2418 26.9259C39.1252 26.9306 39.0112 26.9354 38.8994 26.9404C39.1032 25.9469 39.169 25.1017 39.0958 24.406C39.5867 24.4486 40.174 24.4177 40.8583 24.3119ZM38.7615 27.5736C39.8489 27.7849 40.9701 27.8737 42.1252 27.8402C42.3583 29.2658 42.5889 30.7037 42.8169 32.1534C41.2055 32.2494 39.5816 32.1919 37.9458 31.9806C38.1694 30.5019 38.4412 29.0331 38.7615 27.5736ZM34.9535 26.2418C35.8905 26.7219 36.8562 27.0939 37.8513 27.3579C37.4678 28.8076 37.1765 30.303 36.9776 31.8439C35.7979 31.6471 34.6112 31.3733 33.4171 31.023C32.7279 30.8215 32.0749 30.5837 31.4585 30.3102C32.4683 28.8458 33.6333 27.4896 34.9535 26.2418ZM28.7063 29.5036C29.3568 29.8971 30.0096 30.2597 30.6649 30.591C29.5727 32.4679 28.6552 34.4026 27.9127 36.3945C25.942 35.3577 24.2114 33.9968 22.7213 32.3119C23.3572 31.3565 24.0706 30.4302 24.8619 29.5324C25.5367 28.7643 26.2454 28.0467 26.9882 27.3794C27.1821 28.2242 27.755 28.9323 28.7063 29.5036ZM28.0437 37.4241C29.1649 37.9427 30.381 38.3434 31.6916 38.6264C33.3468 38.9865 34.973 39.2385 36.5701 39.3825C36.5119 41.3554 36.4656 43.3284 36.4318 45.3013C33.6502 45.0613 30.8399 44.5379 28.0002 43.7317C27.5634 43.6069 27.1338 43.4771 26.7116 43.3429C26.9879 41.3652 27.4321 39.3923 28.0437 37.4241ZM27.6215 37.2153C26.9566 39.1355 26.4539 41.111 26.1145 43.1414C23.6388 42.282 21.389 41.1757 19.3649 39.8218C19.9813 37.3496 20.9863 35.0213 22.3793 32.8371C23.7915 34.7143 25.539 36.1738 27.6215 37.2153ZM28.3132 36.6033C29.0218 34.5198 29.9588 32.5901 31.1238 30.814C33.0217 31.7308 34.9366 32.3934 36.8687 32.8014C36.7716 33.7088 36.7083 34.6329 36.6793 35.5737C36.6454 36.644 36.6138 37.7146 36.5848 38.7853C33.4778 38.526 30.7208 37.7986 28.3132 36.6033ZM37.8002 32.9814C39.5139 33.2647 41.2419 33.351 42.9843 33.2407C43.256 35.0216 43.5208 36.8171 43.7778 38.6267C41.681 38.91 39.5014 38.9795 37.2394 38.8355C37.3464 36.8673 37.5336 34.9158 37.8002 32.9814ZM34.6696 46.2664C35.2521 46.3337 35.832 46.3912 36.4097 46.4392C36.3708 48.4121 36.3417 50.3828 36.3226 52.351C32.9879 52.1878 29.6966 51.667 26.4495 50.7884C26.2942 48.6281 26.3402 46.4727 26.5877 44.3222C29.1406 45.2823 31.8347 45.9304 34.6696 46.2664ZM37.0504 52.3798C37.0309 50.4214 37.0309 48.4579 37.0504 46.4897C39.6812 46.6672 42.2443 46.617 44.7391 46.3384C44.9333 48.2059 45.1009 50.0708 45.2414 51.9332C42.4845 52.3172 39.754 52.4663 37.0504 52.3798ZM37.0651 53.2871C38.4194 53.3017 39.8003 53.2486 41.208 53.1286C42.5819 53.0133 43.9433 52.8551 45.2929 52.6533C45.4289 54.5975 45.5356 56.5369 45.6132 58.4713C42.7735 59.0136 39.9702 59.2587 37.2033 59.2059C37.1353 57.2377 37.0893 55.2648 37.0651 53.2871ZM25.6044 51.4004C25.6191 51.8132 25.6409 52.2285 25.6699 52.646C25.7817 54.3357 26.0413 55.9366 26.4491 57.4487C24.3666 56.7959 22.3036 55.9605 20.2601 54.943C19.4349 53.0566 18.9226 50.9204 18.7237 48.5343C18.7141 48.4238 18.7067 48.3136 18.702 48.203C20.9058 49.5282 23.2067 50.5941 25.6044 51.4004ZM27.4101 56.9522C26.9831 55.2001 26.6867 53.4479 26.5219 51.6957C29.6235 52.6463 32.8857 53.1719 36.3079 53.2726C36.2884 55.2408 36.2763 57.209 36.2715 59.1772C33.3494 59.0477 30.4685 58.5869 27.6288 57.7948C27.5509 57.5163 27.4781 57.2355 27.4101 56.9522ZM25.9685 44.0848C25.6677 46.1824 25.539 48.3379 25.5827 50.5509C23.2575 49.8741 20.9569 49.0147 18.6802 47.9731C18.5103 45.3136 18.6924 42.7886 19.2263 40.3982C19.2749 40.4367 19.3282 40.4774 19.3866 40.5207C21.464 41.97 23.658 43.1581 25.9685 44.0848ZM29.7401 63.6271C29.0362 62.1102 28.4441 60.5548 27.9635 58.9612C30.3858 59.6332 32.985 59.962 35.7615 59.9478C35.9314 59.9478 36.1013 59.9478 36.2712 59.9478C36.2712 60.9511 36.2712 61.9567 36.2712 62.9648C36.2759 63.8624 36.4216 64.5825 36.708 65.125C36.2274 65.1396 35.7493 65.1516 35.2735 65.161C34.2832 64.9738 33.2932 64.7435 32.3029 64.4697C31.4004 64.2246 30.5458 63.9439 29.7401 63.6271ZM26.7985 58.6084C27.3615 60.3078 28.1261 61.892 29.0921 63.3609C25.0488 61.6327 22.1775 58.9852 20.4785 55.4186C22.425 56.7962 24.5317 57.8596 26.7985 58.6084ZM37.4799 65.5065C37.4799 65.468 37.4773 65.4298 37.4726 65.3913C40.2781 65.4585 43.0379 65.24 45.7511 64.7359C45.7511 64.9952 45.7511 65.2567 45.7511 65.5208C43.0136 65.8568 40.2564 65.8521 37.4799 65.5065ZM36.861 65.3767C36.8706 65.3913 36.8827 65.408 36.8974 65.4273C36.7323 65.4033 36.5672 65.3793 36.4024 65.3553C36.5528 65.36 36.7058 65.3673 36.861 65.3767ZM37.4582 65.0887C37.3659 63.3703 37.2883 61.6491 37.2254 59.926C40.0746 59.8395 42.8779 59.5565 45.6349 59.0764C45.693 60.6893 45.7294 62.3022 45.7441 63.9151C43.0548 64.5439 40.2928 64.9352 37.4582 65.0887ZM61.6606 47.5986C61.6897 48.1266 61.7092 48.6594 61.7188 49.1969C61.7383 50.3538 61.8376 51.3979 62.0174 52.3292C60.1971 53.3228 58.3161 54.2374 56.3744 55.0728C56.3501 53.3639 56.2361 51.6572 56.0321 49.953C57.9447 49.2715 59.8209 48.4867 61.6606 47.5986ZM62.5488 47.1233C62.8838 46.9167 63.1702 46.7057 63.4078 46.4897C63.3008 48.0499 63.0438 49.6195 62.636 51.1989C62.6848 49.8355 62.6558 48.4772 62.5488 47.1233ZM55.9522 49.298C55.8213 48.3139 55.661 47.3323 55.4716 46.353C55.3017 45.4794 55.1123 44.6201 54.9038 43.7752C56.8359 42.9926 58.7216 42.0496 60.5611 40.9455C61.066 42.7457 61.4058 44.6273 61.5805 46.5908C59.8282 47.6753 57.952 48.5779 55.9522 49.298ZM56.3817 56.1169C57.7409 55.5936 59.0879 55.0175 60.4228 54.3887C61.0587 54.0912 61.5709 53.7792 61.9592 53.4526C61.5757 54.5615 61.1197 55.6728 60.5905 56.7864C60.411 57.161 60.2216 57.5258 60.0227 57.8811C58.7702 58.6731 57.4963 59.4005 56.2 60.0627C56.3115 58.7426 56.3722 57.4275 56.3817 56.1169ZM53.9936 44.128C54.4596 45.9522 54.8163 47.7764 55.0641 49.6006C52.1078 50.5847 49.181 51.3095 46.2832 51.775C46.2442 51.1989 46.2008 50.6207 46.1522 50.0395C46.0453 48.7529 45.9217 47.476 45.7808 46.209C48.6055 45.8104 51.3433 45.1169 53.9936 44.128ZM46.3266 52.4878C49.3458 51.9743 52.2851 51.2324 55.1439 50.2628C55.3528 51.991 55.4642 53.7214 55.4789 55.4546C55.081 55.6131 54.6828 55.7714 54.2849 55.9299C51.6298 56.9715 49.0037 57.7661 46.4068 58.3134C46.4553 56.3882 46.4285 54.4465 46.3266 52.4878ZM54.9182 62.907C54.0297 63.3965 53.0662 63.8071 52.0277 64.1384C49.9794 64.7865 47.9211 65.2425 45.8533 65.5065C45.8872 65.2378 45.9214 64.969 45.9552 64.6999C49.052 64.1046 52.0909 63.1423 55.0711 61.8124C55.0226 62.1775 54.9718 62.5423 54.9182 62.907ZM46.0497 63.8431C46.2196 62.2207 46.3336 60.5861 46.3921 58.9397C49.4793 58.3589 52.5058 57.5308 55.4716 56.4554C55.4473 57.8188 55.3649 59.1844 55.2241 60.5526C52.2678 61.9782 49.2097 63.075 46.0497 63.8431ZM58.355 60.1853C57.5931 61.0348 56.7241 61.7767 55.7485 62.4102C55.9136 62.1222 56.0228 61.7694 56.0761 61.3516C56.7461 61.0348 57.4136 60.6963 58.0785 60.3362C58.1752 60.2835 58.2675 60.2333 58.355 60.1853ZM51.8821 17.7235C53.9694 17.474 54.0616 16.982 52.1586 16.2474C51.7265 16.3289 51.4621 16.5809 51.365 17.0034C51.2437 17.5362 51.4161 17.7763 51.8821 17.7235ZM52.7268 17.2195C52.1104 17.522 51.921 17.4475 52.159 16.9962C52.6734 16.8282 52.8676 16.8856 52.7415 17.1689C52.7411 17.1977 52.7363 17.2144 52.7268 17.2195ZM24.4321 14.1304C24.1603 14.193 23.971 14.3799 23.8643 14.6919C23.7091 15.1385 23.6848 15.5946 23.7915 16.0601C24.2574 16.3576 24.7333 16.3026 25.2187 15.8946C26.4322 14.8862 26.17 14.2981 24.4321 14.1304ZM25.3496 15.2465C24.4321 15.64 24.2041 15.4986 24.6652 14.8218C25.0098 14.8312 25.2429 14.9563 25.3643 15.1963C25.3643 15.2247 25.3595 15.2415 25.3496 15.2465Z" fill="#C21807"/>
<path d="M45.387 119.927C42.9918 121.097 39.6497 124.941 37.8116 128.561C36.5305 131.179 36.1963 134.354 36.9204 137.083C37.7559 140.147 37.2546 142.041 34.9151 145.55C32.7428 148.614 32.6314 150.229 34.5809 150.173C36.3077 150.118 36.0848 151.009 33.8568 153.404C31.6844 155.743 31.016 156.078 31.9072 154.407C32.2971 153.627 32.2971 153.293 31.9072 153.293C31.6287 153.293 31.3502 153.571 31.3502 153.905C31.3502 154.24 30.7932 155.019 30.1248 155.576L28.8436 156.69L30.1248 156.078C31.8515 155.242 31.6844 156.356 29.902 157.582C29.1222 158.139 27.6739 159.253 26.727 160.032L25.0002 161.481L26.2814 162.149C27.7853 162.985 29.9577 162.539 30.4033 161.425C30.6818 160.757 30.459 160.701 29.4007 161.091C28.2309 161.536 28.0081 161.481 28.0081 160.534C28.0081 159.921 28.2309 159.42 28.4537 159.42C28.7322 159.42 31.573 156.802 34.748 153.571C37.923 150.34 40.9309 147.611 41.3765 147.444C42.3234 147.165 42.8247 144.38 41.9335 144.38C41.5993 144.38 41.3765 144.046 41.3765 143.656C41.3765 143.211 40.8752 142.431 40.2625 141.874C39.4826 141.15 39.2598 140.481 39.4826 139.701C39.9283 138.309 41.4322 137.083 42.1563 137.529C42.4348 137.752 42.212 138.197 41.7107 138.587C41.1537 138.977 40.9866 139.423 41.3208 139.59C41.9892 140.036 43.2146 137.919 42.769 137.139C42.6019 136.805 42.0449 136.582 41.5993 136.582C41.1537 136.582 40.8195 136.415 40.8195 136.248C40.8195 135.524 45.8883 131.179 46.1668 131.625C46.6124 132.349 48.5063 132.237 48.9519 131.458C49.2304 131.068 49.0633 130.956 48.5063 131.179C48.005 131.346 47.1695 131.179 46.6124 130.789C45.7212 130.121 45.6655 129.787 46.2782 127.726C46.6681 126.5 47.448 125.219 48.0607 124.885C49.4532 124.105 51.5699 124.161 52.4054 124.996C52.9067 125.498 53.0738 125.498 53.0738 124.996C53.0738 124.606 52.2383 123.938 51.2914 123.492C50.2887 123.047 49.7317 122.657 50.0102 122.657C50.3444 122.601 50.0659 122.378 49.4532 122.1C47.7822 121.376 49.7874 121.376 51.6256 122.1C53.2966 122.712 53.4637 122.155 52.1269 120.484C50.6229 118.702 48.1721 118.535 45.387 119.927ZM46.2225 123.269C45.0528 123.882 43.6046 125.163 43.0475 126.166C42.4348 127.169 41.9335 127.558 41.9335 127.113C41.9892 125.386 45.6655 122.1 47.5037 122.155C47.9493 122.155 47.3923 122.657 46.2225 123.269ZM48.3392 123.771C46.6681 124.439 46.0554 125.33 45.0528 128.84C44.5515 130.566 43.7717 132.293 43.326 132.683C42.6019 133.296 42.4905 133.073 42.4905 131.291C42.4905 127.447 45.7769 123.158 48.6177 123.269C49.1747 123.269 49.0633 123.437 48.3392 123.771ZM39.3155 131.123C39.1484 132.126 38.6471 133.351 38.2015 133.797C37.4774 134.521 37.4217 134.465 37.7559 133.24C38.9813 129.23 39.9283 127.893 39.3155 131.123ZM40.6524 131.625C40.4853 132.85 39.9283 134.354 39.3712 134.967C37.7559 136.749 37.4217 136.137 38.8699 134.02C39.6497 132.906 40.2625 131.402 40.2625 130.678C40.2625 129.954 40.4296 129.341 40.5967 129.341C40.8195 129.341 40.8195 130.344 40.6524 131.625ZM40.2625 136.805C40.2625 136.916 39.8726 137.306 39.4269 137.696C38.7028 138.309 38.6471 138.253 38.9256 137.473C39.2041 136.694 40.2625 136.192 40.2625 136.805ZM37.8116 145.494C37.5888 149.839 37.366 150.452 36.0848 149.393C34.9708 148.502 35.0265 148.168 36.3634 146.608C37.923 144.77 37.7559 144.492 36.0291 146.107C35.0822 146.998 34.6923 147.834 34.8594 148.669C35.0265 149.505 34.8037 149.951 34.3581 149.951C33.077 149.951 33.4669 148.614 35.5278 145.717C36.5862 144.213 37.4774 142.654 37.4774 142.319C37.4774 141.929 37.5888 141.595 37.7002 141.595C37.8673 141.595 37.8673 143.378 37.8116 145.494ZM40.7081 143.768C41.1537 144.993 41.098 145.661 40.541 146.441C39.7611 147.388 39.7611 147.388 39.7054 146.274C39.7054 145.606 39.5383 144.269 39.3155 143.266C38.8699 140.983 39.8726 141.372 40.7081 143.768ZM38.9813 147.277C38.8142 147.667 38.7028 147.388 38.7028 146.608C38.7028 145.829 38.8142 145.55 38.9813 145.884C39.0927 146.274 39.0927 146.943 38.9813 147.277Z" fill="#C21807"/>
<path d="M55.1902 122.155C56.1371 122.434 56.9726 122.824 56.9726 122.991C56.9726 123.214 56.5827 123.214 56.1371 122.991C54.9674 122.545 53.6306 123.158 53.6306 124.216C53.6306 124.94 53.742 124.94 54.3547 124.105C55.0231 123.214 55.3016 123.158 56.4156 123.771C57.4183 124.328 57.5297 124.551 56.9169 124.94C56.4713 125.219 56.4156 125.442 56.7498 125.442C58.031 125.442 58.5323 127.837 57.7525 130.065C57.1398 131.792 57.1398 132.683 57.6411 134.688C58.2538 136.861 58.1981 137.25 57.3069 138.142C56.4156 138.977 56.3042 138.977 56.5827 138.197C56.7498 137.696 56.6384 137.028 56.3599 136.749C55.97 136.359 56.0257 134.633 56.3599 131.792C56.9169 127.391 56.5827 125.943 55.0788 126.054C54.6889 126.054 54.7446 126.166 55.1902 126.389C55.5801 126.556 55.8586 127.67 55.8586 129.118C55.8586 131.402 55.7472 131.569 54.4104 131.569C53.5749 131.569 53.1292 131.792 53.352 132.182C53.5749 132.516 54.1319 132.627 54.5775 132.404C55.3016 132.182 55.413 132.46 55.0788 134.465C54.0205 141.15 51.9038 144.325 48.0047 144.993L45.5538 145.439L48.2275 145.271C51.2911 145.049 53.2406 143.6 54.299 140.648C54.6889 139.646 55.1902 138.81 55.413 138.81C56.1371 138.81 55.9143 140.091 55.0231 141.261C53.742 142.988 54.0205 144.213 56.1371 145.829C58.3652 147.5 58.5323 148.391 56.9726 149.95C56.3599 150.563 56.0814 151.064 56.3599 151.064C56.6384 151.064 57.4183 150.285 58.1424 149.338L59.3121 147.667L57.8639 146.107C55.6915 143.879 55.413 141.317 57.0283 139.59C58.3652 138.142 58.6437 136.136 58.6437 126.834C58.6437 123.994 57.1398 121.877 54.9674 121.71C53.352 121.598 53.352 121.598 55.1902 122.155ZM56.4156 137.362C56.4156 137.529 56.1928 137.807 55.8586 137.975C55.5801 138.142 55.3016 138.03 55.3016 137.752C55.3016 137.418 55.5801 137.139 55.8586 137.139C56.1928 137.139 56.4156 137.25 56.4156 137.362ZM55.8586 144.659C55.8586 144.937 55.5801 144.826 55.3016 144.38C55.0231 143.935 54.7446 143.266 54.7446 142.988C54.7446 142.654 55.0231 142.821 55.3016 143.266C55.5801 143.712 55.8586 144.325 55.8586 144.659Z" fill="#C21807"/>
<path d="M51.3471 133.407C51.1799 135.357 51.3471 136.526 51.6813 136.415C52.4611 136.137 52.6839 133.184 52.0712 131.569C51.6256 130.399 51.5142 130.678 51.3471 133.407Z" fill="#C21807"/>
<path d="M47.7825 141.596C47.9496 141.874 48.6737 142.153 49.3421 142.097C50.5119 142.097 50.5119 142.041 49.4535 141.596C47.8939 140.927 47.3926 140.927 47.7825 141.596Z" fill="#C21807"/>
<path d="M50.8456 147.165C51.4583 147.778 51.9596 148.614 51.9596 149.004C51.9596 150.062 48.0605 153.571 45.9439 154.407C44.9412 154.797 43.4373 155.966 42.6018 156.969C41.7106 158.027 40.0395 159.364 38.8141 160.033C37.6443 160.645 37.0873 161.035 37.6443 160.868C38.2014 160.701 38.9255 160.534 39.1483 160.534C39.4268 160.534 40.875 159.475 42.379 158.139C43.8829 156.858 46.4452 155.131 48.0048 154.24C50.8456 152.736 53.2965 149.728 52.7952 148.391C52.6838 148.057 52.7952 147.722 53.0737 147.722C53.7978 147.722 54.3548 149.839 53.9649 151.343C53.7978 152.067 52.7952 153.237 51.7925 153.905C50.8456 154.574 48.5618 156.523 46.8351 158.139C45.0526 159.81 42.2676 161.759 40.5408 162.483C36.6417 164.266 36.586 164.656 40.4851 163.207C42.379 162.483 44.8855 160.812 47.225 158.751C49.286 156.969 51.0684 155.576 51.1798 155.688C51.2912 155.799 51.0127 156.802 50.5671 157.916C49.1746 161.314 49.5088 165.714 52.0153 174.738C53.2965 179.361 54.9118 185.711 55.6359 188.942C56.75 193.676 56.9171 194.122 56.6386 191.448C56.4715 189.61 54.9118 182.703 53.2408 176.13C50.4 165.046 50.2329 163.932 50.7342 161.091C51.3469 157.804 52.2938 155.298 54.2434 152.29C55.3017 150.675 55.3574 150.285 54.7447 148.781C53.9649 146.998 52.6838 146.051 50.9013 146.051H49.7316L50.8456 147.165Z" fill="#C21807"/>
<path d="M48.3394 148.836C47.4482 149.783 45.2201 151.287 43.382 152.178C41.5995 153.125 40.5412 153.849 41.0982 153.849C42.825 153.849 46.6127 151.732 48.6179 149.672C49.6205 148.613 50.3447 147.611 50.2333 147.443C50.0661 147.276 49.2306 147.945 48.3394 148.836Z" fill="#C21807"/>
<path d="M37.8115 153.181C37.3658 154.017 35.8619 155.799 34.4694 157.08C33.0768 158.361 32.2413 159.42 32.6312 159.42C33.0211 159.42 34.0794 158.64 34.9707 157.749C36.9759 155.632 37.3658 155.632 37.6443 157.86L37.8672 159.698L37.9229 157.693C37.9786 156.579 38.4242 154.741 38.8698 153.627C39.8724 151.287 38.9812 150.897 37.8115 153.181Z" fill="#C21807"/>
<path d="M32.0744 163.876C31.4617 164.767 31.5731 165.046 32.5757 165.825C33.9683 166.772 35.8064 166.94 35.8064 166.104C35.8064 165.77 35.3051 165.046 34.7481 164.489C34.1354 163.876 33.8012 163.263 34.024 163.096C34.1911 162.929 33.9683 162.762 33.5227 162.762C33.077 162.762 32.4086 163.263 32.0744 163.876Z" fill="#C21807"/>
<path d="M37.8118 168.555C37.032 171.34 36.8649 173.289 37.0877 176.186C37.4776 181.143 36.5863 184.875 33.2443 191.559C30.3478 197.352 30.2364 198.745 32.7429 198.578C36.4192 198.299 38.6473 197.965 39.0372 197.575C39.26 197.352 38.2017 197.297 36.642 197.519C35.1381 197.687 33.3557 197.909 32.7429 197.965C31.1833 198.188 31.5175 196.071 33.5228 192.896C34.414 191.448 35.8065 188.44 36.642 186.156C37.9789 182.424 38.0903 181.477 37.8118 177.188C37.589 173.568 37.7004 171.73 38.3688 169.836C38.8701 168.443 39.1486 166.717 39.0372 166.048C38.9258 165.324 38.4802 166.271 37.8118 168.555Z" fill="#C21807"/>
<path d="M54.1879 197.519C54.1879 198.243 53.9094 198.411 53.0739 198.132C52.4055 197.909 51.9598 198.021 51.9598 198.411C51.9598 198.8 52.684 198.968 53.6866 198.856C54.6892 198.745 55.3576 198.912 55.2462 199.246C55.1348 199.525 54.355 199.803 53.5195 199.803C51.6256 199.803 51.5699 199.97 53.241 200.583C54.6335 201.14 56.416 200.416 56.416 199.302C56.416 198.912 55.9146 198.132 55.3019 197.575C54.2436 196.628 54.1879 196.628 54.1879 197.519Z" fill="#C21807"/>
<path d="M40.7073 198.244C41.3757 198.355 42.3783 198.355 42.9353 198.244C43.4367 198.076 42.8796 197.965 41.6542 198.021C40.4288 198.021 39.9832 198.132 40.7073 198.244Z" fill="#C21807"/>
<path d="M45.9993 198.522C46.3892 199.692 44.9966 199.915 44.4953 198.801C44.3282 198.467 44.2725 198.634 44.3282 199.246C44.4396 200.082 44.8852 200.36 45.9993 200.249C47.6146 200.138 48.0602 200.862 46.612 201.419C45.6651 201.809 42.4901 200.193 42.4901 199.302C42.4901 198.968 42.2116 199.024 41.8774 199.358C41.0975 200.138 41.766 201.363 42.7686 200.973C43.2142 200.806 43.8269 201.085 44.2168 201.53C44.6067 201.976 45.5537 202.31 46.3335 202.199C48.2273 201.976 48.5058 200.082 46.8905 198.634C45.7765 197.687 45.6651 197.687 45.9993 198.522Z" fill="#C21807"/>
<path d="M49.1749 199.525C49.1749 200.137 49.3977 200.639 49.6762 200.639C50.6232 200.639 50.7346 199.803 49.9547 199.079C49.2863 198.466 49.1749 198.578 49.1749 199.525Z" fill="#C21807"/>
</svg>
