<svg width="50" height="44" viewBox="0 0 50 44" fill="none" xmlns="http://www.w3.org/2000/svg">
<path d="M39.9758 0.255253C39.1997 1.48418 38.9086 2.32504 38.9086 3.4246V4.6212L35.7716 5.00928C25.8755 6.17353 23.9674 6.39991 20.8304 6.69098C18.9546 6.85268 16.7878 7.07906 16.044 7.17608L14.6534 7.40246V6.27055C14.6534 5.62374 14.4593 4.9446 14.2006 4.71822C13.9419 4.52417 13.7802 4.16843 13.8449 3.97439C13.9419 3.74801 13.8772 3.35992 13.6832 3.1012C13.1657 2.26035 12.713 3.16588 12.4866 5.52672C12.2925 7.62884 12.1632 7.91991 9.57595 11.7037C8.12064 13.9029 6.89171 15.7463 6.89171 15.8433C6.89171 15.9403 6.30958 16.9105 5.5981 18.0101C4.88661 19.1096 4.30448 20.1769 4.30448 20.3386C4.30448 20.5003 3.85172 21.4058 3.26959 22.3113C0.68237 26.5479 0.844072 25.8041 0.455988 34.5683C0.261946 38.9666 0.0679047 42.7181 0.00322411 42.9121C-0.0614565 43.3325 0.747051 43.3972 11.6781 43.85C16.3998 44.044 19.7955 44.044 20.1189 43.8823C20.41 43.7206 21.7359 43.4942 23.0619 43.3649C24.3878 43.2679 27.0074 42.9445 28.8831 42.7181C30.7588 42.4593 34.0899 42.0066 36.3214 41.7479C38.5529 41.4568 41.5282 41.004 42.9511 40.7776C44.3741 40.5189 46.2175 40.2279 47.0584 40.1308L48.5784 39.9368L48.7724 38.2551C48.8694 37.3172 48.9988 33.016 49.0311 28.65L49.0958 20.7267L47.6081 17.3309C46.7673 15.4552 45.2796 11.9624 44.2771 9.56926C43.2745 7.17608 42.3043 4.97694 42.1426 4.71822C41.7869 4.20077 41.7545 4.10375 41.2048 2.42205C41.0107 1.80759 40.849 1.03142 40.849 0.74036C40.849 0.0612144 40.2992 -0.262192 39.9758 0.255253ZM40.946 3.00418C41.1724 4.13609 41.0107 4.39481 40.0729 4.39481C39.3937 4.39481 39.329 4.26545 39.426 3.32758C39.4584 2.7778 39.5231 2.26035 39.5231 2.19567C39.5554 2.16333 39.8141 2.13099 40.1699 2.13099C40.558 2.13099 40.8167 2.42205 40.946 3.00418ZM44.4711 11.0246C45.8941 14.388 47.5111 18.3335 48.0286 19.7565C48.9018 22.182 48.9341 22.3437 48.4166 22.7318C48.0932 22.9581 47.5111 23.1522 47.0907 23.1522C46.5086 23.1522 46.3145 22.8935 46.0235 21.7616C45.8294 21.0177 45.2473 19.0773 44.7299 17.4926C44.2448 15.8756 43.5009 13.5471 43.1452 12.2535C42.7571 10.9922 42.0133 8.98714 41.4958 7.79054C40.3316 5.20332 40.2669 4.6212 41.2048 4.7829C41.7545 4.84758 42.369 6.07651 44.4711 11.0246ZM14.1359 5.55906C14.4917 6.49693 14.33 7.24076 13.7155 7.40246C12.907 7.5965 12.713 7.40246 12.713 6.33523C12.713 5.00928 13.7155 4.45949 14.1359 5.55906ZM41.3341 8.59905C43.1775 13.2884 45.8294 22.3113 45.603 22.9581C45.4737 23.2492 45.1179 23.4756 44.7622 23.4756C44.083 23.4756 43.889 22.9905 42.9511 19.2714C42.272 16.5871 39.6201 8.37267 39.0703 7.30544C38.8439 6.85268 38.5529 6.17353 38.4235 5.75311C38.2295 5.07396 38.2941 5.00928 39.1026 5.1063C39.9435 5.20332 40.1375 5.49438 41.3341 8.59905ZM36.3537 7.01438C37.1622 8.63139 41.8192 22.376 41.8192 23.2169C41.8192 23.6696 41.5605 23.799 40.7843 23.799H39.7171L38.0678 17.8807C37.1299 14.6467 35.8039 10.6688 35.0601 9.05182C34.3163 7.40246 33.7342 6.01183 33.7342 5.91481C33.7342 5.68842 35.0924 5.46204 35.4482 5.62374C35.5775 5.68842 35.9656 6.30289 36.3537 7.01438ZM38.2295 6.23821C38.9409 7.75821 39.8788 10.4101 40.558 12.7063C42.3367 18.6569 43.4362 22.6671 43.4362 23.0552C43.4362 23.6049 42.466 23.6049 42.3367 23.0552C41.9809 21.7616 41.0107 18.7862 39.426 14.0969C37.8737 9.6016 37.2916 8.11395 36.0627 5.5914C35.998 5.46204 36.3861 5.36502 36.9035 5.36502C37.615 5.36502 37.9384 5.5914 38.2295 6.23821ZM33.9282 7.53182C34.4133 8.56671 35.0601 10.0544 35.3835 10.8305C35.998 12.2212 39.232 23.1198 39.232 23.7667C39.232 23.9607 38.8763 24.1224 38.4882 24.1224C37.5503 24.1224 37.3563 23.7343 35.8686 18.6892C34.5427 14.2909 32.9256 10.119 31.6644 7.95225C31.2116 7.14374 30.8235 6.39991 30.8235 6.27055C30.8235 6.07651 31.5997 5.85013 32.6669 5.72076C32.8933 5.72076 33.4431 6.52927 33.9282 7.53182ZM31.4703 8.43735C33.4107 12.0271 37.2592 23.4109 36.8065 24.1224C36.7095 24.3164 36.289 24.4458 35.8686 24.4458C35.2218 24.4458 34.9954 24.0254 33.9605 20.953C31.9231 14.8407 30.5648 11.251 28.6567 6.75565C28.495 6.36757 29.821 6.01183 30.2414 6.30289C30.3708 6.43225 30.9205 7.37012 31.4703 8.43735ZM28.9154 8.40501C29.4652 9.53692 30.4031 11.8978 31.0176 13.6765C32.3435 17.3956 34.7044 24.4135 34.7044 24.6075C34.7044 24.7045 34.2839 24.7692 33.7665 24.7692C32.958 24.7692 32.7639 24.6075 32.6022 23.799C32.4729 23.2492 31.7937 21.3411 31.0822 19.4977C30.3708 17.6867 29.5623 15.5522 29.3035 14.7437C28.6891 12.9003 26.7163 9.01947 25.9401 7.98458C25.1316 6.98204 25.164 6.72332 26.0695 6.56161C27.8159 6.23821 27.9129 6.30289 28.9154 8.40501ZM25.5521 8.17863C26.7163 9.98969 28.5274 13.5795 28.9154 14.7437C29.0448 15.1965 29.7886 17.2663 30.5971 19.336C31.4057 21.4382 32.1495 23.5726 32.2788 24.1224C32.4729 25.0603 32.4405 25.0926 31.3733 25.0926C30.2737 25.0926 30.2414 25.0279 29.1095 22.2467C28.4627 20.6943 27.2984 17.6867 26.4899 15.5522C25.7138 13.4178 24.6142 10.6688 24.0644 9.47224C23.5146 8.24331 23.0619 7.20842 23.0619 7.14374C23.0619 7.04672 23.7087 6.82034 24.3878 6.69098C24.4848 6.69098 25.0023 7.33778 25.5521 8.17863ZM23.741 9.69862C24.4201 11.1863 25.5197 13.9029 26.1665 15.7463C26.8133 17.5897 27.8806 20.4356 28.592 22.0526C29.2712 23.6696 29.8533 25.0926 29.8533 25.222C29.8533 25.319 29.4652 25.416 28.9801 25.416C28.1393 25.416 28.0099 25.222 26.878 22.085C25.455 18.1071 22.0916 10.3131 21.1214 8.76075C20.3453 7.49948 20.4746 6.98204 21.6389 6.98204C22.3504 6.98204 22.6414 7.33778 23.741 9.69862ZM20.9597 9.37522C22.1887 11.5744 24.2261 16.2637 26.3606 21.8262C27.5895 25.0279 27.6218 25.2543 27.0721 25.6424C26.7486 25.8688 26.3282 26.0628 26.1342 26.0628C25.9401 26.0628 25.0993 24.4135 24.2584 22.4084C23.4499 20.4356 21.9623 16.8135 20.9597 14.4203C19.9572 12.0271 18.7929 9.50458 18.3725 8.85777C17.9197 8.17863 17.564 7.56416 17.564 7.46714C17.564 7.37012 18.0814 7.30544 18.6959 7.30544C19.7308 7.30544 19.8925 7.46714 20.9597 9.37522ZM17.8227 8.89011C18.3078 9.56926 19.5044 11.9948 20.4423 14.2909C21.4125 16.5871 22.8678 20.1122 23.741 22.1496C24.5818 24.1871 25.2287 25.9658 25.1316 26.1275C25.0346 26.2569 24.5495 26.3862 24.0321 26.3862C23.3529 26.3862 23.0619 26.1922 22.8031 25.4807C20.701 19.9505 19.7955 17.8484 17.5317 13.3854C15.4942 9.34288 15.0091 8.11395 15.3649 7.91991C16.2057 7.37012 16.9172 7.66118 17.8227 8.89011ZM16.8849 13.0297C18.3402 15.8433 19.7955 18.8509 20.1512 19.7565C22.1563 24.8339 22.6414 26.2569 22.5121 26.4509C22.4474 26.6126 22.027 26.7096 21.6389 26.7096C20.9921 26.7096 20.7334 26.3215 19.8925 24.1871C19.3427 22.7964 17.4993 18.7539 15.7853 15.1965C14.1036 11.6714 12.713 8.56671 12.713 8.34033C12.713 8.14629 13.0687 7.95225 13.4891 7.95225C14.2006 7.95225 14.621 8.56671 16.8849 13.0297ZM11.0959 11.5744C10.5138 12.7063 9.86701 13.8382 9.64063 14.0969C9.44659 14.3556 8.44404 16.1343 7.44149 18.0424C4.75725 23.0875 2.2347 27.033 1.71726 27.033C1.13513 27.033 1.39386 26.2245 2.59045 24.2841C3.23725 23.2169 4.27214 21.3411 4.88661 20.1122C5.50107 18.8833 6.2449 17.4926 6.5683 17.0399C6.85937 16.5871 7.95894 14.8731 9.02617 13.2884C10.0611 11.6714 11.1283 10.119 11.387 9.79564C12.2602 8.72841 12.1308 9.53692 11.0959 11.5744ZM18.8576 22.9258C20.1836 25.9658 20.4423 26.839 20.1189 27.2271C19.9248 27.4858 19.6338 27.6798 19.5044 27.6798C19.3427 27.6798 18.7606 26.4832 18.2108 24.9956C17.6287 23.5403 16.7555 21.4705 16.2704 20.4033C15.7853 19.336 14.8474 17.0075 14.1683 15.2288C13.5215 13.4501 12.81 11.7037 12.5836 11.348C12.3572 10.9922 12.2602 10.4101 12.3572 10.0544C12.5189 9.34288 15.85 15.9726 18.8576 22.9258ZM13.8449 15.5846C14.6534 17.6867 15.4295 19.6918 15.6236 19.9828C15.8176 20.3062 16.5291 22.0526 17.2406 23.8637C19.0517 28.4883 18.9546 28.3266 20.1836 27.8415C20.6363 27.6798 20.6687 28.1649 20.5393 32.2722C20.4746 34.827 20.3453 36.9615 20.2482 37.0585C20.0219 37.2849 18.3078 35.1504 17.564 33.7598C16.9172 32.5632 16.9172 32.5632 17.564 31.496C17.9197 30.9139 18.2108 30.2347 18.2108 30.0083C18.2108 29.2322 17.5317 29.6202 17.0789 30.6551L16.6261 31.7224L16.5291 29.9436C16.4644 28.6177 16.3027 28.1649 15.947 28.1649C15.2678 28.1649 15.1708 29.4585 15.7529 30.3317C16.5291 31.4313 16.3674 31.6577 15.3002 31.0432C14.7827 30.7198 14.233 30.5905 14.1036 30.7198C13.8125 31.0109 15.1708 32.2075 15.7853 32.2075C16.2381 32.2075 18.0491 35.0534 17.7904 35.3121C17.7257 35.4092 17.0142 35.3121 16.2381 35.1504C14.8151 34.827 14.0713 35.0858 14.4593 35.7326C14.7504 36.1853 15.85 36.1853 16.1087 35.7649C16.2381 35.5709 16.4644 35.5062 16.6261 35.6032C16.7878 35.7326 16.7232 36.0883 16.4321 36.5087C15.9146 37.2526 15.7853 38.3521 16.2381 38.3521C16.7555 38.3521 17.3053 37.3819 17.1112 36.8321C16.9172 36.347 17.37 35.7972 17.9844 35.7649C18.1138 35.7649 18.6636 36.25 19.2134 36.7998C20.0865 37.77 20.1512 38.0287 20.1512 40.2925C20.1512 41.6185 20.0219 42.9121 19.8602 43.1385C19.6338 43.4942 18.2108 43.5589 12.3572 43.3972C8.37936 43.3002 4.04576 43.1062 2.75215 43.0091L0.358967 42.7827L0.585349 39.0313C0.811732 34.7624 0.941093 34.1479 1.55556 34.1479C2.04066 34.1479 2.36407 34.8594 2.36407 35.9589C2.36407 36.3794 2.49343 36.7351 2.65513 36.7351C3.14023 36.7351 3.33427 35.7972 3.01087 34.9564C2.71981 34.2449 2.78449 34.1479 3.49598 34.1479C4.04576 34.1479 4.30448 34.3419 4.36916 34.8594C4.43385 35.3445 4.72491 35.6355 5.21001 35.7002C5.79214 35.7972 5.95384 35.7002 5.85682 35.2151C5.72746 34.4713 4.30448 33.7921 2.75215 33.7275C2.10534 33.6951 1.45854 33.5011 1.32918 33.3394C1.19982 33.1453 1.07045 31.7547 1.07045 30.2024C1.07045 27.5505 1.10279 27.3888 1.78194 27.2917C2.20236 27.2271 2.81683 26.6449 3.30193 25.8364C6.11554 21.2764 6.92405 19.8535 8.02362 17.816C10.7079 12.868 11.8074 11.1216 12.0985 11.4127C12.2925 11.6067 13.0687 13.4501 13.8449 15.5846ZM48.8047 29.7496C48.6754 33.1453 48.5137 36.7675 48.3843 37.77L48.2226 39.6134L46.3792 39.8074C45.3767 39.9045 44.1801 40.0985 43.695 40.1632L42.7894 40.3572L42.7248 36.347L42.6601 32.3692L42.5631 36.3147C42.4337 40.6806 42.5631 40.4542 39.9435 40.81L38.3588 41.004L38.1648 38.3198C38.0354 36.8321 37.9384 34.4066 37.9384 32.919V30.2671H38.8439C39.329 30.2671 40.2669 30.17 40.9137 30.073C42.0779 29.879 42.1103 29.879 42.2397 31.1079L42.369 32.3692L42.4014 30.9785L42.466 29.6202H40.7843C39.8465 29.6202 38.7146 29.7173 38.2941 29.8466L37.518 30.0407L37.6473 35.5709L37.7767 41.1011L35.8363 41.3274C34.769 41.4568 32.2142 41.7802 30.1767 42.0713C25.261 42.7181 20.6687 43.1708 20.507 43.0091C20.3453 42.8474 21.1214 27.5828 21.3155 27.3888C21.5095 27.1947 32.2142 25.3513 32.6669 25.4483C32.7963 25.4807 33.152 25.416 33.4108 25.319C33.9605 25.0926 40.5256 24.2194 45.0209 23.799C46.7026 23.6049 48.1256 23.4109 48.2226 23.3139C48.3196 23.2492 48.5137 23.2492 48.7077 23.3786C48.9018 23.5079 48.9341 25.7394 48.8047 29.7496Z" fill="#C21807"/>
<path d="M9.67321 23.217C9.38214 23.605 9.15576 24.1872 9.15576 24.4459C9.15576 25.0927 10.32 26.3863 10.9021 26.3863C11.743 26.3863 12.8102 25.2221 12.8102 24.2842C12.8102 22.6025 10.6111 21.8587 9.67321 23.217ZM10.7728 23.4757C10.7728 23.8314 10.5464 24.1225 10.2877 24.1225C9.80257 24.1225 9.60853 23.4433 10.0289 23.0553C10.417 22.6348 10.7728 22.8289 10.7728 23.4757ZM12.3251 23.7021C12.3898 23.9608 12.1634 24.1225 11.7753 24.1225C11.3872 24.1225 11.0962 23.9284 11.0962 23.605C11.0962 23.0229 12.0987 23.1199 12.3251 23.7021ZM10.7728 25.125C10.7728 25.9012 10.0289 25.8042 9.86725 24.9957C9.80257 24.6723 9.96427 24.4459 10.2553 24.4459C10.5787 24.4459 10.7728 24.7369 10.7728 25.125ZM12.0664 25.2544C11.84 25.5131 11.5489 25.7395 11.3872 25.7395C11.2255 25.7395 11.0962 25.5131 11.0962 25.2544C11.0962 24.9633 11.3872 24.7693 11.7753 24.7693C12.3575 24.7693 12.3898 24.834 12.0664 25.2544Z" fill="#C21807"/>
<path d="M3.23718 28.553C3.14016 28.7147 2.97846 29.3291 2.8491 29.9436C2.71973 30.5581 2.33165 31.4959 1.97591 32.0457L1.3291 33.0159L2.16995 32.0457C2.81676 31.3019 3.07548 31.1725 3.39888 31.4959C3.88398 31.9811 5.27462 32.0134 5.27462 31.5606C5.27462 31.3666 4.88653 31.0755 4.43377 30.9138C3.43122 30.5257 3.68994 29.9436 4.91887 29.9436C5.75972 29.9436 6.56823 29.4262 6.56823 28.9087C6.56823 28.4883 5.63036 28.6177 4.78951 29.1674C4.01335 29.6849 3.98101 29.6526 3.98101 29.0057C3.98101 28.3589 3.52824 28.0679 3.23718 28.553Z" fill="#C21807"/>
<path d="M8.83219 34.0187C8.63815 34.4714 8.50879 35.3769 8.50879 36.0561C8.50879 37.285 8.50879 37.285 10.0288 37.4791C10.902 37.5761 11.6781 37.5761 11.8075 37.4791C11.9692 37.4144 12.0662 36.4118 12.0662 35.3123V33.2748L10.6109 33.2425C9.3173 33.2101 9.09091 33.3072 8.83219 34.0187ZM10.1258 34.2774C10.1258 34.8595 9.60836 35.2152 9.15559 34.9565C8.73517 34.6978 9.12325 33.8246 9.67304 33.8246C9.93176 33.8246 10.1258 34.0187 10.1258 34.2774ZM11.7428 34.4714C11.7428 34.8918 11.5164 35.1182 11.096 35.1182C10.6756 35.1182 10.4492 34.8918 10.4492 34.4714C10.4492 34.051 10.6756 33.8246 11.096 33.8246C11.5164 33.8246 11.7428 34.051 11.7428 34.4714ZM10.0611 36.1531C9.89942 37.2527 8.83219 37.3497 8.83219 36.2825C8.83219 35.6357 8.99389 35.4416 9.51134 35.4416C9.99644 35.4416 10.1581 35.6033 10.0611 36.1531ZM11.7428 36.2501C11.7428 36.8323 11.5811 37.0586 11.096 37.0586C10.6109 37.0586 10.4492 36.8323 10.4492 36.2501C10.4492 35.668 10.6109 35.4416 11.096 35.4416C11.5811 35.4416 11.7428 35.668 11.7428 36.2501Z" fill="#C21807"/>
<path d="M28.2361 31.2051L27.1042 31.3991L27.0072 33.7276L26.9102 36.0885H27.848C28.3655 36.0885 29.271 35.9914 29.8208 35.8944L30.8557 35.668L30.7587 33.3719C30.6616 30.817 30.5646 30.7523 28.2361 31.2051ZM30.4999 32.0459C30.4999 32.628 30.3382 32.8544 29.8531 32.8544C29.2063 32.8544 28.9476 31.9489 29.4327 31.4638C29.9178 30.9463 30.4999 31.2697 30.4999 32.0459ZM28.8829 32.2076C28.8829 32.9838 28.0421 33.4365 27.5246 32.9191C27.0072 32.4017 27.4599 31.5608 28.2361 31.5608C28.6565 31.5608 28.8829 31.7872 28.8829 32.2076ZM28.8182 34.5361C28.7536 35.3446 28.5595 35.6033 28.0744 35.6033C27.5893 35.6033 27.3953 35.3446 27.3306 34.5361C27.2336 33.5982 27.2982 33.5012 28.0744 33.5012C28.8506 33.5012 28.9153 33.5982 28.8182 34.5361ZM30.4999 34.5038C30.4999 35.2799 30.3706 35.474 29.9501 35.377C29.5944 35.3123 29.3357 34.9242 29.271 34.3744C29.174 33.6629 29.3033 33.5012 29.8208 33.5012C30.3706 33.5012 30.4999 33.6953 30.4999 34.5038Z" fill="#C21807"/>
<path d="M39.879 31.205C39.1998 31.399 39.0704 31.6254 39.0381 32.6279C39.0058 33.7599 39.0381 33.8245 40.0407 33.8245C40.9138 33.8245 41.1402 33.6952 41.2696 32.9837C41.4313 32.0782 41.2372 30.8816 40.8815 30.9462C40.7845 30.9786 40.3317 31.0756 39.879 31.205ZM40.8492 31.8518C40.8492 32.0458 40.7198 32.2722 40.5258 32.3692C40.3641 32.4662 40.2024 32.3369 40.2024 32.0782C40.2024 31.7871 40.3641 31.5607 40.5258 31.5607C40.7198 31.5607 40.8492 31.6901 40.8492 31.8518ZM40.8492 32.9837C40.8492 33.0807 40.7198 33.2424 40.5258 33.3394C40.3641 33.4365 40.2024 33.3718 40.2024 33.2101C40.2024 33.016 40.3641 32.8543 40.5258 32.8543C40.7198 32.8543 40.8492 32.919 40.8492 32.9837Z" fill="#C21807"/>
<path d="M38.9087 35.765C38.9087 35.9267 39.0704 36.0885 39.2321 36.0885C39.4261 36.0885 39.5555 35.9267 39.5555 35.765C39.5555 35.571 39.4261 35.4416 39.2321 35.4416C39.0704 35.4416 38.9087 35.571 38.9087 35.765Z" fill="#C21807"/>
</svg>
