<svg width="61" height="34" viewBox="0 0 61 34" fill="none" xmlns="http://www.w3.org/2000/svg">
<path d="M8.79097 0.0941887C8.79097 0.219772 9.01075 0.34536 9.29331 0.34536C9.57588 0.34536 9.73286 0.502342 9.63867 0.722115C9.54448 0.941891 8.91656 2.48031 8.22584 4.11292C7.56652 5.74553 6.09089 9.01075 4.96062 11.3341C3.86175 13.6574 2.73148 16.0435 2.48031 16.5773C2.22914 17.2052 1.82099 17.6133 1.44423 17.6133C1.09887 17.6133 0.94189 17.4564 1.03608 17.2052C1.13027 17.0168 1.82099 15.2586 2.6059 13.3748C3.35941 11.4597 4.14432 9.54448 4.36409 9.13633C4.70945 8.41422 4.70945 8.41422 4.2699 8.91656C4.01873 9.26192 3.07684 11.3341 2.16635 13.5946C0.94189 16.7028 0.627927 17.7389 0.94189 17.9273C1.16166 18.0529 2.82567 18.1785 4.67805 18.2099C8.00606 18.2413 13.783 18.5238 15.5412 18.7436C16.0749 18.8064 21.6635 18.932 28.0369 19.0576L39.5594 19.2773V23.1705C39.5594 25.274 39.4652 27.0322 39.3396 27.0322C39.1826 27.0322 38.3977 26.4985 37.5186 25.8392C36.1372 24.8031 35.9488 24.5205 36.043 23.6728C36.1686 22.5112 35.6348 21.3809 35.0069 21.3809C33.7511 21.3809 35.2895 24.9601 36.9221 25.8706C37.1733 25.9962 37.3616 26.2473 37.3616 26.4043C37.3616 26.9067 36.2 26.7497 35.7604 26.1845C35.0383 25.3368 32.5894 23.8926 31.8045 23.8926C30.9254 23.8926 30.9254 24.0182 31.7417 25.1799C32.2754 25.9334 32.5894 26.0903 33.7197 26.0903C34.4732 26.0903 35.2581 26.2787 35.4465 26.4985C35.729 26.8439 35.5406 27.0008 34.5674 27.2834C33.1545 27.723 30.5172 30.3602 31.0196 30.8626C31.5219 31.3649 32.9975 30.3916 34.1906 28.7904C35.729 26.7497 36.2314 26.8439 35.3209 29.0102C34.7243 30.4544 34.7243 31.1138 35.3209 31.1138C36.0116 31.1138 37.0477 29.2614 37.0477 28.0369C37.0477 27.1892 37.1733 27.0322 37.7698 27.0322C39.3082 27.0322 39.5908 27.5974 39.4966 30.4858L39.4024 33.1545H28.7276C16.9854 33.1231 1.09887 32.6208 0.722116 32.2754C0.690719 32.2126 0.627927 31.208 0.565134 30.0149C0.470945 27.9741 0.502341 27.8171 1.16166 27.723C1.60121 27.6602 1.88378 27.8171 2.04076 28.2567C2.22914 28.916 4.20711 30.7998 4.70945 30.7998C5.74553 30.7998 4.42688 28.1939 3.13963 27.6602C2.6059 27.4404 2.22914 27.095 2.29193 26.9067C2.48031 26.3101 3.54779 26.3101 3.95594 26.8753C4.39549 27.4718 6.90719 28.0683 7.6921 27.7858C8.91656 27.3148 6.68742 25.7764 4.74085 25.7764L3.92454 25.745L5.02341 24.8345C5.77692 24.2066 6.46764 23.8926 7.25255 23.8926C8.38282 23.8926 10.3608 22.8251 10.612 22.0716C10.9259 21.1297 7.91187 22.1344 5.9967 23.6414C5.58855 23.9554 5.18039 24.1438 5.1176 24.081C5.02341 24.0182 5.21179 23.2647 5.49436 22.4484C5.9967 20.9727 5.93391 20.125 5.36877 20.125C4.80364 20.125 3.76756 22.5426 3.76756 23.7984C3.76756 24.4577 3.64197 25.1485 3.51639 25.3368C3.23382 25.8078 0.94189 27.3462 0.565134 27.3462C0.376756 27.3462 0.282567 25.5566 0.376756 22.7937C0.408152 20.282 0.376756 18.2413 0.251171 18.2413C0.094189 18.2413 0 21.4751 0 25.4624V32.6836L0.722116 32.8406C3.61058 33.4685 42.4164 33.8452 55.2575 33.3429L60.4379 33.1545L60.5321 30.7684C60.6263 28.6021 60.5635 28.3509 59.9984 28.1939C59.653 28.1311 59.0879 28.2567 58.7425 28.5079C57.989 29.0102 57.9262 28.8532 58.46 28.0055C59.0565 27.0322 58.5542 26.3729 57.2355 26.3729C53.9389 26.3415 54.0331 26.3729 53.9075 25.3368C53.8447 24.8031 53.7505 25.274 53.7191 26.4043C53.6563 28.8218 53.3738 32.0557 53.2168 32.5894C53.1226 32.8406 52.5575 32.9975 51.8039 32.9975C50.6423 32.9975 50.5481 32.9347 50.5167 32.1184L50.4853 31.2707L50.2655 32.2126C50.0771 33.0917 49.983 33.1545 48.4445 33.2487L46.8119 33.3429L46.6863 31.5219L46.5922 29.7009L46.5294 31.5219L46.4666 33.3429L43.2641 33.2487L40.0303 33.1545L39.9361 26.2787C39.8733 19.8739 39.9047 19.3401 40.4699 18.7436C40.7838 18.3669 42.5106 15.2272 44.3002 11.7108C47.2201 5.9967 47.5968 5.40017 48.005 5.90251C48.7899 6.93859 50.0144 9.88984 51.5214 14.3167C52.4947 17.2052 53.1854 18.7436 53.4993 18.8064C53.9075 18.9006 54.0017 19.3715 54.0017 21.0983C54.0017 22.3856 54.1273 23.2647 54.3157 23.2647C54.8494 23.2647 59.496 26.0276 60.0926 26.6869C60.4065 27.0322 60.5635 27.4718 60.4065 27.6916C60.281 27.9427 60.3123 28.0055 60.5321 27.8485C60.7519 27.723 60.9089 27.0322 60.9089 26.3101C60.9089 24.9915 60.8775 24.9601 58.4914 23.3589C54.661 20.8158 54.3784 20.5018 54.4098 18.8692C54.4412 17.2052 51.1132 7.84908 48.9469 3.35941L47.5654 0.533737L31.0824 0.439548C22.0088 0.408154 13.2806 0.251171 11.7108 0.0941887C10.1096 -0.031395 8.79097 -0.031395 8.79097 0.0941887ZM10.5178 2.22914C10.0782 3.07684 9.3875 4.64666 8.97935 5.74553C8.5712 6.8444 7.6921 8.79097 7.06417 10.0782C6.40485 11.3655 5.61994 13.1237 5.27458 14.0028C4.14432 16.9226 3.70477 17.6133 3.10824 17.6133C2.76288 17.6133 2.51171 17.5505 2.51171 17.4878C2.51171 17.268 4.67805 12.5585 5.80832 10.3608C6.40485 9.19912 7.31534 7.18976 7.84908 5.87111C9.3875 1.97797 10.298 0.34536 10.8317 0.533737C11.2085 0.69072 11.1457 0.973286 10.5178 2.22914ZM12.8725 0.784908C12.8725 0.847702 12.3702 1.78959 11.7736 2.85707C11.1457 3.95594 10.7061 4.89783 10.8003 4.96062C10.8631 5.05481 11.4597 4.11292 12.0876 2.88846C12.7469 1.66401 13.469 0.659321 13.6888 0.659321C14.3167 0.659321 14.2539 1.09887 13.312 2.88846C12.8725 3.76756 11.3969 7.00138 10.0782 10.0468C6.813 17.3936 6.53044 17.9273 6.09089 17.9273C5.33738 17.9273 5.40017 17.4564 6.31066 15.447C6.813 14.3481 7.18976 13.3748 7.12697 13.312C7.06417 13.2493 6.56183 14.1911 5.9967 15.4156C5.43156 16.7342 4.83503 17.6133 4.55247 17.6133C4.01873 17.6133 3.95594 17.268 4.33269 16.797C4.48968 16.6401 4.92922 15.6668 5.33738 14.6307C5.74553 13.5946 6.75021 11.3969 7.56652 9.76426C8.35142 8.13165 9.13633 6.46764 9.26192 6.05949C9.3875 5.65134 9.95264 4.2699 10.5492 2.98265C11.3655 1.19306 11.7422 0.659321 12.2446 0.659321C12.5899 0.659321 12.8725 0.722115 12.8725 0.784908ZM16.0121 0.784908C16.0121 0.847702 15.1644 2.73148 14.097 4.96062C13.0295 7.15836 11.5538 10.612 10.7689 12.5899C8.79097 17.5819 8.60259 17.9273 7.6921 17.9273C6.71881 17.9273 6.71881 17.9273 7.6921 16.0435C8.13165 15.1958 9.29331 12.6213 10.3294 10.3294C14.2853 1.44423 14.6935 0.659321 15.3842 0.659321C15.7296 0.659321 16.0121 0.722115 16.0121 0.784908ZM17.5819 1.09887C17.5819 1.35004 17.0796 2.51171 16.4831 3.67337C14.8819 6.8444 10.6434 16.4203 10.7689 16.5773C10.8317 16.6401 11.2713 15.8865 11.7108 14.8819C17.4878 1.94657 18.1471 0.659321 18.6808 0.847702C18.932 0.973286 19.1518 1.06747 19.1518 1.09887C19.1518 1.25585 16.6401 6.96998 15.5412 9.29331C14.8819 10.6748 14.1911 12.3074 13.9714 12.9039C12.9039 15.9179 11.805 17.9273 11.2399 17.9273C10.9259 17.9273 10.6748 17.7075 10.6748 17.3622C10.6434 16.8598 10.6434 16.8598 10.3294 17.3622C9.95264 18.0215 9.10494 18.1157 9.10494 17.5191C9.10494 17.2994 9.29331 16.8598 9.54448 16.5145C9.76426 16.1691 10.2038 15.1016 10.5178 14.1597C11.2399 11.8992 15.761 1.85238 16.3889 1.03608C16.8284 0.533737 17.5819 0.565132 17.5819 1.09887ZM21.0355 1.16166C21.0355 1.44423 20.0623 3.76756 18.8378 6.31066C17.6447 8.85377 15.9493 12.5271 15.1016 14.5051C13.8772 17.425 13.4376 18.1157 12.8725 18.1785C12.3074 18.2727 12.1818 18.1785 12.3388 17.7075C12.5899 16.8912 14.5365 12.3702 16.4517 8.19444C17.3622 6.21647 18.3669 3.95594 18.6808 3.17103C19.4657 1.19306 21.0355 -0.125587 21.0355 1.16166ZM23.2333 1.16166C23.2333 1.28725 21.3181 5.36877 19.089 10.0782C18.3041 11.7108 17.111 14.2225 16.4831 15.6354C15.604 17.5192 15.133 18.2413 14.6935 18.2413C14.3795 18.2413 14.1283 18.1157 14.1283 17.9273C14.1283 17.7703 14.7563 16.2005 15.5412 14.4737C16.3261 12.7469 16.954 11.2713 16.954 11.1771C16.954 11.1143 17.8645 9.13633 18.9948 6.78161C20.125 4.45828 21.0355 2.44891 21.0355 2.29193C21.0355 1.63261 22.0088 0.722115 22.6054 0.879097C22.9507 0.973286 23.2333 1.09887 23.2333 1.16166ZM24.238 4.14432C23.4217 5.87111 21.5693 9.73286 20.0937 12.6841C17.6761 17.5192 17.2994 18.0843 16.5459 18.1785C15.6982 18.2727 15.4784 17.9901 15.9807 17.425C16.1377 17.268 16.7656 16.0121 17.3622 14.6307C17.9587 13.2493 19.4343 10.0782 20.6274 7.56651C21.8204 5.05481 22.9821 2.5431 23.2019 1.97797C23.5472 1.13027 23.767 0.973286 24.6775 0.973286H25.7136L24.238 4.14432ZM27.9427 1.22446C27.9427 1.35004 27.5032 2.16635 26.9694 3.04544C25.7764 4.89783 19.4657 17.6447 19.4657 18.1785C19.4657 18.3982 19.1204 18.5552 18.6808 18.5552C18.2413 18.5552 17.8959 18.3982 17.8959 18.2099C17.8959 18.0215 18.8692 15.9179 20.0623 13.5632C21.2553 11.2085 23.1391 7.40953 24.2066 5.1176C26.0276 1.22446 26.2159 0.973286 27.0636 0.973286C27.5346 0.973286 27.9427 1.09887 27.9427 1.22446ZM29.6695 2.6059C29.23 3.51639 28.7276 4.52107 28.5707 4.80364C28.4137 5.0862 27.7544 6.37346 27.1264 7.62931C26.4671 8.88516 25.6508 10.4236 25.274 11.0201C24.8973 11.6166 23.8298 13.5632 22.9507 15.3214C21.5379 18.1157 21.1925 18.5552 20.5332 18.5552C19.4657 18.5552 19.4971 18.461 23.3903 10.7061C28.4765 0.596531 28.2567 0.973286 29.4498 0.973286H30.4544L29.6695 2.6059ZM32.9661 1.06747C32.9661 1.22446 28.1311 9.82705 26.059 13.3748C25.1485 14.9133 24.1438 16.7342 23.7984 17.3622C23.4217 18.1471 23.0135 18.5552 22.6054 18.5552C22.26 18.5552 21.9774 18.4296 21.9774 18.2727C21.9774 18.1157 23.3275 15.4784 24.9915 12.3702C26.6241 9.29331 28.6335 5.46296 29.4184 3.86175C30.7998 1.06747 30.8626 0.973286 31.8987 0.973286C32.4952 0.973286 32.9661 1.03608 32.9661 1.06747ZM35.1639 1.09887C35.1639 1.19306 34.2534 2.91986 33.1545 4.96062C29.9207 10.9259 28.8846 12.9981 29.0102 13.1237C29.073 13.2179 30.1719 11.3027 31.3963 8.91656C34.7243 2.5745 35.5092 1.25585 36.0116 1.06747C36.2314 0.973286 36.5139 0.973286 36.5767 1.03608C36.6709 1.13027 35.2581 4.2385 33.4371 7.97467C31.6161 11.7108 30.1405 14.8819 30.1719 15.0074C30.1719 15.1644 31.7417 12.0876 33.6883 8.19444C36.5767 2.41752 37.3302 1.09887 37.9268 1.03608C38.3035 0.973286 38.6175 1.00468 38.6175 1.09887C38.6175 1.25585 36.1686 6.27927 34.1906 10.2038C33.8452 10.8631 33.6255 11.4911 33.7197 11.5538C33.7825 11.6166 35.0383 9.32471 36.4511 6.40485C38.8373 1.66401 39.1826 1.13027 39.9675 1.03608C40.4385 0.973286 40.8152 1.00468 40.8152 1.09887C40.8152 1.19306 40.4071 1.94657 39.9047 2.79427C38.6489 4.92922 34.4104 13.1551 33.2801 15.604C31.6161 19.3087 32.6208 17.6761 35.1953 12.4957C39.1198 4.58386 41.192 1.00468 41.8513 0.973286C42.1339 0.973286 42.385 1.03608 42.385 1.09887C42.385 1.16166 41.7571 2.5431 40.9722 4.17571C39.0256 8.28863 39.214 8.44561 41.2548 4.42688C42.5106 1.94657 43.0758 1.09887 43.5781 1.03608C43.9549 0.973286 44.2688 1.03608 44.2688 1.19306C44.2688 1.31865 42.3536 5.24319 40.0303 9.88984C37.707 14.5365 35.9488 18.2099 36.0744 18.0529C36.5139 17.5819 40.6269 9.73286 41.5687 7.56651C43.0444 4.2699 44.9281 0.973286 45.3677 0.973286C45.6503 0.973286 45.2735 2.07216 44.2374 4.33269C43.3897 6.21647 42.542 7.97467 42.3536 8.28863C42.1653 8.63399 42.1025 8.94795 42.1967 9.04214C42.2909 9.13633 43.2327 7.37814 44.3002 5.0862C45.4933 2.5745 46.4352 0.973286 46.7177 0.973286C47.3771 0.973286 47.0317 2.00937 44.5514 7.56651C41.8513 13.5004 41.8827 13.469 42.3223 13.0609C42.5106 12.8725 43.3897 11.1143 44.2688 9.13633C45.1479 7.15836 45.9956 5.24319 46.1526 4.89783C46.3096 4.55247 46.6236 3.83035 46.8433 3.32801L47.2201 2.38612L47.3457 3.4536C47.4399 4.2699 46.8119 5.77692 44.3944 10.6748C40.1559 19.1832 40.8152 18.461 37.2047 18.5238C35.572 18.5552 34.222 18.4924 34.222 18.3982C34.222 18.2099 35.6348 15.5412 37.3616 12.4957C37.9268 11.4911 38.3035 10.612 38.2093 10.5178C38.0524 10.3608 37.1733 11.9306 34.7871 16.5773C34.0022 18.1471 33.6255 18.5552 33.0603 18.5552C32.6522 18.5552 32.3382 18.3669 32.3382 18.1471C32.3382 17.8645 32.2754 17.8645 32.0557 18.1785C31.9301 18.4296 31.4905 18.5552 31.1138 18.4924C30.4858 18.3982 30.5172 18.2413 32.0243 15.29C32.9034 13.5632 33.5313 12.119 33.4685 12.0562C33.4057 11.962 32.5894 13.4062 31.6789 15.2272C30.2661 17.9901 29.8893 18.5552 29.2928 18.5552H28.5707L29.3556 16.9854C30.3916 14.9447 30.1091 14.9447 29.0102 16.954L28.1939 18.5238H25.8706H23.5472L24.0496 17.5191C24.3636 16.954 24.8973 16.0121 25.274 15.4156C25.6508 14.8191 27.566 11.4911 29.5126 8.03746C31.4591 4.58386 33.1859 1.56982 33.3429 1.35004C33.6569 1.00468 35.1639 0.784908 35.1639 1.09887ZM48.9783 4.33269C49.9202 6.34206 54.0017 17.7075 54.0017 18.3355C54.0017 18.4924 53.8447 18.5552 53.6563 18.4924C53.3424 18.3982 52.4319 16.0121 51.2074 12.2446C50.4853 9.95264 49.983 8.79097 48.7585 6.40485C48.162 5.27458 47.7224 3.95594 47.7224 3.32801C47.7224 2.73148 47.7852 2.22914 47.848 2.22914C47.9108 2.22914 48.4131 3.17103 48.9783 4.33269ZM57.6751 23.3589C59.0565 24.3322 60.3123 25.3682 60.4065 25.6194C60.6577 26.2787 60.5949 26.2473 57.8634 24.6147C54.818 22.8251 54.3157 22.3856 54.3157 21.6321C54.3157 20.9414 54.1901 20.8786 57.6751 23.3589ZM55.8227 27.2834C56.2936 26.9067 56.325 26.938 55.9169 27.4404C55.6657 27.7544 55.2261 27.9427 54.8808 27.8799C54.504 27.7544 54.3157 27.8799 54.2843 28.2253C54.2843 28.5707 54.2215 28.6335 54.0959 28.3509C54.0017 28.1311 54.1901 27.566 54.504 27.095C55.1006 26.2473 55.1006 26.2473 55.1947 26.9694C55.2889 27.5974 55.3831 27.6288 55.8227 27.2834ZM58.3972 26.938C58.3972 27.095 58.2716 27.3776 58.146 27.5974C57.8634 28.0055 56.8274 27.7858 56.8274 27.3148C56.8274 27.1892 57.0471 27.1578 57.3611 27.252C57.7065 27.3776 57.8006 27.3462 57.6437 27.095C57.5181 26.8753 57.6123 26.7183 57.8948 26.7183C58.1774 26.7183 58.3972 26.8125 58.3972 26.938ZM56.5134 28.2253C56.5134 28.6335 56.1366 28.916 55.8227 28.7276C55.5087 28.5393 55.7913 27.9741 56.2308 27.9741C56.3878 27.9741 56.5134 28.0997 56.5134 28.2253ZM59.8728 29.3242C60.2182 29.1986 60.3123 29.2614 60.2182 29.5753C60.124 29.8265 59.81 30.0777 59.4646 30.1405C59.1507 30.2033 58.7111 30.4858 58.4914 30.7684C58.146 31.2393 58.1146 31.2393 58.0832 30.7056C58.0832 30.423 58.2402 30.1719 58.3972 30.1719C58.5856 30.1719 58.7111 29.9207 58.7111 29.6067C58.7111 28.8532 59.1507 28.4137 59.2763 29.0416C59.3391 29.3242 59.5588 29.4498 59.8728 29.3242ZM57.7379 29.8893C57.3611 30.6114 56.482 30.58 56.2622 29.8579C56.1366 29.4498 56.168 29.4498 56.6076 29.7951C57.0157 30.1405 57.1099 30.1091 57.2983 29.5439C57.3925 29.1986 57.6437 28.9788 57.8006 29.073C57.9576 29.1986 57.9576 29.5125 57.7379 29.8893ZM55.5715 29.6695C55.5715 29.7637 55.132 30.1405 54.5982 30.5172C53.6877 31.1452 53.6249 31.1452 53.7505 30.6114C53.8133 30.2661 54.0959 30.0463 54.3784 30.1091C54.661 30.1405 54.975 30.0463 55.1006 29.8579C55.2889 29.5439 55.5715 29.4184 55.5715 29.6695ZM56.3564 30.5172C56.6704 30.9882 56.325 31.2393 55.7285 30.9882C55.4459 30.894 55.3203 30.6742 55.4145 30.4858C55.6657 30.0777 56.1052 30.0777 56.3564 30.5172ZM60.281 31.1138C60.281 31.6475 60.124 31.7103 59.5274 31.5533C58.9937 31.4277 58.7111 31.5219 58.6169 31.8673C58.4914 32.2754 58.46 32.2754 58.5228 31.8359C58.5228 31.5219 58.8995 31.1138 59.3391 30.894C60.3437 30.3916 60.281 30.3602 60.281 31.1138ZM57.7692 31.9301C57.7692 32.4952 57.6123 32.6836 57.0785 32.6836C56.4192 32.6836 56.4192 32.6836 57.0157 32.1812C57.6123 31.7103 57.5809 31.7103 56.9215 31.8359C56.0738 32.0243 55.9797 31.5847 56.7332 31.1452C57.4553 30.7684 57.7692 30.9882 57.7692 31.9301ZM59.496 32.0557C59.5902 32.2126 59.5274 32.3696 59.3705 32.3696C59.1821 32.3696 59.0251 32.2126 59.0251 32.0557C59.0251 31.8673 59.0879 31.7417 59.1507 31.7417C59.2449 31.7417 59.4019 31.8673 59.496 32.0557ZM54.1587 32.3696C54.2529 32.5266 54.1901 32.6836 54.0331 32.6836C53.8447 32.6836 53.6877 32.5266 53.6877 32.3696C53.6877 32.1812 53.7505 32.0557 53.8133 32.0557C53.9075 32.0557 54.0645 32.1812 54.1587 32.3696ZM55.9797 32.2754C56.0738 32.4324 55.7913 32.558 55.3517 32.5894C54.7552 32.6208 54.661 32.558 54.975 32.3382C55.5087 31.9929 55.7913 31.9929 55.9797 32.2754Z" fill="#C21807"/>
<path d="M8.79074 8.97937C7.88024 10.9887 7.22092 12.7155 7.31511 12.7783C7.4093 12.8725 7.56628 12.6213 7.69187 12.2132C7.81745 11.805 8.57096 10.1724 9.32447 8.57121C10.1094 6.97 10.6745 5.58856 10.5803 5.49437C10.5175 5.40019 9.70123 7.0014 8.79074 8.97937Z" fill="#C21807"/>
<path d="M38.806 8.79081C38.0839 10.1409 38.1781 10.4234 38.963 9.16757C39.3083 8.60244 39.5281 8.0687 39.4339 7.97451C39.3711 7.88032 39.0572 8.25708 38.806 8.79081Z" fill="#C21807"/>
<path d="M41.255 10.5805C40.9724 11.2398 40.2189 12.7155 39.591 13.8457C38.3665 16.0749 37.3304 18.2412 37.5188 18.2412C37.77 18.2412 42.1341 9.70141 41.9457 9.54443C41.8515 9.45024 41.5375 9.88979 41.255 10.5805Z" fill="#C21807"/>
<path d="M27.5033 15.6041C25.9649 18.3042 26.1533 18.4926 27.7545 15.8553C28.4138 14.725 28.9162 13.7517 28.822 13.689C28.7592 13.6262 28.1627 14.4739 27.5033 15.6041Z" fill="#C21807"/>
<path d="M40.8154 15.7296C40.2188 16.9227 39.8421 17.9901 39.9363 18.0843C40.0305 18.1785 40.5328 17.2366 41.0979 16.0122C42.3852 13.0923 42.1968 12.9039 40.8154 15.7296Z" fill="#C21807"/>
<path d="M6.90722 2.85698C6.40488 3.89306 5.96533 4.83495 5.96533 4.96054C5.96533 5.2745 7.50375 2.63721 7.88051 1.66392C8.41425 0.313879 7.84911 1.0046 6.90722 2.85698Z" fill="#C21807"/>
<path d="M46.7808 16.3573C46.4354 16.5771 46.6866 16.6713 47.6599 16.6713C48.7901 16.6713 49.0099 16.7654 48.9157 17.205C48.7901 17.8329 47.1889 18.0841 46.561 17.5504C46.247 17.2992 46.1528 17.3934 46.1528 18.0527C46.1528 18.8062 46.2156 18.8376 46.7808 18.4922C47.3145 18.1469 47.4715 18.1783 47.7226 18.555C47.911 18.869 48.0366 18.9004 48.0366 18.6178C48.0366 18.4295 48.3192 18.2411 48.6645 18.2411C49.1669 18.2411 49.2925 18.0213 49.2925 17.1422C49.2925 16.1061 49.2297 16.0433 48.2878 16.0433C47.7226 16.0433 47.0319 16.2003 46.7808 16.3573Z" fill="#C21807"/>
<path d="M48.9784 19.026C48.9784 19.3714 48.6016 19.497 47.5027 19.5284C46.0585 19.5598 46.0585 19.5598 47.0318 19.8109C48.4132 20.1249 49.2923 19.8737 49.2923 19.1516C49.2923 18.8063 49.2295 18.5551 49.1354 18.5551C49.0412 18.5551 48.9784 18.7749 48.9784 19.026Z" fill="#C21807"/>
<path d="M15.8866 22.2287C15.7924 22.3543 15.6982 23.516 15.6982 24.866V27.2835L17.3622 27.4719C18.2413 27.5661 19.9995 27.6917 21.1926 27.7231L23.3903 27.7859L23.4845 25.2428L23.5787 22.6997L20.9728 22.4799C19.5286 22.3857 17.8646 22.2287 17.2053 22.1659C16.5773 22.1032 15.9808 22.1345 15.8866 22.2287ZM17.582 24.0497C17.582 25.337 17.5192 25.4626 16.7971 25.4626C15.8238 25.4626 15.761 24.866 16.7343 24.8032L17.425 24.7404L16.7343 24.6149C16.1692 24.5207 16.0122 24.2695 16.0122 23.5474C16.0122 22.7939 16.1378 22.6369 16.7971 22.6369C17.5192 22.6369 17.582 22.7625 17.582 24.0497ZM19.7798 23.7358C19.7798 24.3951 19.6228 24.5207 18.8379 24.5207C18.053 24.5207 17.896 24.3951 17.896 23.7358C17.896 23.0764 18.053 22.9509 18.8379 22.9509C19.6228 22.9509 19.7798 23.0764 19.7798 23.7358ZM21.6008 23.6416C21.538 24.1125 21.2554 24.3951 20.8158 24.4579C20.2193 24.5521 20.0937 24.4265 20.0937 23.7672C20.0937 23.1078 20.2507 22.9509 20.91 22.9509C21.5694 22.9509 21.6949 23.0764 21.6008 23.6416ZM22.8566 23.1706C22.5426 23.2334 22.2915 23.4532 22.2915 23.6416C22.2915 23.7986 22.5112 23.8927 22.7624 23.7672C23.0136 23.673 23.2334 23.7358 23.2334 23.8927C23.2334 24.0811 22.9508 24.2067 22.6054 24.2067C22.1973 24.2067 21.9775 23.9869 21.9775 23.5788C21.9775 23.1392 22.1659 22.9509 22.6996 22.9823C23.202 23.0136 23.2648 23.045 22.8566 23.1706ZM23.2334 24.8346C23.2334 24.9916 22.888 25.1486 22.4485 25.1486C22.0089 25.1486 21.6635 24.9916 21.6635 24.8346C21.6635 24.6463 22.0089 24.5207 22.4485 24.5207C22.888 24.5207 23.2334 24.6463 23.2334 24.8346ZM19.7798 25.8393C19.7484 27.6603 18.1158 27.9429 17.9588 26.1533C17.8646 25.2114 17.9274 25.1486 18.8065 25.1486C19.6228 25.1486 19.7798 25.2742 19.7798 25.8393ZM21.4752 25.9963C21.1926 27.1894 21.067 27.3463 20.5333 27.3463C20.2507 27.3463 20.0937 27.001 20.0937 26.2475C20.0937 25.2742 20.1879 25.1486 20.8786 25.1486C21.6008 25.1486 21.6635 25.2428 21.4752 25.9963ZM23.2334 26.4358C23.2334 27.2522 23.1392 27.3777 22.5426 27.2835C22.1659 27.2208 21.7891 27.001 21.7263 26.7498C21.6321 26.4358 21.7263 26.3731 22.1031 26.4986C22.3857 26.6242 22.6054 26.5614 22.6054 26.4045C22.6054 26.2161 22.3857 26.0905 22.1031 26.0905C21.8519 26.0905 21.7263 25.9335 21.8205 25.7765C21.9147 25.5881 22.2915 25.4626 22.6368 25.4626C23.1078 25.4626 23.2334 25.6823 23.2334 26.4358ZM17.582 26.4045C17.582 26.8754 17.3622 27.0324 16.7971 27.0324C16.232 27.0324 16.0122 26.8754 16.0122 26.4045C16.0122 25.9335 16.232 25.7765 16.7971 25.7765C17.3622 25.7765 17.582 25.9335 17.582 26.4045Z" fill="#C21807"/>
<path d="M48.8841 23.4844L50.5167 23.61L50.6423 25.7136L50.7365 27.8171L50.7993 25.5252L50.862 23.2647L49.0725 23.3275L47.2515 23.3903L48.8841 23.4844Z" fill="#C21807"/>
<path d="M41.7259 24.081C41.3492 24.5519 41.3492 24.5833 42.0085 24.3635C42.6364 24.1752 42.7306 24.238 42.6364 24.7403C42.5736 25.0543 42.2911 25.274 41.9771 25.2112C41.5375 25.1484 41.4434 25.3682 41.4434 26.4043V27.6602H42.8562C43.6411 27.6602 44.269 27.5346 44.269 27.3776C44.269 27.2206 43.9865 27.1578 43.6411 27.252C43.1388 27.3776 43.0132 27.252 43.0132 26.5927C43.0132 25.902 43.1702 25.7764 43.8609 25.7764C44.3004 25.7764 44.583 25.6822 44.4574 25.5566C44.3318 25.431 43.9865 25.3054 43.7039 25.3054C43.4213 25.3054 43.1388 25.0543 43.076 24.7089C42.9818 24.2066 43.076 24.1438 43.7667 24.3321C44.2376 24.4577 44.583 24.3949 44.583 24.2066C44.583 24.0496 44.2376 23.8926 43.8295 23.8926C43.4213 23.8926 42.8562 23.8298 42.605 23.7356C42.3852 23.6414 41.9771 23.7984 41.7259 24.081ZM42.6992 26.5613C42.6992 27.0636 42.5108 27.3462 42.2283 27.3462C41.9457 27.3462 41.7573 27.0636 41.7573 26.5613C41.7573 26.0589 41.9457 25.7764 42.2283 25.7764C42.5108 25.7764 42.6992 26.0589 42.6992 26.5613Z" fill="#C21807"/>
<path d="M47.1885 25.1484C47.1885 25.9333 47.2513 26.2473 47.3141 25.8392C47.3769 25.4624 47.3769 24.8345 47.3141 24.4263C47.2513 24.0496 47.1885 24.3635 47.1885 25.1484Z" fill="#C21807"/>
<path d="M48.0366 25.1484C48.0366 25.6508 48.0366 26.1845 48.0366 26.3101C48.0366 26.4671 48.4134 26.5613 48.9157 26.5613C49.6378 26.5613 49.7634 26.4043 49.8576 25.588C49.9518 24.7717 49.8262 24.5519 49.2297 24.3949C48.0994 24.1124 48.0366 24.1438 48.0366 25.1484ZM49.6064 25.902C49.6064 25.9961 49.4809 26.1531 49.2925 26.2473C49.1355 26.3415 48.9785 26.2787 48.9785 26.1217C48.9785 25.9334 49.1355 25.7764 49.2925 25.7764C49.4809 25.7764 49.6064 25.8392 49.6064 25.902Z" fill="#C21807"/>
<path d="M46.8433 27.8172C46.8433 28.3195 46.9061 28.5079 47.0002 28.1939C47.063 27.9114 47.063 27.4718 47.0002 27.252C46.9061 27.0637 46.8433 27.2834 46.8433 27.8172Z" fill="#C21807"/>
<path d="M47.5655 28.6021C47.4713 28.759 47.5968 28.916 47.848 28.916C48.1306 28.916 48.3504 28.759 48.3504 28.6021C48.3504 28.4137 48.2248 28.2881 48.0678 28.2881C47.8794 28.2881 47.6596 28.4137 47.5655 28.6021Z" fill="#C21807"/>
<path d="M48.978 28.6021C48.978 28.759 49.1978 28.916 49.449 28.916C49.7001 28.916 49.9199 28.759 49.9199 28.6021C49.9199 28.4137 49.7001 28.2881 49.449 28.2881C49.1978 28.2881 48.978 28.4137 48.978 28.6021Z" fill="#C21807"/>
</svg>
