<svg width="54" height="34" viewBox="0 0 54 34" fill="none" xmlns="http://www.w3.org/2000/svg">
<path d="M28.3478 1.16898C28.3478 1.98727 28.2309 2.33797 27.9387 2.33797C27.6172 2.33797 27.5296 2.77633 27.5588 4.29601L27.6172 6.28328L20.8956 6.45863C17.2133 6.5463 13.3264 6.72165 12.2743 6.86777L10.3747 7.07235L7.77374 13.7063C4.00377 23.2628 0.847513 30.9781 0.292246 31.9132C0.146123 32.2055 0 32.6439 0 32.9069C0 33.316 0.292246 33.3745 2.13339 33.2283C3.27315 33.1407 7.27692 33.1699 10.9592 33.316C23.5258 33.7544 28.757 33.6375 45.7365 32.7315C48.4836 32.5562 50.9969 32.4393 51.3768 32.4393C51.7275 32.4393 52.0197 32.3224 52.0197 32.1763C52.0197 32.0301 51.7567 31.9717 51.4353 32.0594C50.7631 32.2347 50.6754 31.7963 51.2599 31.2703C51.6106 31.0073 51.7567 31.0657 52.0782 31.5333C52.312 31.9132 52.7504 32.147 53.2764 32.147C54.2116 32.147 54.27 32.7023 52.6919 26.5944C52.1074 24.4317 51.4937 21.9184 51.2891 21.0417C50.5293 17.7685 49.3019 13.4725 48.016 9.52721L46.6716 5.49422L43.5738 5.66957C41.8788 5.75724 38.1673 5.93259 35.3325 6.02026L30.189 6.19561L30.0136 4.35446C29.926 3.3316 29.7214 2.45486 29.546 2.39642C29.3707 2.33797 29.2246 1.7827 29.2246 1.13976C29.2246 0.321468 29.1077 0 28.7862 0C28.4647 0 28.3478 0.321468 28.3478 1.16898ZM29.5168 3.03936C29.5168 3.24393 29.6045 4.03299 29.6922 4.79283L29.8967 6.13716H28.9616H28.0556V4.38368C28.0556 2.71788 28.0848 2.63021 28.7862 2.63021C29.1954 2.63021 29.5168 2.80556 29.5168 3.03936ZM46.3794 6.16638C46.6424 6.42941 46.584 6.63398 46.2333 7.0139C45.415 7.89063 44.3629 8.00753 43.4569 7.30614C43.0186 6.95545 42.6679 6.57553 42.6679 6.42941C42.6679 6.28328 43.3693 6.10793 44.2168 6.04949C45.0351 5.99104 45.7949 5.93259 45.9118 5.90336C45.9995 5.87414 46.2041 5.99104 46.3794 6.16638ZM42.0834 6.83855C42.0834 7.62761 41.382 8.47513 40.7391 8.47513C40.3591 8.47513 39.1609 6.86777 39.1609 6.34173C39.1609 6.22483 39.8331 6.13716 40.6222 6.13716C41.9665 6.13716 42.0834 6.19561 42.0834 6.83855ZM32.147 6.86777C32.147 7.71529 31.5625 8.47513 30.8904 8.47513C30.0429 8.47513 29.5168 7.94908 29.5168 7.16002C29.5168 6.63398 29.7214 6.51708 30.8319 6.45863C31.884 6.42941 32.147 6.48785 32.147 6.86777ZM35.3617 6.83855C35.3617 7.33537 34.5727 8.18288 34.1343 8.18288C33.6667 8.18288 32.7315 7.27692 32.7315 6.80932C32.7315 6.5463 33.1407 6.42941 34.0466 6.42941C34.9818 6.42941 35.3617 6.5463 35.3617 6.83855ZM38.518 7.16002C38.0504 8.2121 37.1152 8.41668 36.4723 7.59839C35.6832 6.60475 35.8293 6.42941 37.4075 6.42941C38.8395 6.42941 38.8395 6.42941 38.518 7.16002ZM26.0099 7.16002C26.0099 7.65684 25.0162 8.76737 24.5486 8.76737C24.198 8.76737 23.0874 7.68606 23.0874 7.36459C23.0874 6.92622 23.3504 6.83855 24.6948 6.75088C25.7176 6.72165 26.0099 6.80932 26.0099 7.16002ZM28.9323 7.21847C28.9323 7.80296 28.114 8.76737 27.6172 8.76737C27.1496 8.76737 26.7405 8.24133 26.4775 7.36459C26.2729 6.75088 26.3606 6.72165 27.588 6.72165C28.6401 6.72165 28.9323 6.83855 28.9323 7.21847ZM16.2489 7.48149C16.1612 7.74451 16.0735 8.03676 16.0735 8.18288C16.0735 8.62125 14.9045 8.82582 14.4662 8.47513C13.8232 7.94908 13.9401 7.36459 14.7 7.21847C16.1027 6.95545 16.4242 7.0139 16.2489 7.48149ZM19.2882 7.18925C19.2882 7.27692 19.1421 7.59839 18.996 7.91986C18.6453 8.53358 17.827 8.65047 17.301 8.12443C16.5996 7.42304 16.921 7.0139 18.1192 7.0139C18.7622 7.0139 19.2882 7.10157 19.2882 7.18925ZM22.1522 7.65684C21.9769 8.91349 19.9019 8.65047 19.8727 7.36459C19.8727 7.16002 20.3111 7.0139 21.0709 7.0139C22.123 7.0139 22.2399 7.07235 22.1522 7.65684ZM13.1803 7.94908C13.0634 8.329 12.625 8.76737 12.2451 8.97194C11.4853 9.35186 11.3684 9.26419 10.9884 7.94908C10.7839 7.33537 10.8715 7.30614 12.099 7.30614C13.3556 7.30614 13.4141 7.33537 13.1803 7.94908ZM36.823 8.94272C36.823 9.14729 36.5892 9.58566 36.2969 9.96558C35.654 10.7546 34.9234 10.5793 34.4558 9.52721C34.1635 8.88427 34.222 8.70892 34.9526 8.06598L35.8001 7.33537L36.2969 7.97831C36.5892 8.329 36.823 8.76737 36.823 8.94272ZM39.7454 8.15366C40.1546 9.20574 39.9208 10.1117 39.0733 10.5501C38.5764 10.8423 38.3719 10.7839 37.9335 10.2286C37.2613 9.38109 37.2613 8.5628 37.9627 8.329C38.2842 8.24133 38.6057 7.97831 38.6933 7.74451C38.9564 7.07235 39.3363 7.21847 39.7454 8.15366ZM43.34 7.74451C43.8661 8.12443 43.8661 8.18288 43.3985 9.17652C42.8432 10.3455 42.0542 10.5501 41.1482 9.73178C40.4468 9.08884 40.476 8.85505 41.3236 8.65047C41.7327 8.5628 42.1418 8.2121 42.2295 7.89063C42.4341 7.21847 42.6387 7.18925 43.34 7.74451ZM47.0516 7.56916C47.0516 7.71529 47.1392 8.03676 47.2269 8.27055C47.4023 8.73815 46.4086 9.93636 45.8826 9.93636C45.5027 9.93636 44.4214 8.85505 44.4214 8.47513C44.4214 8.29978 44.6552 8.18288 44.9474 8.18288C45.2396 8.18288 45.7365 7.97831 46.0579 7.74451C46.7009 7.24769 47.0516 7.18925 47.0516 7.56916ZM23.9642 9.61489C23.9642 10.93 22.1522 11.1346 21.3924 9.93636C21.0417 9.38109 21.1001 9.23496 21.8308 8.53358L22.649 7.74451L23.3212 8.41668C23.6719 8.7966 23.9642 9.32264 23.9642 9.61489ZM33.4329 9.55644C33.0822 10.6377 31.7671 10.8423 31.2703 9.93636C30.9781 9.38109 31.0365 9.17652 31.7671 8.47513C32.5854 7.62761 32.5854 7.62761 33.1699 8.18288C33.6083 8.65047 33.6667 8.91349 33.4329 9.55644ZM17.0672 8.329C17.1548 8.5628 17.4178 8.76737 17.6809 8.76737C18.2946 8.76737 18.2361 10.024 17.564 10.8423C17.0672 11.456 16.9503 11.4853 16.5119 11.1053C15.6351 10.3747 15.4306 9.41031 16.0151 8.62125C16.5996 7.80296 16.8334 7.71529 17.0672 8.329ZM20.0481 8.38745C20.5449 9.03039 20.5741 10.2871 20.1065 10.7546C19.6097 11.2515 19.4343 11.193 19.0544 10.3747C18.6161 9.41031 18.6161 8.6797 19.0544 8.24133C19.522 7.77374 19.5805 7.80296 20.0481 8.38745ZM29.8383 8.50435C31.0657 9.73178 29.6045 11.5145 28.3186 10.3455C27.7341 9.81946 27.5296 10.1702 28.114 10.7546C28.6401 11.2807 29.6629 11.1638 30.2474 10.5208L30.7735 9.93636L31.3287 10.5208C31.8548 11.1053 31.884 11.193 31.4456 11.836C30.8027 12.8004 28.9323 12.7711 28.9323 11.8067C28.9323 11.5729 28.8154 11.3976 28.6401 11.3976C28.494 11.3976 28.3478 11.5729 28.3478 11.8067C28.3478 12.362 27.2373 13.1511 26.7405 12.9757C26.5359 12.888 26.2437 12.5081 26.0683 12.1574C25.8053 11.5729 25.8638 11.4268 26.4775 11.1346C26.8574 10.9592 27.3542 10.4624 27.5588 10.024C27.851 9.38109 28.8447 8.03676 29.1661 7.91986C29.1954 7.89063 29.4876 8.15366 29.8383 8.50435ZM11.7775 11.3099C12.7419 14.2031 14.9045 22.3276 14.9045 23.0874C14.9045 23.2628 14.4662 22.9413 13.9109 22.386C13.0049 21.4216 11.6898 20.954 11.6898 21.597C11.6898 22.1815 13.0634 23.4673 13.7648 23.555C14.1447 23.5842 14.5246 23.6427 14.5831 23.6427C14.6707 23.6719 14.3785 24.0226 13.9693 24.461C12.2743 26.2729 12.9173 27.4711 14.6415 25.7469C15.1091 25.2793 15.489 24.987 15.489 25.1331C15.489 25.2793 15.5767 25.5715 15.6644 25.8345C15.7813 26.156 15.5183 26.4775 14.7876 26.9158C13.7648 27.5003 13.4433 28.1433 13.9986 28.4647C14.4662 28.757 15.1968 28.3186 15.1968 27.7634C15.1968 27.2665 15.6936 26.682 15.9274 26.9158C15.9858 26.9743 16.2489 28.0848 16.5119 29.3707C16.7749 30.6566 17.0672 32.0009 17.1548 32.3516C17.301 33.0238 17.2717 33.0238 14.6415 33.0238H11.9821V29.1369C11.9821 23.818 12.0405 23.9642 9.79023 23.9642H7.97831L7.80296 27.2373C7.71529 29.0492 7.68606 31.0365 7.77374 31.621L7.89064 32.7315H4.23756C2.22107 32.7315 0.584492 32.6439 0.584492 32.4977C0.584492 32.3224 2.25029 28.2602 3.71152 24.8993C3.94532 24.3733 4.38369 24.461 4.38369 25.0747C4.38369 25.7176 4.93895 26.3021 5.49422 26.3021C6.02026 26.3021 5.75724 24.2856 5.20197 23.9057C4.85128 23.7011 4.90973 23.6719 5.40655 23.6719C5.90336 23.7011 7.30614 22.7075 7.30614 22.3568C7.30614 21.7723 7.07235 21.8015 5.66957 22.6198L4.50059 23.292L5.40655 20.7787C6.25406 18.5576 7.51072 15.2552 9.64411 9.84868C10.024 8.94272 10.4039 8.18288 10.5208 8.18288C10.6085 8.18288 11.193 9.58566 11.7775 11.3099ZM14.1447 8.62125C14.2324 8.85505 14.5246 9.05962 14.7584 9.05962C15.3429 9.05962 15.0799 10.1994 14.3785 10.7254C13.7356 11.2515 13.2387 11.193 12.5666 10.5208L11.9529 9.90713L12.7711 9.05962C13.7063 8.06598 13.9109 8.00753 14.1447 8.62125ZM27.1789 9.64411C27.1789 10.2578 26.5944 10.8131 25.9514 10.8131C25.3377 10.8131 24.2564 9.29342 24.724 9.14729C24.8993 9.08884 25.3085 8.85505 25.6007 8.62125C26.0683 8.27055 26.2144 8.29978 26.682 8.6797C26.9451 8.94272 27.1789 9.38109 27.1789 9.64411ZM44.8305 9.67333C45.2104 10.1409 45.5319 10.2286 46.1164 10.1117C47.5776 9.76101 47.7237 9.79023 47.9868 10.6085C48.5713 12.2743 46.9347 12.888 45.8241 11.3976L45.1812 10.4916L44.7136 11.456C44.1876 12.5958 43.1939 12.8588 42.3464 12.099C41.5574 11.3976 41.645 10.93 42.6679 10.5208C43.1355 10.3163 43.6031 9.90713 43.6907 9.61489C43.9245 8.91349 44.1583 8.91349 44.8305 9.67333ZM35.2156 11.6606C35.1279 11.9529 34.748 12.3328 34.3389 12.5081C33.7836 12.7711 33.5206 12.7127 32.9069 12.2451C32.4977 11.9236 32.147 11.7483 32.147 11.8944C32.147 12.0405 31.621 12.7127 31.0073 13.3849C29.7506 14.7292 28.757 14.963 27.9679 14.0862C27.5588 13.6479 27.5588 13.531 28.0848 12.9173C28.5816 12.2743 28.6693 12.2451 29.283 12.6835C29.6337 12.9465 30.0429 13.1511 30.189 13.1511C30.4228 13.1511 32.147 11.6606 33.4037 10.3455L33.9882 9.76101L34.6896 10.4624C35.1279 10.8715 35.3325 11.3391 35.2156 11.6606ZM37.7874 10.5501C38.255 11.3684 38.255 11.5437 37.8751 12.1282C37.3198 12.9757 36.2969 12.8004 35.9462 11.8067C35.7124 11.2515 35.8001 10.9592 36.3261 10.4039C37.1737 9.49799 37.1737 9.49799 37.7874 10.5501ZM41.0313 10.1994C41.4405 10.6377 41.4989 10.9592 41.2943 11.5729C40.8852 12.7711 40.213 13.0926 39.4824 12.4497C38.7518 11.8067 38.6933 11.1638 39.3071 10.93C39.5409 10.8423 39.8039 10.5208 39.8915 10.1994C40.1253 9.49799 40.3884 9.49799 41.0313 10.1994ZM25.4254 11.7191C25.4254 12.4497 24.6948 13.2095 24.1103 13.0926C23.7888 13.0342 23.4089 12.6542 23.292 12.2743C23.0582 11.6606 23.1459 11.3684 23.7011 10.7546L24.4025 9.96558L24.8993 10.6085C25.1916 10.9592 25.4254 11.456 25.4254 11.7191ZM16.658 12.4789C16.658 13.3849 15.6644 13.8817 15.0799 13.268C14.32 12.5373 14.2031 11.5145 14.8169 10.8715C15.3429 10.3455 15.3429 10.3455 15.9858 11.0761C16.3365 11.4853 16.6288 12.1282 16.658 12.4789ZM19.259 11.1346C19.8435 11.8944 19.9019 12.1282 19.6389 12.7419C19.2005 13.6479 18.2654 13.6479 17.6516 12.7127C17.2133 12.0113 17.2133 11.9236 17.6516 11.4268C17.9147 11.1638 18.1192 10.7546 18.1192 10.5793C18.1192 9.9948 18.5284 10.1994 19.259 11.1346ZM21.8892 10.8423C22.5029 11.3391 22.5614 11.5437 22.3276 12.2159C21.9769 13.2095 21.0417 13.268 20.5741 12.3035C20.3111 11.8067 20.3111 11.4268 20.5157 10.93C20.8956 10.0825 20.9832 10.0825 21.8892 10.8423ZM13.8232 11.6898C13.9401 11.8067 13.794 12.2159 13.4725 12.5958L12.9173 13.2972L12.5958 12.4789C12.4204 12.0113 12.2743 11.5145 12.2743 11.3684C12.2743 11.0469 13.3849 11.2807 13.8232 11.6898ZM46.4671 13.3264C46.4671 13.9693 45.7365 14.6123 45.0351 14.6123C44.8597 14.6123 44.509 14.2908 44.2752 13.9109C43.8369 13.2387 43.8369 13.1511 44.3921 12.5958C44.7428 12.2451 45.0059 11.836 45.0059 11.6314C45.0059 11.456 45.3273 11.6022 45.7365 11.9821C46.1456 12.362 46.4671 12.9757 46.4671 13.3264ZM36.5307 13.5602C36.5307 13.8232 36.2385 14.1739 35.8878 14.3493C35.3617 14.6415 35.1864 14.5831 34.7188 14.0278C34.1928 13.3556 34.1928 13.3264 34.8065 12.6542C35.4494 11.9821 35.4786 11.9821 36.0047 12.5666C36.2969 12.8588 36.5307 13.3264 36.5307 13.5602ZM40.0084 13.3556C40.2715 13.5018 39.1025 14.9045 38.7226 14.9045C38.4888 14.9045 38.0796 14.5831 37.8166 14.1739C37.3782 13.531 37.4075 13.4141 37.9043 12.7419L38.4303 12.0405L39.1609 12.6542C39.5701 13.0049 39.95 13.3264 40.0084 13.3556ZM42.9017 12.8588C43.34 12.8588 43.34 13.2972 42.9601 14.057C42.551 14.7584 41.7327 14.7584 41.0898 14.057C40.5929 13.5018 40.5929 13.4433 41.119 12.7711C41.5866 12.1282 41.7035 12.099 42.1126 12.4497C42.3464 12.6835 42.7263 12.8588 42.9017 12.8588ZM49.185 14.3493C49.448 15.3721 49.5941 16.5703 49.5064 17.0379C49.2142 18.4699 47.4315 18.7914 46.7593 17.5347C46.5255 17.0964 46.584 16.9503 46.9931 16.8334C47.3146 16.7165 47.7237 16.2781 47.9575 15.8397C48.1913 15.4014 48.4836 14.963 48.6589 14.8461C48.8343 14.7 48.7466 14.6123 48.4543 14.6123C47.9283 14.6123 47.0516 13.5602 47.0516 12.9757C47.0516 12.625 47.8114 12.3035 48.3667 12.4204C48.542 12.4497 48.8927 13.3264 49.185 14.3493ZM14.6123 13.2972C14.8169 13.7063 15.1091 14.0278 15.2552 14.0278C15.752 14.0278 15.4598 15.1676 14.8461 15.6059C14.0862 16.1612 13.794 15.9858 13.2387 14.7C12.8588 13.7648 12.8588 13.6187 13.3556 13.1218C14.057 12.4204 14.1447 12.4497 14.6123 13.2972ZM20.8663 13.3556C21.5677 14.2908 21.217 15.5767 20.2526 15.7228C19.4051 15.8397 19.0836 14.6707 19.5805 13.4433C20.0188 12.3912 20.165 12.362 20.8663 13.3556ZM23.4966 13.1803C24.5486 14.2031 23.9057 15.7813 22.649 15.3137C22.0353 15.0507 21.8015 14.057 22.2399 13.268C22.6783 12.4204 22.7075 12.4204 23.4966 13.1803ZM26.4482 13.1511C26.8866 13.6479 26.9158 13.8524 26.6528 14.4662C26.2437 15.3721 25.25 15.4306 24.987 14.5831C24.7824 13.9693 25.3085 12.5666 25.7176 12.5666C25.8345 12.5666 26.156 12.8296 26.4482 13.1511ZM17.9147 13.5018C18.4699 14.0278 18.5868 14.32 18.3823 14.8461C18.0316 15.752 17.3302 15.9566 16.658 15.3429C15.9274 14.7 15.9274 14.2031 16.5703 13.4433C17.1841 12.7419 17.0672 12.7127 17.9147 13.5018ZM33.7544 14.6123C34.8357 15.9274 35.0695 16.4242 35.0695 17.3886C35.0695 19.2298 35.4202 20.7495 35.8001 20.7495C36.5015 20.7495 36.8522 21.5093 36.5599 22.2984C36.2093 23.1751 35.2156 23.5842 34.6311 23.0874C34.0174 22.5614 34.1051 21.9184 34.7772 21.9184C35.0987 21.9184 35.3617 21.8308 35.3617 21.6846C35.3617 21.5677 34.1343 21.5677 32.6731 21.6554C30.8319 21.7723 29.8383 21.7431 29.6045 21.5093C29.4291 21.3339 29.1369 20.165 28.9616 18.8791C28.6401 16.5996 28.6401 16.5996 29.4584 15.6644C31.5918 13.2387 31.9717 12.8588 32.2055 12.9173C32.3224 12.9757 33.0238 13.7355 33.7544 14.6123ZM34.3389 14.1155C35.2741 15.6351 35.2156 15.6936 34.1051 14.4662C32.9945 13.2387 32.7608 12.7711 33.4037 13.0049C33.579 13.0926 34.0174 13.5894 34.3389 14.1155ZM37.992 15.5182C37.992 16.1612 37.2613 16.7165 36.6184 16.5996C36.3261 16.5411 35.9462 16.1904 35.7417 15.7813C35.4202 15.1383 35.4494 15.0214 36.0924 14.6707C36.5015 14.4662 36.823 14.0862 36.823 13.794C36.823 13.4433 36.9983 13.5602 37.4075 14.1739C37.7289 14.6415 37.992 15.2552 37.992 15.5182ZM44.4214 15.2552C44.4506 16.6872 43.34 17.1548 42.551 16.0443C42.1418 15.4598 42.1711 15.3429 42.9017 14.6123C43.6031 13.9109 43.72 13.8817 44.0414 14.2908C44.246 14.5538 44.4214 14.9922 44.4214 15.2552ZM28.7278 14.9045C29.3415 14.9045 29.3415 15.1676 28.757 15.8105C28.3186 16.2781 28.3186 16.6288 28.6109 18.6161C28.9323 20.691 28.9031 20.9248 28.4355 21.2755C27.6757 21.8308 26.7697 21.597 26.6528 20.8079C26.5944 20.4572 26.7113 20.165 26.8866 20.165C27.2373 20.165 27.588 19.3467 27.851 17.9147C27.9971 17.1548 27.9387 17.0087 27.588 17.1548C27.3542 17.2425 26.8866 17.0672 26.5944 16.8041C25.9806 16.2489 25.8053 15.489 26.3021 15.489C26.4775 15.489 26.7697 15.1676 26.9451 14.7584C27.2373 14.0862 27.325 14.057 27.7633 14.4662C28.0264 14.7 28.4647 14.9045 28.7278 14.9045ZM41.0021 14.6707C41.4405 15.3137 41.0021 16.5996 40.2715 16.8334C39.8039 16.9795 39.4824 16.8626 39.1025 16.3658C38.4595 15.5767 38.4303 15.1968 39.0148 15.1968C39.2486 15.1968 39.5993 14.9338 39.8039 14.6123C40.213 13.9693 40.5929 13.9693 41.0021 14.6707ZM47.6068 15.752C46.9639 16.7749 45.0059 16.4242 45.0059 15.2845C45.0059 15.0799 45.2396 14.9045 45.5611 14.9045C45.8534 14.9045 46.2625 14.7 46.4671 14.4369C46.8178 14.057 46.9054 14.057 47.4315 14.5538C47.8991 15.0507 47.9283 15.1968 47.6068 15.752ZM19.2882 15.6644C19.2882 15.8982 19.4343 16.0735 19.5805 16.0735C19.9896 16.0735 19.9604 17.3302 19.522 17.7685C18.9083 18.3823 18.1485 18.1485 17.6809 17.2425C17.1548 16.2196 16.7457 16.1027 16.5996 16.9795C16.5411 17.3302 16.2781 17.7685 15.9858 17.9439C15.5475 18.2069 15.3429 18.1485 14.8753 17.564C14.2616 16.8041 14.1447 16.0735 14.6707 16.0735C14.8461 16.0735 15.226 15.8689 15.489 15.6351C15.9274 15.226 16.0151 15.226 16.3658 15.6351C16.8626 16.2489 18.0316 16.1904 18.4699 15.5182C18.8499 14.9045 19.2882 14.963 19.2882 15.6644ZM22.7952 16.5119C22.7952 18.1485 21.3632 18.5868 20.7202 17.1548C20.4572 16.5411 20.5157 16.3365 21.1001 15.7228C21.7139 15.0799 21.8308 15.0507 22.2984 15.4306C22.5614 15.6644 22.7952 16.1612 22.7952 16.5119ZM25.1331 15.6059C25.893 17.0379 24.7824 18.5284 23.7304 17.4763C23.4673 17.2133 23.3797 17.2133 23.3797 17.4471C23.3797 17.6516 23.6719 18.0023 24.0226 18.2361C24.5779 18.6161 24.6071 18.7914 24.3148 19.4343C23.9642 20.2234 23.1459 20.3988 22.5614 19.8143C22.0646 19.3174 22.123 18.6745 22.7952 17.827C23.1166 17.4178 23.3797 16.8334 23.3797 16.5411C23.3797 15.9858 24.1687 14.9045 24.5486 14.9045C24.6655 14.9045 24.8993 15.226 25.1331 15.6059ZM42.6094 16.7457C43.1355 17.5932 42.9309 18.2361 41.9665 18.8206C41.5574 19.0837 41.3236 18.9668 40.7098 18.2654C39.9792 17.4178 39.9792 17.4178 40.5929 17.1548C40.9144 16.9795 41.2651 16.6288 41.382 16.3073C41.5866 15.6059 41.9957 15.7228 42.6094 16.7457ZM39.3947 18.0608C39.2486 18.8791 38.1088 18.8499 37.5244 18.0023C37.0568 17.2717 37.086 17.2133 37.7289 16.6872C38.4011 16.1612 38.4011 16.1612 38.9564 16.8334C39.2486 17.2133 39.4532 17.7685 39.3947 18.0608ZM45.8241 17.5055C45.7657 17.8854 45.5027 18.353 45.2104 18.5284C44.7721 18.7914 44.5675 18.733 44.0999 18.1485C43.5154 17.4471 43.5154 17.4471 44.1583 16.7749C44.6844 16.2196 44.8597 16.1612 45.3565 16.4534C45.7072 16.6872 45.8826 17.0672 45.8241 17.5055ZM27.1204 17.5347C27.5588 17.5347 27.5588 18.1192 27.1789 19.1129C26.8282 20.1065 25.63 20.165 25.2208 19.2298C25.0162 18.733 25.0455 18.3238 25.3962 17.6224C25.8053 16.8334 25.9222 16.7749 26.3313 17.1256C26.5651 17.3594 26.9451 17.5347 27.1204 17.5347ZM36.2093 16.921C36.5599 17.1548 36.5599 17.2717 36.2677 17.6516C35.7124 18.3238 35.3617 18.2361 35.3617 17.3886C35.3617 16.5996 35.5371 16.5119 36.2093 16.921ZM15.3721 19.4636C15.1091 20.4864 14.6707 20.3111 14.3493 19.0544C13.8817 17.3886 13.9693 17.2133 14.7876 18.0316C15.3429 18.5868 15.489 18.9668 15.3721 19.4636ZM18.7037 19.2882C18.7037 19.9019 18.1192 20.4572 17.5347 20.4572C17.2717 20.4572 16.8626 20.0188 16.5996 19.4928C16.1904 18.6453 16.1904 18.4992 16.6288 17.9147L17.0964 17.3009L17.8854 18.09C18.3238 18.4992 18.7037 19.0544 18.7037 19.2882ZM21.6262 19.259C21.6262 20.6033 20.1065 20.8664 19.5805 19.6097C19.2882 18.9083 19.3174 18.6453 19.7266 18.0023L20.2234 17.2425L20.9248 17.9731C21.3047 18.3823 21.6262 18.9668 21.6262 19.259ZM50.3539 19.3174C50.4124 20.5449 50.3832 20.6033 49.5064 20.691C48.805 20.7495 48.542 20.6326 48.279 20.0188C47.8114 19.0252 47.8406 18.7037 48.3082 18.7037C48.542 18.7037 48.9512 18.4407 49.2434 18.1192C49.9448 17.3594 50.2663 17.7101 50.3539 19.3174ZM37.5536 18.5868C38.518 19.522 38.3719 20.7495 37.3198 20.7495C36.4138 20.7495 36.0339 20.428 35.8001 19.4928C35.6248 18.8791 35.7124 18.5868 36.1216 18.2654C36.823 17.7393 36.6768 17.7101 37.5536 18.5868ZM47.4607 19.4051C47.3438 19.7266 47.1392 20.1942 46.9931 20.3695C46.5255 20.954 45.3565 20.8079 45.0059 20.1942C44.5967 19.4051 44.6259 18.996 45.152 18.996C45.3858 18.996 45.7365 18.733 45.941 18.4407C46.2625 17.9147 46.321 17.9147 46.9639 18.3238C47.4607 18.6745 47.6068 18.9375 47.4607 19.4051ZM41.2067 19.7558C41.2067 19.9604 40.9144 20.3403 40.5637 20.5741C39.2778 21.4801 38.255 19.9312 39.3947 18.7622C39.8915 18.2361 39.9208 18.2361 40.5637 18.7914C40.9144 19.1129 41.2067 19.5512 41.2067 19.7558ZM44.2168 19.522C43.7784 20.7787 42.7848 21.1294 42.0834 20.3111C41.7619 19.9312 41.8496 19.6974 42.5218 18.996C43.2816 18.1777 43.3985 18.1485 43.8661 18.5868C44.1583 18.8499 44.3045 19.259 44.2168 19.522ZM17.0087 20.7495C17.4763 20.7495 17.2133 21.5385 16.5411 22.1815C15.7228 22.9413 15.3429 22.8244 15.0507 21.7139C14.9338 21.217 15.0507 20.6033 15.4014 19.9604L15.9274 18.9668L16.3365 19.8727C16.5703 20.3403 16.8626 20.7495 17.0087 20.7495ZM22.7952 21.2463C22.7952 22.0938 21.6846 22.9121 21.1294 22.4445C20.5741 21.9769 20.6618 21.0125 21.3924 20.2526C21.9769 19.6389 22.0353 19.6389 22.386 20.1065C22.5906 20.3695 22.7952 20.8956 22.7952 21.2463ZM25.4254 20.0188C26.0099 20.7202 25.5423 21.9184 24.6948 21.9184C23.6135 21.9184 23.292 21.0417 24.0518 20.2819C24.8409 19.4928 24.9578 19.4636 25.4254 20.0188ZM19.7266 20.4572C20.165 20.9248 20.2234 21.217 19.9896 21.86C19.6389 22.8536 18.7037 22.9121 18.2361 21.9477C17.9439 21.3632 17.9439 21.1294 18.353 20.5741C18.9668 19.7266 19.0544 19.7266 19.7266 20.4572ZM48.6005 21.0709C49.1265 21.4216 48.5128 23.0874 47.7822 23.2628C46.9054 23.4673 46.584 23.292 46.3502 22.386C46.1164 21.4216 47.6361 19.6681 48.0452 20.428C48.1913 20.691 48.4543 20.9832 48.6005 21.0709ZM45.5903 21.7139C45.5903 22.5906 45.0351 23.3797 44.4214 23.3797C43.2524 23.3797 42.9017 21.5677 43.8953 20.7787C44.4506 20.3111 44.5675 20.2819 45.0643 20.7202C45.3565 20.954 45.5903 21.4216 45.5903 21.7139ZM39.1902 21.0709C39.8039 21.6846 39.7454 22.4737 38.9856 23.0874C38.6349 23.3797 38.4595 23.3504 37.992 22.9413C37.2906 22.2984 37.2613 21.6846 37.9043 20.9832C38.4888 20.3403 38.4595 20.3403 39.1902 21.0709ZM42.2003 20.8371C42.6387 21.1586 42.6971 21.3924 42.4633 22.0938C42.1418 23.029 41.4112 23.3212 40.7683 22.7952C40.1838 22.3276 40.213 21.6554 40.8267 20.9832C41.382 20.3403 41.5281 20.3403 42.2003 20.8371ZM51.143 22.123C51.143 22.8536 50.3539 23.0582 49.7402 22.4445C49.2142 21.9184 49.3019 21.5093 50.0617 21.1878C50.7923 20.8371 51.143 21.1294 51.143 22.123ZM27.0327 21.9184C27.6465 21.9184 27.7926 22.386 27.4419 23.2043C26.8282 24.4902 25.9222 24.4902 25.3962 23.2043C25.0455 22.2691 25.9222 20.691 26.3606 21.4508C26.5067 21.7139 26.7989 21.9184 27.0327 21.9184ZM18.0608 22.3568C18.5284 23.3797 18.4992 23.9642 17.9147 24.6071C17.0672 25.5715 16.1027 25.1916 15.6644 23.7304C15.489 23.2628 15.5767 23.0874 15.8982 23.0874C16.132 23.0874 16.5703 22.7659 16.8626 22.3568C17.5347 21.4508 17.6516 21.4508 18.0608 22.3568ZM24.461 22.5029C24.8993 22.5029 24.5486 24.0518 24.0226 24.461C23.3212 25.0455 22.8536 24.9286 22.386 24.0518C22.0061 23.3212 22.0353 23.1751 22.6198 22.4737C23.1459 21.8015 23.292 21.7431 23.7011 22.0938C23.9349 22.3276 24.2856 22.5029 24.461 22.5029ZM29.2246 21.9184C29.2246 22.0646 29.546 22.2107 29.9552 22.2107C30.3936 22.2107 30.6858 22.386 30.6858 22.6198C30.6858 23.1459 29.8967 23.9642 29.3999 23.9642C28.9031 23.9642 28.2309 22.649 28.4355 22.0938C28.6401 21.5677 29.2246 21.4508 29.2246 21.9184ZM33.6083 22.4153C33.9005 22.6783 32.8192 24.1103 32.2932 24.1103C31.5918 24.1103 31.0073 22.5614 31.5918 22.1815C31.9717 21.9769 33.2576 22.123 33.6083 22.4153ZM21.217 24.0811C20.6326 24.987 19.9896 24.987 19.3759 24.0811C18.996 23.4673 18.9375 23.2628 19.2298 23.1459C19.4343 23.0874 19.7558 22.8536 19.9604 22.649C20.2526 22.3276 20.428 22.386 20.9832 22.8828C21.5677 23.4089 21.597 23.555 21.217 24.0811ZM37.4075 23.7304C37.4075 24.6948 36.7061 25.7176 36.0339 25.7176C35.8293 25.7176 35.4786 25.3669 35.2741 24.9286C34.9818 24.2564 35.011 24.1103 35.4786 23.8473C35.8001 23.6719 36.2385 23.3212 36.5015 23.0582C37.1152 22.4445 37.4075 22.649 37.4075 23.7304ZM40.6222 23.8473C40.6222 25.1916 39.3947 26.0391 38.5472 25.25C37.8166 24.5779 37.8166 23.6719 38.5764 23.6719C38.8979 23.6719 39.3071 23.4089 39.5116 23.0874C39.8623 22.5322 39.9208 22.5322 40.2715 22.9997C40.4468 23.2628 40.6222 23.6427 40.6222 23.8473ZM43.4277 24.3733C43.1939 25.6007 42.2003 26.0975 41.5866 25.25C41.0313 24.4902 41.119 23.7304 41.7619 23.5258C42.0834 23.4381 42.4049 23.1459 42.4925 22.8828C42.6679 22.4445 42.7263 22.4445 43.1647 22.8536C43.4862 23.2043 43.5738 23.6135 43.4277 24.3733ZM46.7593 24.2272C46.7593 24.8409 45.8826 25.7176 45.2396 25.7176C44.509 25.7176 43.7784 24.2272 44.4214 24.0226C44.6552 23.9349 45.0935 23.5842 45.4442 23.2043L46.0287 22.5322L46.3794 23.1751C46.584 23.5258 46.7301 23.9934 46.7593 24.2272ZM50.3539 23.9057C49.9448 25.0747 48.1913 25.5715 47.6945 24.6655C47.4899 24.2856 47.6361 23.9934 48.3082 23.3797C49.1557 22.649 49.2726 22.5906 49.8864 22.9997C50.2955 23.2628 50.4708 23.6135 50.3539 23.9057ZM28.3771 23.4381C28.8447 24.2856 28.757 25.6592 28.1725 26.5067C27.6465 27.325 27.0035 27.3542 26.5944 26.6236C26.0975 25.6884 26.2729 24.8117 27.0327 24.198C27.4419 23.8765 27.7633 23.4381 27.7633 23.2043C27.7633 22.6198 27.9679 22.7075 28.3771 23.4381ZM34.6604 24.7824C34.3389 26.7697 32.9945 27.2665 32.2932 25.63L31.9132 24.6948L31.621 25.4546C31.095 26.7989 30.2182 26.7989 29.5168 25.4546C29.1954 24.8409 29.2246 24.6948 29.6922 24.3733C30.0136 24.1687 30.3936 23.8473 30.5981 23.6719C31.095 23.2628 31.1826 23.292 31.358 23.9642C31.5918 24.8409 32.8777 24.724 33.4914 23.818C34.1635 22.7659 34.8941 23.3797 34.6604 24.7824ZM51.6691 24.0226C51.9905 25.2793 51.5814 26.419 50.6754 26.8574C49.7695 27.2665 49.7987 27.2665 49.2726 26.7113C48.6297 26.0975 48.6881 25.5131 49.3895 25.3377C49.711 25.25 50.237 24.724 50.5877 24.1395C50.9092 23.555 51.2599 23.0874 51.3184 23.0874C51.3768 23.0874 51.5229 23.5258 51.6691 24.0226ZM25.8638 25.4254C25.4546 26.9743 24.461 27.3834 23.9057 26.1852C23.6427 25.5715 23.7011 25.3377 24.2856 24.6071C24.9286 23.818 25.0162 23.7888 25.5131 24.198C25.893 24.5194 25.9806 24.8993 25.8638 25.4254ZM20.3111 25.1331C20.7202 25.1331 21.1878 24.8701 21.3924 24.5779C21.7431 24.0226 21.7431 24.0226 22.4153 24.6363C23.1751 25.3669 23.292 26.6528 22.649 27.1789C21.9769 27.7341 21.217 27.3834 20.9248 26.3606C20.6326 25.2793 20.165 25.1039 20.165 26.1268C20.165 27.0912 19.4928 27.588 18.733 27.1789C17.8562 26.7113 17.6516 25.6007 18.3238 24.7532C18.8206 24.0518 18.8499 24.0518 19.2298 24.5779C19.4343 24.8993 19.9312 25.1331 20.3111 25.1331ZM11.456 24.7532C11.5437 25.0455 11.6314 27.0327 11.6606 29.1369L11.7191 33.0238L10.024 32.9069L8.32901 32.79L8.18288 31.6502C8.09521 31.0365 8.06598 29.1369 8.12443 27.3834L8.24133 24.2564H9.79023C11.0177 24.2564 11.3684 24.3733 11.456 24.7532ZM47.9283 25.9222C47.9283 26.5359 47.2854 27.7341 46.8178 27.9095C46.3794 28.0556 45.2981 27.325 45.2981 26.8282C45.2981 26.682 45.7365 26.156 46.2625 25.63C47.0808 24.7824 47.2269 24.724 47.5484 25.1039C47.753 25.3669 47.9283 25.7176 47.9283 25.9222ZM38.3719 25.5715C38.8395 26.2144 38.8395 26.419 38.518 27.1204C37.992 28.2017 36.9399 28.3186 36.5015 27.3542C36.2093 26.7405 36.2677 26.5067 36.8522 25.7469C37.2321 25.2793 37.612 24.8701 37.6997 24.8701C37.7874 24.8701 38.0796 25.1916 38.3719 25.5715ZM41.382 25.6007C41.8204 27.3834 40.0961 28.5816 39.3655 26.9743C39.1025 26.3606 39.1025 26.1852 39.424 26.0683C39.6285 26.0099 40.0377 25.6884 40.3007 25.4254C40.9436 24.6948 41.1774 24.724 41.382 25.6007ZM44.7136 26.6236C44.7136 26.8866 44.4506 27.325 44.1291 27.6172C43.6323 28.0556 43.4862 28.0848 43.0478 27.7341C41.9957 26.9158 41.7327 26.0099 42.5218 26.0099C42.7556 26.0099 43.1063 25.7469 43.3108 25.4254C43.6907 24.8409 43.6907 24.8409 44.1876 25.4838C44.4798 25.8638 44.7136 26.3606 44.7136 26.6236ZM17.4471 25.893C17.6516 26.4482 17.2425 27.2373 16.658 27.4127C16.395 27.5003 16.3365 27.3542 16.4827 26.7697C16.5996 26.3313 16.5411 26.0099 16.3658 26.0099C16.2196 26.0099 16.0735 25.8638 16.0735 25.7176C16.0735 25.2208 17.2425 25.3962 17.4471 25.893ZM35.9462 26.7697C35.9462 27.1204 35.6832 27.7049 35.391 28.0848C34.9234 28.6693 34.7188 28.7278 34.2804 28.4647C33.6959 28.114 33.3745 26.8866 33.9005 26.8866C34.0759 26.8866 34.3389 26.5651 34.5142 26.1852C34.8065 25.5715 34.9234 25.5131 35.391 25.8053C35.7124 26.0099 35.9462 26.419 35.9462 26.7697ZM30.2474 27.8218C29.7506 29.3707 28.9323 29.6337 28.2017 28.5232C27.7633 27.8802 27.7926 27.7634 28.4063 26.8282L29.0785 25.8053L29.7506 26.4775C30.2767 26.9743 30.3936 27.325 30.2474 27.8218ZM33.0238 27.6172C33.0238 27.9679 32.2055 28.6401 31.7379 28.6401C31.6502 28.6401 31.358 28.2894 31.0657 27.8802C30.5981 27.1496 30.5981 27.0912 31.2703 26.5944C31.9132 26.1268 31.9717 26.1268 32.4685 26.6236C32.79 26.9451 33.0238 27.3834 33.0238 27.6172ZM52.8965 28.9908C52.8965 29.3123 52.575 29.5753 52.1074 29.6922C51.4937 29.8675 51.2307 29.7506 50.88 29.2246C50.2078 28.2309 50.2955 27.7341 51.2891 26.8574L52.1659 26.0683L52.5166 27.2665C52.7211 27.9387 52.8965 28.7278 52.8965 28.9908ZM24.5486 28.0264C24.5486 28.6109 23.8473 29.5168 23.3797 29.5168C23.2335 29.5168 22.8828 29.1954 22.6198 28.7862C22.1522 28.0556 22.1522 27.9971 22.7659 27.4419C23.0874 27.1204 23.3797 26.7113 23.3797 26.5359C23.3797 26.3313 23.6427 26.4775 23.9642 26.8282C24.2856 27.1789 24.5486 27.7049 24.5486 28.0264ZM49.6526 27.4711C50.1494 27.4711 50.0325 28.0848 49.3895 29.1369C48.7466 30.2182 47.9575 30.3643 47.1977 29.5168C46.7009 28.9616 46.7593 28.0556 47.3146 28.0556C47.4607 28.0556 47.7237 27.6172 47.9283 27.0912L48.2498 26.156L48.805 26.7989C49.0973 27.1789 49.4772 27.4711 49.6526 27.4711ZM21.4216 27.7926C21.5677 27.9095 21.6262 28.2894 21.5677 28.6693C21.4508 29.6629 20.3403 29.7506 19.7266 28.8447C19.2882 28.1433 19.2882 28.0848 19.9312 27.4127C20.5157 26.8282 20.6326 26.7989 20.8663 27.1789C21.0125 27.4127 21.2463 27.7049 21.4216 27.7926ZM26.7113 27.1496C27.6757 28.2309 26.5067 29.6045 25.4838 28.5816C24.8701 27.9679 25.25 26.5944 26.0099 26.5944C26.1268 26.5944 26.4482 26.8574 26.7113 27.1496ZM18.5284 27.4419C19.2005 28.2017 18.7037 29.2246 17.6516 29.2246C16.6872 29.2246 16.4827 28.5524 17.1548 27.6465C17.7978 26.7405 17.8854 26.7405 18.5284 27.4419ZM40.0377 28.7278C40.0377 29.4292 39.0148 30.5105 38.6057 30.2767C37.8458 29.8091 37.7582 28.8154 38.3719 27.9971C38.9564 27.1789 38.9856 27.1789 39.5116 27.7634C39.8039 28.0556 40.0377 28.5232 40.0377 28.7278ZM42.4925 27.7049C42.8725 28.1433 42.9017 28.4063 42.6387 29.1661C42.3172 30.1305 41.6158 30.3936 40.9729 29.7506C40.476 29.2538 40.5345 28.4355 41.1482 27.7926C41.7911 27.062 41.8788 27.062 42.4925 27.7049ZM45.678 27.9095C46.3794 28.8739 45.9118 29.8967 44.8013 29.7506C43.6031 29.6045 43.34 28.8739 44.1583 27.9971C45.0351 27.062 45.0351 27.062 45.678 27.9095ZM37.4075 28.7862C37.4075 28.8154 37.2613 29.2538 37.086 29.7506C36.7061 30.8612 35.9462 31.1826 35.4494 30.5105C34.9526 29.8091 34.9818 29.3123 35.5663 28.5232C36.0339 27.8802 36.1508 27.8802 36.7353 28.2602C37.1152 28.5232 37.4075 28.7278 37.4075 28.7862ZM31.2703 28.7862C31.5625 29.3123 31.5918 29.7506 31.3872 30.3351C31.0365 31.3287 29.9844 31.5625 29.546 30.715C29.2246 30.1305 29.3999 29.2246 29.8091 29.2246C29.9552 29.2246 30.1598 28.9616 30.2474 28.6401C30.4812 27.851 30.8027 27.9095 31.2703 28.7862ZM28.9323 29.9552C28.9323 30.1305 28.757 30.5397 28.5232 30.8612C28.1433 31.358 27.9971 31.358 27.4711 31.0365C26.682 30.5397 26.3021 30.8319 27.0035 31.358C27.4419 31.6794 27.4711 31.8548 27.2081 32.3808C26.9743 32.8484 26.6236 32.9946 25.7176 32.9653C25.0747 32.9653 24.6363 32.8484 24.724 32.7023C24.8117 32.5562 25.0162 32.4977 25.1624 32.5854C25.3085 32.7023 25.4254 32.6146 25.4254 32.4393C25.4254 32.2347 25.6884 31.7671 26.0099 31.358C26.3313 30.9488 26.5944 30.3351 26.5944 30.0136C26.5944 29.6922 26.8282 29.1661 27.0912 28.8739C27.5588 28.3478 27.588 28.3478 28.2602 28.9908C28.6401 29.3415 28.9323 29.7798 28.9323 29.9552ZM33.9882 28.757C34.9234 29.4584 34.4266 30.9781 33.2868 30.9781C32.7608 30.9781 31.8548 29.9552 31.8548 29.3707C31.8548 29.1954 32.147 28.9323 32.527 28.757C33.4037 28.3186 33.3745 28.3186 33.9882 28.757ZM26.0099 30.2474C26.0099 31.1242 25.2208 31.7671 24.6071 31.3872C23.6135 30.7443 23.4966 30.1598 24.2564 29.3707C24.8993 28.6985 24.987 28.6693 25.4838 29.1369C25.7761 29.3999 26.0099 29.8967 26.0099 30.2474ZM19.8727 29.9844C19.8727 30.189 20.2526 30.7735 20.7495 31.2995C21.6554 32.2932 21.5385 33.0238 20.4572 33.0238C19.6974 33.0238 19.1129 32.2055 19.522 31.7963C20.1065 31.2119 19.9019 30.8612 19.3467 31.358C18.3238 32.2639 17.4178 31.9132 17.0964 30.452C16.921 29.5461 16.9503 29.5168 17.7978 29.5168C18.2654 29.5168 18.7622 29.3707 18.8499 29.2246C19.0836 28.8154 19.8727 29.3999 19.8727 29.9844ZM23.0874 30.3936C23.0874 31.5918 21.6262 31.9425 20.9248 30.9196C20.4864 30.3059 20.5157 30.2474 21.1878 29.8383C21.597 29.5753 21.9184 29.2538 21.9184 29.1077C21.9184 28.9616 22.1815 29.0785 22.5029 29.3707C22.8244 29.6629 23.0874 30.1305 23.0874 30.3936ZM50.7339 31.1826C49.8279 31.9717 49.4188 32.0009 48.6589 31.4456C48.1621 31.0657 48.1621 31.0073 49.1265 30.0429L50.1202 29.02L50.8215 29.7798L51.5229 30.5105L50.7339 31.1826ZM43.8661 29.8675C44.5383 30.715 44.5383 31.0365 43.8953 31.8548C43.4277 32.4393 43.2816 32.4685 42.7263 32.1178C41.8204 31.5333 41.7035 30.9781 42.3756 30.3351C42.6971 30.0429 42.9601 29.6629 42.9601 29.5168C42.9601 29.0492 43.2816 29.1661 43.8661 29.8675ZM47.6361 30.8612C47.6361 31.4456 46.7886 31.9425 46.0579 31.7379C45.0351 31.4749 44.8597 30.715 45.6488 29.9844L46.321 29.3415L46.9931 29.926C47.3438 30.2474 47.6361 30.6566 47.6361 30.8612ZM41.0021 30.2474C41.8788 31.4456 40.7683 32.9946 39.5409 32.2055C38.9856 31.8548 38.9856 31.1534 39.5993 30.3351C40.3007 29.3707 40.3591 29.3707 41.0021 30.2474ZM38.2842 30.5397C38.5764 31.095 38.6057 31.4164 38.3426 32.0009C37.9335 32.8484 37.3782 32.9361 36.7353 32.2055C36.2969 31.7087 36.2969 31.621 36.9106 30.7443C37.6997 29.6337 37.7874 29.6045 38.2842 30.5397ZM53.4225 31.7087C53.1595 31.9717 52.3704 31.5333 52.1659 31.0365C52.049 30.7443 52.1951 30.3936 52.5166 30.1598C52.9842 29.8091 53.0718 29.8675 53.3056 30.6858C53.4518 31.1826 53.5102 31.6502 53.4225 31.7087ZM35.6832 32.147C35.4786 33.1699 34.2804 33.316 33.9297 32.3808C33.7544 31.884 33.8421 31.5041 34.2804 30.8904L34.8941 30.0721L35.3325 30.8904C35.5663 31.358 35.7417 31.9132 35.6832 32.147ZM30.189 32.4685C30.0136 33.0822 29.4876 33.1699 28.6109 32.7315C27.9095 32.3516 27.9095 32.0009 28.5816 31.3287C29.0785 30.8027 29.1077 30.8027 29.6922 31.3287C30.1013 31.6794 30.2767 32.1178 30.189 32.4685ZM32.5562 31.1242C33.0238 31.4749 33.0822 31.6794 32.79 32.2932C32.3808 33.1699 31.7087 33.2283 31.2703 32.4393C31.0365 32.0301 31.0365 31.6794 31.2703 31.2703C31.6502 30.5689 31.8256 30.5689 32.5562 31.1242ZM24.4025 32.4977C24.1687 33.0822 23.3212 33.316 22.6783 32.9653C22.0353 32.6146 22.0938 32.2055 22.8828 31.5625C23.4966 31.0365 23.555 31.0365 24.0518 31.5333C24.3441 31.8256 24.4902 32.2347 24.4025 32.4977ZM45.415 32.1763C45.2104 32.4977 44.1291 32.527 44.1291 32.2055C44.1291 32.0886 44.2752 31.8256 44.4798 31.621C44.8597 31.2411 45.7072 31.7379 45.415 32.1763ZM48.5128 31.8548C48.8635 32.0886 48.7758 32.147 48.1329 32.147C47.6653 32.147 47.373 32.0301 47.4899 31.8548C47.7237 31.5041 47.9575 31.5041 48.5128 31.8548ZM42.2295 32.147C42.3172 32.2932 42.1418 32.4393 41.7911 32.4393C41.4405 32.4393 41.2651 32.2932 41.3528 32.147C41.4405 31.9717 41.645 31.8548 41.7911 31.8548C41.9373 31.8548 42.1418 31.9717 42.2295 32.147ZM18.733 32.4393C19.522 32.8777 19.4343 33.316 18.5576 33.316C18.1485 33.316 17.827 33.2576 17.827 33.1991C17.827 33.1407 17.7393 32.8777 17.6516 32.6146C17.4471 32.0886 17.8854 32.0009 18.733 32.4393ZM33.4914 32.9361C33.1991 33.2283 32.9361 32.79 33.1991 32.4101C33.3745 32.0886 33.4329 32.0886 33.5498 32.4101C33.6083 32.6146 33.579 32.8484 33.4914 32.9361ZM39.0148 32.4393C39.1025 32.5854 39.044 32.7315 38.8979 32.7315C38.7226 32.7315 38.5764 32.5854 38.5764 32.4393C38.5764 32.2639 38.6349 32.147 38.6933 32.147C38.781 32.147 38.9271 32.2639 39.0148 32.4393ZM27.9095 32.7315C27.9971 32.8777 27.9387 33.0238 27.7926 33.0238C27.6172 33.0238 27.4711 32.8777 27.4711 32.7315C27.4711 32.5562 27.5296 32.4393 27.588 32.4393C27.6757 32.4393 27.8218 32.5562 27.9095 32.7315ZM30.9781 32.7315C30.9781 32.8777 30.8612 33.0238 30.6858 33.0238C30.5397 33.0238 30.3936 32.8777 30.3936 32.7315C30.3936 32.5562 30.5397 32.4393 30.6858 32.4393C30.8612 32.4393 30.9781 32.5562 30.9781 32.7315ZM22.2107 33.0238C22.2107 33.1699 22.0061 33.316 21.7431 33.316C21.5093 33.316 21.3924 33.1699 21.4801 33.0238C21.5677 32.8484 21.7723 32.7315 21.9477 32.7315C22.0938 32.7315 22.2107 32.8484 22.2107 33.0238Z" fill="#C21807"/>
<path d="M8.76758 19.1422V20.7495H10.0827H11.3978V19.1422V17.5348H10.0827H8.76758V19.1422ZM11.1055 18.4115C11.1055 19.0253 10.6672 19.2006 10.3749 18.7038C10.1704 18.3531 10.4334 17.8271 10.8425 17.8271C10.9886 17.8271 11.1055 18.0901 11.1055 18.4115ZM9.93656 18.4115C9.93656 18.5577 9.73199 18.7038 9.49819 18.7038C9.2644 18.7038 9.05982 18.5577 9.05982 18.4115C9.05982 18.2362 9.2644 18.1193 9.49819 18.1193C9.73199 18.1193 9.93656 18.2362 9.93656 18.4115ZM10.2288 19.6974C10.2288 20.1358 9.52742 20.5157 9.23517 20.2527C8.85525 19.8435 9.08905 19.2883 9.64432 19.2883C9.96579 19.2883 10.2288 19.4636 10.2288 19.6974ZM11.1055 19.7267C11.1055 19.9604 10.9886 20.165 10.8133 20.165C10.6672 20.165 10.5211 19.9604 10.5211 19.7267C10.5211 19.4929 10.6672 19.2883 10.8133 19.2883C10.9886 19.2883 11.1055 19.4929 11.1055 19.7267Z" fill="#C21807"/>
<path d="M30.8615 16.8334C30.3646 17.3303 30.3062 17.8563 30.5692 19.2591C30.7446 20.1358 30.803 20.165 32.3811 20.165H33.9885L33.8131 18.5577C33.7255 17.6809 33.5793 16.8334 33.4624 16.6581C33.1702 16.1905 31.3583 16.3074 30.8615 16.8334ZM32.1473 17.3595C32.1473 17.5641 31.8843 17.8271 31.5921 17.9147C30.8907 18.0901 30.6861 17.9147 30.8907 17.3595C31.0953 16.8334 32.1473 16.8334 32.1473 17.3595ZM33.3163 17.3887C33.3163 17.6225 33.1118 17.8271 32.878 17.8271C32.6442 17.8271 32.4396 17.6225 32.4396 17.3887C32.4396 17.1549 32.6442 16.9503 32.878 16.9503C33.1118 16.9503 33.3163 17.1549 33.3163 17.3887ZM33.5501 19.1714C33.404 19.9312 32.8195 19.9897 32.5857 19.2591C32.4396 18.8499 32.5273 18.5285 32.7611 18.3823C33.2871 18.0901 33.6962 18.4992 33.5501 19.1714ZM32.1473 19.1422C32.1473 19.6682 32.0012 19.8728 31.5629 19.8728C31.1245 19.8728 30.9784 19.6682 30.9784 19.1422C30.9784 18.6161 31.1245 18.4116 31.5629 18.4116C32.0012 18.4116 32.1473 18.6161 32.1473 19.1422Z" fill="#C21807"/>
<path d="M10.6084 24.7533C10.0239 24.9579 10.1116 27.7634 10.6669 27.7634C11.0176 27.7634 11.1052 27.3835 11.1052 26.1561C11.1052 25.2793 11.076 24.5487 11.0468 24.5779C10.9884 24.5779 10.7838 24.6656 10.6084 24.7533ZM10.7253 26.6529C10.6669 27.0328 10.6084 26.799 10.6084 26.1561C10.5792 25.5131 10.6377 25.2209 10.7253 25.4839C10.7838 25.7762 10.7838 26.3022 10.7253 26.6529Z" fill="#C21807"/>
<path d="M8.67967 25.0455C8.56277 25.1332 8.4751 25.8054 8.4751 26.5068C8.4751 27.4127 8.592 27.7634 8.91347 27.7634C9.46873 27.7634 9.93633 26.8575 9.93633 25.7469C9.93633 25.0748 9.7902 24.841 9.41028 24.841C9.11804 24.841 8.76734 24.9286 8.67967 25.0455ZM9.52718 25.8931C9.43951 26.1561 9.35184 26.536 9.35184 26.7698C9.35184 27.0036 9.23494 27.1789 9.05959 27.1789C8.91347 27.1789 8.76734 26.7698 8.76734 26.3022C8.76734 25.6885 8.91347 25.4255 9.23494 25.4255C9.55641 25.4255 9.64408 25.5716 9.52718 25.8931Z" fill="#C21807"/>
<path d="M9.05957 28.6401C9.05957 28.7863 9.26414 28.9324 9.52716 28.9324C9.76096 28.9324 9.87786 28.7863 9.79018 28.6401C9.70251 28.4648 9.49794 28.3479 9.32259 28.3479C9.17647 28.3479 9.05957 28.4648 9.05957 28.6401Z" fill="#C21807"/>
<path d="M10.521 28.8155C10.521 29.0493 10.6671 29.1662 10.8132 29.0786C10.9886 28.9617 11.047 28.7571 10.9594 28.611C10.6963 28.2018 10.521 28.2895 10.521 28.8155Z" fill="#C21807"/>
<path d="M8.4751 30.8319C8.4751 31.7963 8.592 32.147 8.91347 32.147C9.14726 32.147 9.35184 32.0008 9.35184 31.8255C9.35184 31.6794 9.23494 31.6209 9.05959 31.7086C8.88424 31.8255 8.76734 31.504 8.79657 30.9195C8.79657 30.1305 8.85502 30.0428 9.05959 30.5396C9.29339 31.0657 9.32261 31.0364 9.32261 30.3058C9.35184 29.7798 9.20571 29.5168 8.91347 29.5168C8.592 29.5168 8.4751 29.8675 8.4751 30.8319Z" fill="#C21807"/>
<path d="M10.141 29.7214C9.878 29.9552 9.878 31.358 10.1118 31.9717C10.404 32.7608 10.7547 32.4978 10.8716 31.3288C11.0762 29.8091 10.7255 29.1077 10.141 29.7214ZM10.4333 31.0365C10.3456 31.2411 10.2871 31.095 10.2871 30.6858C10.2871 30.2767 10.3456 30.1306 10.4333 30.3059C10.4917 30.5105 10.4917 30.8612 10.4333 31.0365Z" fill="#C21807"/>
</svg>
