<svg width="42" height="53" viewBox="0 0 42 53" fill="none" xmlns="http://www.w3.org/2000/svg">
<path d="M17.7251 0.45153C14.2638 1.40831 11.3653 3.1249 8.63563 5.8264C4.69593 9.7661 2.50095 13.8746 0.756229 20.6847C-0.0598512 23.8365 -0.0598512 24.0053 0.0527117 29.6897C0.137134 32.8978 0.193415 35.8807 0.193415 36.3309C0.193415 36.7812 0.3904 37.344 0.587385 37.5973C0.812511 37.8505 1.06578 38.3008 1.1502 38.6103C1.93814 41.537 3.90799 44.745 6.1311 46.7149C9.84568 50.0917 14.714 51.8365 21.1864 52.1741C23.5783 52.2867 24.704 52.2304 26.111 51.8646C32.8648 50.1199 38.2959 42.4093 40.7442 31.0123C41.1944 29.0143 41.4195 26.8194 41.504 23.3862C41.6728 17.5892 41.3351 15.5068 39.5341 11.6515C35.7633 3.57515 31.1763 0.395248 22.8748 0.0294189C20.3703 -0.0550041 19.3854 0.0294189 17.7251 0.45153ZM26.6175 0.92992C32.302 2.08369 35.7351 5.01032 38.8025 11.3138C40.6597 15.1691 41.11 17.1671 41.11 22.0073C41.1381 26.4254 40.913 28.0576 40.3221 28.0576C40.0969 28.0576 39.6185 28.4515 39.2809 28.9299L38.6336 29.7741L38.2959 27.8887C37.9301 25.947 37.2547 24.8214 36.5793 25.1028C36.3261 25.1872 36.2417 25.0746 36.3542 24.737C37.2266 21.7822 37.2829 19.5309 36.4668 19.3902C36.1854 19.3339 35.8195 19.6153 35.5663 20.0937C35.1723 20.8535 35.1442 20.8535 35.116 20.2344C35.116 19.8686 34.919 19.2214 34.6939 18.7711C34.3281 18.0395 34.103 17.955 32.8085 17.8706L31.317 17.7862L31.4015 16.6324C31.4859 15.6194 31.4015 15.4505 30.8668 15.3098C29.8819 15.0566 29.2628 15.5631 29.1502 16.745L29.0658 17.7862L18.0065 17.7018L6.97532 17.5892L6.41251 18.2646C6.10296 18.6023 5.87784 19.1088 5.8497 19.3339C5.8497 19.5591 5.39945 20.3751 4.86477 21.1349L3.87985 22.542V21.4726C3.87985 20.544 3.31703 19.1651 2.41653 17.8706C2.13512 17.4767 2.24769 16.9983 2.97934 15.1973C6.01854 7.90882 11.4216 2.70279 17.6688 1.01434C19.9763 0.395248 23.7753 0.338966 26.6175 0.92992ZM2.92306 19.6435C3.14819 20.1219 3.31703 20.7128 3.26075 20.9661C3.14819 21.5571 1.91 19.6716 1.91 18.94C1.91 18.2927 2.38839 18.6304 2.92306 19.6435ZM19.8638 18.6867C19.5824 18.743 19.1321 18.743 18.8788 18.6867C18.5974 18.6023 18.8226 18.546 19.3572 18.546C19.8919 18.546 20.117 18.6023 19.8638 18.6867ZM33.3713 19.1932C33.1462 19.7279 32.9773 19.8123 32.6959 19.5872C32.4145 19.3621 32.3864 19.1932 32.6678 18.9118C33.2869 18.2083 33.7371 18.4053 33.3713 19.1932ZM10.4929 19.0244C10.0708 19.4184 8.94517 19.6716 8.94517 19.3902C8.94517 18.9681 9.28286 18.7711 10.0427 18.7711C10.4648 18.7711 10.6336 18.8837 10.4929 19.0244ZM31.1763 19.3339C31.514 19.5591 31.514 19.6153 31.0356 19.6153C30.7261 19.6153 30.2758 19.4746 30.0507 19.3339C29.713 19.1088 29.713 19.0525 30.1914 19.0525C30.501 19.0525 30.9512 19.1932 31.1763 19.3339ZM8.10095 19.6153C8.10095 19.7561 7.96025 19.8968 7.7914 19.8968C7.6507 19.8968 7.59442 19.7561 7.67884 19.6153C7.76326 19.4465 7.90397 19.3339 7.98839 19.3339C8.04467 19.3339 8.10095 19.4465 8.10095 19.6153ZM13.3633 19.5028C13.2788 19.5872 13.0256 19.6153 12.8286 19.5309C12.6035 19.4465 12.6879 19.3621 12.9974 19.3621C13.307 19.3339 13.4758 19.4184 13.3633 19.5028ZM18.71 19.5028C18.6256 19.5872 18.3723 19.6153 18.1753 19.5309C17.9502 19.4465 18.0346 19.3621 18.3442 19.3621C18.6537 19.3339 18.8226 19.4184 18.71 19.5028ZM27.7994 19.6153C27.7994 19.7561 27.3773 19.8968 26.8427 19.8968C26.308 19.8968 25.7733 19.7561 25.6889 19.6153C25.5763 19.4465 25.9703 19.3339 26.6457 19.3339C27.2929 19.3339 27.7994 19.4465 27.7994 19.6153ZM2.52909 21.3601C3.09191 22.1762 3.62658 23.2174 3.711 23.6958C3.82357 24.146 3.99241 24.7932 4.07683 25.1028C4.1894 25.4968 3.76728 25.2435 2.8105 24.3148C2.02256 23.5832 1.23462 22.9922 1.06578 22.9922C0.896933 22.9922 0.812511 22.7671 0.868792 22.4857C0.953214 22.2324 1.09392 21.5289 1.20648 20.938C1.2909 20.3751 1.40347 19.8968 1.45975 19.8968C1.48789 19.8968 1.99442 20.5721 2.52909 21.3601ZM36.4668 22.0917C36.3261 22.9641 36.101 23.8083 35.9321 23.949C35.5663 24.343 35.5944 21.1349 35.9884 20.4033C36.4949 19.4465 36.7482 20.3189 36.4668 22.0917ZM10.6336 21.0224C10.6336 21.1631 10.3803 21.3038 10.0708 21.3038C9.76125 21.3038 9.50799 21.1631 9.50799 21.0224C9.50799 20.8535 9.76125 20.741 10.0708 20.741C10.3803 20.741 10.6336 20.8535 10.6336 21.0224ZM12.4065 20.938C12.2095 20.9942 11.8718 20.9942 11.703 20.938C11.506 20.8535 11.6467 20.7973 12.0407 20.7973C12.4346 20.7973 12.5753 20.8535 12.4065 20.938ZM33.512 21.2757C34.0467 21.8103 33.4557 21.951 32.1613 21.5852C31.4859 21.3882 30.9793 21.1068 31.0638 20.9661C31.2889 20.6284 33.118 20.8817 33.512 21.2757ZM16.5432 21.6133C15.8396 21.7259 14.517 21.8103 13.5884 21.8103C12.0125 21.7822 11.9844 21.7822 13.0256 21.5852C13.6447 21.4726 14.9673 21.3882 15.9804 21.3882C17.7532 21.3882 17.7814 21.3882 16.5432 21.6133ZM29.2909 21.7822C29.0939 21.8385 28.7562 21.8385 28.5874 21.7822C28.3904 21.6978 28.5311 21.6415 28.9251 21.6415C29.319 21.6415 29.4597 21.6978 29.2909 21.7822ZM4.97733 23.1048C4.63965 24.0616 4.16125 24.4837 4.16125 23.8365C4.16125 23.3581 5.03362 21.8103 5.20246 21.951C5.28688 22.0355 5.17432 22.5701 4.97733 23.1048ZM33.5683 22.7108C33.5683 22.9922 33.2025 23.1048 32.2175 23.0767C30.9793 23.0485 29.8537 22.7108 30.9793 22.7108C31.2608 22.7108 31.4577 22.5701 31.4577 22.4294C31.4577 22.2606 31.9361 22.1762 32.5271 22.2324C33.2025 22.2606 33.5683 22.4294 33.5683 22.7108ZM18.0909 23.1048C18.4005 23.1611 17.4155 23.2174 15.8959 23.2455C14.3763 23.2455 13.1944 23.1611 13.2788 23.0485C13.3914 22.8515 16.712 22.8797 18.0909 23.1048ZM7.31301 23.6113C7.11603 23.8083 6.97532 23.8365 6.97532 23.6676C6.97532 23.4988 7.05975 23.2736 7.17231 23.1892C7.25673 23.0767 7.42558 23.0485 7.51 23.1329C7.56628 23.2174 7.48186 23.4425 7.31301 23.6113ZM3.06377 25.2716C4.02055 26.2003 4.72407 27.0164 4.66779 27.0726C4.44266 27.2978 2.13512 26.0596 1.48789 25.3561C0.78437 24.5963 0.531104 23.555 1.06578 23.555C1.23462 23.555 2.13512 24.3148 3.06377 25.2716ZM5.48387 24.737C5.39945 24.9339 5.34316 24.7932 5.34316 24.3993C5.34316 24.0053 5.39945 23.8646 5.48387 24.0334C5.54015 24.2304 5.54015 24.5681 5.48387 24.737ZM28.2497 24.0334C28.0527 24.2304 25.8015 24.1741 25.5763 23.949C25.52 23.8927 26.1391 23.8365 26.9552 23.8365C27.7713 23.8365 28.3623 23.9209 28.2497 24.0334ZM12.1251 24.8777C11.9281 24.9339 11.5904 24.9339 11.4216 24.8777C11.2246 24.7932 11.3653 24.737 11.7592 24.737C12.1532 24.737 12.2939 24.7932 12.1251 24.8777ZM24.2819 24.9621C24.704 25.1309 24.4788 25.2153 23.4376 25.2153C22.3964 25.2153 22.1713 25.1309 22.5934 24.9621C22.903 24.8214 23.2969 24.7088 23.4376 24.7088C23.6065 24.7088 23.9723 24.8214 24.2819 24.9621ZM2.75422 26.9319C2.92306 26.9319 3.03563 27.0445 3.03563 27.2133C3.03563 27.354 2.86678 27.4947 2.64166 27.4947C1.45975 27.4947 1.85372 30.7872 3.17633 32.0535C3.5703 32.4194 3.87985 32.954 3.87985 33.2636C3.87985 33.7138 3.711 33.6294 2.83864 32.7852C2.24769 32.2224 1.43161 31.6314 1.0095 31.4626C0.305978 31.2093 0.221556 31.0123 0.221556 29.943C0.221556 29.2676 0.305978 27.9169 0.3904 26.9882L0.587385 25.2435L1.54417 26.0877C2.0507 26.5661 2.61352 26.9319 2.75422 26.9319ZM5.42759 25.8063C5.51201 25.947 5.48387 26.0877 5.31502 26.0877C5.17432 26.0877 4.94919 25.947 4.86477 25.8063C4.78035 25.6375 4.80849 25.5249 4.97733 25.5249C5.11804 25.5249 5.34316 25.6375 5.42759 25.8063ZM7.90397 25.7219C7.53814 25.7782 6.97532 25.7782 6.63764 25.7219C6.27181 25.6656 6.55321 25.6093 7.25673 25.6093C7.96025 25.6093 8.24166 25.6656 7.90397 25.7219ZM37.6206 27.0445C37.7894 27.748 37.9301 28.4797 37.902 28.6767C37.8738 29.2676 36.8326 26.8475 36.8045 26.144C36.8045 25.1309 37.2547 25.6656 37.6206 27.0445ZM28.6999 26.2847C27.5743 26.341 25.8015 26.341 24.7603 26.2847C23.719 26.2284 24.6477 26.2003 26.8145 26.2003C28.9814 26.2003 29.8256 26.2566 28.6999 26.2847ZM6.07482 27.5229C6.18739 28.1983 6.15924 28.1983 5.73713 27.6355C5.20246 26.9601 5.17432 26.5661 5.65271 26.7068C5.82156 26.7912 6.01854 27.1289 6.07482 27.5229ZM33.6809 34.3329C33.6809 38.3852 33.7371 42.6063 33.8497 43.7319L34.0467 45.7299L32.7241 47.1651C30.9793 49.0224 28.6999 50.5138 26.5613 51.1892C25.0979 51.6676 24.31 51.7239 21.1864 51.6113C18.8507 51.4988 16.712 51.2455 15.2768 50.8515C12.8286 50.2324 9.00146 48.4877 7.73512 47.4184L6.94718 46.7711L6.77834 36.8375L6.6095 26.9038L20.1452 26.9601L33.709 26.9882L33.6809 34.3329ZM34.8346 27.3259C34.8065 27.4666 34.9472 27.6636 35.1442 27.8043C35.707 28.142 35.3412 28.3108 34.6376 28.0294C33.906 27.7762 33.7371 26.8475 34.4407 26.9882C34.6658 27.0445 34.8346 27.1852 34.8346 27.3259ZM37.0296 28.4234C37.6768 29.943 37.8457 31.2937 37.3954 31.547C37.2547 31.6596 37.0296 31.3219 36.9452 30.8153C36.8326 30.3088 36.4949 29.352 36.2135 28.6767C35.707 27.5229 35.707 26.9319 36.1854 26.9319C36.2979 26.9319 36.6638 27.6073 37.0296 28.4234ZM5.54015 28.4515C6.27181 29.6053 6.41251 32.8415 5.73713 32.8415C5.25874 32.8415 5.00548 33.4606 5.00548 34.6143C5.00548 35.149 4.89291 35.3741 4.75221 35.2334C4.61151 35.0646 4.44266 33.4887 4.38638 31.6877C4.3301 29.4646 4.16125 28.2545 3.90799 27.945C3.5703 27.551 3.62658 27.4947 4.24568 27.4947C4.75221 27.4947 5.11804 27.7762 5.54015 28.4515ZM3.711 28.7048C3.93613 29.6053 3.90799 31.7159 3.65472 31.7159C3.06377 31.7159 2.24769 29.0706 2.58537 28.1983C2.78236 27.6355 3.51402 27.945 3.711 28.7048ZM35.9603 29.6053C35.9603 30.1681 35.0035 30.14 34.4407 29.5772C33.9623 29.0988 33.8778 28.8174 34.1592 28.536C34.4407 28.2545 35.9603 29.155 35.9603 29.6053ZM39.506 30.7872C38.9432 31.2937 38.3522 31.7159 38.1834 31.7159C37.8738 31.7159 38.718 30.3932 39.7311 29.2395L40.3221 28.5641L40.4065 29.2113C40.4909 29.6897 40.2376 30.14 39.506 30.7872ZM36.5512 31.2375L36.7482 31.9691L35.9321 31.3782C34.3562 30.2244 34.0748 32.1942 35.51 34.2485C36.1291 35.1772 36.1572 35.2897 35.7633 36.0495L35.3412 36.8375L34.8346 35.9932C34.4688 35.4023 34.2999 34.4455 34.2155 32.7289L34.1311 30.337L35.2286 30.3932C36.1854 30.4777 36.3824 30.5902 36.5512 31.2375ZM40.0688 31.9128C39.9562 32.3631 39.6748 33.3762 39.4497 34.1922C39.0839 35.543 38.9994 35.6274 38.4648 35.346C38.0145 35.1209 37.7331 35.149 37.1703 35.543C36.4668 35.9932 36.4386 35.9932 36.6638 35.4867C36.7763 35.1772 37.0296 34.4455 37.2547 33.8264C37.5361 33.0385 38.0145 32.4757 38.8587 31.941C39.506 31.5189 40.0969 31.153 40.1532 31.153C40.2095 31.153 40.1532 31.4907 40.0688 31.9128ZM36.4105 33.3199C36.5231 33.8545 36.5231 34.3329 36.4386 34.4455C36.1854 34.6988 35.116 32.7571 35.116 32.0254C35.116 31.3782 35.1442 31.35 35.6788 31.8566C35.9884 32.138 36.2979 32.7852 36.4105 33.3199ZM2.8105 33.4606C3.76728 34.5018 4.04869 34.9802 3.76728 35.0365C2.8105 35.2334 1.0095 33.8264 0.699948 32.6164C0.446681 31.5189 1.34718 31.8847 2.8105 33.4606ZM6.1311 33.939C6.1311 35.346 5.73713 37.9068 5.54015 37.9068C5.2306 37.9068 5.20246 36.5279 5.45573 34.6988C5.65271 33.4606 6.1311 32.8696 6.1311 33.939ZM3.37331 35.5711C3.96427 35.6837 4.21754 35.9932 4.58336 37.0063L5.00548 38.3008L3.79543 37.1189C3.12005 36.4435 2.21955 35.8807 1.68487 35.7681C1.20648 35.6556 0.78437 35.4304 0.78437 35.2334C0.78437 35.0083 0.699948 34.6425 0.615526 34.3892C0.474822 34.0515 0.728088 34.136 1.51603 34.6706C2.13512 35.0927 2.9512 35.4867 3.37331 35.5711ZM38.3522 35.937C38.4366 36.0777 37.9864 36.5279 37.3673 36.9219C35.51 38.1038 35.1723 38.0475 36.4386 36.8093C37.6487 35.6274 38.0427 35.4586 38.3522 35.937ZM2.64166 36.8375C3.12005 37.1751 3.68286 37.6817 3.87985 37.9912C4.1894 38.4978 4.16125 38.5259 3.40146 38.3571C2.38839 38.1038 1.23462 37.2596 1.12206 36.6686C0.981355 36.0495 1.57231 36.1058 2.64166 36.8375ZM34.5532 37.738C34.3562 37.9349 34.2718 37.7098 34.2999 37.0344C34.2999 36.1339 34.3281 36.1058 34.5814 36.753C34.7502 37.2033 34.7502 37.541 34.5532 37.738ZM37.9582 38.6103C37.5924 39.4545 37.2266 39.8767 36.8889 39.8767C36.5793 39.8767 36.2135 40.0174 36.0165 40.2143C35.7914 40.4395 35.8195 40.1299 36.101 39.3138C36.5231 38.1319 38.2115 36.4998 38.4366 37.0907C38.4929 37.2033 38.2678 37.9068 37.9582 38.6103ZM4.16125 39.0324C4.4708 39.0324 4.72407 39.145 4.72407 39.3138C4.72407 39.4545 4.49894 39.5953 4.21754 39.5953C3.93613 39.5953 3.45774 39.7922 3.14819 40.0174C2.38839 40.5802 2.27583 40.552 1.93814 39.5671C1.48789 38.2445 1.54417 38.1882 2.61352 38.6385C3.14819 38.8355 3.85171 39.0324 4.16125 39.0324ZM6.32809 39.0887C6.24367 39.3138 6.15924 39.2294 6.15924 38.9199C6.1311 38.6103 6.21553 38.4415 6.29995 38.554C6.38437 38.6385 6.41251 38.8917 6.32809 39.0887ZM35.116 39.6797C35.116 40.1862 35.0597 40.2143 34.8346 39.8767C34.4688 39.3138 34.4688 38.6666 34.8346 38.8917C35.0035 38.9762 35.116 39.342 35.116 39.6797ZM5.87784 40.4958C6.29995 41.0304 6.38437 41.6214 6.38437 43.6757V46.2083L5.20246 44.9138C4.55522 44.2103 3.85171 43.3098 3.62658 42.8877C3.26075 42.1842 3.28889 42.0716 4.1894 41.0304C4.72407 40.4113 5.20246 39.9048 5.2306 39.9048C5.28688 39.8767 5.56829 40.1581 5.87784 40.4958ZM3.711 40.8616C3.45774 41.2556 3.14819 41.5651 3.00749 41.5651C2.55723 41.5651 2.72608 40.749 3.26075 40.4676C4.04869 39.9892 4.1894 40.1299 3.711 40.8616ZM34.8346 41.143C34.8346 41.3681 34.7221 41.6214 34.5532 41.7058C34.3844 41.8184 34.2718 41.5651 34.2718 41.143C34.2718 40.7209 34.3844 40.4676 34.5532 40.5802C34.7221 40.6646 34.8346 40.9179 34.8346 41.143ZM36.5231 41.0023C36.3542 41.3118 35.9603 41.7058 35.5944 41.8746C35.0879 42.1561 35.116 42.0435 35.7914 41.3118C36.7482 40.2988 36.9452 40.2143 36.5231 41.0023ZM35.6226 43.2817C34.7502 44.8576 34.2718 45.2234 34.2718 44.2947C34.2718 43.8164 34.5814 43.338 35.2005 42.8596C35.6788 42.4656 36.1291 42.1279 36.1854 42.1279C36.2417 42.1279 35.9884 42.6344 35.6226 43.2817Z" fill="#C21807"/>
<path d="M17.9502 3.54707C17.9502 3.65963 18.7381 3.85662 19.6668 3.96918C22.1994 4.22245 25.9984 4.19431 25.6889 3.88476C25.3231 3.57521 17.9502 3.23752 17.9502 3.54707Z" fill="#C21807"/>
<path d="M29.0376 9.23139C28.8688 9.54093 30.0226 9.76606 32.5271 9.96304C33.9623 10.0756 34.8346 10.0193 34.8346 9.85048C34.8346 9.54093 29.2065 8.94998 29.0376 9.23139Z" fill="#C21807"/>
<path d="M17.894 9.93503C16.7965 10.526 16.9091 11.0044 18.0066 10.4416C18.6538 10.1039 19.301 10.0194 20.3985 10.132C21.89 10.3009 22.4528 9.99131 21.2709 9.65362C20.1734 9.37221 18.6819 9.48478 17.894 9.93503Z" fill="#C21807"/>
<path d="M22.4526 10.3288C22.4526 10.4695 22.6496 10.6102 22.9029 10.6102C23.128 10.6102 23.2406 10.4695 23.1562 10.3288C23.0717 10.16 22.8747 10.0474 22.7059 10.0474C22.5652 10.0474 22.4526 10.16 22.4526 10.3288Z" fill="#C21807"/>
<path d="M9.93005 12.8616C9.53608 13.0304 9.95819 13.1148 11.2808 13.1148C12.3502 13.143 13.1662 13.0304 13.1662 12.8616C13.1662 12.5239 10.718 12.5239 9.93005 12.8616Z" fill="#C21807"/>
<path d="M26.2515 32.8415C25.3229 32.954 25.1259 33.0947 25.1821 33.545C25.2103 33.8545 25.3229 35.0927 25.4354 36.2746L25.6324 38.4696H26.9832C27.7148 38.4696 28.3902 38.357 28.4746 38.2163C28.6716 37.9068 27.8837 33.0947 27.6023 32.8696C27.4897 32.757 26.8706 32.757 26.2515 32.8415ZM28.0806 37.5691C28.0806 37.7661 27.9681 37.8505 27.7992 37.7661C27.6585 37.6817 27.5178 37.3158 27.5178 36.9781C27.5178 36.4716 27.5741 36.4435 27.7992 36.7812C27.9399 37.0063 28.0806 37.3721 28.0806 37.5691Z" fill="#C21807"/>
<path d="M14.0669 33.348C13.082 33.4324 12.885 33.5168 12.9975 33.9108C13.0538 34.1641 13.2789 35.3178 13.4759 36.4435L13.8418 38.5259L14.6578 38.357C15.1081 38.2726 15.6146 38.1882 15.7272 38.1882C16.0086 38.1882 15.7553 33.6294 15.4458 33.4043C15.3614 33.3198 14.7423 33.2917 14.0669 33.348Z" fill="#C21807"/>
<path d="M13.5886 45.3923C13.8982 48.938 14.0107 49.2757 15.0519 49.3882L15.9243 49.4727L16.1213 47.6998C16.2339 46.7149 16.262 45.3641 16.2057 44.6606C16.1213 43.4224 16.0932 43.3943 15.1082 43.3661C14.5736 43.3661 13.9545 43.2536 13.7575 43.141C13.4761 42.944 13.4198 43.3943 13.5886 45.3923ZM15.1364 44.2385C15.1364 44.4636 15.0801 44.6606 15.0238 44.6606C14.9675 44.6606 14.855 44.4636 14.7424 44.2385C14.658 44.0134 14.7143 43.8164 14.855 43.8164C15.0238 43.8164 15.1364 44.0134 15.1364 44.2385ZM15.3334 48.7691C15.2489 48.8536 14.9957 48.8817 14.7987 48.7973C14.5736 48.7129 14.658 48.6284 14.9675 48.6284C15.2771 48.6003 15.4459 48.6847 15.3334 48.7691Z" fill="#C21807"/>
<path d="M25.3797 44.2384C25.2672 44.4635 25.3234 45.7861 25.436 47.1369L25.6893 49.5851L26.5616 49.6696C27.9405 49.8103 28.1375 49.3037 27.8842 46.4334L27.6591 43.957L26.5898 43.8726C25.83 43.8163 25.4923 43.9007 25.3797 44.2384Z" fill="#C21807"/>
</svg>
