<svg width="27" height="22" viewBox="0 0 27 22" fill="none" xmlns="http://www.w3.org/2000/svg">
<path d="M24.3165 10.401C24.2399 10.5544 23.9332 10.6822 23.6776 10.6822C23.422 10.6822 22.093 11.4489 20.764 12.3946C19.4349 13.3658 17.0069 14.9759 15.3968 16.0238C13.761 17.0717 12.3809 18.1451 12.2787 18.4007C12.202 18.6563 12.0231 18.7841 11.8697 18.7074C11.7419 18.6307 11.7931 18.8863 12.0231 19.3208C13.761 22.6689 21.224 22.7967 24.2399 19.5508C25.4411 18.2474 26.2845 16.3561 26.4123 14.6437C26.5145 13.3147 26.4379 12.9057 25.7989 11.7045C25.0833 10.2988 24.6232 9.91542 24.3165 10.401ZM24.0865 11.8323C24.291 12.9568 24.6488 13.008 24.4954 11.8834C24.3932 11.1678 24.4188 11.1167 24.7766 11.4489C25.16 11.8323 25.62 13.7491 25.3389 13.7491C25.2622 13.7491 24.9299 13.5702 24.5977 13.3658C24.1376 13.0591 23.7543 13.0335 22.553 13.2635C20.2528 13.6725 20.125 13.4936 21.7863 12.1645C22.6297 11.5256 23.422 10.9633 23.6009 10.9633C23.7798 10.9377 23.9843 11.3467 24.0865 11.8323ZM24.6232 13.9281C24.7255 14.2092 24.4443 15.436 24.061 16.3561C23.652 17.3528 24.4955 16.765 24.9811 15.7171C25.39 14.8226 25.4411 14.7715 25.3389 15.4104C25.1344 16.4583 24.2654 18.2218 23.5242 19.0908C22.5019 20.292 20.6362 20.931 17.9526 20.9821C15.8824 21.0332 15.4734 20.9565 14.1955 20.3176C13.3777 19.9342 12.5854 19.4231 12.4064 19.193C12.1764 18.9374 12.5087 19.0397 13.2243 19.4486C15.3201 20.6754 16.1635 20.3176 16.8791 17.864C17.3647 16.2283 17.3392 16.305 17.058 16.305C16.9302 16.305 16.5724 16.995 16.2657 17.864C15.9335 18.7074 15.5245 19.4742 15.3201 19.5508C14.9367 19.7042 12.7643 18.963 12.5598 18.6052C12.4831 18.4774 13.071 18.0174 13.8888 17.6084C14.7067 17.1995 16.4191 16.1261 17.697 15.2315L20.0228 13.6214H22.2719C23.7798 13.6214 24.5721 13.7236 24.6232 13.9281Z" fill="currentColor"/>
<path d="M19.1792 14.9761C19.2559 15.1039 20.0993 15.5384 21.045 15.9473C23.3963 16.9185 23.4474 16.9441 23.1152 17.8642C22.8596 18.6054 21.5817 19.5254 21.1472 19.2443C21.0194 19.1932 20.8405 19.2954 20.7638 19.5254C20.636 19.8833 20.7383 19.9344 21.5561 19.8066C22.7063 19.6021 23.1407 19.1932 23.3963 18.0686C23.6775 16.7141 23.4986 16.4074 21.9395 15.7173C20.2527 14.9761 18.9748 14.6438 19.1792 14.9761Z" fill="currentColor"/>
<path d="M18.4382 15.7172C18.5404 15.9728 18.8983 16.8929 19.2305 17.7363C19.9461 19.6532 19.7928 19.8832 17.8248 19.8832L16.3936 19.9088L17.1347 20.2922C18.3104 20.9311 20.3551 20.241 20.3551 19.1932C20.3551 18.7587 18.6171 15.2828 18.4126 15.2828C18.336 15.2828 18.336 15.4872 18.4382 15.7172Z" fill="currentColor"/>
<path d="M9.1607 0.228812C8.41952 0.356603 7.47387 0.637742 7.06494 0.842208C5.19919 1.81342 3.41012 3.9603 2.46447 6.36276C2.15777 7.10395 1.4677 8.22851 0.879867 8.8419C0.266471 9.53197 -0.0657844 10.0943 0.01089 10.3243C0.0875644 10.5543 0.164239 10.7843 0.164239 10.8354C0.164239 10.8866 0.368704 10.9377 0.624285 10.9377C0.956541 10.9377 0.982099 10.8866 0.70096 10.7076C0.240913 10.4265 0.675401 9.60865 1.69773 8.89302C2.18333 8.56076 2.82228 7.61511 3.35901 6.465C4.45801 4.19032 6.24707 2.19679 7.95947 1.4556C9.59519 0.714417 12.4577 0.509952 13.25 1.02111C13.9656 1.48116 16.1892 1.99232 17.5182 1.99232C18.8984 1.99232 19.2562 2.50349 18.7194 3.62804C18.4894 4.11365 18.3105 4.70149 18.3105 4.98263C18.285 6.03051 17.007 9.02081 16.2147 9.86423C15.0391 11.0655 12.8922 12.0878 10.4897 12.599C8.0617 13.1101 6.42598 12.9568 4.48356 12.0367C3.12898 11.3977 1.69773 10.8866 1.69773 11.0655C1.69773 11.091 2.49003 11.6022 3.46124 12.19C5.65924 13.4935 7.06494 13.8257 9.18626 13.519C14.6557 12.7523 16.7515 11.1166 18.5405 6.23497C18.9495 5.11042 19.4606 3.73028 19.6907 3.21911C20.0996 2.27346 20.0996 2.2479 19.4351 1.81342C19.0773 1.58339 18.0805 1.30225 17.2371 1.17446C16.3681 1.07223 14.9368 0.739975 14.0167 0.458836C12.2788 -0.0778856 11.3331 -0.129002 9.1607 0.228812Z" fill="currentColor"/>
<path d="M11.537 1.73685C11.6137 1.86464 11.8181 1.99243 11.9459 1.99243C12.0993 1.99243 12.1248 1.86464 12.0481 1.73685C11.9715 1.5835 11.767 1.48127 11.6392 1.48127C11.4859 1.48127 11.4603 1.5835 11.537 1.73685Z" fill="currentColor"/>
<path d="M12.4316 2.75919C12.4316 2.88698 12.5594 3.01477 12.6872 3.01477C12.8406 3.01477 12.9428 2.88698 12.9428 2.75919C12.9428 2.60584 12.8406 2.50361 12.6872 2.50361C12.5594 2.50361 12.4316 2.60584 12.4316 2.75919Z" fill="currentColor"/>
<path d="M15.4221 2.6827C15.3198 2.75937 15.2432 2.9894 15.2432 3.19386C15.2432 3.62835 15.9077 3.62835 16.0866 3.1683C16.291 2.63158 15.8054 2.27377 15.4221 2.6827Z" fill="currentColor"/>
<path d="M3.79334 10.1455C3.89557 10.4778 4.25338 10.5545 4.27894 10.2478C4.27894 10.1455 4.15115 10.0178 3.9978 9.94108C3.81889 9.88996 3.71666 9.99219 3.79334 10.1455Z" fill="currentColor"/>
<path d="M5.78711 10.4521C5.78711 10.7332 5.9149 10.8866 6.04269 10.8099C6.19604 10.7332 6.29827 10.4777 6.29827 10.2732C6.29827 10.0687 6.19604 9.91538 6.04269 9.91538C5.9149 9.91538 5.78711 10.1454 5.78711 10.4521Z" fill="currentColor"/>
<path d="M12.483 10.4522C12.5341 10.6311 12.7386 10.8355 12.9175 10.8867C13.1219 10.9633 13.2242 10.8611 13.1475 10.6566C13.0964 10.4777 12.8919 10.2733 12.713 10.2221C12.5085 10.1455 12.4063 10.2477 12.483 10.4522Z" fill="currentColor"/>
<path d="M5.27539 11.4233C5.27539 11.5511 5.40318 11.7556 5.53097 11.8323C5.68432 11.909 5.78655 11.8834 5.78655 11.73C5.78655 11.6023 5.68432 11.3978 5.53097 11.3211C5.40318 11.2444 5.27539 11.27 5.27539 11.4233Z" fill="currentColor"/>
</svg>
