<svg width="60" height="90" viewBox="0 0 60 90" fill="none" xmlns="http://www.w3.org/2000/svg">
<path d="M11.48 51V50.52H12.488C13.224 50.52 13.768 50.456 14.12 50.328C14.504 50.2 14.808 49.96 15.032 49.608C15.288 49.224 15.544 48.664 15.8 47.928L26.552 16.728H27.512L38.648 48.168C38.904 48.872 39.128 49.384 39.32 49.704C39.544 50.024 39.832 50.248 40.184 50.376C40.536 50.472 41.048 50.52 41.72 50.52H42.536V51H31.976V50.52H33.656C34.872 50.52 35.64 50.408 35.96 50.184C36.28 49.928 36.44 49.544 36.44 49.032C36.44 48.712 36.36 48.28 36.2 47.736C36.072 47.16 35.912 46.616 35.72 46.104C35.528 45.56 35.384 45.144 35.288 44.856L33.08 38.568H19.592L17.432 44.76C17.336 45.048 17.192 45.464 17 46.008C16.84 46.552 16.68 47.096 16.52 47.64C16.36 48.184 16.28 48.632 16.28 48.984C16.28 49.496 16.472 49.88 16.856 50.136C17.272 50.392 18.12 50.52 19.4 50.52H21.752V51H11.48ZM19.784 38.088H32.936L29.144 27.192C28.824 26.264 28.488 25.288 28.136 24.264C27.784 23.24 27.448 22.248 27.128 21.288C26.808 20.296 26.536 19.448 26.312 18.744C26.184 19.192 26.008 19.752 25.784 20.424C25.56 21.096 25.32 21.816 25.064 22.584C24.808 23.32 24.552 24.056 24.296 24.792C24.072 25.496 23.864 26.104 23.672 26.616L19.784 38.088Z" fill="currentColor"/>
<path d="M21.7944 76.3257V75.8857H23.6864C24.4198 75.8857 24.9771 75.7977 25.3584 75.6217C25.7691 75.4164 26.0331 75.0497 26.1504 74.5217C26.2971 73.9937 26.3704 73.2017 26.3704 72.1457V49.0457C26.3704 47.9897 26.2971 47.2123 26.1504 46.7137C26.0331 46.1857 25.7691 45.8337 25.3584 45.6577C24.9771 45.4523 24.4198 45.3497 23.6864 45.3497H21.7944V44.9097H27.8224L39.5264 74.2137L50.8784 44.9097H56.6864V45.3497H55.1464C54.4131 45.3497 53.8411 45.4523 53.4304 45.6577C53.0491 45.8337 52.7851 46.1857 52.6384 46.7137C52.5211 47.2417 52.4624 48.0337 52.4624 49.0897V72.1457C52.4624 73.2017 52.5211 73.9937 52.6384 74.5217C52.7851 75.0497 53.0491 75.4164 53.4304 75.6217C53.8411 75.7977 54.4131 75.8857 55.1464 75.8857H56.6864V76.3257H46.0384V75.8857H47.9744C48.6784 75.8857 49.2211 75.7977 49.6024 75.6217C49.9838 75.4164 50.2331 75.0497 50.3504 74.5217C50.4971 73.9937 50.5704 73.2017 50.5704 72.1457V46.9337L39.2184 76.3257H38.4264L26.8104 47.2857V72.1457C26.8104 73.2017 26.8691 73.9937 26.9864 74.5217C27.1331 75.0497 27.3971 75.4164 27.7784 75.6217C28.1891 75.7977 28.7758 75.8857 29.5384 75.8857H30.8144V76.3257H21.7944Z" fill="currentColor"/>
</svg>
