<svg width="67" height="66" viewBox="0 0 67 66" fill="none" xmlns="http://www.w3.org/2000/svg">
<path d="M11.1298 57.2038C10.7631 57.2611 10.5991 57.4826 10.6377 57.868C10.6801 58.3335 10.9058 58.5148 11.3149 58.4119C12.7004 58.0646 12.6387 57.6618 11.1298 57.2038ZM11.6797 57.8851C11.618 58.2783 11.4809 58.2497 11.2687 57.7992C11.3999 57.7572 11.531 57.7726 11.6622 57.8449C11.6777 57.8602 11.6836 57.8738 11.6797 57.8851ZM8.29313 44.5688C9.92575 44.2444 9.9778 43.7387 8.44953 43.0516C7.95569 43.2006 7.7259 43.5441 7.76069 44.0822C7.78354 44.4754 7.96127 44.6376 8.29313 44.5688ZM8.36828 44.0136C8.36067 43.8572 8.4338 43.7427 8.58817 43.6701L8.59985 43.6586C9.17495 44.0975 9.10157 44.2386 8.37997 44.0822C8.3721 44.0593 8.36828 44.0365 8.36828 44.0136ZM0.101578 35.2257C0.20568 35.5235 0.385191 35.6359 0.63986 35.5634C2.22602 35.1129 2.22018 34.4947 0.622596 33.7085C0.0398791 34.0254 -0.133794 34.5311 0.101578 35.2257ZM0.524336 34.9911C0.497421 34.7737 0.530176 34.5675 0.622852 34.3729C0.630469 34.3654 0.638341 34.3614 0.645958 34.3614C1.10147 34.392 1.30967 34.6095 1.27107 35.014C1.08978 35.3078 0.84273 35.3231 0.53017 35.0597C0.53017 35.0368 0.528144 35.014 0.524336 34.9911ZM11.4596 23.9076C11.3786 23.9192 11.309 23.9629 11.2511 24.0392C10.3018 25.3484 10.6413 25.9609 12.2701 25.877C12.2856 25.8541 12.299 25.8293 12.3107 25.8027C12.7545 24.7453 12.4707 24.1135 11.4596 23.9076ZM11.3555 25.3216C11.2242 25.0278 11.2821 24.7548 11.5292 24.503C12.1043 24.9113 12.0578 25.2015 11.3903 25.3733C11.3748 25.358 11.3631 25.3406 11.3555 25.3216ZM22.0072 65.8143C22.1846 65.925 22.37 65.9458 22.563 65.8773C24.1994 65.3201 24.1839 64.7878 22.5168 64.28C22.2928 64.3335 22.1425 64.4804 22.0653 64.7207C21.9455 65.0795 21.9262 65.4439 22.0072 65.8143ZM22.9451 64.8523C23.1264 64.9171 23.2307 65.0165 23.2577 65.1501C23.0878 65.5011 22.8407 65.5471 22.5168 65.2875C22.5168 65.2646 22.5188 65.2418 22.5226 65.2187C22.5574 65.0353 22.648 64.9058 22.7948 64.8294C22.8486 64.8294 22.8986 64.8372 22.9451 64.8523ZM35.7443 61.6751C35.2119 62.7247 35.4645 63.3716 36.5027 63.6159C37.4831 63.8449 37.8804 63.4843 37.6953 62.5339C37.5526 61.7859 37.0103 61.408 36.0685 61.4004C35.9258 61.4308 35.8177 61.5225 35.7443 61.6751ZM36.1612 62.4136C36.3311 62.3601 36.5009 62.3124 36.6706 62.2705C37.0796 62.0644 37.3266 62.1025 37.4115 62.385C37.4886 62.4995 37.4963 62.6215 37.4346 62.7514C37.3767 62.8774 37.315 63.007 37.2492 63.1406C36.8826 63.3733 36.5197 63.3658 36.161 63.1177C36.0683 63.0148 36.0317 62.8849 36.051 62.7285C36.0627 62.6369 36.0683 62.5452 36.0683 62.4538C36.0995 62.4385 36.1305 62.4249 36.1612 62.4136ZM49.3428 62.4709C49.0881 62.5472 48.9492 62.736 48.9259 63.0376C48.8949 63.4881 48.9569 63.9021 49.1112 64.28C49.4083 64.49 49.7171 64.4689 50.0375 64.217C51.1953 63.3123 50.9637 62.7303 49.3428 62.4709ZM49.5279 63.6159C49.5279 63.4517 49.5279 63.2915 49.5279 63.135C49.9293 63.0168 50.1764 63.1235 50.2688 63.4557C50.122 63.8908 49.8752 63.9672 49.5279 63.6847C49.5279 63.6616 49.5279 63.6387 49.5279 63.6159ZM53.7656 53.2307C55.4483 52.7727 55.5313 52.2175 54.0144 51.5647C53.532 51.7861 53.2812 52.1811 53.2619 52.7498C53.2502 53.1697 53.4183 53.3299 53.7656 53.2307ZM53.9218 52.9158C53.9218 52.893 53.9197 52.8701 53.9159 52.847C53.8773 52.5723 53.9563 52.3433 54.1533 52.16C54.7246 52.4694 54.6474 52.7212 53.9218 52.9158ZM66.1251 42.9088C67.2057 42.0578 66.9607 41.5862 65.3897 41.4946C65.0114 41.8306 64.9979 42.2542 65.3491 42.7654C65.5771 43.0898 65.8356 43.1375 66.1251 42.9088ZM66.2987 42.3877C65.9397 42.6549 65.7295 42.5557 65.6678 42.0899C66.0151 41.9488 66.2312 42.0327 66.316 42.3418C66.316 42.3646 66.3104 42.38 66.2987 42.3877ZM59.3577 35.1513C60.9824 35.0865 61.1175 34.6722 59.7629 33.9089C59.4851 34.0731 59.2688 34.3021 59.1144 34.5959C58.9062 34.9776 58.9872 35.1629 59.3577 35.1513ZM60.1161 34.739C59.7571 35.0901 59.6009 35.0042 59.6471 34.4814C59.9249 34.3744 60.0871 34.4432 60.1334 34.6875C60.1334 34.7104 60.1275 34.7277 60.1161 34.739ZM56.55 21.4745C58.2057 21.4057 58.2943 20.8849 56.8163 19.9116C56.3804 20.0718 56.1178 20.3734 56.0289 20.8161C55.9365 21.2741 56.1102 21.4936 56.55 21.4745ZM56.55 20.9248C56.6155 20.7646 56.7274 20.6253 56.8856 20.507C56.9011 20.4995 56.9108 20.4974 56.9146 20.5012C57.123 20.7074 57.2444 20.9231 57.2792 21.148C56.9628 21.3886 56.7158 21.3351 56.5383 20.9878C56.5385 20.965 56.5423 20.9439 56.55 20.9248ZM31.9527 17.135C31.8562 17.1312 31.7559 17.1292 31.6518 17.1292C31.3431 17.1711 31.0285 17.2457 30.7083 17.3524C30.1949 17.5204 29.8669 17.8428 29.7242 18.3199C29.7242 18.3237 29.7242 18.3274 29.7242 18.3315C28.9716 18.2398 28.1456 18.3659 27.2465 18.7094C19.6707 21.6138 15.4119 26.9668 14.4702 34.7679C14.1731 37.2372 14.2714 39.701 14.7655 42.1587C15.5914 46.2921 17.9089 49.3683 21.718 51.3874C27.117 54.2574 32.9351 55.0075 39.1718 53.6372C42.2669 52.9618 44.7697 51.4464 46.6801 49.0916C46.8345 48.9007 46.9868 48.7079 47.1374 48.5133C47.423 48.2537 47.6122 47.9865 47.7046 47.7118C49.3525 45.292 50.4024 42.607 50.8538 39.6568C51.5523 35.0845 50.8172 30.8061 48.6481 26.8214C45.553 21.1307 40.7519 18.1441 34.2452 17.8619C34.199 17.8694 34.1604 17.8752 34.1295 17.879C33.8786 17.4516 33.2514 17.2073 32.248 17.1463C32.4679 15.8792 32.6591 14.5816 32.8211 13.2532C33.3845 8.6732 33.2418 4.25562 32.3927 0C32.5702 4.27069 32.3755 8.72493 31.808 13.362C31.6305 14.7895 31.6787 16.0472 31.9527 17.135ZM38.9631 21.0107C38.3225 21.5144 37.5582 21.8712 36.6706 22.0811C35.8487 21.085 34.9648 20.1233 34.0193 19.1958C34.1041 19.0202 34.166 18.856 34.2046 18.7034C35.8603 19.1691 37.4465 19.9383 38.9631 21.0107ZM36.3118 22.1557C36.0647 22.2014 35.808 22.2358 35.5419 22.2587C34.9089 22.3197 34.2762 22.3752 33.6432 22.4246C33.4657 21.7223 33.2842 21.022 33.0991 20.3234C33.3268 20.2014 33.516 20.0276 33.6663 19.8024C33.7938 19.6153 33.8999 19.4378 33.9847 19.2701C34.8066 20.1976 35.5823 21.1596 36.3118 22.1557ZM37.1801 22.7167C37.2883 22.6823 37.3983 22.6479 37.51 22.6137C38.4245 22.3275 39.1192 21.9478 39.594 21.4745C40.7133 22.3408 41.736 23.255 42.6623 24.2167C42.1605 24.5374 41.6222 24.8196 41.0471 25.0639C40.4682 25.312 39.8893 25.5335 39.3104 25.7281C38.6581 24.69 37.9482 23.6861 37.1801 22.7167ZM40.3697 19.6023C41.2805 20.0374 42.1643 20.5582 43.021 21.1651C43.6037 21.5772 44.1517 22.0256 44.6651 22.5105C44.2867 22.9303 43.8759 23.3158 43.4321 23.6668C42.417 22.6363 41.2843 21.7165 40.0341 20.9075C40.258 20.5183 40.37 20.0831 40.3697 19.6023ZM40.2425 19.5395C40.0148 19.9136 39.7563 20.2514 39.4668 20.5527C37.9269 19.6176 36.2173 18.8427 34.3379 18.2283V18.2398C34.3031 18.2398 34.2724 18.2436 34.2452 18.2514C34.2336 18.1331 34.2028 18.0244 34.1526 17.9249C36.3059 18.1042 38.3359 18.6423 40.2425 19.5395ZM39.7329 26.4209C40.6361 26.0927 41.543 25.6977 42.4538 25.2357C42.7278 25.0983 42.9766 24.9532 43.2005 24.8005C43.9955 25.6859 44.7115 26.6135 45.3483 27.583C44.1326 28.4874 42.8649 29.2565 41.5451 29.8901C41.0047 28.6956 40.4007 27.539 39.7329 26.4209ZM34.8008 27.5659C36.2364 27.4248 37.6836 27.1116 39.1426 26.627C39.7677 27.7796 40.3428 28.9723 40.8676 30.2052C39.1812 30.9457 37.4135 31.4722 35.565 31.7853C35.3335 30.3651 35.0788 28.9587 34.8008 27.5659ZM38.7374 25.9056C37.3828 26.3179 36.0127 26.5851 34.6271 26.7071C34.3879 25.5659 34.133 24.4324 33.8629 23.3065C34.8084 23.2492 35.7829 23.089 36.7863 22.8256C37.481 23.8177 38.1315 24.8445 38.7374 25.9056ZM34.8818 32.4149C34.8894 32.4759 34.8973 32.5351 34.9049 32.5924C35.1171 34.1037 35.3063 35.6133 35.4721 37.1207C33.4883 37.3497 31.4855 37.3916 29.4631 37.2467C29.4786 36.056 29.5038 34.8613 29.5386 33.6628C29.5502 33.2887 29.5637 32.9168 29.5789 32.5464C31.3931 32.6762 33.1605 32.6323 34.8818 32.4149ZM41.105 30.7774C41.3249 31.3193 41.5354 31.8672 41.736 32.4206C42.0988 33.4205 42.421 34.4206 42.7029 35.4205C40.5881 36.1761 38.4517 36.7066 36.2945 37.012C36.1094 35.4318 35.8951 33.8632 35.6519 32.3061C37.5237 32.0083 39.3414 31.4988 41.105 30.7774ZM43.4321 35.1513C42.9883 33.5368 42.4459 31.9797 41.8053 30.4796C43.1637 29.8727 44.4896 29.138 45.7823 28.2755C46.6699 29.7449 47.3801 31.302 47.9125 32.9472C46.9246 33.5769 45.8805 34.1283 44.7806 34.6017C44.3335 34.7963 43.8838 34.9796 43.4321 35.1513ZM46.1819 26.9303C46.1471 26.961 46.1123 26.9896 46.0778 27.0162C45.441 26.0048 44.727 25.0679 43.9359 24.2052C44.4066 23.7281 44.6864 23.1995 44.7753 22.6192C45.7825 23.5887 46.645 24.6936 47.3628 25.934C47.3704 25.9455 47.3783 25.9568 47.3859 25.9684C46.9924 26.2777 46.591 26.5981 46.1819 26.9303ZM46.5234 27.7605C47.1178 27.2949 47.4883 26.8465 47.635 26.4151C48.5844 28.1364 49.2946 29.871 49.7653 31.6191C49.3717 31.932 48.9683 32.2318 48.5554 32.5178C48.0268 30.7928 47.3494 29.2068 46.5234 27.7605ZM48.7928 33.3251C49.3834 32.8862 49.7384 32.4302 49.858 31.9568C50.2942 33.701 50.4928 35.4567 50.4542 37.2239C50.1878 37.4185 49.9197 37.6076 49.6495 37.7906C49.4797 36.2943 49.1943 34.8058 48.7928 33.3251ZM31.6285 17.7246C32.0992 17.717 32.5316 17.7971 32.9252 17.9651C34.0327 18.4344 34.083 18.9728 33.0757 19.5794C32.3849 19.9955 31.6767 20.005 30.951 19.6081C29.4769 18.8028 29.7026 18.175 31.6285 17.7246ZM27.8252 22.0184C28.1416 21.7246 28.4678 21.4363 28.8035 21.1538C29.2783 20.7606 29.6216 20.3942 29.8339 20.0545C30.0423 20.3217 30.38 20.4914 30.8469 20.564C30.5999 21.2319 30.38 21.9131 30.187 22.6077C29.2491 22.5622 28.462 22.3656 27.8252 22.0184ZM27.1305 21.526C26.6598 21.087 26.3162 20.5223 26.1001 19.8313C27.227 19.2854 28.4196 18.841 29.6777 18.4974C29.5812 18.8791 29.5543 19.2093 29.5967 19.4878C28.6781 20.003 27.8559 20.6825 27.1305 21.526ZM27.0378 21.6347C26.9492 21.7376 26.8624 21.8446 26.7773 21.9553C25.9861 22.9781 25.2683 24.0276 24.6239 25.1041C23.4275 24.5088 22.432 23.7379 21.6367 22.7912C22.8486 21.7226 24.1704 20.8181 25.6022 20.0776C25.4788 20.3754 25.6794 20.7111 26.2042 21.0853C26.4782 21.2799 26.756 21.4629 27.0378 21.6347ZM32.4851 20.5183C32.6702 20.4917 32.8401 20.444 32.9945 20.3752C33.1103 21.0622 33.2281 21.7529 33.3477 22.4477C32.6337 22.505 31.9177 22.5547 31.1999 22.5966C31.1072 22.6004 31.0165 22.6042 30.9277 22.6082C31.0897 21.8182 31.142 21.1463 31.0838 20.5931C31.4741 20.627 31.941 20.6024 32.4851 20.5183ZM30.818 23.1116C31.6826 23.2796 32.574 23.3502 33.4924 23.3236C33.6777 24.457 33.8611 25.6003 34.0424 26.7528C32.7611 26.8292 31.47 26.7835 30.1695 26.6155C30.3472 25.4398 30.5633 24.272 30.818 23.1116ZM27.7904 22.0528C28.5354 22.4344 29.3032 22.7302 30.0944 22.9401C29.7894 24.0927 29.5579 25.2816 29.3997 26.5067C28.4617 26.3503 27.5182 26.1326 26.5689 25.8541C26.0209 25.6939 25.5017 25.5049 25.0116 25.2874C25.8145 24.1231 26.7408 23.0448 27.7904 22.0528ZM22.8235 24.6461C23.3407 24.959 23.8597 25.2472 24.3807 25.5106C23.5123 27.0029 22.7829 28.5411 22.1925 30.1248C20.6257 29.3005 19.2497 28.2185 18.065 26.8789C18.5705 26.1193 19.1378 25.3828 19.7669 24.669C20.3034 24.0583 20.8669 23.4878 21.4575 22.9572C21.6116 23.6289 22.0671 24.1919 22.8235 24.6461ZM22.2966 30.9434C23.1881 31.3557 24.155 31.6744 25.197 31.8993C26.513 32.1856 27.8059 32.386 29.0757 32.5005C29.0295 34.0691 28.9927 35.6377 28.9657 37.2063C26.7542 37.0155 24.5198 36.5994 22.2621 35.9584C21.9147 35.8592 21.5732 35.756 21.2376 35.6493C21.4572 34.0769 21.8104 32.5083 22.2966 30.9434ZM21.961 30.7774C21.4323 32.3041 21.0327 33.8747 20.7628 35.4891C18.7945 34.8058 17.0057 33.9262 15.3964 32.8498C15.8865 30.8842 16.6855 29.0331 17.7931 27.2965C18.9158 28.789 20.3052 29.9493 21.961 30.7774ZM22.5109 30.2908C23.0743 28.6343 23.8193 27.1001 24.7456 25.6879C26.2545 26.4169 27.777 26.9437 29.3131 27.2681C29.2359 27.9895 29.1856 28.7242 29.1625 29.4722C29.1356 30.3232 29.1105 31.1744 29.0874 32.0257C26.6171 31.8195 24.4251 31.2412 22.5109 30.2908ZM30.0537 27.4112C31.4162 27.6364 32.7901 27.705 34.1754 27.6174C34.3915 29.0333 34.602 30.4608 34.8064 31.8996C33.1392 32.1248 31.4063 32.1801 29.6079 32.0656C29.6929 30.5007 29.8417 28.9492 30.0537 27.4112ZM27.5647 37.9737C28.0278 38.0272 28.4889 38.0729 28.9482 38.111C28.9172 39.6796 28.8941 41.2465 28.8789 42.8113C26.2276 42.6815 23.6108 42.2675 21.0291 41.5689C20.9057 39.8514 20.9423 38.1376 21.1391 36.4279C23.1688 37.1912 25.3107 37.7065 27.5647 37.9737ZM29.4576 42.8342C29.4421 41.2771 29.4421 39.7161 29.4576 38.1512C31.5492 38.2923 33.5871 38.2524 35.5706 38.0309C35.725 39.5157 35.8583 40.9984 35.97 42.4791C33.778 42.7845 31.6071 42.903 29.4576 42.8342ZM29.4692 43.5556C30.5461 43.5672 31.6439 43.525 32.7632 43.4296C33.8555 43.3379 34.9379 43.2121 36.0109 43.0516C36.1191 44.5974 36.2039 46.1394 36.2656 47.6774C34.0078 48.1085 31.779 48.3034 29.5792 48.2614C29.5251 46.6966 29.4885 45.128 29.4692 43.5556ZM20.3573 42.0555C20.369 42.3837 20.3862 42.7139 20.4093 43.0459C20.4982 44.3893 20.7046 45.6621 21.0289 46.8643C19.3731 46.3453 17.7329 45.6812 16.1081 44.8721C15.452 43.3723 15.0448 41.6739 14.8866 39.7768C14.879 39.6889 14.8731 39.6013 14.8693 39.5134C16.6215 40.567 18.4509 41.4145 20.3573 42.0555ZM21.7929 46.4696C21.4534 45.0765 21.2178 43.6834 21.0867 42.2903C23.5527 43.0461 26.1464 43.464 28.8672 43.5441C28.8517 45.1089 28.8421 46.6738 28.8383 48.2386C26.515 48.1356 24.2245 47.7693 21.9668 47.1395C21.9048 46.9181 21.8469 46.6948 21.7929 46.4696ZM20.6467 36.2391C20.4075 37.9069 20.3052 39.6206 20.34 41.3801C18.4913 40.842 16.6622 40.1587 14.8521 39.3306C14.717 37.2161 14.8617 35.2086 15.2862 33.308C15.3248 33.3386 15.3672 33.371 15.4137 33.4054C17.0654 34.5577 18.8097 35.5024 20.6467 36.2391ZM23.6454 51.7766C23.0858 50.5706 22.615 49.3339 22.2329 48.0668C24.1588 48.6012 26.2253 48.8626 28.4328 48.8513C28.5679 48.8513 28.7029 48.8513 28.838 48.8513C28.838 49.649 28.838 50.4485 28.838 51.25C28.8418 51.9636 28.9576 52.5362 29.1854 52.9675C28.8032 52.9791 28.4231 52.9886 28.0448 52.9962C27.2575 52.8473 26.4703 52.6642 25.683 52.4465C24.9654 52.2517 24.286 52.0284 23.6454 51.7766ZM21.3066 47.7864C21.7543 49.1375 22.3621 50.397 23.1302 51.5649C19.9155 50.1909 17.6326 48.0859 16.2818 45.2503C17.8294 46.3456 19.5044 47.191 21.3066 47.7864ZM29.7991 53.2709C29.7991 53.2402 29.797 53.2099 29.7932 53.1792C32.0238 53.2327 34.2181 53.0589 36.3753 52.6582C36.3753 52.8643 36.3753 53.0723 36.3753 53.2822C34.1988 53.5493 32.0065 53.5456 29.7991 53.2709ZM29.307 53.1677C29.3146 53.1792 29.3243 53.1925 29.3359 53.2078C29.2047 53.1888 29.0734 53.1697 28.9424 53.1506C29.062 53.1544 29.1836 53.1601 29.307 53.1677ZM29.7818 52.9387C29.7084 51.5724 29.6467 50.2039 29.5967 48.834C31.8621 48.7652 34.0909 48.5402 36.2828 48.1585C36.329 49.4409 36.358 50.7232 36.3697 52.0056C34.2315 52.5055 32.0355 52.8166 29.7818 52.9387ZM49.0244 39.0328C49.0475 39.4526 49.063 39.8763 49.0706 40.3036C49.0861 41.2234 49.1651 42.0535 49.308 42.794C47.8607 43.584 46.3652 44.3112 44.8215 44.9753C44.8022 43.6166 44.7115 42.2597 44.5493 40.9048C46.0699 40.3629 47.5616 39.7389 49.0244 39.0328ZM49.7305 38.6549C49.9969 38.4907 50.2246 38.323 50.4135 38.1512C50.3285 39.3916 50.1241 40.6396 49.7998 41.8953C49.8387 40.8113 49.8156 39.7314 49.7305 38.6549ZM44.4858 40.384C44.3817 39.6016 44.2542 38.8211 44.1037 38.0425C43.9686 37.3479 43.818 36.6647 43.6522 35.993C45.1884 35.3708 46.6877 34.621 48.1502 33.7432C48.5516 35.1744 48.8218 36.6705 48.9607 38.2316C47.5675 39.0938 46.0758 39.8115 44.4858 40.384ZM44.8273 45.8055C45.9079 45.3894 46.9789 44.9314 48.0403 44.4314C48.5458 44.1949 48.9531 43.9468 49.2618 43.6872C48.9569 44.5688 48.5943 45.4524 48.1736 46.3378C48.0309 46.6356 47.8803 46.9256 47.7221 47.2081C46.7263 47.8378 45.7135 48.4161 44.6828 48.9427C44.7715 47.8931 44.8197 46.8475 44.8273 45.8055ZM42.9286 36.2735C43.2991 37.7238 43.5827 39.1742 43.7797 40.6245C41.4293 41.407 39.1022 41.9832 36.7983 42.3533C36.7673 41.8953 36.7328 41.4356 36.6942 40.9736C36.6091 39.9506 36.5108 38.9354 36.3989 37.928C38.6447 37.6111 40.8214 37.0597 42.9286 36.2735ZM36.8328 42.9201C39.2332 42.5118 41.5702 41.922 43.8432 41.1511C44.0092 42.5251 44.0978 43.9009 44.1095 45.2789C43.7932 45.4049 43.4765 45.5307 43.1602 45.6568C41.0492 46.4849 38.9613 47.1167 36.8965 47.5518C36.9351 46.0211 36.9138 44.4774 36.8328 42.9201ZM43.6637 51.2041C42.9573 51.5933 42.1913 51.9197 41.3655 52.1831C39.737 52.6984 38.1006 53.0609 36.4565 53.2709C36.4834 53.0572 36.5106 52.8435 36.5375 52.6296C38.9996 52.1562 41.4158 51.3911 43.7853 50.3338C43.7467 50.624 43.7063 50.9141 43.6637 51.2041ZM36.6127 51.9483C36.7477 50.6584 36.8384 49.3587 36.8848 48.0498C39.3394 47.588 41.7456 46.9296 44.1037 46.0746C44.0844 47.1586 44.0189 48.2444 43.9069 49.3321C41.5565 50.4656 39.1251 51.3377 36.6127 51.9483ZM46.3962 49.0401C45.7904 49.7156 45.0995 50.3054 44.3238 50.8091C44.4551 50.5801 44.5419 50.2996 44.5843 49.9674C45.117 49.7156 45.6477 49.4464 46.1763 49.1601C46.2533 49.1182 46.3266 49.0783 46.3962 49.0401ZM41.2498 15.2801C42.9093 15.0817 42.9827 14.6905 41.4697 14.1065C41.1261 14.1713 40.9159 14.3716 40.8387 14.7076C40.7422 15.1312 40.8793 15.322 41.2498 15.2801ZM41.9213 14.8794C41.4313 15.1199 41.2807 15.0607 41.4699 14.7018C41.879 14.5683 42.0333 14.614 41.933 14.8392C41.9328 14.862 41.929 14.8753 41.9213 14.8794ZM19.4252 12.4234C19.2091 12.4731 19.0585 12.6217 18.9737 12.8698C18.8503 13.2249 18.831 13.5875 18.9158 13.9576C19.2863 14.1941 19.6646 14.1504 20.0506 13.826C21.0154 13.0242 20.8069 12.5567 19.4252 12.4234ZM20.1547 13.3107C19.4252 13.6236 19.2439 13.5111 19.6105 12.973C19.8845 12.9806 20.0698 13.08 20.1663 13.2708C20.1663 13.2934 20.1625 13.3067 20.1547 13.3107Z" fill="#C21807"/>
</svg>
