<svg width="24" height="26" viewBox="0 0 24 26" fill="none" xmlns="http://www.w3.org/2000/svg">
<path d="M0.301089 0.0793172C0.180995 0.103526 0.0849205 0.164048 0.0849205 0.200361C0.0849205 0.248779 5.30899 0.297197 11.698 0.321406C18.087 0.333511 23.323 0.369824 23.3471 0.394033C23.3711 0.418242 23.4071 14.7378 23.3831 18.8049C23.3831 19.2407 23.335 19.3133 22.9387 19.5312C22.6865 19.6643 22.4584 19.7975 22.4223 19.8338C22.2422 20.0396 21.5817 20.439 21.3055 20.4995C21.1373 20.5479 20.9332 20.6569 20.8611 20.7416C20.681 20.9595 20.1646 20.7779 19.6482 20.2938C19.42 20.1001 18.9997 19.7369 18.6994 19.4828C18.3992 19.2407 18.0749 18.9502 17.9789 18.8291C17.6786 18.466 16.922 18.4418 16.0814 18.7444C15.2648 19.047 15.2888 19.0591 14.3761 18.2723L13.9557 17.9213L14.6763 17.5945C15.0726 17.4129 15.517 17.2313 15.6611 17.1829C16.1174 17.0498 17.1742 16.2024 17.6546 15.5851C18.207 14.871 18.183 14.5683 17.5946 14.6894C17.3784 14.7378 17.1502 14.8225 17.0782 14.871C16.6699 15.1857 14.1119 15.3672 12.8269 15.1615C12.0943 15.0404 10.0527 13.4305 10.0527 12.9706C10.0527 12.8858 10.0167 12.8132 9.95662 12.8132C9.86054 12.8132 9.41619 11.6754 9.21204 10.8765C9.0319 10.1744 9.0319 8.47981 9.22405 7.68091C9.36816 7.07569 10.0647 5.49001 10.2929 5.26002C10.3649 5.1874 10.413 5.00583 10.413 4.84847C10.413 4.58217 10.3769 4.55796 9.99264 4.63059C9.26007 4.77584 8.11918 5.4658 7.38661 6.20417C6.49792 7.11201 6.05357 8.03194 5.65727 9.84761C5.47712 10.6223 5.51315 11.9175 5.72932 12.7769C5.94549 13.6 6.40185 14.7136 6.58199 14.871C6.63002 14.9073 6.70208 15.0646 6.75012 15.222C6.84619 15.5488 7.06236 15.8151 7.93904 16.7108C8.29932 17.0982 8.46746 17.3524 8.38339 17.4008C8.31133 17.4492 7.79493 17.9334 7.23049 18.4781C6.66605 19.0228 6.14965 19.4707 6.07759 19.4707C6.00554 19.4707 5.75334 19.6038 5.51315 19.7733C5.27297 19.9427 4.98474 20.0759 4.87666 20.0759C4.76857 20.0759 4.26418 19.7733 3.75979 19.4101C3.25539 19.047 2.78703 18.7444 2.71497 18.7444C2.52282 18.7444 1.55006 19.507 0.937585 20.1364C0.637351 20.439 0.373145 20.6811 0.337117 20.6811C0.28908 20.6811 0.265061 18.587 0.265061 16.0209C0.265061 13.4547 0.217023 11.3607 0.168986 11.3607C0.108939 11.3607 0.108939 11.288 0.168986 11.2154C0.217023 11.1307 0.241042 9.75078 0.229033 8.15299C0.217023 6.5552 0.217023 4.84847 0.205014 4.35219C0.205014 3.85591 0.168986 3.49277 0.120949 3.54119C-0.0111544 3.67434 -0.0351731 25.2808 0.0969299 25.2808C0.217023 25.2808 0.217023 25.2445 0.253052 23.913C0.27707 22.9688 0.27707 22.9567 0.757445 22.5573C1.00964 22.3273 1.28586 22.1457 1.35791 22.1336C1.42997 22.1336 1.56207 22.0489 1.64614 21.9521C1.83829 21.7221 1.94637 21.7221 2.18656 21.9642C2.29464 22.0731 2.41474 22.1336 2.45077 22.0852C2.48679 22.0489 2.37871 21.8794 2.21058 21.6979C1.95838 21.4437 1.89833 21.2863 1.93436 20.9111C1.95838 20.6448 2.05446 20.3664 2.15053 20.2816C2.40273 20.0759 2.51081 19.5917 2.29464 19.6764C2.19857 19.7127 2.12651 19.7733 2.12651 19.8217C2.12651 19.858 1.99441 20.0517 1.83829 20.2332C1.61011 20.4995 1.56207 20.6448 1.63413 20.8385C1.77824 21.2258 1.58609 21.5405 0.913567 21.9884L0.325108 22.3757L0.313098 22.0489C0.27707 21.5284 0.301089 21.0321 0.349126 20.9958C0.481229 20.9111 1.75422 19.8459 2.05446 19.5554C2.25862 19.3738 2.45077 19.2286 2.48679 19.2165C2.8831 19.1559 3.08726 19.168 3.08726 19.2528C3.08726 19.4101 3.49558 19.8338 3.63969 19.8338C3.72376 19.8338 3.80782 19.8701 3.83184 19.9185C3.92792 20.1606 4.75656 20.4632 5.10483 20.3785C5.63325 20.2695 7.1104 19.1922 7.95105 18.3086C8.80372 17.425 10.2809 16.2024 10.5211 16.2024C10.6171 16.2024 10.6532 16.2751 10.5931 16.4082C10.5451 16.5293 10.485 17.1466 10.449 17.776C10.3769 18.9623 10.3649 18.9986 9.57232 19.9911C9.47624 20.1243 9.01989 20.4632 8.57554 20.7537C8.13119 21.0563 7.73488 21.3711 7.69886 21.4679C7.66283 21.5647 7.43465 21.6737 7.20647 21.7221C6.83418 21.7947 6.56998 22.0489 6.71409 22.1942C6.75012 22.2305 7.03834 22.1699 7.3746 22.0731C7.83096 21.94 7.99909 21.8189 8.05914 21.6131C8.11918 21.3468 9.0319 20.8506 9.13998 21.02C9.164 21.0684 9.13998 21.4074 9.07993 21.7705C9.0319 22.1336 8.98386 22.5331 8.98386 22.6662C8.97185 22.8841 7.96306 23.9493 6.70208 25.075L6.05357 25.6439H5.14086C1.05768 25.656 -0.0351731 25.6923 0.000854956 25.8134C0.0488924 25.9586 21.4496 26.0797 22.8667 25.9344L23.6113 25.8618L23.6233 22.8841C23.6473 17.4855 23.6353 3.10543 23.6113 1.59237L23.5872 0.127734L23.1909 0.0430039C22.7706 -0.0296228 0.649361 -0.00541395 0.301089 0.0793172ZM9.58433 5.96208C8.65961 7.66881 8.43143 9.90813 9.01989 11.7843C9.30811 12.7043 10.5331 14.5078 10.8693 14.5078C10.9174 14.5078 11.1095 14.641 11.2897 14.8104C11.4698 14.9799 11.6139 15.0888 11.6139 15.0525C11.6139 15.0162 11.734 15.0646 11.8901 15.1736C12.6347 15.6577 15.601 15.8151 16.6458 15.4278C17.4384 15.1373 17.5585 15.1615 17.2703 15.5851C16.826 16.2024 15.3969 16.9529 14.0278 17.2919C13.6555 17.3887 13.5594 17.3524 13.007 16.8682C12.2864 16.2509 11.3257 15.7183 10.9414 15.7183C10.497 15.7183 10.0527 15.9362 9.45222 16.4445C8.80372 16.9892 8.7797 17.0013 8.53951 16.7471C8.44344 16.6503 8.28732 16.5293 8.20325 16.4809C7.91502 16.2993 7.1104 15.1494 6.7261 14.3747C5.92147 12.7285 5.81339 12.3048 5.89745 11.0823C5.98152 9.72657 6.0896 9.04872 6.24572 8.85505C6.30577 8.77032 6.32979 8.61296 6.28175 8.51612C6.24572 8.41929 6.26974 8.33455 6.32979 8.33455C6.40185 8.33455 6.44988 8.24982 6.44988 8.15299C6.44988 7.74144 7.61479 6.2768 8.37138 5.7442C9.05591 5.26002 9.98064 4.82426 10.0287 4.95741C10.0527 5.00583 9.84853 5.4658 9.58433 5.96208ZM11.71 16.3961C11.77 16.5051 11.8661 16.5898 11.9262 16.6019C11.9862 16.614 12.1303 16.6987 12.2624 16.8077C12.4786 16.9771 12.5867 17.0861 13.3913 17.8002C13.5955 17.9697 13.7876 18.0907 13.8356 18.0423C13.8717 18.006 13.8717 18.0544 13.8356 18.1634C13.7876 18.2723 13.8356 18.3813 13.9437 18.4176C14.0518 18.466 14.1359 18.5749 14.1359 18.6839C14.1359 18.7807 14.1959 18.8654 14.256 18.8654C14.5082 18.8654 14.5562 18.8896 14.7363 19.047C15.0846 19.3496 15.4569 19.3738 16.1775 19.1196C16.5738 18.9744 16.9461 18.8654 17.0061 18.8654C17.1382 18.8654 17.3904 19.7612 17.4024 20.2695C17.4144 20.5358 17.3063 20.7658 17.0301 21.0442C16.826 21.2621 16.6578 21.4921 16.6578 21.5405C16.6578 21.5889 16.5017 21.7342 16.2976 21.8552C15.7331 22.182 15.8532 22.5573 16.4297 22.2547C16.6218 22.1457 16.6578 22.1699 16.6578 22.3636C16.6578 22.4968 16.7179 22.642 16.7779 22.6783C17.1142 22.8841 16.862 23.3562 15.9613 24.2761C15.4449 24.7966 14.9885 25.3171 14.9405 25.426C14.8444 25.6802 14.0758 25.7165 9.66839 25.6681L6.58199 25.6318L7.25451 25.0024C7.6268 24.6514 8.09517 24.1914 8.29933 23.9614C8.50348 23.7314 8.82774 23.453 9.01989 23.3441C9.33213 23.1383 9.40419 23.1383 9.92059 23.3078C10.2208 23.4167 10.5571 23.5741 10.6652 23.6588C10.7612 23.7556 10.9174 23.8283 10.9894 23.8283C11.0615 23.8283 11.1455 23.9251 11.1936 24.0582C11.2296 24.1793 11.3737 24.373 11.4938 24.494C11.686 24.6756 11.77 24.6877 11.8901 24.5666C11.9982 24.4456 11.9382 24.3366 11.5899 23.9977C11.3377 23.7677 11.1335 23.5377 11.1335 23.4772C11.1335 23.332 9.88456 22.8599 9.50026 22.8599C9.33213 22.8599 9.23606 22.8115 9.27208 22.7389C9.30811 22.6783 9.4162 22.1336 9.50026 21.5405C9.64437 20.5722 9.71643 20.4027 10.1247 19.9064C10.3769 19.6038 10.6892 19.3496 10.8093 19.3496C10.9294 19.3496 11.0014 19.398 10.9654 19.4464C10.9414 19.4949 11.0495 19.6522 11.2176 19.7733C11.3737 19.9064 11.698 20.1969 11.9262 20.4027C12.1543 20.6206 12.3945 20.8021 12.4546 20.8021C12.7548 20.8021 12.4906 20.439 11.734 19.7854L10.9174 19.0712L10.8333 18.2481C10.7853 17.7881 10.7853 17.1466 10.8333 16.8077C10.9054 16.2388 10.9414 16.2024 11.2536 16.2024C11.4458 16.2024 11.6499 16.2872 11.71 16.3961ZM17.9789 19.4949C17.9789 19.5675 18.0149 19.6038 18.0509 19.5554C18.099 19.5191 18.3031 19.6401 18.5073 19.8338C19.456 20.7537 19.8643 21.0563 20.2847 21.1774C20.705 21.2863 20.8011 21.2621 21.5577 20.8142C22.002 20.5601 22.5905 20.1727 22.8787 19.9669L23.3831 19.5917V21.2258V22.8599L22.9507 23.2472C22.4103 23.7435 21.7018 24.7119 21.7018 24.9419C21.7018 25.0387 21.5697 25.1961 21.4015 25.2808C21.2334 25.3655 21.1013 25.4866 21.1013 25.5471C21.1013 25.5955 20.705 25.6439 20.2246 25.6439H19.3479L18.6394 24.8692C17.9549 24.1551 17.3063 23.0657 17.1983 22.4968C17.1742 22.3515 17.1142 22.1336 17.0782 22.0247C17.0421 21.8915 17.1502 21.6373 17.3664 21.3711L17.7147 20.9232L18.135 21.2137C18.5313 21.4921 18.6994 21.5042 18.6994 21.2621C18.6994 21.2016 18.5073 21.0684 18.2791 20.9595C17.9188 20.79 17.8588 20.6932 17.8588 20.3301C17.8588 20.088 17.8227 19.7733 17.7867 19.6159C17.7387 19.4585 17.7627 19.3496 17.8468 19.3496C17.9188 19.3496 17.9789 19.4101 17.9789 19.4949ZM23.3831 24.4335V25.6439H22.6025C22.1701 25.6439 21.8219 25.6076 21.8219 25.5713C21.8219 25.535 21.9059 25.426 22.002 25.3292C22.0981 25.2203 22.1821 25.0145 22.1821 24.8571C22.1821 24.6998 22.2542 24.494 22.3383 24.4093C22.4223 24.3245 22.6265 24.0582 22.7826 23.8283C23.0348 23.4651 23.251 23.2351 23.3591 23.223C23.3711 23.223 23.3831 23.7677 23.3831 24.4335ZM17.5826 24.2035C17.7507 24.4698 18.087 24.8934 18.3031 25.1355L18.7114 25.5834L17.8708 25.6197C17.4024 25.6439 16.6338 25.6439 16.1655 25.6197L15.3248 25.5834L16.2375 24.6393C16.7419 24.1309 17.1863 23.7072 17.2103 23.7072C17.2343 23.7072 17.4024 23.9251 17.5826 24.2035Z" fill="#C21807"/>
<path d="M14.0759 21.081C13.8597 21.2021 13.8957 21.2263 14.3761 21.2989C15.0126 21.3958 15.2168 21.311 14.9165 21.081C14.6403 20.8874 14.3881 20.8874 14.0759 21.081Z" fill="#C21807"/>
<path d="M14.1955 1.71337C14.0514 2.00387 14.0995 2.40332 14.2556 2.40332C14.4237 2.40332 14.5078 1.97966 14.4117 1.70126L14.3156 1.44707L14.1955 1.71337Z" fill="#C21807"/>
<path d="M3.51963 2.91145C3.4836 2.99618 3.44757 3.17774 3.42355 3.31089C3.39953 3.45615 3.27944 3.56509 3.11131 3.5893C2.79907 3.63771 2.87112 3.85559 3.21939 3.85559C3.39953 3.85559 3.44757 3.94032 3.44757 4.27925C3.44757 4.79974 3.66374 4.83605 3.77182 4.32767C3.80785 4.09768 3.93996 3.91612 4.07206 3.89191C4.36028 3.80718 4.34827 3.6135 4.04804 3.6135C3.8679 3.6135 3.80785 3.52877 3.80785 3.26248C3.80785 2.88724 3.60369 2.64515 3.51963 2.91145Z" fill="#C21807"/>
<path d="M21.0414 3.4201C20.9934 3.6743 20.8853 3.85586 20.7892 3.85586C20.6931 3.85586 20.6211 3.90428 20.6211 3.97691C20.6211 4.03743 20.7052 4.09795 20.8012 4.09795C20.9213 4.09795 20.9814 4.219 20.9814 4.46109C20.9814 4.70317 21.0414 4.82422 21.1615 4.82422C21.2816 4.82422 21.3417 4.70317 21.3417 4.46109C21.3417 4.25531 21.3897 4.09795 21.4617 4.09795C21.6179 4.09795 21.4738 3.35958 21.2696 3.1417C21.1495 2.99645 21.1015 3.04486 21.0414 3.4201Z" fill="#C21807"/>
<path d="M17.2098 6.48253C17.1738 6.51885 17.1378 6.71252 17.1378 6.88198C17.1378 7.18459 16.8255 7.59614 16.6694 7.51141C16.6334 7.4872 16.5853 7.52351 16.5613 7.59614C16.5373 7.66877 16.6334 7.72929 16.7655 7.72929C16.9816 7.72929 17.0177 7.80192 17.0177 8.18926C17.0177 8.44345 17.0537 8.69765 17.1017 8.73396C17.2579 8.89132 17.498 8.54029 17.498 8.15295C17.498 7.86244 17.5581 7.7414 17.7382 7.69298C17.8703 7.65666 17.9784 7.57193 17.9784 7.49931C17.9784 7.42668 17.8703 7.36616 17.7382 7.36616C17.5461 7.36616 17.498 7.28143 17.498 6.95461C17.498 6.54305 17.3659 6.32517 17.2098 6.48253Z" fill="#C21807"/>
<path d="M1.37001 10.3077C1.29795 10.5013 1.40604 11.1187 1.51412 11.1187C1.55015 11.1187 1.64623 10.9855 1.73029 10.816C1.80235 10.6466 1.81436 10.5134 1.75431 10.5134C1.69426 10.5134 1.64623 10.4287 1.64623 10.3319C1.64623 10.114 1.45408 10.0898 1.37001 10.3077Z" fill="#C21807"/>
<path d="M21.425 12.0752C21.3289 12.281 21.2809 12.4505 21.3409 12.4505C21.401 12.4505 21.461 12.5715 21.485 12.7168C21.5211 12.9831 21.5331 12.971 21.7252 12.6321C21.8814 12.3294 21.8934 12.2205 21.7613 11.9784L21.6172 11.6879L21.425 12.0752Z" fill="#C21807"/>
<path d="M2.84707 15.3429C2.84707 15.5608 2.77502 15.7181 2.64291 15.7665C2.46277 15.8392 2.46277 15.8634 2.60689 15.9602C2.70296 16.0207 2.78703 16.166 2.79904 16.287C2.83506 16.9407 2.83506 16.9649 3.02721 16.8075C3.12329 16.7228 3.20735 16.517 3.20735 16.3476C3.20735 16.1902 3.30343 15.9723 3.42352 15.8876C3.61567 15.7302 3.61567 15.7302 3.42352 15.7181C3.2674 15.7181 3.20735 15.6213 3.20735 15.355C3.20735 15.1129 3.14731 14.9919 3.02721 14.9919C2.90712 14.9919 2.84707 15.1129 2.84707 15.3429Z" fill="#C21807"/>
<path d="M20.3812 16.9162C20.3812 17.0857 20.2971 17.2188 20.141 17.2551C19.8648 17.3277 19.8287 17.4851 20.0689 17.5698C20.165 17.6061 20.2611 17.7877 20.2851 17.9814C20.3091 18.163 20.3812 18.3203 20.4412 18.3203C20.5133 18.3203 20.5733 18.163 20.5973 17.9814C20.6213 17.7877 20.7174 17.6061 20.8135 17.5698C21.0417 17.4851 21.0297 17.2914 20.8015 17.2914C20.7054 17.2914 20.6093 17.2309 20.6093 17.1704C20.5973 17.0978 20.5853 17.0009 20.5733 16.9404C20.5373 16.6862 20.3812 16.662 20.3812 16.9162Z" fill="#C21807"/>
<path d="M3.14769 23.7556C2.67932 24.143 2.83544 24.2882 3.36385 23.9614C3.71213 23.7435 3.84423 23.7314 4.12044 23.8282C4.33661 23.913 4.49273 23.913 4.56479 23.8403C4.64886 23.7556 4.5768 23.6709 4.36063 23.5862C3.85624 23.3925 3.54399 23.4409 3.14769 23.7556Z" fill="#C21807"/>
</svg>
