<svg width="84" height="316" viewBox="0 0 84 316" fill="none" xmlns="http://www.w3.org/2000/svg">
<path d="M33.4304 0.437073C30.406 1.62314 30.999 4.29175 34.3792 4.88477C38.3525 5.53708 41.199 8.0871 42.6223 12.3569C43.2746 14.4325 43.8676 16.7453 43.8676 17.5162C43.8676 18.9395 43.8083 18.9395 42.3258 17.9313C40.1316 16.5081 35.6839 15.2627 32.6002 15.2627C27.5595 15.2627 19.7315 20.1255 16.8257 25.0476C15.1059 28.0721 15.0466 29.2581 16.5885 30.0883C17.9524 30.8 19.6129 30.1476 20.9176 28.3093C21.9257 26.8267 26.3141 23.5058 28.9827 22.0825C31.4141 20.8372 35.8618 21.1337 39.1827 22.6755C41.6142 23.8616 43.8083 26.7674 44.2235 29.5546L44.5793 31.5709L40.9025 31.393C33.3711 30.9779 25.306 36.5523 20.6804 45.507C19.0199 48.7093 18.7234 53.6314 20.2059 54.5803C21.9257 55.6477 24.1199 54.6396 24.535 52.5047C25.306 48.5907 27.7967 44.5582 31.4734 41.3558C36.4548 37.0267 40.9618 35.5442 43.5711 37.4419C44.6979 38.2128 44.6979 39.6953 44.7572 80.8513C44.8165 104.335 45.0537 161.266 45.2909 207.403C45.5281 253.54 45.706 296.713 45.706 303.295L45.6467 315.333H48.0781H50.5688L50.213 191.213C49.9165 73.2013 49.6793 49.0059 48.8491 41.1779C48.4932 37.9163 48.5525 37.7384 50.3316 36.0186C51.3991 35.0698 53.8305 33.4686 55.8468 32.5197C58.7526 31.0372 60.2351 30.6814 63.2003 30.6814C66.6398 30.6814 67.0549 30.8 69.9015 33.1721C72.0956 35.0698 73.4596 36.8488 74.9422 39.9919C76.6026 43.3721 77.3736 44.3802 78.6189 44.6768C79.8643 45.0326 80.4573 44.7954 81.3468 43.7279C82.6515 42.0674 82.7108 40.6442 81.4062 37.9163C79.2713 33.35 76.8992 30.3256 73.4596 27.6569C68.0631 23.4464 62.9038 23.1499 55.313 26.5895C53.2374 27.479 51.577 28.1313 51.577 28.0128C51.577 26.5895 54.9572 20.8372 56.7956 18.9988C60.0572 15.8557 66.1061 12.4162 69.1898 11.9418C71.5026 11.5859 72.3922 11.8232 76.1875 13.8394C80.5166 16.0336 80.6352 16.0336 81.8213 14.9662C83.6596 13.3057 83.3631 10.8743 81.0503 9.09525C76.1282 5.2999 69.8422 4.70685 63.141 7.31616C60.9468 8.14639 54.72 12.8906 52.2293 15.5592C50.8653 17.0418 49.6793 18.2278 49.5607 18.2278C49.4421 18.2278 49.2049 17.1011 48.9677 15.6778C48.256 11.0522 46.7735 7.672 44.2828 4.82547C40.7246 0.792877 36.6327 -0.867584 33.4304 0.437073Z" fill="#C21807"/>
<path d="M7.39622 63.8907C3.71947 65.7291 1.16946 68.3977 1.16946 70.414C1.16946 73.2605 3.42295 73.3792 7.63343 70.7698C9.59042 69.5838 11.6067 68.6349 12.1404 68.6349C13.9195 68.6349 17.0032 70.9478 18.0114 73.0233C19.4939 76.1664 19.3753 76.3443 15.1649 75.9292C11.9625 75.6326 11.0137 75.8106 8.58227 76.9966C2.77062 79.9024 -2.03288 88.7385 0.872944 91.1699C2.2369 92.356 3.71947 91.3478 6.09157 87.6118C8.87879 83.2234 10.48 82.1559 14.5718 81.8001C19.3753 81.385 19.7905 81.978 19.316 88.2048C17.0032 116.729 17.0032 117.856 16.766 217.603L16.5881 315.333H18.9009C20.7986 315.333 21.273 315.096 21.5695 313.97C21.7474 313.258 21.9253 272.754 21.9846 224.008C22.0439 175.261 22.2812 132.148 22.5184 128.234C23.5265 113.883 23.8823 104.276 23.9416 94.135L24.0009 83.7571L25.8986 83.5792C28.2114 83.342 31.2951 85.9513 33.3707 89.9839C34.9126 93.0083 37.2254 94.2536 38.7673 92.949C41.6138 90.6362 37.2254 81.6815 31.8289 78.8943C30.88 78.4199 29.1009 78.0047 27.7963 78.0047C26.5509 78.0047 25.4835 77.8861 25.4835 77.7675C25.4835 76.7594 28.7451 72.6675 30.4056 71.6594C32.837 70.1768 34.794 70.0582 36.2766 71.4222C37.9963 72.964 40.5463 71.8373 40.7835 69.3466C41.258 64.5431 34.1417 62.764 28.0928 66.2036C26.4323 67.1524 24.594 68.6943 24.0009 69.5838L22.9335 71.185L22.0439 69.4652C19.0788 63.5942 12.7928 61.1628 7.39622 63.8907Z" fill="#C21807"/>
</svg>
