<svg width="50" height="32" viewBox="0 0 50 32" fill="none" xmlns="http://www.w3.org/2000/svg">
<path d="M1.11722 2.09095C2.60504 0.930722 4.78538 1.31368 6.47402 1.73267C8.24205 2.17101 9.95204 2.8889 11.6253 3.59878C16.1422 5.51559 20.4228 7.93279 24.7355 10.2566C28.9574 12.5303 33.2447 14.7047 37.8042 16.2232C39.4555 16.7729 41.3563 16.4527 42.8641 15.6274C44.4353 14.7674 45.4234 13.363 46.4109 11.9232C46.5543 11.7144 46.3055 11.701 46.1894 11.8411C45.0438 13.2309 43.6 14.732 41.8633 15.3385C39.6196 16.1218 37.4773 15.1457 35.401 14.3237C31.025 12.5924 26.8958 10.3053 22.7659 8.06957C18.6327 5.83251 14.4629 3.65749 10.0715 1.96552C7.33002 0.909369 3.4737 -0.339599 0.975775 1.87011C0.819655 2.00955 0.923071 2.24173 1.11722 2.09095Z" fill="#C21807"/>
<path d="M46.0808 12.1009C46.5371 12.4832 47.0869 12.7073 47.6366 12.9235C48.125 13.1157 48.7835 13.5393 49.3073 13.3332C49.3987 13.2971 49.5014 13.177 49.4961 13.0736C49.4714 12.6066 48.6201 12.4652 48.2605 12.3331C47.67 12.1162 47.0302 11.9347 46.4764 11.6352C46.2909 11.5351 45.8986 11.9488 46.0808 12.1009Z" fill="#C21807"/>
<path d="M49.0082 13.3585C47.6778 14.8636 46.6036 16.615 45.4414 18.2516C44.3766 19.7521 42.9535 21.2999 42.4391 23.0833C42.3957 23.2321 42.5825 23.1761 42.6412 23.12C44.0757 21.7316 45.1038 19.9035 46.2507 18.2703C47.3215 16.7444 48.6419 15.1805 49.2724 13.4065C49.3391 13.2184 49.0782 13.2784 49.0082 13.3585Z" fill="#C21807"/>
<path d="M0.993527 1.88817C-4.94306 7.5939 17.5216 14.8842 20.9202 16.0911C25.3637 17.669 29.8058 19.2556 34.2559 20.8134C35.9692 21.4126 37.6845 22.009 39.4045 22.5855C40.0263 22.7936 40.6488 22.9711 41.2833 23.1332C41.6549 23.228 42.0886 23.1753 42.4782 23.2413C42.6217 23.266 42.8912 22.9317 42.7024 22.8657C42.4128 22.7663 42.206 22.6562 41.9725 22.4574C41.6636 22.1958 41.0418 22.0684 40.6642 21.943C39.4025 21.5253 38.1456 21.0963 36.8893 20.664C33.4866 19.4911 30.092 18.2902 26.6994 17.0899C21.5194 15.2585 16.2106 13.6552 11.1707 11.4562C8.46796 10.2773 5.7432 8.9763 3.35468 7.22962C1.84952 6.12877 -0.640397 3.95576 1.14231 2.03561C1.28576 1.88082 1.14765 1.74005 0.993527 1.88817Z" fill="#C21807"/>
<path d="M11.8634 12.6961C12.2023 14.2546 12.9696 15.7338 13.5954 17.1936C14.2679 18.7654 14.9438 20.336 15.6123 21.9105C16.2508 23.4137 16.8826 24.9208 17.5031 26.4313C17.7666 27.0705 18.0255 27.7103 18.2823 28.3515C18.4765 28.8365 18.638 29.7352 19.0683 30.0461C19.3238 30.2309 19.6467 29.852 19.6661 29.6151C19.7101 29.0754 19.3458 28.4863 19.1477 27.9906C18.8648 27.282 18.5772 26.5768 18.2863 25.8716C17.6632 24.3617 17.0287 22.8573 16.3889 21.3548C15.719 19.7822 15.0438 18.2123 14.3573 16.6471C13.7295 15.214 13.1844 13.6328 12.2544 12.3632C12.1216 12.183 11.8307 12.55 11.8634 12.6961Z" fill="#C21807"/>
<path d="M19.1327 29.6979C19.8666 30.4905 20.7419 30.8661 21.76 31.199C22.3331 31.3865 22.9156 31.5473 23.496 31.7121C24.2059 31.9136 24.6716 31.9903 25.3962 31.9549C25.4809 31.9509 25.6817 31.7915 25.581 31.6994C25.1533 31.3091 24.8851 31.1723 24.2973 31.0109C23.7122 30.8501 23.1271 30.6913 22.5446 30.5192C21.5545 30.2263 20.3463 29.9307 19.4796 29.3509C19.3161 29.2428 18.9892 29.5437 19.1327 29.6979Z" fill="#C21807"/>
<path d="M22.5858 16.0878C22.487 17.2593 22.6832 18.3282 22.9087 19.4824C23.2109 21.0243 23.4831 22.5714 23.7507 24.1193C24.0062 25.5951 24.2497 27.0729 24.4859 28.5527C24.594 29.2339 24.7008 29.9158 24.8048 30.5976C24.8829 31.1127 24.8442 31.7018 25.3392 31.9874C25.4373 32.0441 25.5814 31.8946 25.6155 31.8199C26.0858 30.7578 25.5414 29.2386 25.3639 28.1311C25.1231 26.6219 24.8715 25.1147 24.608 23.6089C24.3445 22.1071 24.0683 20.6079 23.7727 19.1114C23.5525 17.9993 23.3831 16.9211 22.6859 16.0164C22.6525 15.973 22.5884 16.0591 22.5858 16.0878Z" fill="#C21807"/>
<path d="M16.2997 5.39899C17.4045 4.65975 18.4326 3.82177 19.5588 3.10989C20.8658 2.28325 22.2156 1.53001 23.5512 0.752073C24.0023 0.488536 24.067 -0.27739 23.4378 0.104905C22.0774 0.931544 20.7037 1.73416 19.372 2.6075C18.2438 3.3474 16.9642 4.16004 16.2082 5.30759C16.1515 5.39299 16.2143 5.45637 16.2997 5.39899Z" fill="#C21807"/>
<path d="M23.4178 0.526636C24.6047 1.41799 25.9277 1.96708 26.9232 3.12197C27.1353 3.36816 27.7191 2.80373 27.4936 2.55086C26.5529 1.49004 25.0884 0.351835 23.6193 0.247754C23.5286 0.240415 23.305 0.441237 23.4178 0.526636Z" fill="#C21807"/>
<path d="M27.0339 2.77161C25.464 4.67375 24.6194 7.12365 23.1869 9.13253C22.856 9.59622 23.4438 9.67962 23.698 9.32134C24.3818 8.35259 24.9583 7.31445 25.5287 6.27565C26.1545 5.13611 26.8631 4.01257 27.4195 2.839C27.579 2.50541 27.166 2.61282 27.0339 2.77161Z" fill="#C21807"/>
<path d="M37.6797 21.5093C38.4956 23.4328 39.0567 25.4604 39.9508 27.3492C40.1189 27.7041 40.1656 28.0964 40.3811 28.434C40.6026 28.7836 40.8294 28.8116 41.2271 28.9464C42.1118 29.2446 43.0879 29.3948 43.9959 29.6223C44.1 29.6483 44.3428 29.4501 44.2254 29.3521C43.6169 28.849 42.7696 28.799 42.0217 28.6442C41.6607 28.5695 41.3325 28.4334 40.9829 28.3246C40.6426 28.2192 40.3964 27.1197 40.2457 26.8068C39.387 25.0241 38.954 23.0298 37.9405 21.3225C37.8625 21.1918 37.6303 21.3939 37.6797 21.5093Z" fill="#C21807"/>
<path d="M42.3115 23.1221C42.3142 24.2203 42.6605 25.3198 42.8546 26.3946C42.95 26.9237 43.0841 27.4488 43.1922 27.9752C43.3003 28.5016 43.3136 29.0654 43.6199 29.5124C43.7199 29.6585 43.9728 29.3869 43.9888 29.2902C44.153 28.3174 43.7373 27.2339 43.5171 26.2865C43.2576 25.1757 43.0795 23.9661 42.6912 22.8959C42.6164 22.6898 42.3102 22.992 42.3115 23.1221Z" fill="#C21807"/>
<path d="M38.1168 15.7957C38.341 15.5522 38.5011 15.286 38.6592 14.9957C38.84 14.6635 39.1429 14.2858 39.2063 13.9109C39.2457 13.6767 38.9915 13.7494 38.8841 13.8522C38.6272 14.0997 38.4824 14.4513 38.317 14.7635C38.1475 15.0845 37.9667 15.3967 37.8833 15.753C37.8446 15.9204 38.0461 15.8717 38.1168 15.7957Z" fill="#C21807"/>
<path d="M38.9014 14.0184C39.1022 14.3453 39.7233 14.3339 40.0729 14.4253C40.636 14.5721 41.1131 14.7729 41.7029 14.7269C41.7536 14.7229 41.8463 14.6468 41.8003 14.5915C41.4513 14.1611 40.9456 14.0644 40.4265 13.9316C39.9615 13.8122 39.4271 13.6507 38.9814 13.8843C38.9481 13.9023 38.8713 13.9703 38.9014 14.0184Z" fill="#C21807"/>
<path d="M41.8588 14.7382C41.8628 14.6561 41.8315 14.6267 41.7768 14.5667C41.614 14.3892 41.3284 14.7422 41.3244 14.8929C41.3191 15.0751 41.3151 16.0745 41.7294 15.875C42.1424 15.6776 41.9235 14.9143 41.8021 14.6074C41.6847 14.7448 41.5673 14.8816 41.4505 15.019C41.4739 15.0217 41.4972 15.0251 41.5206 15.0277C41.67 15.1038 41.8548 14.8643 41.8588 14.7382Z" fill="#C21807"/>
<path d="M12.8156 8.84036C13.0177 8.99248 13.2639 9.06854 13.4634 9.22266C13.8884 9.55224 14.7497 8.62219 14.3547 8.3313C14.0265 8.08911 13.7042 7.98704 13.2966 8.04241C13.0724 8.07244 12.516 8.61419 12.8156 8.84036Z" fill="#C21807"/>
<path d="M15.4609 9.9112C15.5623 10.2428 16.0213 10.3128 16.2895 10.2034C16.515 10.112 16.7779 9.79511 16.6945 9.53691C16.5918 9.21933 16.0106 9.29273 15.7811 9.38413C15.6003 9.45752 15.3982 9.70638 15.4609 9.9112Z" fill="#C21807"/>
<path d="M18.0058 10.9947C18.1346 11.1561 18.3081 11.2061 18.4735 11.3162C18.6497 11.4343 18.8412 11.3689 19.0053 11.2535C19.1354 11.1621 19.2161 11.0527 19.2935 10.9166C19.3469 10.8225 19.4043 10.5837 19.2842 10.5056C18.9999 10.3208 18.7671 10.2354 18.4255 10.2981C18.1793 10.3441 17.805 10.7425 18.0058 10.9947Z" fill="#C21807"/>
<path d="M20.5046 12.2895C20.6907 12.4356 20.9909 12.541 21.2211 12.5937C21.5234 12.6631 22.1592 12.2101 21.9584 11.8552C21.7615 11.5042 21.2705 11.4942 20.9195 11.5997C20.7434 11.653 20.2324 12.0753 20.5046 12.2895Z" fill="#C21807"/>
<path d="M23.3363 13.2156C23.2983 13.5332 23.7287 13.6573 23.9668 13.72C24.3291 13.8147 24.9049 13.0655 24.5099 12.9621C24.175 12.874 23.4011 12.6445 23.3363 13.2156Z" fill="#C21807"/>
<path d="M26.0364 14.5121C26.0457 14.5568 26.0544 14.6015 26.0651 14.6462C26.1044 14.8317 26.378 14.7883 26.4914 14.7283C26.7262 14.6035 26.8223 14.4861 26.911 14.2386C26.9671 14.0838 26.873 13.9016 26.6976 13.907C26.6482 13.9083 26.6001 13.9096 26.5514 13.911C26.2712 13.9183 25.9777 14.2292 26.0364 14.5121Z" fill="#C21807"/>
<path d="M28.4482 15.4269C28.5316 15.5157 28.5683 15.6151 28.6657 15.6898C28.7858 15.7825 28.9119 15.8099 29.058 15.8246C29.2675 15.8459 29.5517 15.5644 29.527 15.3549C29.515 15.2588 29.467 15.1914 29.3629 15.1901C29.096 15.1874 28.8472 15.2221 28.5823 15.2388C28.5169 15.2435 28.3788 15.3535 28.4482 15.4269Z" fill="#C21807"/>
<path d="M31.3587 16.7265C31.5936 16.8332 31.8618 16.7065 32.0232 16.527C32.0886 16.4556 32.1627 16.3522 32.1273 16.2494C32.122 16.2361 32.118 16.2234 32.114 16.2101C32.0906 16.1433 32.0293 16.12 31.9652 16.1147C31.8051 16.1013 31.677 16.1487 31.5415 16.2281C31.4228 16.2975 31.1099 16.6137 31.3587 16.7265Z" fill="#C21807"/>
<path d="M2.42936 1.4139C2.09577 2.05372 2.34863 2.53142 2.7356 3.05516C2.93375 3.32203 3.20996 3.52218 3.4795 3.71033C3.73903 3.89113 3.98923 4.13333 4.30281 4.1847C4.65575 4.24275 5.10009 3.70366 4.99601 3.37273C4.86057 2.94107 4.0773 2.70556 3.70834 2.51074C3.1339 2.20517 2.98512 1.90561 3.03316 1.26244C3.06452 0.865469 2.50008 1.27779 2.42936 1.4139Z" fill="#C21807"/>
</svg>
