<svg width="21" height="21" viewBox="0 0 21 21" fill="currentColor" xmlns="http://www.w3.org/2000/svg">
<path d="M6.57976 0.335842C3.7693 1.30801 1.43609 3.88868 0.393221 7.21173C-0.0133224 8.51974 -0.048674 8.87326 0.0397051 10.4818C0.14576 12.7089 0.587655 14.0523 1.80729 15.8552C4.24655 19.5141 7.12771 21.2817 10.1503 20.9635C11.9532 20.7868 14.799 19.6732 16.1777 18.6303C16.4782 18.4005 16.9555 18.2061 17.2559 18.2061C17.8216 18.2061 18.3695 17.7465 18.3695 17.2516C18.3695 16.739 18.8468 15.9966 19.4831 15.5017C19.978 15.1305 20.1194 14.883 20.1901 14.2821C20.2255 13.8578 20.3669 13.0447 20.4906 12.4614C20.8795 10.5878 20.3669 7.98947 19.2003 5.74464C18.4756 4.3836 16.3015 2.20948 14.9227 1.46709C12.9077 0.406546 11.3522 1.90735e-06 9.31951 1.90735e-06C8.02917 0.0176773 7.23376 0.106056 6.57976 0.335842ZM10.4861 1.07823C10.2386 1.34336 10.2033 1.50245 10.3447 1.73223C10.5922 2.1211 11.0694 2.20948 11.3876 1.94434C11.7234 1.66153 11.529 1.37871 11.1048 1.50245C10.7512 1.62617 10.6452 1.34336 10.9634 1.13125C11.2462 0.954494 11.8825 1.36104 12.2183 1.94434C12.3774 2.20948 12.7133 2.58067 12.9607 2.73975C13.3849 3.02256 13.4556 3.02256 13.8622 2.75743C14.1097 2.59834 14.3041 2.35088 14.3041 2.20948C14.3041 1.87364 16.1247 3.11094 16.9731 4.01241C18.7407 5.9214 19.2887 6.98195 19.6952 9.31515C19.978 10.9413 19.9603 11.0474 19.4831 13.6457C19.377 14.2467 19.0235 14.2821 17.4857 13.8048C16.0717 13.3629 15.4884 12.7796 14.9051 11.2948C14.6399 10.5878 14.2511 9.91613 13.9682 9.66867C13.7031 9.43888 13.4203 9.05002 13.3496 8.78488C13.2966 8.53742 12.943 8.00714 12.5719 7.61828C12.0239 7.05265 11.7588 6.91124 10.9634 6.80519C10.4331 6.73449 9.49627 6.45167 8.87761 6.16886C7.81706 5.69161 6.77419 5.44415 3.73395 4.91388L2.42594 4.68409L3.09762 3.81798C3.68092 3.04024 3.7693 2.98721 3.89303 3.30538C3.96374 3.49981 4.14049 3.71192 4.2819 3.76495C4.63542 3.88868 5.36013 3.49981 5.43083 3.12862C5.50153 2.75743 4.97126 2.72208 4.82985 3.09327C4.68844 3.44678 4.40563 3.42911 4.40563 3.09327C4.40563 2.58067 5.16569 2.42159 6.27927 2.68672C7.12771 2.89883 7.25144 2.96954 6.93327 3.07559C6.70349 3.1463 6.52673 3.27003 6.52673 3.35841C6.52673 3.44678 6.73884 3.44678 7.02165 3.34073C7.28679 3.23467 8.32966 3.1463 9.35486 3.12862C11.1578 3.09327 11.2462 3.11094 12.5895 3.74727C13.9682 4.40128 14.2687 4.41895 13.5617 3.76495C12.3421 2.66905 9.46091 2.15645 7.67566 2.73975C7.48122 2.79278 7.55193 2.72208 7.81706 2.56299C8.20593 2.33321 8.29431 2.17413 8.25896 1.80293C8.22361 1.43174 8.11755 1.32569 7.76404 1.32569C7.48122 1.32569 7.30446 1.43174 7.26911 1.66153C7.21609 1.90899 7.26911 1.96202 7.48122 1.89131C7.92312 1.71456 7.81706 2.10342 7.35749 2.31553C7.057 2.45694 6.68581 2.43926 5.99645 2.24483L5.02428 1.99737L5.99645 1.50245C7.35749 0.813087 7.65798 0.742386 9.33718 0.724709L10.822 0.707033L10.4861 1.07823ZM13.1905 1.34336C13.491 1.43174 13.5794 1.5378 13.5087 1.73223C13.4556 1.87364 13.5087 2.06807 13.6324 2.13877C13.7915 2.24483 13.8092 2.33321 13.6854 2.45694C13.4203 2.72208 12.784 2.24483 12.4304 1.55547C12.1653 1.04287 12.1653 1.0252 12.4481 1.13125C12.6072 1.18428 12.943 1.29033 13.1905 1.34336ZM5.9611 5.90372C8.40036 6.41632 9.16042 6.75216 11.3169 8.30763C12.8547 9.40353 14.145 10.7115 14.3748 11.4363C14.5339 11.9312 16.001 13.8225 16.3898 14.0346C16.5489 14.1406 17.2559 14.3351 17.9276 14.5118C18.8821 14.724 19.0942 14.83 18.8291 14.9361C18.617 15.0244 18.1751 14.9714 17.6802 14.7947C16.6373 14.4235 16.4959 14.5649 17.4681 15.0068C17.8923 15.1835 18.1574 15.378 18.069 15.431C17.9807 15.484 17.8039 15.4663 17.6625 15.3603C17.5211 15.2719 17.2736 15.2012 17.1322 15.2012C16.9731 15.2012 17.0792 15.3426 17.362 15.5194C17.6271 15.6784 17.8392 15.9082 17.8392 16.032C17.8392 16.2971 17.5564 16.3325 17.3974 16.085C17.3443 15.9789 17.2029 15.9082 17.0969 15.9082C17.0085 15.9082 17.0792 16.191 17.2913 16.5446C17.7155 17.2516 17.8039 17.7112 17.4504 17.3576C17.3267 17.2339 16.9908 16.6329 16.6903 16.032C16.054 14.724 15.3823 14.3174 13.0845 13.8932C11.1931 13.5397 9.88513 12.921 7.64031 11.2948C6.38532 10.3757 5.53688 9.58029 4.81217 8.66115C4.22887 7.93644 3.6279 7.22941 3.45114 7.088C3.04459 6.73449 2.58502 5.85069 2.69108 5.58556C2.81481 5.30274 3.29205 5.3381 5.9611 5.90372ZM2.35524 6.04513C2.40826 6.27491 2.83248 6.91124 3.30973 7.47687C4.03444 8.34298 4.19352 8.64347 4.26422 9.38586C4.38796 10.5348 4.95358 11.2065 5.69597 11.0297C6.38532 10.8883 7.58728 11.666 7.58728 12.267C7.58728 12.921 7.90544 13.6104 8.20593 13.6104C8.34734 13.6104 8.47107 13.4513 8.47107 13.2569C8.47107 13.0624 8.54177 12.9033 8.63015 12.9033C9.14275 12.9033 10.4154 13.6634 10.9987 14.2997C11.3699 14.7063 11.8471 15.1128 12.0593 15.2012C12.2714 15.3073 12.5719 15.4663 12.7309 15.5901C13.1552 15.8729 13.5971 15.6431 13.5971 15.1128C13.5971 14.6002 13.7385 14.5825 14.6223 14.9537C15.453 15.2896 16.2131 16.0143 16.5136 16.7567C16.655 17.0748 16.7787 17.3753 16.8141 17.4284C16.8494 17.4814 16.6196 17.6405 16.3191 17.7642L15.7535 17.994L15.9833 17.5521C16.2484 17.0395 16.1424 16.5092 15.7712 16.3501C15.3823 16.2087 14.6576 16.7213 14.6576 17.1455C14.6576 17.6228 15.1172 17.5874 15.2586 17.1102C15.3293 16.7743 15.4 16.7567 15.5767 16.9334C15.7712 17.1279 15.7358 17.2339 15.3823 17.5167C15.0465 17.7819 14.799 17.8349 14.0566 17.7465C12.9254 17.6228 12.0062 18.1177 12.0062 18.8247C12.0062 19.0722 12.0946 19.2666 12.183 19.2666C12.289 19.2666 12.3597 19.3373 12.3597 19.4257C12.3597 19.5671 10.6629 19.9737 10.0089 19.9737C9.67302 19.9737 9.67302 19.956 9.93816 19.6555C10.5038 19.0368 10.0972 18.2414 9.35486 18.4712C8.89529 18.6126 8.89529 19.0899 9.35486 19.0899C9.54929 19.0899 9.70837 19.1606 9.70837 19.2666C9.70837 19.5141 9.05437 19.4787 8.84226 19.2136C7.83474 17.9763 7.4989 17.6758 7.14538 17.6758C6.75651 17.6758 6.17321 18.0824 6.17321 18.3652C6.17321 18.5773 6.57976 18.9131 6.82722 18.9131C7.12771 18.9131 7.12771 18.4359 6.84489 18.3298C6.68581 18.2768 6.72116 18.2061 6.93327 18.1177C7.30446 17.9586 7.62263 18.2061 8.09988 19.0192C8.5241 19.7262 8.45339 19.7439 7.12771 19.249C5.50153 18.6303 4.98893 18.2591 3.68092 16.6683C1.41842 13.9109 0.764413 12.0372 1.0649 9.2091C1.20631 7.90109 1.87799 5.65626 2.12545 5.65626C2.19615 5.65626 2.28453 5.83302 2.35524 6.04513ZM15.5414 18.1707C15.5414 18.2238 13.2612 19.2666 13.1375 19.2666C13.1021 19.2666 13.0845 19.1606 13.1198 19.0368C13.1375 18.9308 13.0138 18.8424 12.837 18.8424C12.4304 18.8778 12.5365 18.5243 13.0138 18.2945C13.3319 18.1354 15.5414 18.0293 15.5414 18.1707Z" fill="currentColor"/>
<path d="M15.5057 3.5529C15.3112 3.65895 15.1875 3.94177 15.1875 4.24226C15.1875 4.82556 15.3643 5.00232 15.7178 4.77253C15.9299 4.6488 15.9299 4.56042 15.7531 4.38366C15.4526 4.08317 15.488 3.88874 15.8769 3.88874C16.142 3.88874 16.248 4.0655 16.3364 4.63112C16.5839 6.328 16.6546 6.52244 16.9728 6.87595C17.4147 7.3532 17.9449 7.3532 18.1924 6.87595C18.3515 6.61081 18.3338 6.45173 18.1747 6.2573C17.9449 5.97449 17.4854 5.92146 17.4854 6.18659C17.4854 6.27497 17.5737 6.36335 17.6621 6.36335C17.7682 6.36335 17.8389 6.50476 17.8389 6.66384C17.8212 7.30017 17.1495 6.20427 17.0258 5.33816C16.8844 4.34831 16.5485 3.6236 16.1597 3.46452C15.8062 3.34079 15.8769 3.32311 15.5057 3.5529Z" fill="currentColor"/>
<path d="M16.7783 7.31805C16.7783 7.37107 16.9374 7.83064 17.1495 8.34324C17.45 9.08563 17.5207 9.6866 17.5207 11.2244C17.5384 13.098 17.5384 13.1511 17.8035 12.5501C18.3161 11.3305 17.7505 7.83064 16.9728 7.3534C16.8667 7.28269 16.7783 7.26502 16.7783 7.31805Z" fill="currentColor"/>
<path d="M18.2807 9.08559C17.9979 9.2977 17.9625 9.40375 18.1216 9.66889C18.3514 10.0401 18.6519 9.93403 18.5812 9.49213C18.5105 9.12094 18.8286 9.08559 18.97 9.45678C19.0584 9.72192 18.7579 10.8708 18.3691 11.7016C18.0509 12.391 18.3691 13.0803 18.9877 13.0803C19.3059 13.0803 19.4296 12.9919 19.4296 12.7268C19.4296 12.3556 19.0761 12.2142 19.0761 12.5854C19.0761 12.7091 18.9877 12.6738 18.8817 12.497C18.7403 12.2672 18.7933 11.896 19.0761 11.0476C19.4119 10.0578 19.4296 9.84565 19.2175 9.4391C18.9347 8.83813 18.7226 8.76742 18.2807 9.08559Z" fill="currentColor"/>
<path d="M4.9889 6.13363C4.67073 6.25736 4.70609 6.84066 5.04193 6.96439C5.41312 7.1058 5.6429 6.94672 5.6429 6.54017C5.6429 6.20433 5.34242 6.0099 4.9889 6.13363Z" fill="currentColor"/>
<path d="M6.98577 7.01765C6.93274 7.19441 6.70296 7.54792 6.4555 7.79538C6.03128 8.25495 5.57171 9.01501 5.71311 9.01501C5.76614 9.01501 6.11966 8.69685 6.5262 8.30798C6.98577 7.86609 7.23323 7.45954 7.23323 7.15905C7.23323 6.64646 7.12718 6.57575 6.98577 7.01765Z" fill="currentColor"/>
<path d="M9.0363 7.6185C9.107 7.77758 9.01862 8.02504 8.85954 8.18413C8.68278 8.32553 8.45299 8.57299 8.34694 8.69673C8.0818 8.96186 7.83434 9.24468 7.28639 9.79263C6.77379 10.3229 6.77379 10.429 7.32174 10.429C7.5692 10.429 7.76364 10.3583 7.76364 10.2522C7.76364 10.0754 8.38229 9.33305 9.14235 8.57299C9.60192 8.09575 9.63727 7.90131 9.23073 7.58315C8.98327 7.37104 8.94792 7.37104 9.0363 7.6185Z" fill="currentColor"/>
<path d="M10.8569 8.69658C10.9276 8.89101 10.8569 9.01474 10.6272 9.08545C10.4327 9.15615 10.2206 9.31523 10.1676 9.47431C10.1146 9.61572 9.8671 9.81016 9.61963 9.89853C9.28379 10.0223 9.17774 10.199 9.17774 10.6056C9.17774 10.9237 9.07168 11.1889 8.9126 11.2419C8.50606 11.401 8.59444 11.7015 9.05401 11.6308C9.3545 11.5954 9.46055 11.4363 9.4959 10.9944C9.53125 10.6409 9.65499 10.4288 9.81407 10.4288C9.95547 10.4288 10.1676 10.2344 10.2736 9.98691C10.3797 9.73945 10.6272 9.54502 10.8039 9.54502C11.2635 9.54502 11.4049 9.0501 11.0514 8.69658C10.7686 8.41377 10.7509 8.41377 10.8569 8.69658Z" fill="currentColor"/>
<path d="M12.3594 9.93382C12.3594 10.0929 12.1649 10.3404 11.9175 10.4994C11.6523 10.6762 11.5286 10.8883 11.5816 11.0474C11.6523 11.2242 11.5816 11.3125 11.4049 11.3125C11.2458 11.3125 10.9807 11.4716 10.8216 11.6661C10.6448 11.8605 10.415 12.0196 10.2913 12.0196C10.1676 12.0196 10.0615 12.1433 10.0615 12.2847C10.0615 12.6559 10.5211 12.6205 10.8039 12.214C10.9276 12.0372 11.1928 11.8605 11.3872 11.8251C11.5816 11.7721 11.7584 11.5777 11.7938 11.3656C11.8291 11.1181 12.0059 10.959 12.2356 10.9237C12.6775 10.8706 12.872 10.1636 12.5538 9.84544C12.4124 9.70404 12.3594 9.72171 12.3594 9.93382Z" fill="currentColor"/>
<path d="M13.4198 11.189C13.4198 11.3304 13.2607 11.5779 13.0663 11.7547C12.8542 11.9314 12.7305 12.1789 12.7835 12.3026C12.8719 12.5324 12.1118 12.8152 11.6522 12.7445C11.4578 12.7092 11.4401 12.7445 11.5815 12.9036C11.6876 13.0097 12.0588 13.0804 12.377 13.045C12.8542 13.0097 12.9956 12.9036 13.031 12.5501C13.0663 12.3203 13.2607 12.0198 13.4375 11.8784C13.8087 11.6309 13.8794 11.2244 13.5966 11.0476C13.5082 10.9946 13.4198 11.0476 13.4198 11.189Z" fill="currentColor"/>
<path d="M14.2511 12.8326C14.0743 13.0624 13.7562 13.2568 13.5441 13.2568C13.2259 13.2568 13.2082 13.2922 13.4203 13.4336C13.7915 13.681 13.986 13.6457 14.4632 13.2745C14.7637 13.0447 14.8344 12.8856 14.7283 12.6735C14.5869 12.4437 14.5162 12.4791 14.2511 12.8326Z" fill="currentColor"/>
<path d="M1.70063 7.37078C1.47085 7.60056 1.5769 7.98943 1.84204 7.90105C2.33696 7.70662 2.30161 8.13084 1.75366 9.17371C1.09966 10.3933 1.0643 11.3655 1.68296 11.4539C2.12485 11.5246 2.51372 11.1004 2.35464 10.7115C2.19556 10.3226 1.93042 10.358 1.93042 10.7822C1.93042 11.1888 1.66528 11.2595 1.52388 10.9059C1.4355 10.6938 1.93042 9.65096 2.61978 8.57273C3.044 7.88338 2.23091 6.82283 1.70063 7.37078Z" fill="currentColor"/>
<path d="M3.06169 9.95146C3.16775 11.5246 3.52126 12.7266 3.8571 12.7266C3.96316 12.7266 4.05154 12.5852 4.03386 12.4084C4.01619 11.8604 3.23845 8.6788 3.09705 8.53739C3.00867 8.46669 2.99099 9.10302 3.06169 9.95146Z" fill="currentColor"/>
<path d="M2.14316 13.1156C1.825 13.4338 1.8957 13.9287 2.26689 14.1408C2.51435 14.2645 2.65576 14.2645 2.74414 14.1055C2.81484 13.9994 2.77949 13.858 2.67343 13.8227C2.5497 13.7873 2.46132 13.6282 2.46132 13.4691C2.479 12.7621 3.15068 14.0171 3.27441 14.9539C3.34512 15.5902 3.53955 16.1028 3.78701 16.4033C4.14053 16.8099 4.22891 16.8452 4.65313 16.6508C4.98897 16.4917 5.1127 16.3149 5.1127 15.9261C5.1127 15.2721 4.81221 15.06 4.44102 15.4312C4.19355 15.6963 4.19355 15.7316 4.45869 15.8377C4.86524 15.9791 4.84756 16.2619 4.42334 16.2619C4.06982 16.2619 3.98144 16.0498 3.78701 14.6181C3.59258 13.2747 2.74414 12.5146 2.14316 13.1156Z" fill="currentColor"/>
<path d="M6.22598 16.5801C6.98604 17.3755 8.48848 18.0471 9.58439 18.0471C10.857 18.0648 12.6423 17.5699 13.6321 16.9159C14.1094 16.6154 14.4452 16.3503 14.4099 16.3149C14.3745 16.2796 13.7028 16.527 12.9074 16.8805C11.2989 17.5876 9.69044 17.835 8.55919 17.5169C8.17032 17.4108 7.37491 17.0396 6.79161 16.7038C5.73106 16.0675 5.73106 16.0675 6.22598 16.5801Z" fill="currentColor"/>
</svg>
