<svg width="62" height="43" viewBox="0 0 62 43" fill="none" xmlns="http://www.w3.org/2000/svg">
<path d="M24.3869 15.8407C21.2032 17.1039 17.8948 17.9583 14.5404 18.4034C12.8635 18.6273 11.1719 18.7401 9.47821 18.703C7.78663 18.6563 6.08319 18.4799 4.42899 17.9595C3.60638 17.692 2.78736 17.3496 2.05208 16.7966C1.31751 16.2709 0.6595 15.4468 0.450344 14.4221C0.341094 13.9158 0.363373 13.3853 0.464357 12.8947C0.568217 12.4041 0.73353 11.9348 0.956702 11.5135C1.38975 10.6579 1.97301 9.93812 2.58934 9.27954C3.83673 7.97205 5.26705 6.93686 6.73976 6.0213C8.2132 5.10211 9.75061 4.32269 11.3178 3.64035C14.4566 2.28291 17.7169 1.30049 21.0296 0.660037C22.687 0.344242 24.361 0.128337 26.0432 0.0413322C27.7244 -0.0472837 29.4174 -0.00257304 31.0943 0.265289C31.9312 0.404255 32.7661 0.594373 33.5783 0.896876C34.3886 1.19535 35.1847 1.61265 35.8639 2.2527C36.1985 2.57816 36.4928 2.97251 36.6998 3.42888C36.9115 3.88203 37.0103 4.40527 37.0042 4.9136C36.9912 5.94678 36.5898 6.88409 36.1 7.6772C35.0901 9.26746 33.7418 10.4847 32.3395 11.5465C30.9297 12.6071 29.4336 13.5073 27.8973 14.2992L27.5835 13.5081C29.1058 12.7726 30.5883 11.93 31.9816 10.9354C32.6827 10.4452 33.3465 9.89542 33.9779 9.30854C34.6093 8.72085 35.1821 8.05866 35.6533 7.32718C36.1183 6.59851 36.473 5.7639 36.4924 4.90715C36.5305 4.04636 36.1384 3.23835 35.5487 2.65631C34.95 2.07628 34.2082 1.66502 33.4349 1.36936C32.66 1.07048 31.8515 0.864659 31.0332 0.727707C29.3941 0.458234 27.7233 0.405865 26.0608 0.485619C24.3969 0.564568 22.737 0.770402 21.0918 1.07653C17.8006 1.68395 14.5626 2.67968 11.4594 4.04597C9.9091 4.73113 8.39038 5.51094 6.94174 6.42651C5.50064 7.34932 4.10662 8.39056 2.91997 9.66864C2.33419 10.3099 1.78866 11.0071 1.40377 11.7938C1.02067 12.5708 0.79678 13.4622 0.981499 14.2843C1.16119 15.1032 1.69953 15.7876 2.3712 16.2548C3.03497 16.7414 3.8087 17.056 4.59358 17.2969C6.17411 17.7685 7.83622 17.9184 9.48791 17.9377C11.1432 17.9486 12.8021 17.8124 14.4473 17.5671C17.7381 17.0713 20.9829 16.1912 24.1357 15.0227L24.3869 15.8407Z" fill="#C21807"/>
<path d="M3.52246 17.3689C4.47588 16.1303 5.64134 15.162 6.84417 14.3129C8.0531 13.4682 9.31415 12.7359 10.6075 12.0947C13.1932 10.8049 15.8922 9.86317 18.6162 9.0753C21.3518 8.34059 24.1247 7.74042 26.9408 7.52694C28.3463 7.40529 29.7608 7.35775 31.1771 7.44436C32.593 7.52653 34.0126 7.7384 35.4091 8.1992L35.1547 9.01688C33.8886 8.48277 32.5158 8.19799 31.1379 8.05379C29.7561 7.92248 28.36 7.91161 26.9677 7.99337C24.1844 8.18873 21.4136 8.70029 18.7122 9.49703C17.3606 9.89217 16.0266 10.361 14.7174 10.9024C13.4071 11.4381 12.1194 12.0423 10.8713 12.7307C9.62429 13.4195 8.40601 14.1707 7.25637 15.0279C6.10889 15.8874 5.04154 16.8634 4.09854 17.9449L3.52246 17.3689Z" fill="#C21807"/>
<path d="M24.5169 23.8656C23.6584 24.2132 22.7075 24.1749 21.841 24.4633C20.962 24.7058 20.0779 24.9237 19.1902 25.1255C17.416 25.5308 15.6231 25.8429 13.8154 26.0266C12.0085 26.1934 10.1818 26.2691 8.36012 26.0286C6.55354 25.7865 4.69341 25.2959 3.12402 24.0311L3.59948 23.3488C4.25282 23.9554 5.0323 24.4102 5.85599 24.7417C6.67968 25.078 7.54793 25.3016 8.42804 25.4389C10.1897 25.7185 11.9941 25.7305 13.7824 25.5787C15.5735 25.4325 17.3542 25.1239 19.118 24.7288C20.0003 24.531 20.8754 24.295 21.7476 24.0469C22.6334 23.8499 23.423 23.2731 24.2927 23.0366L24.5169 23.8656Z" fill="#C21807"/>
<path d="M38.88 13.1302C38.7884 13.6119 38.603 14.0667 38.3686 14.4691C38.1469 14.8823 37.8853 15.2582 37.6082 15.6118C37.0447 16.3119 36.4119 16.9092 35.7714 17.482C35.1321 18.0568 34.4719 18.5966 33.7949 19.1101L31.7536 20.6512L31.3989 19.8819C32.1522 19.5625 32.8788 19.1714 33.5721 18.717C34.2642 18.261 34.9255 17.7446 35.531 17.1578C36.1337 16.5689 36.6706 15.897 37.1173 15.1768C37.3304 14.809 37.5421 14.4449 37.7034 14.0578C37.8824 13.6772 37.9798 13.2748 38.1368 12.8945L38.88 13.1302Z" fill="#C21807"/>
<path d="M35.6838 2.21542C36.3411 3.34608 36.9747 4.51057 37.3865 5.78825C37.8207 7.13481 38.1459 8.54784 38.2731 9.97455C38.3881 11.2663 38.3205 12.6282 37.895 13.8479C37.6974 14.4142 37.4085 14.9475 37.0433 15.397C36.7012 15.818 36.3957 16.2453 35.9454 16.5249C35.8135 16.6066 35.9055 16.8242 36.045 16.7895C36.5492 16.6646 37.0768 16.4616 37.4588 16.0588C37.8498 15.6464 38.1581 15.1098 38.3921 14.5721C38.9681 13.2481 39.1503 11.7976 39.0637 10.3355C38.9699 8.75366 38.5779 7.22101 38.0136 5.77254C37.4864 4.41873 36.8575 3.04921 35.8603 2.06356C35.7693 1.97333 35.6105 2.08935 35.6838 2.21542Z" fill="#C21807"/>
<path d="M1.53218 10.7869C-0.189942 13.0212 -0.275472 16.2344 0.372481 18.9605C0.726466 20.4501 1.31009 21.8925 2.20278 23.0755C2.62181 23.631 3.12781 24.1151 3.68268 24.4934C4.22247 24.8611 4.80142 24.9332 5.42314 24.9083C5.59528 24.9014 5.61936 24.6436 5.46267 24.5808C4.9502 24.3749 4.49092 23.9963 4.03236 23.6708C3.54037 23.322 3.11236 22.8568 2.74184 22.3557C1.9354 21.2645 1.43084 19.9135 1.1189 18.5517C0.821698 17.2526 0.715684 15.9081 0.717481 14.5692C0.719278 13.2891 1.00858 11.9683 1.69498 10.9287C1.76506 10.8223 1.60909 10.687 1.53218 10.7869Z" fill="#C21807"/>
<path d="M28.2616 13.6196C30.8797 12.2118 34.1205 10.7384 35.1379 7.38425C35.5965 5.87294 35.4657 4.08209 34.3663 2.95466C33.442 2.00647 32.2065 1.77767 30.9975 1.75955C30.7481 1.75592 30.765 2.14744 30.9975 2.18128C32.0584 2.33515 33.3141 2.54138 34.0598 3.49038C34.9765 4.65688 34.817 6.49728 34.2086 7.78705C33.6095 9.05707 32.5921 9.97586 31.5165 10.7158C30.3453 11.5214 29.1008 12.188 27.8699 12.8696C27.4221 13.1181 27.8149 13.8596 28.2616 13.6196Z" fill="#C21807"/>
<path d="M4.37725 8.89327C3.0012 9.74157 1.66325 11.101 1.22265 12.8528C0.726357 14.8261 1.97519 16.9356 3.54673 17.7484C5.50102 18.759 7.84162 18.407 9.92851 18.3486C12.2724 18.2829 14.6234 18.1508 16.9475 17.7871C19.5544 17.379 22.0646 16.5839 24.5084 15.4952C24.9662 15.2909 24.7668 14.4507 24.3024 14.6577C22.374 15.5169 20.3942 16.2101 18.353 16.6419C16.2578 17.085 14.1408 17.251 12.0147 17.34C10.9718 17.3835 9.92816 17.4032 8.88453 17.4161C7.84414 17.4286 6.79009 17.4713 5.75401 17.344C3.96145 17.1237 2.03556 16.1106 1.70314 13.9081C1.40989 11.965 3.18017 10.0807 4.49656 9.12206C4.62306 9.02942 4.5113 8.8107 4.37725 8.89327Z" fill="#C21807"/>
<path d="M39.0374 9.80551C42.4058 10.9845 45.5956 12.7105 48.6014 14.7434C51.6076 16.7764 54.4542 19.1271 56.9752 21.8839C58.2251 23.2711 59.4035 24.7562 60.3645 26.4315C60.841 27.2697 61.2619 28.1583 61.5569 29.1145C61.8405 30.0659 61.9975 31.1257 61.7539 32.1585C61.6281 32.6692 61.3866 33.1461 61.0664 33.5328C60.7458 33.9199 60.3548 34.222 59.9387 34.4379C59.1009 34.8617 58.2 35.0272 57.3141 35.0679C55.5352 35.1517 53.7825 34.8202 52.0795 34.3545C50.3746 33.8813 48.7132 33.238 47.0928 32.4948C45.4709 31.7537 43.8872 30.911 42.3444 29.9842C39.2642 28.122 36.3284 25.9441 33.659 23.3936C32.3282 22.1155 31.0532 20.7536 29.9197 19.2395C29.3544 18.4818 28.8232 17.6879 28.3553 16.8416C27.8867 15.9974 27.4882 15.0906 27.2341 14.1114C26.9875 13.1431 26.9067 12.0346 27.2873 11.0236C27.4723 10.5221 27.78 10.0778 28.1494 9.73664C28.5185 9.39265 28.94 9.14332 29.3727 8.95561C30.2449 8.59108 31.1559 8.46822 32.0519 8.44244C32.9499 8.41787 33.8415 8.49682 34.7209 8.63538L34.6045 9.49133C33.76 9.33625 32.9082 9.23917 32.0616 9.24079C31.217 9.24199 30.3703 9.33987 29.5973 9.64197C28.8347 9.94407 28.1404 10.4814 27.8281 11.2923C27.5022 12.091 27.537 13.0529 27.7591 13.9495C27.9823 14.8522 28.3492 15.7234 28.7923 16.5435C29.234 17.3661 29.7429 18.1479 30.288 18.8975C31.3827 20.3947 32.6215 21.7642 33.9303 23.0391C36.5631 25.5751 39.4708 27.751 42.5226 29.6128C45.5769 31.4641 48.8038 33.0015 52.1715 33.932C53.8523 34.3823 55.5798 34.6965 57.2926 34.6047C58.1446 34.5551 58.9953 34.3791 59.7467 33.986C60.4932 33.5904 61.0897 32.8948 61.291 32.0175C61.4886 31.1406 61.3488 30.1864 61.0725 29.301C60.7871 28.4116 60.3767 27.5657 59.907 26.7642C58.9608 25.1602 57.7899 23.7206 56.5476 22.3785C54.0402 19.7083 51.2044 17.4293 48.2169 15.4693C45.2255 13.5145 42.0756 11.8578 38.802 10.6304L39.0374 9.80551Z" fill="#C21807"/>
<path d="M35.9148 16.9412C37.0126 17.3045 38.0699 17.7999 39.1103 18.3236C40.1496 18.852 41.1731 19.4156 42.1715 20.0306C44.1739 21.2487 46.0865 22.6319 47.9556 24.078C49.7974 25.5667 51.6105 27.1119 53.2514 28.8858C54.9041 30.6372 56.4638 32.538 57.6127 34.8327L56.9195 35.2142C56.4789 34.0924 55.8683 33.037 55.1949 32.0397C54.5081 31.0508 53.7556 30.1135 52.9613 29.2217C51.3524 27.4611 49.5983 25.8571 47.7342 24.4361C46.7995 23.7299 45.8515 23.0452 44.8675 22.4289C43.8943 21.7929 42.8967 21.2052 41.8847 20.6546C40.8723 20.1047 39.8488 19.5839 38.8102 19.1066C37.7709 18.6301 36.7158 18.2092 35.6689 17.7625L35.9148 16.9412Z" fill="#C21807"/>
<path d="M56.9701 41.3432C56.1723 41.8704 55.2781 42.1339 54.3959 42.2511C53.5104 42.3651 52.627 42.3349 51.7584 42.243C50.0201 42.0473 48.3328 41.5768 46.6984 40.9706C43.4259 39.7525 40.345 38.0261 37.383 36.1064C34.4405 34.1532 31.5655 32.0381 28.988 29.4892C27.6979 28.2216 26.4695 26.8557 25.4266 25.3013C24.3909 23.7566 23.4846 22.0096 23.187 19.9964L23.9532 19.8853C23.9978 20.3328 24.0736 20.7799 24.1839 21.2209C24.3047 21.6584 24.4398 22.095 24.6134 22.5163C24.9483 23.3642 25.3792 24.1747 25.8662 24.9404C26.8426 26.4738 28.0131 27.8607 29.2651 29.1404C31.8002 31.6692 34.6195 33.8459 37.5775 35.729C39.052 36.6792 40.5685 37.5476 42.1232 38.3133C43.6739 39.0887 45.2656 39.7582 46.8853 40.3003C48.5053 40.834 50.1599 41.2534 51.8238 41.3943C53.4734 41.5224 55.1847 41.4068 56.5884 40.5899L56.9701 41.3432Z" fill="#C21807"/>
<path d="M61.7676 30.588C61.5009 32.0606 61.1875 33.5155 60.6078 34.8814C60.0706 36.1474 59.4295 37.3748 58.6478 38.472C57.9097 39.5076 57.0101 40.4276 55.9424 41.0153C55.4134 41.3065 54.8266 41.4974 54.2379 41.5466C53.6759 41.5933 53.1106 41.6545 52.5636 41.4785C52.4209 41.4326 52.3408 41.6573 52.4641 41.7431C52.9388 42.0726 53.4717 42.3429 54.0374 42.3534C54.6652 42.3651 55.3085 42.1753 55.8882 41.9204C57.1208 41.3778 58.1486 40.4586 59.0004 39.3316C59.8657 38.1864 60.5274 36.8741 61.033 35.4876C61.5897 33.961 62.0881 32.2858 61.9875 30.6218C61.9799 30.4881 61.7942 30.4406 61.7676 30.588Z" fill="#C21807"/>
<path d="M30.6771 8.81777C27.9663 9.06388 25.8101 11.351 24.5066 13.8733C23.7843 15.271 23.2628 16.8202 23.1345 18.4366C23.0738 19.1987 23.1259 19.9777 23.2833 20.7221C23.4418 21.4709 23.8152 22.0224 24.3108 22.5416C24.4373 22.6741 24.6184 22.5081 24.5444 22.3394C24.2838 21.7452 24.1731 21.0472 24.0473 20.4023C23.9169 19.7336 23.9122 19.0304 23.9711 18.3508C24.0994 16.8726 24.6205 15.447 25.2911 14.1786C25.9193 12.9896 26.711 11.9157 27.5822 10.9405C28.4278 9.99394 29.5113 9.25279 30.7048 9.04656C30.8198 9.02642 30.7939 8.8069 30.6771 8.81777Z" fill="#C21807"/>
<path d="M34.0417 9.75406C32.7512 9.36656 31.4456 9.26384 30.1403 9.6457C28.6087 10.094 27.6578 11.3697 27.4163 13.1198C27.1302 15.1931 28.0383 16.9807 29.2767 18.4457C30.6578 20.0798 32.1855 21.5996 33.6751 23.1081C36.6518 26.123 39.8571 28.7803 43.517 30.6581C45.3448 31.5959 47.2318 32.3817 49.1369 33.0987C51.0078 33.8028 52.9973 34.7018 54.9979 34.7047C56.8185 34.7071 59.0294 33.9015 59.9038 31.9443C60.8249 29.882 59.8675 27.8909 58.5633 26.3921C58.3897 26.1927 58.1515 26.4831 58.2974 26.6902C59.3144 28.1358 60.3045 29.923 59.2634 31.6953C58.334 33.2775 56.6209 33.8922 54.9983 33.8165C53.1662 33.7311 51.3841 33.0145 49.658 32.3729C47.9423 31.7352 46.2393 31.0577 44.5822 30.2465C41.2763 28.6272 38.3193 26.432 35.5902 23.7965C34.2329 22.4857 32.9402 21.0808 31.6529 19.6847C30.4745 18.4066 29.0852 17.0741 28.4628 15.3244C27.8277 13.5392 28.1106 11.2215 29.7896 10.324C31.0021 9.67592 32.6869 9.68598 33.9792 10.0094C34.1265 10.0457 34.189 9.79836 34.0417 9.75406Z" fill="#C21807"/>
<path d="M39.5612 11.7229C39.5842 11.7229 39.5842 11.6833 39.5612 11.6833C39.5382 11.6833 39.5382 11.7229 39.5612 11.7229Z" fill="#C21807"/>
<path d="M38.8517 9.81492C38.7295 12.0996 37.8721 14.2441 36.4928 15.9089C35.8581 16.675 35.1415 17.3509 34.3976 17.9793C33.5912 18.6608 32.8002 19.2863 31.8342 19.6444C31.1424 19.9006 31.5377 21.0216 32.2281 20.6913C34.1407 19.7753 35.843 18.1702 37.0994 16.3262C38.3799 14.4471 39.017 12.158 39.0145 9.81452C39.0145 9.6965 38.8578 9.69851 38.8517 9.81492Z" fill="#C21807"/>
<path d="M10.8326 6.68412C12.4861 5.3851 14.4206 4.87878 16.3386 4.29391C16.6034 4.21335 17.3685 4.13278 17.3258 3.6744C17.2773 3.15318 16.5923 3.4875 16.3522 3.57088C15.3884 3.9048 14.4109 4.20973 13.4625 4.59762C12.4404 5.01533 11.5176 5.60019 10.6486 6.33047C10.4646 6.48555 10.6375 6.83719 10.8326 6.68412Z" fill="#C21807"/>
<path d="M13.4629 6.61344C13.8905 6.37539 14.3268 6.15747 14.7717 5.96372C14.9963 5.86584 15.2217 5.76918 15.4474 5.67452C15.5059 5.64995 15.5746 5.63182 15.6285 5.59638C15.6788 5.56335 15.7226 5.51097 15.765 5.46667C15.8236 5.40584 15.8966 5.32851 15.8524 5.23103C15.8078 5.13315 15.6831 5.14081 15.6008 5.13275C15.4711 5.12067 15.3622 5.1686 15.2407 5.21371C15.0114 5.29911 14.7879 5.39618 14.5651 5.50051C14.1162 5.71117 13.676 5.94197 13.2447 6.19453C12.9971 6.34034 13.2153 6.7516 13.4629 6.61344Z" fill="#C21807"/>
<path d="M13.8003 7.87606C14.0684 7.74435 14.3408 7.62714 14.6186 7.52442C14.7588 7.47246 14.8975 7.41727 15.0384 7.36733C15.2055 7.30811 15.4182 7.28194 15.5192 7.10752C15.608 6.95406 15.5102 6.79294 15.3834 6.73292C15.282 6.68499 15.1789 6.73574 15.0822 6.7728C15.0147 6.79858 14.9475 6.82516 14.8803 6.85255C14.7272 6.91499 14.5748 6.98024 14.4253 7.05355C14.1468 7.1905 13.8715 7.33752 13.602 7.49502C13.5078 7.5502 13.4798 7.69722 13.5315 7.79631C13.5901 7.90949 13.7029 7.92399 13.8003 7.87606Z" fill="#C21807"/>
<path d="M14.5977 8.77808C14.6836 8.73578 14.7695 8.69308 14.855 8.65079C14.9399 8.6089 15.0304 8.57265 15.1095 8.51787C15.149 8.49048 15.1889 8.46308 15.2281 8.43529C15.2705 8.40508 15.3096 8.35916 15.3377 8.33499C15.4131 8.27014 15.499 8.21617 15.5648 8.13883C15.6223 8.07197 15.5824 7.9483 15.4954 7.95072C15.402 7.95314 15.3046 7.98093 15.2137 8.00469C15.1918 8.00872 15.1875 8.00994 15.2015 8.00873C15.1893 8.00873 15.177 8.00873 15.1648 8.00873C15.1332 8.01074 15.1052 8.0188 15.0753 8.02766C15.0275 8.04216 14.9797 8.05787 14.9319 8.07318C14.8313 8.105 14.7336 8.16421 14.638 8.21174C14.5492 8.25564 14.4604 8.29955 14.3713 8.34345C14.2635 8.39662 14.2301 8.58272 14.2908 8.68785C14.3623 8.81312 14.482 8.83527 14.5977 8.77808Z" fill="#C21807"/>
<path d="M16.7271 20.0778C17.2838 20.048 17.8383 19.9856 18.3892 19.8921C18.6616 19.8458 18.9333 19.7958 19.2036 19.737C19.4792 19.677 19.7739 19.6287 20.038 19.5199C20.1096 19.4905 20.1929 19.4277 20.2044 19.3334C20.2181 19.2214 20.2073 19.1626 20.143 19.0736C20.088 18.9975 19.9892 18.9882 19.9112 19.0047C19.6431 19.0611 19.3797 19.1687 19.1144 19.242C18.8582 19.3129 18.6005 19.3777 18.3407 19.4305C17.8063 19.5388 17.268 19.6126 16.7264 19.6561C16.4878 19.6754 16.4835 20.0907 16.7271 20.0778Z" fill="#C21807"/>
<path d="M18.2424 21.172C18.3391 21.1639 18.4354 21.1539 18.5317 21.1414C18.5874 21.1341 18.6431 21.1257 18.6988 21.1172C18.7531 21.1092 18.7567 21.1084 18.71 21.1156C18.7391 21.1112 18.7685 21.1067 18.7977 21.1023C18.8253 21.0983 18.853 21.0939 18.8807 21.0894C19.0773 21.0572 19.2584 20.9996 19.4449 20.9239C19.5746 20.8711 19.6889 20.7414 19.6821 20.5751C19.6817 20.5694 19.6817 20.5634 19.6814 20.5573C19.6551 20.6282 19.6289 20.6995 19.6027 20.7704C19.681 20.7007 19.7392 20.6318 19.8 20.5424C19.8567 20.459 19.7949 20.333 19.7151 20.3088C19.6145 20.2782 19.5164 20.2669 19.4129 20.2564C19.4902 20.3064 19.5678 20.3559 19.6451 20.4055C19.6429 20.401 19.6407 20.3966 19.6386 20.3926C19.5646 20.2472 19.414 20.1924 19.2738 20.2262C19.0873 20.2713 18.9022 20.3132 18.7172 20.3648C18.5335 20.4163 18.3474 20.455 18.1601 20.4864C18.0074 20.5122 17.9186 20.716 17.937 20.8699C17.9556 21.0298 18.0872 21.1849 18.2424 21.172Z" fill="#C21807"/>
<path d="M26.0087 15.1794C26.3688 16.6725 26.9333 18.0968 27.7121 19.3753C28.0931 20.0005 28.5164 20.5978 28.9775 21.1513C29.2168 21.4385 29.4702 21.7091 29.7167 21.9887C29.9388 22.2404 30.1372 22.64 30.4707 22.6952C30.5656 22.7109 30.6949 22.6698 30.7125 22.5413C30.7628 22.172 30.5745 21.9613 30.3629 21.7031C30.1372 21.428 29.895 21.173 29.6531 20.916C29.1439 20.3755 28.672 19.793 28.2566 19.1594C27.4422 17.9168 26.8004 16.5328 26.3778 15.0654C26.3019 14.8048 25.9444 14.9115 26.0087 15.1794Z" fill="#C21807"/>
<path d="M26.368 19.3659C26.6296 19.981 26.9282 20.5924 27.2772 21.1511C27.4508 21.4287 27.6344 21.6989 27.8263 21.9608C28.0168 22.2206 28.2274 22.5577 28.5095 22.6935C28.7118 22.7909 28.8854 22.594 28.8002 22.3676C28.6867 22.0671 28.4232 21.8282 28.2328 21.5858C28.0394 21.3392 27.8554 21.0843 27.6811 20.8208C27.3243 20.2811 27.0048 19.7264 26.7316 19.1279C26.6073 18.8552 26.2526 19.0944 26.368 19.3659Z" fill="#C21807"/>
<path d="M26.1543 20.7418C26.2424 20.9163 26.3379 21.0862 26.4184 21.2651C26.4957 21.4375 26.5723 21.6115 26.6567 21.7795C26.8353 22.1355 27.047 22.5057 27.2874 22.8134C27.3712 22.9206 27.4711 23.0293 27.6073 23.0269C27.5882 23.0273 27.5325 22.9927 27.5649 23.0249C27.5764 23.0362 27.5994 23.0443 27.613 23.0515C27.6734 23.0825 27.7374 23.1091 27.8046 23.0882C27.8915 23.0616 27.9537 22.9681 27.9544 22.8674C27.9548 22.8239 27.9483 22.7691 27.935 22.7285C27.9214 22.6858 27.9433 22.6842 27.9221 22.7256C27.9142 22.7933 27.9163 22.7732 27.9293 22.6652C27.9253 22.6334 27.9217 22.6012 27.9178 22.5694C27.8887 22.4505 27.8053 22.3406 27.7391 22.2463C27.6874 22.1726 27.627 22.0868 27.5911 22.034C27.4772 21.8677 27.3564 21.7078 27.2396 21.5438C27.1174 21.3722 26.9877 21.2091 26.8605 21.0419C26.7318 20.8732 26.6204 20.6923 26.5083 20.509C26.3606 20.269 26.0228 20.4808 26.1543 20.7418Z" fill="#C21807"/>
<path d="M48.5303 22.6467C49.4247 23.3669 50.2836 24.1516 51.0764 25.0096C51.4584 25.4228 51.8279 25.851 52.1847 26.2917C52.3727 26.5241 52.5571 26.7597 52.7375 26.9994C52.9031 27.2189 53.0393 27.4912 53.2995 27.5698C53.4045 27.6012 53.5371 27.5085 53.527 27.3756C53.504 27.0739 53.3157 26.8931 53.1421 26.6788C52.9545 26.4472 52.763 26.2192 52.5682 25.9948C52.1686 25.5348 51.7535 25.0913 51.3262 24.6636C50.491 23.8273 49.6156 23.0471 48.6913 22.3378C48.5202 22.2053 48.3653 22.5138 48.5303 22.6467Z" fill="#C21807"/>
<path d="M49.6183 22.3185C50.2691 22.8848 50.8847 23.4902 51.5014 24.1017C51.8008 24.3985 52.0962 24.7006 52.3873 25.008C52.6931 25.331 52.9785 25.6968 53.3023 25.996C53.5739 26.247 53.9215 25.8651 53.69 25.5614C53.4262 25.2158 53.0917 24.9165 52.7905 24.6124C52.4757 24.2946 52.1559 23.9824 51.8317 23.6763C51.1974 23.0773 50.5268 22.5203 49.8602 21.9676C49.6794 21.8182 49.4393 22.163 49.6183 22.3185Z" fill="#C21807"/>
<path d="M51.4099 22.5062C51.7122 22.851 52.005 23.2022 52.2943 23.5607C52.4349 23.7347 52.5757 23.9079 52.7162 24.0815C52.8636 24.2628 53.0066 24.463 53.178 24.6164C53.3239 24.747 53.5432 24.788 53.6841 24.6164C53.826 24.4428 53.8106 24.2237 53.6841 24.0493C53.5493 23.864 53.3746 23.7093 53.2161 23.5506C53.0555 23.3899 52.8945 23.2288 52.7335 23.0689C52.4108 22.7483 52.0942 22.4232 51.7833 22.0877C51.5382 21.8238 51.1713 22.2339 51.4099 22.5062Z" fill="#C21807"/>
</svg>
