<svg width="62" height="73" viewBox="0 0 62 73" fill="currentColor" xmlns="http://www.w3.org/2000/svg">
<path d="M2.36643 0.525864C2.36643 1.23579 1.2358 2.36642 0.525874 2.36642C0.0525874 2.36642 0 2.52419 0 4.07552C0 5.3902 0.078881 5.7846 0.368111 5.7846C0.578461 5.7846 1.10433 6.10013 1.55133 6.46824C2.15608 6.96782 2.36643 7.36222 2.36643 8.01956C2.36643 9.04502 1.57762 10.1231 0.657342 10.3597C0.0525874 10.5175 0 10.6489 0 12.0951C0 13.6464 0.0262937 13.6727 0.893985 14.0408C1.39356 14.2512 1.91944 14.6456 2.0772 14.9348C2.78713 16.2758 2.0772 17.9323 0.657342 18.3004C0.0525874 18.4582 0 18.5633 0 20.141C0 21.6134 0.0525874 21.8237 0.49958 21.8237C1.2621 21.8237 2.36643 23.0858 2.36643 23.9798C2.36643 25.0842 1.91944 25.7678 0.893985 26.1885C0.0262937 26.5566 0 26.5829 0 28.1342C0 29.3963 0.078881 29.7119 0.420699 29.7119C1.13063 29.7119 2.36643 31.1843 2.36643 32.0257C2.36643 32.9723 1.55133 34.0766 0.657342 34.287C0.0525874 34.4447 0 34.5762 0 36.0223C0 37.5737 0.0262937 37.6 0.893985 37.9681C1.94573 38.3888 2.36643 39.0724 2.36643 40.2293C2.36643 41.1496 1.31468 42.3328 0.49958 42.3328C0.0525874 42.3328 0 42.5432 0 44.0156C0 45.5932 0.0525874 45.6984 0.657342 45.8562C2.34014 46.2769 2.9186 48.3541 1.70909 49.5636C1.36727 49.9317 0.841398 50.2209 0.525874 50.2209C0.0525874 50.2209 0 50.3787 0 51.93C0 53.5339 0.0525874 53.6391 0.657342 53.7969C1.57762 54.0335 2.36643 55.1115 2.36643 56.137C2.36643 56.7943 2.15608 57.1888 1.55133 57.6883C1.10433 58.0564 0.578461 58.372 0.368111 58.372C0.078881 58.372 0 58.7664 0 60.0811C0 61.6324 0.0525874 61.7901 0.525874 61.7901C1.39356 61.7901 2.36643 62.9471 2.36643 63.9725C2.36643 64.998 1.31468 66.2601 0.49958 66.2601C0.0525874 66.2601 0 66.4704 0 67.9692C0 69.2838 0.078881 69.6782 0.368111 69.6782C0.972866 69.6782 2.36643 70.9929 2.36643 71.5451C2.36643 71.808 2.44531 72.0447 2.57678 72.071C4.70657 72.3602 5.52167 72.2287 5.52167 71.5714C5.54797 70.6774 6.78377 69.6782 7.86181 69.6782C8.57174 69.6782 9.9916 70.9141 9.9916 71.5451C9.9916 72.071 10.7278 72.3339 11.8322 72.2024C12.2003 72.1499 12.6473 72.0973 12.8313 72.071C12.9891 72.071 13.1468 71.8343 13.1468 71.5714C13.1468 70.4671 14.8559 69.4416 16.0391 69.8097C16.7754 70.0464 17.6168 70.9929 17.6168 71.5714C17.6168 72.071 17.6431 72.071 19.431 72.1499C20.2461 72.2024 20.5879 72.0973 20.6931 71.808C21.1664 70.2567 22.2707 69.4679 23.5328 69.7834C24.3217 69.9938 25.2419 70.9403 25.2419 71.5714C25.2419 71.8343 25.3997 72.071 25.5837 72.071C25.7415 72.0973 26.1885 72.1499 26.5566 72.1761C27.6084 72.3076 28.3972 72.0184 28.3972 71.5451C28.3972 70.4671 30.1326 69.4416 31.2895 69.8097C31.9994 70.0464 32.8671 70.9666 32.8671 71.5451C32.8671 72.0973 33.2352 72.255 34.5762 72.1761C36.0223 72.0973 36.0223 72.0973 36.0223 71.5714C36.0223 70.9403 36.9426 69.9938 37.7314 69.7834C38.9935 69.4679 40.0979 70.2304 40.5711 71.808C40.6763 72.1236 41.0181 72.2024 41.991 72.1761C43.7001 72.0973 43.6475 72.0973 43.6475 71.5714C43.6475 70.4671 45.3566 69.4416 46.5398 69.8097C47.2497 70.0464 48.1174 70.9666 48.1174 71.5451C48.1174 72.0447 48.6433 72.3076 49.6951 72.3076C50.7731 72.3076 51.2727 72.0447 51.2727 71.5188C51.2727 70.9403 52.7188 69.6782 53.3762 69.6782C54.5857 69.6782 55.3745 70.3882 55.8478 71.8343C55.9529 72.2024 56.2159 72.2813 57.1099 72.2024C57.7409 72.1499 58.3983 72.0973 58.5823 72.071C58.7401 72.0447 58.8978 71.808 58.8978 71.5451C58.8978 70.9929 60.2914 69.6782 60.8962 69.6782C61.1854 69.6782 61.2643 69.2838 61.2643 67.9692C61.2643 66.4178 61.2117 66.2601 60.7384 66.2601C59.897 66.2601 58.8978 65.0243 58.8978 63.9725C58.8978 62.9471 59.8707 61.7901 60.7384 61.7901C61.2117 61.7901 61.2643 61.6324 61.2643 60.0811C61.2643 58.6875 61.1854 58.372 60.8436 58.372C60.1336 58.372 58.8978 56.8995 58.8978 56.0581C58.8978 55.1115 59.7129 54.0072 60.6069 53.7969C61.2117 53.6391 61.2643 53.5339 61.2643 51.93C61.2643 50.3787 61.2117 50.2209 60.7384 50.2209C60.4229 50.2209 59.897 49.9317 59.5552 49.5636C58.3457 48.3541 58.9241 46.2769 60.6069 45.8562C61.2117 45.6984 61.2643 45.5932 61.2643 44.0156C61.2643 42.5432 61.2117 42.3328 60.7647 42.3328C59.897 42.3328 58.8978 41.1496 58.8978 40.0979C58.8978 39.0198 59.8444 37.8629 60.7384 37.8629C61.2117 37.8629 61.2643 37.7051 61.2643 36.1538C61.2643 34.5499 61.2117 34.4447 60.6069 34.287C59.7392 34.0766 58.8978 32.9723 58.8978 32.0783C58.8978 31.1843 59.7392 30.08 60.6069 29.8696C61.2117 29.7119 61.2643 29.5804 61.2643 28.1342C61.2643 26.5829 61.238 26.5566 60.3703 26.1885C59.3185 25.7678 58.8978 25.0842 58.8978 23.9272C58.8978 23.007 59.9496 21.8237 60.7647 21.8237C61.2117 21.8237 61.2643 21.6134 61.2643 20.141C61.2643 18.5633 61.2117 18.4582 60.6069 18.3004C58.9241 17.8797 58.3457 15.8025 59.5552 14.593C59.897 14.2249 60.4229 13.9356 60.7384 13.9356C61.2117 13.9356 61.2643 13.7779 61.2643 12.2266C61.2643 10.6226 61.2117 10.5175 60.6069 10.3597C59.7129 10.1494 58.8978 9.04502 58.8978 8.09845C58.8978 7.25705 60.1336 5.7846 60.8436 5.7846C61.1854 5.7846 61.2643 5.46908 61.2643 4.07552C61.2643 2.52419 61.2117 2.36642 60.7384 2.36642C60.0285 2.36642 58.8978 1.23579 58.8978 0.525864C58.8978 0.0525818 58.7401 -7.62939e-06 57.3202 -7.62939e-06C55.9004 -7.62939e-06 55.7426 0.0525818 55.7426 0.525864C55.7426 1.41985 54.5857 2.36642 53.5076 2.36642C52.4296 2.36642 51.2727 1.41985 51.2727 0.525864C51.2727 0.0525818 51.1149 -7.62939e-06 49.6951 -7.62939e-06C48.2752 -7.62939e-06 48.1174 0.0525818 48.1174 0.525864C48.1174 1.41985 46.9605 2.36642 45.8825 2.36642C44.8044 2.36642 43.6475 1.41985 43.6475 0.525864C43.6475 0.0525818 43.4897 -7.62939e-06 42.0699 -7.62939e-06C40.65 -7.62939e-06 40.4923 0.0525818 40.4923 0.525864C40.4923 1.41985 39.3353 2.36642 38.2573 2.36642C37.1793 2.36642 36.0223 1.41985 36.0223 0.525864C36.0223 0.0525818 35.8646 -7.62939e-06 34.4447 -7.62939e-06C33.0249 -7.62939e-06 32.8671 0.0525818 32.8671 0.525864C32.8671 1.41985 31.7102 2.36642 30.6321 2.36642C29.5541 2.36642 28.3972 1.41985 28.3972 0.525864C28.3972 0.0525818 28.2394 -7.62939e-06 26.8196 -7.62939e-06C25.3997 -7.62939e-06 25.2419 0.0525818 25.2419 0.525864C25.2419 1.41985 24.085 2.36642 23.007 2.36642C21.9289 2.36642 20.772 1.41985 20.772 0.525864C20.772 0.0525818 20.6142 -7.62939e-06 19.1944 -7.62939e-06C17.7745 -7.62939e-06 17.6168 0.0525818 17.6168 0.525864C17.6168 1.41985 16.4598 2.36642 15.3818 2.36642C14.3038 2.36642 13.1468 1.41985 13.1468 0.525864C13.1468 0.0525818 12.9891 -7.62939e-06 11.5692 -7.62939e-06C10.1494 -7.62939e-06 9.9916 0.0525818 9.9916 0.525864C9.9916 1.41985 8.83468 2.36642 7.75664 2.36642C6.67859 2.36642 5.52167 1.41985 5.52167 0.525864C5.52167 0.0525818 5.36391 -7.62939e-06 3.94405 -7.62939e-06C2.52419 -7.62939e-06 2.36643 0.0525818 2.36643 0.525864ZM5.36391 1.1832C6.2579 3.28671 9.28167 3.26041 10.1494 1.15691C10.4912 0.341812 10.6226 0.262932 11.5692 0.262932C12.5158 0.262932 12.6473 0.341812 12.9891 1.15691C13.4098 2.20866 14.0934 2.62936 15.3292 2.68195C16.5124 2.73454 17.3275 2.20866 17.7745 1.15691C18.1163 0.341812 18.2478 0.262932 19.1944 0.262932C20.141 0.262932 20.2724 0.341812 20.6142 1.15691C21.4819 3.26041 24.5057 3.28671 25.3997 1.1832C25.7415 0.341812 25.873 0.262932 26.8196 0.262932C27.7661 0.262932 27.8976 0.341812 28.2657 1.1832C29.1071 3.26041 31.9468 3.28671 32.946 1.23579C33.393 0.368103 33.5507 0.262932 34.471 0.262932C35.3913 0.262932 35.5228 0.368103 35.8646 1.15691C36.7323 3.26041 39.756 3.28671 40.65 1.1832C40.9918 0.341812 41.1233 0.262932 42.0699 0.262932C43.0165 0.262932 43.1479 0.341812 43.516 1.1832C44.3574 3.26041 47.1972 3.28671 48.1963 1.23579C48.6433 0.368103 48.8011 0.262932 49.6951 0.262932C50.589 0.262932 50.7468 0.368103 51.1938 1.23579C52.1667 3.26041 55.0327 3.23412 55.8741 1.1832C56.2422 0.341812 56.3736 0.262932 57.2939 0.262932C58.2405 0.262932 58.372 0.368103 58.819 1.23579C59.1608 1.94572 59.5289 2.31384 60.1599 2.49789C60.975 2.73454 61.0013 2.78712 61.0013 4.1281C61.0013 5.17985 60.8962 5.52167 60.6069 5.52167C60.3966 5.52167 59.8444 5.86348 59.3974 6.25789C58.7664 6.83635 58.5823 7.20446 58.5823 7.96698C58.5823 9.20278 59.2397 10.2019 60.2388 10.5701C60.9487 10.8067 61.0013 10.9382 61.0013 12.0951C61.0013 13.252 60.9487 13.3835 60.1862 13.6727C59.1345 14.1197 58.5823 14.9874 58.5823 16.2232C58.5823 16.9857 58.7664 17.3538 59.3974 17.9323C59.8444 18.3267 60.3966 18.6685 60.6069 18.6685C60.8962 18.6685 61.0013 19.0103 61.0013 20.1147C61.0013 21.3505 60.9225 21.5608 60.5018 21.5608C59.8444 21.5608 58.7138 22.7177 58.556 23.6117C58.3457 24.7423 59.003 26.0044 60.0811 26.4251C60.9487 26.7933 61.0013 26.8984 61.0013 28.0816C61.0013 29.2123 60.9225 29.37 60.2388 29.633C58.4508 30.2903 57.9776 32.7093 59.3974 33.9714C59.8444 34.3921 60.3966 34.7077 60.6069 34.7077C60.8962 34.7077 61.0013 35.0232 61.0013 35.9435C61.0013 37.1267 60.9487 37.2318 60.0022 37.7314C58.9504 38.2836 58.3457 39.5194 58.5823 40.65C58.7138 41.4388 59.8707 42.5958 60.5018 42.5958C60.9225 42.5958 61.0013 42.8061 61.0013 44.0419C61.0013 45.2514 60.9225 45.4881 60.528 45.4881C59.9233 45.4881 58.7664 46.7239 58.556 47.5653C58.3194 48.5644 59.003 49.9054 60.0548 50.405C60.9487 50.8257 61.0013 50.9309 61.0013 52.0878C61.0013 53.2184 60.9487 53.3499 60.2388 53.5865C58.4508 54.2176 58.0039 56.6366 59.4237 57.925C59.8707 58.3194 60.3966 58.6349 60.6069 58.6349C60.8962 58.6349 61.0013 58.9767 61.0013 60.0811C61.0013 61.2906 60.9225 61.5272 60.528 61.5272C59.2134 61.5272 58.1616 63.4466 58.6612 64.9454C58.9504 65.7342 59.897 66.523 60.6069 66.523C60.9225 66.523 61.0013 66.8385 61.0013 67.9692C61.0013 69.0472 60.8962 69.4153 60.6332 69.4153C60.0285 69.4153 58.6349 70.73 58.6349 71.2822C58.6349 71.7029 58.4508 71.7817 57.3202 71.7817C56.1896 71.7817 56.0055 71.7029 56.0055 71.2822C56.0055 70.5196 54.5331 69.4153 53.5076 69.4153C52.4822 69.4153 51.0097 70.5196 51.0097 71.2822C51.0097 71.7029 50.8257 71.7817 49.8265 71.7817C48.8011 71.7817 48.5907 71.6766 48.3804 71.1507C48.0386 70.2304 46.8553 69.4153 45.8562 69.4153C44.857 69.4153 43.3846 70.5196 43.3846 71.2822C43.3846 71.7029 43.2005 71.7817 42.0699 71.7817C40.9393 71.7817 40.7552 71.7029 40.7552 71.2822C40.7552 70.5196 39.2828 69.4153 38.2573 69.4153C37.2318 69.4153 35.7594 70.5196 35.7594 71.2822C35.7594 71.7029 35.5753 71.7817 34.4447 71.7817C33.3141 71.7817 33.13 71.7029 33.13 71.2822C33.13 70.5196 31.6576 69.4153 30.6321 69.4153C29.6067 69.4153 28.1342 70.5196 28.1342 71.2822C28.1342 71.7029 27.9502 71.7817 26.8196 71.7817C25.6889 71.7817 25.5049 71.7029 25.5049 71.2822C25.5049 70.5196 24.0324 69.4153 23.007 69.4153C21.9815 69.4153 20.5091 70.5196 20.5091 71.2822C20.5091 71.7029 20.325 71.7817 19.1944 71.7817C18.0638 71.7817 17.8797 71.7029 17.8797 71.2822C17.8797 70.5196 16.4073 69.4153 15.3818 69.4153C14.3563 69.4153 12.8839 70.5196 12.8839 71.2822C12.8839 71.7029 12.6998 71.7817 11.5692 71.7817C10.4386 71.7817 10.2545 71.7029 10.2545 71.2822C10.2545 70.5196 8.78209 69.4153 7.75664 69.4153C6.73118 69.4153 5.25874 70.5196 5.25874 71.2822C5.25874 71.7029 5.07468 71.7817 3.94405 71.7817C2.81342 71.7817 2.62937 71.7029 2.62937 71.2822C2.62937 70.73 1.2358 69.4153 0.631048 69.4153C0.368111 69.4153 0.262937 69.0472 0.262937 67.9692C0.262937 66.7334 0.341818 66.523 0.762517 66.523C1.39356 66.523 2.55049 65.3661 2.68196 64.5773C2.9186 63.4204 2.31384 62.2108 1.2621 61.7113C0.315524 61.238 0.262937 61.1591 0.262937 59.9759C0.262937 58.8715 0.341818 58.7138 1.02545 58.4508C3.18154 57.6357 3.20783 54.349 1.02545 53.5865C0.315524 53.3499 0.262937 53.2184 0.262937 52.0615C0.262937 50.9046 0.315524 50.7731 1.07804 50.4839C2.12979 50.0369 2.68196 49.1692 2.68196 47.9334C2.68196 47.1709 2.4979 46.8027 1.86685 46.2243C1.41986 45.8299 0.867691 45.4881 0.657342 45.4881C0.368111 45.4881 0.262937 45.1462 0.262937 44.0419C0.262937 42.8061 0.341818 42.5958 0.762517 42.5958C1.39356 42.5958 2.55049 41.4388 2.68196 40.65C2.9186 39.4931 2.31384 38.2836 1.2621 37.784C0.315524 37.3107 0.262937 37.2318 0.262937 35.996C0.262937 35.0232 0.368111 34.7077 0.657342 34.7077C0.867691 34.7077 1.41986 34.3921 1.86685 33.9714C3.28671 32.7093 2.81342 30.2903 1.02545 29.633C0.341818 29.37 0.262937 29.2123 0.262937 28.1342C0.262937 27.0299 0.341818 26.9247 1.2621 26.4251C2.31384 25.873 2.9186 24.6372 2.68196 23.5065C2.55049 22.7177 1.39356 21.5608 0.762517 21.5608C0.341818 21.5608 0.262937 21.3505 0.262937 20.1147C0.262937 19.0103 0.368111 18.6685 0.657342 18.6685C0.867691 18.6685 1.41986 18.3267 1.86685 17.9323C3.28671 16.6702 2.86601 14.4089 1.07804 13.6727C0.341818 13.3835 0.262937 13.252 0.262937 12.1214C0.262937 10.9645 0.315524 10.8593 1.13063 10.4912C1.6565 10.2545 2.15608 9.75495 2.44531 9.1239C2.9186 8.17733 2.9186 8.12474 2.44531 7.15187C2.15608 6.57341 1.63021 6.02125 1.13063 5.7846C0.341818 5.41649 0.262937 5.28502 0.262937 4.1544C0.262937 2.97118 0.315524 2.866 1.18322 2.49789C1.84056 2.23495 2.23496 1.84055 2.4979 1.1832C2.86601 0.341812 2.99748 0.262932 3.94405 0.262932C4.89062 0.262932 5.02209 0.341812 5.36391 1.1832Z" fill="currentColor"/>
<path d="M25.0053 6.7907C26.6867 6.78066 29.9289 6.78476 31.7123 6.78701C31.745 6.78705 31.7777 6.78708 31.8105 6.78712C32.2337 6.78765 32.6341 6.78779 33.1032 6.78794C34.2218 6.7883 35.7331 6.78879 38.8873 6.79519C39.8051 6.79496 40.723 6.79483 41.6407 6.79483C45.9095 6.79483 50.1782 6.79638 54.4469 6.79894L54.5617 6.7988L54.5619 6.91388C54.5585 12.5562 54.5533 18.1986 54.5476 23.8409C54.5477 23.9661 54.5477 24.0935 54.5478 24.2221C54.5488 26.708 54.5501 29.7904 54.5464 31.7272C54.5418 34.1896 54.5375 35.862 54.5337 37.2356C54.5257 45.1077 54.5185 52.98 54.5155 60.8522C54.5149 62.462 54.5145 64.0719 54.5143 65.6818L54.5144 65.749L54.4469 65.7491C53.5894 65.749 52.7319 65.7489 51.8744 65.7489C49.6024 65.7489 47.3298 65.7493 45.0578 65.7499C43.7347 65.752 42.4767 65.7546 41.3102 65.757C39.6709 65.7604 38.2116 65.7634 37.0061 65.7644C34.1018 65.7668 30.8073 65.763 28.3608 65.7603C27.961 65.7598 27.5834 65.7594 27.2343 65.759C25.2912 65.7604 23.3478 65.7619 21.4047 65.7634C21.275 65.7625 21.1443 65.7617 21.0114 65.7608C19.3531 65.7496 17.3145 65.7498 14.1056 65.75C12.7083 65.7501 11.0887 65.7502 9.182 65.7494C8.03735 65.7489 7.41132 65.745 6.91406 65.7416L6.85431 65.7417L6.85424 65.6818C6.85449 65.6453 6.85474 65.6095 6.85499 65.5743C6.85605 65.4226 6.85704 65.2803 6.85784 65.1363C6.86058 64.6427 6.85761 64.1224 6.85412 63.5078C6.84958 62.7104 6.84413 61.7538 6.84905 60.49C6.86474 56.4632 6.8541 54.6888 6.84605 53.3467C6.84368 52.9529 6.84155 52.5961 6.84037 52.2307C6.83652 51.046 6.84033 49.3581 6.84556 48.0824C6.8497 47.0709 6.84559 45.0471 6.84037 43.5123C6.83839 42.932 6.83834 42.1472 6.83829 41.2229C6.83824 40.2663 6.8382 39.1596 6.83598 37.9756C6.83038 34.9835 6.82766 33.3935 6.82549 32.1152C6.82487 31.7508 6.82431 31.4113 6.82372 31.0723C6.82186 30.0007 6.82033 28.6709 6.81878 27.3246C6.81693 25.7134 6.81505 24.0782 6.81255 22.834C6.8152 19.6091 6.81848 16.384 6.82176 13.1595C6.82346 11.5032 6.83303 9.91391 6.84882 8.7427C6.86461 7.57171 6.88521 6.91398 6.90656 6.91388C6.92791 6.91388 6.94851 7.57176 6.96431 8.7427C6.98009 9.91391 6.98968 11.5032 6.99138 13.1595C6.99477 16.4962 6.99816 19.8336 7.00086 23.1706C7.00415 27.2355 7.00642 31.3008 7.00642 35.3657C7.00642 38.2094 7.00591 41.0531 7.00499 43.8968C7.0049 44.1895 7.00479 44.4823 7.00469 44.7751C7.00995 47.164 7.01473 49.5484 7.01643 51.2283C7.01784 52.6154 7.01503 53.6266 7.01264 54.4926C7.01098 55.0886 7.00952 55.6159 7.00975 56.1495C7.00988 56.436 7.0102 56.8275 7.01059 57.2995C7.01218 59.2269 7.01488 62.5004 7.00975 65.4867C7.00964 65.5512 7.00953 65.6162 7.00941 65.6818L6.91406 65.5864C8.19381 65.5888 9.65499 65.593 11.053 65.5971C13.1544 65.6032 15.1139 65.609 16.1032 65.6072C17.8403 65.6041 19.8325 65.6067 21.5929 65.609C23.272 65.6112 24.7405 65.6132 25.5758 65.6096C26.5737 65.6054 27.4248 65.6071 28.69 65.6097C29.5676 65.6114 30.6447 65.6136 32.1084 65.6145C33.7984 65.6155 34.994 65.6185 36.0102 65.621C37.4405 65.6246 38.5166 65.6272 40.1204 65.6223C41.902 65.6168 43.7641 65.6134 45.2306 65.6151C45.8985 65.6159 46.6626 65.6157 47.4576 65.6155C48.5101 65.6152 49.6171 65.6149 50.6279 65.6169C51.4608 65.6185 52.1492 65.6227 52.7584 65.6263C52.9484 65.6275 53.1308 65.6286 53.3074 65.6295C53.6873 65.6295 54.0671 65.6295 54.4469 65.6294L54.3946 65.6818C54.3945 65.3982 54.3945 65.1146 54.3944 64.831C54.3938 64.7236 54.393 64.6107 54.3923 64.4928C54.3884 63.9014 54.3837 63.1742 54.3814 62.2739C54.3777 60.849 54.38 59.5986 54.3825 58.2797C54.3844 57.2528 54.3864 56.1843 54.3857 54.9594C54.3852 54.1242 54.3835 53.1731 54.3818 52.2304C54.3793 50.8302 54.3769 49.4475 54.3784 48.4867C54.379 48.1268 54.3816 47.8173 54.3842 47.5111C54.3842 47.5097 54.3842 47.5084 54.3843 47.507C54.3844 47.4862 54.3846 47.4654 54.3848 47.4446C54.3828 45.1049 54.3806 42.765 54.3783 40.4253C54.3776 40.2225 54.377 40.0176 54.3763 39.8146C54.3731 38.8225 54.3701 37.8585 54.3657 37.2299C54.3609 36.5487 54.3582 34.8361 54.3553 33.0313C54.3534 31.8494 54.3514 30.6275 54.3488 29.6299C54.3472 29.0468 54.3499 28.4935 54.3527 27.9244C54.3553 27.3933 54.3579 26.8481 54.3573 26.2521C54.3569 25.9535 54.3558 25.6311 54.3546 25.287C54.3536 24.984 54.3525 24.6637 54.3518 24.3284C54.3512 24.0168 54.3526 23.3228 54.3545 22.433C54.3556 21.8831 54.3569 21.2583 54.358 20.6026C54.3563 18.8693 54.3547 17.1357 54.3532 15.4024C54.3509 15.0408 54.3478 14.727 54.3439 14.4786C54.3411 14.3004 54.3377 14.1487 54.3343 13.9928C54.3296 13.7808 54.3248 13.5613 54.3209 13.2589C54.3179 13.0225 54.3167 12.7437 54.318 12.5565C54.3186 12.4694 54.3197 12.4024 54.3207 12.3416C54.3218 12.272 54.3228 12.2099 54.3228 12.134C54.3228 12.0793 54.322 12.0224 54.321 11.9523C54.3194 11.8405 54.3174 11.6951 54.3173 11.4738C54.3171 10.6504 54.3177 9.71441 54.3184 8.79751C54.3188 8.14446 54.3193 7.50085 54.3194 6.91388L54.4469 7.04144C54.1175 7.04138 53.8058 7.04143 53.5204 7.04165C52.6309 7.04232 51.3635 7.03933 50.0939 7.03635C49.2082 7.03427 48.3212 7.0322 47.5603 7.03135C46.8146 7.03051 46.0381 7.03217 45.2862 7.03378C44.3836 7.03572 43.5155 7.03759 42.7777 7.03497C42.6286 7.03444 42.4433 7.03119 42.2109 7.02714C42.0461 7.02426 41.8565 7.02097 41.6407 7.01794C40.7016 7.01794 39.7624 7.01781 38.8233 7.01756C38.7902 7.018 38.7561 7.01845 38.7219 7.01891C38.7213 7.01892 38.7208 7.01893 38.7203 7.01894C37.9489 7.02926 36.8934 7.04338 35.4105 7.03495C35.0336 7.03281 34.7963 7.02886 34.5825 7.0253C34.3725 7.02181 34.1849 7.01868 33.9102 7.01802C33.5982 7.01728 33.2298 7.01942 32.8283 7.02176C32.2644 7.02503 31.6347 7.02869 31.0027 7.02529C30.9595 7.02505 30.9131 7.0248 30.8648 7.02454C30.4068 7.02212 29.7286 7.01853 29.0538 7.01131C27.0518 7.00939 25.0495 7.00713 23.0475 7.00467C19.7103 7.00056 16.3724 6.99588 13.0356 6.9912C11.4121 6.9889 9.85519 6.97907 8.70721 6.96333C7.55916 6.94757 6.91406 6.92732 6.91406 6.90638C6.91416 6.88543 7.55924 6.8652 8.70721 6.84944C9.85519 6.8337 11.4121 6.82388 13.0356 6.82157C15.6829 6.81786 18.331 6.81414 20.9786 6.81072C21.1174 6.81028 21.2567 6.80986 21.3955 6.80947C22.4276 6.80653 23.3852 6.80064 24.3435 6.79473C24.5636 6.79338 24.7841 6.79202 25.0053 6.7907Z" fill="currentColor"/>
</svg>
