<svg width="47" height="50" viewBox="0 0 47 50" fill="none" xmlns="http://www.w3.org/2000/svg">
<path d="M22.159 0.101528C21.9277 0.502456 21.9123 1.7515 22.1128 3.55567C22.2361 4.69677 22.3903 6.76309 22.452 8.16634C22.4983 9.56958 22.6216 10.8032 22.6987 10.8957C22.7912 11.0037 22.9917 11.0962 23.1459 11.0962C23.5931 11.0962 23.7936 10.4023 23.6856 9.16866C23.3618 5.28274 23.2384 4.1879 22.9609 2.55335C22.5754 0.332832 22.3749 -0.268559 22.159 0.101528Z" fill="currentColor"/>
<path d="M33.0923 1.25826C32.9535 1.4433 32.8456 1.65919 32.8456 1.73629C32.8456 1.81339 32.4601 2.78487 31.982 3.91055C30.8409 6.6091 29.4994 10.1403 29.376 10.8034C29.2989 11.2198 29.3452 11.4048 29.5302 11.559C29.9311 11.8828 30.2241 11.5899 30.6096 10.4796C30.7947 9.92446 31.5349 8.05861 32.2596 6.31611C34.3722 1.18116 34.2951 1.41246 34.0792 1.15032C33.8016 0.811072 33.3699 0.872753 33.0923 1.25826Z" fill="currentColor"/>
<path d="M11.4111 3.29342C11.4111 3.74061 11.7195 4.51162 12.3363 5.5602C12.5985 5.99197 13.0919 7.00971 13.4158 7.79614C13.7396 8.598 14.2176 9.53863 14.4643 9.90872C14.7111 10.2634 15.0966 10.911 15.3125 11.3582C16.1297 13.0699 16.654 13.6713 17.1629 13.4708C17.2863 13.4245 17.425 13.2549 17.4713 13.1007C17.5484 12.7769 17.5484 12.7769 16.2377 10.4793C15.7288 9.5849 15.0503 8.33585 14.7265 7.70362C13.5237 5.29806 12.0125 2.92333 11.7041 2.92333C11.5037 2.92333 11.4111 3.03127 11.4111 3.29342Z" fill="currentColor"/>
<path d="M18.4274 6.77862C18.3041 6.96367 18.4583 7.45712 19.3218 9.84726C19.7073 10.8958 20.1237 11.8211 20.2316 11.8827C20.5863 12.114 20.8176 12.0369 20.8176 11.6669C20.8176 11.0192 19.0597 6.94825 18.6742 6.71694C18.5971 6.65526 18.4891 6.6861 18.4274 6.77862Z" fill="currentColor"/>
<path d="M26.0915 7.74996C25.9835 7.87333 25.7522 8.64434 25.5672 9.46162C25.2588 10.8494 25.2588 10.9728 25.4901 11.2041C25.6597 11.3737 25.7985 11.42 25.9064 11.3121C26.1377 11.0807 26.8471 8.4593 26.8008 8.02753C26.7545 7.58034 26.3536 7.42614 26.0915 7.74996Z" fill="currentColor"/>
<path d="M35.8213 11.5126C35.3895 11.8364 34.7111 12.2836 34.3255 12.5149C33.8475 12.7925 33.6162 13.0392 33.6162 13.2551C33.6162 13.6714 33.9246 13.6406 34.8961 13.178C36.2222 12.5457 37.1937 11.7439 37.132 11.3584C37.0549 10.8341 36.6848 10.8803 35.8213 11.5126Z" fill="currentColor"/>
<path d="M10.0851 11.6358C9.93092 12.0213 12.0589 14.9512 12.4907 14.9512C12.5524 14.9512 12.6912 14.8432 12.8145 14.7044C13.0612 14.4115 12.9841 14.2727 11.6117 12.6073C10.6248 11.4199 10.2547 11.1886 10.0851 11.6358Z" fill="currentColor"/>
<path d="M21.8352 13.0392C21.1721 13.1626 20.2161 13.4247 19.7381 13.6252C18.3348 14.1803 16.2377 15.6607 14.7881 17.1102C12.1359 19.7625 11.5653 22.0447 12.398 26.5628C12.8452 28.8913 13.0765 29.4002 14.5414 31.2198C15.4821 32.4071 15.9292 32.7926 17.5021 33.8412C19.5222 35.1828 20.6016 35.63 22.853 36.0155C25.2431 36.4318 28.6201 36.1234 30.1467 35.337C32.4444 34.1805 35.1583 31.2352 36.1144 28.8296C36.4228 28.0894 36.4691 27.7039 36.4691 25.8998C36.4536 23.9722 36.4228 23.6792 35.8831 21.8134C34.6186 17.3415 33.1074 15.4911 29.1907 13.5944L27.6795 12.8696L25.3665 12.8388C23.8707 12.8234 22.6217 12.885 21.8352 13.0392ZM26.8776 14.1803C28.065 14.3654 30.1005 15.306 31.1953 16.1541C32.1668 16.9252 32.8761 17.9737 33.5392 19.6391C34.449 21.9676 35.1121 25.4372 34.927 27.0409C34.557 30.4333 31.4112 34.2267 28.4043 34.936C27.8954 35.0594 26.6309 35.1519 25.3356 35.1519H23.1459L21.7119 34.5351C19.7535 33.687 17.6717 32.5151 16.4073 31.5436C15.5746 30.9114 15.2045 30.4796 14.711 29.616C13.8012 28.0278 13.5237 26.6554 13.5083 23.818C13.4928 21.505 13.4928 21.505 13.9863 20.5027C15.2045 18.0817 18.7203 15.414 21.7119 14.6584C22.853 14.3654 24.5183 14.1032 25.5978 14.0416C25.8136 14.0416 26.3842 14.0878 26.8776 14.1803Z" fill="currentColor"/>
<path d="M42.9457 15.9844C41.9125 16.262 41.0335 16.3853 39.4761 16.4316C37.0088 16.5241 36.3458 16.6783 36.4229 17.1563C36.4846 17.6344 37.3481 17.7731 39.8616 17.6652C41.9588 17.5881 44.611 17.1255 45.4437 16.6783C46.2148 16.262 45.8601 15.5526 44.904 15.5835C44.5956 15.5835 43.7167 15.7685 42.9457 15.9844Z" fill="currentColor"/>
<path d="M0 16.9869C0.0154203 17.4495 0.55513 17.6962 5.08869 19.3462C6.32232 19.7934 7.78724 20.3793 8.35779 20.6415C9.86898 21.3354 10.4858 21.2583 10.4858 20.4102C10.4858 20.2714 10.162 20.0401 9.76104 19.8705C9.34469 19.7008 8.7433 19.4387 8.40405 19.2691C8.06481 19.0994 6.6153 18.606 5.1658 18.1742C0.246725 16.6785 0 16.6168 0 16.9869Z" fill="currentColor"/>
<path d="M38.2117 22.0293C36.6697 22.2452 36.9781 22.7694 38.736 22.9082C39.9388 23.0162 40.5556 22.8465 40.5556 22.4302C40.5556 21.9367 39.8154 21.8134 38.2117 22.0293Z" fill="currentColor"/>
<path d="M5.6133 24.4657C5.32032 24.7741 5.4591 24.9438 6.18385 25.1288C7.06281 25.3755 9.25249 25.7456 9.76136 25.7456C10.1006 25.7456 10.1777 25.6839 10.1777 25.3601C10.1777 24.8512 9.88472 24.7279 8.09597 24.5274C7.24785 24.4195 6.39974 24.3269 6.19927 24.2961C5.99881 24.2653 5.73666 24.3424 5.6133 24.4657Z" fill="currentColor"/>
<path d="M37.9494 29.0455C37.456 29.6469 39.0134 30.5875 42.0666 31.5436C43.0535 31.852 44.2409 32.2992 44.7035 32.5459C45.5979 33.0085 46.1067 32.9622 46.1067 32.3917C46.1067 31.7286 44.8885 31.081 41.6965 30.0786C40.6017 29.724 39.5069 29.3076 39.2447 29.138C38.705 28.7833 38.1961 28.7371 37.9494 29.0455Z" fill="currentColor"/>
<path d="M10.9334 29.2613C10.6559 29.4155 9.65355 29.9706 8.71291 30.4795C7.7877 31.0038 6.39987 31.6514 5.62886 31.929C4.00973 32.4995 1.54248 33.7023 1.54248 33.9182C1.54248 34.1649 2.49854 34.1032 3.56254 33.7794C4.10225 33.6252 5.18167 33.3476 5.93726 33.1626C6.90874 32.9467 7.88022 32.5612 9.17552 31.8981C11.9203 30.4795 12.2133 30.279 12.1516 29.801C12.1208 29.5851 11.9666 29.3075 11.7815 29.1996C11.5194 29.0145 11.396 29.03 10.9334 29.2613Z" fill="currentColor"/>
<path d="M35.1587 32.7619C35.1587 32.9932 37.0862 34.9978 37.703 35.3987C38.1348 35.6917 38.5512 35.5221 38.5512 35.0749C38.5512 34.5815 36.1302 32.5306 35.5596 32.5306C35.3129 32.5306 35.1587 32.6077 35.1587 32.7619Z" fill="currentColor"/>
<path d="M11.8583 34.0881C10.6401 34.8283 10.1004 35.3526 10.2237 35.6764C10.3779 36.0774 10.8406 35.954 12.105 35.183C13.3849 34.412 13.6779 34.1036 13.5237 33.7026C13.3695 33.3171 12.9531 33.4096 11.8583 34.0881Z" fill="currentColor"/>
<path d="M16.1146 37.0794C15.5286 37.8041 14.6497 39.0069 14.1562 39.7471C13.6782 40.4872 12.8301 41.7209 12.2749 42.5073C11.2572 43.9105 10.9796 44.7124 11.5039 44.7124C11.9665 44.7124 13.4315 43.1087 14.8347 41.0424C15.6211 39.8859 16.6235 38.5597 17.0552 38.0817C18.2118 36.8326 18.3814 36.4471 17.9496 36.0154C17.5178 35.5682 17.2094 35.7532 16.1146 37.0794Z" fill="currentColor"/>
<path d="M32.0283 36.2624C31.8741 36.6942 32.7839 38.1745 35.2357 41.5516C35.6058 42.0605 36.0684 42.8932 36.2535 43.402C37.0399 45.5454 37.5796 46.2394 38.2427 46.0235C38.7515 45.8693 38.7978 45.237 38.3506 44.5894C38.1347 44.281 37.888 43.7413 37.7801 43.402C37.6721 43.0628 37.4408 42.5076 37.2866 42.1838C37.0091 41.6287 34.218 37.789 33.2311 36.5708C32.7993 36.062 32.1671 35.9078 32.0283 36.2624Z" fill="currentColor"/>
<path d="M20.1702 38.1282C19.8618 38.5908 19.1216 40.9038 19.1216 41.4127C19.1216 41.829 19.5688 41.937 19.8618 41.5823C20.1547 41.2277 21.1416 38.4983 21.0954 38.1744C21.0337 37.7118 20.4477 37.681 20.1702 38.1282Z" fill="currentColor"/>
<path d="M28.4042 38.1126C28.1729 38.3439 28.1884 39.778 28.4197 40.6878C28.651 41.5205 29.0211 41.8134 29.3911 41.4434C29.6224 41.2275 29.6224 41.0579 29.4682 39.9322C29.1907 38.0972 28.9131 37.6037 28.4042 38.1126Z" fill="currentColor"/>
<path d="M23.9477 38.4211C23.7164 38.8066 23.6393 41.4588 23.7781 44.9438C23.8398 46.8868 23.9477 48.6139 23.994 48.7526C24.1173 49.1382 24.9192 49.1227 25.1351 48.7372C25.3356 48.3517 25.3356 46.563 25.1351 44.1728C25.0426 43.1551 24.9038 41.5205 24.8267 40.5491C24.765 39.5776 24.6416 38.6524 24.5954 38.4982C24.472 38.1897 24.1328 38.1435 23.9477 38.4211Z" fill="currentColor"/>
</svg>
