<svg width="51" height="27" viewBox="0 0 51 27" fill="none" xmlns="http://www.w3.org/2000/svg">
<path d="M20.7002 0.507935C20.5891 0.793646 20.3986 1.31745 20.2716 1.66666L20.0335 2.30157L17.3351 2.38094C14.2717 2.47618 14.0812 2.53967 13.3193 3.71426C13.0653 4.12696 12.5098 5.69838 11.9701 7.55551C11.4622 9.30153 10.9701 10.7618 10.8749 10.8253C10.7638 10.8888 9.89074 10.9523 8.9225 10.9523C7.35108 10.9523 7.09711 10.9999 6.62092 11.3174C5.73204 11.9047 5.20823 13.0952 5.09712 14.7301C5.01776 15.857 5.0495 16.1586 5.25585 16.3174C5.44633 16.4761 5.54156 16.4761 5.73204 16.2697C5.92251 16.0951 6.33521 16.0316 7.3352 16.0316C9.12884 16.0316 9.11297 15.7459 7.31933 15.6824C6.01775 15.6348 5.92251 15.619 5.8749 15.2856C5.82728 14.9364 5.85902 14.9364 7.84314 14.8888C9.28757 14.8571 9.89074 14.7777 9.93836 14.6348C9.98598 14.492 9.52567 14.4444 8.00187 14.4444H6.00188V13.9682C6.00188 13.3333 6.50981 12.3333 7.01775 12.0158C7.38282 11.7618 8.70028 11.746 21.8748 11.746H36.3191V11.3491V10.9523L30.4938 10.9206L24.6526 10.8729L24.6049 7.01583L24.5732 3.17458H28.97C33.0969 3.17458 33.3985 3.19046 34.0493 3.50792C34.4303 3.68252 34.9382 4.07934 35.1763 4.38093C35.4303 4.68251 36.4144 6.46028 37.3668 8.31741L39.0969 11.6983L40.7794 11.8095C43.0016 11.9364 45.5254 12.3967 46.7477 12.9047C47.7476 13.3174 48.8587 14.0475 48.8587 14.3015C48.8587 14.3809 47.9699 14.4444 46.8746 14.4444C45.2239 14.4444 44.8905 14.4761 44.8905 14.6824C44.8905 14.8888 45.2397 14.9205 47.0175 14.9205C48.8111 14.9205 49.1603 14.9523 49.2397 15.1745C49.4143 15.6348 49.1762 15.7142 47.573 15.7142C46.6365 15.7142 46.0016 15.7777 46.0016 15.8729C46.0016 15.9682 46.6683 16.0316 47.6842 16.0316H49.3508L49.3032 16.6983C49.2714 17.2697 49.1921 17.3967 48.9064 17.4285C48.4461 17.492 48.3508 17.857 48.4143 19.4443C48.4619 20.5872 48.4937 20.73 48.827 20.8729C49.2714 21.0634 49.2714 21.3491 48.827 21.6507C48.5572 21.8411 48.0334 21.9046 46.5254 21.9046H44.5731V22.3014V22.6983H46.6048C48.9064 22.6983 49.4937 22.4919 49.9064 21.5078C50.1762 20.8411 50.2238 15.6666 49.954 14.6983C49.4143 12.7618 46.0492 11.365 41.1445 11.0158L39.5572 10.9047L37.9223 7.66662C36.1445 4.14283 35.5572 3.31744 34.335 2.76189C33.6525 2.44443 33.2874 2.38094 31.7795 2.38094H30.0176L29.6367 1.22222L29.2557 0.0793648L25.0811 0.0317459L20.9065 0L20.7002 0.507935ZM28.843 1.38095C28.9541 1.71428 29.0811 2.07935 29.1128 2.17459C29.1922 2.33332 28.3192 2.38094 25.0653 2.38094C22.7796 2.38094 20.9224 2.36506 20.9224 2.33332C20.9224 2.30157 21.0335 1.95237 21.1764 1.53967L21.4304 0.793646H25.0335H28.6525L28.843 1.38095ZM23.8272 7.01583L23.7954 10.8729L17.8431 10.9206C14.5574 10.9364 11.8749 10.9047 11.8749 10.8571C11.8749 10.5396 13.5574 5.04759 13.8114 4.52378C13.986 4.17458 14.3193 3.73014 14.5415 3.53966C14.9701 3.17458 15.0336 3.17458 19.4145 3.17458H23.8589L23.8272 7.01583ZM49.3349 19.0951C49.3349 20.4919 49.2556 20.7459 48.9064 20.4602C48.7794 20.3491 48.7 19.9205 48.7 19.2856C48.7 18.1427 48.7953 17.7777 49.1127 17.7777C49.2873 17.7777 49.3349 18.0793 49.3349 19.0951Z" fill="#C21807"/>
<path d="M17.716 6.98392C17.224 8.1109 16.8748 9.07915 16.9541 9.12677C17.1446 9.23788 17.3033 8.96804 18.1922 6.96805C19.097 4.93632 19.097 4.92044 18.8271 4.92044C18.716 4.92044 18.224 5.84107 17.716 6.98392Z" fill="#C21807"/>
<path d="M16.8112 6.50767C16.5254 7.11084 16.3191 7.74575 16.3667 7.88861C16.3985 8.07909 16.6366 7.74575 17.0016 6.95211C17.6048 5.69815 17.6842 5.39656 17.4461 5.39656C17.3826 5.39656 17.081 5.88862 16.8112 6.50767Z" fill="#C21807"/>
<path d="M18.8909 7.20621C18.3671 8.46017 18.2877 8.73001 18.5258 8.73001C18.6528 8.73001 19.5735 6.84113 19.6846 6.36494C19.7163 6.25383 19.6528 6.12685 19.5576 6.07923C19.4623 6.04749 19.1608 6.55542 18.8909 7.20621Z" fill="#C21807"/>
<path d="M30.6212 5.26998C30.5418 5.47633 30.1608 6.36521 29.7481 7.26997C28.9862 8.9525 28.891 9.26995 29.1926 9.17472C29.3831 9.11123 31.0656 5.47633 31.0815 5.11125C31.0815 4.79379 30.764 4.9049 30.6212 5.26998Z" fill="#C21807"/>
<path d="M28.9066 6.57144C28.3669 7.79366 28.2876 8.09524 28.5257 8.09524C28.6368 8.09524 29.8114 5.71431 29.8114 5.47621C29.8114 5.42859 29.7161 5.39685 29.6209 5.39685C29.5098 5.39685 29.1764 5.93653 28.9066 6.57144Z" fill="#C21807"/>
<path d="M31.0019 7.23796C30.3987 8.55541 30.3511 8.73001 30.621 8.73001C30.7797 8.73001 31.8749 6.53955 31.8749 6.20622C31.8749 5.71416 31.5098 6.1586 31.0019 7.23796Z" fill="#C21807"/>
<path d="M10.605 14.6983C10.605 14.8253 10.6843 14.8888 10.7637 14.8412C10.8589 14.7935 10.9224 14.6824 10.9224 14.5872C10.9224 14.5078 10.8589 14.4443 10.7637 14.4443C10.6843 14.4443 10.605 14.5554 10.605 14.6983Z" fill="#C21807"/>
<path d="M43.8746 14.587C43.8111 14.6664 43.8429 14.7775 43.9222 14.8251C44.0016 14.8886 44.1127 14.8569 44.1603 14.7775C44.2238 14.6982 44.1921 14.587 44.1127 14.5394C44.0333 14.4759 43.9222 14.5077 43.8746 14.587Z" fill="#C21807"/>
<path d="M20.0495 15.3965C19.8907 15.6664 20.1288 15.8727 20.605 15.8727H21.0653L21.1129 17.0949C21.1606 18.2061 21.1923 18.333 21.478 18.333C21.7637 18.333 21.7955 18.2061 21.8431 17.1108L21.8907 15.8886L22.3987 15.841C22.7161 15.8092 22.9066 15.714 22.9066 15.5553C22.9066 15.3648 22.6209 15.3013 21.5256 15.2696C20.7002 15.2378 20.113 15.2854 20.0495 15.3965Z" fill="#C21807"/>
<path d="M25.0654 15.4603C24.6845 15.9048 23.7638 17.9841 23.8432 18.2063C23.9861 18.5397 24.3511 18.4444 24.5416 18.0158C24.7003 17.6825 24.8273 17.619 25.4464 17.619C26.0654 17.619 26.1924 17.6825 26.3511 18.0158C26.5416 18.4444 26.9225 18.5397 27.0495 18.1905C27.1765 17.873 25.8273 15.3333 25.5099 15.2698C25.367 15.2381 25.1765 15.3333 25.0654 15.4603ZM25.8114 17.0793C25.748 17.127 25.5416 17.1428 25.3353 17.1111C24.9543 17.0635 24.9543 17.0476 25.1765 16.5079L25.3987 15.9524L25.6527 16.4603C25.7956 16.746 25.8591 17.0159 25.8114 17.0793Z" fill="#C21807"/>
<path d="M28.4621 15.4128C28.3986 15.4922 28.5415 15.8572 28.7795 16.1906L29.2081 16.8255L28.7161 17.381C28.1764 18.0001 28.1288 18.1747 28.4145 18.3493C28.5097 18.4128 28.8113 18.2223 29.1288 17.8731L29.6843 17.2858L30.2081 17.889C30.6367 18.3652 30.7795 18.4604 30.9383 18.3017C31.097 18.1429 31.0494 17.9683 30.6526 17.4128L30.1605 16.7302L30.6208 16.1906C31.1446 15.5556 31.1764 15.4287 30.8272 15.2858C30.6684 15.2223 30.4303 15.381 30.1446 15.7303L29.7002 16.2699L29.2557 15.7461C28.8113 15.2064 28.6208 15.1271 28.4621 15.4128Z" fill="#C21807"/>
<path d="M32.5892 15.4442C32.5416 15.5553 32.5098 16.2696 32.5416 16.9997C32.5892 18.2061 32.621 18.333 32.9067 18.333C33.2082 18.333 33.2241 18.2219 33.2241 16.8251C33.2241 15.5235 33.1924 15.3172 32.9384 15.2696C32.7956 15.2378 32.6368 15.3172 32.5892 15.4442Z" fill="#C21807"/>
<path d="M9.33496 15.873C9.33496 15.9524 9.44607 16.0318 9.57305 16.0318C9.70004 16.0318 9.81115 15.9524 9.81115 15.873C9.81115 15.7778 9.70004 15.7143 9.57305 15.7143C9.44607 15.7143 9.33496 15.7778 9.33496 15.873Z" fill="#C21807"/>
<path d="M45.0493 15.873C45.0493 15.9524 45.1287 16.0318 45.208 16.0318C45.3033 16.0318 45.3668 15.9524 45.3668 15.873C45.3668 15.7778 45.3033 15.7143 45.208 15.7143C45.1287 15.7143 45.0493 15.7778 45.0493 15.873Z" fill="#C21807"/>
<path d="M5.20803 17.381C4.96994 17.6667 5.12867 17.9366 5.54136 17.9366C5.73184 17.9366 5.84295 17.8254 5.84295 17.635C5.84295 17.254 5.44612 17.0953 5.20803 17.381Z" fill="#C21807"/>
<path d="M13.3355 18.0952C12.272 18.6348 11.7641 19.1904 11.2244 20.3967C10.526 21.984 11.1768 24.2697 12.6371 25.3015L13.3355 25.7935L6.71648 25.8411C0.859378 25.8729 0.113351 25.9046 0.0181131 26.1269C-0.0295056 26.2697 0.0181131 26.4443 0.145096 26.5237C0.27208 26.603 11.0498 26.6665 25.0656 26.6665C46.5099 26.6665 49.7956 26.6348 49.9702 26.4284C50.3829 25.9205 49.9861 25.8729 45.7321 25.8729H41.5099L42.2718 25.2062C43.2877 24.3015 43.7797 23.238 43.7797 21.9047C43.7797 18.6666 40.5099 16.6666 37.6052 18.111C36.1131 18.8571 35.2242 20.2697 35.2084 21.9205C35.2084 23.0634 35.9226 24.5713 36.7639 25.1904C37.0972 25.4284 37.4147 25.6824 37.5099 25.7459C37.5893 25.8094 33.0497 25.8729 27.4306 25.8729H17.1926L18.0021 25.1586C19.4783 23.8888 19.9386 21.9205 19.1926 20.2221C18.4783 18.619 17.2402 17.7618 15.4466 17.6666C14.4466 17.6031 14.2402 17.6348 13.3355 18.0952ZM16.764 18.7936C18.0974 19.4761 18.7005 20.4602 18.7005 21.9364C18.6847 24.6189 16.0021 26.2062 13.6053 24.9523C11.5895 23.9046 11.1292 21.3332 12.6371 19.6507C13.7641 18.3967 15.3355 18.0793 16.764 18.7936ZM41.0972 18.8412C42.2718 19.4444 42.8591 20.3174 42.9543 21.5872C43.1131 23.7935 41.6369 25.3967 39.4623 25.3967C37.8909 25.3967 36.383 24.1427 36.0655 22.5713C35.7798 21.1269 36.6052 19.492 37.9385 18.8253C39.0496 18.2698 39.9702 18.2856 41.0972 18.8412Z" fill="#C21807"/>
<path d="M14.6526 20.4601C14.0653 20.7141 13.7002 21.2696 13.7002 21.9363C13.7002 22.4601 13.7954 22.6506 14.224 23.0315C15.3986 24.0791 17.0176 23.0791 16.7319 21.5077C16.5573 20.6188 15.5415 20.1109 14.6526 20.4601ZM16.0811 21.1109C16.7478 21.841 16.2399 23.0156 15.2557 23.0156C14.224 23.0156 13.7319 21.8887 14.4145 21.1426C14.843 20.6823 15.6843 20.6823 16.0811 21.1109Z" fill="#C21807"/>
<path d="M38.9382 20.4601C38.3509 20.7141 37.9858 21.2696 37.9858 21.9363C37.9858 22.4601 38.0811 22.6506 38.5096 23.0315C39.2874 23.7299 40.3985 23.5712 40.8588 22.6823C41.3033 21.8093 40.9541 20.7934 40.1128 20.4918C39.5255 20.2855 39.3827 20.2855 38.9382 20.4601ZM40.3033 21.0791C40.7477 21.4442 40.7795 22.2379 40.3668 22.6982C39.716 23.4125 38.3827 22.8887 38.3827 21.9045C38.3827 20.9363 39.5096 20.4601 40.3033 21.0791Z" fill="#C21807"/>
<path d="M5.39863 19.0792C5.12879 19.3491 5.16054 20.8411 5.43038 21.5078C5.8272 22.4443 6.44624 22.6983 8.43036 22.6983H10.1288V22.3014V21.9046H8.47798C6.47799 21.9046 6.1764 21.7459 6.04942 20.5872L5.95418 19.8411H6.46212C6.73196 19.8411 6.95418 19.9046 6.95418 19.9999C6.95418 20.0792 6.84307 20.1586 6.70021 20.1586C6.54148 20.1586 6.47799 20.2697 6.50974 20.5078C6.54148 20.8094 6.65259 20.8729 7.11291 20.8729C7.66846 20.8729 7.66846 20.8729 7.71608 20.111C7.74782 19.6824 7.68433 19.238 7.57322 19.111C7.351 18.8253 5.66847 18.8094 5.39863 19.0792Z" fill="#C21807"/>
<path d="M20.2876 22.3014V22.6983H27.351H34.4145V22.3014V21.9046H27.351H20.2876V22.3014Z" fill="#C21807"/>
</svg>
