<svg width="33" height="34" viewBox="0 0 33 34" fill="none" xmlns="http://www.w3.org/2000/svg">
<path d="M25.4604 0.314178C24.5782 1.26275 23.7868 2.2959 22.808 3.77616C21.1706 6.25936 19.926 8.53109 17.763 12.9598C17.2736 13.9567 16.6211 15.2496 16.313 15.8296C15.0321 18.2343 12.5973 23.2249 11.8299 25.0133L11.7151 25.2851L11.4674 24.832C10.9901 23.9559 10.4282 23.0376 9.76967 22.0528C9.02048 20.929 8.10816 19.6964 7.99337 19.6541C7.95107 19.636 7.83628 19.6662 7.72753 19.7206C7.55231 19.8112 7.52814 19.8052 7.38314 19.6964C7.3046 19.63 7.20188 19.5756 7.15959 19.5756C7.1173 19.5756 6.48895 19.9744 5.75788 20.4577C4.64014 21.2069 4.15679 21.4848 2.57987 22.2703C0.773357 23.1765 0.712938 23.2007 0.513557 23.1342C0.344385 23.0678 0.290009 23.0738 0.157088 23.1645C0.0725022 23.2188 0 23.2974 0 23.3457C0 23.388 0.320218 23.5934 0.712938 23.8049C3.15989 25.116 5.60684 26.7654 7.09917 28.0946C8.07795 28.9707 10.2772 31.2122 11.407 32.487C11.9206 33.061 12.3858 33.5443 12.4523 33.5625C12.5368 33.5927 12.6033 33.5685 12.6577 33.496C12.7241 33.3993 12.7483 33.3993 12.8329 33.4658C12.9235 33.5383 12.9598 33.5323 13.0927 33.4356C13.28 33.2966 14.3131 31.4901 15.6907 28.88C19.781 21.1706 20.5967 19.6904 21.3761 18.5485C24.832 13.4975 28.1973 9.15944 31.5868 5.37725L32.3179 4.5616L32.1668 4.42263C32.0097 4.28367 32.0218 4.19909 32.2151 4.06012C32.4145 3.91512 32.336 3.7822 31.8526 3.49823C31.5989 3.34719 30.173 2.49529 28.6927 1.61317C27.2064 0.725021 25.9437 0 25.8772 0C25.8108 0 25.6235 0.138962 25.4604 0.314178ZM29.0311 2.5557C30.3965 3.45594 31.5203 4.19909 31.5385 4.21117C31.5505 4.22325 31.2666 4.52534 30.9041 4.88786C28.0765 7.64898 25.6477 10.8089 22.7174 15.4973C22.2461 16.2526 21.5392 17.3401 21.1404 17.9141C18.4518 21.8171 15.3221 27.0614 13.1108 31.3693L12.5973 32.3662L11.3587 31.1216C8.49484 28.2396 5.87268 26.2156 2.10256 23.9861C1.90922 23.8713 1.75214 23.7626 1.75214 23.7445C1.76422 23.6599 6.13248 20.8323 6.72458 20.5302C7.09917 20.3429 7.41939 20.1858 7.44356 20.1858C7.46773 20.1798 7.67919 20.4335 7.90878 20.7477C8.86339 22.0407 9.90863 23.7324 11.262 26.1733C11.3103 26.2639 11.4372 26.3908 11.546 26.4573C11.6547 26.5237 11.7756 26.6627 11.8179 26.7594C11.8602 26.8621 11.9387 26.9467 11.981 26.9467C12.1925 26.9467 12.3435 26.6869 12.7543 25.6174C14.005 22.3428 15.7632 18.1316 16.3855 16.887C18.5908 12.5127 22.3307 6.24727 25.7927 1.12983L26.1068 0.658562L26.3304 0.797523C26.4512 0.870026 27.6717 1.66151 29.0311 2.5557ZM24.7353 1.7038C24.7051 1.7461 24.4272 2.17507 24.107 2.65841C23.382 3.75199 21.7869 6.2654 21.2371 7.1898C21.0075 7.57044 20.784 7.92691 20.7356 7.97524C20.506 8.21087 22.24 5.25037 23.1222 3.89699C23.7263 2.97259 24.693 1.6313 24.7535 1.6313C24.7655 1.6313 24.7595 1.66755 24.7353 1.7038ZM31.5566 3.91512C31.6774 3.9997 31.768 4.07825 31.756 4.09033C31.7258 4.12054 31.0551 3.69157 31.0551 3.64928C31.0551 3.61303 31.2726 3.72782 31.5566 3.91512ZM30.1247 6.21706C29.0673 7.42543 27.5025 9.32258 26.1733 11.0203C25.9679 11.2801 25.7987 11.4735 25.7987 11.4433C25.7987 11.3647 27.6596 8.92381 28.4088 8.02962C29.1761 7.10522 30.6382 5.49808 30.7107 5.49808C30.7349 5.49808 30.4751 5.8183 30.1247 6.21706ZM2.11465 22.8684C2.11465 22.8865 1.90318 23.0376 1.64942 23.2007C1.34733 23.394 1.16004 23.4786 1.12378 23.4424C1.05128 23.3699 1.03316 23.3759 1.60109 23.092C2.14486 22.814 2.11465 22.8261 2.11465 22.8684ZM13.0444 23.817C12.7906 24.4574 12.271 25.7745 12.2045 25.9497C12.1441 26.1068 12.126 26.1189 12.0777 26.0222C12.0293 25.9437 12.1079 25.7141 12.422 25.0253C12.6456 24.536 12.8873 23.9922 12.9658 23.817C13.0444 23.6478 13.1229 23.5028 13.141 23.5028C13.1531 23.5028 13.1108 23.6478 13.0444 23.817ZM17.4066 24.8743C16.1499 27.2608 14.6394 30.0945 14.3615 30.602C14.1621 30.9645 13.9204 31.4176 13.8177 31.5989C13.1833 32.765 13.0806 32.922 13.0141 32.8556C12.9537 32.7952 14.6938 29.4903 15.9021 27.3696C16.742 25.9014 17.4066 24.7716 17.4368 24.7716C17.4549 24.7716 17.4428 24.8199 17.4066 24.8743ZM10.4101 30.9161C11.6547 32.1487 12.3556 32.922 12.2831 32.9945C12.2468 33.0308 11.981 32.777 11.5339 32.2816C11.1593 31.8526 10.537 31.188 10.1563 30.7953C9.77571 30.4086 9.4857 30.0884 9.51591 30.0884C9.54612 30.0884 9.94488 30.463 10.4101 30.9161Z" fill="currentColor"/>
<path d="M26.3422 2.16901C26.3422 2.20526 26.6322 2.41672 26.9826 2.64027C28.342 3.50426 28.9402 4.00573 28.9402 4.27761C28.9402 4.56762 28.6321 4.99055 27.0068 6.89373C26.1247 7.92689 25.3997 8.809 25.3876 8.85129C25.3695 8.92379 25.6413 9.18359 25.738 9.18359C25.8286 9.18359 29.0369 5.36514 29.2 5.06909C29.2906 4.89992 29.3631 4.68242 29.3631 4.59179C29.3631 4.18698 28.2575 3.26862 26.4207 2.15088C26.3784 2.12671 26.3422 2.1388 26.3422 2.16901Z" fill="currentColor"/>
</svg>
