<svg width="11" height="11" viewBox="0 0 11 11" fill="none" xmlns="http://www.w3.org/2000/svg">
<path d="M5.01136 0.0103922C4.74612 0.0290051 4.17375 0.126726 3.90153 0.1942C2.79636 0.478054 1.73539 1.1621 1.0909 2.00901C0.662794 2.56974 0.369632 3.15606 0.181171 3.82149C-0.0235763 4.54742 -0.0561498 5.39433 0.090431 6.11792C0.211418 6.70657 0.309139 7.00672 0.51156 7.41156C0.914075 8.21426 1.39337 8.76801 2.12628 9.27988C2.36592 9.4474 2.8173 9.69868 3.05695 9.80106C3.44783 9.96625 4.01787 10.1035 4.50879 10.1524C5.37665 10.2385 6.35385 10.05 7.17517 9.64284C7.70798 9.37993 8.10584 9.09375 8.5386 8.66331C9.34131 7.86526 9.99045 6.49485 10.1533 5.24775C10.2464 4.54742 10.137 3.71214 9.86016 3.00948C9.7415 2.70469 9.4367 2.12302 9.28779 1.91129C9.03884 1.55996 8.59677 1.09462 8.30361 0.880569C8.1547 0.771215 7.70565 0.498995 7.52417 0.410581C7.37061 0.331473 6.99601 0.198853 6.76567 0.138359C6.38875 0.0406389 5.47204 -0.0268354 5.01136 0.0103922ZM6.39806 0.426867C6.89829 0.526915 7.466 0.773542 7.88481 1.07136C8.20589 1.29937 8.88993 1.98574 8.79686 1.98574C8.78523 1.98574 8.64098 1.89035 8.47578 1.77401C7.79872 1.29472 6.94948 0.824729 6.54697 0.710722C6.20262 0.613001 5.84431 0.519935 5.72099 0.496668C5.55347 0.464094 5.11606 0.429194 4.84384 0.424541C4.71122 0.422214 4.63444 0.412908 4.64142 0.398947C4.65072 0.387314 4.67399 0.380334 4.69493 0.384987C4.71587 0.391967 4.82755 0.382661 4.94156 0.366374C5.06952 0.350087 5.32779 0.343107 5.59768 0.34776C5.9746 0.357067 6.10024 0.3687 6.39806 0.426867ZM5.56976 0.799135C6.12584 0.880569 6.43761 0.989923 7.19844 1.36917C8.10119 1.81822 8.58281 2.14163 9.01325 2.59533C9.26685 2.86057 9.37388 3.04438 9.49952 3.43294C9.63214 3.84011 9.68798 4.10069 9.73684 4.54509C9.76942 4.85686 9.77174 4.94993 9.74848 5.21983C9.70194 5.72937 9.62516 6.00857 9.39482 6.49717C9.26918 6.76241 8.88993 7.34176 8.66657 7.61165C8.54558 7.75591 8.16866 8.08862 7.82664 8.35386C7.64981 8.48881 7.18913 8.73544 6.87968 8.86108C6.40271 9.05187 5.98624 9.12865 5.36501 9.14493C4.77636 9.16122 4.50647 9.1333 4.04346 9.01231C3.57114 8.88667 3.26635 8.74707 2.8522 8.46787C2.57067 8.27708 2.45666 8.18169 2.23563 7.95367C1.91687 7.62329 1.76797 7.40923 1.51203 6.9183C1.27936 6.46693 1.25377 6.39713 1.13744 5.95273C0.972242 5.31289 0.939669 4.68004 1.03506 3.98901C1.09788 3.53298 1.26773 2.96527 1.43758 2.64885C1.71213 2.14163 1.72841 2.11604 1.98667 1.85545C2.26355 1.57857 2.4683 1.42734 2.84057 1.22957C3.56882 0.847996 4.69958 0.668841 5.56976 0.799135ZM0.613934 3.69818C0.52552 4.16119 0.506907 4.36826 0.506907 4.88944C0.50458 5.75264 0.644181 6.38317 0.990856 7.09978C1.43758 8.02347 2.10766 8.67727 3.07556 9.14028C3.46877 9.32874 3.6456 9.39156 4.02717 9.473C4.58558 9.59631 5.23705 9.63586 5.79079 9.58235C6.26078 9.53814 6.87968 9.39854 7.12166 9.28221C7.18913 9.24963 7.2473 9.22869 7.25195 9.23335C7.31012 9.29151 6.73775 9.5521 6.26776 9.6824C5.60931 9.8662 5.10908 9.90808 4.45761 9.83828C3.22447 9.70334 2.24494 9.17285 1.39104 8.17471C1.23981 7.99788 0.939669 7.54418 0.827988 7.32082C0.639527 6.94855 0.418493 6.26218 0.357999 5.86199C0.311466 5.54556 0.311466 4.82196 0.357999 4.51484C0.416166 4.12396 0.623241 3.34918 0.660467 3.3864C0.667447 3.39106 0.646507 3.53298 0.613934 3.69818ZM7.40784 9.17518C7.40086 9.18681 7.38224 9.19845 7.37061 9.19845C7.35665 9.19845 7.35432 9.18681 7.3613 9.17518C7.36828 9.16122 7.3869 9.15191 7.39853 9.15191C7.41249 9.15191 7.41482 9.16122 7.40784 9.17518Z" fill="#C21807"/>
<path d="M4.91098 0.999226C4.74114 1.11789 4.75277 1.52273 4.9296 1.57857C5.05989 1.62045 5.16924 1.49714 5.19716 1.27377C5.22974 1.04343 5.0692 0.887545 4.91098 0.999226Z" fill="#C21807"/>
<path d="M7.54502 2.07639C7.46126 2.11362 7.28444 2.33233 7.23558 2.46495C7.17741 2.61851 7.17508 2.65806 7.22394 2.72554C7.30538 2.8442 7.43334 2.76509 7.65438 2.46495C7.79398 2.27416 7.81957 2.19505 7.76373 2.11827C7.72651 2.07174 7.6125 2.04847 7.54502 2.07639Z" fill="#C21807"/>
<path d="M6.26541 2.2371C5.90245 2.47675 5.26494 3.02584 5.30449 3.0654C5.31147 3.07238 5.35568 3.06772 5.40221 3.05376C5.49761 3.02817 5.66513 2.89322 6.1165 2.48605C6.58882 2.06027 6.62139 2.0021 6.26541 2.2371Z" fill="#C21807"/>
<path d="M2.29096 2.26971C2.19324 2.42327 2.22116 2.51634 2.43987 2.74203C2.58645 2.89326 2.60972 2.90722 2.67952 2.89791C2.77724 2.88395 2.8354 2.83044 2.8354 2.75366C2.8354 2.67222 2.57249 2.29763 2.48408 2.2511C2.39101 2.20456 2.33051 2.21154 2.29096 2.26971Z" fill="#C21807"/>
<path d="M5.75786 2.3139C5.65316 2.36509 5.56009 2.43256 5.33673 2.62335C5.12035 2.80715 5.08312 2.8723 5.21807 2.8374C5.30881 2.81413 5.89048 2.31157 5.86024 2.28132C5.85326 2.27434 5.80905 2.2883 5.75786 2.3139Z" fill="#C21807"/>
<path d="M6.84205 3.1306C6.71641 3.24461 5.92301 4.0636 5.46931 4.54755C5.36228 4.66156 5.26456 4.75462 5.2506 4.75462C5.21337 4.75462 5.01793 4.61037 4.73175 4.36839C4.45488 4.13805 3.81039 3.66806 3.7243 3.63549C3.68475 3.6192 3.63821 3.62851 3.54515 3.67272C3.36599 3.75415 3.33574 3.82861 3.40787 4.01009C3.4451 4.10548 3.60797 4.24741 4.12914 4.64294C4.41765 4.86398 5.01328 5.27347 5.0761 5.29674C5.11333 5.30837 5.19011 5.31303 5.2506 5.30605C5.38322 5.29209 5.49956 5.17808 5.52515 5.04081C5.53678 4.96868 5.58797 4.90353 5.78806 4.69413C5.92301 4.5522 6.21385 4.24973 6.43488 4.01939C6.94442 3.48891 7.16313 3.22134 7.16313 3.12129C7.16313 3.10035 7.14685 3.06545 7.12591 3.04684C7.06076 2.98169 6.9863 3.00263 6.84205 3.1306Z" fill="#C21807"/>
<path d="M1.65581 4.55902C1.43478 4.60556 1.36963 4.64744 1.36963 4.73818C1.36963 4.86149 1.42082 4.91268 1.56972 4.93129C1.65116 4.9406 1.72096 4.93595 1.75818 4.91966C1.79076 4.9057 1.87917 4.88708 1.95363 4.87778C2.10951 4.86149 2.18397 4.79867 2.18397 4.68234C2.18397 4.5311 1.9862 4.48457 1.65581 4.55902Z" fill="#C21807"/>
<path d="M8.66389 4.96386C8.47078 4.99411 8.42424 5.02203 8.40796 5.11277C8.38934 5.21281 8.39632 5.22445 8.53127 5.31751C8.63132 5.38732 8.65459 5.3943 8.81513 5.39197C9.0222 5.38964 9.15017 5.35707 9.24556 5.28029C9.30838 5.2291 9.31071 5.21979 9.2921 5.13836C9.2572 5.00807 9.18507 4.96619 8.96636 4.95455C8.86399 4.94757 8.72904 4.95223 8.66389 4.96386Z" fill="#C21807"/>
<path d="M2.98476 5.67592C2.61714 5.94116 2.26349 6.30413 2.42403 6.25294C2.51477 6.22502 3.07085 5.75736 3.17322 5.62474C3.26396 5.50608 3.19649 5.52469 2.98476 5.67592Z" fill="#C21807"/>
<path d="M2.99181 6.04358C2.84988 6.12036 2.65211 6.27159 2.65211 6.30649C2.64746 6.36698 2.70563 6.36 2.82894 6.28555C2.94993 6.21342 3.13606 6.02264 3.11047 5.99937C3.10349 5.99239 3.04998 6.01333 2.99181 6.04358Z" fill="#C21807"/>
<path d="M6.35817 6.1341C6.18134 6.2388 6.07897 6.38306 6.18134 6.38306C6.23718 6.38306 6.47916 6.2295 6.49777 6.18064C6.52569 6.11316 6.44193 6.08524 6.35817 6.1341Z" fill="#C21807"/>
<path d="M6.53068 6.41333C6.22356 6.69253 6.09326 6.83446 6.09326 6.89495C6.09326 6.99035 6.19331 6.93683 6.53766 6.646C6.90062 6.3412 6.95413 6.27838 6.88899 6.22487C6.81919 6.17136 6.77265 6.19695 6.53068 6.41333Z" fill="#C21807"/>
<path d="M7.34927 7.36033C7.32367 7.38592 7.30273 7.41617 7.30273 7.4278C7.30273 7.47434 7.35392 7.57904 7.43536 7.70235C7.50283 7.80472 7.54704 7.84428 7.64476 7.88616C7.79134 7.95131 7.80064 7.95363 7.84485 7.9071C7.8751 7.87685 7.8751 7.85824 7.84718 7.76517C7.80064 7.61161 7.65872 7.38825 7.58194 7.3487C7.48887 7.29984 7.40511 7.30449 7.34927 7.36033Z" fill="#C21807"/>
<path d="M2.95425 7.53722C2.87514 7.59539 2.79603 7.66519 2.77742 7.69311C2.70064 7.80246 2.76113 7.96533 2.87747 7.96533C3.01009 7.96301 3.12875 7.8839 3.21484 7.73732C3.31721 7.56049 3.33582 7.50698 3.30092 7.4651C3.28464 7.44648 3.23345 7.4302 3.18459 7.4302C3.11479 7.4302 3.0636 7.45346 2.95425 7.53722Z" fill="#C21807"/>
<path d="M5.0204 8.0723C4.96921 8.12582 4.96456 8.15374 4.95758 8.40269C4.94362 8.85872 4.97619 8.98901 5.10648 8.98901C5.21118 8.98901 5.29262 8.87966 5.33683 8.67724C5.37173 8.51902 5.37405 8.47714 5.34613 8.30962C5.32985 8.2026 5.29727 8.10022 5.27168 8.06765C5.21118 7.99087 5.09485 7.99319 5.0204 8.0723Z" fill="#C21807"/>
</svg>
