<svg width="70" height="66" viewBox="0 0 70 66" fill="none" xmlns="http://www.w3.org/2000/svg">
<path d="M58.0766 0.172562C57.6462 0.308487 57.4423 0.557686 57.4196 0.874855C57.4196 1.14671 57.3517 2.18883 57.2837 3.18564C57.2158 4.18245 57.1478 5.54174 57.1251 6.19872C57.1251 6.83306 57.0345 7.37677 56.9665 7.37677C56.8986 7.37677 56.8759 7.80721 56.9212 8.32827C56.9665 8.87199 57.0345 9.9141 57.0572 10.6617C57.1025 11.4093 57.2158 12.2249 57.329 12.4514C57.465 12.7686 57.4423 12.8366 57.2384 12.7006C57.0119 12.5647 56.9892 12.6327 57.1931 12.9725C57.465 13.4936 57.4423 14.3997 57.1478 14.3997C57.0572 14.3997 56.3549 13.8787 55.6073 13.267C54.8597 12.6327 54.0441 12.1343 53.7949 12.1343C53.5683 12.1343 53.3644 12.021 53.3644 11.9077C53.3644 11.7718 53.2285 11.6812 53.0699 11.6812C52.8887 11.6812 52.5262 11.4093 52.209 11.0922C51.9145 10.775 51.2122 10.2313 50.6459 9.9141C50.0795 9.59694 49.06 8.9626 48.3804 8.53217C47.6781 8.07907 46.9305 7.58067 46.6813 7.42208C45.5485 6.69713 43.1925 5.74563 41.4934 5.33784C40.4965 5.06599 39.4544 4.79413 39.2052 4.68085C38.435 4.34103 34.2438 4.00121 34.0852 4.27307C33.9946 4.38634 33.7681 4.43165 33.5642 4.36369C33.3603 4.27307 33.0205 4.31838 32.7939 4.43165C32.59 4.54493 31.7518 4.9074 30.9362 5.24722C30.1433 5.56439 29.2145 6.04014 28.8973 6.28934C28.5801 6.51589 27.538 7.33146 26.5865 8.07907C25.6124 8.80402 24.7968 9.4157 24.7288 9.4157C24.6835 9.4157 24.2984 9.75552 23.868 10.1407C23.4602 10.5484 22.7579 11.1828 22.3274 11.5679C21.8743 11.9304 21.1947 12.6553 20.8096 13.1537C20.4244 13.6521 19.6995 14.513 19.2011 15.0567C18.6347 15.6684 18.3402 16.1895 18.4308 16.3934C18.4988 16.5746 18.4535 16.6879 18.3402 16.5973C18.2269 16.5293 17.9777 16.7785 17.8191 17.141L17.5246 17.798L16.9582 17.3449C16.3919 16.9144 16.3466 16.9144 16.0974 17.2769C15.9388 17.5034 15.6896 18.1151 15.5083 18.6588C15.2365 19.5877 15.2591 19.633 15.8935 20.3126C16.4825 20.9243 16.5505 21.1509 16.5052 22.261C16.4598 23.6202 16.0067 24.3905 15.3271 24.2093C14.806 24.0733 13.56 25.4553 12.5179 27.3356C11.9289 28.4004 11.6797 29.1707 11.5891 30.2354C11.4305 31.7986 11.2492 32.7501 11 33.0899C10.8868 33.2712 10.6602 33.9735 10.1845 35.6499C10.1392 35.8085 10.1392 35.9444 10.1618 35.9897C10.1845 36.035 10.0485 36.3069 9.84466 36.6014C9.66342 36.9186 9.27829 37.8701 8.98377 38.7536C8.32679 40.7925 7.82838 42.0159 6.28786 45.1876C5.20043 47.453 4.99654 47.7249 4.8153 47.2945C4.5661 46.7507 3.56929 46.343 2.50451 46.343C1.59832 46.343 0.216383 47.5437 0.0351452 48.4952C-0.146093 49.3787 0.352312 50.1036 2.02876 51.395C2.9123 52.0973 3.72787 52.5051 4.49813 52.6863C5.58556 52.9128 5.74414 52.8902 7.08077 52.2332C7.85104 51.8481 8.71192 51.2364 8.96112 50.8739C9.21032 50.5114 9.61811 50.149 9.86731 50.081C10.1165 49.9904 10.3204 49.8091 10.3204 49.6732C10.3204 49.3334 12.4726 46.0258 13.2655 45.1423C13.56 44.7798 13.9452 44.2361 14.0811 43.8962C14.3076 43.3525 14.353 43.5338 14.6248 45.5727C14.9193 47.8382 14.9193 47.8608 14.285 49.424C12.9257 52.8902 12.5179 53.6151 12.0422 53.5019C11.6117 53.3886 8.12289 54.4307 7.12608 54.9518C6.89954 55.0877 6.69564 55.3369 6.69564 55.5181C6.69564 55.6994 6.60502 55.858 6.4691 55.858C6.21989 55.858 6.17458 56.6056 6.37848 57.3758C6.55971 58.0555 7.60183 58.4406 8.77988 58.2141C9.3236 58.1234 10.0259 58.0328 10.3431 58.0102C11 57.9648 11.4531 57.7383 11.4531 57.4438C11.4531 57.1946 9.27829 57.1946 8.59864 57.4438C7.85104 57.7383 7.2167 57.4664 7.03546 56.8321C6.80892 55.9259 7.10343 55.4502 8.12289 55.0877C8.93846 54.7705 11.9289 54.2268 12.0648 54.3627C12.1101 54.3854 12.0195 54.7705 11.9062 55.201C11.4531 56.7188 11.6117 57.6024 12.4953 58.5765C13.3788 59.5507 14.6475 60.0491 16.9582 60.2983C18.0457 60.4116 18.2496 60.4795 18.159 60.7967C18.091 61.0006 17.8191 61.8841 17.5699 62.7223C16.9582 64.716 16.5278 65.1464 15.1459 65.1464C14.5342 65.1464 13.5147 65.2144 12.8577 65.2823C10.9774 65.5089 5.13247 64.9652 4.31689 64.4894C2.98026 63.7192 3.45601 62.9036 5.78945 61.9294C6.4691 61.6576 7.64714 61.0912 8.39475 60.6608C9.14236 60.253 10.1845 59.7093 10.7055 59.4601C11.6344 59.0296 11.8383 58.8031 11.5438 58.5312C11.4758 58.4633 10.3431 59.007 9.00643 59.7546C7.6698 60.5022 5.97069 61.3631 5.24574 61.6576C3.63725 62.3146 3.07088 62.7677 3.07088 63.47C3.07088 64.6933 4.90592 65.5315 7.98696 65.6901C12.5179 65.9393 15.8708 65.8714 16.709 65.5315C17.5926 65.1691 18.3402 63.9457 18.612 62.4958C18.68 62.0201 18.8612 61.5216 18.9745 61.3631C19.0878 61.2045 19.1331 60.9779 19.0425 60.842C18.9519 60.7061 19.0878 60.3663 19.337 60.0944C19.5862 59.8225 20.0166 59.1202 20.2885 58.5312C20.7642 57.5118 20.8096 57.4664 22.3048 57.104C24.1851 56.6509 24.4343 56.3111 24.2531 54.476C24.1398 53.3886 24.1625 53.162 24.4343 53.2753C24.6835 53.3659 24.7741 52.8902 24.9101 50.8286C25.0233 49.424 25.0913 47.9514 25.0913 47.589C25.0913 47.2038 25.3405 46.3883 25.6803 45.7313C26.0202 45.0969 26.6092 43.9642 26.9717 43.1939C27.3568 42.4463 27.7419 41.812 27.8325 41.812C28.0138 41.812 27.8099 44.7345 27.5833 45.0743C27.4474 45.3008 27.3115 50.1263 27.2435 56.2884L27.1982 60.4569L28.0591 60.91C28.5348 61.1592 29.3504 61.4084 29.8715 61.4537L30.823 61.567L31.0948 59.5733C31.344 57.693 31.4799 53.4566 31.412 50.7153C31.3893 50.0583 31.4573 49.356 31.5932 49.1295C31.7065 48.9029 31.8651 47.7476 31.9557 46.5695C32.0237 45.3915 32.2049 44.304 32.3408 44.1908C32.4994 44.0322 32.5447 44.0548 32.4541 44.2134C32.3861 44.3493 32.59 44.8024 32.9525 45.2329C33.2923 45.6633 33.8134 46.4109 34.1079 46.9093C34.4024 47.4077 34.7875 47.9514 34.9461 48.11C35.1047 48.2686 35.2406 48.4952 35.2406 48.5858C35.2406 48.6991 35.4898 49.0162 35.7844 49.3334C36.0562 49.6506 36.532 50.2849 36.8038 50.738C37.4608 51.7801 39.9302 54.4987 40.2473 54.4987C40.338 54.4987 40.7231 54.7705 41.0856 55.1103C42.173 56.1525 43.4643 57.104 43.6682 57.036C43.7815 57.0133 44.076 57.1946 44.3479 57.4438C45.1408 58.1687 48.1992 59.0749 49.9209 59.0749C52.3223 59.0976 53.7269 58.939 54.0894 58.6218C54.4066 58.3726 54.769 57.2399 54.837 56.3111C54.8597 56.1298 54.769 55.722 54.6331 55.4502C54.4519 55.0197 54.2933 54.9291 53.7949 55.0424C53.4777 55.1103 53.0926 55.0424 52.934 54.8838C52.7528 54.7026 52.5942 54.7479 52.345 55.0877C52.0278 55.4955 52.0278 55.4955 52.0052 54.9291C52.0052 54.2042 51.4841 53.4792 51.1443 53.6831C50.9857 53.7737 50.8724 54.0229 50.8724 54.2495C50.8724 54.4534 50.7365 54.8385 50.5553 55.065C50.2834 55.4502 50.2154 55.4728 49.717 55.133C49.196 54.8158 46.7719 52.4824 46.8399 52.3918C46.8625 52.3691 46.7266 52.1199 46.568 51.8481C46.3868 51.5536 46.1149 51.4176 45.911 51.5082C45.7071 51.5762 45.6165 51.5536 45.7071 51.4403C45.7978 51.3497 45.4126 50.8059 44.8689 50.2396C44.3025 49.6732 43.8494 49.1295 43.8494 49.0389C43.8494 48.9709 43.5776 48.5858 43.2378 48.2233C41.9918 46.8414 41.2441 45.8219 41.0176 45.1649C40.8817 44.8024 40.7231 44.5759 40.6325 44.6439C40.5645 44.7118 40.4286 44.5079 40.3606 44.1681C40.27 43.8283 39.9981 43.2619 39.7489 42.8994C39.4997 42.5596 39.3638 42.2651 39.4771 42.2651C39.5677 42.2651 39.545 42.1745 39.3865 42.0839C39.0919 41.9026 38.1858 39.909 38.1858 39.4106C38.1858 39.2067 38.4576 39.0934 39.0466 39.0708C39.4997 39.0708 40.202 39.0255 40.5645 38.9575C40.9496 38.9122 44.4611 38.8216 48.3804 38.7536C52.2997 38.7083 55.8338 38.595 56.1963 38.5271C56.5814 38.4591 58.2126 38.3685 59.8664 38.3005L62.8568 38.2326L63.0607 38.8442C63.174 39.1841 63.1966 39.6145 63.0833 39.7957C62.9474 40.0676 62.9474 41.0191 63.106 41.0191C63.1286 41.0191 63.174 43.9189 63.2193 47.4757C63.2419 51.0325 63.2872 54.7705 63.3099 55.7673L63.3325 57.625L64.3747 57.7836C64.9637 57.8516 65.53 57.8289 65.6433 57.7156C65.7566 57.6024 66.0285 56.4017 66.2777 55.0424C66.6854 52.7089 66.8214 51.5536 67.0932 48.6084C67.1385 47.9288 67.2518 47.2038 67.2971 47.0226C67.3651 46.8187 67.4784 45.3461 67.5463 43.7377C67.6823 40.498 67.7729 39.5692 67.9541 39.3879C68.0221 39.2973 67.9541 39.0934 67.7955 38.9122C67.6369 38.6857 67.6143 38.6177 67.7729 38.7083C67.9541 38.7989 68.0447 38.5724 68.0447 38.006C68.0674 37.5529 68.1806 36.6241 68.3166 35.9444C68.4299 35.2874 68.5431 34.2906 68.5431 33.7469C68.5431 33.2259 68.6564 32.5009 68.7697 32.1837C68.9056 31.8439 69.0642 30.8471 69.1321 29.9636C69.2001 29.0574 69.336 27.9473 69.4493 27.4715C69.5399 27.0185 69.6306 25.9537 69.6532 25.0928C69.6759 23.7109 69.7212 21.9891 69.9704 13.0405C70.0157 11.4773 69.993 8.14703 69.9251 5.63235C69.7891 1.16936 69.7665 1.05609 69.2454 0.602997C68.9509 0.331139 68.5884 0.127251 68.4525 0.127251C67.8408 0.127251 67.1838 0.444412 67.1838 0.71627C67.1838 0.874855 67.0706 1.07875 66.912 1.16936C66.7534 1.25999 66.7308 1.23734 66.8214 1.07875C66.9346 0.897514 66.844 0.852203 66.6175 0.965477C66.323 1.05609 66.2777 1.23734 66.3909 1.69043C66.4815 2.0076 66.5722 2.86847 66.6175 3.57077C66.6628 4.81678 66.6401 4.88475 66.1644 4.88475C65.8699 4.88475 65.598 4.79413 65.5527 4.70351C65.4847 4.52227 61.8373 3.32157 60.7952 3.14033C59.821 2.9591 60.0023 3.63874 61.0217 3.93325C62.8115 4.47696 65.9378 5.38315 66.1644 5.42846C66.5722 5.47377 66.6854 5.83625 66.4815 6.53855C66.3683 6.90102 66.3683 7.33146 66.4362 7.46739C66.5269 7.60332 66.323 7.53535 65.9831 7.30881C65.3035 6.87837 65.0543 6.8104 65.2582 7.15022C65.3262 7.2635 65.2808 7.37677 65.1676 7.37677C65.0316 7.37677 64.9184 7.21819 64.9184 7.0143C64.9184 6.8104 64.7824 6.69713 64.6465 6.74244C64.4879 6.8104 64.1028 6.71978 63.8083 6.5612C63.4911 6.40262 63.174 6.312 63.0607 6.37996C62.9701 6.44793 62.8794 6.37996 62.8794 6.26669C62.8794 6.13076 62.8115 6.04014 62.7209 6.0628C62.6076 6.0628 62.1771 5.92687 61.7694 5.74563C61.3389 5.54174 60.8405 5.42846 60.6819 5.49643C60.0702 5.74563 59.7304 4.83944 59.821 3.29892C59.9343 1.39591 59.821 1.03344 59.0734 1.01079C58.5297 1.01079 58.5071 0.988129 58.9149 0.829544C59.5492 0.557686 59.8664 0.73893 60.1382 1.50919C60.3874 2.21149 60.8405 2.41538 60.8405 1.82635C60.8405 1.39591 60.2062 0.127251 59.9796 0.104591C59.889 0.104591 59.5718 0.059288 59.2547 0.0139771C58.9375 -0.0313339 58.4165 0.0366287 58.0766 0.172562ZM68.7244 0.852203C69.0189 1.23734 69.2228 3.57077 69.336 7.94314C69.404 11.0242 69.3587 11.4773 69.1095 11.0015C68.9509 10.6844 68.7697 9.8688 68.6791 9.18915C68.4072 6.76509 68.2486 5.90421 68.0674 5.67767C67.7502 5.24722 67.569 1.59981 67.8408 1.07875C68.1353 0.512383 68.3845 0.444412 68.7244 0.852203ZM59.0508 2.09821C59.0734 2.46069 59.0734 3.61608 59.0734 4.72617C59.0734 5.94952 59.1414 6.65182 59.2773 6.5612C59.4133 6.49324 59.4359 6.67447 59.3226 7.08226C59.232 7.42208 59.1641 8.48685 59.2094 9.4157C59.232 10.3445 59.232 11.6132 59.232 12.2475C59.2094 12.8592 59.2094 13.7201 59.2094 14.1052C59.2094 14.5583 59.1188 14.7849 58.9602 14.6943C58.8242 14.6036 58.7789 14.6943 58.8469 14.8755C58.9149 15.0567 59.0508 15.4419 59.1414 15.759L59.3 16.3254L58.6883 15.7364C58.0087 15.0567 58.054 15.5325 57.7595 8.80402C57.6462 5.8589 57.6688 4.81678 57.8727 4.56758C58.0313 4.38634 58.1899 3.75201 58.2579 3.14033C58.3258 2.55131 58.4165 1.91698 58.4618 1.75839C58.643 1.25999 59.0281 1.48653 59.0508 2.09821ZM39.7716 5.58705C42.7847 6.24403 44.665 6.85571 46.1149 7.67128C47.5422 8.4642 51.1443 10.7976 51.3255 11.0015C51.3935 11.0922 52.2544 11.6359 53.2512 12.2475C55.1768 13.4029 56.8986 14.7169 57.397 15.3512C57.5556 15.5778 57.8274 15.759 57.986 15.759C58.3485 15.759 59.0961 16.5519 59.5492 17.4581C59.7984 17.9112 59.9117 18.0019 59.9343 17.73C59.9343 17.5261 60.0249 17.3449 60.1382 17.3449C60.3874 17.3449 63.7856 20.947 63.7856 21.2188C63.7856 21.3321 63.6497 21.4227 63.5138 21.4454C63.3552 21.4454 63.0154 21.4907 62.7662 21.536C62.517 21.5587 61.724 21.6719 60.9764 21.7625C60.2515 21.8305 59.4359 21.9891 59.1641 22.1024C58.8922 22.193 57.8048 22.2836 56.7627 22.3063C55.6979 22.3289 54.5425 22.3742 54.1574 22.4422C53.7949 22.5102 53.0699 22.6008 52.5489 22.6461C52.0505 22.714 51.031 22.85 50.2834 22.9859C49.5584 23.1218 46.9531 23.2804 44.5291 23.3484C42.105 23.4163 39.8622 23.507 39.545 23.5749C39.2279 23.6202 38.4803 23.7335 37.8459 23.8241C36.2828 24.028 35.807 24.096 35.807 24.1413C35.807 24.164 35.5125 24.2319 35.15 24.2772C34.7875 24.3452 34.2212 24.5264 33.8814 24.7077C33.2923 25.0022 33.2697 25.0022 32.8619 24.1866C32.6353 23.7335 32.4314 23.1898 32.3861 23.0086C32.1596 21.6266 31.0269 18.9307 30.687 18.9307C30.5964 18.9307 30.755 19.565 31.0495 20.3353C31.5026 21.604 32.3635 24.1186 32.6353 25.0475C32.8845 25.8857 33.904 28.8308 34.1079 29.2386C34.2212 29.4878 34.5157 30.1448 34.7422 30.7112C34.9914 31.2775 35.3992 32.229 35.6711 32.8407C36.2828 34.2453 36.2601 34.5172 35.6484 34.4492C35.3539 34.4266 34.1532 34.3133 32.9752 34.2227C30.8683 34.0641 29.6902 33.8828 28.784 33.543C28.4216 33.4071 28.4442 33.4524 28.8747 33.7696C29.5996 34.3133 31.6385 34.789 33.315 34.789C35.8523 34.789 36.3507 34.9703 36.7585 35.9444C36.9397 36.4428 37.1663 36.828 37.2569 36.828C37.3249 36.828 37.4155 37.1904 37.4381 37.6209C37.4835 38.2099 37.4155 38.4138 37.1663 38.4138C36.9624 38.4138 36.8265 38.5497 36.8718 38.6857C36.8944 38.8442 36.1695 39.6825 35.2633 40.566C34.3571 41.4269 33.4509 42.4463 33.2697 42.7862L32.9525 43.4431L32.2049 42.1971C31.7971 41.5402 31.3893 40.8379 31.3214 40.6566C30.687 39.2973 26.881 33.4524 26.3373 32.9993C26.1334 32.8407 25.9522 32.5462 25.9522 32.3876C25.9522 32.2064 25.8842 32.0705 25.771 32.0705C25.4085 32.0705 21.8743 25.8631 21.8743 25.2061C21.8743 25.0928 21.6931 24.7303 21.4665 24.4132C21.24 24.0733 20.651 22.8726 20.1752 21.7172C19.6315 20.4259 19.2011 19.701 19.0198 19.7689C18.748 19.8822 18.8612 20.2447 19.8354 22.1477C20.062 22.6234 20.1752 23.0086 20.1073 23.0086C19.8127 23.0086 15.8708 19.7916 15.8935 19.5877C15.9614 18.9534 16.0067 18.7948 16.2106 18.4776C16.3919 18.1831 16.4598 18.2057 16.7544 18.5909C17.0489 18.9534 17.1395 18.976 17.3207 18.7268C17.4793 18.4776 17.6152 18.5003 18.0457 18.908C18.7253 19.5197 18.8386 19.3611 18.3402 18.5003C17.9551 17.8433 17.9551 17.8206 18.612 17.0504C18.9745 16.6199 19.8354 15.5778 20.515 14.7396C21.829 13.1084 26.4959 9.12119 29.441 7.0596C30.4831 6.33465 32.8166 5.22457 33.6548 5.04333C34.5837 4.83944 37.4835 5.1113 39.7716 5.58705ZM61.7467 6.51589C62.1771 6.65182 63.0833 6.96899 63.763 7.19553C64.4426 7.42208 65.1223 7.58067 65.3035 7.5127C65.4621 7.44474 65.598 7.49005 65.598 7.60332C65.598 7.73925 65.7566 7.82987 65.9378 7.82987C66.1191 7.82987 66.2777 7.9658 66.3003 8.10172C66.3909 9.37039 66.3003 14.6263 66.187 14.8075C66.0738 14.9888 65.6886 14.9435 64.8731 14.6263C64.2387 14.3771 63.6044 14.2638 63.4911 14.3318C63.3552 14.3997 63.3325 14.3544 63.4005 14.2412C63.5591 13.9693 63.0833 13.7201 62.4263 13.7201C61.792 13.7201 59.9343 12.5874 59.9117 12.1796C59.889 11.953 59.8664 11.6359 59.8437 11.4546C59.821 11.2734 59.7304 10.9789 59.6172 10.8203C59.5039 10.6391 59.5265 10.4125 59.6851 10.2539C60.0023 9.93676 60.0023 9.03057 59.7078 8.84933C59.5945 8.78137 59.4812 8.60013 59.4812 8.48685C59.4812 8.35093 59.5945 8.32827 59.7078 8.39624C59.8437 8.48685 59.9343 8.05642 59.9343 7.2635C59.9343 5.83625 59.7531 5.92687 61.7467 6.51589ZM67.7276 8.50951C67.7955 9.18915 67.9541 10.2086 68.0674 10.775C68.747 14.0146 68.8376 15.2153 68.7923 20.7431C68.7017 28.423 68.6791 29.1027 68.5205 28.9894C68.3845 28.9215 67.8635 32.9993 67.7502 35.0156C67.7049 35.5819 67.6596 36.035 67.6369 36.035C67.6143 36.035 67.5463 36.3296 67.501 36.7147C67.4557 37.0772 67.3651 37.6435 67.2971 37.9154C67.2065 38.3232 67.2518 38.4138 67.4557 38.2779C67.6823 38.1419 67.6823 38.1646 67.501 38.4364C67.1838 38.8216 66.912 41.2003 66.844 43.7377C66.7987 46.275 66.3456 50.7153 65.8019 53.9323C65.2355 57.3079 65.2129 57.4438 64.7371 57.4438C63.6724 57.4211 63.6724 57.5118 63.6044 48.6764C63.5817 44.1001 63.5591 39.7504 63.5591 39.0481C63.5817 37.9834 63.4911 37.7115 63.1286 37.5303C62.6982 37.2811 58.0766 37.3717 57.6688 37.6209C57.3517 37.8248 53.659 38.006 49.1733 38.0513C46.8172 38.074 43.3284 38.1419 41.448 38.2099C38.2537 38.3005 38.0272 38.3005 38.1404 37.9154C38.1858 37.6888 38.1178 37.5076 37.9592 37.5076C37.8006 37.5076 37.7327 37.3717 37.8006 37.1904C37.8686 37.0319 37.778 36.692 37.6194 36.4428C37.4608 36.2163 37.2796 35.8085 37.2343 35.5819C37.1663 35.1515 37.3475 35.1289 40.1794 35.0156C41.8105 34.9476 43.1698 34.9703 43.1698 35.0382C43.1698 35.1062 43.5549 35.1289 44.0307 35.1062C44.4838 35.0609 46.3188 35.0382 48.0632 35.0382C50.7365 35.0382 51.3029 34.9703 51.3935 34.6758C51.5068 34.4492 51.3935 34.3359 51.099 34.3359C50.8498 34.3359 50.6459 34.4719 50.6232 34.6078C50.6232 34.8117 50.5779 34.8117 50.5099 34.6531C50.442 34.4719 48.4937 34.4266 43.6682 34.4945L36.9397 34.6078L36.1468 32.7048C35.7164 31.6627 35.3539 30.6432 35.3086 30.4393C35.2406 29.9636 34.4477 28.6496 34.3118 28.7629C34.2665 28.8082 34.1985 28.5816 34.1759 28.2418C34.1532 27.902 33.972 27.1317 33.7681 26.5427C33.5642 25.9537 33.4283 25.41 33.4962 25.3647C33.5415 25.3193 33.8814 25.2514 34.2438 25.2287C34.6063 25.2061 35.0141 25.1155 35.1274 25.0475C36.0109 24.4358 40.338 24.028 47.5875 23.8241C49.2186 23.7788 50.7818 23.6882 51.099 23.6202C52.6621 23.2578 55.2448 22.9859 55.426 23.1671C55.5846 23.3257 55.8112 25.6592 55.8565 27.4036C55.8565 27.97 55.9018 28.0153 56.2189 27.7434C56.4681 27.5395 56.5588 27.1091 56.5135 26.0896C56.4908 25.3193 56.5588 24.6624 56.672 24.617C56.9665 24.5038 58.3032 26.5427 58.575 27.5395C58.711 28.0153 58.9602 28.5363 59.1641 28.6949C59.957 29.3519 59.0961 26.9052 57.9634 25.274C57.6462 24.8209 57.7595 24.8662 58.4844 25.5006C58.9828 25.931 59.7531 26.7919 60.1835 27.3809C61.3842 29.08 62.0186 29.8276 62.1318 29.7144C62.4037 29.4425 61.0671 27.5395 59.4586 25.8404C58.4844 24.8209 57.6688 23.9374 57.6688 23.8921C57.6688 23.8468 59.0281 23.7788 60.6819 23.7335C62.3131 23.7109 63.8762 23.6429 64.1255 23.6202C64.5106 23.5749 64.6012 23.7788 64.7598 24.9342C64.8504 25.6818 64.8731 26.9505 64.7824 27.7661C64.6918 28.5816 64.6012 29.6691 64.5785 30.2128C64.5332 30.7565 64.4426 31.2549 64.3747 31.3229C64.3067 31.4135 64.2387 31.6174 64.2387 31.7986C64.2387 31.9798 63.9895 32.4103 63.6724 32.7954C63.3552 33.1579 63.106 33.3844 63.106 33.2938C63.106 33.2032 62.9247 33.2938 62.7209 33.4751C61.86 34.2 61.1803 34.3359 58.4618 34.3133C56.2643 34.268 55.6526 34.2906 53.2738 34.3812C52.1864 34.4266 51.6653 34.5398 51.5974 34.7664C51.5068 35.0382 51.8919 35.0609 53.8628 34.9476C55.1542 34.8797 56.4002 34.7437 56.6041 34.6531C56.8306 34.5851 56.9892 34.6304 56.9892 34.7664C56.9892 35.0156 58.1673 34.925 58.6203 34.6531C58.711 34.5851 58.8016 34.6304 58.8016 34.7437C58.8016 34.8797 59.0508 34.9476 59.368 34.925C59.6851 34.925 59.9343 34.8343 59.9343 34.7664C59.9343 34.6984 60.1835 34.6758 60.5007 34.7437C61.3616 34.9023 63.106 34.3586 62.9474 33.9735C62.8568 33.7469 62.9474 33.7016 63.1966 33.7922C63.4005 33.8602 63.5591 33.8375 63.5591 33.7243C63.5591 33.5883 63.8083 33.3844 64.1028 33.2485C64.4426 33.0899 64.7145 32.7275 64.8051 32.2517C64.8957 31.8439 65.077 31.3682 65.1902 31.2096C65.3488 31.0283 65.3488 30.9377 65.1449 30.9377C64.9184 30.9377 64.9184 30.8698 65.1223 30.6206C65.2582 30.4393 65.3715 30.2128 65.3488 30.1222C65.3262 30.0089 65.3715 29.7597 65.4394 29.5784C65.6886 28.9668 65.7113 27.0864 65.4847 26.9958C65.3488 26.9505 65.3488 26.8146 65.5074 26.656C65.7793 26.3615 65.53 23.9827 65.1223 22.9632C64.9863 22.6234 64.941 22.261 65.009 22.125C65.1676 21.8985 63.2872 19.7916 61.0217 17.6167C59.7304 16.3934 59.4586 15.9856 59.957 15.9856C60.0702 15.9856 60.1382 16.0762 60.0702 16.1895C59.9343 16.3934 62.0865 17.4128 62.6529 17.4128C62.8341 17.4128 63.1286 17.5034 63.2872 17.6394C63.4232 17.7527 63.5591 17.798 63.5591 17.7073C63.5591 17.6167 63.8536 17.7073 64.2387 17.9112C64.6012 18.0925 64.9637 18.2511 65.0316 18.2511C65.7339 18.2284 65.7339 18.2737 65.666 20.222C65.598 21.5813 65.6433 22.1024 65.8019 21.8758C66.0058 21.5587 66.6401 17.73 66.8667 15.4192C66.9573 14.4451 67.2065 8.57747 67.2065 7.5127C67.1838 6.42527 67.569 7.15022 67.7276 8.50951ZM61.4975 14.0826C62.1318 14.3997 62.7662 14.581 62.8794 14.513C63.0154 14.4451 63.106 14.4677 63.106 14.6036C63.106 14.7849 64.0801 15.102 64.9184 15.1927C64.9863 15.1927 65.2582 15.3512 65.5527 15.5551C65.9831 15.8723 66.0738 16.0989 66.0058 16.8012C65.9605 17.5261 65.8699 17.6847 65.4847 17.6167C64.7371 17.5261 64.5332 17.4581 64.2161 17.1863C64.0348 17.073 63.627 16.8918 63.2646 16.8012C62.1771 16.5519 60.1609 15.4872 60.1609 15.1927C60.1609 15.0114 60.0023 14.7169 59.7984 14.513C59.5039 14.2412 59.4812 14.0826 59.7078 13.8334C60.0702 13.3803 60.1609 13.4029 61.4975 14.0826ZM18.9292 22.6234C20.3791 23.7562 21.4439 25.4326 20.9455 25.7498C20.4697 26.0443 20.3338 25.999 20.1752 25.5232C20.0393 25.0928 18.9972 24.5944 18.2269 24.5944C18.0004 24.5944 17.7738 24.5264 17.7285 24.4132C17.502 24.0733 17.2981 21.6493 17.4793 21.6493C17.5926 21.6719 18.2496 22.1024 18.9292 22.6234ZM64.284 22.3289C64.284 22.4422 64.3067 22.6687 64.3293 22.8047C64.352 22.9632 63.5591 23.0765 62.1545 23.1218C60.9311 23.1671 59.9343 23.0992 59.9343 23.0086C59.9343 22.8953 60.6819 22.714 61.5881 22.5555C62.4717 22.4195 63.3325 22.261 63.4458 22.2156C63.8989 22.0571 64.2387 22.1024 64.284 22.3289ZM58.8016 23.0992C58.8016 23.1445 58.5977 23.2351 58.3485 23.3031C58.0993 23.371 57.8954 23.3257 57.8954 23.2125C57.8954 23.0992 58.0993 23.0086 58.3485 23.0086C58.5977 23.0086 58.8016 23.0539 58.8016 23.0992ZM17.0036 27.313C17.0715 27.4262 17.0262 27.5395 16.9129 27.5395C16.777 27.5395 16.6637 27.4262 16.6637 27.313C16.6637 27.177 16.709 27.0864 16.7544 27.0864C16.8223 27.0864 16.9356 27.177 17.0036 27.313ZM22.1009 27.5395C22.1009 27.7661 22.2595 28.0606 22.4634 28.1738C22.8032 28.3551 22.7805 28.4684 22.2368 29.1933C21.7384 29.8503 21.5572 29.9636 21.308 29.737C21.0588 29.5105 21.0588 29.4425 21.3306 29.3972C21.6025 29.3292 21.7611 28.559 21.7157 27.3583C21.6931 27.2223 21.7837 27.0864 21.897 27.0864C22.0103 27.0864 22.1009 27.2903 22.1009 27.5395ZM15.3045 27.9926C15.3045 28.1059 15.2138 28.2192 15.0779 28.2192C14.9646 28.2192 14.8514 28.1059 14.8514 27.9926C14.8514 27.8567 14.9646 27.7661 15.0779 27.7661C15.2138 27.7661 15.3045 27.8567 15.3045 27.9926ZM17.3434 27.9473C17.3434 28.0606 17.1848 28.3324 16.9809 28.5816C16.6637 28.9668 16.6411 28.9668 16.7544 28.6043C16.8223 28.3777 16.8903 28.0832 16.8903 27.97C16.8903 27.8567 17.0036 27.7661 17.1168 27.7661C17.2528 27.7661 17.3434 27.8567 17.3434 27.9473ZM23.4602 29.8503C23.4602 29.9862 23.8226 30.5752 24.2531 31.1643C24.6835 31.7533 25.046 32.3197 25.046 32.4103C25.046 32.5009 25.2952 32.7954 25.5897 33.0673C25.8842 33.3165 26.5865 34.2453 27.1529 35.1289C27.7419 35.9897 28.3536 36.9186 28.5122 37.1678C29.3731 38.4138 31.4573 42.3557 31.6159 43.0354C31.7292 43.5338 31.6838 44.0548 31.4573 44.5306C31.2987 44.9384 31.2081 45.3235 31.2761 45.3915C31.344 45.4594 31.3893 45.3688 31.3893 45.2102C31.3893 45.0516 31.4573 44.961 31.5253 45.029C31.5932 45.1196 31.5479 45.3688 31.4346 45.5954C31.2987 45.8219 31.1401 46.7281 31.0722 47.589C31.0042 48.4725 30.8456 49.6052 30.755 50.1263C30.6191 50.7153 30.6191 51.1005 30.755 51.1005C30.8683 51.1005 30.8909 51.2137 30.8003 51.3497C30.7097 51.4856 30.5738 53.6378 30.4605 56.1298C30.3699 58.6218 30.2339 60.7287 30.1433 60.7967C30.0754 60.8647 29.5543 60.774 28.9426 60.5928L27.8778 60.253L27.9005 54.0229C27.9458 48.11 28.1497 44.1681 28.7387 39.0255C28.852 38.074 28.6255 38.3005 27.8099 39.9543C26.8357 41.9253 26.0202 43.5791 24.978 45.55C24.5249 46.4109 23.5281 48.4045 22.7805 49.9677C22.0103 51.5309 21.2853 52.8222 21.172 52.8675C21.0588 52.9128 20.9681 53.1167 20.9681 53.298C20.9681 53.4792 20.8096 54.1135 20.6283 54.7026C20.4471 55.2689 20.0166 56.5829 19.6995 57.625C19.2237 59.1202 18.9972 59.5507 18.5667 59.7093C17.8191 60.0038 15.1232 59.6413 14.1037 59.1202C13.1522 58.6218 12.1554 57.3758 12.2687 56.8095C12.7445 54.3854 12.8577 54.1135 13.56 53.7058C14.1264 53.3659 14.1944 53.2527 13.8999 53.1847C13.4468 53.0941 13.3788 52.8902 13.6733 52.573C13.7866 52.4371 14.1037 51.7574 14.3983 51.0325C14.6928 50.3075 15.0779 49.5373 15.2818 49.3334C15.6896 48.9483 15.8029 48.5858 17.1168 43.6244C17.6379 41.6987 18.2043 39.7731 18.3855 39.3653C18.5441 38.9575 18.7027 38.4591 18.7027 38.2326C18.7027 38.0287 18.8386 37.5982 18.9972 37.2811C19.1558 36.9639 19.4729 36.1483 19.6995 35.4687C19.926 34.789 20.4018 33.7469 20.7642 33.1352C21.1267 32.5462 21.4212 32.0025 21.4212 31.9345C21.4212 31.8666 21.7837 31.2549 22.2368 30.5752C22.9618 29.4878 23.4602 29.1933 23.4602 29.8503ZM18.1363 29.805C18.2949 30.0542 17.5699 31.3908 17.2754 31.3908C17.1848 31.3908 17.1621 31.2775 17.2528 31.119C17.366 30.9604 17.4113 30.5526 17.3887 30.2128C17.3434 29.5784 17.8418 29.3066 18.1363 29.805ZM18.2949 32.3423C18.159 32.4782 18.1363 32.3423 18.2043 31.9119C18.3175 31.4361 18.3628 31.3908 18.4308 31.708C18.4761 31.9345 18.4308 32.2064 18.2949 32.3423ZM13.039 38.1193C13.8319 38.4818 13.9452 38.6177 13.9452 39.32C13.9452 39.7504 14.0131 40.634 14.0811 41.2456C14.217 42.3557 14.1944 42.4463 13.3561 43.3299C12.8577 43.8283 12.2234 44.7345 11.9062 45.3461C11.5891 45.9578 11.2266 46.5469 11.0907 46.6828C10.9547 46.7961 10.5243 47.3851 10.1165 47.9741C9.73138 48.5405 9.05174 49.4014 8.6213 49.8771C8.19086 50.3302 7.82838 50.7833 7.82838 50.8739C7.82838 50.9645 7.30732 51.3044 6.67299 51.6668C5.0645 52.5277 4.02238 52.3918 2.30062 51.1005C1.05461 50.149 0.420276 49.3787 0.669478 49.1295C0.737443 49.0615 1.14523 49.3107 1.59832 49.7185C2.05142 50.1036 2.57248 50.4208 2.79903 50.4208C3.4107 50.4208 5.20043 49.0615 5.58556 48.2913C5.78945 47.9061 6.40113 46.7734 6.94485 45.7766C7.919 43.9416 8.64395 42.1518 9.84466 38.6403C10.2071 37.5756 10.6149 36.3975 10.7735 36.035L11.0454 35.3554L11.5891 36.5334C12.0195 37.4396 12.3593 37.8021 13.039 38.1193ZM18.5441 36.5108C18.4535 36.76 18.3175 36.76 17.9551 36.5561C17.6832 36.4202 17.434 36.2842 17.4113 36.2616C17.366 36.2389 17.6379 36.2163 18.0004 36.2163C18.4535 36.2163 18.6347 36.3069 18.5441 36.5108ZM18.023 37.8927C18.023 38.006 17.7738 38.9349 17.4793 39.9996C17.1848 41.0644 16.709 42.7862 16.4145 43.8509C16.1427 44.9157 15.8255 45.8672 15.7575 45.9578C15.5537 46.1844 15.1459 43.6244 14.942 40.9511C14.7607 38.5271 14.8287 38.4138 16.3919 38.4138C17.0489 38.4138 17.4113 38.3005 17.4793 38.074C17.6152 37.7342 18.023 37.5982 18.023 37.8927ZM37.7553 40.6793C38.0498 41.2909 38.367 41.812 38.4803 41.812C38.5709 41.812 38.6389 41.9253 38.6389 42.0386C38.6389 42.1745 39.0919 43.0354 39.6583 43.9642C40.2247 44.8931 40.7457 45.8219 40.8364 46.0484C41.0176 46.5242 42.9206 48.9029 43.1925 49.0162C43.3057 49.0615 43.3964 49.2428 43.3964 49.424C43.3964 49.6052 43.487 49.7412 43.5776 49.7412C43.6909 49.7412 43.8721 49.9451 43.9854 50.1943C44.2119 50.6927 46.2282 53.0261 47.6328 54.4081C48.1538 54.9291 48.539 55.4049 48.471 55.4502C48.3124 55.6314 50.3287 56.3337 51.3482 56.4696C52.0958 56.5829 52.2317 56.6735 52.2317 57.1266C52.2317 57.5797 52.1184 57.6703 51.5521 57.6703C51.1896 57.6703 50.8724 57.761 50.8724 57.8969C50.8724 58.0102 51.031 58.1234 51.2122 58.1234C51.3935 58.1234 51.5521 58.2141 51.5521 58.3273C51.5521 58.6445 48.7882 58.35 47.3609 57.8742C46.6133 57.625 45.5486 57.1493 44.9822 56.8095C43.4643 55.9259 39.9755 53.298 39.1826 52.4371C37.6874 50.7833 34.8782 46.8867 33.7454 44.9157L33.247 44.0095L33.7001 43.126C34.1079 42.3557 36.7359 39.5465 37.053 39.5465C37.1436 39.5465 37.4381 40.0449 37.7553 40.6793ZM3.84114 48.2006C3.95442 48.5405 3.99973 48.9029 3.90911 48.9709C3.65991 49.2201 2.84434 48.3592 2.84434 47.8835C2.84434 47.2265 3.59194 47.4757 3.84114 48.2006ZM2.73106 49.6959C2.52717 49.8998 1.75691 49.4467 1.64363 49.0615C1.46239 48.3819 1.7116 48.3592 2.27797 49.0162C2.57248 49.356 2.77637 49.6732 2.73106 49.6959ZM24.0492 50.081C23.9586 50.5114 23.8453 51.259 23.7773 51.7121C23.6641 52.7316 23.6414 52.7316 22.8032 52.7996L22.1235 52.8675L23.0297 51.0778C23.5281 50.081 24.0039 49.2881 24.0718 49.2881C24.1398 49.2881 24.1172 49.6506 24.0492 50.081ZM23.4602 54.7026C23.4602 55.6994 23.2563 56.1072 22.7805 56.2204C22.7126 56.2204 22.3727 56.3564 22.0329 56.4923C21.1267 56.8774 20.9681 56.8321 20.9681 56.2204C20.9681 54.9065 21.9876 53.6151 23.075 53.5925C23.3922 53.5925 23.4602 53.7964 23.4602 54.7026ZM51.3255 55.4049C51.3255 55.5181 51.2122 55.6314 51.0763 55.6314C50.963 55.6314 50.9177 55.5181 50.9857 55.4049C51.0537 55.2689 51.1669 55.1783 51.2349 55.1783C51.2802 55.1783 51.3255 55.2689 51.3255 55.4049ZM52.3223 58.3953C52.2544 58.4859 52.1184 58.5765 51.9825 58.5765C51.8692 58.5765 51.7786 58.4859 51.7786 58.3953C51.7786 58.282 51.9372 58.1914 52.1184 58.1914C52.2997 58.1914 52.3903 58.282 52.3223 58.3953Z" fill="#C21807"/>
<path d="M20.0611 18.5458C20.2877 19.1801 20.6048 20.3355 20.7861 21.0831L21.0806 22.4424L21.1485 20.9245C21.1938 19.9504 21.1032 19.1348 20.8767 18.5911C20.5369 17.8208 20.5595 17.7528 20.8767 17.8888C21.1712 18.002 21.1938 17.9567 21.0126 17.7302C20.8767 17.5716 20.5142 17.4357 20.2197 17.3904L19.6533 17.3451L20.0611 18.5458Z" fill="#C21807"/>
<path d="M35.7388 18.2964C35.5803 18.4549 35.467 18.6815 35.467 18.8174C35.467 18.9533 35.1951 19.4517 34.8553 19.9502C33.8358 21.468 32.9523 23.3031 33.1789 23.5296C33.2921 23.6429 33.6773 23.1898 34.1077 22.4422C34.5155 21.7399 35.1725 20.6524 35.6029 20.0181C36.0334 19.4064 36.3732 18.7494 36.3732 18.5909C36.3732 18.1378 36.0334 18.0018 35.7388 18.2964Z" fill="#C21807"/>
</svg>
