<svg width="116" height="44" viewBox="0 0 116 44" fill="none" xmlns="http://www.w3.org/2000/svg">
<path d="M76.4302 0.879742C75.9152 1.3518 75.4217 1.69511 75.3144 1.63074C75.2071 1.56637 74.499 2.31737 73.7265 3.28295C72.9541 4.26998 71.9027 5.62178 71.3663 6.28695C70.4651 7.40272 70.1217 8.17518 70.5509 8.17518C70.6367 8.17518 70.7011 8.92618 70.7225 9.82739C70.7225 10.75 70.8513 12.3164 71.0015 13.3249C71.1302 14.3334 71.2804 16.2645 71.3019 17.6163L71.3448 20.0625L72.3104 20.2556C73.1901 20.4058 94.0036 20.2556 95.2696 20.0839C95.57 20.041 96.0635 19.9981 96.3853 19.9981C96.793 19.9766 97.1149 19.7621 97.4796 19.2471C97.9517 18.5175 97.9732 18.3888 97.9302 14.3334C97.8873 10.278 97.9088 10.1492 98.3379 10.0205C98.6812 9.93467 98.7242 9.84884 98.5096 9.61281C98.3165 9.35533 98.3379 9.2695 98.574 9.18367C98.8529 9.07638 98.8529 8.9691 98.5525 8.34684C98.3594 7.96061 98.0375 7.44564 97.8444 7.20961C97.3724 6.65172 95.9133 3.86229 95.3125 2.38174C94.8404 1.2016 94.819 1.18014 94.068 1.26597C93.6603 1.30889 92.8878 1.24451 92.3514 1.09431C91.8149 0.944113 90.6348 0.793913 89.7336 0.772457C87.7595 0.708084 80.7216 0.300398 78.7475 0.12874L77.3528 -1.90735e-06L76.4302 0.879742ZM79.9706 4.61329C80.3354 5.21409 81.0434 6.41569 81.537 7.25252C82.0519 8.2181 82.5454 8.8189 82.76 8.8189C82.9531 8.8189 83.2964 8.99055 83.5325 9.18367C83.8758 9.50553 84.4766 9.5699 87.8239 9.59136C89.9696 9.61281 92.4158 9.74156 93.2311 9.89176C94.068 10.0205 95.2266 10.1922 95.806 10.2565C96.4068 10.3209 96.9432 10.4711 97.029 10.6213C97.2865 11.0075 97.2436 18.8609 96.9861 19.0111C96.5784 19.2685 79.3698 19.5904 78.9836 19.3329C78.8763 19.2685 78.8763 18.6463 78.9621 17.9382C79.241 15.8783 79.1123 12.0589 78.7904 11.8444C78.6188 11.7371 77.9965 11.6727 77.3957 11.6942L76.28 11.7156L76.1512 15.1059C75.9581 19.805 76.0654 19.5475 74.2415 19.5475C73.3189 19.5475 72.6966 19.4402 72.6108 19.29C72.5249 19.1398 72.4391 18.0669 72.4177 16.8868C72.4177 15.6852 72.2675 13.4536 72.1173 11.8873C71.9671 10.3424 71.8812 8.84035 71.9456 8.56141C72.0314 8.30393 72.3747 7.72458 72.7395 7.3169C73.3618 6.58735 74.3703 5.21409 75.9152 2.91817C77.0953 1.13723 77.2026 1.11577 78.3184 2.4032C78.8548 3.004 79.5844 4.01249 79.9706 4.61329ZM79.6058 1.73803C79.6058 1.84532 79.5629 1.9526 79.52 1.9526C79.4556 1.9526 79.3483 1.84532 79.284 1.73803C79.2196 1.60929 79.2625 1.52346 79.3698 1.52346C79.4985 1.52346 79.6058 1.60929 79.6058 1.73803ZM81.8803 2.1028C82.0948 2.44612 82.288 2.78943 82.3094 2.91817C82.3309 3.02546 82.6527 3.77646 83.0175 4.57038C83.7256 6.13675 83.79 6.32987 83.4896 6.13675C83.2106 5.98655 81.1078 2.08134 81.1078 1.75949C81.1078 1.33034 81.4726 1.502 81.8803 2.1028ZM86.3648 2.16717C86.4292 2.27446 86.3434 2.38174 86.1503 2.38174C85.9571 2.38174 85.7426 2.59632 85.6782 2.83235C85.5495 3.28295 85.5495 3.28295 85.2705 2.78943C85.1203 2.51049 85.0559 2.21009 85.0989 2.12426C85.2491 1.86677 86.2146 1.90969 86.3648 2.16717ZM89.3259 2.63923C89.4117 2.89672 89.4117 3.1542 89.3688 3.21857C89.2186 3.36877 88.6393 2.53194 88.7466 2.33883C88.9397 2.01697 89.2186 2.16717 89.3259 2.63923ZM90.549 4.52746C90.8065 4.69912 90.7421 4.74203 90.27 4.74203C89.9267 4.74203 89.7121 4.65621 89.798 4.52746C89.9696 4.26998 90.1413 4.26998 90.549 4.52746ZM84.9701 8.04644C84.9701 8.3683 84.4551 7.81041 84.0475 7.05941L83.6398 6.35132L84.3049 7.10232C84.6697 7.51001 84.9701 7.93915 84.9701 8.04644ZM78.3398 12.8314C78.4686 14.2476 78.4471 16.3289 78.2969 16.8653C78.2111 17.2087 78.0824 17.9597 77.9965 18.5175C77.8678 19.4831 77.8249 19.5475 77.2241 19.5475H76.6018L76.7306 16.2645C76.7949 14.4836 76.8808 12.8743 76.9451 12.7241C77.0739 12.295 78.3184 12.4022 78.3398 12.8314Z" fill="#C21807"/>
<path d="M89.2619 12.1447C89.0902 12.3378 89.0044 13.1103 89.0044 14.2261C89.0044 16.2216 89.2833 16.6936 90.2704 16.3074C90.5708 16.2001 91.1287 16.1572 91.5149 16.243C91.9011 16.3074 92.2659 16.2645 92.3517 16.1572C92.4161 16.0285 92.5448 15.2131 92.6092 14.3119C92.8023 12.2305 92.6092 11.9301 91.1287 12.1233C90.5064 12.2091 89.97 12.1876 89.7983 12.0374C89.6052 11.8872 89.455 11.9087 89.2619 12.1447ZM91.9011 13.3034C92.0299 13.8184 91.7724 15.3847 91.5578 15.2989C91.472 15.2775 91.0214 15.256 90.5493 15.256C89.7339 15.256 89.691 15.2345 89.691 14.5479C89.691 13.518 89.9056 12.9172 90.3133 12.8528C90.9999 12.7026 91.7938 12.9386 91.9011 13.3034Z" fill="#C21807"/>
<path d="M24.3753 12.6812C23.9247 12.767 23.4741 12.9601 23.3668 13.1318C23.1951 13.3892 23.1308 13.3892 22.9591 13.1103C22.6373 12.5953 22.1223 13.0459 20.7919 15.02C20.1482 16.007 19.247 17.1657 18.8393 17.6163C17.5519 18.9681 17.509 19.1398 17.509 22.8733C17.4875 24.7615 17.5519 26.7356 17.6592 27.272C17.745 27.8085 17.8523 29.6323 17.8738 31.3489L17.9167 34.4602L19.1183 34.5889C19.7835 34.6533 20.4272 34.7821 20.5559 34.8679C20.7061 34.9537 21.5 35.1039 22.3583 35.2112C23.2166 35.3185 24.504 35.5116 25.2121 35.6403C28.7096 36.2626 30.5979 36.5201 33.4731 36.8205C34.1168 36.8849 34.9108 37.0351 35.2326 37.1638C35.6403 37.3355 36.2411 37.3355 37.2711 37.1638C43.6224 36.1982 44.6952 35.9622 45.2102 35.576L45.7252 35.1468L45.6608 28.3878L45.5964 21.6288L46.5191 21.2855C47.0126 21.1138 47.4203 20.8349 47.4203 20.6847C47.4203 20.0839 46.4976 18.6033 45.5964 17.7451C45.0815 17.273 44.2232 16.286 43.6653 15.5779C42.056 13.4965 41.7771 13.3892 36.5415 13.1103C34.0525 12.9816 31.5205 12.7884 30.8768 12.7026C30.2331 12.5953 29.6538 12.5524 29.5679 12.6168C29.3534 12.7241 25.9417 12.7241 25.534 12.6168C25.3623 12.5524 24.8473 12.5953 24.3753 12.6812ZM28.6453 13.7326C28.4092 13.8398 27.8084 14.0115 27.3149 14.1188C26.5854 14.2904 26.3923 14.269 26.3923 14.0544C26.3923 13.7969 27.0789 13.6253 28.4307 13.5824C28.9671 13.5824 28.9886 13.6038 28.6453 13.7326ZM33.5804 13.9686C33.6448 14.0759 33.6448 14.1832 33.5375 14.2046C33.4517 14.2046 33.0011 14.2475 32.5719 14.3119C31.8209 14.3977 31.5634 14.2475 31.9068 13.9042C32.1213 13.6682 33.4302 13.7326 33.5804 13.9686ZM37.8933 14.4406C37.7217 14.5479 37.4856 14.784 37.3783 14.9771C37.0994 15.4491 36.9063 15.0414 37.1423 14.4621C37.2711 14.1188 37.4213 14.033 37.786 14.1188C38.1723 14.2261 38.1937 14.269 37.8933 14.4406ZM36.048 15.0414C36.048 15.1487 35.7476 15.5564 35.3828 15.9426C35.0395 16.3289 34.5031 17.1228 34.2027 17.7236C33.0011 20.1912 32.4646 20.1697 33.5804 17.7021C34.3314 16.0285 35.5116 14.5265 35.8763 14.741C35.9622 14.8054 36.048 14.9342 36.048 15.0414ZM29.9756 16.1143C29.8469 16.4791 29.6538 16.758 29.5679 16.758C29.4821 16.758 29.2032 17.1872 28.9671 17.7021C28.6024 18.5175 28.1088 19.1612 28.1088 18.8394C28.1088 18.6892 28.6024 17.5949 29.2461 16.3718C29.8683 15.1916 30.4048 14.9985 29.9756 16.1143ZM41.4123 16.2645C41.7771 16.7151 42.2491 17.3374 42.4422 17.6592C42.6353 18.0025 42.8714 18.26 42.9572 18.26C43.043 18.26 43.1289 18.3888 43.1289 18.539C43.1289 18.6892 43.4936 19.3329 43.9442 19.9766L44.7381 21.1567L44.8025 28.066L44.8669 34.9752L43.9871 35.2112C43.5151 35.3399 43.0216 35.3829 42.9143 35.3185C42.7641 35.2327 42.7426 33.7736 42.807 31.2845C42.9572 26.5854 42.8714 26.3494 41.3694 26.2421C40.8329 26.1992 40.039 26.3279 39.6099 26.4996C38.7301 26.8644 38.7945 26.3708 38.7516 32.293L38.7301 35.9407L37.6573 36.2197C37.0779 36.3699 36.2411 36.4557 35.8334 36.3913C34.3743 36.1768 31.6493 35.8335 30.791 35.7476C30.3189 35.7047 29.2675 35.5545 28.4307 35.4258C26.0919 35.0395 24.4826 34.8035 22.8518 34.5889C20.9421 34.3315 19.0539 33.9238 18.7964 33.6877C18.6891 33.6019 18.5819 32.2286 18.5389 30.6623C18.496 29.0959 18.3673 26.3708 18.2385 24.5899C18.1098 22.8304 18.0454 21.1782 18.1098 20.9422C18.2171 20.5345 18.4102 20.4916 20.3199 20.4057C24.1822 20.277 27.551 20.3414 30.6837 20.6203C32.4003 20.7705 34.2885 20.9207 34.9108 20.9422C35.5116 20.9851 36.1124 21.0709 36.2411 21.1353C36.5201 21.3069 37.7217 19.7835 39.2666 17.3374C39.9103 16.3074 40.5111 15.4706 40.5755 15.4706C40.6613 15.4706 41.0261 15.8354 41.4123 16.2645ZM36.6917 16.8653C36.5415 17.037 36.3269 17.1872 36.1982 17.1872C36.0909 17.1872 36.1553 16.994 36.3699 16.758C36.8205 16.2645 37.1209 16.3503 36.6917 16.8653ZM25.4911 17.273C25.2765 17.4232 25.1048 17.6592 25.1048 17.788C25.1048 18.1527 24.0105 19.3543 23.7959 19.2041C23.4312 18.9896 25.1048 16.994 25.6413 16.994C25.77 16.994 25.6842 17.1228 25.4911 17.273ZM20.1697 19.2256C19.8693 19.5904 19.526 19.6547 19.526 19.3543C19.526 19.2471 19.6976 19.0969 19.9122 19.0539C20.1053 18.9896 20.3199 18.9467 20.3628 18.9252C20.4057 18.9252 20.3199 19.0539 20.1697 19.2256ZM19.2041 19.5475C19.1397 19.6547 18.9895 19.762 18.8608 19.762C18.7535 19.762 18.6677 19.6547 18.6677 19.5475C18.6677 19.4187 18.8179 19.3329 19.011 19.3329C19.1827 19.3329 19.2685 19.4187 19.2041 19.5475ZM42.0131 31.1129C42.0345 33.4088 41.9916 35.3614 41.8843 35.4687C41.7985 35.5545 41.2621 35.7047 40.7257 35.7691C39.7601 35.8978 39.7172 35.8764 39.567 35.3399C39.5026 35.0181 39.5026 33.0869 39.5884 31.0485L39.7386 27.3364L40.318 27.1004C40.6184 26.9931 41.1119 26.8858 41.4123 26.9073L41.9487 26.9502L42.0131 31.1129Z" fill="#C21807"/>
<path d="M21.264 25.2122C20.9422 25.5984 21.3713 25.7701 22.7231 25.7701H23.7531L23.6672 26.8859C23.5385 28.5381 23.517 28.5595 22.4656 28.5595H21.5215L21.3284 27.315C21.1996 26.4567 21.0494 26.092 20.8134 26.092C20.1482 26.092 20.5345 29.1818 21.2211 29.2247C22.251 29.2676 24.1607 29.1603 24.2895 29.0316C24.3753 28.9458 24.5041 28.066 24.5899 27.079C24.7186 25.6628 24.6757 25.2551 24.4397 25.1049C23.9462 24.8045 21.543 24.8689 21.264 25.2122Z" fill="#C21807"/>
<path d="M28.6025 25.9203C28.4523 26.3279 28.6454 29.2676 28.8385 29.5894C28.9243 29.7396 29.568 29.8469 30.4692 29.8469C32.1644 29.8469 32.1429 29.8469 32.336 27.6797C32.4433 26.3279 32.4218 26.2207 31.9498 25.9632C31.2202 25.5769 28.7527 25.534 28.6025 25.9203ZM31.4992 26.9287C31.5421 27.1433 31.5206 27.7441 31.4348 28.2805L31.3061 29.2247L30.4049 29.1603L29.5037 29.0959L29.4393 27.7441L29.3749 26.3923L30.4049 26.4567C31.1988 26.4996 31.4563 26.6069 31.4992 26.9287Z" fill="#C21807"/>
<path d="M94.6262 21.5001C93.0598 21.8863 90.8712 22.3369 90.0129 22.4656C89.7768 22.4871 89.5837 22.53 89.5837 22.5515C89.5837 22.6158 87.3951 22.7875 84.949 22.9377C83.2539 23.045 82.181 23.0021 81.6231 22.8304C81.1725 22.7017 80.3786 22.5729 79.8851 22.5729C79.3916 22.5515 78.941 22.4656 78.8766 22.3798C78.8122 22.2725 77.7179 22.1867 76.4519 22.1652C75.186 22.1438 72.9115 22.0579 71.4095 21.9936C68.1695 21.8434 66.5173 22.1009 66.5173 22.8089C66.5173 23.1737 66.4529 23.1952 66.1954 22.9806C66.0023 22.8304 65.7233 22.7875 65.5088 22.8733C65.2942 22.9806 64.9723 23.0235 64.8221 23.0021C64.5432 22.9591 64.5432 23.0021 64.7792 23.281C64.9509 23.4741 65.0153 23.7101 64.9294 23.7745C64.8436 23.8603 64.7149 23.8389 64.629 23.7101C64.5432 23.5814 64.3286 23.4312 64.1355 23.3668C63.6849 23.1952 60.8955 24.1607 60.6809 24.5684C60.5736 24.7401 60.359 24.8474 60.1659 24.7615C59.608 24.547 58.8141 25.5125 58.8785 26.3279C58.9 26.8214 58.8356 27.0575 58.6425 27.0575C58.2562 27.0575 58.2777 27.4651 58.6854 27.6153C58.857 27.7012 59.0072 27.8728 59.0072 28.023C59.0072 28.3449 59.7582 28.8599 60.4449 29.0315C60.8955 29.1603 61.3246 28.6453 61.0242 28.3664C60.9384 28.302 60.8311 28.3449 60.7882 28.4736C60.7238 28.6668 60.5307 28.6668 60.0801 28.4951C59.4578 28.2591 59.2004 27.9157 59.6724 27.9157C59.7797 27.9157 59.8226 27.8085 59.7582 27.7012C59.6724 27.5724 59.5437 27.5295 59.4578 27.5724C59.372 27.6368 59.3076 27.4222 59.3076 27.1004C59.3291 26.6712 59.5437 26.3923 60.0801 26.049C60.4878 25.77 61.0028 25.5555 61.2388 25.5555C61.4963 25.5555 61.5821 25.4482 61.4963 25.2336C61.4319 25.0619 61.4748 24.9117 61.5821 24.9117C61.7108 24.9117 61.7967 24.9976 61.7967 25.1263C61.7967 25.2551 61.9898 25.2551 62.2902 25.1478C62.5477 25.0405 62.7408 24.8474 62.6979 24.6972C62.6764 24.5684 62.7408 24.5255 62.8695 24.5899C63.0841 24.7186 64.8007 24.2895 67.0537 23.517C68.148 23.1308 69.1565 23.0879 74.1346 23.281C76.4948 23.3668 78.941 23.5814 79.928 23.796C83.3397 24.5041 89.7125 24.0964 94.6905 22.8519C97.1152 22.2511 98.9605 22.2081 101.922 22.6373C104.454 23.0235 112.264 23.1737 111.427 22.8304C110.998 22.6587 111.105 22.2081 111.577 22.1867C111.813 22.1652 111.964 22.2296 111.899 22.3369C111.835 22.4227 111.964 22.5729 112.178 22.6587C112.779 22.8948 114.324 23.0235 114.431 22.8304C114.496 22.7446 114.195 22.6373 113.766 22.5944C113.337 22.5729 112.908 22.4013 112.8 22.2296C112.629 21.9077 111.341 21.779 111.062 22.0579C110.826 22.3154 108.359 22.3798 108.359 22.1223C108.359 21.7146 107.458 21.9077 107.35 22.3369C107.243 22.766 107.222 22.766 106.943 22.3798C106.749 22.1009 106.385 21.9721 105.784 21.9507C105.29 21.9292 104.797 21.8648 104.69 21.779C104.582 21.7146 104.496 21.779 104.496 21.8863C104.496 22.2296 103.896 22.1652 103.703 21.8219C103.509 21.5001 101.514 21.264 98.2739 21.1567C96.8362 21.1138 95.7634 21.1997 94.6262 21.5001ZM95.1626 21.9077C95.227 22.015 95.1411 22.1223 94.9695 22.1223C94.7764 22.1223 94.6262 22.015 94.6262 21.9077C94.6262 21.779 94.712 21.6932 94.8193 21.6932C94.948 21.6932 95.0982 21.779 95.1626 21.9077ZM63.7278 24.1822C63.7278 24.2251 63.5776 24.268 63.406 24.268C63.2343 24.268 63.0841 24.1822 63.0841 24.0535C63.0841 23.9462 63.2343 23.9033 63.406 23.9676C63.5776 24.0535 63.7278 24.1393 63.7278 24.1822ZM59.5437 25.77C59.608 25.8773 59.5651 25.9846 59.4578 25.9846C59.3291 25.9846 59.2218 25.8773 59.2218 25.77C59.2218 25.6413 59.2647 25.5555 59.3076 25.5555C59.372 25.5555 59.4793 25.6413 59.5437 25.77Z" fill="#C21807"/>
<path d="M114.838 22.1009C114.602 22.2511 114.602 22.294 114.881 22.4013C115.096 22.4871 115.225 22.4228 115.225 22.2296C115.225 21.8649 115.203 21.8649 114.838 22.1009Z" fill="#C21807"/>
<path d="M113.895 22.2725C114.045 22.3369 114.238 22.3154 114.303 22.2511C114.388 22.1867 114.26 22.1223 114.024 22.1438C113.788 22.1438 113.723 22.2082 113.895 22.2725Z" fill="#C21807"/>
<path d="M62.9765 29.847C63.0409 29.9542 63.1482 30.0615 63.2126 30.0615C63.2555 30.0615 63.2984 29.9542 63.2984 29.847C63.2984 29.7182 63.1911 29.6324 63.0624 29.6324C62.9551 29.6324 62.9122 29.7182 62.9765 29.847Z" fill="#C21807"/>
<path d="M67.8047 30.9198C67.5258 31.0914 67.5258 31.1343 67.8476 31.1343C68.0407 31.1343 68.2768 31.0271 68.3411 30.9198C68.5128 30.6408 68.2339 30.6408 67.8047 30.9198Z" fill="#C21807"/>
<path d="M77.5672 32.2072C77.1595 32.3789 77.1595 32.4003 77.6316 32.4003C77.8891 32.4218 78.1036 32.3145 78.1036 32.2072C78.1036 32.0785 78.0822 31.9926 78.0607 32.0141C78.0178 32.0141 77.8032 32.0999 77.5672 32.2072Z" fill="#C21807"/>
<path d="M83.6829 32.851C83.8545 32.9583 84.112 33.0656 84.2193 33.0656C84.348 33.0656 84.2837 32.9583 84.112 32.851C83.9404 32.7437 83.7043 32.6364 83.5756 32.6364C83.4683 32.6364 83.5112 32.7437 83.6829 32.851Z" fill="#C21807"/>
<path d="M85.1846 33.044C85.1846 33.3015 85.9785 33.559 86.236 33.3874C86.3433 33.323 86.4935 33.3659 86.5793 33.4946C86.6437 33.6019 86.8797 33.7092 87.0728 33.7092C87.7165 33.7092 91.4072 34.9752 92.8233 35.6833C94.2395 36.3914 94.6257 36.9063 94.6257 38.1079C94.6257 38.9877 93.8747 39.9533 92.7804 40.4682C91.5574 41.0476 87.6307 42.0131 85.5064 42.2706C84.455 42.3994 82.0733 42.5067 80.2494 42.5067C77.8677 42.5067 76.8163 42.5925 76.6232 42.7641C76.3871 42.9787 76.3442 42.9787 76.473 42.7641C76.5588 42.6354 76.5159 42.5067 76.3871 42.5067C76.2584 42.5067 76.1082 42.6569 76.0438 42.8285C75.8936 43.1933 75.5074 43.2791 75.5718 42.9143C75.6147 42.7856 75.3143 42.6569 74.9495 42.6139C74.5633 42.5925 74.2414 42.6354 74.2414 42.7641C74.2414 42.8714 74.0698 42.85 73.8337 42.7212C73.5977 42.6139 72.9969 42.5281 72.4819 42.5281C71.6236 42.5496 71.6022 42.571 72.203 42.7212C72.5677 42.8071 72.6965 42.9143 72.5248 42.9358C72.0957 43.0002 72.1601 43.0002 70.7224 42.8285C69.8427 42.7212 69.5208 42.7641 69.6067 42.9143C69.6925 43.0431 69.671 43.1504 69.5423 43.1504C69.435 43.1504 69.2848 43.0216 69.2204 42.8714C69.1131 42.6569 69.0702 42.6569 68.9629 42.8714C68.8127 43.2147 68.2978 43.2362 68.1905 42.8929C68.1261 42.7212 68.0617 42.7641 67.9759 42.9787C67.8472 43.2791 68.2763 43.322 71.3018 43.4508C82.0947 43.8799 85.5064 43.7726 89.2614 42.8071C90.3772 42.5281 91.4072 42.2921 91.5788 42.2921C92.1367 42.2921 94.0893 41.2192 94.6686 40.6184C95.8917 39.3095 95.8273 36.9063 94.5614 35.6833C93.5743 34.7392 91.1926 33.8594 87.6736 33.1513C86.5793 32.9153 86.1287 32.9153 85.9141 33.087C85.6995 33.2586 85.6137 33.2801 85.6137 33.087C85.6137 32.9582 85.5279 32.8509 85.3991 32.8509C85.2919 32.8509 85.1846 32.9368 85.1846 33.044ZM79.6057 42.9358C79.6057 43.0431 79.4555 43.086 79.2838 43.0216C79.1122 42.9358 78.962 42.85 78.962 42.8071C78.962 42.7641 79.1122 42.7212 79.2838 42.7212C79.4555 42.7212 79.6057 42.8071 79.6057 42.9358Z" fill="#C21807"/>
<path d="M3.32586 35.2971C1.2016 36.0481 0 36.6274 0 36.9064C0 37.0136 0.128743 37.2068 0.3004 37.3355C0.536429 37.5286 0.751001 37.4857 1.30889 37.1638C1.71657 36.9493 2.87526 36.4987 3.92666 36.1554L5.79344 35.576L9.18367 35.812C11.029 35.9408 13.4751 36.2412 14.5909 36.4772C17.7022 37.0995 19.4617 37.314 21.5001 37.357C22.53 37.357 23.6458 37.4642 24.0106 37.5715C25.2766 37.9363 28.0445 38.0651 28.2162 37.7861C28.3235 37.6144 28.4308 37.593 28.5166 37.7646C28.6453 37.9578 30.5979 38.4084 33.0011 38.7946C33.6878 38.9019 33.7092 38.8804 33.4517 38.4727C33.2801 38.1938 33.1084 38.108 33.0226 38.2367C32.9368 38.3869 32.6578 38.344 32.1858 38.108C31.7566 37.8934 30.9627 37.7432 30.2117 37.7217C29.4607 37.7217 29.053 37.6359 29.2247 37.5501C29.3963 37.4213 29.2461 37.357 28.7526 37.3355C27.6368 37.2926 26.8429 37.1853 25.7486 36.9278C25.2122 36.8205 24.1179 36.6703 23.281 36.606C22.4657 36.5416 21.1139 36.4343 20.277 36.3914C19.4617 36.327 18.303 36.1339 17.7022 35.9837C14.9342 35.2112 9.52699 34.5461 6.65172 34.589C5.68615 34.6104 4.65621 34.825 3.32586 35.2971Z" fill="#C21807"/>
<path d="M35.833 39.1379C35.833 39.3525 36.0047 39.5027 36.2192 39.5027C36.4124 39.5027 36.4982 39.4169 36.3694 39.331C36.2622 39.2452 36.0905 39.095 36.0047 38.9877C35.8974 38.8804 35.833 38.9448 35.833 39.1379Z" fill="#C21807"/>
<path d="M36.8416 39.2237C36.7558 39.2881 36.6914 39.4597 36.6914 39.5885C36.6914 39.7172 36.7987 39.6743 36.906 39.5026C37.0562 39.2666 37.1635 39.2451 37.2922 39.4383C37.378 39.567 37.9359 39.7387 38.5153 39.8245C39.1161 39.9103 39.7812 40.0176 40.0173 40.0605C40.3606 40.1464 40.382 40.1249 40.1246 39.9532C39.9529 39.8245 39.3092 39.6743 38.6869 39.5885C38.0647 39.5241 37.5497 39.3739 37.5497 39.2666C37.5497 39.052 37.0347 39.0091 36.8416 39.2237Z" fill="#C21807"/>
<path d="M42.2276 40.5111C42.3563 40.5541 42.6138 40.5541 42.764 40.5111C42.8927 40.4468 42.7854 40.4039 42.485 40.4039C42.1846 40.4039 42.0774 40.4468 42.2276 40.5111Z" fill="#C21807"/>
<path d="M46.6694 41.6483C46.7338 41.7556 46.8411 41.8629 46.9054 41.8629C46.9483 41.8629 46.9913 41.7556 46.9913 41.6483C46.9913 41.5196 46.884 41.4338 46.7552 41.4338C46.6479 41.4338 46.605 41.5196 46.6694 41.6483Z" fill="#C21807"/>
<path d="M48.4927 41.6483C48.4927 41.7556 48.6 41.8629 48.7072 41.8629C48.836 41.8629 48.9218 41.7556 48.9218 41.6483C48.9218 41.5196 48.836 41.4338 48.7072 41.4338C48.6 41.4338 48.4927 41.5196 48.4927 41.6483Z" fill="#C21807"/>
<path d="M56.1532 41.9273C56.0888 42.099 56.1747 42.2277 56.3463 42.2277C56.518 42.2277 56.6467 42.099 56.6467 41.9273C56.6467 41.7771 56.5609 41.6484 56.4536 41.6484C56.3463 41.6484 56.2176 41.7771 56.1532 41.9273Z" fill="#C21807"/>
<path d="M50.4241 42.0775C50.5957 42.1848 50.8961 42.2921 51.0678 42.2921C51.3467 42.2921 51.3467 42.2706 51.0678 42.0775C50.8961 41.9702 50.5957 41.8629 50.4241 41.8629C50.1451 41.8629 50.1451 41.8844 50.4241 42.0775Z" fill="#C21807"/>
<path d="M61.1528 42.7212C61.1528 42.8285 61.2601 42.9358 61.3889 42.9358C61.4961 42.9358 61.5391 42.8285 61.4747 42.7212C61.4103 42.5925 61.303 42.5066 61.2387 42.5066C61.1957 42.5066 61.1528 42.5925 61.1528 42.7212Z" fill="#C21807"/>
<path d="M64.4789 42.7212C64.4145 42.85 64.5003 42.8714 64.672 42.8071C65.0582 42.6569 65.1226 42.5067 64.8222 42.5067C64.6935 42.5067 64.5433 42.5925 64.4789 42.7212Z" fill="#C21807"/>
<path d="M66.2383 42.8071C65.5088 43.129 65.7019 43.365 66.7104 43.365C67.3756 43.3435 67.4185 43.3221 67.0752 43.129C66.7533 42.9358 66.7318 42.85 66.9679 42.6998C67.397 42.4209 66.9464 42.5067 66.2383 42.8071Z" fill="#C21807"/>
</svg>
