<svg width="43" height="73" viewBox="0 0 43 73" fill="none" xmlns="http://www.w3.org/2000/svg">
<path d="M25.0514 0.529602C26.2256 1.17487 27.3469 2.17977 28.0238 3.19526C28.4999 3.91456 28.5422 3.94629 28.7114 3.77705C28.7643 3.72415 28.8701 3.72415 28.9547 3.76646C29.0711 3.84052 29.0605 3.90398 28.9124 4.12612C28.7432 4.37999 28.7432 4.44345 28.923 5.15218C29.1663 6.17825 29.0816 8.01881 28.7008 9.85938C28.3941 11.3509 28.2354 11.7317 27.5902 12.4616C27.1141 13.001 26.8814 13.8367 27.0084 14.6406C27.0613 15.0109 27.0401 15.0955 26.9026 15.0955C26.6699 15.0955 26.5324 14.6618 26.5324 13.8896C26.5324 12.8847 26.6276 12.5991 27.1141 12.049C27.7171 11.372 27.7911 11.2028 28.0873 9.91227C28.4575 8.29384 28.5422 4.83484 28.2037 4.83484C28.1508 4.83484 28.1402 4.94062 28.1825 5.06756C28.3306 5.4801 28.2354 6.01957 27.9181 6.6331C27.4315 7.58511 27.3363 8.09286 27.4738 8.91794C27.5584 9.35163 27.569 9.6584 27.5055 9.72187C27.4526 9.77476 27.2305 9.80649 27.0189 9.78534C26.6593 9.7536 26.5641 9.81707 25.9083 10.4517C25.189 11.1605 24.8187 11.4143 24.2792 11.5413C24.036 11.5942 23.9196 11.5413 23.6023 11.2345C23.3907 11.0335 23.1897 10.8643 23.1474 10.8643C23.1157 10.8643 22.9676 10.9806 22.8406 11.1182L22.5973 11.3826L23.0205 11.8904C23.2532 12.1654 23.5599 12.6837 23.708 13.0328C24.0042 13.7521 24.6918 15.9206 25.0937 17.4226C25.2418 17.9727 25.5274 18.9247 25.7284 19.5382C25.9294 20.1517 26.3843 21.8125 26.7439 23.2299C27.4103 25.9062 27.77 27.2073 28.3095 29.0055C28.4893 29.5873 28.8278 30.8038 29.0711 31.7029C29.3144 32.602 29.6317 33.7656 29.7798 34.2945C29.9279 34.8128 30.2558 36.0504 30.5097 37.0448C30.753 38.0285 31.1338 39.4248 31.3348 40.1441L31.7156 41.4558V43.8464C31.7156 46.1841 31.5569 51.5895 31.4617 52.7531C31.43 53.0704 31.3771 53.6734 31.3453 54.0859C31.2819 54.7629 31.3136 54.9956 31.7156 56.4025C32.3608 58.719 32.9849 60.5808 33.8312 62.6964C34.1591 63.532 34.4447 64.3888 34.8466 65.7746C34.9313 66.0813 33.5561 66.7266 32.2762 66.9804C31.779 67.0756 31.5357 66.7477 30.3193 64.336C29.7375 63.1724 29.1663 62.0934 29.0605 61.9453C28.9547 61.7972 28.2143 60.3692 27.3997 58.7719C26.5958 57.1747 25.8871 55.7784 25.8131 55.662C25.7496 55.5457 25.4005 54.8581 25.0514 54.1282C24.6918 53.3983 24.1523 52.3617 23.8561 51.8222C23.2743 50.7538 23.2426 50.7538 23.1051 51.7482C22.957 52.8271 21.2328 60.0096 20.7356 61.6174C20.5241 62.305 20.4923 62.5165 20.5981 62.58C20.6722 62.6329 21.5924 62.7281 22.6502 62.8021C23.708 62.8762 24.6495 62.9502 24.7341 62.9608C24.8293 62.982 25.8025 63.0454 26.9026 63.1195C28.0133 63.183 29.0288 63.2887 29.1663 63.3416C29.399 63.4368 29.4096 63.458 29.2509 63.6166C29.1028 63.7647 28.7432 63.7647 25.1361 63.5426C22.9676 63.4157 20.9683 63.2887 20.7039 63.257C20.1538 63.2041 20.2702 63.0243 19.6144 64.8331C19.4028 65.4043 19.0008 66.3669 18.7047 66.9804C18.2921 67.869 18.144 68.1017 17.9959 68.07C17.7209 68.0171 17.7949 67.6257 18.2392 66.642C19.1172 64.7485 20.5241 60.1259 21.4338 56.1909C22.4493 51.8222 22.6291 50.9019 22.8301 49.2094C23.2743 45.4543 23.359 44.4917 23.3695 43.18C23.3801 41.9953 23.3378 41.6145 23.2003 41.276C22.9887 40.8 22.3223 38.9065 21.73 37.1506C21.5078 36.5053 21.2645 35.8283 21.1799 35.6379C20.9154 35.0667 20.5241 33.8925 19.8259 31.5442C19.4874 30.4335 19.1066 29.2488 18.3027 26.8899C18.1758 26.5408 17.5199 24.5416 16.8429 22.4472C16.1554 20.3527 15.4678 18.29 15.2985 17.8669C14.96 17.0101 14.9495 16.7351 15.2668 16.7351C15.4043 16.7351 15.5418 16.8726 15.6688 17.1476C15.9967 17.8457 20.1327 30.4124 20.45 31.7029C20.6722 32.5597 21.4761 35.0773 21.8886 36.1985C22.0684 36.664 22.4069 37.6054 22.6502 38.2824C22.883 38.97 23.1051 39.5094 23.1262 39.4883C23.1474 39.4566 23.0628 38.9277 22.9464 38.293C22.8301 37.6689 22.6502 36.5688 22.5656 35.86C22.4704 35.1513 22.28 33.9772 22.1425 33.2684C22.005 32.5491 21.8569 31.7558 21.8357 31.4913C21.804 31.2269 21.7088 30.6134 21.6242 30.1162C21.4867 29.3017 21.3809 28.5824 20.8626 24.8801C20.7779 24.2349 20.651 23.4309 20.5981 23.0818C20.5452 22.7328 20.4077 21.4211 20.2913 20.1729C20.175 18.9247 20.0586 17.6871 20.0375 17.4226C19.9952 16.9784 19.7413 15.4657 19.4345 13.8473C19.3499 13.3713 19.2759 13.1914 19.1701 13.2338C18.4085 13.5299 17.5834 13.5511 17.6786 13.2655C17.6997 13.202 18.0806 13.0116 18.5354 12.8529C19.699 12.4404 20.5029 11.8586 20.7674 11.2134C20.852 11.023 21.0107 10.3989 21.1376 9.83822C21.4126 8.54771 21.5924 8.17748 22.1002 7.94477C22.7031 7.68032 22.9147 7.38413 23.0839 6.59079C23.1686 6.18882 23.2955 5.79744 23.3801 5.72339C23.4647 5.63877 23.835 5.52241 24.2158 5.45894C25.4428 5.26854 28.0133 4.46461 28.0133 4.27421C28.0133 4.0415 27.1882 2.94138 26.4795 2.24324C25.7602 1.52393 24.4591 0.720009 23.6446 0.487297C23.2214 0.370934 21.9732 0.772896 21.1905 1.29122C20.3866 1.8307 19.2547 2.95197 18.747 3.71358C18.4296 4.20016 18.3344 4.44345 18.3027 4.9512C18.2498 5.61761 18.3027 5.78686 18.8951 7.03506C19.1912 7.68032 19.2547 7.90245 19.2124 8.31499C19.1278 9.17181 18.3873 10.0075 17.7949 9.89111C17.4882 9.83822 17.5199 9.6584 17.9007 9.4151C18.2392 9.19297 18.5989 8.62176 18.5989 8.27268C18.5989 8.12459 18.546 8.13517 18.2604 8.34673C18.0806 8.48424 17.6574 8.73811 17.3401 8.90736C16.7795 9.2247 16.7477 9.25644 16.4621 10.0709C16.2929 10.5364 15.9544 11.7317 15.6899 12.726C15.4255 13.7203 15.1399 14.7147 15.0447 14.9368C14.96 15.1484 14.8966 15.3388 14.9177 15.3599C15.0447 15.4763 15.965 15.635 16.8323 15.6984C17.8796 15.7619 18.2815 15.8994 18.1229 16.1533C18.0594 16.2591 17.7949 16.2696 16.9699 16.2062C16.3775 16.1639 15.6582 16.1215 15.3726 16.1004C15.0764 16.0898 14.7062 16.0158 14.5369 15.9523C14.2619 15.8465 14.2407 15.8042 14.3042 15.434C14.3465 15.2224 14.5687 14.4502 14.7908 13.7203C15.4784 11.499 15.7534 10.5258 15.7217 10.4835C15.6794 10.4412 13.6484 11.9961 13.1512 12.451C12.7916 12.7789 12.5694 12.7577 12.5694 12.4087C12.5694 12.1019 12.781 11.9115 14.2619 10.8749C14.9283 10.4094 15.5947 9.944 15.7322 9.8488C15.8592 9.7536 16.039 9.51031 16.1236 9.3199C16.2717 8.97083 16.8641 8.51598 17.8267 8.01881C18.6623 7.58511 18.6518 7.61685 18.2921 6.84466C18.1229 6.46385 17.9219 5.81859 17.8584 5.41663C17.7421 4.75022 17.7526 4.63386 17.943 4.20016C18.4825 2.96254 20.249 1.14313 21.5924 0.434402C22.2589 0.0959091 22.4598 0.0324402 23.2003 0.0112839C24.0465 -0.0204468 24.0465 -0.0204468 25.0514 0.529602ZM26.2679 5.5753C25.6861 5.75513 24.861 5.93495 24.4379 5.96669L23.6763 6.03015V6.42154C23.6763 7.03506 23.3801 7.87072 23.0839 8.10344C22.9358 8.2198 22.682 8.33615 22.5233 8.37846C22.0473 8.48424 21.9098 8.72754 21.6771 9.85938C21.5501 10.4412 21.402 11.0547 21.328 11.2134C21.2328 11.4567 21.2434 11.5413 21.3703 11.6788C21.5184 11.8163 21.5924 11.774 22.0473 11.2874C22.3223 10.9912 22.6185 10.6527 22.7031 10.5364C22.9147 10.2402 23.2003 10.2931 23.6657 10.7056C23.8879 10.9066 24.1417 11.0758 24.2369 11.0758C24.4273 11.0758 25.263 10.4306 25.8448 9.82764C26.0881 9.5632 26.4054 9.36221 26.5958 9.3199L26.9237 9.25644L26.9132 8.5054C26.9026 8.08228 26.9449 7.61685 26.9872 7.46876C27.0718 7.21489 27.0507 7.18315 26.7333 7.11968C26.5429 7.08795 26.3314 7.00333 26.2467 6.93986C25.9717 6.70714 26.1092 6.61194 26.7122 6.65425L27.3257 6.68599L27.5584 6.08304C27.8123 5.44836 27.7911 5.10987 27.4949 5.19449C27.3997 5.22623 26.8497 5.39547 26.2679 5.5753ZM22.2589 13.1068C22.6608 14.3868 23.3801 16.2802 23.8773 17.3909C24.1206 17.9198 24.311 18.4804 24.311 18.6285C24.311 19.0411 24.0783 19.4324 23.5176 19.9508L23.031 20.4056L23.1897 21.4211C23.2743 21.9923 23.4224 22.9443 23.5176 23.5579C23.8561 25.8321 24.5331 29.0584 24.7976 29.6825C25.0091 30.1797 26.2679 35.0455 26.8497 37.5737C27.0401 38.3882 27.3363 39.6046 27.5055 40.2711C27.6854 40.9375 27.9604 42.0482 28.1191 42.7569C28.2777 43.455 28.7008 45.1158 29.0499 46.4592C29.3884 47.792 29.8327 49.5056 30.0231 50.2672C30.2135 51.0183 30.4779 51.9491 30.6155 52.33L30.8587 53.0175L30.8799 52.4357C30.8905 52.1184 30.8905 51.8222 30.8799 51.7799C30.8799 51.7376 30.9328 50.4048 31.0174 48.8181C31.0915 47.2314 31.1655 44.9042 31.1761 43.656C31.1867 41.6885 31.1549 41.2865 30.9857 40.6942C30.8693 40.3134 30.6049 39.4354 30.4039 38.7478C30.1923 38.0497 29.9279 37.0765 29.8115 36.5793C29.6846 36.0822 29.5048 35.3629 29.3884 34.9821C29.272 34.6013 29.0393 33.7233 28.8489 33.0251C28.4681 31.5442 27.8652 29.4286 27.643 28.7411C27.2517 27.5352 26.8074 25.9167 26.0987 23.1453C25.6861 21.4846 25.2313 19.8344 25.0937 19.4536C24.9457 19.0834 24.6706 18.1737 24.4696 17.4438C23.634 14.4291 23.634 14.4079 23.2003 13.4559C23.1157 13.2761 23.0205 13.0222 22.9782 12.8741C22.9358 12.726 22.7666 12.4298 22.5868 12.2183C22.28 11.8375 22.2589 11.8269 22.1213 12.0173C22.005 12.1971 22.0261 12.3452 22.2589 13.1068ZM22.9993 29.4815C22.5868 29.5344 22.2165 29.545 22.1742 29.5238C22.0579 29.4498 22.0367 29.3123 22.5656 32.2106C22.8195 33.6492 23.0839 35.2254 23.1474 35.7225C23.2109 36.2197 23.433 37.5948 23.634 38.7901C23.9619 40.7471 23.9936 41.149 23.9936 43.0213C23.9936 44.3965 23.9196 45.6658 23.7821 46.8294C23.3907 50.1615 23.359 49.6855 24.0465 50.9548C24.6495 52.0338 25.4217 53.5464 27.7488 58.0949C28.3729 59.3114 29.2826 61.0568 29.7692 61.9559C30.2452 62.855 30.9011 64.1138 31.1972 64.7591C32.0012 66.4515 32.1175 66.6208 32.3291 66.5044C32.4243 66.4515 32.7839 66.3246 33.1119 66.24C33.4504 66.1448 33.8206 65.9861 33.9581 65.8698C34.1802 65.6899 34.1908 65.6582 34.0639 65.2245C33.9898 64.9706 33.884 64.5687 33.8206 64.3465C33.7254 63.9657 32.9532 61.8184 32.2868 60.1048C32.0329 59.4172 31.9377 59.1104 31.0386 55.8736C30.7107 54.71 30.2981 53.2608 30.1183 52.6473C29.9385 52.0338 29.7481 51.3885 29.7057 51.2193C29.6529 51.0394 29.473 50.4259 29.2932 49.8441C29.1134 49.2623 28.9018 48.4267 28.8066 47.993C28.7114 47.5593 28.5951 47.0304 28.5422 46.8294C28.4893 46.6284 28.3518 46.0572 28.2354 45.56C28.1191 45.0629 27.7488 43.5925 27.4209 42.2809C27.093 40.9692 26.7651 39.6152 26.691 39.2662C26.617 38.9171 26.5324 38.5574 26.49 38.4728C26.4372 38.3353 26.2256 37.4256 26.0458 36.5688C26.0035 36.3255 25.8236 35.6485 24.7447 31.4384C24.5543 30.7403 24.3744 30.0527 24.3216 29.9046C24.2687 29.7566 24.1946 29.5556 24.1629 29.4392C24.1206 29.3123 24.036 29.27 23.9196 29.3229C23.8138 29.3546 23.4013 29.4286 22.9993 29.4815Z" fill="#C21807"/>
<path d="M26.2146 8.31497C26.2146 8.48422 26.1512 8.53711 25.9396 8.53711C25.5905 8.53711 25.6223 8.18804 25.9819 8.13515C26.1617 8.10341 26.2146 8.1563 26.2146 8.31497Z" fill="#C21807"/>
<path d="M25.0829 9.88042C25.231 10.0179 25.1569 10.2295 24.9665 10.2295C24.7655 10.2295 24.5222 10.0391 24.5222 9.891C24.5222 9.78522 24.9877 9.77464 25.0829 9.88042Z" fill="#C21807"/>
<path d="M30.5307 41.1275C30.9327 41.2861 30.7423 41.4871 30.1605 41.5189C29.7797 41.54 29.5999 41.5083 29.4941 41.3813C29.3671 41.2333 29.3777 41.1909 29.5047 41.1063C29.6951 40.99 30.2134 40.99 30.5307 41.1275Z" fill="#C21807"/>
<path d="M22.4807 5.54316C22.724 5.63836 22.6288 5.89224 22.3538 5.89224C22.0153 5.89224 21.5605 6.32593 21.5605 6.65385C21.5605 6.79136 21.6557 7.05581 21.772 7.24622C21.9518 7.5424 21.9624 7.59529 21.8249 7.65876C21.5816 7.74338 21.2854 7.42604 21.1373 6.90772C21.0316 6.52691 21.0421 6.39998 21.1796 6.13553C21.4441 5.60663 22.0153 5.35276 22.4807 5.54316Z" fill="#C21807"/>
<path d="M12.4107 13.2969C12.4424 13.3498 12.2097 14.2172 11.8924 15.2221C10.7288 18.8609 9.88257 22.2882 8.87766 27.5243C8.4757 29.6293 8.46512 30.0313 8.81419 30.4544C9.01517 30.6871 9.07864 30.8881 9.07864 31.2689C9.07864 32.0622 9.32193 32.7921 10.2951 34.876C11.1837 36.7589 11.8606 38.2609 12.3578 39.3716C12.654 40.038 12.6011 40.1332 13.5637 36.6742C14.2301 34.2836 14.6109 33.12 15.0552 32.1998C15.2562 31.7661 15.436 31.6391 15.6899 31.7343C15.8062 31.7872 15.7745 31.9882 15.4677 32.8873C15.2668 33.4903 14.8965 34.6856 14.6321 35.5636C14.3782 36.4309 13.9974 37.7215 13.7858 38.4196C13.5637 39.1178 13.331 39.9005 13.2569 40.165C12.8656 41.5084 12.728 41.8046 12.4847 41.8363C12.178 41.8786 12.0828 41.6142 12.2415 41.1487C12.3684 40.8208 12.3367 40.7256 11.903 39.763C11.6385 39.2024 11.3952 38.6206 11.3529 38.4831C11.3106 38.3561 11.2471 38.2821 11.1942 38.3244C11.0885 38.4513 10.3057 40.5987 10.0835 41.3814C9.98835 41.7305 9.74505 42.4816 9.55465 43.0422C9.35367 43.6134 9.12095 44.4491 9.03633 44.9039C8.84593 45.8982 8.94113 46.48 9.55465 48.1513C10.4749 50.6689 10.5278 51.018 10.0412 51.4728C9.66043 51.8325 8.16893 52.5835 8.02084 52.4883C7.71408 52.2979 8.08431 51.9594 9.22673 51.3776C9.8191 51.0709 9.8191 50.5208 9.21615 49.1774C8.7613 48.1725 8.43338 47.1041 8.34876 46.3214C8.24298 45.4751 8.33818 44.9991 8.97286 42.9681C9.16326 42.3863 9.42771 41.5084 9.56523 41.0112C9.90372 39.8582 10.3163 38.6735 10.623 37.9753L10.8663 37.4253L10.5172 36.706C10.3163 36.3146 10.0941 35.8174 9.99892 35.6164C9.9143 35.4155 9.66043 34.8654 9.44887 34.4C8.89882 33.1835 8.65552 32.4113 8.58148 31.6074C8.54974 31.2266 8.46512 30.8564 8.40165 30.8035C7.8516 30.338 7.78813 29.6082 8.12662 27.9474C8.24298 27.3868 8.35934 26.8896 8.38049 26.8473C8.40165 26.8156 8.4757 26.4136 8.53916 25.9693C8.63437 25.25 9.00459 23.5787 9.2902 22.4998C9.34309 22.2988 9.60754 21.2198 9.87199 20.1197C10.1364 19.009 10.4432 17.8031 10.5596 17.4223C10.6653 17.0415 10.7923 16.5867 10.824 16.4174C10.9404 15.9203 11.5856 14.0797 11.8289 13.6143C12.0405 13.2017 12.2732 13.0748 12.4107 13.2969Z" fill="#C21807"/>
<path d="M20.0795 35.4051C20.4709 35.7964 20.2805 36.3253 19.6776 36.5157C19.3919 36.6004 18.9583 36.3571 18.863 36.0397C18.8207 35.9022 18.8736 35.7118 19.0217 35.5108C19.2967 35.13 19.7622 35.0877 20.0795 35.4051Z" fill="#C21807"/>
<path d="M19.8259 44.9782C20.0903 45.2532 20.1009 45.5282 19.8471 45.8456C19.6143 46.1312 18.8845 45.9725 18.7152 45.6023C18.5565 45.2426 18.5671 45.1686 18.8104 44.9253C19.096 44.6397 19.5086 44.6608 19.8259 44.9782Z" fill="#C21807"/>
<path d="M7.66112 52.8903C7.68227 52.9644 7.31204 53.9799 6.82546 55.1434C5.78882 57.587 4.60408 60.5911 4.65697 60.6228C5.03778 60.919 5.95806 61.4585 7.22742 62.1672C8.09481 62.6432 9.02568 63.1721 9.3007 63.3414C9.56515 63.5106 11.5115 64.5261 13.6377 65.5945C15.7744 66.684 17.4881 67.6043 17.4881 67.6889C17.4881 67.763 17.3505 67.837 17.1707 67.8582C16.9274 67.8793 16.3245 67.6254 14.9282 66.9273C13.881 66.409 12.9818 65.9753 12.9395 65.9753C12.8972 65.9753 12.0721 65.5416 11.099 65.0021C9.25839 63.9866 9.21608 63.9655 7.8621 63.1827C7.39667 62.9182 6.98413 62.6961 6.95239 62.6961C6.87835 62.6961 5.28107 64.8329 4.97431 65.3512C4.63582 65.9118 4.43484 66.0599 4.27617 65.8695C4.2127 65.7849 3.97998 65.7108 3.76842 65.7003C3.33473 65.6897 2.44618 65.1819 2.35097 64.8963C2.31924 64.7906 2.45675 64.3145 2.65774 63.8385C2.85872 63.3519 3.21837 62.4634 3.47224 61.8499C3.71553 61.2364 3.95883 60.644 4.01172 60.5276C4.15981 60.1891 4.95316 58.1793 5.32339 57.1956C5.85228 55.831 6.47638 54.3501 6.84661 53.6202C7.18511 52.9538 7.55534 52.6153 7.66112 52.8903ZM4.00114 62.1884C3.80016 62.675 3.46166 63.4366 3.23952 63.902C2.78467 64.8434 2.79525 64.8117 2.97507 64.8117C3.04912 64.8117 3.3453 64.9598 3.62033 65.129C4.19154 65.4887 4.3079 65.457 4.58293 64.8752C4.73102 64.5896 5.56668 63.4895 6.24367 62.7067C6.41292 62.5057 6.43407 62.4422 6.31771 62.3682C6.23309 62.3259 5.78882 62.0509 5.32339 61.7653C4.85795 61.4796 4.44541 61.2575 4.41368 61.2787C4.37137 61.2998 4.19154 61.7124 4.00114 62.1884Z" fill="#C21807"/>
<path d="M2.52013 65.4888C2.52013 65.6369 2.14991 66.1658 1.90661 66.3562C1.77968 66.4408 1.82199 66.5148 2.09702 66.7475C2.52013 67.1072 2.65765 67.1072 2.80574 66.7264C2.86921 66.5571 3.04903 66.335 3.19713 66.2292C3.47215 66.06 3.51446 66.06 4.05394 66.2292C4.74151 66.4408 5.09058 66.7052 4.96365 66.9062C4.8896 67.0332 4.81556 67.0226 4.54053 66.8745C4.33955 66.7793 4.02221 66.7158 3.75776 66.737C3.35579 66.7687 3.31348 66.8004 3.25002 67.1389C3.10192 67.8688 2.59418 67.9005 1.82199 67.213L1.3354 66.7793L0.869971 67.2659C0.616099 67.5409 0.40454 67.8053 0.40454 67.8582C0.40454 68.0169 1.81141 69.5401 2.30858 69.9209C3.46157 70.7883 5.27041 71.4547 6.71959 71.55C7.32254 71.5923 7.70334 71.5711 7.70334 71.5076C7.70334 71.3384 7.14271 70.873 6.69843 70.6614C6.12722 70.397 6.07433 70.1008 6.59266 70.1008C7.25907 70.1008 7.88317 70.5662 8.09473 71.222C8.2534 71.6875 7.97837 72.0154 7.37543 72.1106C6.86768 72.1741 5.18578 71.9096 4.44533 71.6452C2.83747 71.0634 0.774769 69.4132 0.150669 68.2285C-0.103203 67.7207 -0.0714693 67.6044 0.520898 66.9803C0.996906 66.4831 1.03922 66.3879 0.933439 66.1869C0.869971 66.06 0.838237 65.8802 0.869971 65.7955C0.933439 65.6474 0.97575 65.6686 1.19789 65.8696L1.46234 66.1234L1.8643 65.7321C2.27684 65.3301 2.52013 65.2349 2.52013 65.4888Z" fill="#C21807"/>
<path d="M34.6242 66.9273C34.8041 67.2658 34.8887 67.3081 35.0685 67.1283C35.1531 67.0436 35.3964 67.0436 35.9676 67.1494C36.8668 67.2975 38.2948 67.3293 39.0881 67.2129C39.6276 67.1389 39.6488 67.1389 39.6382 67.3716C39.6276 67.5091 39.6911 67.7735 39.7651 67.9534C39.8709 68.2178 39.8709 68.3342 39.7863 68.4188C39.5959 68.6092 39.3526 68.4505 39.2468 68.0697C39.1199 67.5725 38.8449 67.6043 38.8872 68.112C38.9189 68.4611 38.8977 68.514 38.7073 68.514C38.5275 68.514 38.4852 68.4505 38.4852 68.1438C38.4852 67.837 38.4429 67.7735 38.2736 67.7735C38.0938 67.7735 38.0621 67.837 38.0832 68.1226C38.1256 68.8313 37.6813 68.99 37.5755 68.3024C37.5226 67.9851 37.4591 67.8793 37.311 67.8793C37.1735 67.8793 37.1101 67.9534 37.1101 68.1226C37.1101 68.3976 36.9302 68.6198 36.7081 68.6198C36.5917 68.6198 36.5706 68.5246 36.6129 68.1966C36.6446 67.9639 36.6235 67.7735 36.5706 67.7735C36.5177 67.7735 36.4754 67.837 36.4754 67.9216C36.4754 68.0803 36.0946 68.4082 35.9148 68.4082C35.8619 68.4082 35.8513 68.2495 35.883 68.0591C35.9676 67.6254 35.682 67.4033 35.2589 67.562C34.9522 67.6783 34.931 67.7735 35.1637 68.2178C35.2907 68.4717 35.3118 68.5986 35.2166 68.7996C35.0791 69.1064 34.5185 69.3602 33.9896 69.3602C33.6722 69.3602 33.6193 69.392 33.6511 69.5401C33.9049 70.4709 34.18 71.2431 34.3069 71.4124C34.455 71.6133 34.4761 71.6133 35.1214 71.4229C36.2321 71.095 37.8188 70.4392 39.4901 69.6035C41.4682 68.6198 42.2933 68.1226 42.2298 67.9534C42.1769 67.7947 41.4576 67.562 41.0345 67.562C40.8652 67.562 40.6748 67.4879 40.6008 67.4033C40.495 67.2764 40.5268 67.2235 40.77 67.1283C41.1403 66.9908 41.7538 67.0754 42.3567 67.3398C42.8751 67.5725 43.0337 67.9851 42.7164 68.3024C42.1875 68.8313 38.1996 70.8306 36.1898 71.571C35.333 71.8778 34.857 71.9941 34.4761 71.9941C33.9896 71.973 33.9155 71.9413 33.7251 71.6345C33.6088 71.4441 33.4078 70.8411 33.2914 70.3017C33.1645 69.7093 33.0058 69.2756 32.9 69.191C32.7625 69.0852 32.7519 69.0323 32.8577 68.9054C32.9635 68.789 32.9741 68.6303 32.9 68.3342C32.6885 67.4879 32.6673 67.2658 32.826 67.2023C33.027 67.1283 33.3549 67.7524 33.4607 68.3765L33.5347 68.8313H34.0425C34.3281 68.8313 34.5925 68.789 34.6242 68.7255C34.656 68.6727 34.6031 68.4717 34.4973 68.2813C34.3915 68.0909 34.2963 67.7841 34.2857 67.6149C34.2752 67.435 34.2329 67.1389 34.1905 66.9484C34.0953 66.4936 34.3915 66.483 34.6242 66.9273Z" fill="#C21807"/>
<path d="M4.5936 67.2129C4.6888 67.6043 5.06961 68.1967 5.75718 69.0641C6.07452 69.4555 6.32839 69.8151 6.32839 69.868C6.32839 69.9315 6.1803 70.0267 6.00047 70.0901C5.37637 70.3017 5.05903 70.1959 5.42926 69.8892C5.68313 69.6776 5.42926 69.4449 5.10134 69.5824C4.60418 69.7622 4.47724 69.6141 4.80516 69.2439C5.04845 68.9795 4.90036 68.8314 4.47724 68.9054C4.05412 68.9689 3.95892 68.7573 4.31857 68.5352C4.67822 68.313 4.46666 68.1121 3.93777 68.1755C3.54638 68.2178 3.47234 68.1967 3.47234 68.038C3.47234 67.9428 3.60985 67.8053 3.78967 67.7418C3.9695 67.6678 4.10701 67.5409 4.10701 67.4456C4.10701 66.9062 4.47724 66.7369 4.5936 67.2129Z" fill="#C21807"/>
</svg>
